%TF.GenerationSoftware,KiCad,Pcbnew,8.0.6*%
%TF.CreationDate,2024-12-02T20:52:06+01:00*%
%TF.ProjectId,plate,706c6174-652e-46b6-9963-61645f706362,rev?*%
%TF.SameCoordinates,Original*%
%TF.FileFunction,Profile,NP*%
%FSLAX46Y46*%
G04 Gerber Fmt 4.6, Leading zero omitted, Abs format (unit mm)*
G04 Created by KiCad (PCBNEW 8.0.6) date 2024-12-02 20:52:06*
%MOMM*%
%LPD*%
G01*
G04 APERTURE LIST*
%TA.AperFunction,Profile*%
%ADD10C,0.200000*%
%TD*%
G04 APERTURE END LIST*
D10*
X228713896Y-132832735D02*
G75*
G02*
X229213896Y-132332696I500004J35D01*
G01*
X281601396Y-184432735D02*
G75*
G02*
X281101365Y-183932735I4J500035D01*
G01*
X327693646Y-164986735D02*
X327693646Y-166155135D01*
X141107646Y-184432735D02*
G75*
G02*
X140607665Y-183932735I54J500035D01*
G01*
X324463896Y-146332735D02*
G75*
G02*
X323963865Y-145832735I4J500035D01*
G01*
X204901396Y-113782735D02*
G75*
G02*
X205401396Y-113282696I500004J35D01*
G01*
X181588896Y-165382735D02*
G75*
G02*
X181088865Y-164882735I4J500035D01*
G01*
X329226396Y-184432735D02*
G75*
G02*
X328726365Y-183932735I4J500035D01*
G01*
X235570146Y-171616135D02*
X237180746Y-171616135D01*
X180301396Y-113282735D02*
G75*
G02*
X180801365Y-113782735I4J-499965D01*
G01*
X286363896Y-146332735D02*
X299363896Y-146332735D01*
X133963896Y-132332735D02*
X146963896Y-132332735D01*
X237180746Y-170828735D02*
X238984146Y-170828735D01*
X346578546Y-121197135D02*
X345791146Y-121197135D01*
X194407146Y-170828735D02*
X196210546Y-170828735D01*
X359395146Y-136307735D02*
X359395146Y-123307735D01*
X200638896Y-165382735D02*
X213638896Y-165382735D01*
X138226396Y-94732735D02*
X138226396Y-107732735D01*
X281601396Y-184432735D02*
X294601396Y-184432735D01*
X102220146Y-170932735D02*
X102220146Y-183932735D01*
X262551396Y-113282735D02*
X275551396Y-113282735D01*
X228426396Y-94732735D02*
X228426396Y-107732735D01*
X171276396Y-107732735D02*
G75*
G02*
X170776396Y-108232696I-499996J35D01*
G01*
X116795146Y-170932735D02*
G75*
G02*
X117295146Y-170432746I499954J35D01*
G01*
X128413896Y-145832735D02*
G75*
G02*
X127913896Y-146332696I-499996J35D01*
G01*
X281101396Y-113782735D02*
X281101396Y-126782735D01*
X266526396Y-94732735D02*
X266526396Y-107732735D01*
X281601396Y-113282735D02*
X294601396Y-113282735D01*
X358084746Y-138418336D02*
X357271946Y-138418335D01*
X83957646Y-165382735D02*
G75*
G02*
X83457665Y-164882735I54J500035D01*
G01*
X358084746Y-145073135D02*
X358084746Y-138418336D01*
X187945146Y-182309535D02*
X187945146Y-183932735D01*
X172063896Y-146332735D02*
G75*
G02*
X171563865Y-145832735I4J500035D01*
G01*
X353373046Y-156096735D02*
X353373046Y-152693135D01*
X180801396Y-126782735D02*
G75*
G02*
X180301396Y-127282696I-499996J35D01*
G01*
X261263896Y-132332735D02*
G75*
G02*
X261763865Y-132832735I4J-499965D01*
G01*
X276051396Y-113782735D02*
X276051396Y-126782735D01*
X114913896Y-146332735D02*
G75*
G02*
X114413865Y-145832735I4J500035D01*
G01*
X212441146Y-179718735D02*
X213304746Y-179718735D01*
X156988896Y-164882735D02*
G75*
G02*
X156488896Y-165382696I-499996J35D01*
G01*
X342226396Y-170432735D02*
G75*
G02*
X342726365Y-170932735I4J-499965D01*
G01*
X109651396Y-113782735D02*
X109651396Y-126782735D01*
X154607646Y-170932735D02*
X154607646Y-183932735D01*
X248263896Y-146332735D02*
X261263896Y-146332735D01*
X88720146Y-184432735D02*
G75*
G02*
X88220165Y-183932735I54J500035D01*
G01*
X336640796Y-107049335D02*
X336640796Y-107836735D01*
X351887146Y-114542335D02*
X351887146Y-113678736D01*
X309388896Y-164882735D02*
G75*
G02*
X308888896Y-165382696I-499996J35D01*
G01*
X133176396Y-107732735D02*
G75*
G02*
X132676396Y-108232696I-499996J35D01*
G01*
X185851396Y-113782735D02*
X185851396Y-126782735D01*
X267313896Y-146332735D02*
G75*
G02*
X266813865Y-145832735I4J500035D01*
G01*
X204901396Y-113782735D02*
X204901396Y-126782735D01*
X358084746Y-121197135D02*
X357271946Y-121197135D01*
X289838896Y-151382735D02*
G75*
G02*
X290338865Y-151882735I4J-499965D01*
G01*
X114413896Y-132832735D02*
X114413896Y-145832735D01*
X219959546Y-183122335D02*
X219959546Y-182309535D01*
X224451396Y-127282735D02*
X237451396Y-127282735D01*
X157776396Y-108232735D02*
G75*
G02*
X157276365Y-107732735I4J500035D01*
G01*
X252526396Y-94732735D02*
X252526396Y-107732735D01*
X257288896Y-151882735D02*
G75*
G02*
X257788896Y-151382696I500004J35D01*
G01*
X101720146Y-170432735D02*
G75*
G02*
X102220165Y-170932735I-46J-500065D01*
G01*
X57763896Y-146332735D02*
G75*
G02*
X57263865Y-145832735I4J500035D01*
G01*
X286363896Y-132332735D02*
X299363896Y-132332735D01*
X114126396Y-107732735D02*
G75*
G02*
X113626396Y-108232696I-499996J35D01*
G01*
X154107646Y-170432735D02*
G75*
G02*
X154607665Y-170932735I-46J-500065D01*
G01*
X199851396Y-126782735D02*
G75*
G02*
X199351396Y-127282696I-499996J35D01*
G01*
X166513896Y-145832735D02*
G75*
G02*
X166013896Y-146332696I-499996J35D01*
G01*
X124438896Y-151382735D02*
X137438896Y-151382735D01*
X321978647Y-158890735D02*
X321978646Y-156096735D01*
X310176396Y-94232735D02*
X323176396Y-94232735D01*
X352251795Y-107732735D02*
X352252199Y-107049335D01*
X345107646Y-164882735D02*
G75*
G02*
X344607646Y-165382746I-499946J-65D01*
G01*
X238238896Y-151882735D02*
G75*
G02*
X238738896Y-151382696I500004J35D01*
G01*
X205401396Y-113282735D02*
X218401396Y-113282735D01*
X329497046Y-164199335D02*
X329497046Y-164986735D01*
X102220146Y-145832735D02*
G75*
G02*
X101720146Y-146332746I-499946J-65D01*
G01*
X55738896Y-186957735D02*
G75*
G02*
X54738865Y-185957735I4J1000035D01*
G01*
X271576396Y-94732735D02*
G75*
G02*
X272076396Y-94232696I500004J35D01*
G01*
X119176396Y-94732735D02*
G75*
G02*
X119676396Y-94232696I500004J35D01*
G01*
X304913896Y-132832735D02*
X304913896Y-145832735D01*
X299863896Y-132832735D02*
X299863896Y-145832735D01*
X191359146Y-170828735D02*
X191359146Y-169660335D01*
X114413896Y-132832735D02*
G75*
G02*
X114913896Y-132332696I500004J35D01*
G01*
X88720146Y-132332735D02*
X101720146Y-132332735D01*
X176826396Y-108232735D02*
G75*
G02*
X176326365Y-107732735I4J500035D01*
G01*
X165679746Y-170828735D02*
X165679746Y-176924735D01*
X345791147Y-138418335D02*
X345791146Y-140221735D01*
X267313896Y-132332735D02*
X280313896Y-132332735D01*
X242213896Y-132332735D02*
G75*
G02*
X242713865Y-132832735I4J-499965D01*
G01*
X261763896Y-132832735D02*
X261763896Y-145832735D01*
X290338896Y-164882735D02*
G75*
G02*
X289838896Y-165382696I-499996J35D01*
G01*
X295888896Y-165382735D02*
X308888896Y-165382735D01*
X348276396Y-184432735D02*
X361276396Y-184432735D01*
X88220146Y-132832735D02*
G75*
G02*
X88720146Y-132332746I499954J35D01*
G01*
X247763896Y-132832735D02*
X247763896Y-145832735D01*
X260170146Y-184432735D02*
G75*
G02*
X259670165Y-183932735I54J500035D01*
G01*
X359395146Y-136307735D02*
G75*
G02*
X358895146Y-136807646I-500046J135D01*
G01*
X57263896Y-113782735D02*
X57263896Y-126782735D01*
X102220146Y-183932735D02*
G75*
G02*
X101720146Y-184432746I-499946J-65D01*
G01*
X351751396Y-94232735D02*
X338751396Y-94232735D01*
X142988896Y-151882735D02*
X142988896Y-164882735D01*
X195876396Y-94232735D02*
X208876396Y-94232735D01*
X130795146Y-170932735D02*
X130795146Y-183932735D01*
X275551396Y-113282735D02*
G75*
G02*
X276051365Y-113782735I4J-499965D01*
G01*
X181588896Y-151382735D02*
X194588896Y-151382735D01*
X170776396Y-94232735D02*
G75*
G02*
X171276365Y-94732735I4J-499965D01*
G01*
X233476396Y-94732735D02*
X233476396Y-107732735D01*
X200138896Y-151882735D02*
X200138896Y-164882735D01*
X360516796Y-101740735D02*
X361380396Y-101740735D01*
X164816146Y-179718735D02*
X165679746Y-179718735D01*
X191113896Y-146332735D02*
X204113896Y-146332735D01*
X314151396Y-126782735D02*
G75*
G02*
X313651396Y-127282696I-499996J35D01*
G01*
X329985996Y-101740735D02*
X329122397Y-101740735D01*
X272076396Y-108232735D02*
G75*
G02*
X271576365Y-107732735I4J500035D01*
G01*
X166013896Y-132332735D02*
G75*
G02*
X166513865Y-132832735I4J-499965D01*
G01*
X346718246Y-164199336D02*
X346718246Y-164986734D01*
X331107645Y-164199335D02*
X329497046Y-164199335D01*
X123651396Y-126782735D02*
G75*
G02*
X123151396Y-127282696I-499996J35D01*
G01*
X271288896Y-164882735D02*
G75*
G02*
X270788896Y-165382696I-499996J35D01*
G01*
X357271946Y-138418335D02*
X357269191Y-136807735D01*
X237180746Y-183122335D02*
X237180746Y-182309535D01*
X218156146Y-170828735D02*
X218156146Y-169660335D01*
X295101396Y-170932735D02*
X295101396Y-183932735D01*
X110151396Y-113282735D02*
X123151396Y-113282735D01*
X323963896Y-132832735D02*
G75*
G02*
X324463896Y-132332696I500004J35D01*
G01*
X171276396Y-94732735D02*
X171276396Y-107732735D01*
X329122396Y-98946735D02*
X329985996Y-98946736D01*
X148251396Y-127282735D02*
X161251396Y-127282735D01*
X190326396Y-107732735D02*
G75*
G02*
X189826396Y-108232696I-499996J35D01*
G01*
X285863896Y-132832735D02*
G75*
G02*
X286363896Y-132332696I500004J35D01*
G01*
X162538896Y-165382735D02*
X175538896Y-165382735D01*
X310176396Y-184432735D02*
X323176396Y-184432735D01*
X156988896Y-151882735D02*
X156988896Y-164882735D01*
X161751396Y-126782735D02*
G75*
G02*
X161251396Y-127282696I-499996J35D01*
G01*
X57763896Y-127282735D02*
G75*
G02*
X57263865Y-126782735I4J500035D01*
G01*
X221569747Y-171616135D02*
X219959546Y-171616135D01*
X85838896Y-113782735D02*
X85838896Y-126782735D01*
X361776396Y-170932735D02*
X361776396Y-183932735D01*
X243001396Y-113782735D02*
X243001396Y-126782735D01*
X186351396Y-127282735D02*
G75*
G02*
X185851365Y-126782735I4J500035D01*
G01*
X96957646Y-151382735D02*
G75*
G02*
X97457665Y-151882735I-46J-500065D01*
G01*
X129201396Y-127282735D02*
G75*
G02*
X128701365Y-126782735I4J500035D01*
G01*
X259670146Y-170932735D02*
G75*
G02*
X260170146Y-170432746I499954J35D01*
G01*
X351887146Y-145936735D02*
X354681145Y-145936735D01*
X176038896Y-164882735D02*
G75*
G02*
X175538896Y-165382696I-499996J35D01*
G01*
X346578545Y-136808134D02*
X346578545Y-138418335D01*
X323676396Y-94732735D02*
X323676396Y-107732735D01*
X167483146Y-169660335D02*
X167483146Y-170828735D01*
X189555746Y-170828735D02*
X191359146Y-170828735D01*
X100126396Y-94732735D02*
X100126396Y-107732735D01*
X195876396Y-108232735D02*
X208876396Y-108232735D01*
X204613896Y-132832735D02*
X204613896Y-145832735D01*
X346718246Y-164986734D02*
X348521646Y-164986735D01*
X143488896Y-151382735D02*
X156488896Y-151382735D01*
X322842246Y-164986735D02*
X322842246Y-158890735D01*
X102220146Y-132832735D02*
X102220146Y-145832735D01*
X300651396Y-113282735D02*
X313651396Y-113282735D01*
X162038896Y-151882735D02*
G75*
G02*
X162538896Y-151382696I500004J35D01*
G01*
X232688896Y-151382735D02*
G75*
G02*
X233188865Y-151882735I4J-499965D01*
G01*
X162038896Y-151882735D02*
X162038896Y-164882735D01*
X137938896Y-151882735D02*
X137938896Y-164882735D01*
X337963896Y-132832735D02*
X337963896Y-145832735D01*
X153013896Y-132332735D02*
X166013896Y-132332735D01*
X272076396Y-108232735D02*
X285076396Y-108232735D01*
X229213896Y-146332735D02*
G75*
G02*
X228713865Y-145832735I4J500035D01*
G01*
X70763896Y-132332735D02*
G75*
G02*
X71263865Y-132832735I4J-499965D01*
G01*
X88220146Y-170932735D02*
X88220146Y-183932735D01*
X329122397Y-101740735D02*
X329122396Y-98946735D01*
X300151396Y-113782735D02*
X300151396Y-126782735D01*
X238238896Y-151882735D02*
X238238896Y-164882735D01*
X338251396Y-94732735D02*
G75*
G02*
X338751396Y-94232696I500004J35D01*
G01*
X348276396Y-170432735D02*
X361276396Y-170432735D01*
X57263896Y-94732735D02*
X57263896Y-107732735D01*
X105388896Y-165382735D02*
G75*
G02*
X104888865Y-164882735I4J500035D01*
G01*
X276338896Y-151882735D02*
X276338896Y-164882735D01*
X153013896Y-146332735D02*
X166013896Y-146332735D01*
X346718246Y-153505935D02*
X345107646Y-153508690D01*
X286363896Y-146332735D02*
G75*
G02*
X285863865Y-145832735I4J500035D01*
G01*
X186351396Y-127282735D02*
X199351396Y-127282735D01*
X157276396Y-94732735D02*
X157276396Y-107732735D01*
X143488896Y-165382735D02*
G75*
G02*
X142988865Y-164882735I4J500035D01*
G01*
X110151396Y-127282735D02*
G75*
G02*
X109651365Y-126782735I4J500035D01*
G01*
X229213896Y-132332735D02*
X242213896Y-132332735D01*
X88220146Y-170932735D02*
G75*
G02*
X88720146Y-170432746I499954J35D01*
G01*
X57763896Y-146332735D02*
X70763896Y-146332735D01*
X309676396Y-170932735D02*
G75*
G02*
X310176396Y-170432696I500004J35D01*
G01*
X165679746Y-176924735D02*
X164816146Y-176924735D01*
X267313896Y-146332735D02*
X280313896Y-146332735D01*
X57763896Y-132332735D02*
X70763896Y-132332735D01*
X212441146Y-176924735D02*
X212441146Y-179718735D01*
X137438896Y-151382735D02*
G75*
G02*
X137938865Y-151882735I4J-499965D01*
G01*
X305413896Y-146332735D02*
X318413896Y-146332735D01*
X243835546Y-170828735D02*
X243835546Y-176924735D01*
X272076396Y-94232735D02*
X285076396Y-94232735D01*
X304626396Y-107732735D02*
G75*
G02*
X304126396Y-108232696I-499996J35D01*
G01*
X88720146Y-146332735D02*
G75*
G02*
X88220165Y-145832735I54J500035D01*
G01*
X167301396Y-113282735D02*
X180301396Y-113282735D01*
X156488896Y-151382735D02*
G75*
G02*
X156988865Y-151882735I4J-499965D01*
G01*
X181088896Y-151882735D02*
X181088896Y-164882735D01*
X291126396Y-108232735D02*
G75*
G02*
X290626365Y-107732735I4J500035D01*
G01*
X109651396Y-113782735D02*
G75*
G02*
X110151396Y-113282696I500004J35D01*
G01*
X124438896Y-165382735D02*
X137438896Y-165382735D01*
X256501396Y-113282735D02*
G75*
G02*
X257001365Y-113782735I4J-499965D01*
G01*
X228426396Y-107732735D02*
G75*
G02*
X227926396Y-108232696I-499996J35D01*
G01*
X336640796Y-107836735D02*
X334837396Y-107836735D01*
X114913896Y-132332735D02*
X127913896Y-132332735D01*
X119176396Y-94732735D02*
X119176396Y-107732735D01*
X187945146Y-183932735D02*
G75*
G02*
X187445146Y-184432746I-499946J-65D01*
G01*
X101720146Y-132332735D02*
G75*
G02*
X102220165Y-132832735I-46J-500065D01*
G01*
X214138896Y-151882735D02*
X214138896Y-164882735D01*
X319701396Y-127282735D02*
X332701396Y-127282735D01*
X173944747Y-171616135D02*
X172334546Y-171616135D01*
X238738896Y-151382735D02*
X251738896Y-151382735D01*
X310176396Y-184432735D02*
G75*
G02*
X309676365Y-183932735I4J500035D01*
G01*
X345791146Y-116345734D02*
X345791146Y-114542335D01*
X176326396Y-94732735D02*
X176326396Y-107732735D01*
X71263896Y-113782735D02*
X71263896Y-126782735D01*
X310176396Y-108232735D02*
X323176396Y-108232735D01*
X333201396Y-126782735D02*
G75*
G02*
X332701396Y-127282696I-499996J35D01*
G01*
X189555746Y-171616135D02*
X189555746Y-170828735D01*
X146963896Y-132332735D02*
G75*
G02*
X147463865Y-132832735I4J-499965D01*
G01*
X295888896Y-165382735D02*
G75*
G02*
X295388865Y-164882735I4J500035D01*
G01*
X223663896Y-145832735D02*
G75*
G02*
X223163896Y-146332696I-499996J35D01*
G01*
X209663896Y-132832735D02*
X209663896Y-145832735D01*
X354681145Y-145936735D02*
X354681146Y-145073135D01*
X337963896Y-145832735D02*
G75*
G02*
X337463896Y-146332696I-499996J35D01*
G01*
X361276396Y-170432735D02*
G75*
G02*
X361776365Y-170932735I4J-499965D01*
G01*
X345395146Y-123307735D02*
G75*
G02*
X345895146Y-122807746I500054J-65D01*
G01*
X214926396Y-108232735D02*
G75*
G02*
X214426365Y-107732735I4J500035D01*
G01*
X338251396Y-107732735D02*
X338251395Y-107049335D01*
X118888896Y-151882735D02*
X118888896Y-164882735D01*
X361776396Y-183932735D02*
G75*
G02*
X361276396Y-184432696I-499996J35D01*
G01*
X257001396Y-113782735D02*
X257001396Y-126782735D01*
X248263896Y-146332735D02*
G75*
G02*
X247763865Y-145832735I4J500035D01*
G01*
X189555746Y-183122335D02*
X189555746Y-182309535D01*
X138726396Y-94232735D02*
X151726396Y-94232735D01*
X253026396Y-94232735D02*
X266026396Y-94232735D01*
X124438896Y-165382735D02*
G75*
G02*
X123938865Y-164882735I4J500035D01*
G01*
X204113896Y-132332735D02*
G75*
G02*
X204613865Y-132832735I4J-499965D01*
G01*
X233976396Y-108232735D02*
G75*
G02*
X233476365Y-107732735I4J500035D01*
G01*
X176038896Y-151882735D02*
X176038896Y-164882735D01*
X329226396Y-184432735D02*
X342226396Y-184432735D01*
X242032146Y-170828735D02*
X243835546Y-170828735D01*
X246976396Y-94232735D02*
G75*
G02*
X247476365Y-94732735I4J-499965D01*
G01*
X345895146Y-122807735D02*
X346578546Y-122807734D01*
X273670146Y-183932735D02*
G75*
G02*
X273170146Y-184432746I-499946J-65D01*
G01*
X83957646Y-151382735D02*
X96957646Y-151382735D01*
X180801396Y-113782735D02*
X180801396Y-126782735D01*
X181588896Y-165382735D02*
X194588896Y-165382735D01*
X345791146Y-145073135D02*
X351887146Y-145073135D01*
X167483146Y-170828735D02*
X165679746Y-170828735D01*
X338751396Y-108232735D02*
G75*
G02*
X338251365Y-107732735I104J500135D01*
G01*
X221570146Y-170932735D02*
G75*
G02*
X222070146Y-170432746I499954J35D01*
G01*
X152513896Y-132832735D02*
G75*
G02*
X153013896Y-132332696I500004J35D01*
G01*
X294601396Y-113282735D02*
G75*
G02*
X295101365Y-113782735I4J-499965D01*
G01*
X174445146Y-170432735D02*
X187445146Y-170432735D01*
X261763896Y-145832735D02*
G75*
G02*
X261263896Y-146332696I-499996J35D01*
G01*
X334837396Y-109005135D02*
X331789396Y-109005135D01*
X338251396Y-96355935D02*
X338251396Y-94732735D01*
X244699146Y-179718735D02*
X243835546Y-179718735D01*
X209663896Y-132832735D02*
G75*
G02*
X210163896Y-132332696I500004J35D01*
G01*
X114913896Y-146332735D02*
X127913896Y-146332735D01*
X243501396Y-127282735D02*
X256501396Y-127282735D01*
X237180746Y-182309535D02*
X235570146Y-182309535D01*
X295388896Y-151882735D02*
X295388896Y-164882735D01*
X271288896Y-151882735D02*
X271288896Y-164882735D01*
X199851396Y-113782735D02*
X199851396Y-126782735D01*
X300651396Y-127282735D02*
X313651396Y-127282735D01*
X329985996Y-98946735D02*
X329985996Y-95543135D01*
X55738896Y-91707735D02*
X363301396Y-91707735D01*
X123938896Y-151882735D02*
G75*
G02*
X124438896Y-151382696I500004J35D01*
G01*
X266813896Y-132832735D02*
X266813896Y-145832735D01*
X305413896Y-146332735D02*
G75*
G02*
X304913865Y-145832735I4J500035D01*
G01*
X186351396Y-113282735D02*
X199351396Y-113282735D01*
X299363896Y-132332735D02*
G75*
G02*
X299863865Y-132832735I4J-499965D01*
G01*
X95076396Y-107732735D02*
G75*
G02*
X94576396Y-108232696I-499996J35D01*
G01*
X351887146Y-113678736D02*
X354681146Y-113678735D01*
X305413896Y-132332735D02*
X318413896Y-132332735D01*
X209376396Y-107732735D02*
G75*
G02*
X208876396Y-108232696I-499996J35D01*
G01*
X348521646Y-164986735D02*
X348521645Y-166155135D01*
X323963896Y-132832735D02*
X323963896Y-145832735D01*
X243835546Y-183122335D02*
X237180746Y-183122335D01*
X300651396Y-127282735D02*
G75*
G02*
X300151365Y-126782735I4J500035D01*
G01*
X195088896Y-151882735D02*
X195088896Y-164882735D01*
X309676396Y-94732735D02*
G75*
G02*
X310176396Y-94232696I500004J35D01*
G01*
X329226396Y-170432735D02*
X342226396Y-170432735D01*
X281101396Y-113782735D02*
G75*
G02*
X281601396Y-113282696I500004J35D01*
G01*
X57763896Y-127282735D02*
X70763896Y-127282735D01*
X133963896Y-146332735D02*
X146963896Y-146332735D01*
X147463896Y-132832735D02*
X147463896Y-145832735D01*
X187945146Y-171616135D02*
X189555746Y-171616135D01*
X189826396Y-94232735D02*
G75*
G02*
X190326365Y-94732735I4J-499965D01*
G01*
X353373046Y-164986735D02*
X353373046Y-158890735D01*
X133963896Y-146332735D02*
G75*
G02*
X133463865Y-145832735I4J500035D01*
G01*
X259670146Y-170932735D02*
X259670146Y-183932735D01*
X215108146Y-169660335D02*
X215108146Y-170828735D01*
X71263896Y-107732735D02*
G75*
G02*
X70763896Y-108232696I-499996J35D01*
G01*
X319701396Y-127282735D02*
G75*
G02*
X319201365Y-126782735I4J500035D01*
G01*
X191359146Y-169660335D02*
X194407146Y-169660335D01*
X243835546Y-179718735D02*
X243835546Y-183122335D01*
X55738896Y-186957735D02*
X363301396Y-186957735D01*
X290626396Y-94732735D02*
X290626396Y-107732735D01*
X235570146Y-182309535D02*
X235570146Y-183932735D01*
X344607646Y-151382735D02*
X331607646Y-151382735D01*
X336640796Y-95543135D02*
X336640796Y-96355935D01*
X142988896Y-151882735D02*
G75*
G02*
X143488896Y-151382696I500004J35D01*
G01*
X213304746Y-176924735D02*
X212441146Y-176924735D01*
X247476396Y-94732735D02*
X247476396Y-107732735D01*
X142701396Y-126782735D02*
G75*
G02*
X142201396Y-127282696I-499996J35D01*
G01*
X190613896Y-132832735D02*
X190613896Y-145832735D01*
X304913896Y-132832735D02*
G75*
G02*
X305413896Y-132332696I500004J35D01*
G01*
X218901396Y-126782735D02*
G75*
G02*
X218401396Y-127282696I-499996J35D01*
G01*
X219959546Y-171616135D02*
X219959546Y-170828735D01*
X354681146Y-145073135D02*
X358084746Y-145073135D01*
X208876396Y-94232735D02*
G75*
G02*
X209376365Y-94732735I4J-499965D01*
G01*
X221570146Y-182306780D02*
X221570146Y-183932735D01*
X346578545Y-138418335D02*
X345791147Y-138418335D01*
X345791146Y-140221735D02*
X344622746Y-140221734D01*
X172063896Y-146332735D02*
X185063896Y-146332735D01*
X310176396Y-108232735D02*
G75*
G02*
X309676365Y-107732735I4J500035D01*
G01*
X127913896Y-132332735D02*
G75*
G02*
X128413865Y-132832735I4J-499965D01*
G01*
X153013896Y-146332735D02*
G75*
G02*
X152513865Y-145832735I4J500035D01*
G01*
X294601396Y-170432735D02*
G75*
G02*
X295101365Y-170932735I4J-499965D01*
G01*
X329985996Y-107836735D02*
X329985996Y-101740735D01*
X344607646Y-151382735D02*
G75*
G02*
X345107665Y-151882735I-46J-500065D01*
G01*
X86338896Y-127282735D02*
X99338896Y-127282735D01*
X242713896Y-132832735D02*
X242713896Y-145832735D01*
X117295146Y-184432735D02*
X130295146Y-184432735D01*
X147751396Y-113782735D02*
G75*
G02*
X148251396Y-113282696I500004J35D01*
G01*
X235070146Y-170432735D02*
G75*
G02*
X235570165Y-170932735I-46J-500065D01*
G01*
X81576396Y-108232735D02*
X94576396Y-108232735D01*
X329985996Y-95543135D02*
X336640796Y-95543135D01*
X331107646Y-151882735D02*
G75*
G02*
X331607646Y-151382746I499954J35D01*
G01*
X123151396Y-113282735D02*
G75*
G02*
X123651365Y-113782735I4J-499965D01*
G01*
X358084746Y-114542335D02*
X358084746Y-121197135D01*
X94576396Y-94232735D02*
G75*
G02*
X95076365Y-94732735I4J-499965D01*
G01*
X110151396Y-127282735D02*
X123151396Y-127282735D01*
X191113896Y-132332735D02*
X204113896Y-132332735D01*
X353861996Y-107836734D02*
X355665396Y-107836735D01*
X161751396Y-113782735D02*
X161751396Y-126782735D01*
X324463896Y-146332735D02*
X337463896Y-146332735D01*
X71263896Y-132832735D02*
X71263896Y-145832735D01*
X342726396Y-170932735D02*
X342726396Y-183932735D01*
X142201396Y-113282735D02*
G75*
G02*
X142701365Y-113782735I4J-499965D01*
G01*
X214926396Y-94232735D02*
X227926396Y-94232735D01*
X228713896Y-132832735D02*
X228713896Y-145832735D01*
X295101396Y-113782735D02*
X295101396Y-126782735D01*
X128701396Y-113782735D02*
X128701396Y-126782735D01*
X133463896Y-132832735D02*
G75*
G02*
X133963896Y-132332696I500004J35D01*
G01*
X262551396Y-127282735D02*
X275551396Y-127282735D01*
X214926396Y-108232735D02*
X227926396Y-108232735D01*
X210163896Y-132332735D02*
X223163896Y-132332735D01*
X190613896Y-132832735D02*
G75*
G02*
X191113896Y-132332696I500004J35D01*
G01*
X219959546Y-182309535D02*
X221570146Y-182306780D01*
X189555746Y-182309535D02*
X187945146Y-182309535D01*
X81576396Y-94232735D02*
X94576396Y-94232735D01*
X219688896Y-165382735D02*
X232688896Y-165382735D01*
X257288896Y-151882735D02*
X257288896Y-164882735D01*
X223951396Y-113782735D02*
G75*
G02*
X224451396Y-113282696I500004J35D01*
G01*
X358895146Y-122807735D02*
G75*
G02*
X359395165Y-123307735I54J-499965D01*
G01*
X176826396Y-108232735D02*
X189826396Y-108232735D01*
X187945146Y-170932735D02*
X187945146Y-171616135D01*
X345108045Y-164199336D02*
X346718246Y-164199336D01*
X100626396Y-108232735D02*
X113626396Y-108232735D01*
X262051396Y-113782735D02*
G75*
G02*
X262551396Y-113282696I500004J35D01*
G01*
X354681146Y-114542335D02*
X358084746Y-114542335D01*
X222070146Y-170432735D02*
X235070146Y-170432735D01*
X309676396Y-94732735D02*
X309676396Y-107732735D01*
X205401396Y-127282735D02*
X218401396Y-127282735D01*
X196210546Y-179718735D02*
X196210546Y-183122335D01*
X357271946Y-122807735D02*
X358895146Y-122807735D01*
X295388896Y-151882735D02*
G75*
G02*
X295888896Y-151382696I500004J35D01*
G01*
X213638896Y-151382735D02*
G75*
G02*
X214138865Y-151882735I4J-499965D01*
G01*
X164816146Y-176924735D02*
X164816146Y-179718735D01*
X354681146Y-113678735D02*
X354681145Y-114542335D01*
X185851396Y-113782735D02*
G75*
G02*
X186351396Y-113282696I500004J35D01*
G01*
X324463896Y-132332735D02*
X337463896Y-132332735D01*
X309388896Y-151882735D02*
X309388896Y-164882735D01*
X190326396Y-94732735D02*
X190326396Y-107732735D01*
X354236646Y-156096736D02*
X353373046Y-156096735D01*
X242032146Y-169660335D02*
X242032146Y-170828735D01*
X257788896Y-151382735D02*
X270788896Y-151382735D01*
X329497046Y-152693135D02*
X329497046Y-153505935D01*
X88720146Y-146332735D02*
X101720146Y-146332735D01*
X344622746Y-143269735D02*
X345791146Y-143269735D01*
X238984146Y-169660335D02*
X242032146Y-169660335D01*
X353373046Y-158890735D02*
X354236646Y-158890735D01*
X323176396Y-94232735D02*
G75*
G02*
X323676365Y-94732735I4J-499965D01*
G01*
X70763896Y-94232735D02*
G75*
G02*
X71263865Y-94732735I4J-499965D01*
G01*
X224451396Y-127282735D02*
G75*
G02*
X223951365Y-126782735I4J500035D01*
G01*
X57263896Y-132832735D02*
G75*
G02*
X57763896Y-132332696I500004J35D01*
G01*
X113626396Y-94232735D02*
G75*
G02*
X114126365Y-94732735I4J-499965D01*
G01*
X262551396Y-127282735D02*
G75*
G02*
X262051365Y-126782735I4J500035D01*
G01*
X117295146Y-184432735D02*
G75*
G02*
X116795165Y-183932735I54J500035D01*
G01*
X185563896Y-145832735D02*
G75*
G02*
X185063896Y-146332696I-499996J35D01*
G01*
X243001396Y-113782735D02*
G75*
G02*
X243501396Y-113282696I500004J35D01*
G01*
X244699146Y-176924735D02*
X244699146Y-179718735D01*
X147463896Y-145832735D02*
G75*
G02*
X146963896Y-146332696I-499996J35D01*
G01*
X271576396Y-94732735D02*
X271576396Y-107732735D01*
X229213896Y-146332735D02*
X242213896Y-146332735D01*
X348521645Y-166155135D02*
X351569646Y-166155135D01*
X200138896Y-151882735D02*
G75*
G02*
X200638896Y-151382696I500004J35D01*
G01*
X116795146Y-170932735D02*
X116795146Y-183932735D01*
X218401396Y-113282735D02*
G75*
G02*
X218901365Y-113782735I4J-499965D01*
G01*
X328726396Y-170932735D02*
G75*
G02*
X329226396Y-170432696I500004J35D01*
G01*
X238984146Y-170828735D02*
X238984146Y-169660335D01*
X129201396Y-113282735D02*
X142201396Y-113282735D01*
X355665395Y-109005135D02*
X358713396Y-109005135D01*
X353861996Y-96355935D02*
X352251396Y-96358690D01*
X167301396Y-127282735D02*
G75*
G02*
X166801365Y-126782735I4J500035D01*
G01*
X83957646Y-165382735D02*
X96957646Y-165382735D01*
X295101396Y-183932735D02*
G75*
G02*
X294601396Y-184432696I-499996J35D01*
G01*
X252526396Y-94732735D02*
G75*
G02*
X253026396Y-94232696I500004J35D01*
G01*
X344622746Y-119393735D02*
X344622746Y-116345735D01*
X345108045Y-164882735D02*
X345108449Y-164199335D01*
X200638896Y-151382735D02*
X213638896Y-151382735D01*
X132676396Y-94232735D02*
G75*
G02*
X133176365Y-94732735I4J-499965D01*
G01*
X280313896Y-132332735D02*
G75*
G02*
X280813865Y-132832735I4J-499965D01*
G01*
X322842246Y-156096735D02*
X322842246Y-152693135D01*
X237951396Y-113782735D02*
X237951396Y-126782735D01*
X219188896Y-151882735D02*
G75*
G02*
X219688896Y-151382696I500004J35D01*
G01*
X197074146Y-179718735D02*
X196210546Y-179718735D01*
X345107646Y-153508690D02*
X345107646Y-151882735D01*
X238738896Y-165382735D02*
G75*
G02*
X238238865Y-164882735I4J500035D01*
G01*
X99838896Y-113782735D02*
X99838896Y-126782735D01*
X331107646Y-164882735D02*
X331107645Y-164199335D01*
X157776396Y-94232735D02*
X170776396Y-94232735D01*
X148251396Y-113282735D02*
X161251396Y-113282735D01*
X99338896Y-113282735D02*
G75*
G02*
X99838865Y-113782735I4J-499965D01*
G01*
X276838896Y-165382735D02*
X289838896Y-165382735D01*
X353861996Y-107049336D02*
X353861996Y-107836734D01*
X322842246Y-158890735D02*
X321978647Y-158890735D01*
X345895146Y-136808134D02*
X346578546Y-136808538D01*
X162538896Y-165382735D02*
G75*
G02*
X162038865Y-164882735I4J500035D01*
G01*
X174445146Y-184432735D02*
X187445146Y-184432735D01*
X333201396Y-113782735D02*
X333201396Y-126782735D01*
X157776396Y-108232735D02*
X170776396Y-108232735D01*
X328726396Y-170932735D02*
X328726396Y-183932735D01*
X223663896Y-132832735D02*
X223663896Y-145832735D01*
X318413896Y-132332735D02*
G75*
G02*
X318913865Y-132832735I4J-499965D01*
G01*
X313651396Y-113282735D02*
G75*
G02*
X314151365Y-113782735I4J-499965D01*
G01*
X214426396Y-94732735D02*
G75*
G02*
X214926396Y-94232696I500004J35D01*
G01*
X310176396Y-170432735D02*
X323176396Y-170432735D01*
X235570146Y-170932735D02*
X235570146Y-171616135D01*
X266526396Y-107732735D02*
G75*
G02*
X266026396Y-108232696I-499996J35D01*
G01*
X243835546Y-176924735D02*
X244699146Y-176924735D01*
X346718247Y-152693135D02*
X346718246Y-153505935D01*
X176826396Y-94232735D02*
X189826396Y-94232735D01*
X181088896Y-151882735D02*
G75*
G02*
X181588896Y-151382696I500004J35D01*
G01*
X344607646Y-165382735D02*
X331607646Y-165382735D01*
X233976396Y-108232735D02*
X246976396Y-108232735D01*
X290338896Y-151882735D02*
X290338896Y-164882735D01*
X118388896Y-151382735D02*
G75*
G02*
X118888865Y-151882735I4J-499965D01*
G01*
X280813896Y-145832735D02*
G75*
G02*
X280313896Y-146332696I-499996J35D01*
G01*
X270788896Y-151382735D02*
G75*
G02*
X271288865Y-151882735I4J-499965D01*
G01*
X129201396Y-127282735D02*
X142201396Y-127282735D01*
X54738896Y-92707735D02*
G75*
G02*
X55738896Y-91707796I999904J35D01*
G01*
X196210546Y-183122335D02*
X189555746Y-183122335D01*
X260170146Y-170432735D02*
X273170146Y-170432735D01*
X352251396Y-107732735D02*
G75*
G02*
X351751396Y-108232796I-499996J-65D01*
G01*
X71263896Y-126782735D02*
G75*
G02*
X70763896Y-127282696I-499996J35D01*
G01*
X257788896Y-165382735D02*
X270788896Y-165382735D01*
X345791146Y-119393735D02*
X344622746Y-119393735D01*
X308888896Y-151382735D02*
G75*
G02*
X309388865Y-151882735I4J-499965D01*
G01*
X257001396Y-126782735D02*
G75*
G02*
X256501396Y-127282696I-499996J35D01*
G01*
X140607646Y-170932735D02*
X140607646Y-183932735D01*
X224451396Y-113282735D02*
X237451396Y-113282735D01*
X187445146Y-170432735D02*
G75*
G02*
X187945165Y-170932735I-46J-500065D01*
G01*
X295888896Y-151382735D02*
X308888896Y-151382735D01*
X285076396Y-94232735D02*
G75*
G02*
X285576365Y-94732735I4J-499965D01*
G01*
X194588896Y-151382735D02*
G75*
G02*
X195088865Y-151882735I4J-499965D01*
G01*
X262051396Y-113782735D02*
X262051396Y-126782735D01*
X118888896Y-164882735D02*
G75*
G02*
X118388896Y-165382696I-499996J35D01*
G01*
X195876396Y-108232735D02*
G75*
G02*
X195376365Y-107732735I4J500035D01*
G01*
X86338896Y-127282735D02*
G75*
G02*
X85838865Y-126782735I4J500035D01*
G01*
X152226396Y-94732735D02*
X152226396Y-107732735D01*
X266026396Y-94232735D02*
G75*
G02*
X266526365Y-94732735I4J-499965D01*
G01*
X253026396Y-108232735D02*
G75*
G02*
X252526365Y-107732735I4J500035D01*
G01*
X97457646Y-164882735D02*
G75*
G02*
X96957646Y-165382746I-499946J-65D01*
G01*
X81576396Y-108232735D02*
G75*
G02*
X81076365Y-107732735I4J500035D01*
G01*
X331789396Y-109005135D02*
X331789395Y-107836735D01*
X147751396Y-113782735D02*
X147751396Y-126782735D01*
X361380396Y-98946736D02*
X360516796Y-98946735D01*
X291126396Y-94232735D02*
X304126396Y-94232735D01*
X318913896Y-145832735D02*
G75*
G02*
X318413896Y-146332696I-499996J35D01*
G01*
X100126396Y-94732735D02*
G75*
G02*
X100626396Y-94232696I500004J35D01*
G01*
X344622746Y-140221734D02*
X344622746Y-143269735D01*
X148251396Y-127282735D02*
G75*
G02*
X147751365Y-126782735I4J500035D01*
G01*
X295101396Y-126782735D02*
G75*
G02*
X294601396Y-127282696I-499996J35D01*
G01*
X166513896Y-132832735D02*
X166513896Y-145832735D01*
X360516796Y-95543135D02*
X353861997Y-95543135D01*
X281101396Y-170932735D02*
X281101396Y-183932735D01*
X360516796Y-98946735D02*
X360516796Y-95543135D01*
X57263896Y-113782735D02*
G75*
G02*
X57763896Y-113282696I500004J35D01*
G01*
X165679746Y-179718735D02*
X165679746Y-183122335D01*
X157276396Y-94732735D02*
G75*
G02*
X157776396Y-94232696I500004J35D01*
G01*
X95076396Y-94732735D02*
X95076396Y-107732735D01*
X214426396Y-94732735D02*
X214426396Y-107732735D01*
X57763896Y-108232735D02*
X70763896Y-108232735D01*
X81076396Y-94732735D02*
G75*
G02*
X81576396Y-94232696I500004J35D01*
G01*
X114126396Y-94732735D02*
X114126396Y-107732735D01*
X152226396Y-107732735D02*
G75*
G02*
X151726396Y-108232696I-499996J35D01*
G01*
X357271946Y-121197135D02*
X357271946Y-122807735D01*
X329497046Y-153505935D02*
X331107646Y-153505935D01*
X252238896Y-151882735D02*
X252238896Y-164882735D01*
X88220146Y-132832735D02*
X88220146Y-145832735D01*
X321978646Y-156096735D02*
X322842246Y-156096736D01*
X172334546Y-182309535D02*
X173945146Y-182306780D01*
X336640796Y-96355935D02*
X338251396Y-96355935D01*
X353861997Y-95543135D02*
X353861996Y-96355935D01*
X345791146Y-114542335D02*
X351887146Y-114542335D01*
X233976396Y-94232735D02*
X246976396Y-94232735D01*
X233476396Y-94732735D02*
G75*
G02*
X233976396Y-94232696I500004J35D01*
G01*
X173945146Y-170932735D02*
G75*
G02*
X174445146Y-170432746I499954J35D01*
G01*
X347776396Y-170932735D02*
X347776396Y-183932735D01*
X285576396Y-107732735D02*
G75*
G02*
X285076396Y-108232696I-499996J35D01*
G01*
X123938896Y-151882735D02*
X123938896Y-164882735D01*
X165679746Y-183122335D02*
X172334546Y-183122335D01*
X276338896Y-151882735D02*
G75*
G02*
X276838896Y-151382696I500004J35D01*
G01*
X237451396Y-113282735D02*
G75*
G02*
X237951365Y-113782735I4J-499965D01*
G01*
X215108146Y-170828735D02*
X213304746Y-170828735D01*
X54738896Y-185957735D02*
X54738896Y-92707735D01*
X173945146Y-182306780D02*
X173945146Y-183932735D01*
X119676396Y-108232735D02*
G75*
G02*
X119176365Y-107732735I4J500035D01*
G01*
X304626396Y-94732735D02*
X304626396Y-107732735D01*
X281601396Y-170432735D02*
X294601396Y-170432735D01*
X57263896Y-132832735D02*
X57263896Y-145832735D01*
X219959546Y-170828735D02*
X218156146Y-170828735D01*
X276838896Y-151382735D02*
X289838896Y-151382735D01*
X128701396Y-113782735D02*
G75*
G02*
X129201396Y-113282696I500004J35D01*
G01*
X345895146Y-136807735D02*
G75*
G02*
X345395165Y-136307735I-46J499935D01*
G01*
X194407146Y-169660335D02*
X194407146Y-170828735D01*
X352251795Y-107049336D02*
X353861996Y-107049336D01*
X197074146Y-176924735D02*
X197074146Y-179718735D01*
X273670146Y-170932735D02*
X273670146Y-183932735D01*
X299863896Y-145832735D02*
G75*
G02*
X299363896Y-146332696I-499996J35D01*
G01*
X213304746Y-170828735D02*
X213304746Y-176924735D01*
X329497046Y-164986735D02*
X327693646Y-164986735D01*
X237180746Y-171616135D02*
X237180746Y-170828735D01*
X196210546Y-170828735D02*
X196210546Y-176924735D01*
X247476396Y-107732735D02*
G75*
G02*
X246976396Y-108232696I-499996J35D01*
G01*
X172334546Y-170828735D02*
X170531146Y-170828735D01*
X219688896Y-165382735D02*
G75*
G02*
X219188865Y-164882735I4J500035D01*
G01*
X140607646Y-170932735D02*
G75*
G02*
X141107646Y-170432746I499954J35D01*
G01*
X353373046Y-152693135D02*
X346718247Y-152693135D01*
X251738896Y-151382735D02*
G75*
G02*
X252238865Y-151882735I4J-499965D01*
G01*
X280813896Y-132832735D02*
X280813896Y-145832735D01*
X83457646Y-151882735D02*
G75*
G02*
X83957646Y-151382746I499954J35D01*
G01*
X138726396Y-108232735D02*
X151726396Y-108232735D01*
X166801396Y-113782735D02*
X166801396Y-126782735D01*
X175538896Y-151382735D02*
G75*
G02*
X176038865Y-151882735I4J-499965D01*
G01*
X360516796Y-107836735D02*
X360516796Y-101740735D01*
X227926396Y-94232735D02*
G75*
G02*
X228426365Y-94732735I4J-499965D01*
G01*
X117295146Y-170432735D02*
X130295146Y-170432735D01*
X233188896Y-151882735D02*
X233188896Y-164882735D01*
X338251395Y-107049335D02*
X336640796Y-107049335D01*
X281101396Y-170932735D02*
G75*
G02*
X281601396Y-170432696I500004J35D01*
G01*
X348276396Y-184432735D02*
G75*
G02*
X347776365Y-183932735I4J500035D01*
G01*
X327693646Y-166155135D02*
X324645646Y-166155135D01*
X214138896Y-164882735D02*
G75*
G02*
X213638896Y-165382696I-499996J35D01*
G01*
X243501396Y-127282735D02*
G75*
G02*
X243001365Y-126782735I4J500035D01*
G01*
X85838896Y-113782735D02*
G75*
G02*
X86338896Y-113282696I500004J35D01*
G01*
X57763896Y-113282735D02*
X70763896Y-113282735D01*
X104888896Y-151882735D02*
X104888896Y-164882735D01*
X100626396Y-94232735D02*
X113626396Y-94232735D01*
X83457646Y-151882735D02*
X83457646Y-164882735D01*
X337463896Y-132332735D02*
G75*
G02*
X337963865Y-132832735I4J-499965D01*
G01*
X351751396Y-94232735D02*
G75*
G02*
X352251365Y-94732735I-96J-500065D01*
G01*
X281601396Y-127282735D02*
X294601396Y-127282735D01*
X334837396Y-107836735D02*
X334837396Y-109005135D01*
X130795146Y-183932735D02*
G75*
G02*
X130295146Y-184432746I-499946J-65D01*
G01*
X358713396Y-109005135D02*
X358713396Y-107836735D01*
X161251396Y-113282735D02*
G75*
G02*
X161751365Y-113782735I4J-499965D01*
G01*
X171563896Y-132832735D02*
G75*
G02*
X172063896Y-132332696I500004J35D01*
G01*
X276838896Y-165382735D02*
G75*
G02*
X276338865Y-164882735I4J500035D01*
G01*
X319201396Y-113782735D02*
G75*
G02*
X319701396Y-113282696I500004J35D01*
G01*
X97457646Y-151882735D02*
X97457646Y-164882735D01*
X247763896Y-132832735D02*
G75*
G02*
X248263896Y-132332696I500004J35D01*
G01*
X218901396Y-113782735D02*
X218901396Y-126782735D01*
X170531146Y-169660335D02*
X167483146Y-169660335D01*
X221569747Y-170932735D02*
X221569343Y-171616135D01*
X223951396Y-113782735D02*
X223951396Y-126782735D01*
X57763896Y-108232735D02*
G75*
G02*
X57263865Y-107732735I4J500035D01*
G01*
X176326396Y-94732735D02*
G75*
G02*
X176826396Y-94232696I500004J35D01*
G01*
X237951396Y-126782735D02*
G75*
G02*
X237451396Y-127282696I-499996J35D01*
G01*
X100626396Y-108232735D02*
G75*
G02*
X100126365Y-107732735I4J500035D01*
G01*
X222070146Y-184432735D02*
G75*
G02*
X221570065Y-183932735I54J500135D01*
G01*
X238738896Y-165382735D02*
X251738896Y-165382735D01*
X166801396Y-113782735D02*
G75*
G02*
X167301396Y-113282696I500004J35D01*
G01*
X331107646Y-153505935D02*
X331107646Y-151882735D01*
X243501396Y-113282735D02*
X256501396Y-113282735D01*
X318913896Y-132832735D02*
X318913896Y-145832735D01*
X205401396Y-127282735D02*
G75*
G02*
X204901365Y-126782735I4J500035D01*
G01*
X57263896Y-94732735D02*
G75*
G02*
X57763896Y-94232696I500004J35D01*
G01*
X342726396Y-183932735D02*
G75*
G02*
X342226396Y-184432696I-499996J35D01*
G01*
X210163896Y-146332735D02*
X223163896Y-146332735D01*
X81076396Y-94732735D02*
X81076396Y-107732735D01*
X104888896Y-151882735D02*
G75*
G02*
X105388896Y-151382696I500004J35D01*
G01*
X248263896Y-132332735D02*
X261263896Y-132332735D01*
X357269191Y-136807735D02*
X358895146Y-136807735D01*
X324645645Y-164986735D02*
X322842246Y-164986735D01*
X351569646Y-164986735D02*
X353373046Y-164986735D01*
X273170146Y-170432735D02*
G75*
G02*
X273670165Y-170932735I-46J-500065D01*
G01*
X191113896Y-146332735D02*
G75*
G02*
X190613865Y-145832735I4J500035D01*
G01*
X162538896Y-151382735D02*
X175538896Y-151382735D01*
X300151396Y-113782735D02*
G75*
G02*
X300651396Y-113282696I500004J35D01*
G01*
X323676396Y-107732735D02*
G75*
G02*
X323176396Y-108232696I-499996J35D01*
G01*
X204613896Y-145832735D02*
G75*
G02*
X204113896Y-146332696I-499996J35D01*
G01*
X363301396Y-91707735D02*
G75*
G02*
X364301365Y-92707735I4J-999965D01*
G01*
X266813896Y-132832735D02*
G75*
G02*
X267313896Y-132332696I500004J35D01*
G01*
X130295146Y-170432735D02*
G75*
G02*
X130795165Y-170932735I-46J-500065D01*
G01*
X345791146Y-121197135D02*
X345791146Y-119393735D01*
X222070146Y-184432735D02*
X235070146Y-184432735D01*
X257788896Y-165382735D02*
G75*
G02*
X257288865Y-164882735I4J500035D01*
G01*
X347776396Y-170932735D02*
G75*
G02*
X348276396Y-170432696I500004J35D01*
G01*
X119676396Y-108232735D02*
X132676396Y-108232735D01*
X344622746Y-116345735D02*
X345791146Y-116345734D01*
X219688896Y-151382735D02*
X232688896Y-151382735D01*
X331789395Y-107836735D02*
X329985996Y-107836735D01*
X319701396Y-113282735D02*
X332701396Y-113282735D01*
X213304746Y-179718735D02*
X213304746Y-183122335D01*
X210163896Y-146332735D02*
G75*
G02*
X209663865Y-145832735I4J500035D01*
G01*
X209376396Y-94732735D02*
X209376396Y-107732735D01*
X276051396Y-126782735D02*
G75*
G02*
X275551396Y-127282696I-499996J35D01*
G01*
X331607646Y-165382735D02*
G75*
G02*
X331107565Y-164882735I54J500135D01*
G01*
X290626396Y-94732735D02*
G75*
G02*
X291126396Y-94232696I500004J35D01*
G01*
X281601396Y-127282735D02*
G75*
G02*
X281101365Y-126782735I4J500035D01*
G01*
X151726396Y-94232735D02*
G75*
G02*
X152226365Y-94732735I4J-499965D01*
G01*
X235570146Y-183932735D02*
G75*
G02*
X235070146Y-184432746I-499946J-65D01*
G01*
X323676396Y-183932735D02*
G75*
G02*
X323176396Y-184432696I-499996J35D01*
G01*
X170531146Y-170828735D02*
X170531146Y-169660335D01*
X171563896Y-132832735D02*
X171563896Y-145832735D01*
X219188896Y-151882735D02*
X219188896Y-164882735D01*
X57763896Y-94232735D02*
X70763896Y-94232735D01*
X346578546Y-122807734D02*
X346578546Y-121197135D01*
X172063896Y-132332735D02*
X185063896Y-132332735D01*
X309676396Y-170932735D02*
X309676396Y-183932735D01*
X233188896Y-164882735D02*
G75*
G02*
X232688896Y-165382696I-499996J35D01*
G01*
X218156146Y-169660335D02*
X215108146Y-169660335D01*
X195376396Y-94732735D02*
X195376396Y-107732735D01*
X86338896Y-113282735D02*
X99338896Y-113282735D01*
X199351396Y-113282735D02*
G75*
G02*
X199851365Y-113782735I4J-499965D01*
G01*
X351569646Y-166155135D02*
X351569646Y-164986735D01*
X99838896Y-126782735D02*
G75*
G02*
X99338896Y-127282696I-499996J35D01*
G01*
X196210546Y-176924735D02*
X197074146Y-176924735D01*
X213304746Y-183122335D02*
X219959546Y-183122335D01*
X172334546Y-183122335D02*
X172334546Y-182309535D01*
X71263896Y-94732735D02*
X71263896Y-107732735D01*
X260170146Y-184432735D02*
X273170146Y-184432735D01*
X167301396Y-127282735D02*
X180301396Y-127282735D01*
X351887146Y-145073135D02*
X351887146Y-145936735D01*
X195088896Y-164882735D02*
G75*
G02*
X194588896Y-165382696I-499996J35D01*
G01*
X138726396Y-108232735D02*
G75*
G02*
X138226365Y-107732735I4J500035D01*
G01*
X352251396Y-96358690D02*
X352251396Y-94732735D01*
X332701396Y-113282735D02*
G75*
G02*
X333201365Y-113782735I4J-499965D01*
G01*
X173944747Y-170932735D02*
X173944343Y-171616135D01*
X253026396Y-108232735D02*
X266026396Y-108232735D01*
X141107646Y-170432735D02*
X154107646Y-170432735D01*
X142701396Y-113782735D02*
X142701396Y-126782735D01*
X133463896Y-132832735D02*
X133463896Y-145832735D01*
X364301396Y-185957735D02*
X364301396Y-92707735D01*
X361380396Y-101740735D02*
X361380396Y-98946736D01*
X314151396Y-113782735D02*
X314151396Y-126782735D01*
X119676396Y-94232735D02*
X132676396Y-94232735D01*
X70763896Y-113282735D02*
G75*
G02*
X71263865Y-113782735I4J-499965D01*
G01*
X252238896Y-164882735D02*
G75*
G02*
X251738896Y-165382696I-499996J35D01*
G01*
X88720146Y-184432735D02*
X101720146Y-184432735D01*
X185063896Y-132332735D02*
G75*
G02*
X185563865Y-132832735I4J-499965D01*
G01*
X242713896Y-145832735D02*
G75*
G02*
X242213896Y-146332696I-499996J35D01*
G01*
X105388896Y-165382735D02*
X118388896Y-165382735D01*
X138226396Y-94732735D02*
G75*
G02*
X138726396Y-94232696I500004J35D01*
G01*
X322842246Y-152693135D02*
X329497046Y-152693135D01*
X324645646Y-166155135D02*
X324645645Y-164986735D01*
X195376396Y-94732735D02*
G75*
G02*
X195876396Y-94232696I500004J35D01*
G01*
X152513896Y-132832735D02*
X152513896Y-145832735D01*
X358713396Y-107836735D02*
X360516796Y-107836735D01*
X319201396Y-113782735D02*
X319201396Y-126782735D01*
X105388896Y-151382735D02*
X118388896Y-151382735D01*
X355665396Y-107836735D02*
X355665395Y-109005135D01*
X291126396Y-108232735D02*
X304126396Y-108232735D01*
X364301396Y-185957735D02*
G75*
G02*
X363301396Y-186957796I-1000096J35D01*
G01*
X174445146Y-184432735D02*
G75*
G02*
X173945165Y-183932735I54J500035D01*
G01*
X354236646Y-158890735D02*
X354236646Y-156096736D01*
X345395146Y-136307735D02*
X345395146Y-123307735D01*
X304126396Y-94232735D02*
G75*
G02*
X304626365Y-94732735I4J-499965D01*
G01*
X128413896Y-132832735D02*
X128413896Y-145832735D01*
X200638896Y-165382735D02*
G75*
G02*
X200138865Y-164882735I4J500035D01*
G01*
X137938896Y-164882735D02*
G75*
G02*
X137438896Y-165382696I-499996J35D01*
G01*
X133176396Y-94732735D02*
X133176396Y-107732735D01*
X154607646Y-183932735D02*
G75*
G02*
X154107646Y-184432746I-499946J-65D01*
G01*
X285863896Y-132832735D02*
X285863896Y-145832735D01*
X123651396Y-113782735D02*
X123651396Y-126782735D01*
X223163896Y-132332735D02*
G75*
G02*
X223663865Y-132832735I4J-499965D01*
G01*
X285576396Y-94732735D02*
X285576396Y-107732735D01*
X323676396Y-170932735D02*
X323676396Y-183932735D01*
X71263896Y-145832735D02*
G75*
G02*
X70763896Y-146332696I-499996J35D01*
G01*
X351751396Y-108232735D02*
X338751396Y-108232735D01*
X143488896Y-165382735D02*
X156488896Y-165382735D01*
X345791146Y-143269735D02*
X345791146Y-145073135D01*
X323176396Y-170432735D02*
G75*
G02*
X323676365Y-170932735I4J-499965D01*
G01*
X88720146Y-170432735D02*
X101720146Y-170432735D01*
X141107646Y-184432735D02*
X154107646Y-184432735D01*
X185563896Y-132832735D02*
X185563896Y-145832735D01*
X172334546Y-171616135D02*
X172334546Y-170828735D01*
M02*
