<svg width="15" height="15" viewBox="0 0 15 15" fill="none" xmlns="http://www.w3.org/2000/svg">
<path fill-rule="evenodd" clip-rule="evenodd" d="M14.765 6.07601C14.9992 6.22236 15.0704 6.53084 14.924 6.76501C14.4849 7.46749 13.9632 8.10651 13.3702 8.66312L14.5712 9.86414C14.7665 10.0594 14.7665 10.376 14.5712 10.5712C14.376 10.7665 14.0594 10.7665 13.8641 10.5712L12.6011 9.30824C11.805 9.90291 10.9089 10.3622 9.93377 10.6511L10.383 12.3278C10.4545 12.5945 10.2962 12.8687 10.0294 12.9401C9.76269 13.0116 9.48852 12.8533 9.41706 12.5866L8.95918 10.8776C8.48744 10.9581 8.00036 11 7.50001 11C6.99964 11 6.51256 10.9581 6.04081 10.8776L5.58297 12.5865C5.51151 12.8533 5.23735 13.0116 4.97061 12.9401C4.70388 12.8687 4.54558 12.5945 4.61704 12.3278L5.06623 10.6511C4.09109 10.3621 3.19499 9.9029 2.39886 9.30823L1.13585 10.5712C0.940585 10.7665 0.624002 10.7665 0.42874 10.5712C0.233478 10.376 0.233478 10.0594 0.42874 9.86413L1.62978 8.6631C1.03677 8.1065 0.515056 7.46748 0.0760073 6.76501C-0.0703483 6.53084 0.000837516 6.22236 0.235005 6.07601C0.469173 5.92965 0.777649 6.00084 0.924004 6.23501C1.40349 7.00218 1.98895 7.68063 2.66229 8.24277C2.67311 8.25103 2.68366 8.25979 2.69393 8.26904C4.00894 9.35535 5.65535 9.99999 7.50001 9.99999C10.3079 9.99999 12.6564 8.50637 14.076 6.23501C14.2224 6.00084 14.5308 5.92965 14.765 6.07601Z" fill="black"/>
</svg>
