M48
; DRILL file {KiCad 8.0.6} date 2024-12-01T13:40:30+0100
; FORMAT={-:-/ absolute / metric / decimal}
; #@! TF.CreationDate,2024-12-01T13:40:30+01:00
; #@! TF.GenerationSoftware,Kicad,Pcbnew,8.0.6
; #@! TF.FileFunction,NonPlated,1,2,NPTH
FMAT,2
METRIC
; #@! TA.AperFunction,NonPlated,NPTH,ComponentDrill
T1C1.750
; #@! TA.AperFunction,NonPlated,NPTH,ComponentDrill
T2C3.048
; #@! TA.AperFunction,NonPlated,NPTH,ComponentDrill
T3C3.988
%
G90
G05
T1
X33.02Y-38.1
X33.02Y-57.15
X33.02Y-76.2
X43.18Y-38.1
X43.18Y-57.15
X43.18Y-76.2
X56.832Y-38.1
X59.214Y-95.25
X61.595Y-57.15
X63.976Y-76.2
X63.976Y-114.3
X66.992Y-38.1
X69.374Y-95.25
X71.755Y-57.15
X74.136Y-76.2
X74.136Y-114.3
X75.882Y-38.1
X80.645Y-95.25
X85.407Y-57.15
X86.042Y-38.1
X90.17Y-76.2
X90.805Y-95.25
X92.551Y-114.3
X94.932Y-38.1
X95.567Y-57.15
X99.695Y-95.25
X100.33Y-76.2
X102.711Y-114.3
X104.457Y-57.15
X105.093Y-38.1
X109.22Y-76.2
X109.855Y-95.25
X113.983Y-38.1
X114.617Y-57.15
X116.364Y-114.3
X118.745Y-95.25
X119.38Y-76.2
X123.507Y-57.15
X124.142Y-38.1
X126.524Y-114.3
X128.27Y-76.2
X128.905Y-95.25
X133.032Y-38.1
X133.667Y-57.15
X137.795Y-95.25
X138.43Y-76.2
X142.558Y-57.15
X143.192Y-38.1
X147.32Y-76.2
X147.955Y-95.25
X149.701Y-114.3
X152.082Y-38.1
X152.718Y-57.15
X156.845Y-95.25
X157.48Y-76.2
X159.861Y-114.3
X161.607Y-57.15
X162.243Y-38.1
X166.37Y-76.2
X167.005Y-95.25
X171.132Y-38.1
X171.767Y-57.15
X175.895Y-95.25
X176.53Y-76.2
X180.657Y-57.15
X181.292Y-38.1
X185.42Y-76.2
X186.055Y-95.25
X190.183Y-38.1
X190.817Y-57.15
X194.945Y-95.25
X195.58Y-76.2
X197.326Y-114.3
X199.707Y-57.15
X200.343Y-38.1
X204.47Y-76.2
X205.105Y-95.25
X207.486Y-114.3
X209.232Y-38.1
X209.867Y-57.15
X213.995Y-95.25
X214.63Y-76.2
X218.757Y-57.15
X219.392Y-38.1
X223.52Y-76.2
X224.155Y-95.25
X228.282Y-38.1
X228.917Y-57.15
X233.045Y-95.25
X233.68Y-76.2
X235.426Y-114.3
X237.807Y-57.15
X238.442Y-38.1
X242.57Y-76.2
X243.205Y-95.25
X245.586Y-114.3
X247.332Y-38.1
X247.968Y-57.15
X252.095Y-95.25
X252.73Y-76.2
X256.858Y-57.15
X256.858Y-114.3
X257.493Y-38.1
X261.62Y-76.2
X262.255Y-95.25
X266.382Y-38.1
X267.017Y-57.15
X267.017Y-114.3
X271.145Y-95.25
X271.78Y-76.2
X275.907Y-57.15
X276.542Y-38.1
X280.67Y-76.2
X281.305Y-95.25
X285.433Y-38.1
X285.433Y-114.3
X286.067Y-57.15
X290.83Y-76.2
X294.957Y-57.15
X295.592Y-38.1
X295.592Y-114.3
X299.72Y-76.2
X304.482Y-114.3
X305.118Y-57.15
X306.864Y-95.25
X309.88Y-76.2
X314.007Y-38.1
X314.642Y-114.3
X317.024Y-95.25
X321.151Y-66.675
X323.532Y-114.3
X324.167Y-38.1
X331.311Y-66.675
X333.692Y-114.3
T2
X142.875Y-121.285
X166.688Y-121.285
X190.5Y-121.285
X214.312Y-121.285
X300.037Y-88.265
X307.181Y-31.115
X323.85Y-88.265
X330.994Y-31.115
X333.216Y-54.769
X333.216Y-78.581
T3
X142.875Y-106.045
X166.688Y-106.045
X190.5Y-106.045
X214.312Y-106.045
X300.037Y-103.505
X307.181Y-46.355
X317.976Y-54.769
X317.976Y-78.581
X323.85Y-103.505
X330.994Y-46.355
M30
