%TF.GenerationSoftware,KiCad,Pcbnew,8.0.6*%
%TF.CreationDate,2024-12-01T13:40:35+01:00*%
%TF.ProjectId,layout_board,6c61796f-7574-45f6-926f-6172642e6b69,rev?*%
%TF.SameCoordinates,Original*%
%TF.FileFunction,Soldermask,Bot*%
%TF.FilePolarity,Negative*%
%FSLAX46Y46*%
G04 Gerber Fmt 4.6, Leading zero omitted, Abs format (unit mm)*
G04 Created by KiCad (PCBNEW 8.0.6) date 2024-12-01 13:40:35*
%MOMM*%
%LPD*%
G01*
G04 APERTURE LIST*
G04 Aperture macros list*
%AMRoundRect*
0 Rectangle with rounded corners*
0 $1 Rounding radius*
0 $2 $3 $4 $5 $6 $7 $8 $9 X,Y pos of 4 corners*
0 Add a 4 corners polygon primitive as box body*
4,1,4,$2,$3,$4,$5,$6,$7,$8,$9,$2,$3,0*
0 Add four circle primitives for the rounded corners*
1,1,$1+$1,$2,$3*
1,1,$1+$1,$4,$5*
1,1,$1+$1,$6,$7*
1,1,$1+$1,$8,$9*
0 Add four rect primitives between the rounded corners*
20,1,$1+$1,$2,$3,$4,$5,0*
20,1,$1+$1,$4,$5,$6,$7,0*
20,1,$1+$1,$6,$7,$8,$9,0*
20,1,$1+$1,$8,$9,$2,$3,0*%
%AMRotRect*
0 Rectangle, with rotation*
0 The origin of the aperture is its center*
0 $1 length*
0 $2 width*
0 $3 Rotation angle, in degrees counterclockwise*
0 Add horizontal line*
21,1,$1,$2,0,0,$3*%
G04 Aperture macros list end*
%ADD10C,1.750000*%
%ADD11C,3.987800*%
%ADD12C,3.048000*%
%ADD13C,3.600000*%
%ADD14C,5.700000*%
%ADD15RotRect,1.250013X0.700000X225.000000*%
%ADD16RotRect,1.250013X0.700000X135.000000*%
%ADD17RotRect,1.250013X0.700000X315.000000*%
%ADD18O,1.710008X0.364008*%
%ADD19RoundRect,0.155000X0.212500X0.155000X-0.212500X0.155000X-0.212500X-0.155000X0.212500X-0.155000X0*%
G04 APERTURE END LIST*
D10*
%TO.C,REF\u002A\u002A*%
X204470000Y-76200000D03*
X214630000Y-76200000D03*
%TD*%
%TO.C,REF\u002A\u002A*%
X223520000Y-76200000D03*
X233680000Y-76200000D03*
%TD*%
%TO.C,REF\u002A\u002A*%
X171132500Y-38100000D03*
X181292500Y-38100000D03*
%TD*%
%TO.C,REF\u002A\u002A*%
X61595000Y-57150000D03*
X71755000Y-57150000D03*
%TD*%
%TO.C,REF\u002A\u002A*%
X180657500Y-57150000D03*
X190817500Y-57150000D03*
%TD*%
%TO.C,REF\u002A\u002A*%
X285432500Y-38100000D03*
X295592500Y-38100000D03*
%TD*%
%TO.C,REF\u002A\u002A*%
X75882500Y-38100000D03*
X86042500Y-38100000D03*
%TD*%
%TO.C,REF\u002A\u002A*%
X233045000Y-95250000D03*
X243205000Y-95250000D03*
%TD*%
%TO.C,REF\u002A\u002A*%
X123507500Y-57150000D03*
X133667500Y-57150000D03*
%TD*%
%TO.C,REF\u002A\u002A*%
X137795000Y-95250000D03*
X147955000Y-95250000D03*
%TD*%
%TO.C,REF\u002A\u002A*%
X166370000Y-76200000D03*
X176530000Y-76200000D03*
%TD*%
%TO.C,REF\u002A\u002A*%
X228282500Y-38100000D03*
X238442500Y-38100000D03*
%TD*%
%TO.C,REF\u002A\u002A*%
X314007500Y-38100000D03*
X324167500Y-38100000D03*
%TD*%
D11*
%TO.C,REF\u002A\u002A*%
X317976250Y-54768750D03*
X317976250Y-78581250D03*
D12*
X333216250Y-54768750D03*
X333216250Y-78581250D03*
%TD*%
D10*
%TO.C,REF\u002A\u002A*%
X209232500Y-38100000D03*
X219392500Y-38100000D03*
%TD*%
%TO.C,REF\u002A\u002A*%
X304482500Y-114300000D03*
X314642500Y-114300000D03*
%TD*%
%TO.C,REF\u002A\u002A*%
X247332500Y-38100000D03*
X257492500Y-38100000D03*
%TD*%
D12*
%TO.C,REF\u002A\u002A*%
X307181250Y-31115000D03*
D11*
X307181250Y-46355000D03*
D12*
X330993750Y-31115000D03*
D11*
X330993750Y-46355000D03*
%TD*%
D10*
%TO.C,REF\u002A\u002A*%
X175895000Y-95250000D03*
X186055000Y-95250000D03*
%TD*%
%TO.C,REF\u002A\u002A*%
X104457500Y-57150000D03*
X114617500Y-57150000D03*
%TD*%
%TO.C,REF\u002A\u002A*%
X190182500Y-38100000D03*
X200342500Y-38100000D03*
%TD*%
%TO.C,REF\u002A\u002A*%
X218757500Y-57150000D03*
X228917500Y-57150000D03*
%TD*%
%TO.C,REF\u002A\u002A*%
X252095000Y-95250000D03*
X262255000Y-95250000D03*
%TD*%
%TO.C,REF\u002A\u002A*%
X237807500Y-57150000D03*
X247967500Y-57150000D03*
%TD*%
%TO.C,REF\u002A\u002A*%
X63976250Y-114300000D03*
X74136250Y-114300000D03*
%TD*%
%TO.C,REF\u002A\u002A*%
X280670000Y-76200000D03*
X290830000Y-76200000D03*
%TD*%
%TO.C,REF\u002A\u002A*%
X321151250Y-66675000D03*
X331311250Y-66675000D03*
%TD*%
%TO.C,REF\u002A\u002A*%
X147320000Y-76200000D03*
X157480000Y-76200000D03*
%TD*%
D12*
%TO.C,REF\u002A\u002A*%
X166687500Y-121285000D03*
D11*
X166687500Y-106045000D03*
D12*
X142875000Y-121285000D03*
D11*
X142875000Y-106045000D03*
%TD*%
D10*
%TO.C,REF\u002A\u002A*%
X242570000Y-76200000D03*
X252730000Y-76200000D03*
%TD*%
%TO.C,REF\u002A\u002A*%
X142557500Y-57150000D03*
X152717500Y-57150000D03*
%TD*%
%TO.C,REF\u002A\u002A*%
X133032500Y-38100000D03*
X143192500Y-38100000D03*
%TD*%
%TO.C,REF\u002A\u002A*%
X149701250Y-114300000D03*
X159861250Y-114300000D03*
%TD*%
%TO.C,REF\u002A\u002A*%
X294957500Y-57150000D03*
X305117500Y-57150000D03*
%TD*%
%TO.C,REF\u002A\u002A*%
X128270000Y-76200000D03*
X138430000Y-76200000D03*
%TD*%
%TO.C,REF\u002A\u002A*%
X59213750Y-95250000D03*
X69373750Y-95250000D03*
%TD*%
%TO.C,REF\u002A\u002A*%
X113982500Y-38100000D03*
X124142500Y-38100000D03*
%TD*%
%TO.C,REF\u002A\u002A*%
X323532500Y-114300000D03*
X333692500Y-114300000D03*
%TD*%
D12*
%TO.C,REF\u002A\u002A*%
X214312500Y-121285000D03*
D11*
X214312500Y-106045000D03*
D12*
X190500000Y-121285000D03*
D11*
X190500000Y-106045000D03*
%TD*%
D10*
%TO.C,REF\u002A\u002A*%
X94932500Y-38100000D03*
X105092500Y-38100000D03*
%TD*%
%TO.C,REF\u002A\u002A*%
X80645000Y-95250000D03*
X90805000Y-95250000D03*
%TD*%
%TO.C,REF\u002A\u002A*%
X63976250Y-76200000D03*
X74136250Y-76200000D03*
%TD*%
%TO.C,REF\u002A\u002A*%
X56832500Y-38100000D03*
X66992500Y-38100000D03*
%TD*%
%TO.C,REF\u002A\u002A*%
X194945000Y-95250000D03*
X205105000Y-95250000D03*
%TD*%
%TO.C,REF\u002A\u002A*%
X118745000Y-95250000D03*
X128905000Y-95250000D03*
%TD*%
%TO.C,REF\u002A\u002A*%
X152082500Y-38100000D03*
X162242500Y-38100000D03*
%TD*%
%TO.C,REF\u002A\u002A*%
X199707500Y-57150000D03*
X209867500Y-57150000D03*
%TD*%
%TO.C,REF\u002A\u002A*%
X99695000Y-95250000D03*
X109855000Y-95250000D03*
%TD*%
%TO.C,REF\u002A\u002A*%
X275907500Y-57150000D03*
X286067500Y-57150000D03*
%TD*%
%TO.C,REF\u002A\u002A*%
X33020000Y-57150000D03*
X43180000Y-57150000D03*
%TD*%
%TO.C,REF\u002A\u002A*%
X33020000Y-76200000D03*
X43180000Y-76200000D03*
%TD*%
%TO.C,REF\u002A\u002A*%
X156845000Y-95250000D03*
X167005000Y-95250000D03*
%TD*%
%TO.C,REF\u002A\u002A*%
X90170000Y-76200000D03*
X100330000Y-76200000D03*
%TD*%
%TO.C,REF\u002A\u002A*%
X33020000Y-38100000D03*
X43180000Y-38100000D03*
%TD*%
%TO.C,REF\u002A\u002A*%
X266382500Y-38100000D03*
X276542500Y-38100000D03*
%TD*%
%TO.C,REF\u002A\u002A*%
X256857500Y-57150000D03*
X267017500Y-57150000D03*
%TD*%
%TO.C,REF\u002A\u002A*%
X161607500Y-57150000D03*
X171767500Y-57150000D03*
%TD*%
%TO.C,REF\u002A\u002A*%
X213995000Y-95250000D03*
X224155000Y-95250000D03*
%TD*%
%TO.C,REF\u002A\u002A*%
X109220000Y-76200000D03*
X119380000Y-76200000D03*
%TD*%
D12*
%TO.C,REF\u002A\u002A*%
X300037500Y-88265000D03*
D11*
X300037500Y-103505000D03*
D12*
X323850000Y-88265000D03*
D11*
X323850000Y-103505000D03*
%TD*%
D10*
%TO.C,REF\u002A\u002A*%
X235426250Y-114300000D03*
X245586250Y-114300000D03*
%TD*%
%TO.C,REF\u002A\u002A*%
X185420000Y-76200000D03*
X195580000Y-76200000D03*
%TD*%
%TO.C,REF\u002A\u002A*%
X285432500Y-114300000D03*
X295592500Y-114300000D03*
%TD*%
%TO.C,REF\u002A\u002A*%
X256857500Y-114300000D03*
X267017500Y-114300000D03*
%TD*%
%TO.C,REF\u002A\u002A*%
X271145000Y-95250000D03*
X281305000Y-95250000D03*
%TD*%
%TO.C,REF\u002A\u002A*%
X85407500Y-57150000D03*
X95567500Y-57150000D03*
%TD*%
%TO.C,REF\u002A\u002A*%
X116363750Y-114300000D03*
X126523750Y-114300000D03*
%TD*%
%TO.C,REF\u002A\u002A*%
X299720000Y-76200000D03*
X309880000Y-76200000D03*
%TD*%
%TO.C,REF\u002A\u002A*%
X306863750Y-95250000D03*
X317023750Y-95250000D03*
%TD*%
%TO.C,REF\u002A\u002A*%
X92551250Y-114300000D03*
X102711250Y-114300000D03*
%TD*%
%TO.C,REF\u002A\u002A*%
X261620000Y-76200000D03*
X271780000Y-76200000D03*
%TD*%
%TO.C,REF\u002A\u002A*%
X197326250Y-114300000D03*
X207486250Y-114300000D03*
%TD*%
D13*
%TO.C,REF\u002A\u002A*%
X105593466Y-86617896D03*
D14*
X105593466Y-86617896D03*
%TD*%
D15*
%TO.C,U4:14*%
X328577118Y-115678831D03*
X327233669Y-114335382D03*
X329319607Y-113592893D03*
%TD*%
D16*
%TO.C,U4:12*%
X289133669Y-114264618D03*
X290477118Y-112921169D03*
X291219607Y-115007107D03*
%TD*%
D13*
%TO.C,REF\u002A\u002A*%
X319087232Y-84236648D03*
D14*
X319087232Y-84236648D03*
%TD*%
D16*
%TO.C,U3:2*%
X84346169Y-95214618D03*
X85689618Y-93871169D03*
X86432107Y-95957107D03*
%TD*%
%TO.C,U2:5*%
X151021169Y-76164618D03*
X152364618Y-74821169D03*
X153107107Y-76907107D03*
%TD*%
%TO.C,U3:4*%
X122446169Y-95214618D03*
X123789618Y-93871169D03*
X124532107Y-95957107D03*
%TD*%
%TO.C,U2:9*%
X227221169Y-76164618D03*
X228564618Y-74821169D03*
X229307107Y-76907107D03*
%TD*%
D13*
%TO.C,REF\u002A\u002A*%
X315813016Y-49708552D03*
D14*
X315813016Y-49708552D03*
%TD*%
D16*
%TO.C,U0:12*%
X270083669Y-38064618D03*
X271427118Y-36721169D03*
X272169607Y-38807107D03*
%TD*%
D17*
%TO.C,U0:8*%
X196641331Y-38135382D03*
X195297882Y-39478831D03*
X194555393Y-37392893D03*
%TD*%
%TO.C,U0:2*%
X82341331Y-38135382D03*
X80997882Y-39478831D03*
X80255393Y-37392893D03*
%TD*%
D16*
%TO.C,U4:5*%
X153402419Y-114264618D03*
X154745868Y-112921169D03*
X155488357Y-115007107D03*
%TD*%
%TO.C,U2:11*%
X265321169Y-76164618D03*
X266664618Y-74821169D03*
X267407107Y-76907107D03*
%TD*%
%TO.C,U0:13*%
X289133669Y-38064618D03*
X290477118Y-36721169D03*
X291219607Y-38807107D03*
%TD*%
%TO.C,U2:8*%
X208171169Y-76164618D03*
X209514618Y-74821169D03*
X210257107Y-76907107D03*
%TD*%
%TO.C,U1:0*%
X36721169Y-57114618D03*
X38064618Y-55771169D03*
X38807107Y-57857107D03*
%TD*%
%TO.C,U0:1*%
X60533669Y-38064618D03*
X61877118Y-36721169D03*
X62619607Y-38807107D03*
%TD*%
%TO.C,U3:5*%
X141496169Y-95214618D03*
X142839618Y-93871169D03*
X143582107Y-95957107D03*
%TD*%
%TO.C,U1:12*%
X279608669Y-57114618D03*
X280952118Y-55771169D03*
X281694607Y-57857107D03*
%TD*%
%TO.C,U4:10*%
X260558669Y-114264618D03*
X261902118Y-112921169D03*
X262644607Y-115007107D03*
%TD*%
%TO.C,U2:6*%
X170071169Y-76164618D03*
X171414618Y-74821169D03*
X172157107Y-76907107D03*
%TD*%
%TO.C,U3:11*%
X255796169Y-95214618D03*
X257139618Y-93871169D03*
X257882107Y-95957107D03*
%TD*%
%TO.C,U3:6*%
X160546169Y-95214618D03*
X161889618Y-93871169D03*
X162632107Y-95957107D03*
%TD*%
D15*
%TO.C,U2:4*%
X133314618Y-77578831D03*
X131971169Y-76235382D03*
X134057107Y-75492893D03*
%TD*%
%TO.C,U1:13*%
X300002118Y-58528831D03*
X298658669Y-57185382D03*
X300744607Y-56442893D03*
%TD*%
D16*
%TO.C,U2:3*%
X112921169Y-76164618D03*
X114264618Y-74821169D03*
X115007107Y-76907107D03*
%TD*%
D13*
%TO.C,REF\u002A\u002A*%
X40481216Y-47624960D03*
D14*
X40481216Y-47624960D03*
%TD*%
D15*
%TO.C,U4:1*%
X69020868Y-115678831D03*
X67677419Y-114335382D03*
X69763357Y-113592893D03*
%TD*%
D16*
%TO.C,U0:0*%
X36721169Y-38064618D03*
X38064618Y-36721169D03*
X38807107Y-38807107D03*
%TD*%
D17*
%TO.C,U0:14*%
X320466331Y-38135382D03*
X319122882Y-39478831D03*
X318380393Y-37392893D03*
%TD*%
D16*
%TO.C,U0:7*%
X174833669Y-38064618D03*
X176177118Y-36721169D03*
X176919607Y-38807107D03*
%TD*%
%TO.C,U3:9*%
X217696169Y-95214618D03*
X219039618Y-93871169D03*
X219782107Y-95957107D03*
%TD*%
%TO.C,U1:11*%
X260558669Y-57114618D03*
X261902118Y-55771169D03*
X262644607Y-57857107D03*
%TD*%
D15*
%TO.C,U1:7*%
X185702118Y-58528831D03*
X184358669Y-57185382D03*
X186444607Y-56442893D03*
%TD*%
D16*
%TO.C,U0:10*%
X231983669Y-38064618D03*
X233327118Y-36721169D03*
X234069607Y-38807107D03*
%TD*%
%TO.C,U1:9*%
X222458669Y-57114618D03*
X223802118Y-55771169D03*
X224544607Y-57857107D03*
%TD*%
D15*
%TO.C,U1:10*%
X242852118Y-58528831D03*
X241508669Y-57185382D03*
X243594607Y-56442893D03*
%TD*%
D13*
%TO.C,REF\u002A\u002A*%
X109537408Y-38992936D03*
D14*
X109537408Y-38992936D03*
%TD*%
D16*
%TO.C,U2:0*%
X36721169Y-76164618D03*
X38064618Y-74821169D03*
X38807107Y-76907107D03*
%TD*%
D17*
%TO.C,U0:5*%
X139491331Y-38135382D03*
X138147882Y-39478831D03*
X137405393Y-37392893D03*
%TD*%
%TO.C,U0:3*%
X101391331Y-38135382D03*
X100047882Y-39478831D03*
X99305393Y-37392893D03*
%TD*%
D13*
%TO.C,REF\u002A\u002A*%
X44053088Y-110728032D03*
D14*
X44053088Y-110728032D03*
%TD*%
D16*
%TO.C,U3:13*%
X310564919Y-95214618D03*
X311908368Y-93871169D03*
X312650857Y-95957107D03*
%TD*%
D18*
%TO.C,U2*%
X126152708Y-47218336D03*
X126152708Y-46568349D03*
X126152708Y-45918362D03*
X126152708Y-45268374D03*
X126152708Y-44618387D03*
X126152708Y-43968400D03*
X126152708Y-43318158D03*
X126152708Y-42668171D03*
X126152708Y-42018184D03*
X126152708Y-41368196D03*
X126152708Y-40718209D03*
X126152708Y-40068222D03*
X131712780Y-40068222D03*
X131712780Y-40718209D03*
X131712780Y-41368196D03*
X131712780Y-42018184D03*
X131712780Y-42668171D03*
X131712780Y-43318158D03*
X131712780Y-43968400D03*
X131712780Y-44618387D03*
X131712780Y-45268374D03*
X131712780Y-45918362D03*
X131712780Y-46568349D03*
X131712780Y-47218336D03*
%TD*%
D16*
%TO.C,U1:2*%
X89108669Y-57114618D03*
X90452118Y-55771169D03*
X91194607Y-57857107D03*
%TD*%
%TO.C,U1:5*%
X146258669Y-57114618D03*
X147602118Y-55771169D03*
X148344607Y-57857107D03*
%TD*%
%TO.C,U0:4*%
X117683669Y-38064618D03*
X119027118Y-36721169D03*
X119769607Y-38807107D03*
%TD*%
D13*
%TO.C,REF\u002A\u002A*%
X266699776Y-104179600D03*
D14*
X266699776Y-104179600D03*
%TD*%
D17*
%TO.C,U0:11*%
X253791331Y-38135382D03*
X252447882Y-39478831D03*
X251705393Y-37392893D03*
%TD*%
D19*
%TO.C,C68*%
X74311774Y-49559724D03*
X73176774Y-49559724D03*
%TD*%
D16*
%TO.C,U1:6*%
X165308669Y-57114618D03*
X166652118Y-55771169D03*
X167394607Y-57857107D03*
%TD*%
%TO.C,U3:10*%
X236746169Y-95214618D03*
X238089618Y-93871169D03*
X238832107Y-95957107D03*
%TD*%
D15*
%TO.C,U3:1*%
X64258368Y-96628831D03*
X62914919Y-95285382D03*
X65000857Y-94542893D03*
%TD*%
%TO.C,U1:4*%
X128552118Y-58528831D03*
X127208669Y-57185382D03*
X129294607Y-56442893D03*
%TD*%
D16*
%TO.C,U3:3*%
X103396169Y-95214618D03*
X104739618Y-93871169D03*
X105482107Y-95957107D03*
%TD*%
%TO.C,U0:9*%
X212933669Y-38064618D03*
X214277118Y-36721169D03*
X215019607Y-38807107D03*
%TD*%
%TO.C,U3:12*%
X274846169Y-95214618D03*
X276189618Y-93871169D03*
X276932107Y-95957107D03*
%TD*%
D19*
%TO.C,C69*%
X131722175Y-49596931D03*
X130587175Y-49596931D03*
%TD*%
D16*
%TO.C,U0:6*%
X155974294Y-38064618D03*
X157317743Y-36721169D03*
X158060232Y-38807107D03*
%TD*%
%TO.C,U2:2*%
X93871169Y-76164618D03*
X95214618Y-74821169D03*
X95957107Y-76907107D03*
%TD*%
D13*
%TO.C,REF\u002A\u002A*%
X175617040Y-113109375D03*
D14*
X175617040Y-113109375D03*
%TD*%
D15*
%TO.C,U1:1*%
X66639618Y-58528831D03*
X65296169Y-57185382D03*
X67382107Y-56442893D03*
%TD*%
D16*
%TO.C,U1:3*%
X108158669Y-57114618D03*
X109502118Y-55771169D03*
X110244607Y-57857107D03*
%TD*%
%TO.C,U2:12*%
X284371169Y-76164618D03*
X285714618Y-74821169D03*
X286457107Y-76907107D03*
%TD*%
%TO.C,U4:2*%
X96252419Y-114264618D03*
X97595868Y-112921169D03*
X98338357Y-115007107D03*
%TD*%
D18*
%TO.C,U4*%
X240080542Y-47218336D03*
X240080542Y-46568349D03*
X240080542Y-45918362D03*
X240080542Y-45268374D03*
X240080542Y-44618387D03*
X240080542Y-43968400D03*
X240080542Y-43318158D03*
X240080542Y-42668171D03*
X240080542Y-42018184D03*
X240080542Y-41368196D03*
X240080542Y-40718209D03*
X240080542Y-40068222D03*
X245640614Y-40068222D03*
X245640614Y-40718209D03*
X245640614Y-41368196D03*
X245640614Y-42018184D03*
X245640614Y-42668171D03*
X245640614Y-43318158D03*
X245640614Y-43968400D03*
X245640614Y-44618387D03*
X245640614Y-45268374D03*
X245640614Y-45918362D03*
X245640614Y-46568349D03*
X245640614Y-47218336D03*
%TD*%
D19*
%TO.C,C71*%
X245612802Y-49522517D03*
X244477802Y-49522517D03*
%TD*%
D16*
%TO.C,U4:13*%
X308183669Y-114264618D03*
X309527118Y-112921169D03*
X310269607Y-115007107D03*
%TD*%
%TO.C,U3:7*%
X179596169Y-95214618D03*
X180939618Y-93871169D03*
X181682107Y-95957107D03*
%TD*%
D19*
%TO.C,C72*%
X302799961Y-49559724D03*
X301664961Y-49559724D03*
%TD*%
D18*
%TO.C,U1*%
X68767894Y-47218336D03*
X68767894Y-46568349D03*
X68767894Y-45918362D03*
X68767894Y-45268374D03*
X68767894Y-44618387D03*
X68767894Y-43968400D03*
X68767894Y-43318158D03*
X68767894Y-42668171D03*
X68767894Y-42018184D03*
X68767894Y-41368196D03*
X68767894Y-40718209D03*
X68767894Y-40068222D03*
X74327966Y-40068222D03*
X74327966Y-40718209D03*
X74327966Y-41368196D03*
X74327966Y-42018184D03*
X74327966Y-42668171D03*
X74327966Y-43318158D03*
X74327966Y-43968400D03*
X74327966Y-44618387D03*
X74327966Y-45268374D03*
X74327966Y-45918362D03*
X74327966Y-46568349D03*
X74327966Y-47218336D03*
%TD*%
D16*
%TO.C,U1:8*%
X203408669Y-57114618D03*
X204752118Y-55771169D03*
X205494607Y-57857107D03*
%TD*%
D17*
%TO.C,U2:13*%
X306178831Y-76235382D03*
X304835382Y-77578831D03*
X304092893Y-75492893D03*
%TD*%
D16*
%TO.C,U3:8*%
X198646169Y-95214618D03*
X199989618Y-93871169D03*
X200732107Y-95957107D03*
%TD*%
%TO.C,U2:10*%
X246271169Y-76164618D03*
X247614618Y-74821169D03*
X248357107Y-76907107D03*
%TD*%
D18*
%TO.C,U3*%
X182930590Y-47218336D03*
X182930590Y-46568349D03*
X182930590Y-45918362D03*
X182930590Y-45268374D03*
X182930590Y-44618387D03*
X182930590Y-43968400D03*
X182930590Y-43318158D03*
X182930590Y-42668171D03*
X182930590Y-42018184D03*
X182930590Y-41368196D03*
X182930590Y-40718209D03*
X182930590Y-40068222D03*
X188490662Y-40068222D03*
X188490662Y-40718209D03*
X188490662Y-41368196D03*
X188490662Y-42018184D03*
X188490662Y-42668171D03*
X188490662Y-43318158D03*
X188490662Y-43968400D03*
X188490662Y-44618387D03*
X188490662Y-45268374D03*
X188490662Y-45918362D03*
X188490662Y-46568349D03*
X188490662Y-47218336D03*
%TD*%
D16*
%TO.C,U4:9*%
X239127419Y-114264618D03*
X240470868Y-112921169D03*
X241213357Y-115007107D03*
%TD*%
D15*
%TO.C,U2:7*%
X190464618Y-77578831D03*
X189121169Y-76235382D03*
X191207107Y-75492893D03*
%TD*%
D18*
%TO.C,U5*%
X297230494Y-47218336D03*
X297230494Y-46568349D03*
X297230494Y-45918362D03*
X297230494Y-45268374D03*
X297230494Y-44618387D03*
X297230494Y-43968400D03*
X297230494Y-43318158D03*
X297230494Y-42668171D03*
X297230494Y-42018184D03*
X297230494Y-41368196D03*
X297230494Y-40718209D03*
X297230494Y-40068222D03*
X302790566Y-40068222D03*
X302790566Y-40718209D03*
X302790566Y-41368196D03*
X302790566Y-42018184D03*
X302790566Y-42668171D03*
X302790566Y-43318158D03*
X302790566Y-43968400D03*
X302790566Y-44618387D03*
X302790566Y-45268374D03*
X302790566Y-45918362D03*
X302790566Y-46568349D03*
X302790566Y-47218336D03*
%TD*%
D15*
%TO.C,U1:14*%
X326195868Y-68053831D03*
X324852419Y-66710382D03*
X326938357Y-65967893D03*
%TD*%
D17*
%TO.C,U2:1*%
X70435081Y-76235382D03*
X69091632Y-77578831D03*
X68349143Y-75492893D03*
%TD*%
D16*
%TO.C,U4:3*%
X120064919Y-114264618D03*
X121408368Y-112921169D03*
X122150857Y-115007107D03*
%TD*%
%TO.C,U4:7*%
X201027419Y-114264618D03*
X202370868Y-112921169D03*
X203113357Y-115007107D03*
%TD*%
D19*
%TO.C,C70*%
X188462850Y-49522517D03*
X187327850Y-49522517D03*
%TD*%
D13*
%TO.C,REF\u002A\u002A*%
X214312320Y-48220272D03*
D14*
X214312320Y-48220272D03*
%TD*%
M02*
