M48
; DRILL file {KiCad 8.0.6} date 2024-12-01T13:40:30+0100
; FORMAT={-:-/ absolute / metric / decimal}
; #@! TF.CreationDate,2024-12-01T13:40:30+01:00
; #@! TF.GenerationSoftware,Kicad,Pcbnew,8.0.6
; #@! TF.FileFunction,Plated,1,2,PTH
FMAT,2
METRIC
; #@! TA.AperFunction,Plated,PTH,ViaDrill
T1C0.300
; #@! TA.AperFunction,Plated,PTH,ViaDrill
T2C0.400
; #@! TA.AperFunction,Plated,PTH,ComponentDrill
T3C3.200
%
G90
G05
T1
X29.771Y-31.383
X29.771Y-33.923
X29.771Y-36.463
X29.771Y-39.003
X29.771Y-41.543
X29.771Y-44.083
X29.771Y-46.623
X29.771Y-49.163
X29.771Y-51.703
X29.771Y-54.243
X29.771Y-56.783
X29.771Y-59.323
X29.771Y-61.863
X29.771Y-64.403
X29.771Y-66.943
X29.771Y-69.483
X29.771Y-72.023
X29.771Y-74.563
X29.771Y-77.103
X29.771Y-79.643
X29.771Y-82.183
X29.771Y-84.723
X29.771Y-87.263
X29.771Y-89.803
X29.771Y-92.343
X29.771Y-94.883
X29.771Y-97.423
X29.771Y-99.963
X29.771Y-102.503
X29.771Y-105.043
X29.771Y-107.583
X29.771Y-110.123
X29.771Y-112.663
X29.771Y-115.203
X29.771Y-117.743
X29.771Y-120.283
X29.771Y-122.823
X32.311Y-31.383
X32.311Y-33.923
X32.311Y-36.463
X32.311Y-41.543
X32.311Y-44.083
X32.311Y-46.623
X32.311Y-49.163
X32.311Y-51.703
X32.311Y-54.243
X32.311Y-59.323
X32.311Y-61.863
X32.311Y-64.403
X32.311Y-66.943
X32.311Y-69.483
X32.311Y-72.023
X32.311Y-74.563
X32.311Y-79.643
X32.311Y-82.183
X32.311Y-84.723
X32.311Y-87.263
X32.311Y-89.803
X32.311Y-92.343
X32.311Y-94.883
X32.311Y-97.423
X32.311Y-99.963
X32.311Y-102.503
X32.311Y-105.043
X32.311Y-107.583
X32.311Y-110.123
X32.311Y-112.663
X32.311Y-115.203
X32.311Y-117.743
X32.311Y-120.283
X32.311Y-122.823
X34.851Y-31.383
X34.851Y-33.923
X34.851Y-36.463
X34.851Y-39.003
X34.851Y-41.543
X34.851Y-44.083
X34.851Y-46.623
X34.851Y-49.163
X34.851Y-51.703
X34.851Y-54.243
X34.851Y-56.783
X34.851Y-59.323
X34.851Y-61.863
X34.851Y-64.403
X34.851Y-66.943
X34.851Y-69.483
X34.851Y-72.023
X34.851Y-74.563
X34.851Y-77.103
X34.851Y-79.643
X34.851Y-82.183
X34.851Y-84.723
X34.851Y-87.263
X34.851Y-89.803
X34.851Y-92.343
X34.851Y-94.883
X34.851Y-97.423
X34.851Y-99.963
X34.851Y-102.503
X34.851Y-105.043
X34.851Y-107.583
X34.851Y-110.123
X34.851Y-112.663
X34.851Y-115.203
X34.851Y-117.743
X34.851Y-120.283
X34.851Y-122.823
X37.356Y-33.933
X37.391Y-31.383
X37.391Y-41.543
X37.391Y-44.083
X37.391Y-51.703
X37.391Y-61.863
X37.391Y-64.403
X37.391Y-66.943
X37.391Y-69.483
X37.391Y-72.023
X37.391Y-112.663
X37.391Y-115.203
X37.391Y-117.743
X37.391Y-120.283
X37.391Y-122.823
X37.581Y-53.928
X37.73Y-79.229
X38.623Y-60.104
X39.886Y-29.468
X39.886Y-33.933
X39.931Y-31.383
X39.931Y-44.083
X39.931Y-51.703
X39.931Y-61.863
X39.931Y-64.403
X39.931Y-66.943
X39.931Y-69.483
X39.931Y-79.643
X39.931Y-82.183
X39.931Y-84.723
X39.931Y-87.263
X39.931Y-89.803
X39.931Y-92.343
X39.931Y-94.883
X39.931Y-97.423
X39.931Y-99.963
X39.931Y-102.503
X39.931Y-105.043
X39.931Y-107.583
X39.931Y-110.123
X39.931Y-115.203
X39.931Y-117.743
X39.931Y-120.283
X39.931Y-122.823
X40.335Y-73.648
X40.409Y-54.598
X40.481Y-40.332
X40.63Y-35.421
X41.374Y-37.951
X42.471Y-36.463
X42.471Y-44.083
X42.471Y-54.243
X42.471Y-59.323
X42.471Y-61.863
X42.471Y-64.403
X42.471Y-66.943
X42.471Y-72.023
X42.471Y-74.563
X42.471Y-79.643
X42.471Y-82.183
X42.471Y-84.723
X42.471Y-87.263
X42.471Y-89.803
X42.471Y-92.343
X42.471Y-94.883
X42.471Y-97.423
X42.471Y-99.963
X42.471Y-102.503
X42.471Y-105.043
X42.471Y-107.583
X42.471Y-117.743
X42.471Y-120.283
X42.471Y-122.823
X42.862Y-39.886
X43.048Y-31.663
X43.16Y-29.468
X43.16Y-33.784
X44.723Y-36.463
X44.797Y-31.626
X44.797Y-34.23
X44.946Y-40.184
X45.011Y-39.003
X45.011Y-44.083
X45.011Y-46.623
X45.011Y-51.703
X45.011Y-54.243
X45.011Y-56.783
X45.011Y-59.323
X45.011Y-61.863
X45.011Y-64.403
X45.011Y-69.483
X45.011Y-72.023
X45.011Y-74.563
X45.011Y-77.103
X45.011Y-79.643
X45.011Y-82.183
X45.011Y-84.723
X45.011Y-87.263
X45.011Y-89.803
X45.011Y-92.343
X45.011Y-94.883
X45.011Y-97.423
X45.011Y-99.963
X45.011Y-102.503
X45.011Y-105.043
X45.011Y-115.203
X45.011Y-120.283
X45.011Y-122.823
X46.732Y-29.468
X46.881Y-38.993
X46.881Y-40.184
X47.551Y-44.083
X47.551Y-49.163
X47.551Y-51.703
X47.551Y-54.243
X47.551Y-56.783
X47.551Y-59.323
X47.551Y-61.863
X47.551Y-66.943
X47.551Y-69.483
X47.551Y-72.023
X47.551Y-74.563
X47.551Y-77.103
X47.551Y-79.643
X47.551Y-82.183
X47.551Y-84.723
X47.551Y-87.263
X47.551Y-89.803
X47.551Y-92.343
X47.551Y-94.883
X47.551Y-97.423
X47.551Y-99.963
X47.551Y-102.503
X47.551Y-105.043
X47.551Y-107.583
X47.551Y-110.123
X47.551Y-112.663
X47.551Y-115.203
X47.551Y-120.283
X47.551Y-122.823
X49.041Y-43.435
X49.56Y-29.468
X50.091Y-46.623
X50.091Y-64.403
X50.091Y-66.943
X50.091Y-69.483
X50.091Y-72.023
X50.091Y-74.563
X50.091Y-77.103
X50.091Y-79.643
X50.091Y-82.183
X50.091Y-84.723
X50.091Y-87.263
X50.091Y-89.803
X50.091Y-92.343
X50.091Y-94.883
X50.091Y-97.423
X50.091Y-99.963
X50.091Y-102.503
X50.091Y-105.043
X50.091Y-107.583
X50.091Y-110.123
X50.091Y-112.663
X50.091Y-115.203
X50.091Y-120.283
X50.091Y-122.823
X50.902Y-44.18
X51.383Y-36.537
X51.42Y-31.961
X51.457Y-34.193
X51.792Y-39.142
X51.792Y-40.332
X52.631Y-44.083
X52.631Y-49.163
X52.631Y-51.703
X52.631Y-54.243
X52.631Y-56.783
X52.631Y-59.323
X52.631Y-61.863
X52.631Y-64.403
X52.631Y-66.943
X52.631Y-69.483
X52.631Y-72.023
X52.631Y-74.563
X52.631Y-77.103
X52.631Y-79.643
X52.631Y-82.183
X52.631Y-84.723
X52.631Y-87.263
X52.631Y-89.803
X52.631Y-92.343
X52.631Y-94.883
X52.631Y-97.423
X52.631Y-99.963
X52.631Y-102.503
X52.631Y-105.043
X52.631Y-107.583
X52.631Y-110.123
X52.631Y-112.663
X52.631Y-115.203
X52.631Y-120.283
X52.631Y-122.823
X52.946Y-34.156
X52.983Y-36.5
X53.094Y-31.961
X53.28Y-29.319
X53.876Y-38.993
X54.025Y-40.332
X54.771Y-44.128
X55.066Y-38.249
X55.171Y-46.623
X55.171Y-105.043
X55.171Y-107.583
X55.171Y-110.123
X55.171Y-112.663
X55.171Y-115.203
X55.171Y-120.283
X55.171Y-122.823
X55.81Y-30.51
X56.108Y-39.886
X56.369Y-29.207
X56.483Y-44.849
X57.711Y-49.163
X57.711Y-51.703
X57.711Y-54.243
X57.711Y-56.783
X57.711Y-59.323
X57.711Y-61.863
X57.711Y-64.403
X57.711Y-66.943
X57.711Y-69.483
X57.711Y-72.023
X57.711Y-74.563
X57.711Y-77.103
X57.711Y-79.643
X57.711Y-82.183
X57.711Y-84.723
X57.711Y-87.263
X57.711Y-89.803
X57.711Y-92.343
X57.711Y-97.423
X57.711Y-99.963
X57.711Y-102.503
X57.711Y-107.583
X57.711Y-110.123
X57.711Y-112.663
X57.711Y-115.203
X57.711Y-120.283
X57.711Y-122.823
X58.675Y-37.281
X58.789Y-44.7
X59.31Y-40.236
X60.251Y-41.543
X60.251Y-46.623
X60.251Y-51.703
X60.251Y-54.243
X60.251Y-59.323
X60.251Y-61.863
X60.251Y-64.403
X60.251Y-66.943
X60.251Y-69.483
X60.251Y-72.023
X60.251Y-74.563
X60.251Y-77.103
X60.251Y-79.643
X60.251Y-82.183
X60.251Y-84.723
X60.251Y-87.263
X60.251Y-89.803
X60.251Y-97.423
X60.251Y-99.963
X60.251Y-102.503
X60.251Y-105.043
X60.251Y-110.123
X60.251Y-112.663
X60.251Y-115.203
X60.251Y-120.283
X60.251Y-122.823
X61.171Y-94.781
X61.915Y-92.995
X62.213Y-45.37
X62.791Y-41.543
X62.791Y-49.163
X62.791Y-51.703
X62.791Y-54.243
X62.791Y-59.323
X62.791Y-61.863
X62.791Y-64.403
X62.791Y-66.943
X62.791Y-69.483
X62.791Y-72.023
X62.791Y-74.563
X62.791Y-79.643
X62.791Y-82.183
X62.791Y-84.723
X62.791Y-87.263
X62.791Y-89.803
X62.791Y-99.963
X62.791Y-102.503
X62.791Y-105.043
X62.791Y-107.583
X62.791Y-112.663
X62.791Y-120.283
X62.791Y-122.823
X64.147Y-98.279
X64.296Y-40.31
X64.371Y-35.92
X64.445Y-54.746
X64.445Y-59.509
X64.666Y-46.062
X65.115Y-38.524
X65.331Y-36.463
X65.331Y-41.543
X65.331Y-49.163
X65.331Y-51.703
X65.331Y-61.863
X65.331Y-64.403
X65.331Y-66.943
X65.331Y-69.483
X65.331Y-72.023
X65.331Y-79.643
X65.331Y-82.183
X65.331Y-84.723
X65.331Y-87.263
X65.331Y-89.803
X65.331Y-99.963
X65.331Y-102.503
X65.331Y-105.043
X65.331Y-107.583
X65.331Y-110.123
X65.331Y-120.283
X65.331Y-122.823
X65.636Y-60.179
X65.71Y-53.928
X65.71Y-113.831
X65.933Y-75.731
X66.38Y-46.732
X66.603Y-92.698
X66.677Y-111.747
X66.752Y-73.871
X67.198Y-40.905
X67.347Y-94.93
X67.422Y-54.002
X67.871Y-36.463
X67.871Y-49.163
X67.871Y-51.703
X67.871Y-61.863
X67.871Y-64.403
X67.871Y-66.943
X67.871Y-69.483
X67.871Y-79.643
X67.871Y-82.183
X67.871Y-84.723
X67.871Y-87.263
X67.871Y-89.803
X67.871Y-97.423
X67.871Y-99.963
X67.871Y-102.503
X67.871Y-105.043
X67.871Y-107.583
X67.871Y-110.123
X67.871Y-120.283
X67.871Y-122.823
X67.942Y-117.329
X68.835Y-73.052
X68.984Y-54.746
X69.133Y-38.599
X69.431Y-79.154
X69.877Y-56.681
X69.986Y-30.814
X70.249Y-117.329
X70.321Y-82.19
X70.324Y-45.147
X70.358Y-84.72
X70.358Y-87.288
X70.396Y-89.78
X70.396Y-92.534
X70.398Y-41.947
X70.411Y-44.083
X70.411Y-49.163
X70.411Y-51.703
X70.411Y-59.323
X70.411Y-61.863
X70.411Y-64.403
X70.411Y-66.943
X70.411Y-69.483
X70.411Y-72.023
X70.411Y-97.423
X70.411Y-99.963
X70.411Y-102.503
X70.411Y-105.043
X70.411Y-107.583
X70.411Y-110.123
X70.411Y-120.283
X70.411Y-122.823
X70.768Y-31.514
X71.068Y-46.933
X71.068Y-111.45
X71.586Y-55.104
X72.939Y-30.107
X72.951Y-59.323
X72.951Y-61.863
X72.951Y-64.403
X72.951Y-66.943
X72.951Y-69.483
X72.951Y-72.023
X72.951Y-74.563
X72.951Y-79.643
X72.951Y-92.343
X72.951Y-94.883
X72.951Y-97.423
X72.951Y-99.963
X72.951Y-102.503
X72.951Y-105.043
X72.951Y-107.583
X72.951Y-110.123
X72.951Y-112.663
X72.951Y-120.283
X72.951Y-122.823
X73.226Y-50.654
X73.3Y-48.124
X73.595Y-53.615
X73.633Y-29.407
X73.707Y-87.325
X73.781Y-89.967
X74.416Y-35.473
X74.491Y-38.971
X75.491Y-49.163
X75.491Y-51.703
X75.491Y-54.243
X75.491Y-56.783
X75.491Y-59.323
X75.491Y-61.863
X75.491Y-64.403
X75.491Y-66.943
X75.491Y-69.483
X75.491Y-72.023
X75.491Y-74.563
X75.491Y-79.643
X75.491Y-82.183
X75.491Y-89.803
X75.491Y-92.343
X75.491Y-94.883
X75.491Y-97.423
X75.491Y-99.963
X75.491Y-102.503
X75.491Y-105.043
X75.491Y-107.583
X75.491Y-110.123
X75.491Y-112.663
X75.491Y-120.283
X75.491Y-122.823
X75.979Y-42.319
X76.349Y-40.035
X76.535Y-35.793
X76.646Y-41.225
X77.095Y-46.635
X77.502Y-49.932
X78.031Y-51.703
X78.031Y-54.243
X78.031Y-56.783
X78.031Y-59.323
X78.031Y-61.863
X78.031Y-64.403
X78.031Y-66.943
X78.031Y-69.483
X78.031Y-72.023
X78.031Y-74.563
X78.031Y-77.103
X78.031Y-79.643
X78.031Y-82.183
X78.031Y-84.723
X78.031Y-92.343
X78.031Y-94.883
X78.031Y-97.423
X78.031Y-99.963
X78.031Y-102.503
X78.031Y-105.043
X78.031Y-107.583
X78.031Y-110.123
X78.031Y-112.663
X78.031Y-115.203
X78.031Y-120.283
X78.031Y-122.823
X78.509Y-43.138
X78.767Y-35.495
X78.804Y-48.444
X78.807Y-40.384
X78.879Y-46.062
X80.571Y-97.423
X80.571Y-99.963
X80.571Y-102.503
X80.571Y-105.043
X80.571Y-107.583
X80.571Y-110.123
X80.571Y-112.663
X80.571Y-115.203
X80.571Y-120.283
X80.571Y-122.823
X80.739Y-47.699
X81.337Y-45.37
X81.818Y-41.449
X81.855Y-56.778
X81.855Y-66.898
X81.855Y-69.503
X81.855Y-72.107
X81.93Y-59.234
X81.93Y-64.443
X81.93Y-74.637
X81.93Y-77.167
X81.93Y-79.772
X82.004Y-52.611
X82.004Y-61.838
X82.6Y-49.709
X82.602Y-94.856
X83.111Y-41.543
X83.111Y-46.623
X83.111Y-82.183
X83.111Y-84.723
X83.111Y-87.263
X83.111Y-97.423
X83.111Y-99.963
X83.111Y-102.503
X83.111Y-105.043
X83.111Y-107.583
X83.111Y-110.123
X83.111Y-112.663
X83.111Y-115.203
X83.111Y-120.283
X83.111Y-122.823
X83.272Y-35.548
X83.421Y-92.846
X84.611Y-44.7
X85.281Y-91.953
X85.651Y-36.463
X85.651Y-41.543
X85.651Y-49.163
X85.651Y-54.243
X85.651Y-59.323
X85.651Y-61.863
X85.651Y-64.403
X85.651Y-66.943
X85.651Y-69.483
X85.651Y-72.023
X85.651Y-74.563
X85.651Y-77.103
X85.651Y-79.643
X85.651Y-84.723
X85.651Y-87.263
X85.651Y-89.803
X85.651Y-99.963
X85.651Y-102.503
X85.651Y-105.043
X85.651Y-107.583
X85.651Y-110.123
X85.651Y-112.663
X85.651Y-115.203
X85.651Y-120.283
X85.651Y-122.823
X87.364Y-56.904
X88.191Y-36.463
X88.191Y-39.003
X88.191Y-41.543
X88.191Y-46.623
X88.191Y-51.703
X88.191Y-59.323
X88.191Y-61.863
X88.191Y-64.403
X88.191Y-66.943
X88.191Y-69.483
X88.191Y-72.023
X88.191Y-74.563
X88.191Y-77.103
X88.191Y-79.643
X88.191Y-82.183
X88.191Y-87.263
X88.191Y-89.803
X88.191Y-92.343
X88.191Y-97.423
X88.191Y-99.963
X88.191Y-102.503
X88.191Y-105.043
X88.191Y-107.583
X88.191Y-110.123
X88.191Y-112.663
X88.191Y-115.203
X88.191Y-120.283
X88.191Y-122.823
X88.332Y-54.746
X89.969Y-54.077
X90.731Y-36.463
X90.731Y-39.003
X90.731Y-41.543
X90.731Y-46.623
X90.731Y-49.163
X90.731Y-61.863
X90.731Y-64.403
X90.731Y-66.943
X90.731Y-69.483
X90.731Y-74.563
X90.731Y-79.643
X90.731Y-82.183
X90.731Y-84.723
X90.731Y-89.803
X90.731Y-92.343
X90.731Y-97.423
X90.731Y-99.963
X90.731Y-102.503
X90.731Y-105.043
X90.731Y-107.583
X90.731Y-110.123
X90.731Y-112.663
X90.731Y-115.203
X90.731Y-120.283
X90.731Y-122.823
X92.127Y-75.806
X92.797Y-78.559
X92.946Y-59.36
X92.946Y-73.796
X93.271Y-36.463
X93.271Y-39.003
X93.271Y-41.543
X93.271Y-46.623
X93.271Y-49.163
X93.271Y-51.703
X93.271Y-87.263
X93.271Y-92.343
X93.271Y-94.883
X93.271Y-97.423
X93.271Y-99.963
X93.271Y-102.503
X93.271Y-105.043
X93.271Y-107.583
X93.271Y-110.123
X93.271Y-112.663
X93.271Y-120.283
X93.271Y-122.823
X95.252Y-116.584
X95.401Y-111.896
X95.811Y-36.463
X95.811Y-41.543
X95.811Y-46.623
X95.811Y-49.163
X95.811Y-51.703
X95.811Y-54.243
X95.811Y-59.323
X95.811Y-61.863
X95.811Y-64.403
X95.811Y-66.943
X95.811Y-69.483
X95.811Y-72.023
X95.811Y-79.643
X95.811Y-82.183
X95.811Y-84.723
X95.811Y-89.803
X95.811Y-120.283
X95.811Y-122.823
X97.113Y-111.152
X97.336Y-117.329
X97.857Y-40.384
X98.08Y-35.399
X98.351Y-44.083
X98.351Y-46.623
X98.351Y-49.163
X98.351Y-51.703
X98.351Y-54.243
X98.351Y-56.783
X98.351Y-59.323
X98.351Y-61.863
X98.351Y-64.403
X98.351Y-66.943
X98.351Y-69.483
X98.351Y-72.023
X98.351Y-74.563
X98.351Y-77.103
X98.351Y-79.643
X98.351Y-82.183
X98.351Y-84.723
X98.351Y-87.263
X98.351Y-92.343
X98.351Y-97.423
X98.351Y-99.963
X98.351Y-102.503
X98.351Y-105.043
X98.351Y-107.583
X98.351Y-110.123
X98.351Y-120.283
X98.351Y-122.823
X100.891Y-41.543
X100.891Y-44.083
X100.891Y-46.623
X100.891Y-49.163
X100.891Y-51.703
X100.891Y-54.243
X100.891Y-56.783
X100.891Y-59.323
X100.891Y-61.863
X100.891Y-64.403
X100.891Y-66.943
X100.891Y-69.483
X100.891Y-72.023
X100.891Y-74.563
X100.891Y-79.643
X100.891Y-82.183
X100.891Y-84.723
X100.891Y-87.263
X100.891Y-89.803
X100.891Y-97.423
X100.891Y-99.963
X100.891Y-102.503
X100.891Y-105.043
X100.891Y-107.583
X100.891Y-110.123
X100.891Y-112.663
X100.891Y-115.203
X100.891Y-120.283
X100.891Y-122.823
X101.652Y-94.856
X102.471Y-92.846
X102.471Y-97.906
X103.398Y-82.19
X103.431Y-36.463
X103.431Y-39.003
X103.431Y-41.543
X103.431Y-44.083
X103.431Y-46.623
X103.431Y-51.703
X103.431Y-54.243
X103.431Y-59.323
X103.431Y-61.863
X103.431Y-64.403
X103.431Y-66.943
X103.431Y-69.483
X103.431Y-72.023
X103.431Y-74.563
X103.431Y-77.103
X103.431Y-79.643
X103.431Y-89.803
X103.431Y-99.963
X103.431Y-102.503
X103.431Y-105.043
X103.431Y-107.583
X103.431Y-110.123
X103.431Y-112.663
X103.431Y-120.283
X103.431Y-122.823
X104.256Y-92.028
X105.596Y-98.204
X105.928Y-82.19
X105.971Y-36.463
X105.971Y-41.543
X105.971Y-44.083
X105.971Y-49.163
X105.971Y-51.703
X105.971Y-54.243
X105.971Y-59.323
X105.971Y-61.863
X105.971Y-64.403
X105.971Y-66.943
X105.971Y-69.483
X105.971Y-72.023
X105.971Y-74.563
X105.971Y-77.103
X105.971Y-79.643
X105.971Y-120.283
X105.971Y-122.823
X106.189Y-90.19
X108.511Y-46.623
X108.511Y-49.163
X108.511Y-51.703
X108.511Y-74.563
X108.511Y-79.643
X108.511Y-82.183
X108.511Y-89.803
X108.511Y-92.343
X108.511Y-97.423
X108.511Y-99.963
X108.511Y-102.503
X108.511Y-105.043
X108.511Y-107.583
X108.511Y-110.123
X108.511Y-112.663
X108.511Y-115.203
X108.511Y-120.283
X108.511Y-122.823
X108.572Y-53.928
X109.168Y-60.179
X111.051Y-44.083
X111.051Y-46.623
X111.051Y-51.703
X111.051Y-61.863
X111.051Y-64.403
X111.051Y-66.943
X111.051Y-69.483
X111.051Y-72.023
X111.051Y-77.103
X111.051Y-79.643
X111.051Y-82.183
X111.051Y-84.723
X111.051Y-87.263
X111.051Y-89.803
X111.051Y-92.343
X111.051Y-97.423
X111.051Y-99.963
X111.051Y-102.503
X111.051Y-105.043
X111.051Y-107.583
X111.051Y-110.123
X111.051Y-112.663
X111.051Y-115.203
X111.051Y-120.283
X111.051Y-122.823
X111.103Y-54.002
X111.251Y-75.806
X111.995Y-78.708
X112.07Y-73.796
X113.035Y-49.188
X113.591Y-36.463
X113.591Y-41.543
X113.591Y-44.083
X113.591Y-54.243
X113.591Y-59.323
X113.591Y-61.863
X113.591Y-64.403
X113.591Y-66.943
X113.591Y-69.483
X113.591Y-72.023
X113.591Y-110.123
X113.591Y-112.663
X113.591Y-115.203
X113.591Y-120.283
X113.591Y-122.823
X113.856Y-79.154
X114.898Y-72.978
X115.419Y-43.435
X115.863Y-46.36
X116.131Y-36.463
X116.131Y-39.003
X116.131Y-41.543
X116.131Y-51.703
X116.131Y-54.243
X116.131Y-59.323
X116.131Y-61.863
X116.131Y-64.403
X116.131Y-66.943
X116.131Y-69.483
X116.131Y-72.023
X116.131Y-79.643
X116.131Y-82.183
X116.131Y-84.723
X116.131Y-87.263
X116.131Y-89.803
X116.131Y-92.343
X116.131Y-94.883
X116.131Y-97.423
X116.131Y-99.963
X116.131Y-102.503
X116.131Y-105.043
X116.131Y-107.583
X116.131Y-112.663
X116.131Y-120.283
X116.131Y-122.823
X117.276Y-48.22
X117.353Y-44.105
X118.321Y-113.905
X118.671Y-41.543
X118.671Y-51.703
X118.671Y-54.243
X118.671Y-56.783
X118.671Y-59.323
X118.671Y-61.863
X118.671Y-64.403
X118.671Y-66.943
X118.671Y-69.483
X118.671Y-72.023
X118.671Y-74.563
X118.671Y-79.643
X118.671Y-82.183
X118.671Y-84.723
X118.671Y-87.263
X118.671Y-89.803
X118.671Y-92.343
X118.671Y-97.423
X118.671Y-99.963
X118.671Y-102.503
X118.671Y-105.043
X118.671Y-107.583
X118.671Y-120.283
X118.671Y-122.823
X118.69Y-49.485
X118.767Y-44.031
X118.916Y-116.659
X119.139Y-111.822
X120.774Y-56.927
X120.848Y-51.792
X120.848Y-54.397
X120.848Y-59.382
X120.848Y-61.987
X120.848Y-64.517
X120.851Y-44.7
X120.923Y-49.262
X121.074Y-117.254
X121.211Y-41.543
X121.211Y-66.943
X121.211Y-69.483
X121.211Y-72.023
X121.211Y-77.103
X121.211Y-79.643
X121.211Y-82.183
X121.211Y-84.723
X121.211Y-87.263
X121.211Y-89.803
X121.211Y-92.343
X121.211Y-97.423
X121.211Y-99.963
X121.211Y-102.503
X121.211Y-105.043
X121.211Y-107.583
X121.211Y-110.123
X121.211Y-120.283
X121.211Y-122.823
X121.297Y-35.548
X122.19Y-38.375
X122.485Y-45.393
X122.932Y-52.239
X123.009Y-41.724
X123.155Y-47.699
X123.751Y-36.463
X123.751Y-59.323
X123.751Y-61.863
X123.751Y-64.403
X123.751Y-69.483
X123.751Y-72.023
X123.751Y-74.563
X123.751Y-77.103
X123.751Y-79.643
X123.751Y-82.183
X123.751Y-84.723
X123.751Y-87.263
X123.751Y-89.803
X123.751Y-99.963
X123.751Y-102.503
X123.751Y-105.043
X123.751Y-107.583
X123.751Y-110.123
X123.751Y-120.283
X123.751Y-122.823
X123.753Y-92.028
X123.827Y-111.822
X123.976Y-116.51
X124.274Y-98.279
X124.571Y-41.054
X124.646Y-114.352
X124.792Y-47.923
X125.39Y-56.532
X126.134Y-97.311
X126.291Y-36.463
X126.291Y-39.003
X126.291Y-49.163
X126.291Y-51.703
X126.291Y-54.243
X126.291Y-59.323
X126.291Y-61.863
X126.291Y-64.403
X126.291Y-66.943
X126.291Y-72.023
X126.291Y-74.563
X126.291Y-77.103
X126.291Y-79.643
X126.291Y-82.183
X126.291Y-84.723
X126.291Y-87.263
X126.291Y-89.803
X126.291Y-92.343
X126.291Y-102.503
X126.291Y-105.043
X126.291Y-107.583
X126.291Y-110.123
X126.291Y-112.663
X126.291Y-120.283
X126.291Y-122.823
X127.322Y-30.807
X127.62Y-45.318
X128.069Y-115.84
X128.147Y-31.528
X128.29Y-41.821
X128.662Y-37.579
X128.831Y-46.623
X128.831Y-49.163
X128.831Y-51.703
X128.831Y-61.863
X128.831Y-64.403
X128.831Y-66.943
X128.831Y-69.483
X128.831Y-74.563
X128.831Y-79.643
X128.831Y-82.183
X128.831Y-84.723
X128.831Y-87.263
X128.831Y-89.803
X128.831Y-92.343
X128.831Y-97.423
X128.831Y-120.283
X128.831Y-122.823
X128.887Y-60.179
X130.262Y-30.128
X130.673Y-54.598
X130.971Y-73.871
X131.006Y-29.428
X131.371Y-59.323
X131.371Y-64.403
X131.371Y-66.943
X131.371Y-69.483
X131.371Y-72.023
X131.371Y-79.643
X131.371Y-82.183
X131.371Y-84.723
X131.371Y-87.263
X131.371Y-89.803
X131.371Y-92.343
X131.371Y-94.883
X131.371Y-97.423
X131.371Y-99.963
X131.371Y-102.503
X131.371Y-105.043
X131.371Y-107.583
X131.371Y-110.123
X131.371Y-112.663
X131.371Y-115.203
X131.371Y-120.283
X131.371Y-122.823
X131.862Y-34.975
X131.936Y-39.216
X133.499Y-42.602
X133.911Y-49.163
X133.911Y-51.703
X133.911Y-54.243
X133.911Y-59.323
X133.911Y-61.863
X133.911Y-66.943
X133.911Y-69.483
X133.911Y-72.023
X133.911Y-89.803
X133.911Y-92.343
X133.911Y-94.883
X133.911Y-97.423
X133.911Y-99.963
X133.911Y-102.503
X133.911Y-105.043
X133.911Y-107.583
X133.911Y-110.123
X133.911Y-112.663
X133.911Y-115.203
X133.911Y-120.283
X133.911Y-122.823
X134.057Y-35.198
X134.206Y-39.737
X134.245Y-79.229
X134.689Y-46.881
X135.136Y-43.755
X135.136Y-82.302
X135.173Y-50.118
X135.285Y-84.832
X135.359Y-87.362
X136.031Y-78.112
X136.066Y-35.012
X136.451Y-92.343
X136.451Y-97.423
X136.451Y-99.963
X136.451Y-102.503
X136.451Y-105.043
X136.451Y-107.583
X136.451Y-110.123
X136.451Y-112.663
X136.451Y-115.203
X136.451Y-120.283
X136.451Y-122.823
X136.624Y-46.211
X136.773Y-48.964
X137.666Y-89.967
X138.373Y-34.975
X138.708Y-45.467
X138.991Y-41.543
X138.991Y-51.703
X138.991Y-54.243
X138.991Y-56.783
X138.991Y-59.323
X138.991Y-61.863
X138.991Y-64.403
X138.991Y-66.943
X138.991Y-69.483
X138.991Y-72.023
X138.991Y-74.563
X138.991Y-79.643
X138.991Y-82.183
X138.991Y-84.723
X138.991Y-87.263
X138.991Y-97.423
X138.991Y-99.963
X138.991Y-102.503
X138.991Y-105.043
X138.991Y-107.583
X138.991Y-110.123
X138.991Y-112.663
X138.991Y-115.203
X138.991Y-120.283
X138.991Y-122.823
X139.229Y-48.816
X139.603Y-94.856
X140.496Y-92.772
X140.531Y-35.086
X141.531Y-36.463
X141.531Y-39.003
X141.531Y-41.543
X141.531Y-46.623
X141.531Y-54.243
X141.531Y-59.323
X141.531Y-61.863
X141.531Y-64.403
X141.531Y-66.943
X141.531Y-69.483
X141.531Y-72.023
X141.531Y-74.563
X141.531Y-77.103
X141.531Y-79.643
X141.531Y-82.183
X141.531Y-84.723
X141.531Y-87.263
X141.531Y-89.803
X141.531Y-99.963
X141.531Y-102.503
X141.531Y-110.123
X141.531Y-112.663
X141.531Y-115.203
X142.431Y-92.102
X142.503Y-52.015
X143.175Y-98.353
X144.071Y-36.463
X144.071Y-41.543
X144.071Y-46.623
X144.071Y-49.163
X144.071Y-84.723
X144.071Y-87.263
X144.071Y-89.803
X144.071Y-99.963
X144.071Y-102.503
X144.071Y-110.123
X144.071Y-112.663
X144.071Y-115.203
X145.259Y-54.672
X145.259Y-59.286
X146.077Y-94.93
X146.611Y-36.463
X146.611Y-39.003
X146.611Y-41.543
X146.611Y-44.083
X146.611Y-49.163
X146.611Y-51.703
X146.611Y-61.863
X146.611Y-64.403
X146.611Y-66.943
X146.611Y-69.483
X146.611Y-72.023
X146.611Y-74.563
X146.611Y-79.643
X146.611Y-82.183
X146.611Y-87.263
X146.611Y-89.803
X146.611Y-92.343
X146.611Y-97.423
X146.611Y-110.123
X146.611Y-112.663
X146.611Y-115.203
X146.611Y-120.283
X146.611Y-122.823
X147.342Y-53.928
X148.012Y-60.327
X149.151Y-36.463
X149.151Y-39.003
X149.151Y-41.543
X149.151Y-44.083
X149.151Y-46.623
X149.151Y-51.703
X149.151Y-61.863
X149.151Y-64.403
X149.151Y-66.943
X149.151Y-69.483
X149.151Y-72.023
X149.151Y-74.563
X149.151Y-77.103
X149.151Y-79.643
X149.151Y-82.183
X149.151Y-84.723
X149.151Y-89.803
X149.151Y-92.343
X149.151Y-97.423
X149.151Y-99.963
X149.151Y-102.503
X149.151Y-105.043
X149.151Y-107.583
X149.151Y-112.663
X149.151Y-120.283
X149.151Y-122.823
X150.765Y-56.979
X151.584Y-113.757
X151.691Y-36.463
X151.691Y-41.543
X151.691Y-44.083
X151.691Y-46.623
X151.691Y-49.163
X151.691Y-54.243
X151.691Y-59.323
X151.691Y-79.643
X151.691Y-82.183
X151.691Y-84.723
X151.691Y-87.263
X151.691Y-115.203
X151.691Y-120.283
X151.691Y-122.823
X152.328Y-111.747
X152.328Y-116.659
X152.402Y-72.829
X154.231Y-36.463
X154.231Y-39.003
X154.231Y-41.543
X154.231Y-44.083
X154.231Y-46.623
X154.231Y-49.163
X154.231Y-51.703
X154.231Y-59.323
X154.231Y-61.863
X154.231Y-64.403
X154.231Y-66.943
X154.231Y-69.483
X154.231Y-82.183
X154.231Y-84.723
X154.231Y-87.263
X154.231Y-89.803
X154.231Y-92.343
X154.231Y-94.883
X154.231Y-97.423
X154.231Y-99.963
X154.231Y-102.503
X154.231Y-105.043
X154.231Y-107.583
X154.231Y-110.123
X154.231Y-120.283
X154.231Y-122.823
X154.486Y-117.403
X154.635Y-73.722
X154.784Y-78.41
X156.771Y-41.543
X156.771Y-44.083
X156.771Y-46.623
X156.771Y-49.163
X156.771Y-51.703
X156.771Y-54.243
X156.771Y-56.783
X156.771Y-59.323
X156.771Y-61.863
X156.771Y-64.403
X156.771Y-66.943
X156.771Y-69.483
X156.771Y-72.023
X156.771Y-74.563
X156.771Y-79.643
X156.771Y-84.723
X156.771Y-87.263
X156.771Y-89.803
X156.771Y-92.343
X156.771Y-97.423
X156.771Y-99.963
X156.771Y-102.503
X156.771Y-105.043
X156.771Y-107.583
X156.771Y-110.123
X156.771Y-120.283
X156.771Y-122.823
X157.983Y-114.278
X159.311Y-41.543
X159.311Y-44.083
X159.311Y-46.623
X159.311Y-49.163
X159.311Y-51.703
X159.311Y-54.243
X159.311Y-56.783
X159.311Y-59.323
X159.311Y-61.863
X159.311Y-64.403
X159.311Y-66.943
X159.311Y-69.483
X159.311Y-72.023
X159.311Y-74.563
X159.311Y-77.103
X159.311Y-79.643
X159.311Y-82.183
X159.311Y-87.263
X159.311Y-89.803
X159.311Y-92.343
X159.311Y-97.423
X159.311Y-99.963
X159.311Y-102.503
X159.311Y-105.043
X159.311Y-107.583
X159.311Y-110.123
X159.311Y-112.663
X159.311Y-120.283
X159.311Y-122.823
X159.62Y-35.696
X160.365Y-38.226
X161.851Y-36.463
X161.851Y-44.083
X161.851Y-46.623
X161.851Y-49.163
X161.851Y-51.703
X161.851Y-54.243
X161.851Y-59.323
X161.851Y-61.863
X161.851Y-64.403
X161.851Y-66.943
X161.851Y-69.483
X161.851Y-72.023
X161.851Y-74.563
X161.851Y-77.103
X161.851Y-79.643
X161.851Y-82.183
X161.851Y-84.723
X161.851Y-87.263
X161.851Y-89.803
X161.851Y-91.879
X161.851Y-120.283
X161.851Y-122.823
X164.391Y-36.463
X164.391Y-39.003
X164.391Y-41.543
X164.391Y-44.083
X164.391Y-46.623
X164.391Y-49.163
X164.391Y-51.703
X164.391Y-59.323
X164.391Y-61.863
X164.391Y-64.403
X164.391Y-66.943
X164.391Y-69.483
X164.391Y-72.023
X164.391Y-74.563
X164.391Y-77.103
X164.391Y-79.643
X164.391Y-82.183
X164.391Y-84.723
X164.391Y-87.263
X164.391Y-89.803
X164.391Y-92.343
X164.391Y-97.423
X164.391Y-99.963
X164.391Y-102.503
X164.391Y-110.123
X164.391Y-112.663
X164.391Y-115.203
X164.391Y-120.283
X164.391Y-122.823
X164.457Y-54.672
X165.202Y-95.004
X166.931Y-36.463
X166.931Y-39.003
X166.931Y-41.543
X166.931Y-44.083
X166.931Y-46.623
X166.931Y-49.163
X166.931Y-61.863
X166.931Y-64.403
X166.931Y-66.943
X166.931Y-69.483
X166.931Y-74.563
X166.931Y-79.643
X166.931Y-82.183
X166.931Y-84.723
X166.931Y-87.263
X166.931Y-89.803
X166.931Y-92.343
X166.931Y-97.423
X166.931Y-99.963
X166.931Y-102.503
X166.931Y-110.123
X166.931Y-112.663
X166.931Y-115.203
X166.987Y-53.928
X168.178Y-75.582
X168.401Y-51.621
X168.848Y-59.509
X168.922Y-54.598
X168.922Y-78.559
X169.145Y-73.722
X169.471Y-36.463
X169.471Y-39.003
X169.471Y-41.543
X169.471Y-44.083
X169.471Y-46.623
X169.471Y-87.263
X169.471Y-89.803
X169.471Y-92.343
X169.471Y-94.883
X169.471Y-97.423
X169.471Y-99.963
X169.471Y-102.503
X169.471Y-105.043
X169.471Y-107.583
X169.471Y-110.123
X169.471Y-112.663
X169.471Y-115.203
X169.471Y-120.283
X169.471Y-122.823
X170.559Y-49.463
X172.011Y-36.463
X172.011Y-41.543
X172.011Y-44.083
X172.011Y-54.243
X172.011Y-59.323
X172.011Y-61.863
X172.011Y-64.403
X172.011Y-66.943
X172.011Y-69.483
X172.011Y-72.023
X172.011Y-79.643
X172.011Y-82.183
X172.011Y-84.723
X172.011Y-89.803
X172.011Y-92.343
X172.011Y-94.883
X172.011Y-97.423
X172.011Y-99.963
X172.011Y-102.503
X172.011Y-105.043
X172.011Y-107.583
X172.011Y-110.123
X172.011Y-112.663
X172.011Y-115.203
X172.011Y-120.283
X172.011Y-122.823
X172.941Y-47.007
X173.461Y-51.695
X173.759Y-35.101
X173.834Y-78.336
X174.551Y-41.543
X174.551Y-92.343
X174.551Y-97.423
X174.551Y-99.963
X174.551Y-102.503
X174.551Y-105.043
X174.551Y-107.583
X174.551Y-120.283
X174.551Y-122.823
X175.843Y-34.952
X175.843Y-44.403
X176.584Y-47.774
X177.091Y-41.543
X177.091Y-51.703
X177.091Y-54.243
X177.091Y-56.783
X177.091Y-59.323
X177.091Y-61.863
X177.091Y-64.403
X177.091Y-66.943
X177.091Y-69.483
X177.091Y-72.023
X177.091Y-74.563
X177.091Y-79.643
X177.091Y-82.183
X177.091Y-84.723
X177.091Y-87.263
X177.091Y-97.423
X177.091Y-99.963
X177.091Y-102.503
X177.091Y-105.043
X177.091Y-107.583
X177.091Y-120.283
X177.091Y-122.823
X177.852Y-94.856
X178.37Y-48.146
X178.67Y-92.772
X178.817Y-45.467
X179.631Y-36.463
X179.631Y-41.543
X179.631Y-49.163
X179.631Y-51.703
X179.631Y-54.243
X179.631Y-59.323
X179.631Y-61.863
X179.631Y-64.403
X179.631Y-69.483
X179.631Y-72.023
X179.631Y-74.563
X179.631Y-77.103
X179.631Y-79.643
X179.631Y-82.183
X179.631Y-84.723
X179.631Y-87.263
X179.631Y-89.803
X179.631Y-120.283
X179.631Y-122.823
X180.308Y-46.211
X180.68Y-98.279
X180.828Y-92.028
X181.126Y-40.384
X182.171Y-36.463
X182.171Y-49.163
X182.171Y-51.703
X182.171Y-59.323
X182.171Y-61.863
X182.171Y-64.403
X182.171Y-66.943
X182.171Y-72.023
X182.171Y-74.563
X182.171Y-77.103
X182.171Y-79.643
X182.171Y-82.183
X182.171Y-84.723
X182.171Y-87.263
X182.171Y-89.803
X182.171Y-99.963
X182.171Y-102.503
X182.171Y-105.043
X182.171Y-107.583
X182.171Y-110.123
X182.171Y-112.663
X182.171Y-115.203
X182.171Y-120.283
X182.171Y-122.823
X182.614Y-56.681
X183.359Y-38.822
X183.359Y-54.821
X184.1Y-30.814
X184.177Y-95.228
X184.475Y-45.519
X184.711Y-44.083
X184.711Y-49.163
X184.711Y-51.703
X184.711Y-61.863
X184.711Y-64.403
X184.711Y-66.943
X184.711Y-69.483
X184.711Y-74.563
X184.711Y-79.643
X184.711Y-82.183
X184.711Y-84.723
X184.711Y-87.263
X184.711Y-89.803
X184.711Y-92.343
X184.711Y-97.423
X184.711Y-99.963
X184.711Y-102.503
X184.711Y-105.043
X184.711Y-107.583
X184.711Y-110.123
X184.711Y-112.663
X184.711Y-115.203
X184.711Y-120.283
X184.711Y-122.823
X185.073Y-31.514
X185.144Y-41.575
X185.665Y-46.784
X186.112Y-60.104
X187.055Y-30.114
X187.251Y-51.703
X187.251Y-61.863
X187.251Y-64.403
X187.251Y-66.943
X187.251Y-69.483
X187.251Y-72.023
X187.251Y-77.103
X187.251Y-79.643
X187.251Y-82.183
X187.251Y-84.723
X187.251Y-87.263
X187.251Y-89.803
X187.251Y-92.343
X187.251Y-97.423
X187.251Y-99.963
X187.251Y-102.503
X187.251Y-105.043
X187.251Y-107.583
X187.251Y-110.123
X187.251Y-112.663
X187.251Y-115.203
X187.251Y-120.283
X187.251Y-122.823
X187.302Y-53.928
X188.044Y-29.414
X188.121Y-73.945
X188.642Y-38.971
X189.46Y-79.229
X189.791Y-36.463
X189.791Y-49.163
X189.791Y-51.703
X189.791Y-54.243
X189.791Y-59.323
X189.791Y-64.403
X189.791Y-66.943
X189.791Y-69.483
X189.791Y-72.023
X189.791Y-89.803
X189.791Y-92.343
X189.791Y-94.883
X189.791Y-97.423
X189.791Y-99.963
X189.791Y-102.503
X189.791Y-110.123
X189.791Y-112.663
X189.791Y-115.203
X190.056Y-43.063
X190.649Y-40.928
X191.098Y-46.635
X192.214Y-43.733
X192.331Y-36.463
X192.331Y-51.703
X192.331Y-54.243
X192.331Y-59.323
X192.331Y-61.863
X192.331Y-66.943
X192.331Y-69.483
X192.331Y-72.023
X192.331Y-79.643
X192.331Y-82.183
X192.331Y-84.723
X192.331Y-92.343
X192.331Y-94.883
X192.331Y-97.423
X192.331Y-99.963
X192.331Y-102.503
X192.331Y-110.123
X192.331Y-112.663
X192.331Y-115.203
X192.331Y-122.823
X192.809Y-40.384
X193.628Y-46.114
X193.628Y-49.165
X194.871Y-41.543
X194.871Y-54.243
X194.871Y-56.783
X194.871Y-59.323
X194.871Y-61.863
X194.871Y-64.403
X194.871Y-66.943
X194.871Y-69.483
X194.871Y-72.023
X194.871Y-74.563
X194.871Y-79.643
X194.871Y-82.183
X194.871Y-84.723
X194.871Y-87.263
X194.871Y-97.423
X194.871Y-99.963
X194.871Y-102.503
X194.871Y-105.043
X194.871Y-107.583
X194.871Y-110.123
X194.871Y-112.663
X194.871Y-115.203
X194.871Y-120.283
X194.871Y-122.823
X195.637Y-34.655
X195.709Y-45.467
X196.455Y-51.844
X196.753Y-49.24
X197.411Y-41.543
X197.411Y-46.623
X197.411Y-97.423
X197.411Y-99.963
X197.411Y-102.503
X197.411Y-105.043
X197.411Y-107.583
X197.411Y-110.123
X197.411Y-112.663
X197.411Y-120.283
X197.411Y-122.823
X197.72Y-34.803
X197.869Y-92.846
X198.985Y-54.672
X199.209Y-114.054
X199.432Y-51.844
X199.581Y-92.028
X199.655Y-98.279
X199.804Y-117.329
X199.951Y-36.463
X199.951Y-41.543
X199.951Y-46.623
X199.951Y-49.163
X199.951Y-59.323
X199.951Y-61.863
X199.951Y-64.403
X199.951Y-66.943
X199.951Y-69.483
X199.951Y-72.023
X199.951Y-74.563
X199.951Y-77.103
X199.951Y-79.643
X199.951Y-82.183
X199.951Y-84.723
X199.951Y-87.263
X199.951Y-89.803
X199.951Y-99.963
X199.951Y-102.503
X199.951Y-105.043
X199.951Y-107.583
X199.951Y-110.123
X199.951Y-120.283
X199.951Y-122.823
X200.176Y-111.822
X201.441Y-92.028
X201.59Y-98.204
X201.59Y-111.078
X202.111Y-117.254
X202.334Y-54.746
X202.491Y-36.463
X202.491Y-39.003
X202.491Y-41.543
X202.491Y-44.083
X202.491Y-49.163
X202.491Y-51.703
X202.491Y-120.283
X202.491Y-122.823
X202.557Y-59.658
X203.376Y-111.078
X204.492Y-60.179
X205.013Y-53.853
X205.013Y-116.436
X205.031Y-36.463
X205.031Y-39.003
X205.031Y-41.543
X205.031Y-44.083
X205.031Y-46.623
X205.031Y-51.703
X205.031Y-61.863
X205.031Y-64.403
X205.031Y-66.943
X205.031Y-69.483
X205.031Y-74.563
X205.031Y-79.643
X205.031Y-82.183
X205.031Y-84.723
X205.031Y-87.263
X205.031Y-89.803
X205.031Y-92.343
X205.031Y-97.423
X205.031Y-99.963
X205.031Y-102.503
X205.031Y-105.043
X205.031Y-107.583
X205.031Y-110.123
X205.031Y-120.283
X205.031Y-122.823
X205.534Y-112.045
X206.501Y-75.88
X207.022Y-59.36
X207.245Y-73.722
X207.245Y-78.41
X207.571Y-36.463
X207.571Y-39.003
X207.571Y-41.543
X207.571Y-44.083
X207.571Y-46.623
X207.571Y-49.163
X207.571Y-87.263
X207.571Y-89.803
X207.571Y-92.343
X207.571Y-94.883
X207.571Y-97.423
X207.571Y-99.963
X207.571Y-102.503
X207.571Y-105.043
X207.571Y-107.583
X207.571Y-110.123
X207.571Y-112.663
X207.571Y-120.283
X207.571Y-122.823
X210.111Y-36.463
X210.111Y-41.543
X210.111Y-44.083
X210.111Y-46.623
X210.111Y-49.163
X210.111Y-51.703
X210.111Y-54.243
X210.111Y-59.323
X210.111Y-61.863
X210.111Y-64.403
X210.111Y-66.943
X210.111Y-69.483
X210.111Y-72.023
X210.111Y-79.643
X210.111Y-82.183
X210.111Y-84.723
X210.111Y-89.803
X210.111Y-92.343
X210.111Y-94.883
X210.111Y-97.423
X210.111Y-99.963
X210.111Y-102.503
X210.111Y-105.043
X210.111Y-107.583
X210.111Y-110.123
X210.111Y-112.663
X210.111Y-115.203
X210.111Y-120.283
X210.111Y-122.823
X211.859Y-34.803
X212.651Y-41.543
X212.651Y-44.083
X212.651Y-51.703
X212.651Y-54.243
X212.651Y-56.783
X212.651Y-59.323
X212.651Y-61.863
X212.651Y-64.403
X212.651Y-66.943
X212.651Y-69.483
X212.651Y-72.023
X212.651Y-74.563
X212.651Y-77.103
X212.651Y-79.643
X212.651Y-82.183
X212.651Y-84.723
X212.651Y-87.263
X212.651Y-92.343
X212.651Y-97.423
X212.651Y-99.963
X212.651Y-102.503
X212.651Y-110.123
X212.651Y-112.663
X212.651Y-115.203
X213.943Y-34.655
X215.191Y-41.543
X215.191Y-44.083
X215.191Y-51.703
X215.191Y-54.243
X215.191Y-56.783
X215.191Y-59.323
X215.191Y-61.863
X215.191Y-64.403
X215.191Y-66.943
X215.191Y-69.483
X215.191Y-72.023
X215.191Y-74.563
X215.191Y-79.643
X215.191Y-82.183
X215.191Y-84.723
X215.191Y-87.263
X215.191Y-89.803
X215.191Y-97.423
X215.191Y-99.963
X215.191Y-102.503
X215.191Y-110.123
X215.191Y-112.663
X215.191Y-115.203
X215.654Y-94.707
X216.77Y-92.846
X217.731Y-36.463
X217.731Y-41.543
X217.731Y-44.083
X217.731Y-46.623
X217.731Y-49.163
X217.731Y-54.243
X217.731Y-59.323
X217.731Y-61.863
X217.731Y-64.403
X217.731Y-66.943
X217.731Y-69.483
X217.731Y-72.023
X217.731Y-74.563
X217.731Y-77.103
X217.731Y-79.643
X217.731Y-82.183
X217.731Y-84.723
X217.731Y-87.263
X217.731Y-89.803
X217.731Y-120.283
X217.731Y-122.823
X218.854Y-92.102
X218.854Y-98.353
X220.271Y-36.463
X220.271Y-44.083
X220.271Y-46.623
X220.271Y-51.703
X220.271Y-54.243
X220.271Y-59.323
X220.271Y-61.863
X220.271Y-64.403
X220.271Y-66.943
X220.271Y-69.483
X220.271Y-72.023
X220.271Y-74.563
X220.271Y-77.103
X220.271Y-79.643
X220.271Y-82.183
X220.271Y-84.723
X220.271Y-87.263
X220.271Y-89.803
X220.271Y-99.963
X220.271Y-102.503
X220.271Y-105.043
X220.271Y-107.583
X220.271Y-110.123
X220.271Y-112.663
X220.271Y-115.203
X220.271Y-120.283
X220.271Y-122.823
X220.64Y-57.202
X222.426Y-95.228
X222.649Y-53.779
X222.811Y-36.463
X222.811Y-39.003
X222.811Y-41.543
X222.811Y-44.083
X222.811Y-49.163
X222.811Y-51.703
X222.811Y-74.563
X222.811Y-79.643
X222.811Y-82.183
X222.811Y-84.723
X222.811Y-87.263
X222.811Y-89.803
X222.811Y-92.343
X222.811Y-97.423
X222.811Y-99.963
X222.811Y-102.503
X222.811Y-105.043
X222.811Y-107.583
X222.811Y-110.123
X222.811Y-112.663
X222.811Y-115.203
X222.811Y-120.283
X222.811Y-122.823
X224.584Y-78.41
X224.73Y-82.153
X224.73Y-84.653
X224.73Y-87.193
X224.73Y-89.733
X224.73Y-92.273
X224.954Y-97.562
X224.954Y-100.102
X224.954Y-102.642
X224.954Y-105.182
X224.954Y-107.722
X224.954Y-110.262
X224.954Y-112.802
X224.954Y-115.342
X225.03Y-53.928
X225.254Y-76.103
X225.351Y-36.463
X225.351Y-39.003
X225.351Y-41.543
X225.351Y-46.623
X225.351Y-51.703
X225.351Y-61.863
X225.351Y-64.403
X225.351Y-66.943
X225.351Y-69.483
X225.351Y-72.023
X225.351Y-120.283
X225.351Y-122.823
X225.849Y-59.732
X226.221Y-73.648
X227.04Y-48.868
X227.891Y-36.463
X227.891Y-41.543
X227.891Y-44.083
X227.891Y-51.703
X227.891Y-54.243
X227.891Y-59.323
X227.891Y-61.863
X227.891Y-64.403
X227.891Y-66.943
X227.891Y-69.483
X227.891Y-72.023
X227.891Y-79.643
X227.891Y-82.183
X227.891Y-84.723
X227.891Y-87.263
X227.891Y-89.803
X227.891Y-92.343
X227.891Y-94.883
X227.891Y-97.423
X227.891Y-99.963
X227.891Y-102.503
X227.891Y-105.043
X227.891Y-107.583
X227.891Y-110.123
X227.891Y-112.663
X227.891Y-115.203
X227.891Y-120.283
X227.891Y-122.823
X229.049Y-46.71
X230.016Y-39.119
X230.431Y-36.463
X230.431Y-41.543
X230.431Y-49.163
X230.431Y-51.703
X230.431Y-54.243
X230.431Y-59.323
X230.431Y-61.863
X230.431Y-64.403
X230.431Y-66.943
X230.431Y-69.483
X230.431Y-72.023
X230.431Y-79.643
X230.431Y-82.183
X230.431Y-84.723
X230.431Y-87.263
X230.431Y-89.803
X230.431Y-92.343
X230.431Y-94.883
X230.431Y-97.423
X230.431Y-99.963
X230.431Y-102.503
X230.431Y-105.043
X230.431Y-107.583
X230.431Y-110.123
X230.431Y-112.663
X230.431Y-115.203
X230.431Y-120.283
X230.431Y-122.823
X230.983Y-34.58
X231.653Y-44.7
X232.971Y-41.543
X232.971Y-46.623
X232.971Y-51.703
X232.971Y-54.243
X232.971Y-56.783
X232.971Y-59.323
X232.971Y-61.863
X232.971Y-64.403
X232.971Y-66.943
X232.971Y-69.483
X232.971Y-72.023
X232.971Y-74.563
X232.971Y-79.643
X232.971Y-82.183
X232.971Y-84.723
X232.971Y-87.263
X232.971Y-89.803
X232.971Y-92.343
X232.971Y-97.423
X232.971Y-99.963
X232.971Y-102.503
X232.971Y-107.583
X232.971Y-110.123
X232.971Y-112.663
X232.971Y-115.203
X232.971Y-120.283
X232.971Y-122.823
X233.141Y-34.58
X234.183Y-49.165
X234.925Y-45.393
X235.511Y-41.543
X235.511Y-97.423
X235.511Y-99.963
X235.511Y-102.503
X235.511Y-105.043
X235.511Y-110.123
X235.511Y-112.663
X235.511Y-120.283
X235.511Y-122.823
X235.672Y-92.772
X235.969Y-35.696
X236.565Y-46.04
X236.86Y-51.643
X237.009Y-53.95
X237.085Y-49.091
X237.381Y-47.774
X237.755Y-92.102
X237.978Y-116.733
X238.051Y-36.463
X238.051Y-59.323
X238.051Y-61.863
X238.051Y-64.403
X238.051Y-66.943
X238.051Y-69.483
X238.051Y-72.023
X238.051Y-74.563
X238.051Y-77.103
X238.051Y-79.643
X238.051Y-82.183
X238.051Y-84.723
X238.051Y-87.263
X238.051Y-89.803
X238.051Y-102.503
X238.051Y-105.043
X238.051Y-107.583
X238.051Y-120.283
X238.051Y-122.823
X238.127Y-111.822
X238.202Y-40.236
X239.243Y-47.975
X239.764Y-56.681
X240.136Y-111.078
X240.136Y-117.403
X240.591Y-36.463
X240.591Y-39.003
X240.591Y-49.163
X240.591Y-51.703
X240.591Y-54.243
X240.591Y-61.863
X240.591Y-64.403
X240.591Y-66.943
X240.591Y-69.483
X240.591Y-72.023
X240.591Y-74.563
X240.591Y-77.103
X240.591Y-79.643
X240.591Y-82.183
X240.591Y-84.723
X240.591Y-87.263
X240.591Y-89.803
X240.591Y-92.343
X240.591Y-97.423
X240.591Y-105.043
X240.591Y-107.583
X240.591Y-110.123
X240.591Y-120.283
X240.591Y-122.823
X241.243Y-30.814
X241.327Y-95.079
X241.625Y-45.221
X242.075Y-31.514
X242.22Y-41.426
X242.518Y-111.45
X242.666Y-116.733
X242.85Y-46.509
X243.131Y-49.163
X243.131Y-51.703
X243.131Y-74.563
X243.131Y-79.643
X243.131Y-82.183
X243.131Y-84.723
X243.131Y-87.263
X243.131Y-89.803
X243.131Y-92.343
X243.131Y-97.423
X243.131Y-99.963
X243.131Y-120.283
X243.131Y-122.823
X244.214Y-30.114
X244.601Y-54.077
X245.194Y-29.416
X245.345Y-78.559
X245.641Y-38.881
X245.671Y-33.923
X245.671Y-59.323
X245.671Y-61.863
X245.671Y-64.403
X245.671Y-66.943
X245.671Y-69.483
X245.671Y-72.023
X245.671Y-87.263
X245.671Y-89.803
X245.671Y-92.343
X245.671Y-94.883
X245.671Y-97.423
X245.671Y-99.963
X245.671Y-102.503
X245.671Y-105.043
X245.671Y-107.583
X245.671Y-110.123
X245.671Y-112.663
X245.671Y-120.283
X245.671Y-122.823
X246.906Y-47.923
X246.98Y-55.104
X247.28Y-43.063
X248.096Y-40.035
X248.096Y-46.806
X248.211Y-33.923
X248.211Y-36.463
X248.211Y-49.163
X248.211Y-51.703
X248.211Y-54.243
X248.211Y-59.323
X248.211Y-61.863
X248.211Y-64.403
X248.211Y-66.943
X248.211Y-69.483
X248.211Y-72.023
X248.211Y-79.643
X248.211Y-82.183
X248.211Y-84.723
X248.211Y-89.803
X248.211Y-92.343
X248.211Y-94.883
X248.211Y-97.423
X248.211Y-99.963
X248.211Y-102.503
X248.211Y-105.043
X248.211Y-107.583
X248.211Y-110.123
X248.211Y-112.663
X248.211Y-115.203
X248.211Y-120.283
X248.211Y-122.823
X249.364Y-43.733
X249.736Y-45.37
X250.031Y-35.458
X250.105Y-48.816
X250.257Y-40.459
X250.751Y-33.923
X250.751Y-51.703
X250.751Y-54.243
X250.751Y-56.783
X250.751Y-59.323
X250.751Y-61.863
X250.751Y-64.403
X250.751Y-66.943
X250.751Y-69.483
X250.751Y-72.023
X250.751Y-74.563
X250.751Y-77.103
X250.751Y-79.643
X250.751Y-82.183
X250.751Y-84.723
X250.751Y-87.263
X250.751Y-92.343
X250.751Y-97.423
X250.751Y-99.963
X250.751Y-102.503
X250.751Y-105.043
X250.751Y-107.583
X250.751Y-110.123
X250.751Y-112.663
X250.751Y-115.203
X250.751Y-120.283
X250.751Y-122.823
X251.184Y-42.676
X251.743Y-47.104
X252.787Y-33.91
X253.291Y-41.543
X253.291Y-44.083
X253.291Y-54.243
X253.291Y-56.783
X253.291Y-59.323
X253.291Y-61.863
X253.291Y-64.403
X253.291Y-66.943
X253.291Y-69.483
X253.291Y-72.023
X253.291Y-74.563
X253.291Y-79.643
X253.291Y-82.183
X253.291Y-84.723
X253.291Y-87.263
X253.291Y-89.803
X253.291Y-97.423
X253.291Y-99.963
X253.291Y-102.503
X253.291Y-105.043
X253.291Y-107.583
X253.291Y-110.123
X253.291Y-112.663
X253.291Y-115.203
X253.291Y-120.283
X253.291Y-122.823
X253.977Y-95.228
X254.198Y-49.634
X254.87Y-92.846
X255.54Y-98.13
X255.831Y-33.923
X255.831Y-36.463
X255.831Y-39.003
X255.831Y-41.543
X255.831Y-44.083
X255.831Y-46.623
X255.831Y-54.243
X255.831Y-59.323
X255.831Y-61.863
X255.831Y-64.403
X255.831Y-66.943
X255.831Y-69.483
X255.831Y-72.023
X255.831Y-74.563
X255.831Y-77.103
X255.831Y-79.643
X255.831Y-82.183
X255.831Y-84.723
X255.831Y-87.263
X255.831Y-89.803
X255.831Y-99.963
X255.831Y-102.503
X255.831Y-105.043
X255.831Y-107.583
X255.831Y-110.123
X255.831Y-112.663
X255.831Y-120.283
X255.831Y-122.823
X256.579Y-52.015
X256.805Y-92.028
X258.219Y-56.16
X258.371Y-33.923
X258.371Y-36.463
X258.371Y-41.543
X258.371Y-44.083
X258.371Y-46.623
X258.371Y-49.163
X258.371Y-99.963
X258.371Y-102.503
X258.371Y-105.043
X258.371Y-107.583
X258.371Y-110.123
X258.371Y-112.663
X258.371Y-115.203
X258.371Y-120.283
X258.371Y-122.823
X258.74Y-92.177
X258.963Y-97.981
X259.41Y-54.746
X259.484Y-117.254
X259.928Y-72.33
X260.3Y-64.74
X260.3Y-67.121
X260.3Y-69.577
X260.911Y-33.923
X260.911Y-36.463
X260.911Y-39.003
X260.911Y-41.543
X260.911Y-44.083
X260.911Y-46.623
X260.911Y-49.163
X260.911Y-51.703
X260.911Y-74.563
X260.911Y-79.643
X260.911Y-82.183
X260.911Y-84.723
X260.911Y-87.263
X260.911Y-89.803
X260.911Y-92.343
X260.911Y-97.423
X260.911Y-99.963
X260.911Y-102.503
X260.911Y-105.043
X260.911Y-107.583
X260.911Y-110.123
X260.911Y-120.283
X260.911Y-122.823
X261.419Y-54.002
X261.642Y-117.329
X261.716Y-60.327
X261.788Y-62.061
X262.656Y-64.882
X262.942Y-67.084
X263.451Y-33.923
X263.451Y-36.463
X263.451Y-39.003
X263.451Y-41.543
X263.451Y-44.083
X263.451Y-46.623
X263.451Y-49.163
X263.451Y-51.703
X263.451Y-61.863
X263.451Y-69.483
X263.451Y-72.023
X263.451Y-77.103
X263.451Y-79.643
X263.451Y-82.183
X263.451Y-84.723
X263.451Y-87.263
X263.451Y-89.803
X263.451Y-92.343
X263.451Y-97.423
X263.451Y-99.963
X263.451Y-102.503
X263.451Y-107.583
X263.451Y-110.123
X263.451Y-120.283
X263.451Y-122.823
X264.098Y-54.225
X264.765Y-59.531
X265.065Y-57.053
X265.288Y-115.989
X265.732Y-63.624
X265.732Y-67.159
X265.807Y-69.54
X265.809Y-72.978
X265.991Y-33.923
X265.991Y-36.463
X265.991Y-41.543
X265.991Y-44.083
X265.991Y-46.623
X265.991Y-49.163
X265.991Y-51.703
X265.991Y-54.243
X265.991Y-89.803
X265.991Y-92.343
X265.991Y-94.883
X265.991Y-97.423
X265.991Y-99.963
X265.991Y-107.583
X265.991Y-110.123
X265.991Y-112.663
X265.991Y-120.283
X265.991Y-122.823
X266.104Y-61.317
X266.256Y-79.303
X267.444Y-59.531
X268.531Y-33.923
X268.531Y-36.463
X268.531Y-39.003
X268.531Y-41.543
X268.531Y-44.083
X268.531Y-46.623
X268.531Y-49.163
X268.531Y-51.703
X268.531Y-54.243
X268.531Y-61.863
X268.531Y-64.403
X268.531Y-66.943
X268.531Y-69.483
X268.531Y-72.023
X268.531Y-79.643
X268.531Y-82.183
X268.531Y-84.723
X268.531Y-87.263
X268.531Y-92.343
X268.531Y-94.883
X268.531Y-97.423
X268.531Y-99.963
X268.531Y-107.583
X268.531Y-110.123
X268.531Y-112.663
X268.531Y-115.203
X268.531Y-120.283
X268.531Y-122.823
X270.051Y-76.103
X271.071Y-33.923
X271.071Y-41.543
X271.071Y-44.083
X271.071Y-46.623
X271.071Y-49.163
X271.071Y-51.703
X271.071Y-54.243
X271.071Y-59.323
X271.071Y-61.863
X271.071Y-64.403
X271.071Y-66.943
X271.071Y-69.483
X271.071Y-72.023
X271.071Y-74.563
X271.071Y-79.643
X271.071Y-82.183
X271.071Y-84.723
X271.071Y-87.263
X271.071Y-89.803
X271.071Y-97.423
X271.071Y-99.963
X271.071Y-102.503
X271.071Y-105.043
X271.071Y-107.583
X271.071Y-110.123
X271.071Y-112.663
X271.071Y-115.203
X271.071Y-120.283
X271.071Y-122.823
X273.102Y-94.93
X273.611Y-33.923
X273.611Y-41.543
X273.611Y-44.083
X273.611Y-46.623
X273.611Y-49.163
X273.611Y-51.703
X273.611Y-56.783
X273.611Y-59.323
X273.611Y-61.863
X273.611Y-64.403
X273.611Y-66.943
X273.611Y-69.483
X273.611Y-72.023
X273.611Y-74.563
X273.611Y-77.103
X273.611Y-79.643
X273.611Y-82.183
X273.611Y-84.723
X273.611Y-87.263
X273.611Y-89.803
X273.611Y-97.423
X273.611Y-99.963
X273.611Y-102.503
X273.611Y-105.043
X273.611Y-107.583
X273.611Y-110.123
X273.611Y-112.663
X273.611Y-115.203
X273.611Y-120.283
X273.611Y-122.823
X273.846Y-92.772
X274.664Y-38.45
X275.855Y-98.204
X276.151Y-33.923
X276.151Y-36.463
X276.151Y-44.083
X276.151Y-46.623
X276.151Y-49.163
X276.151Y-54.243
X276.151Y-59.323
X276.151Y-61.863
X276.151Y-64.403
X276.151Y-66.943
X276.151Y-69.483
X276.151Y-72.023
X276.151Y-74.563
X276.151Y-77.103
X276.151Y-79.643
X276.151Y-82.183
X276.151Y-84.723
X276.151Y-87.263
X276.151Y-89.803
X276.151Y-99.963
X276.151Y-102.503
X276.151Y-105.043
X276.151Y-107.583
X276.151Y-110.123
X276.151Y-112.663
X276.151Y-115.203
X276.151Y-120.283
X276.151Y-122.823
X276.674Y-91.879
X278.691Y-33.923
X278.691Y-36.463
X278.691Y-39.003
X278.691Y-41.543
X278.691Y-44.083
X278.691Y-46.623
X278.691Y-51.703
X278.691Y-59.323
X278.691Y-61.863
X278.691Y-64.403
X278.691Y-66.943
X278.691Y-69.483
X278.691Y-72.023
X278.691Y-74.563
X278.691Y-77.103
X278.691Y-79.643
X278.691Y-82.183
X278.691Y-84.723
X278.691Y-87.263
X278.691Y-89.803
X278.691Y-92.343
X278.691Y-97.423
X278.691Y-99.963
X278.691Y-102.503
X278.691Y-105.043
X278.691Y-107.583
X278.691Y-110.123
X278.691Y-112.663
X278.691Y-115.203
X278.691Y-120.283
X278.691Y-122.823
X279.427Y-94.883
X280.69Y-71.735
X280.838Y-60.275
X280.838Y-61.883
X280.838Y-64.423
X280.838Y-66.963
X280.838Y-69.503
X280.841Y-53.853
X281.231Y-33.923
X281.231Y-36.463
X281.231Y-39.003
X281.231Y-41.543
X281.231Y-44.083
X281.231Y-49.163
X281.231Y-74.563
X281.231Y-79.643
X281.231Y-82.183
X281.231Y-84.723
X281.231Y-87.263
X281.231Y-89.803
X281.231Y-92.343
X281.231Y-97.423
X281.231Y-99.963
X281.231Y-102.503
X281.231Y-105.043
X281.231Y-107.583
X281.231Y-110.123
X281.231Y-112.663
X281.231Y-115.203
X281.231Y-120.283
X281.231Y-122.823
X282.552Y-75.88
X282.922Y-61.863
X282.922Y-64.403
X282.922Y-66.943
X282.922Y-69.483
X282.922Y-71.884
X283.148Y-59.509
X283.148Y-78.857
X283.222Y-54.598
X283.445Y-73.796
X283.771Y-33.923
X283.771Y-36.463
X283.771Y-39.003
X283.771Y-41.543
X283.771Y-46.623
X283.771Y-112.663
X283.771Y-115.203
X283.771Y-120.283
X283.771Y-122.823
X284.113Y-43.532
X284.931Y-49.932
X286.311Y-33.923
X286.311Y-36.463
X286.311Y-41.543
X286.311Y-44.083
X286.311Y-54.243
X286.311Y-59.323
X286.311Y-61.863
X286.311Y-64.403
X286.311Y-66.943
X286.311Y-69.483
X286.311Y-72.023
X286.311Y-79.643
X286.311Y-82.183
X286.311Y-84.723
X286.311Y-87.263
X286.311Y-89.803
X286.311Y-92.343
X286.311Y-94.883
X286.311Y-97.423
X286.311Y-99.963
X286.311Y-102.503
X286.311Y-105.043
X286.311Y-107.583
X286.311Y-120.283
X286.311Y-122.823
X287.238Y-50.527
X287.315Y-113.682
X287.61Y-47.104
X287.91Y-117.254
X288.059Y-34.059
X288.059Y-73.573
X288.133Y-78.187
X288.208Y-111.822
X288.851Y-41.543
X288.851Y-120.283
X288.851Y-122.823
X289.694Y-50.378
X290.068Y-111.078
X290.366Y-117.403
X290.438Y-47.402
X290.587Y-44.872
X291.391Y-33.923
X291.391Y-41.543
X291.391Y-51.703
X291.391Y-54.243
X291.391Y-56.783
X291.391Y-59.323
X291.391Y-61.863
X291.391Y-64.403
X291.391Y-66.943
X291.391Y-69.483
X291.391Y-72.023
X291.391Y-74.563
X291.391Y-79.643
X291.391Y-82.183
X291.391Y-84.723
X291.391Y-87.263
X291.391Y-89.803
X291.391Y-92.343
X291.391Y-94.883
X291.391Y-97.423
X291.391Y-99.963
X291.391Y-102.503
X291.391Y-105.043
X291.391Y-107.583
X291.391Y-110.123
X291.391Y-120.283
X291.391Y-122.823
X292.224Y-47.848
X292.224Y-50.155
X292.447Y-45.467
X293.931Y-33.923
X293.931Y-36.463
X293.931Y-41.543
X293.931Y-69.483
X293.931Y-72.023
X293.931Y-74.563
X293.931Y-77.103
X293.931Y-79.643
X293.931Y-82.183
X293.931Y-84.723
X293.931Y-87.263
X293.931Y-89.803
X293.931Y-92.343
X293.931Y-94.883
X293.931Y-97.423
X293.931Y-99.963
X293.931Y-102.503
X293.931Y-105.043
X293.931Y-107.583
X293.931Y-110.123
X293.931Y-112.663
X293.931Y-115.203
X293.931Y-120.283
X293.931Y-122.823
X293.935Y-46.137
X294.456Y-49.336
X296.019Y-48.071
X296.471Y-33.923
X296.471Y-36.463
X296.471Y-49.163
X296.471Y-51.703
X296.471Y-54.243
X296.471Y-59.323
X296.471Y-61.863
X296.471Y-64.403
X296.471Y-66.943
X296.471Y-72.023
X296.471Y-74.563
X296.471Y-77.103
X296.471Y-79.643
X296.471Y-82.183
X296.471Y-84.723
X296.471Y-87.263
X296.471Y-89.803
X296.471Y-92.343
X296.471Y-94.883
X296.471Y-97.423
X296.471Y-99.963
X296.471Y-102.503
X296.471Y-105.043
X296.471Y-107.583
X296.471Y-110.123
X296.471Y-112.663
X296.471Y-120.283
X296.471Y-122.823
X296.691Y-56.532
X297.916Y-48.22
X298.028Y-30.814
X298.958Y-45.02
X299.011Y-61.863
X299.011Y-64.403
X299.011Y-66.943
X299.011Y-69.483
X299.011Y-74.563
X299.011Y-79.643
X299.011Y-82.183
X299.011Y-84.723
X299.011Y-92.343
X299.011Y-94.883
X299.011Y-97.423
X299.011Y-99.963
X299.011Y-107.583
X299.011Y-110.123
X299.011Y-112.663
X299.011Y-115.203
X299.011Y-120.283
X299.011Y-122.823
X299.173Y-31.558
X299.37Y-54.002
X299.591Y-41.523
X300.074Y-46.36
X300.074Y-51.085
X300.967Y-30.114
X301.007Y-60.104
X301.302Y-48.183
X301.551Y-51.703
X301.551Y-54.243
X301.551Y-61.863
X301.551Y-64.403
X301.551Y-69.483
X301.551Y-72.023
X301.551Y-77.103
X301.551Y-79.643
X301.551Y-82.183
X301.551Y-84.723
X301.551Y-92.343
X301.551Y-94.883
X301.551Y-97.423
X301.551Y-99.963
X301.551Y-107.583
X301.551Y-120.283
X301.551Y-122.823
X301.839Y-29.415
X302.495Y-73.945
X303.014Y-38.956
X303.274Y-34.268
X303.311Y-36.463
X303.314Y-56.904
X303.646Y-48.332
X304.091Y-31.383
X304.091Y-51.703
X304.091Y-54.243
X304.091Y-59.323
X304.091Y-61.863
X304.091Y-64.403
X304.091Y-66.943
X304.091Y-72.023
X304.091Y-79.643
X304.091Y-82.183
X304.091Y-84.723
X304.091Y-87.263
X304.091Y-89.803
X304.091Y-112.663
X304.091Y-120.283
X304.091Y-122.823
X304.651Y-41.077
X305.06Y-39.774
X305.097Y-48.295
X306.631Y-33.923
X306.631Y-36.463
X306.631Y-49.163
X306.631Y-54.243
X306.631Y-59.323
X306.631Y-61.863
X306.631Y-64.403
X306.631Y-66.943
X306.631Y-69.483
X306.631Y-92.343
X306.631Y-97.423
X306.631Y-99.963
X306.631Y-102.503
X306.631Y-105.043
X306.631Y-107.583
X306.631Y-110.123
X306.631Y-112.663
X306.631Y-115.203
X306.631Y-120.283
X306.631Y-122.823
X306.907Y-42.153
X306.96Y-117.105
X307.035Y-78.633
X307.109Y-73.499
X307.213Y-40.735
X308.893Y-44.276
X309.118Y-117.403
X309.171Y-33.923
X309.171Y-36.463
X309.171Y-39.003
X309.171Y-49.163
X309.171Y-51.703
X309.171Y-54.243
X309.171Y-56.783
X309.171Y-59.323
X309.171Y-61.863
X309.171Y-64.403
X309.171Y-66.943
X309.171Y-69.483
X309.171Y-72.023
X309.171Y-74.563
X309.171Y-79.643
X309.171Y-82.183
X309.171Y-84.723
X309.171Y-87.263
X309.171Y-89.803
X309.171Y-120.283
X309.171Y-122.823
X309.565Y-93.07
X309.713Y-111.078
X309.788Y-97.832
X310.979Y-91.953
X311.351Y-111.375
X311.499Y-116.733
X311.711Y-31.383
X311.711Y-33.923
X311.711Y-36.463
X311.711Y-39.003
X311.711Y-44.083
X311.711Y-120.283
X311.711Y-122.823
X312.02Y-98.45
X313.509Y-116.659
X314.251Y-31.383
X314.251Y-33.923
X314.251Y-36.463
X314.251Y-54.243
X314.251Y-56.783
X314.251Y-59.323
X314.251Y-61.863
X314.251Y-64.403
X314.251Y-66.943
X314.251Y-69.483
X314.251Y-72.023
X314.251Y-74.563
X314.251Y-77.103
X314.251Y-79.643
X314.251Y-82.183
X314.251Y-84.723
X314.251Y-87.263
X314.251Y-89.803
X314.251Y-92.343
X314.251Y-97.423
X314.251Y-99.963
X314.251Y-102.503
X314.251Y-105.043
X314.251Y-107.583
X314.251Y-110.123
X314.251Y-112.663
X314.251Y-120.283
X314.251Y-122.823
X315.22Y-95.079
X315.964Y-39.119
X316.632Y-43.309
X316.634Y-35.771
X316.791Y-31.383
X316.791Y-59.323
X316.791Y-61.863
X316.791Y-64.403
X316.791Y-66.943
X316.791Y-69.483
X316.791Y-72.023
X316.791Y-74.563
X316.791Y-87.263
X316.791Y-89.803
X316.791Y-92.343
X316.791Y-97.423
X316.791Y-99.963
X316.791Y-102.503
X316.791Y-105.043
X316.791Y-107.583
X316.791Y-110.123
X316.791Y-112.663
X316.791Y-115.203
X316.791Y-120.283
X316.791Y-122.823
X319.087Y-46.137
X319.331Y-31.383
X319.331Y-33.923
X319.331Y-41.543
X319.331Y-51.703
X319.331Y-59.323
X319.331Y-61.863
X319.331Y-64.403
X319.331Y-66.943
X319.331Y-69.483
X319.331Y-72.023
X319.331Y-74.563
X319.331Y-89.803
X319.331Y-92.343
X319.331Y-94.883
X319.331Y-97.423
X319.331Y-99.963
X319.331Y-102.503
X319.331Y-105.043
X319.331Y-107.583
X319.331Y-110.123
X319.331Y-112.663
X319.331Y-115.203
X319.331Y-120.283
X319.331Y-122.823
X321.871Y-31.383
X321.871Y-33.923
X321.871Y-36.463
X321.871Y-41.543
X321.871Y-44.083
X321.871Y-54.243
X321.871Y-56.783
X321.871Y-59.323
X321.871Y-61.863
X321.871Y-64.403
X321.871Y-69.483
X321.871Y-72.023
X321.871Y-74.563
X321.871Y-77.103
X321.871Y-79.643
X321.871Y-82.183
X321.871Y-89.803
X321.871Y-92.343
X321.871Y-94.883
X321.871Y-97.423
X321.871Y-99.963
X321.871Y-107.583
X321.871Y-110.123
X321.871Y-112.663
X321.871Y-115.203
X321.871Y-120.283
X321.871Y-122.823
X322.064Y-48.741
X322.436Y-38.546
X324.001Y-64.048
X324.411Y-31.383
X324.411Y-33.923
X324.411Y-36.463
X324.411Y-44.083
X324.411Y-46.623
X324.411Y-69.483
X324.411Y-72.023
X324.411Y-74.563
X324.411Y-77.103
X324.411Y-79.643
X324.411Y-82.183
X324.411Y-92.343
X324.411Y-94.883
X324.411Y-97.423
X324.411Y-99.963
X324.411Y-107.583
X324.411Y-110.123
X324.411Y-112.663
X324.411Y-120.283
X324.411Y-122.823
X326.159Y-116.51
X326.308Y-111.599
X326.951Y-31.383
X326.951Y-33.923
X326.951Y-36.463
X326.951Y-39.003
X326.951Y-41.543
X326.951Y-51.703
X326.951Y-54.243
X326.951Y-56.783
X326.951Y-59.323
X326.951Y-61.863
X326.951Y-72.023
X326.951Y-74.563
X326.951Y-77.103
X326.951Y-79.643
X326.951Y-82.183
X326.951Y-84.723
X326.951Y-120.283
X326.951Y-122.823
X326.978Y-70.001
X327.126Y-63.453
X328.168Y-111.078
X329.21Y-68.662
X329.491Y-33.923
X329.491Y-36.463
X329.491Y-39.003
X329.491Y-41.543
X329.491Y-49.163
X329.491Y-51.703
X329.491Y-54.243
X329.491Y-56.783
X329.491Y-59.323
X329.491Y-61.863
X329.491Y-64.403
X329.491Y-72.023
X329.491Y-74.563
X329.491Y-77.103
X329.491Y-79.643
X329.491Y-82.183
X329.491Y-84.723
X329.491Y-87.263
X329.491Y-89.803
X329.491Y-92.343
X329.491Y-94.883
X329.491Y-97.423
X329.491Y-99.963
X329.491Y-102.503
X329.491Y-105.043
X329.491Y-107.583
X329.491Y-110.123
X329.491Y-117.743
X329.491Y-120.283
X329.491Y-122.823
X332.031Y-33.923
X332.031Y-36.463
X332.031Y-39.003
X332.031Y-41.543
X332.031Y-49.163
X332.031Y-51.703
X332.031Y-56.783
X332.031Y-59.323
X332.031Y-61.863
X332.031Y-64.403
X332.031Y-69.483
X332.031Y-72.023
X332.031Y-74.563
X332.031Y-82.183
X332.031Y-84.723
X332.031Y-87.263
X332.031Y-89.803
X332.031Y-92.343
X332.031Y-94.883
X332.031Y-97.423
X332.031Y-99.963
X332.031Y-102.503
X332.031Y-105.043
X332.031Y-107.583
X332.031Y-110.123
X332.031Y-112.663
X332.031Y-115.203
X332.031Y-117.743
X332.031Y-120.283
X332.031Y-122.823
X334.571Y-31.383
X334.571Y-33.923
X334.571Y-36.463
X334.571Y-39.003
X334.571Y-41.543
X334.571Y-44.083
X334.571Y-46.623
X334.571Y-49.163
X334.571Y-51.703
X334.571Y-56.783
X334.571Y-59.323
X334.571Y-61.863
X334.571Y-64.403
X334.571Y-66.943
X334.571Y-69.483
X334.571Y-72.023
X334.571Y-74.563
X334.571Y-82.183
X334.571Y-84.723
X334.571Y-87.263
X334.571Y-89.803
X334.571Y-92.343
X334.571Y-94.883
X334.571Y-97.423
X334.571Y-99.963
X334.571Y-102.503
X334.571Y-105.043
X334.571Y-107.583
X334.571Y-110.123
X334.571Y-112.663
X334.571Y-117.743
X334.571Y-120.283
X334.571Y-122.823
X337.111Y-31.383
X337.111Y-33.923
X337.111Y-36.463
X337.111Y-39.003
X337.111Y-41.543
X337.111Y-44.083
X337.111Y-46.623
X337.111Y-49.163
X337.111Y-51.703
X337.111Y-54.243
X337.111Y-56.783
X337.111Y-59.323
X337.111Y-61.863
X337.111Y-64.403
X337.111Y-66.943
X337.111Y-69.483
X337.111Y-72.023
X337.111Y-74.563
X337.111Y-77.103
X337.111Y-79.643
X337.111Y-82.183
X337.111Y-84.723
X337.111Y-87.263
X337.111Y-89.803
X337.111Y-92.343
X337.111Y-94.883
X337.111Y-97.423
X337.111Y-99.963
X337.111Y-102.503
X337.111Y-105.043
X337.111Y-107.583
X337.111Y-110.123
X337.111Y-112.663
X337.111Y-115.203
X337.111Y-117.743
X337.111Y-120.283
X337.111Y-122.823
T2
X40.184Y-41.523
X44.723Y-118.467
X57.634Y-40.444
X57.871Y-33.508
X69.056Y-118.467
X71.663Y-53.506
X71.735Y-35.793
X74.328Y-48.109
X74.6Y-36.649
X77.651Y-32.448
X82.339Y-32.378
X84.348Y-118.467
X87.226Y-55.252
X96.255Y-118.467
X101.389Y-32.378
X106.598Y-118.467
X108.159Y-60.945
X117.723Y-32.378
X120.067Y-118.467
X125.574Y-60.974
X129.183Y-35.57
X129.332Y-118.467
X131.713Y-48.183
X131.973Y-36.314
X134.019Y-63.996
X135.099Y-32.37
X139.526Y-32.37
X145.926Y-60.573
X153.404Y-118.467
X156.009Y-32.37
X162.595Y-118.467
X165.309Y-60.499
X174.836Y-32.37
X179.673Y-118.467
X183.728Y-60.499
X185.961Y-35.123
X188.491Y-48.295
X188.528Y-35.83
X189.644Y-32.37
X193.179Y-66.005
X196.639Y-32.37
X201.029Y-118.467
X203.409Y-66.005
X212.936Y-32.37
X217.81Y-118.467
X222.459Y-60.722
X226.293Y-118.467
X231.986Y-32.37
X239.167Y-118.467
X242.852Y-60.61
X243.111Y-33.933
X243.594Y-118.467
X245.641Y-48.22
X246.571Y-58.713
X246.98Y-32.37
X246.98Y-35.086
X253.789Y-32.37
X254.421Y-118.467
X260.561Y-118.467
X260.598Y-60.573
X270.086Y-32.37
X274.848Y-118.467
X281.88Y-60.722
X289.136Y-32.37
X289.136Y-118.467
X298.102Y-60.424
X300.372Y-33.672
X301.414Y-118.467
X302.791Y-47.35
X308.223Y-118.467
X312.353Y-118.467
X317.157Y-34.826
X325.789Y-118.467
T3
X40.481Y-47.625
X44.053Y-110.728
X105.593Y-86.618
X109.537Y-38.993
X175.617Y-113.109
X214.312Y-48.22
X266.7Y-104.18
X315.813Y-49.709
X319.087Y-84.237
M30
