%TF.GenerationSoftware,KiCad,Pcbnew,8.0.6*%
%TF.CreationDate,2024-12-02T23:32:27+01:00*%
%TF.ProjectId,layout_board,6c61796f-7574-45f6-926f-6172642e6b69,rev?*%
%TF.SameCoordinates,Original*%
%TF.FileFunction,Soldermask,Bot*%
%TF.FilePolarity,Negative*%
%FSLAX46Y46*%
G04 Gerber Fmt 4.6, Leading zero omitted, Abs format (unit mm)*
G04 Created by KiCad (PCBNEW 8.0.6) date 2024-12-02 23:32:27*
%MOMM*%
%LPD*%
G01*
G04 APERTURE LIST*
G04 Aperture macros list*
%AMRoundRect*
0 Rectangle with rounded corners*
0 $1 Rounding radius*
0 $2 $3 $4 $5 $6 $7 $8 $9 X,Y pos of 4 corners*
0 Add a 4 corners polygon primitive as box body*
4,1,4,$2,$3,$4,$5,$6,$7,$8,$9,$2,$3,0*
0 Add four circle primitives for the rounded corners*
1,1,$1+$1,$2,$3*
1,1,$1+$1,$4,$5*
1,1,$1+$1,$6,$7*
1,1,$1+$1,$8,$9*
0 Add four rect primitives between the rounded corners*
20,1,$1+$1,$2,$3,$4,$5,0*
20,1,$1+$1,$4,$5,$6,$7,0*
20,1,$1+$1,$6,$7,$8,$9,0*
20,1,$1+$1,$8,$9,$2,$3,0*%
G04 Aperture macros list end*
%ADD10RoundRect,0.150000X-0.309359X-0.521491X0.521491X0.309359X0.309359X0.521491X-0.521491X-0.309359X0*%
%ADD11RoundRect,0.150000X-0.521491X0.309359X0.309359X-0.521491X0.521491X-0.309359X-0.309359X0.521491X0*%
%ADD12RoundRect,0.150000X0.521491X-0.309359X-0.309359X0.521491X-0.521491X0.309359X0.309359X-0.521491X0*%
%ADD13C,3.600000*%
%ADD14C,5.700000*%
%ADD15C,1.750000*%
%ADD16C,3.987800*%
%ADD17C,3.048000*%
%ADD18R,1.750000X0.450000*%
%ADD19RoundRect,0.155000X0.212500X0.155000X-0.212500X0.155000X-0.212500X-0.155000X0.212500X-0.155000X0*%
G04 APERTURE END LIST*
D10*
%TO.C,U4:14*%
X329275413Y-113637087D03*
X327277836Y-114291161D03*
X328621339Y-115634664D03*
%TD*%
D11*
%TO.C,U4:12*%
X291175413Y-114962913D03*
X290521339Y-112965336D03*
X289177836Y-114308839D03*
%TD*%
%TO.C,U3:2*%
X86387913Y-95912913D03*
X85733839Y-93915336D03*
X84390336Y-95258839D03*
%TD*%
%TO.C,U2:5*%
X153062913Y-76862913D03*
X152408839Y-74865336D03*
X151065336Y-76208839D03*
%TD*%
%TO.C,U3:4*%
X124487913Y-95912913D03*
X123833839Y-93915336D03*
X122490336Y-95258839D03*
%TD*%
%TO.C,U2:9*%
X229262913Y-76862913D03*
X228608839Y-74865336D03*
X227265336Y-76208839D03*
%TD*%
%TO.C,U0:12*%
X272125413Y-38762913D03*
X271471339Y-36765336D03*
X270127836Y-38108839D03*
%TD*%
D12*
%TO.C,U0:8*%
X194599587Y-37437087D03*
X195253661Y-39434664D03*
X196597164Y-38091161D03*
%TD*%
%TO.C,U0:2*%
X80299587Y-37437087D03*
X80953661Y-39434664D03*
X82297164Y-38091161D03*
%TD*%
D11*
%TO.C,U4:5*%
X155444163Y-114962913D03*
X154790089Y-112965336D03*
X153446586Y-114308839D03*
%TD*%
%TO.C,U2:11*%
X267362913Y-76862913D03*
X266708839Y-74865336D03*
X265365336Y-76208839D03*
%TD*%
%TO.C,U0:13*%
X291175413Y-38762913D03*
X290521339Y-36765336D03*
X289177836Y-38108839D03*
%TD*%
%TO.C,U2:8*%
X210212913Y-76862913D03*
X209558839Y-74865336D03*
X208215336Y-76208839D03*
%TD*%
%TO.C,U1:0*%
X38762913Y-57812913D03*
X38108839Y-55815336D03*
X36765336Y-57158839D03*
%TD*%
%TO.C,U0:1*%
X62575413Y-38762913D03*
X61921339Y-36765336D03*
X60577836Y-38108839D03*
%TD*%
%TO.C,U3:5*%
X143537913Y-95912913D03*
X142883839Y-93915336D03*
X141540336Y-95258839D03*
%TD*%
%TO.C,U1:12*%
X281650413Y-57812913D03*
X280996339Y-55815336D03*
X279652836Y-57158839D03*
%TD*%
%TO.C,U4:10*%
X262600413Y-114962913D03*
X261946339Y-112965336D03*
X260602836Y-114308839D03*
%TD*%
%TO.C,U2:6*%
X172112913Y-76862913D03*
X171458839Y-74865336D03*
X170115336Y-76208839D03*
%TD*%
%TO.C,U3:11*%
X257837913Y-95912913D03*
X257183839Y-93915336D03*
X255840336Y-95258839D03*
%TD*%
%TO.C,U3:6*%
X162587913Y-95912913D03*
X161933839Y-93915336D03*
X160590336Y-95258839D03*
%TD*%
D10*
%TO.C,U2:4*%
X134012913Y-75537087D03*
X132015336Y-76191161D03*
X133358839Y-77534664D03*
%TD*%
%TO.C,U1:13*%
X300700413Y-56487087D03*
X298702836Y-57141161D03*
X300046339Y-58484664D03*
%TD*%
D11*
%TO.C,U2:3*%
X114962913Y-76862913D03*
X114308839Y-74865336D03*
X112965336Y-76208839D03*
%TD*%
D10*
%TO.C,U4:1*%
X69719163Y-113637087D03*
X67721586Y-114291161D03*
X69065089Y-115634664D03*
%TD*%
D11*
%TO.C,U0:0*%
X38762913Y-38762913D03*
X38108839Y-36765336D03*
X36765336Y-38108839D03*
%TD*%
D12*
%TO.C,U0:14*%
X318424587Y-37437087D03*
X319078661Y-39434664D03*
X320422164Y-38091161D03*
%TD*%
D11*
%TO.C,U0:7*%
X176875413Y-38762913D03*
X176221339Y-36765336D03*
X174877836Y-38108839D03*
%TD*%
%TO.C,U3:9*%
X219737913Y-95912913D03*
X219083839Y-93915336D03*
X217740336Y-95258839D03*
%TD*%
%TO.C,U1:11*%
X262600413Y-57812913D03*
X261946339Y-55815336D03*
X260602836Y-57158839D03*
%TD*%
D10*
%TO.C,U1:7*%
X186400413Y-56487087D03*
X184402836Y-57141161D03*
X185746339Y-58484664D03*
%TD*%
D11*
%TO.C,U0:10*%
X234025413Y-38762913D03*
X233371339Y-36765336D03*
X232027836Y-38108839D03*
%TD*%
%TO.C,U1:9*%
X224500413Y-57812913D03*
X223846339Y-55815336D03*
X222502836Y-57158839D03*
%TD*%
D10*
%TO.C,U1:10*%
X243550413Y-56487087D03*
X241552836Y-57141161D03*
X242896339Y-58484664D03*
%TD*%
D11*
%TO.C,U2:0*%
X38762913Y-76862913D03*
X38108839Y-74865336D03*
X36765336Y-76208839D03*
%TD*%
D12*
%TO.C,U0:5*%
X137449587Y-37437087D03*
X138103661Y-39434664D03*
X139447164Y-38091161D03*
%TD*%
%TO.C,U0:3*%
X99349587Y-37437087D03*
X100003661Y-39434664D03*
X101347164Y-38091161D03*
%TD*%
D11*
%TO.C,U3:13*%
X312606663Y-95912913D03*
X311952589Y-93915336D03*
X310609086Y-95258839D03*
%TD*%
%TO.C,U1:2*%
X91150413Y-57812913D03*
X90496339Y-55815336D03*
X89152836Y-57158839D03*
%TD*%
%TO.C,U1:5*%
X148300413Y-57812913D03*
X147646339Y-55815336D03*
X146302836Y-57158839D03*
%TD*%
%TO.C,U0:4*%
X119725413Y-38762913D03*
X119071339Y-36765336D03*
X117727836Y-38108839D03*
%TD*%
D12*
%TO.C,U0:11*%
X251749587Y-37437087D03*
X252403661Y-39434664D03*
X253747164Y-38091161D03*
%TD*%
D11*
%TO.C,U1:6*%
X167350413Y-57812913D03*
X166696339Y-55815336D03*
X165352836Y-57158839D03*
%TD*%
%TO.C,U3:10*%
X238787913Y-95912913D03*
X238133839Y-93915336D03*
X236790336Y-95258839D03*
%TD*%
D10*
%TO.C,U3:1*%
X64956663Y-94587087D03*
X62959086Y-95241161D03*
X64302589Y-96584664D03*
%TD*%
%TO.C,U1:4*%
X129250413Y-56487087D03*
X127252836Y-57141161D03*
X128596339Y-58484664D03*
%TD*%
D11*
%TO.C,U3:3*%
X105437913Y-95912913D03*
X104783839Y-93915336D03*
X103440336Y-95258839D03*
%TD*%
%TO.C,U0:9*%
X214975413Y-38762913D03*
X214321339Y-36765336D03*
X212977836Y-38108839D03*
%TD*%
%TO.C,U3:12*%
X276887913Y-95912913D03*
X276233839Y-93915336D03*
X274890336Y-95258839D03*
%TD*%
%TO.C,U0:6*%
X158016038Y-38762913D03*
X157361964Y-36765336D03*
X156018461Y-38108839D03*
%TD*%
%TO.C,U2:2*%
X95912913Y-76862913D03*
X95258839Y-74865336D03*
X93915336Y-76208839D03*
%TD*%
D10*
%TO.C,U1:1*%
X67337913Y-56487087D03*
X65340336Y-57141161D03*
X66683839Y-58484664D03*
%TD*%
D11*
%TO.C,U1:3*%
X110200413Y-57812913D03*
X109546339Y-55815336D03*
X108202836Y-57158839D03*
%TD*%
%TO.C,U2:12*%
X286412913Y-76862913D03*
X285758839Y-74865336D03*
X284415336Y-76208839D03*
%TD*%
%TO.C,U4:2*%
X98294163Y-114962913D03*
X97640089Y-112965336D03*
X96296586Y-114308839D03*
%TD*%
%TO.C,U4:13*%
X310225413Y-114962913D03*
X309571339Y-112965336D03*
X308227836Y-114308839D03*
%TD*%
%TO.C,U3:7*%
X181637913Y-95912913D03*
X180983839Y-93915336D03*
X179640336Y-95258839D03*
%TD*%
%TO.C,U1:8*%
X205450413Y-57812913D03*
X204796339Y-55815336D03*
X203452836Y-57158839D03*
%TD*%
D12*
%TO.C,U2:13*%
X304137087Y-75537087D03*
X304791161Y-77534664D03*
X306134664Y-76191161D03*
%TD*%
D11*
%TO.C,U3:8*%
X200687913Y-95912913D03*
X200033839Y-93915336D03*
X198690336Y-95258839D03*
%TD*%
%TO.C,U2:10*%
X248312913Y-76862913D03*
X247658839Y-74865336D03*
X246315336Y-76208839D03*
%TD*%
%TO.C,U4:9*%
X241169163Y-114962913D03*
X240515089Y-112965336D03*
X239171586Y-114308839D03*
%TD*%
D10*
%TO.C,U2:7*%
X191162913Y-75537087D03*
X189165336Y-76191161D03*
X190508839Y-77534664D03*
%TD*%
%TO.C,U1:14*%
X326894163Y-66012087D03*
X324896586Y-66666161D03*
X326240089Y-68009664D03*
%TD*%
D12*
%TO.C,U2:1*%
X68393337Y-75537087D03*
X69047411Y-77534664D03*
X70390914Y-76191161D03*
%TD*%
D11*
%TO.C,U4:3*%
X122106663Y-114962913D03*
X121452589Y-112965336D03*
X120109086Y-114308839D03*
%TD*%
%TO.C,U4:7*%
X203069163Y-114962913D03*
X202415089Y-112965336D03*
X201071586Y-114308839D03*
%TD*%
D13*
%TO.C,REF\u002A\u002A*%
X83299194Y-106307978D03*
D14*
X83299194Y-106307978D03*
%TD*%
D13*
%TO.C,REF\u002A\u002A*%
X312940798Y-60022470D03*
D14*
X312940798Y-60022470D03*
%TD*%
D13*
%TO.C,REF\u002A\u002A*%
X204780049Y-46851192D03*
D14*
X204780049Y-46851192D03*
%TD*%
D13*
%TO.C,REF\u002A\u002A*%
X290021286Y-100838549D03*
D14*
X290021286Y-100838549D03*
%TD*%
D13*
%TO.C,REF\u002A\u002A*%
X178623528Y-106680048D03*
D14*
X178623528Y-106680048D03*
%TD*%
D13*
%TO.C,REF\u002A\u002A*%
X90480145Y-46888399D03*
D14*
X90480145Y-46888399D03*
%TD*%
D15*
%TO.C,REF\u002A\u002A*%
X204470000Y-76200000D03*
X214630000Y-76200000D03*
%TD*%
%TO.C,REF\u002A\u002A*%
X223520000Y-76200000D03*
X233680000Y-76200000D03*
%TD*%
%TO.C,REF\u002A\u002A*%
X171132500Y-38100000D03*
X181292500Y-38100000D03*
%TD*%
%TO.C,REF\u002A\u002A*%
X61595000Y-57150000D03*
X71755000Y-57150000D03*
%TD*%
%TO.C,REF\u002A\u002A*%
X180657500Y-57150000D03*
X190817500Y-57150000D03*
%TD*%
%TO.C,REF\u002A\u002A*%
X285432500Y-38100000D03*
X295592500Y-38100000D03*
%TD*%
%TO.C,REF\u002A\u002A*%
X75882500Y-38100000D03*
X86042500Y-38100000D03*
%TD*%
%TO.C,REF\u002A\u002A*%
X233045000Y-95250000D03*
X243205000Y-95250000D03*
%TD*%
%TO.C,REF\u002A\u002A*%
X123507500Y-57150000D03*
X133667500Y-57150000D03*
%TD*%
%TO.C,REF\u002A\u002A*%
X137795000Y-95250000D03*
X147955000Y-95250000D03*
%TD*%
%TO.C,REF\u002A\u002A*%
X166370000Y-76200000D03*
X176530000Y-76200000D03*
%TD*%
%TO.C,REF\u002A\u002A*%
X228282500Y-38100000D03*
X238442500Y-38100000D03*
%TD*%
%TO.C,REF\u002A\u002A*%
X314007500Y-38100000D03*
X324167500Y-38100000D03*
%TD*%
D16*
%TO.C,REF\u002A\u002A*%
X317976250Y-54768750D03*
X317976250Y-78581250D03*
D17*
X333216250Y-54768750D03*
X333216250Y-78581250D03*
%TD*%
D15*
%TO.C,REF\u002A\u002A*%
X209232500Y-38100000D03*
X219392500Y-38100000D03*
%TD*%
%TO.C,REF\u002A\u002A*%
X304482500Y-114300000D03*
X314642500Y-114300000D03*
%TD*%
%TO.C,REF\u002A\u002A*%
X247332500Y-38100000D03*
X257492500Y-38100000D03*
%TD*%
D17*
%TO.C,REF\u002A\u002A*%
X307181250Y-31115000D03*
D16*
X307181250Y-46355000D03*
D17*
X330993750Y-31115000D03*
D16*
X330993750Y-46355000D03*
%TD*%
D15*
%TO.C,REF\u002A\u002A*%
X175895000Y-95250000D03*
X186055000Y-95250000D03*
%TD*%
%TO.C,REF\u002A\u002A*%
X104457500Y-57150000D03*
X114617500Y-57150000D03*
%TD*%
%TO.C,REF\u002A\u002A*%
X190182500Y-38100000D03*
X200342500Y-38100000D03*
%TD*%
%TO.C,REF\u002A\u002A*%
X218757500Y-57150000D03*
X228917500Y-57150000D03*
%TD*%
%TO.C,REF\u002A\u002A*%
X252095000Y-95250000D03*
X262255000Y-95250000D03*
%TD*%
%TO.C,REF\u002A\u002A*%
X237807500Y-57150000D03*
X247967500Y-57150000D03*
%TD*%
%TO.C,REF\u002A\u002A*%
X63976250Y-114300000D03*
X74136250Y-114300000D03*
%TD*%
%TO.C,REF\u002A\u002A*%
X280670000Y-76200000D03*
X290830000Y-76200000D03*
%TD*%
%TO.C,REF\u002A\u002A*%
X321151250Y-66675000D03*
X331311250Y-66675000D03*
%TD*%
%TO.C,REF\u002A\u002A*%
X147320000Y-76200000D03*
X157480000Y-76200000D03*
%TD*%
D17*
%TO.C,REF\u002A\u002A*%
X166687500Y-121285000D03*
D16*
X166687500Y-106045000D03*
D17*
X142875000Y-121285000D03*
D16*
X142875000Y-106045000D03*
%TD*%
D15*
%TO.C,REF\u002A\u002A*%
X242570000Y-76200000D03*
X252730000Y-76200000D03*
%TD*%
%TO.C,REF\u002A\u002A*%
X142557500Y-57150000D03*
X152717500Y-57150000D03*
%TD*%
%TO.C,REF\u002A\u002A*%
X133032500Y-38100000D03*
X143192500Y-38100000D03*
%TD*%
%TO.C,REF\u002A\u002A*%
X149701250Y-114300000D03*
X159861250Y-114300000D03*
%TD*%
%TO.C,REF\u002A\u002A*%
X294957500Y-57150000D03*
X305117500Y-57150000D03*
%TD*%
%TO.C,REF\u002A\u002A*%
X128270000Y-76200000D03*
X138430000Y-76200000D03*
%TD*%
%TO.C,REF\u002A\u002A*%
X59213750Y-95250000D03*
X69373750Y-95250000D03*
%TD*%
%TO.C,REF\u002A\u002A*%
X113982500Y-38100000D03*
X124142500Y-38100000D03*
%TD*%
%TO.C,REF\u002A\u002A*%
X323532500Y-114300000D03*
X333692500Y-114300000D03*
%TD*%
D17*
%TO.C,REF\u002A\u002A*%
X214312500Y-121285000D03*
D16*
X214312500Y-106045000D03*
D17*
X190500000Y-121285000D03*
D16*
X190500000Y-106045000D03*
%TD*%
D15*
%TO.C,REF\u002A\u002A*%
X94932500Y-38100000D03*
X105092500Y-38100000D03*
%TD*%
%TO.C,REF\u002A\u002A*%
X80645000Y-95250000D03*
X90805000Y-95250000D03*
%TD*%
%TO.C,REF\u002A\u002A*%
X63976250Y-76200000D03*
X74136250Y-76200000D03*
%TD*%
%TO.C,REF\u002A\u002A*%
X56832500Y-38100000D03*
X66992500Y-38100000D03*
%TD*%
%TO.C,REF\u002A\u002A*%
X194945000Y-95250000D03*
X205105000Y-95250000D03*
%TD*%
%TO.C,REF\u002A\u002A*%
X118745000Y-95250000D03*
X128905000Y-95250000D03*
%TD*%
%TO.C,REF\u002A\u002A*%
X152082500Y-38100000D03*
X162242500Y-38100000D03*
%TD*%
%TO.C,REF\u002A\u002A*%
X199707500Y-57150000D03*
X209867500Y-57150000D03*
%TD*%
%TO.C,REF\u002A\u002A*%
X99695000Y-95250000D03*
X109855000Y-95250000D03*
%TD*%
%TO.C,REF\u002A\u002A*%
X275907500Y-57150000D03*
X286067500Y-57150000D03*
%TD*%
%TO.C,REF\u002A\u002A*%
X33020000Y-57150000D03*
X43180000Y-57150000D03*
%TD*%
%TO.C,REF\u002A\u002A*%
X33020000Y-76200000D03*
X43180000Y-76200000D03*
%TD*%
%TO.C,REF\u002A\u002A*%
X156845000Y-95250000D03*
X167005000Y-95250000D03*
%TD*%
%TO.C,REF\u002A\u002A*%
X90170000Y-76200000D03*
X100330000Y-76200000D03*
%TD*%
%TO.C,REF\u002A\u002A*%
X33020000Y-38100000D03*
X43180000Y-38100000D03*
%TD*%
%TO.C,REF\u002A\u002A*%
X266382500Y-38100000D03*
X276542500Y-38100000D03*
%TD*%
%TO.C,REF\u002A\u002A*%
X256857500Y-57150000D03*
X267017500Y-57150000D03*
%TD*%
%TO.C,REF\u002A\u002A*%
X161607500Y-57150000D03*
X171767500Y-57150000D03*
%TD*%
%TO.C,REF\u002A\u002A*%
X213995000Y-95250000D03*
X224155000Y-95250000D03*
%TD*%
%TO.C,REF\u002A\u002A*%
X109220000Y-76200000D03*
X119380000Y-76200000D03*
%TD*%
D17*
%TO.C,REF\u002A\u002A*%
X300037500Y-88265000D03*
D16*
X300037500Y-103505000D03*
D17*
X323850000Y-88265000D03*
D16*
X323850000Y-103505000D03*
%TD*%
D15*
%TO.C,REF\u002A\u002A*%
X235426250Y-114300000D03*
X245586250Y-114300000D03*
%TD*%
%TO.C,REF\u002A\u002A*%
X185420000Y-76200000D03*
X195580000Y-76200000D03*
%TD*%
%TO.C,REF\u002A\u002A*%
X285432500Y-114300000D03*
X295592500Y-114300000D03*
%TD*%
%TO.C,REF\u002A\u002A*%
X256857500Y-114300000D03*
X267017500Y-114300000D03*
%TD*%
%TO.C,REF\u002A\u002A*%
X271145000Y-95250000D03*
X281305000Y-95250000D03*
%TD*%
%TO.C,REF\u002A\u002A*%
X85407500Y-57150000D03*
X95567500Y-57150000D03*
%TD*%
%TO.C,REF\u002A\u002A*%
X116363750Y-114300000D03*
X126523750Y-114300000D03*
%TD*%
%TO.C,REF\u002A\u002A*%
X299720000Y-76200000D03*
X309880000Y-76200000D03*
%TD*%
%TO.C,REF\u002A\u002A*%
X306863750Y-95250000D03*
X317023750Y-95250000D03*
%TD*%
%TO.C,REF\u002A\u002A*%
X92551250Y-114300000D03*
X102711250Y-114300000D03*
%TD*%
%TO.C,REF\u002A\u002A*%
X261620000Y-76200000D03*
X271780000Y-76200000D03*
%TD*%
%TO.C,REF\u002A\u002A*%
X197326250Y-114300000D03*
X207486250Y-114300000D03*
%TD*%
D18*
%TO.C,U2*%
X125332744Y-47218279D03*
X125332744Y-46568279D03*
X125332744Y-45918279D03*
X125332744Y-45268279D03*
X125332744Y-44618279D03*
X125332744Y-43968279D03*
X125332744Y-43318279D03*
X125332744Y-42668279D03*
X125332744Y-42018279D03*
X125332744Y-41368279D03*
X125332744Y-40718279D03*
X125332744Y-40068279D03*
X132532744Y-40068279D03*
X132532744Y-40718279D03*
X132532744Y-41368279D03*
X132532744Y-42018279D03*
X132532744Y-42668279D03*
X132532744Y-43318279D03*
X132532744Y-43968279D03*
X132532744Y-44618279D03*
X132532744Y-45268279D03*
X132532744Y-45918279D03*
X132532744Y-46568279D03*
X132532744Y-47218279D03*
%TD*%
D19*
%TO.C,C68*%
X74311774Y-49559724D03*
X73176774Y-49559724D03*
%TD*%
%TO.C,C69*%
X131722175Y-49596931D03*
X130587175Y-49596931D03*
%TD*%
D18*
%TO.C,U4*%
X239260578Y-47218279D03*
X239260578Y-46568279D03*
X239260579Y-45918279D03*
X239260578Y-45268279D03*
X239260578Y-44618280D03*
X239260578Y-43968279D03*
X239260578Y-43318279D03*
X239260578Y-42668278D03*
X239260578Y-42018279D03*
X239260579Y-41368279D03*
X239260578Y-40718279D03*
X239260578Y-40068279D03*
X246460578Y-40068279D03*
X246460578Y-40718279D03*
X246460577Y-41368279D03*
X246460578Y-42018279D03*
X246460578Y-42668278D03*
X246460578Y-43318279D03*
X246460578Y-43968279D03*
X246460578Y-44618280D03*
X246460578Y-45268279D03*
X246460577Y-45918279D03*
X246460578Y-46568279D03*
X246460578Y-47218279D03*
%TD*%
D19*
%TO.C,C71*%
X245612802Y-49522517D03*
X244477802Y-49522517D03*
%TD*%
%TO.C,C72*%
X302799961Y-49559724D03*
X301664961Y-49559724D03*
%TD*%
D18*
%TO.C,U1*%
X67947930Y-47218279D03*
X67947930Y-46568279D03*
X67947930Y-45918279D03*
X67947930Y-45268279D03*
X67947930Y-44618279D03*
X67947930Y-43968279D03*
X67947930Y-43318279D03*
X67947930Y-42668279D03*
X67947930Y-42018279D03*
X67947930Y-41368279D03*
X67947930Y-40718279D03*
X67947930Y-40068279D03*
X75147930Y-40068279D03*
X75147930Y-40718279D03*
X75147930Y-41368279D03*
X75147930Y-42018279D03*
X75147930Y-42668279D03*
X75147930Y-43318279D03*
X75147930Y-43968279D03*
X75147930Y-44618279D03*
X75147930Y-45268279D03*
X75147930Y-45918279D03*
X75147930Y-46568279D03*
X75147930Y-47218279D03*
%TD*%
%TO.C,U3*%
X182110626Y-47218279D03*
X182110626Y-46568279D03*
X182110627Y-45918279D03*
X182110626Y-45268279D03*
X182110626Y-44618280D03*
X182110626Y-43968279D03*
X182110626Y-43318279D03*
X182110626Y-42668278D03*
X182110626Y-42018279D03*
X182110627Y-41368279D03*
X182110626Y-40718279D03*
X182110626Y-40068279D03*
X189310626Y-40068279D03*
X189310626Y-40718279D03*
X189310625Y-41368279D03*
X189310626Y-42018279D03*
X189310626Y-42668278D03*
X189310626Y-43318279D03*
X189310626Y-43968279D03*
X189310626Y-44618280D03*
X189310626Y-45268279D03*
X189310625Y-45918279D03*
X189310626Y-46568279D03*
X189310626Y-47218279D03*
%TD*%
%TO.C,U5*%
X295851016Y-47218279D03*
X295851016Y-46568279D03*
X295851017Y-45918279D03*
X295851016Y-45268279D03*
X295851016Y-44618280D03*
X295851016Y-43968279D03*
X295851016Y-43318279D03*
X295851016Y-42668278D03*
X295851016Y-42018279D03*
X295851017Y-41368279D03*
X295851016Y-40718279D03*
X295851016Y-40068279D03*
X303051016Y-40068279D03*
X303051016Y-40718279D03*
X303051015Y-41368279D03*
X303051016Y-42018279D03*
X303051016Y-42668278D03*
X303051016Y-43318279D03*
X303051016Y-43968279D03*
X303051016Y-44618280D03*
X303051016Y-45268279D03*
X303051015Y-45918279D03*
X303051016Y-46568279D03*
X303051016Y-47218279D03*
%TD*%
D19*
%TO.C,C70*%
X188462850Y-49522517D03*
X187327850Y-49522517D03*
%TD*%
M02*
