%TF.GenerationSoftware,KiCad,Pcbnew,7.0.7*%
%TF.CreationDate,2023-11-08T12:28:28+01:00*%
%TF.ProjectId,macrolev,6d616372-6f6c-4657-962e-6b696361645f,1.0*%
%TF.SameCoordinates,Original*%
%TF.FileFunction,Drillmap*%
%TF.FilePolarity,Positive*%
%FSLAX45Y45*%
G04 Gerber Fmt 4.5, Leading zero omitted, Abs format (unit mm)*
G04 Created by KiCad (PCBNEW 7.0.7) date 2023-11-08 12:28:28*
%MOMM*%
%LPD*%
G01*
G04 APERTURE LIST*
%ADD10C,0.200000*%
%ADD11C,0.040000*%
%ADD12C,0.100000*%
%ADD13C,0.300000*%
G04 APERTURE END LIST*
D10*
X3047500Y-3047500D02*
X34003750Y-3047500D01*
X34003750Y-12572500D01*
X3047500Y-12572500D01*
X3047500Y-3047500D01*
D11*
X3590000Y-8030000D02*
X3630000Y-8070000D01*
X3630000Y-8030000D02*
X3590000Y-8070000D01*
X3600000Y-6065000D02*
X3640000Y-6105000D01*
X3640000Y-6065000D02*
X3600000Y-6105000D01*
X3605000Y-3770000D02*
X3645000Y-3810000D01*
X3645000Y-3770000D02*
X3605000Y-3810000D01*
X4020000Y-7320000D02*
X4060000Y-7360000D01*
X4060000Y-7320000D02*
X4020000Y-7360000D01*
X4125000Y-6209000D02*
X4165000Y-6249000D01*
X4165000Y-6209000D02*
X4125000Y-6249000D01*
X4140000Y-5565000D02*
X4180000Y-5605000D01*
X4180000Y-5565000D02*
X4140000Y-5605000D01*
X4147000Y-4306000D02*
X4187000Y-4346000D01*
X4187000Y-4306000D02*
X4147000Y-4346000D01*
X4320000Y-3855000D02*
X4360000Y-3895000D01*
X4360000Y-3855000D02*
X4320000Y-3895000D01*
X4342000Y-7964000D02*
X4382000Y-8004000D01*
X4382000Y-7964000D02*
X4342000Y-8004000D01*
X4365000Y-7545000D02*
X4405000Y-7585000D01*
X4405000Y-7545000D02*
X4365000Y-7585000D01*
X5235000Y-6840000D02*
X5275000Y-6880000D01*
X5275000Y-6840000D02*
X5235000Y-6880000D01*
X6035000Y-3985000D02*
X6075000Y-4025000D01*
X6075000Y-3985000D02*
X6035000Y-4025000D01*
X6225000Y-9410000D02*
X6265000Y-9450000D01*
X6265000Y-9410000D02*
X6225000Y-9450000D01*
X6235000Y-10515000D02*
X6275000Y-10555000D01*
X6275000Y-10515000D02*
X6235000Y-10555000D01*
X6325000Y-10065000D02*
X6365000Y-10105000D01*
X6365000Y-10065000D02*
X6325000Y-10105000D01*
X6335000Y-3570000D02*
X6375000Y-3610000D01*
X6375000Y-3570000D02*
X6335000Y-3610000D01*
X6532000Y-4286000D02*
X6572000Y-4326000D01*
X6572000Y-4286000D02*
X6532000Y-4326000D01*
X6660000Y-9175000D02*
X6700000Y-9215000D01*
X6700000Y-9175000D02*
X6660000Y-9215000D01*
X6680000Y-5525000D02*
X6720000Y-5565000D01*
X6720000Y-5525000D02*
X6680000Y-5565000D01*
X6695000Y-11010000D02*
X6735000Y-11050000D01*
X6735000Y-11010000D02*
X6695000Y-11050000D01*
X6700000Y-3865000D02*
X6740000Y-3905000D01*
X6740000Y-3865000D02*
X6700000Y-3905000D01*
X6700000Y-10035000D02*
X6740000Y-10075000D01*
X6740000Y-10035000D02*
X6700000Y-10075000D01*
X7018000Y-6210000D02*
X7058000Y-6250000D01*
X7058000Y-6210000D02*
X7018000Y-6250000D01*
X7045000Y-7060000D02*
X7085000Y-7100000D01*
X7085000Y-7060000D02*
X7045000Y-7100000D01*
X7080000Y-12105000D02*
X7120000Y-12145000D01*
X7120000Y-12105000D02*
X7080000Y-12145000D01*
X7085000Y-7450000D02*
X7125000Y-7490000D01*
X7125000Y-7450000D02*
X7085000Y-7490000D01*
X7120000Y-11170000D02*
X7160000Y-11210000D01*
X7160000Y-11170000D02*
X7120000Y-11210000D01*
X7160000Y-6850000D02*
X7200000Y-6890000D01*
X7200000Y-6850000D02*
X7160000Y-6890000D01*
X7215000Y-5675000D02*
X7255000Y-5715000D01*
X7255000Y-5675000D02*
X7215000Y-5715000D01*
X7227000Y-8135000D02*
X7267000Y-8175000D01*
X7267000Y-8135000D02*
X7227000Y-8175000D01*
X7280000Y-7110000D02*
X7320000Y-7150000D01*
X7320000Y-7110000D02*
X7280000Y-7150000D01*
X7385000Y-6775000D02*
X7425000Y-6815000D01*
X7425000Y-6775000D02*
X7385000Y-6815000D01*
X7410000Y-5105000D02*
X7450000Y-5145000D01*
X7450000Y-5105000D02*
X7410000Y-5145000D01*
X7445000Y-7185000D02*
X7485000Y-7225000D01*
X7485000Y-7185000D02*
X7445000Y-7225000D01*
X7470000Y-6550000D02*
X7510000Y-6590000D01*
X7510000Y-6550000D02*
X7470000Y-6590000D01*
X7473000Y-11398000D02*
X7513000Y-11438000D01*
X7513000Y-11398000D02*
X7473000Y-11438000D01*
X7645000Y-7380000D02*
X7685000Y-7420000D01*
X7685000Y-7380000D02*
X7645000Y-7420000D01*
X7660000Y-4835000D02*
X7700000Y-4875000D01*
X7700000Y-4835000D02*
X7660000Y-4875000D01*
X7705000Y-6555000D02*
X7745000Y-6595000D01*
X7745000Y-6555000D02*
X7705000Y-6595000D01*
X7955000Y-3990000D02*
X7995000Y-4030000D01*
X7995000Y-3990000D02*
X7955000Y-4030000D01*
X8005000Y-7105000D02*
X8045000Y-7145000D01*
X8045000Y-7105000D02*
X8005000Y-7145000D01*
X8015000Y-5110000D02*
X8055000Y-5150000D01*
X8055000Y-5110000D02*
X8015000Y-5150000D01*
X8055000Y-5950000D02*
X8095000Y-5990000D01*
X8095000Y-5950000D02*
X8055000Y-5990000D01*
X8150000Y-4285000D02*
X8190000Y-4325000D01*
X8190000Y-4285000D02*
X8150000Y-4325000D01*
X8170000Y-5950000D02*
X8210000Y-5990000D01*
X8210000Y-5950000D02*
X8170000Y-5990000D01*
X8255000Y-3560000D02*
X8295000Y-3600000D01*
X8295000Y-3560000D02*
X8255000Y-3600000D01*
X8270000Y-7370000D02*
X8310000Y-7410000D01*
X8310000Y-7370000D02*
X8270000Y-7410000D01*
X8280000Y-5790000D02*
X8320000Y-5830000D01*
X8320000Y-5790000D02*
X8280000Y-5830000D01*
X8305000Y-9950000D02*
X8345000Y-9990000D01*
X8345000Y-9950000D02*
X8305000Y-9990000D01*
X8360000Y-4490000D02*
X8400000Y-4530000D01*
X8400000Y-4490000D02*
X8360000Y-4530000D01*
X8370000Y-7050000D02*
X8410000Y-7090000D01*
X8410000Y-7050000D02*
X8370000Y-7090000D01*
X8400000Y-6370000D02*
X8440000Y-6410000D01*
X8440000Y-6370000D02*
X8400000Y-6410000D01*
X8515000Y-6370000D02*
X8555000Y-6410000D01*
X8555000Y-6370000D02*
X8515000Y-6410000D01*
X8520000Y-6580000D02*
X8560000Y-6620000D01*
X8560000Y-6580000D02*
X8520000Y-6620000D01*
X8595000Y-3895000D02*
X8635000Y-3935000D01*
X8635000Y-3895000D02*
X8595000Y-3935000D01*
X8640000Y-9345000D02*
X8680000Y-9385000D01*
X8680000Y-9345000D02*
X8640000Y-9385000D01*
X8750000Y-5630000D02*
X8790000Y-5670000D01*
X8790000Y-5630000D02*
X8750000Y-5670000D01*
X8770000Y-7495000D02*
X8810000Y-7535000D01*
X8810000Y-7495000D02*
X8770000Y-7535000D01*
X8775000Y-6725000D02*
X8815000Y-6765000D01*
X8815000Y-6725000D02*
X8775000Y-6765000D01*
X8790000Y-4595000D02*
X8830000Y-4635000D01*
X8830000Y-4595000D02*
X8790000Y-4635000D01*
X8810000Y-7245000D02*
X8850000Y-7285000D01*
X8850000Y-7245000D02*
X8810000Y-7285000D01*
X8975000Y-3900000D02*
X9015000Y-3940000D01*
X9015000Y-3900000D02*
X8975000Y-3940000D01*
X9005000Y-10115000D02*
X9045000Y-10155000D01*
X9045000Y-10115000D02*
X9005000Y-10155000D01*
X9010000Y-6775000D02*
X9050000Y-6815000D01*
X9050000Y-6775000D02*
X9010000Y-6815000D01*
X9040000Y-3725000D02*
X9080000Y-3765000D01*
X9080000Y-3725000D02*
X9040000Y-3765000D01*
X9050000Y-4735000D02*
X9090000Y-4775000D01*
X9090000Y-4735000D02*
X9050000Y-4775000D01*
X9050000Y-7200000D02*
X9090000Y-7240000D01*
X9090000Y-7200000D02*
X9050000Y-7240000D01*
X9075000Y-6205000D02*
X9115000Y-6245000D01*
X9115000Y-6205000D02*
X9075000Y-6245000D01*
X9088000Y-9568000D02*
X9128000Y-9608000D01*
X9128000Y-9568000D02*
X9088000Y-9608000D01*
X9195000Y-3580000D02*
X9235000Y-3620000D01*
X9235000Y-3580000D02*
X9195000Y-3620000D01*
X9210000Y-11450000D02*
X9250000Y-11490000D01*
X9250000Y-11450000D02*
X9210000Y-11490000D01*
X9225000Y-6840000D02*
X9265000Y-6880000D01*
X9265000Y-6840000D02*
X9225000Y-6880000D01*
X9225000Y-10790000D02*
X9265000Y-10830000D01*
X9265000Y-10790000D02*
X9225000Y-10830000D01*
X9230000Y-5075000D02*
X9270000Y-5115000D01*
X9270000Y-5075000D02*
X9230000Y-5115000D01*
X9270000Y-5535000D02*
X9310000Y-5575000D01*
X9310000Y-5535000D02*
X9270000Y-5575000D01*
X9310000Y-3590000D02*
X9350000Y-3630000D01*
X9350000Y-3590000D02*
X9310000Y-3630000D01*
X9310000Y-7125000D02*
X9350000Y-7165000D01*
X9350000Y-7125000D02*
X9310000Y-7165000D01*
X9434122Y-3624172D02*
X9474122Y-3664172D01*
X9474122Y-3624172D02*
X9434122Y-3664172D01*
X9480000Y-6915000D02*
X9520000Y-6955000D01*
X9520000Y-6915000D02*
X9480000Y-6955000D01*
X9515000Y-3300000D02*
X9555000Y-3340000D01*
X9555000Y-3300000D02*
X9515000Y-3340000D01*
X9535000Y-8940000D02*
X9575000Y-8980000D01*
X9575000Y-8940000D02*
X9535000Y-8980000D01*
X9550000Y-3485000D02*
X9590000Y-3525000D01*
X9590000Y-3485000D02*
X9550000Y-3525000D01*
X9580000Y-11755000D02*
X9620000Y-11795000D01*
X9620000Y-11755000D02*
X9580000Y-11795000D01*
X9585000Y-4200000D02*
X9625000Y-4240000D01*
X9625000Y-4200000D02*
X9585000Y-4240000D01*
X9685000Y-8685000D02*
X9725000Y-8725000D01*
X9725000Y-8685000D02*
X9685000Y-8725000D01*
X9710000Y-11340000D02*
X9750000Y-11380000D01*
X9750000Y-11340000D02*
X9710000Y-11380000D01*
X9810000Y-7485000D02*
X9850000Y-7525000D01*
X9850000Y-7485000D02*
X9810000Y-7525000D01*
X9835000Y-10050000D02*
X9875000Y-10090000D01*
X9875000Y-10050000D02*
X9835000Y-10090000D01*
X9857500Y-3800600D02*
X9897500Y-3840600D01*
X9897500Y-3800600D02*
X9857500Y-3840600D01*
X9995000Y-8130000D02*
X10035000Y-8170000D01*
X10035000Y-8130000D02*
X9995000Y-8170000D01*
X10020000Y-12110000D02*
X10060000Y-12150000D01*
X10060000Y-12110000D02*
X10020000Y-12150000D01*
X10102000Y-4320000D02*
X10142000Y-4360000D01*
X10142000Y-4320000D02*
X10102000Y-4360000D01*
X10120000Y-11145000D02*
X10160000Y-11185000D01*
X10160000Y-11145000D02*
X10120000Y-11185000D01*
X10272000Y-11488000D02*
X10312000Y-11528000D01*
X10312000Y-11488000D02*
X10272000Y-11528000D01*
X10280000Y-9880000D02*
X10320000Y-9920000D01*
X10320000Y-9880000D02*
X10280000Y-9920000D01*
X10285000Y-5390000D02*
X10325000Y-5430000D01*
X10325000Y-5390000D02*
X10285000Y-5430000D01*
X10305000Y-3370000D02*
X10345000Y-3410000D01*
X10345000Y-3370000D02*
X10305000Y-3410000D01*
X10410000Y-3365000D02*
X10450000Y-3405000D01*
X10450000Y-3365000D02*
X10410000Y-3405000D01*
X10410000Y-9335000D02*
X10450000Y-9375000D01*
X10450000Y-9335000D02*
X10410000Y-9375000D01*
X10480000Y-3450000D02*
X10520000Y-3490000D01*
X10520000Y-3450000D02*
X10480000Y-3490000D01*
X10485000Y-7895000D02*
X10525000Y-7935000D01*
X10525000Y-7895000D02*
X10485000Y-7935000D01*
X10605000Y-5505000D02*
X10645000Y-5545000D01*
X10645000Y-5505000D02*
X10605000Y-5545000D01*
X10605000Y-7620000D02*
X10645000Y-7660000D01*
X10645000Y-7620000D02*
X10605000Y-7660000D01*
X10655000Y-6165000D02*
X10695000Y-6205000D01*
X10695000Y-6165000D02*
X10655000Y-6205000D01*
X10670000Y-4210000D02*
X10710000Y-4250000D01*
X10710000Y-4210000D02*
X10670000Y-4250000D01*
X10835000Y-7170000D02*
X10875000Y-7210000D01*
X10875000Y-7170000D02*
X10835000Y-7210000D01*
X10900000Y-9315000D02*
X10940000Y-9355000D01*
X10940000Y-9315000D02*
X10900000Y-9355000D01*
X10930000Y-10165000D02*
X10970000Y-10205000D01*
X10970000Y-10165000D02*
X10930000Y-10205000D01*
X10975000Y-9875000D02*
X11015000Y-9915000D01*
X11015000Y-9875000D02*
X10975000Y-9915000D01*
X11075000Y-5525000D02*
X11115000Y-5565000D01*
X11115000Y-5525000D02*
X11075000Y-5565000D01*
X11115000Y-10360000D02*
X11155000Y-10400000D01*
X11155000Y-10360000D02*
X11115000Y-10400000D01*
X11135000Y-6985000D02*
X11175000Y-7025000D01*
X11175000Y-6985000D02*
X11135000Y-7025000D01*
X11195000Y-7335000D02*
X11235000Y-7375000D01*
X11235000Y-7335000D02*
X11195000Y-7375000D01*
X11225000Y-6215000D02*
X11265000Y-6255000D01*
X11265000Y-6215000D02*
X11225000Y-6255000D01*
X11285000Y-7920000D02*
X11325000Y-7960000D01*
X11325000Y-7920000D02*
X11285000Y-7960000D01*
X11450000Y-7365000D02*
X11490000Y-7405000D01*
X11490000Y-7365000D02*
X11450000Y-7405000D01*
X11505000Y-5640000D02*
X11545000Y-5680000D01*
X11545000Y-5640000D02*
X11505000Y-5680000D01*
X11605000Y-11370000D02*
X11645000Y-11410000D01*
X11645000Y-11370000D02*
X11605000Y-11410000D01*
X11660000Y-9535000D02*
X11700000Y-9575000D01*
X11700000Y-9535000D02*
X11660000Y-9575000D01*
X11725000Y-4210000D02*
X11765000Y-4250000D01*
X11765000Y-4210000D02*
X11725000Y-4250000D01*
X11865000Y-6075000D02*
X11905000Y-6115000D01*
X11905000Y-6075000D02*
X11865000Y-6115000D01*
X11950000Y-7955000D02*
X11990000Y-7995000D01*
X11990000Y-7955000D02*
X11950000Y-7995000D01*
X11950000Y-11750000D02*
X11990000Y-11790000D01*
X11990000Y-11750000D02*
X11950000Y-11790000D01*
X11990000Y-11180000D02*
X12030000Y-11220000D01*
X12030000Y-11180000D02*
X11990000Y-11220000D01*
X12060000Y-7485000D02*
X12100000Y-7525000D01*
X12100000Y-7485000D02*
X12060000Y-7525000D01*
X12120000Y-5755000D02*
X12160000Y-5795000D01*
X12160000Y-5755000D02*
X12120000Y-5795000D01*
X12240000Y-4310000D02*
X12280000Y-4350000D01*
X12280000Y-4310000D02*
X12240000Y-4350000D01*
X12360000Y-7095000D02*
X12400000Y-7135000D01*
X12400000Y-7095000D02*
X12360000Y-7135000D01*
X12370000Y-12130000D02*
X12410000Y-12170000D01*
X12410000Y-12130000D02*
X12370000Y-12170000D01*
X12390000Y-9300000D02*
X12430000Y-9340000D01*
X12430000Y-9300000D02*
X12390000Y-9340000D01*
X12395000Y-10095000D02*
X12435000Y-10135000D01*
X12435000Y-10095000D02*
X12395000Y-10135000D01*
X12420000Y-8050000D02*
X12460000Y-8090000D01*
X12460000Y-8050000D02*
X12420000Y-8090000D01*
X12425000Y-6255000D02*
X12465000Y-6295000D01*
X12465000Y-6255000D02*
X12425000Y-6295000D01*
X12425000Y-11185000D02*
X12465000Y-11225000D01*
X12465000Y-11185000D02*
X12425000Y-11225000D01*
X12635000Y-4190000D02*
X12675000Y-4230000D01*
X12675000Y-4190000D02*
X12635000Y-4230000D01*
X12640000Y-5710000D02*
X12680000Y-5750000D01*
X12680000Y-5710000D02*
X12640000Y-5750000D01*
X12670000Y-11455000D02*
X12710000Y-11495000D01*
X12710000Y-11455000D02*
X12670000Y-11495000D01*
X12705000Y-8330000D02*
X12745000Y-8370000D01*
X12745000Y-8330000D02*
X12705000Y-8370000D01*
X12720000Y-9320000D02*
X12760000Y-9360000D01*
X12760000Y-9320000D02*
X12720000Y-9360000D01*
X12895000Y-9855000D02*
X12935000Y-9895000D01*
X12935000Y-9855000D02*
X12895000Y-9895000D01*
X12990000Y-7065000D02*
X13030000Y-7105000D01*
X13030000Y-7065000D02*
X12990000Y-7105000D01*
X13185000Y-7190000D02*
X13225000Y-7230000D01*
X13225000Y-7190000D02*
X13185000Y-7230000D01*
X13275000Y-6350000D02*
X13315000Y-6390000D01*
X13315000Y-6350000D02*
X13275000Y-6390000D01*
X13285000Y-6240000D02*
X13325000Y-6280000D01*
X13325000Y-6240000D02*
X13285000Y-6280000D01*
X13385000Y-5665000D02*
X13425000Y-5705000D01*
X13425000Y-5665000D02*
X13385000Y-5705000D01*
X13410000Y-6850000D02*
X13450000Y-6890000D01*
X13450000Y-6850000D02*
X13410000Y-6890000D01*
X13475000Y-7210000D02*
X13515000Y-7250000D01*
X13515000Y-7210000D02*
X13475000Y-7250000D01*
X13580000Y-4205000D02*
X13620000Y-4245000D01*
X13620000Y-4205000D02*
X13580000Y-4245000D01*
X13590000Y-8300000D02*
X13630000Y-8340000D01*
X13630000Y-8300000D02*
X13590000Y-8340000D01*
X13605000Y-6225000D02*
X13645000Y-6265000D01*
X13645000Y-6225000D02*
X13605000Y-6265000D01*
X13657000Y-7424000D02*
X13697000Y-7464000D01*
X13697000Y-7424000D02*
X13657000Y-7464000D01*
X13660000Y-6745000D02*
X13700000Y-6785000D01*
X13700000Y-6745000D02*
X13660000Y-6785000D01*
X13815000Y-5335000D02*
X13855000Y-5375000D01*
X13855000Y-5335000D02*
X13815000Y-5375000D01*
X13850000Y-6230000D02*
X13890000Y-6270000D01*
X13890000Y-6230000D02*
X13850000Y-6270000D01*
X13855000Y-6560000D02*
X13895000Y-6600000D01*
X13895000Y-6560000D02*
X13855000Y-6600000D01*
X13920000Y-7355000D02*
X13960000Y-7395000D01*
X13960000Y-7355000D02*
X13920000Y-7395000D01*
X14005000Y-9950000D02*
X14045000Y-9990000D01*
X14045000Y-9950000D02*
X14005000Y-9990000D01*
X14030000Y-4315000D02*
X14070000Y-4355000D01*
X14070000Y-4315000D02*
X14030000Y-4355000D01*
X14045000Y-11660000D02*
X14085000Y-11700000D01*
X14085000Y-11660000D02*
X14045000Y-11700000D01*
X14072500Y-6355000D02*
X14112500Y-6395000D01*
X14112500Y-6355000D02*
X14072500Y-6395000D01*
X14115000Y-5060000D02*
X14155000Y-5100000D01*
X14155000Y-5060000D02*
X14115000Y-5100000D01*
X14190000Y-6275000D02*
X14230000Y-6315000D01*
X14230000Y-6275000D02*
X14190000Y-6315000D01*
X14255000Y-9380000D02*
X14295000Y-9420000D01*
X14295000Y-9380000D02*
X14255000Y-9420000D01*
X14320000Y-3865000D02*
X14360000Y-3905000D01*
X14360000Y-3865000D02*
X14320000Y-3905000D01*
X14495000Y-7305000D02*
X14535000Y-7345000D01*
X14535000Y-7305000D02*
X14495000Y-7345000D01*
X14530000Y-6035000D02*
X14570000Y-6075000D01*
X14570000Y-6035000D02*
X14530000Y-6075000D01*
X14540000Y-4615000D02*
X14580000Y-4655000D01*
X14580000Y-4615000D02*
X14540000Y-4655000D01*
X14565000Y-9355000D02*
X14605000Y-9395000D01*
X14605000Y-9355000D02*
X14565000Y-9395000D01*
X14640000Y-10235000D02*
X14680000Y-10275000D01*
X14680000Y-10235000D02*
X14640000Y-10275000D01*
X14650000Y-7075000D02*
X14690000Y-7115000D01*
X14690000Y-7075000D02*
X14650000Y-7115000D01*
X14657500Y-3867500D02*
X14697500Y-3907500D01*
X14697500Y-3867500D02*
X14657500Y-3907500D01*
X14690000Y-3370000D02*
X14730000Y-3410000D01*
X14730000Y-3370000D02*
X14690000Y-3410000D01*
X14690000Y-3745000D02*
X14730000Y-3785000D01*
X14730000Y-3745000D02*
X14690000Y-3785000D01*
X14755000Y-4775000D02*
X14795000Y-4815000D01*
X14795000Y-4775000D02*
X14755000Y-4815000D01*
X14805000Y-9835000D02*
X14845000Y-9875000D01*
X14845000Y-9835000D02*
X14805000Y-9875000D01*
X14839000Y-7565000D02*
X14879000Y-7605000D01*
X14879000Y-7565000D02*
X14839000Y-7605000D01*
X14845000Y-4285000D02*
X14885000Y-4325000D01*
X14885000Y-4285000D02*
X14845000Y-4325000D01*
X14850000Y-11475000D02*
X14890000Y-11515000D01*
X14890000Y-11475000D02*
X14850000Y-11515000D01*
X14885000Y-3642550D02*
X14925000Y-3682550D01*
X14925000Y-3642550D02*
X14885000Y-3682550D01*
X14900000Y-3510000D02*
X14940000Y-3550000D01*
X14940000Y-3510000D02*
X14900000Y-3550000D01*
X14905000Y-5035000D02*
X14945000Y-5075000D01*
X14945000Y-5035000D02*
X14905000Y-5075000D01*
X14915000Y-6495000D02*
X14955000Y-6535000D01*
X14955000Y-6495000D02*
X14915000Y-6535000D01*
X14945000Y-3730000D02*
X14985000Y-3770000D01*
X14985000Y-3730000D02*
X14945000Y-3770000D01*
X14945000Y-10730000D02*
X14985000Y-10770000D01*
X14985000Y-10730000D02*
X14945000Y-10770000D01*
X15020000Y-3485000D02*
X15060000Y-3525000D01*
X15060000Y-3485000D02*
X15020000Y-3525000D01*
X15020000Y-6200000D02*
X15060000Y-6240000D01*
X15060000Y-6200000D02*
X15020000Y-6240000D01*
X15065000Y-4070000D02*
X15105000Y-4110000D01*
X15105000Y-4070000D02*
X15065000Y-4110000D01*
X15100000Y-6715000D02*
X15140000Y-6755000D01*
X15140000Y-6715000D02*
X15100000Y-6755000D01*
X15120000Y-5445000D02*
X15160000Y-5485000D01*
X15160000Y-5445000D02*
X15120000Y-5485000D01*
X15125000Y-3465000D02*
X15165000Y-3505000D01*
X15165000Y-3465000D02*
X15125000Y-3505000D01*
X15165000Y-7270000D02*
X15205000Y-7310000D01*
X15205000Y-7270000D02*
X15165000Y-7310000D01*
X15215000Y-4335000D02*
X15255000Y-4375000D01*
X15255000Y-4335000D02*
X15215000Y-4375000D01*
X15225000Y-4785000D02*
X15265000Y-4825000D01*
X15265000Y-4785000D02*
X15225000Y-4825000D01*
X15285000Y-3460000D02*
X15325000Y-3500000D01*
X15325000Y-3460000D02*
X15285000Y-3500000D01*
X15290000Y-4202922D02*
X15330000Y-4242922D01*
X15330000Y-4202922D02*
X15290000Y-4242922D01*
X15290000Y-9120000D02*
X15330000Y-9160000D01*
X15330000Y-9120000D02*
X15290000Y-9160000D01*
X15310000Y-11760000D02*
X15350000Y-11800000D01*
X15350000Y-11760000D02*
X15310000Y-11800000D01*
X15320000Y-6785000D02*
X15360000Y-6825000D01*
X15360000Y-6785000D02*
X15320000Y-6825000D01*
X15350000Y-3375000D02*
X15390000Y-3415000D01*
X15390000Y-3375000D02*
X15350000Y-3415000D01*
X15425000Y-5325000D02*
X15465000Y-5365000D01*
X15465000Y-5325000D02*
X15425000Y-5365000D01*
X15435000Y-7215000D02*
X15475000Y-7255000D01*
X15475000Y-7215000D02*
X15435000Y-7255000D01*
X15435000Y-11330000D02*
X15475000Y-11370000D01*
X15475000Y-11330000D02*
X15435000Y-11370000D01*
X15455000Y-8660000D02*
X15495000Y-8700000D01*
X15495000Y-8660000D02*
X15455000Y-8700000D01*
X15510000Y-3765000D02*
X15550000Y-3805000D01*
X15550000Y-3765000D02*
X15510000Y-3805000D01*
X15545000Y-4928233D02*
X15585000Y-4968233D01*
X15585000Y-4928233D02*
X15545000Y-4968233D01*
X15560000Y-4035000D02*
X15600000Y-4075000D01*
X15600000Y-4035000D02*
X15560000Y-4075000D01*
X15570000Y-3280000D02*
X15610000Y-3320000D01*
X15610000Y-3280000D02*
X15570000Y-3320000D01*
X15600000Y-4415000D02*
X15640000Y-4455000D01*
X15640000Y-4415000D02*
X15600000Y-4455000D01*
X15645000Y-5325000D02*
X15685000Y-5365000D01*
X15685000Y-5325000D02*
X15645000Y-5365000D01*
X15665000Y-12135000D02*
X15705000Y-12175000D01*
X15705000Y-12135000D02*
X15665000Y-12175000D01*
X15675000Y-8160000D02*
X15715000Y-8200000D01*
X15715000Y-8160000D02*
X15675000Y-8200000D01*
X15700000Y-7155000D02*
X15740000Y-7195000D01*
X15740000Y-7155000D02*
X15700000Y-7195000D01*
X15710000Y-3350000D02*
X15750000Y-3390000D01*
X15750000Y-3350000D02*
X15710000Y-3390000D01*
X15725000Y-6135000D02*
X15765000Y-6175000D01*
X15765000Y-6135000D02*
X15725000Y-6175000D01*
X15765000Y-4290000D02*
X15805000Y-4330000D01*
X15805000Y-4290000D02*
X15765000Y-4330000D01*
X15805000Y-5310000D02*
X15845000Y-5350000D01*
X15845000Y-5310000D02*
X15805000Y-5350000D01*
X15810000Y-4600000D02*
X15850000Y-4640000D01*
X15850000Y-4600000D02*
X15810000Y-4640000D01*
X15840000Y-6830000D02*
X15880000Y-6870000D01*
X15880000Y-6830000D02*
X15840000Y-6870000D01*
X15855000Y-5037500D02*
X15895000Y-5077500D01*
X15895000Y-5037500D02*
X15855000Y-5077500D01*
X15885000Y-11350000D02*
X15925000Y-11390000D01*
X15925000Y-11350000D02*
X15885000Y-11390000D01*
X15940000Y-7060000D02*
X15980000Y-7100000D01*
X15980000Y-7060000D02*
X15940000Y-7100000D01*
X15970000Y-3255000D02*
X16010000Y-3295000D01*
X16010000Y-3255000D02*
X15970000Y-3295000D01*
X15990000Y-11740000D02*
X16030000Y-11780000D01*
X16030000Y-11740000D02*
X15990000Y-11780000D01*
X16010000Y-5860000D02*
X16050000Y-5900000D01*
X16050000Y-5860000D02*
X16010000Y-5900000D01*
X16030000Y-3350000D02*
X16070000Y-3390000D01*
X16070000Y-3350000D02*
X16030000Y-3390000D01*
X16075000Y-6190000D02*
X16115000Y-6230000D01*
X16115000Y-6190000D02*
X16075000Y-6230000D01*
X16095000Y-4315000D02*
X16135000Y-4355000D01*
X16135000Y-4315000D02*
X16095000Y-4355000D01*
X16100000Y-4515000D02*
X16140000Y-4555000D01*
X16140000Y-4515000D02*
X16100000Y-4555000D01*
X16132500Y-4417500D02*
X16172500Y-4457500D01*
X16172500Y-4417500D02*
X16132500Y-4457500D01*
X16163609Y-5104627D02*
X16203609Y-5144627D01*
X16203609Y-5104627D02*
X16163609Y-5144627D01*
X16175000Y-9325000D02*
X16215000Y-9365000D01*
X16215000Y-9325000D02*
X16175000Y-9365000D01*
X16240000Y-4795000D02*
X16280000Y-4835000D01*
X16280000Y-4795000D02*
X16240000Y-4835000D01*
X16245000Y-10035000D02*
X16285000Y-10075000D01*
X16285000Y-10035000D02*
X16245000Y-10075000D01*
X16262500Y-4942500D02*
X16302500Y-4982500D01*
X16302500Y-4942500D02*
X16262500Y-4982500D01*
X16305000Y-6420000D02*
X16345000Y-6460000D01*
X16345000Y-6420000D02*
X16305000Y-6460000D01*
X16315000Y-4165000D02*
X16355000Y-4205000D01*
X16355000Y-4165000D02*
X16315000Y-4205000D01*
X16325000Y-4570000D02*
X16365000Y-4610000D01*
X16365000Y-4570000D02*
X16325000Y-4610000D01*
X16400000Y-3735000D02*
X16440000Y-3775000D01*
X16440000Y-3735000D02*
X16400000Y-3775000D01*
X16425000Y-3210000D02*
X16465000Y-3250000D01*
X16465000Y-3210000D02*
X16425000Y-3250000D01*
X16490000Y-5700000D02*
X16530000Y-5740000D01*
X16530000Y-5700000D02*
X16490000Y-5740000D01*
X16565000Y-9305000D02*
X16605000Y-9345000D01*
X16605000Y-9305000D02*
X16565000Y-9345000D01*
X16570000Y-5150000D02*
X16610000Y-5190000D01*
X16610000Y-5150000D02*
X16570000Y-5190000D01*
X16590000Y-4576000D02*
X16630000Y-4616000D01*
X16630000Y-4576000D02*
X16590000Y-4616000D01*
X16590000Y-6285000D02*
X16630000Y-6325000D01*
X16630000Y-6285000D02*
X16590000Y-6325000D01*
X16600000Y-5485000D02*
X16640000Y-5525000D01*
X16640000Y-5485000D02*
X16600000Y-5525000D01*
X16605000Y-6555000D02*
X16645000Y-6595000D01*
X16645000Y-6555000D02*
X16605000Y-6595000D01*
X16650000Y-5025000D02*
X16690000Y-5065000D01*
X16690000Y-5025000D02*
X16650000Y-5065000D01*
X16670000Y-3307500D02*
X16710000Y-3347500D01*
X16710000Y-3307500D02*
X16670000Y-3347500D01*
X16685000Y-3195000D02*
X16725000Y-3235000D01*
X16725000Y-3195000D02*
X16685000Y-3235000D01*
X16715000Y-9835000D02*
X16755000Y-9875000D01*
X16755000Y-9835000D02*
X16715000Y-9875000D01*
X16723000Y-4719000D02*
X16763000Y-4759000D01*
X16763000Y-4719000D02*
X16723000Y-4759000D01*
X16729000Y-4436000D02*
X16769000Y-4476000D01*
X16769000Y-4436000D02*
X16729000Y-4476000D01*
X16780000Y-3740000D02*
X16820000Y-3780000D01*
X16820000Y-3740000D02*
X16780000Y-3780000D01*
X16800000Y-3222500D02*
X16840000Y-3262500D01*
X16840000Y-3222500D02*
X16800000Y-3262500D01*
X16845000Y-6390000D02*
X16885000Y-6430000D01*
X16885000Y-6390000D02*
X16845000Y-6430000D01*
X16855000Y-4849000D02*
X16895000Y-4889000D01*
X16895000Y-4849000D02*
X16855000Y-4889000D01*
X16855000Y-5340000D02*
X16895000Y-5380000D01*
X16895000Y-5340000D02*
X16855000Y-5380000D01*
X16858932Y-5086467D02*
X16898932Y-5126467D01*
X16898932Y-5086467D02*
X16858932Y-5126467D01*
X16860000Y-4302000D02*
X16900000Y-4342000D01*
X16900000Y-4302000D02*
X16860000Y-4342000D01*
X16860000Y-4573995D02*
X16900000Y-4613995D01*
X16900000Y-4573995D02*
X16860000Y-4613995D01*
X16912500Y-4005000D02*
X16952500Y-4045000D01*
X16952500Y-4005000D02*
X16912500Y-4045000D01*
X16985000Y-3410000D02*
X17025000Y-3450000D01*
X17025000Y-3410000D02*
X16985000Y-3450000D01*
X16990000Y-7640000D02*
X17030000Y-7680000D01*
X17030000Y-7640000D02*
X16990000Y-7680000D01*
X16996000Y-4702000D02*
X17036000Y-4742000D01*
X17036000Y-4702000D02*
X16996000Y-4742000D01*
X17005000Y-4429000D02*
X17045000Y-4469000D01*
X17045000Y-4429000D02*
X17005000Y-4469000D01*
X17017500Y-3307500D02*
X17057500Y-3347500D01*
X17057500Y-3307500D02*
X17017500Y-3347500D01*
X17030000Y-6210000D02*
X17070000Y-6250000D01*
X17070000Y-6210000D02*
X17030000Y-6250000D01*
X17060000Y-5305000D02*
X17100000Y-5345000D01*
X17100000Y-5305000D02*
X17060000Y-5345000D01*
X17060000Y-5620000D02*
X17100000Y-5660000D01*
X17100000Y-5620000D02*
X17060000Y-5660000D01*
X17061937Y-5183166D02*
X17101937Y-5223166D01*
X17101937Y-5183166D02*
X17061937Y-5223166D01*
X17095000Y-3435000D02*
X17135000Y-3475000D01*
X17135000Y-3435000D02*
X17095000Y-3475000D01*
X17100000Y-3210000D02*
X17140000Y-3250000D01*
X17140000Y-3210000D02*
X17100000Y-3250000D01*
X17115000Y-3540000D02*
X17155000Y-3580000D01*
X17155000Y-3540000D02*
X17115000Y-3580000D01*
X17125000Y-4559000D02*
X17165000Y-4599000D01*
X17165000Y-4559000D02*
X17125000Y-4599000D01*
X17167968Y-5077135D02*
X17207968Y-5117135D01*
X17207968Y-5077135D02*
X17167968Y-5117135D01*
X17190000Y-3615050D02*
X17230000Y-3655050D01*
X17230000Y-3615050D02*
X17190000Y-3655050D01*
X17230000Y-4160000D02*
X17270000Y-4200000D01*
X17270000Y-4160000D02*
X17230000Y-4200000D01*
X17270000Y-5010000D02*
X17310000Y-5050000D01*
X17310000Y-5010000D02*
X17270000Y-5050000D01*
X17270000Y-5255000D02*
X17310000Y-5295000D01*
X17310000Y-5255000D02*
X17270000Y-5295000D01*
X17319858Y-3604858D02*
X17359858Y-3644858D01*
X17359858Y-3604858D02*
X17319858Y-3644858D01*
X17365312Y-4547658D02*
X17405312Y-4587658D01*
X17405312Y-4547658D02*
X17365312Y-4587658D01*
X17375000Y-3515000D02*
X17415000Y-3555000D01*
X17415000Y-3515000D02*
X17375000Y-3555000D01*
X17430000Y-7470000D02*
X17470000Y-7510000D01*
X17470000Y-7470000D02*
X17430000Y-7510000D01*
X17440000Y-6085000D02*
X17480000Y-6125000D01*
X17480000Y-6085000D02*
X17440000Y-6125000D01*
X17447590Y-4735000D02*
X17487590Y-4775000D01*
X17487590Y-4735000D02*
X17447590Y-4775000D01*
X17475000Y-3740000D02*
X17515000Y-3780000D01*
X17515000Y-3740000D02*
X17475000Y-3780000D01*
X17480000Y-4100000D02*
X17520000Y-4140000D01*
X17520000Y-4100000D02*
X17480000Y-4140000D01*
X17485000Y-3850000D02*
X17525000Y-3890000D01*
X17525000Y-3850000D02*
X17485000Y-3890000D01*
X17509302Y-4445680D02*
X17549302Y-4485680D01*
X17549302Y-4445680D02*
X17509302Y-4485680D01*
X17510095Y-3646414D02*
X17550095Y-3686414D01*
X17550095Y-3646414D02*
X17510095Y-3686414D01*
X17530000Y-5151000D02*
X17570000Y-5191000D01*
X17570000Y-5151000D02*
X17530000Y-5191000D01*
X17570000Y-6635000D02*
X17610000Y-6675000D01*
X17610000Y-6635000D02*
X17570000Y-6675000D01*
X17595000Y-4705000D02*
X17635000Y-4745000D01*
X17635000Y-4705000D02*
X17595000Y-4745000D01*
X17630000Y-5505000D02*
X17670000Y-5545000D01*
X17670000Y-5505000D02*
X17630000Y-5545000D01*
X17630000Y-5610000D02*
X17670000Y-5650000D01*
X17670000Y-5610000D02*
X17630000Y-5650000D01*
X17645000Y-4895000D02*
X17685000Y-4935000D01*
X17685000Y-4895000D02*
X17645000Y-4935000D01*
X17695000Y-3395000D02*
X17735000Y-3435000D01*
X17735000Y-3395000D02*
X17695000Y-3435000D01*
X17790000Y-5750000D02*
X17830000Y-5790000D01*
X17830000Y-5750000D02*
X17790000Y-5790000D01*
X17810000Y-5065000D02*
X17850000Y-5105000D01*
X17850000Y-5065000D02*
X17810000Y-5105000D01*
X17845000Y-9450000D02*
X17885000Y-9490000D01*
X17885000Y-9450000D02*
X17845000Y-9490000D01*
X17855000Y-9905000D02*
X17895000Y-9945000D01*
X17895000Y-9905000D02*
X17855000Y-9945000D01*
X17910000Y-8090000D02*
X17950000Y-8130000D01*
X17950000Y-8090000D02*
X17910000Y-8130000D01*
X17915000Y-4540000D02*
X17955000Y-4580000D01*
X17955000Y-4540000D02*
X17915000Y-4580000D01*
X17915000Y-10225000D02*
X17955000Y-10265000D01*
X17955000Y-10225000D02*
X17915000Y-10265000D01*
X18105000Y-4260000D02*
X18145000Y-4300000D01*
X18145000Y-4260000D02*
X18105000Y-4300000D01*
X18120000Y-3955000D02*
X18160000Y-3995000D01*
X18160000Y-3955000D02*
X18120000Y-3995000D01*
X18165000Y-7270000D02*
X18205000Y-7310000D01*
X18205000Y-7270000D02*
X18165000Y-7310000D01*
X18185000Y-4615000D02*
X18225000Y-4655000D01*
X18225000Y-4615000D02*
X18185000Y-4655000D01*
X18185000Y-5510000D02*
X18225000Y-5550000D01*
X18225000Y-5510000D02*
X18185000Y-5550000D01*
X18185000Y-5620000D02*
X18225000Y-5660000D01*
X18225000Y-5620000D02*
X18185000Y-5660000D01*
X18190000Y-10025000D02*
X18230000Y-10065000D01*
X18230000Y-10025000D02*
X18190000Y-10065000D01*
X18270000Y-9320000D02*
X18310000Y-9360000D01*
X18310000Y-9320000D02*
X18270000Y-9360000D01*
X18415000Y-5765000D02*
X18455000Y-5805000D01*
X18455000Y-5765000D02*
X18415000Y-5805000D01*
X18460000Y-10825000D02*
X18500000Y-10865000D01*
X18500000Y-10825000D02*
X18460000Y-10865000D01*
X18490000Y-4250000D02*
X18530000Y-4290000D01*
X18530000Y-4250000D02*
X18490000Y-4290000D01*
X18590000Y-6940000D02*
X18630000Y-6980000D01*
X18630000Y-6940000D02*
X18590000Y-6980000D01*
X18620000Y-9860000D02*
X18660000Y-9900000D01*
X18660000Y-9860000D02*
X18620000Y-9900000D01*
X18725000Y-10380000D02*
X18765000Y-10420000D01*
X18765000Y-10380000D02*
X18725000Y-10420000D01*
X18785000Y-4445000D02*
X18825000Y-4485000D01*
X18825000Y-4445000D02*
X18785000Y-4485000D01*
X18785000Y-4800000D02*
X18825000Y-4840000D01*
X18825000Y-4800000D02*
X18785000Y-4840000D01*
X18790000Y-3930000D02*
X18830000Y-3970000D01*
X18830000Y-3930000D02*
X18790000Y-3970000D01*
X18850000Y-10645000D02*
X18890000Y-10685000D01*
X18890000Y-10645000D02*
X18850000Y-10685000D01*
X18860000Y-7535000D02*
X18900000Y-7575000D01*
X18900000Y-7535000D02*
X18860000Y-7575000D01*
X18885000Y-9190000D02*
X18925000Y-9230000D01*
X18925000Y-9190000D02*
X18885000Y-9230000D01*
X18940000Y-6185000D02*
X18980000Y-6225000D01*
X18980000Y-6185000D02*
X18940000Y-6225000D01*
X19055000Y-5400000D02*
X19095000Y-5440000D01*
X19095000Y-5400000D02*
X19055000Y-5440000D01*
X19090000Y-4260000D02*
X19130000Y-4300000D01*
X19130000Y-4260000D02*
X19090000Y-4300000D01*
X19180000Y-5635000D02*
X19220000Y-5675000D01*
X19220000Y-5635000D02*
X19180000Y-5675000D01*
X19240000Y-5145000D02*
X19280000Y-5185000D01*
X19280000Y-5145000D02*
X19240000Y-5185000D01*
X19255000Y-4515000D02*
X19295000Y-4555000D01*
X19295000Y-4515000D02*
X19255000Y-4555000D01*
X19275000Y-9435000D02*
X19315000Y-9475000D01*
X19315000Y-9435000D02*
X19275000Y-9475000D01*
X19335000Y-7455000D02*
X19375000Y-7495000D01*
X19375000Y-7455000D02*
X19335000Y-7495000D01*
X19375000Y-8100000D02*
X19415000Y-8140000D01*
X19415000Y-8100000D02*
X19375000Y-8140000D01*
X19385000Y-4085000D02*
X19425000Y-4125000D01*
X19425000Y-4085000D02*
X19385000Y-4125000D01*
X19430000Y-4880000D02*
X19470000Y-4920000D01*
X19470000Y-4880000D02*
X19430000Y-4920000D01*
X19480000Y-6760000D02*
X19520000Y-6800000D01*
X19520000Y-6760000D02*
X19480000Y-6800000D01*
X19675000Y-4410000D02*
X19715000Y-4450000D01*
X19715000Y-4410000D02*
X19675000Y-4450000D01*
X19695000Y-6575000D02*
X19735000Y-6615000D01*
X19735000Y-6575000D02*
X19695000Y-6615000D01*
X19740000Y-6915000D02*
X19780000Y-6955000D01*
X19780000Y-6915000D02*
X19740000Y-6955000D01*
X19745000Y-9375000D02*
X19785000Y-9415000D01*
X19785000Y-9375000D02*
X19745000Y-9415000D01*
X19795000Y-9895000D02*
X19835000Y-9935000D01*
X19835000Y-9895000D02*
X19795000Y-9935000D01*
X19880000Y-7050000D02*
X19920000Y-7090000D01*
X19920000Y-7050000D02*
X19880000Y-7090000D01*
X19885000Y-11235000D02*
X19925000Y-11275000D01*
X19925000Y-11235000D02*
X19885000Y-11275000D01*
X19945000Y-6550000D02*
X19985000Y-6590000D01*
X19985000Y-6550000D02*
X19945000Y-6590000D01*
X19970000Y-5400000D02*
X20010000Y-5440000D01*
X20010000Y-5400000D02*
X19970000Y-5440000D01*
X20010000Y-3727500D02*
X20050000Y-3767500D01*
X20050000Y-3727500D02*
X20010000Y-3767500D01*
X20015000Y-4885000D02*
X20055000Y-4925000D01*
X20055000Y-4885000D02*
X20015000Y-4925000D01*
X20055000Y-11750000D02*
X20095000Y-11790000D01*
X20095000Y-11750000D02*
X20055000Y-11790000D01*
X20095000Y-3660000D02*
X20135000Y-3700000D01*
X20135000Y-3660000D02*
X20095000Y-3700000D01*
X20120000Y-7445000D02*
X20160000Y-7485000D01*
X20160000Y-7445000D02*
X20120000Y-7485000D01*
X20145000Y-6430000D02*
X20185000Y-6470000D01*
X20185000Y-6430000D02*
X20145000Y-6470000D01*
X20162500Y-6192500D02*
X20202500Y-6232500D01*
X20202500Y-6192500D02*
X20162500Y-6232500D01*
X20190000Y-7125000D02*
X20230000Y-7165000D01*
X20230000Y-7125000D02*
X20190000Y-7165000D01*
X20195000Y-6080000D02*
X20235000Y-6120000D01*
X20235000Y-6080000D02*
X20195000Y-6120000D01*
X20210000Y-3680000D02*
X20250000Y-3720000D01*
X20250000Y-3680000D02*
X20210000Y-3720000D01*
X20210000Y-5190000D02*
X20250000Y-5230000D01*
X20250000Y-5190000D02*
X20210000Y-5230000D01*
X20230000Y-9300000D02*
X20270000Y-9340000D01*
X20270000Y-9300000D02*
X20230000Y-9340000D01*
X20235000Y-6365000D02*
X20275000Y-6405000D01*
X20275000Y-6365000D02*
X20235000Y-6405000D01*
X20275000Y-4205000D02*
X20315000Y-4245000D01*
X20315000Y-4205000D02*
X20275000Y-4245000D01*
X20306605Y-3592500D02*
X20346605Y-3632500D01*
X20346605Y-3592500D02*
X20306605Y-3632500D01*
X20357500Y-5552500D02*
X20397500Y-5592500D01*
X20397500Y-5552500D02*
X20357500Y-5592500D01*
X20395000Y-3540000D02*
X20435000Y-3580000D01*
X20435000Y-3540000D02*
X20395000Y-3580000D01*
X20455000Y-11215000D02*
X20495000Y-11255000D01*
X20495000Y-11215000D02*
X20455000Y-11255000D01*
X20470000Y-12155000D02*
X20510000Y-12195000D01*
X20510000Y-12155000D02*
X20470000Y-12195000D01*
X20482002Y-3482998D02*
X20522002Y-3522998D01*
X20522002Y-3482998D02*
X20482002Y-3522998D01*
X20530000Y-9505000D02*
X20570000Y-9545000D01*
X20570000Y-9505000D02*
X20530000Y-9545000D01*
X20570000Y-6870000D02*
X20610000Y-6910000D01*
X20610000Y-6870000D02*
X20570000Y-6910000D01*
X20600000Y-6600000D02*
X20640000Y-6640000D01*
X20640000Y-6600000D02*
X20600000Y-6640000D01*
X20630000Y-5550000D02*
X20670000Y-5590000D01*
X20670000Y-5550000D02*
X20630000Y-5590000D01*
X20665000Y-6200000D02*
X20705000Y-6240000D01*
X20705000Y-6200000D02*
X20665000Y-6240000D01*
X20670000Y-3470000D02*
X20710000Y-3510000D01*
X20710000Y-3470000D02*
X20670000Y-3510000D01*
X20715000Y-6635000D02*
X20755000Y-6675000D01*
X20755000Y-6635000D02*
X20715000Y-6675000D01*
X20745000Y-6745000D02*
X20785000Y-6785000D01*
X20785000Y-6745000D02*
X20745000Y-6785000D01*
X20755000Y-3405000D02*
X20795000Y-3445000D01*
X20795000Y-3405000D02*
X20755000Y-3445000D01*
X20760000Y-10565000D02*
X20800000Y-10605000D01*
X20800000Y-10565000D02*
X20760000Y-10605000D01*
X20760000Y-11740000D02*
X20800000Y-11780000D01*
X20800000Y-11740000D02*
X20760000Y-11780000D01*
X20770000Y-5110000D02*
X20810000Y-5150000D01*
X20810000Y-5110000D02*
X20770000Y-5150000D01*
X20785000Y-10145000D02*
X20825000Y-10185000D01*
X20825000Y-10145000D02*
X20785000Y-10185000D01*
X20810000Y-7495000D02*
X20850000Y-7535000D01*
X20850000Y-7495000D02*
X20810000Y-7535000D01*
X20815000Y-3905000D02*
X20855000Y-3945000D01*
X20855000Y-3905000D02*
X20815000Y-3945000D01*
X20975000Y-3315000D02*
X21015000Y-3355000D01*
X21015000Y-3315000D02*
X20975000Y-3355000D01*
X21050000Y-3727500D02*
X21090000Y-3767500D01*
X21090000Y-3727500D02*
X21050000Y-3767500D01*
X21100000Y-7335000D02*
X21140000Y-7375000D01*
X21140000Y-7335000D02*
X21100000Y-7375000D01*
X21165000Y-5615000D02*
X21205000Y-5655000D01*
X21205000Y-5615000D02*
X21165000Y-5655000D01*
X21165000Y-6155000D02*
X21205000Y-6195000D01*
X21205000Y-6155000D02*
X21165000Y-6195000D01*
X21245000Y-4160000D02*
X21285000Y-4200000D01*
X21285000Y-4160000D02*
X21245000Y-4200000D01*
X21260000Y-8710000D02*
X21300000Y-8750000D01*
X21300000Y-8710000D02*
X21260000Y-8750000D01*
X21300000Y-7205000D02*
X21340000Y-7245000D01*
X21340000Y-7205000D02*
X21300000Y-7245000D01*
X21315000Y-5255000D02*
X21355000Y-5295000D01*
X21355000Y-5255000D02*
X21315000Y-5295000D01*
X21425000Y-7425000D02*
X21465000Y-7465000D01*
X21465000Y-7425000D02*
X21425000Y-7465000D01*
X21430000Y-6150000D02*
X21470000Y-6190000D01*
X21470000Y-6150000D02*
X21430000Y-6190000D01*
X21495000Y-8000000D02*
X21535000Y-8040000D01*
X21535000Y-8000000D02*
X21495000Y-8040000D01*
X21530000Y-6515000D02*
X21570000Y-6555000D01*
X21570000Y-6515000D02*
X21530000Y-6555000D01*
X21655000Y-5400000D02*
X21695000Y-5440000D01*
X21695000Y-5400000D02*
X21655000Y-5440000D01*
X21655000Y-6085000D02*
X21695000Y-6125000D01*
X21695000Y-6085000D02*
X21655000Y-6125000D01*
X21729000Y-4310000D02*
X21769000Y-4350000D01*
X21769000Y-4310000D02*
X21729000Y-4350000D01*
X21735000Y-9295000D02*
X21775000Y-9335000D01*
X21775000Y-9295000D02*
X21735000Y-9335000D01*
X21780000Y-6990000D02*
X21820000Y-7030000D01*
X21820000Y-6990000D02*
X21780000Y-7030000D01*
X21805000Y-6700000D02*
X21845000Y-6740000D01*
X21845000Y-6700000D02*
X21805000Y-6740000D01*
X21950000Y-3855000D02*
X21990000Y-3895000D01*
X21990000Y-3855000D02*
X21950000Y-3895000D01*
X22045000Y-7675000D02*
X22085000Y-7715000D01*
X22085000Y-7675000D02*
X22045000Y-7715000D01*
X22050000Y-4655000D02*
X22090000Y-4695000D01*
X22090000Y-4655000D02*
X22050000Y-4695000D01*
X22140000Y-6960000D02*
X22180000Y-7000000D01*
X22180000Y-6960000D02*
X22140000Y-7000000D01*
X22205000Y-6310000D02*
X22245000Y-6350000D01*
X22245000Y-6310000D02*
X22205000Y-6350000D01*
X22245000Y-9330000D02*
X22285000Y-9370000D01*
X22285000Y-9330000D02*
X22245000Y-9370000D01*
X22250000Y-10225000D02*
X22290000Y-10265000D01*
X22290000Y-10225000D02*
X22250000Y-10265000D01*
X22420000Y-5530000D02*
X22460000Y-5570000D01*
X22460000Y-5530000D02*
X22420000Y-5570000D01*
X22425000Y-9840000D02*
X22465000Y-9880000D01*
X22465000Y-9840000D02*
X22425000Y-9880000D01*
X22440000Y-8050000D02*
X22480000Y-8090000D01*
X22480000Y-8050000D02*
X22440000Y-8090000D01*
X22485000Y-8840000D02*
X22525000Y-8880000D01*
X22525000Y-8840000D02*
X22485000Y-8880000D01*
X22500000Y-10565000D02*
X22540000Y-10605000D01*
X22540000Y-10565000D02*
X22500000Y-10605000D01*
X22730000Y-7545000D02*
X22770000Y-7585000D01*
X22770000Y-7545000D02*
X22730000Y-7585000D01*
X22840000Y-8155000D02*
X22880000Y-8195000D01*
X22880000Y-8155000D02*
X22840000Y-8195000D01*
X22855000Y-4940000D02*
X22895000Y-4980000D01*
X22895000Y-4940000D02*
X22855000Y-4980000D01*
X22855000Y-9775000D02*
X22895000Y-9815000D01*
X22895000Y-9775000D02*
X22855000Y-9815000D01*
X22880000Y-5565000D02*
X22920000Y-5605000D01*
X22920000Y-5565000D02*
X22880000Y-5605000D01*
X22895000Y-6030000D02*
X22935000Y-6070000D01*
X22935000Y-6030000D02*
X22895000Y-6070000D01*
X22900000Y-6445000D02*
X22940000Y-6485000D01*
X22940000Y-6445000D02*
X22900000Y-6485000D01*
X23150000Y-4155000D02*
X23190000Y-4195000D01*
X23190000Y-4155000D02*
X23150000Y-4195000D01*
X23190000Y-10180000D02*
X23230000Y-10220000D01*
X23230000Y-10180000D02*
X23190000Y-10220000D01*
X23220000Y-7440000D02*
X23260000Y-7480000D01*
X23260000Y-7440000D02*
X23220000Y-7480000D01*
X23400000Y-7975000D02*
X23440000Y-8015000D01*
X23440000Y-7975000D02*
X23400000Y-8015000D01*
X23535000Y-9400000D02*
X23575000Y-9440000D01*
X23575000Y-9400000D02*
X23535000Y-9440000D01*
X23575000Y-4315000D02*
X23615000Y-4355000D01*
X23615000Y-4315000D02*
X23575000Y-4355000D01*
X23775000Y-11225000D02*
X23815000Y-11265000D01*
X23815000Y-11225000D02*
X23775000Y-11265000D01*
X23885000Y-11760000D02*
X23925000Y-11800000D01*
X23925000Y-11760000D02*
X23885000Y-11800000D01*
X23915000Y-8580000D02*
X23955000Y-8620000D01*
X23955000Y-8580000D02*
X23915000Y-8620000D01*
X23920000Y-4185000D02*
X23960000Y-4225000D01*
X23960000Y-4185000D02*
X23920000Y-4225000D01*
X24025000Y-6100000D02*
X24065000Y-6140000D01*
X24065000Y-6100000D02*
X24025000Y-6140000D01*
X24085000Y-4940000D02*
X24125000Y-4980000D01*
X24125000Y-4940000D02*
X24085000Y-4980000D01*
X24150000Y-9325000D02*
X24190000Y-9365000D01*
X24190000Y-9325000D02*
X24150000Y-9365000D01*
X24195000Y-11230000D02*
X24235000Y-11270000D01*
X24235000Y-11230000D02*
X24195000Y-11270000D01*
X24250000Y-12120000D02*
X24290000Y-12160000D01*
X24290000Y-12120000D02*
X24250000Y-12160000D01*
X24335000Y-9875000D02*
X24375000Y-9915000D01*
X24375000Y-9875000D02*
X24335000Y-9915000D01*
X24385000Y-4885000D02*
X24425000Y-4925000D01*
X24425000Y-4885000D02*
X24385000Y-4925000D01*
X24420000Y-3925000D02*
X24460000Y-3965000D01*
X24460000Y-3925000D02*
X24420000Y-3965000D01*
X24575000Y-11445000D02*
X24615000Y-11485000D01*
X24615000Y-11445000D02*
X24575000Y-11485000D01*
X24615000Y-7940000D02*
X24655000Y-7980000D01*
X24655000Y-7940000D02*
X24615000Y-7980000D01*
X24620000Y-8550000D02*
X24660000Y-8590000D01*
X24660000Y-8550000D02*
X24620000Y-8590000D01*
X24625000Y-5550000D02*
X24665000Y-5590000D01*
X24665000Y-5550000D02*
X24625000Y-5590000D01*
X24630000Y-7320000D02*
X24670000Y-7360000D01*
X24670000Y-7320000D02*
X24630000Y-7360000D01*
X24695000Y-8960000D02*
X24735000Y-9000000D01*
X24735000Y-8960000D02*
X24695000Y-9000000D01*
X24720000Y-6200000D02*
X24760000Y-6240000D01*
X24760000Y-6200000D02*
X24720000Y-6240000D01*
X25000000Y-8650000D02*
X25040000Y-8690000D01*
X25040000Y-8650000D02*
X25000000Y-8690000D01*
X25080000Y-7300000D02*
X25120000Y-7340000D01*
X25120000Y-7300000D02*
X25080000Y-7340000D01*
X25105000Y-4805000D02*
X25145000Y-4845000D01*
X25145000Y-4805000D02*
X25105000Y-4845000D01*
X25300000Y-7560000D02*
X25340000Y-7600000D01*
X25340000Y-7560000D02*
X25300000Y-7600000D01*
X25315000Y-8085000D02*
X25355000Y-8125000D01*
X25355000Y-8085000D02*
X25315000Y-8125000D01*
X25420000Y-4890000D02*
X25460000Y-4930000D01*
X25460000Y-4890000D02*
X25420000Y-4930000D01*
X25475000Y-10835000D02*
X25515000Y-10875000D01*
X25515000Y-10835000D02*
X25475000Y-10875000D01*
X25560000Y-9775000D02*
X25600000Y-9815000D01*
X25600000Y-9775000D02*
X25560000Y-9815000D01*
X25575000Y-4295000D02*
X25615000Y-4335000D01*
X25615000Y-4295000D02*
X25575000Y-4335000D01*
X25575000Y-9295000D02*
X25615000Y-9335000D01*
X25615000Y-9295000D02*
X25575000Y-9335000D01*
X25655000Y-11315000D02*
X25695000Y-11355000D01*
X25695000Y-11315000D02*
X25655000Y-11355000D01*
X25700000Y-5670000D02*
X25740000Y-5710000D01*
X25740000Y-5670000D02*
X25700000Y-5710000D01*
X25795000Y-3325000D02*
X25835000Y-3365000D01*
X25835000Y-3325000D02*
X25795000Y-3365000D01*
X25815000Y-3830000D02*
X25855000Y-3870000D01*
X25855000Y-3830000D02*
X25815000Y-3870000D01*
X25880000Y-6910000D02*
X25920000Y-6950000D01*
X25920000Y-6910000D02*
X25880000Y-6950000D01*
X25900000Y-3727500D02*
X25940000Y-3767500D01*
X25940000Y-3727500D02*
X25900000Y-3767500D01*
X25960000Y-9300000D02*
X26000000Y-9340000D01*
X26000000Y-9300000D02*
X25960000Y-9340000D01*
X25985000Y-7850000D02*
X26025000Y-7890000D01*
X26025000Y-7850000D02*
X25985000Y-7890000D01*
X25989975Y-3514975D02*
X26029975Y-3554975D01*
X26029975Y-3514975D02*
X25989975Y-3554975D01*
X25995000Y-11090000D02*
X26035000Y-11130000D01*
X26035000Y-11090000D02*
X25995000Y-11130000D01*
X26020000Y-10030000D02*
X26060000Y-10070000D01*
X26060000Y-10030000D02*
X26020000Y-10070000D01*
X26040000Y-3845000D02*
X26080000Y-3885000D01*
X26080000Y-3845000D02*
X26040000Y-3885000D01*
X26040000Y-11770000D02*
X26080000Y-11810000D01*
X26080000Y-11770000D02*
X26040000Y-11810000D01*
X26045000Y-5880000D02*
X26085000Y-5920000D01*
X26085000Y-5880000D02*
X26045000Y-5920000D01*
X26105000Y-3335000D02*
X26145000Y-3375000D01*
X26145000Y-3335000D02*
X26105000Y-3375000D01*
X26120000Y-3550000D02*
X26160000Y-3590000D01*
X26160000Y-3550000D02*
X26120000Y-3590000D01*
X26140000Y-6200000D02*
X26180000Y-6240000D01*
X26180000Y-6200000D02*
X26140000Y-6240000D01*
X26190000Y-4150000D02*
X26230000Y-4190000D01*
X26230000Y-4150000D02*
X26190000Y-4190000D01*
X26200000Y-5545000D02*
X26240000Y-5585000D01*
X26240000Y-5545000D02*
X26200000Y-5585000D01*
X26230000Y-3620000D02*
X26270000Y-3660000D01*
X26270000Y-3620000D02*
X26230000Y-3660000D01*
X26300000Y-9450000D02*
X26340000Y-9490000D01*
X26340000Y-9450000D02*
X26300000Y-9490000D01*
X26345000Y-3820000D02*
X26385000Y-3860000D01*
X26385000Y-3820000D02*
X26345000Y-3860000D01*
X26350000Y-3350000D02*
X26390000Y-3390000D01*
X26390000Y-3350000D02*
X26350000Y-3390000D01*
X26350000Y-3460000D02*
X26390000Y-3500000D01*
X26390000Y-3460000D02*
X26350000Y-3500000D01*
X26380000Y-6580000D02*
X26420000Y-6620000D01*
X26420000Y-6580000D02*
X26380000Y-6620000D01*
X26435000Y-11230000D02*
X26475000Y-11270000D01*
X26475000Y-11230000D02*
X26435000Y-11270000D01*
X26435000Y-12165000D02*
X26475000Y-12205000D01*
X26475000Y-12165000D02*
X26435000Y-12205000D01*
X26452500Y-6332500D02*
X26492500Y-6372500D01*
X26492500Y-6332500D02*
X26452500Y-6372500D01*
X26455000Y-3325000D02*
X26495000Y-3365000D01*
X26495000Y-3325000D02*
X26455000Y-3365000D01*
X26485000Y-7595000D02*
X26525000Y-7635000D01*
X26525000Y-7595000D02*
X26485000Y-7635000D01*
X26570000Y-7130000D02*
X26610000Y-7170000D01*
X26610000Y-7130000D02*
X26570000Y-7170000D01*
X26600000Y-3320000D02*
X26640000Y-3360000D01*
X26640000Y-3320000D02*
X26600000Y-3360000D01*
X26600000Y-6170000D02*
X26640000Y-6210000D01*
X26640000Y-6170000D02*
X26600000Y-6210000D01*
X26610000Y-3865000D02*
X26650000Y-3905000D01*
X26650000Y-3865000D02*
X26610000Y-3905000D01*
X26655000Y-3727500D02*
X26695000Y-3767500D01*
X26695000Y-3727500D02*
X26655000Y-3767500D01*
X26695000Y-11475000D02*
X26735000Y-11515000D01*
X26735000Y-11475000D02*
X26695000Y-11515000D01*
X26785000Y-6910000D02*
X26825000Y-6950000D01*
X26825000Y-6910000D02*
X26785000Y-6950000D01*
X26815000Y-7185000D02*
X26855000Y-7225000D01*
X26855000Y-7185000D02*
X26815000Y-7225000D01*
X26900000Y-6135000D02*
X26940000Y-6175000D01*
X26940000Y-6135000D02*
X26900000Y-6175000D01*
X26905000Y-6445000D02*
X26945000Y-6485000D01*
X26945000Y-6445000D02*
X26905000Y-6485000D01*
X26945000Y-8765000D02*
X26985000Y-8805000D01*
X26985000Y-8765000D02*
X26945000Y-8805000D01*
X26970000Y-7410000D02*
X27010000Y-7450000D01*
X27010000Y-7410000D02*
X26970000Y-7450000D01*
X26975000Y-4085000D02*
X27015000Y-4125000D01*
X27015000Y-4085000D02*
X26975000Y-4125000D01*
X26985000Y-8110000D02*
X27025000Y-8150000D01*
X27025000Y-8110000D02*
X26985000Y-8150000D01*
X27165000Y-3325000D02*
X27205000Y-3365000D01*
X27205000Y-3325000D02*
X27165000Y-3365000D01*
X27180000Y-5250000D02*
X27220000Y-5290000D01*
X27220000Y-5250000D02*
X27180000Y-5290000D01*
X27240000Y-7375000D02*
X27280000Y-7415000D01*
X27280000Y-7375000D02*
X27240000Y-7415000D01*
X27240000Y-9480000D02*
X27280000Y-9520000D01*
X27280000Y-9480000D02*
X27240000Y-9520000D01*
X27285000Y-5275000D02*
X27325000Y-5315000D01*
X27325000Y-5275000D02*
X27285000Y-5315000D01*
X27300000Y-6540000D02*
X27340000Y-6580000D01*
X27340000Y-6540000D02*
X27300000Y-6580000D01*
X27325000Y-8565000D02*
X27365000Y-8605000D01*
X27365000Y-8565000D02*
X27325000Y-8605000D01*
X27340000Y-6345000D02*
X27380000Y-6385000D01*
X27380000Y-6345000D02*
X27340000Y-6385000D01*
X27500000Y-3225000D02*
X27540000Y-3265000D01*
X27540000Y-3225000D02*
X27500000Y-3265000D01*
X27500000Y-4298000D02*
X27540000Y-4338000D01*
X27540000Y-4298000D02*
X27500000Y-4338000D01*
X27505000Y-6315000D02*
X27545000Y-6355000D01*
X27545000Y-6315000D02*
X27505000Y-6355000D01*
X27622500Y-3727500D02*
X27662500Y-3767500D01*
X27662500Y-3727500D02*
X27622500Y-3767500D01*
X27645000Y-3880000D02*
X27685000Y-3920000D01*
X27685000Y-3880000D02*
X27645000Y-3920000D01*
X27655000Y-3255000D02*
X27695000Y-3295000D01*
X27695000Y-3255000D02*
X27655000Y-3295000D01*
X27695000Y-4610000D02*
X27735000Y-4650000D01*
X27735000Y-4610000D02*
X27695000Y-4650000D01*
X27720000Y-3345000D02*
X27760000Y-3385000D01*
X27760000Y-3345000D02*
X27720000Y-3385000D01*
X27785000Y-5295000D02*
X27825000Y-5335000D01*
X27825000Y-5295000D02*
X27785000Y-5335000D01*
X27812500Y-3430000D02*
X27852500Y-3470000D01*
X27852500Y-3430000D02*
X27812500Y-3470000D01*
X27815000Y-4615000D02*
X27855000Y-4655000D01*
X27855000Y-4615000D02*
X27815000Y-4655000D01*
X27825000Y-7410000D02*
X27865000Y-7450000D01*
X27865000Y-7410000D02*
X27825000Y-7450000D01*
X27850000Y-9310000D02*
X27890000Y-9350000D01*
X27890000Y-9310000D02*
X27850000Y-9350000D01*
X27945000Y-6985000D02*
X27985000Y-7025000D01*
X27985000Y-6985000D02*
X27945000Y-7025000D01*
X27980000Y-3542500D02*
X28020000Y-3582500D01*
X28020000Y-3542500D02*
X27980000Y-3582500D01*
X28055000Y-6180000D02*
X28095000Y-6220000D01*
X28095000Y-6180000D02*
X28055000Y-6220000D01*
X28110000Y-3855000D02*
X28150000Y-3895000D01*
X28150000Y-3855000D02*
X28110000Y-3895000D01*
X28115000Y-3490000D02*
X28155000Y-3530000D01*
X28155000Y-3490000D02*
X28115000Y-3530000D01*
X28120000Y-9620000D02*
X28160000Y-9660000D01*
X28160000Y-9620000D02*
X28120000Y-9660000D01*
X28155000Y-7550000D02*
X28195000Y-7590000D01*
X28195000Y-7550000D02*
X28155000Y-7590000D01*
X28180000Y-3727500D02*
X28220000Y-3767500D01*
X28220000Y-3727500D02*
X28180000Y-3767500D01*
X28180000Y-5205000D02*
X28220000Y-5245000D01*
X28220000Y-5205000D02*
X28180000Y-5245000D01*
X28230000Y-3510050D02*
X28270000Y-3550050D01*
X28270000Y-3510050D02*
X28230000Y-3550050D01*
X28255000Y-10495000D02*
X28295000Y-10535000D01*
X28295000Y-10495000D02*
X28255000Y-10535000D01*
X28280000Y-6575000D02*
X28320000Y-6615000D01*
X28320000Y-6575000D02*
X28280000Y-6615000D01*
X28345000Y-7405000D02*
X28385000Y-7445000D01*
X28385000Y-7405000D02*
X28345000Y-7445000D01*
X28435000Y-6225000D02*
X28475000Y-6265000D01*
X28475000Y-6225000D02*
X28435000Y-6265000D01*
X28525000Y-3300000D02*
X28565000Y-3340000D01*
X28565000Y-3300000D02*
X28525000Y-3340000D01*
X28575000Y-11355000D02*
X28615000Y-11395000D01*
X28615000Y-11355000D02*
X28575000Y-11395000D01*
X28580000Y-8160000D02*
X28620000Y-8200000D01*
X28620000Y-8160000D02*
X28580000Y-8200000D01*
X28585000Y-5775000D02*
X28625000Y-5815000D01*
X28625000Y-5775000D02*
X28585000Y-5815000D01*
X28600000Y-7430000D02*
X28640000Y-7470000D01*
X28640000Y-7430000D02*
X28600000Y-7470000D01*
X28625000Y-6845000D02*
X28665000Y-6885000D01*
X28665000Y-6845000D02*
X28625000Y-6885000D01*
X28640000Y-4670000D02*
X28680000Y-4710000D01*
X28680000Y-4670000D02*
X28640000Y-4710000D01*
X28650000Y-6355000D02*
X28690000Y-6395000D01*
X28690000Y-6355000D02*
X28650000Y-6395000D01*
X28705000Y-9865000D02*
X28745000Y-9905000D01*
X28745000Y-9865000D02*
X28705000Y-9905000D01*
X28800000Y-7230000D02*
X28840000Y-7270000D01*
X28840000Y-7230000D02*
X28800000Y-7270000D01*
X28820000Y-6930000D02*
X28860000Y-6970000D01*
X28860000Y-6930000D02*
X28820000Y-6970000D01*
X28900000Y-3995000D02*
X28940000Y-4035000D01*
X28940000Y-3995000D02*
X28900000Y-4035000D01*
X28910000Y-6250000D02*
X28950000Y-6290000D01*
X28950000Y-6250000D02*
X28910000Y-6290000D01*
X29065000Y-7890000D02*
X29105000Y-7930000D01*
X29105000Y-7890000D02*
X29065000Y-7930000D01*
X29080000Y-7175000D02*
X29120000Y-7215000D01*
X29120000Y-7175000D02*
X29080000Y-7215000D01*
X29265000Y-12185000D02*
X29305000Y-12225000D01*
X29305000Y-12185000D02*
X29265000Y-12225000D01*
X29315000Y-11225000D02*
X29355000Y-11265000D01*
X29355000Y-11225000D02*
X29315000Y-11265000D01*
X29320000Y-5185000D02*
X29360000Y-5225000D01*
X29360000Y-5185000D02*
X29320000Y-5225000D01*
X29390000Y-4325000D02*
X29430000Y-4365000D01*
X29430000Y-4325000D02*
X29390000Y-4365000D01*
X29470000Y-10230000D02*
X29510000Y-10270000D01*
X29510000Y-10230000D02*
X29470000Y-10270000D01*
X29535000Y-3840000D02*
X29575000Y-3880000D01*
X29575000Y-3840000D02*
X29535000Y-3880000D01*
X29555000Y-11560000D02*
X29595000Y-11600000D01*
X29595000Y-11560000D02*
X29555000Y-11600000D01*
X29680000Y-4725000D02*
X29720000Y-4765000D01*
X29720000Y-4725000D02*
X29680000Y-4765000D01*
X29760000Y-10340000D02*
X29800000Y-10380000D01*
X29800000Y-10340000D02*
X29760000Y-10380000D01*
X29835000Y-5750000D02*
X29875000Y-5790000D01*
X29875000Y-5750000D02*
X29835000Y-5790000D01*
X29875000Y-3727500D02*
X29915000Y-3767500D01*
X29915000Y-3727500D02*
X29875000Y-3767500D01*
X30045000Y-8160000D02*
X30085000Y-8200000D01*
X30085000Y-8160000D02*
X30045000Y-8200000D01*
X30210000Y-6255000D02*
X30250000Y-6295000D01*
X30250000Y-6255000D02*
X30210000Y-6295000D01*
X30225000Y-4575000D02*
X30265000Y-4615000D01*
X30265000Y-4575000D02*
X30225000Y-4615000D01*
X30290000Y-5540000D02*
X30330000Y-5580000D01*
X30330000Y-5540000D02*
X30290000Y-5580000D01*
X30290000Y-7555000D02*
X30330000Y-7595000D01*
X30330000Y-7555000D02*
X30290000Y-7595000D01*
X30345000Y-4065000D02*
X30385000Y-4105000D01*
X30385000Y-4065000D02*
X30345000Y-4105000D01*
X30415000Y-9900000D02*
X30455000Y-9940000D01*
X30455000Y-9900000D02*
X30415000Y-9940000D01*
X30525000Y-3595000D02*
X30565000Y-3635000D01*
X30565000Y-3595000D02*
X30525000Y-3635000D01*
X30575000Y-6195000D02*
X30615000Y-6235000D01*
X30615000Y-6195000D02*
X30575000Y-6235000D01*
X30655000Y-6750000D02*
X30695000Y-6790000D01*
X30695000Y-6750000D02*
X30655000Y-6790000D01*
X30700000Y-10055000D02*
X30740000Y-10095000D01*
X30740000Y-10055000D02*
X30700000Y-10095000D01*
X30730000Y-7465000D02*
X30770000Y-7505000D01*
X30770000Y-7465000D02*
X30730000Y-7505000D01*
X30740000Y-9230000D02*
X30780000Y-9270000D01*
X30780000Y-9230000D02*
X30740000Y-9270000D01*
X30770000Y-3875000D02*
X30810000Y-3915000D01*
X30810000Y-3875000D02*
X30770000Y-3915000D01*
X30845000Y-8520000D02*
X30885000Y-8560000D01*
X30885000Y-8520000D02*
X30845000Y-8560000D01*
X30895000Y-11215000D02*
X30935000Y-11255000D01*
X30935000Y-11215000D02*
X30895000Y-11255000D01*
X30970000Y-7195000D02*
X31010000Y-7235000D01*
X31010000Y-7195000D02*
X30970000Y-7235000D01*
X30970000Y-8920000D02*
X31010000Y-8960000D01*
X31010000Y-8920000D02*
X30970000Y-8960000D01*
X30970000Y-9425000D02*
X31010000Y-9465000D01*
X31010000Y-9425000D02*
X30970000Y-9465000D01*
X30975000Y-6815000D02*
X31015000Y-6855000D01*
X31015000Y-6815000D02*
X30975000Y-6855000D01*
X31140000Y-8405000D02*
X31180000Y-8445000D01*
X31180000Y-8405000D02*
X31140000Y-8445000D01*
X31150000Y-3727500D02*
X31190000Y-3767500D01*
X31190000Y-3727500D02*
X31150000Y-3767500D01*
X31215000Y-5785000D02*
X31255000Y-5825000D01*
X31255000Y-5785000D02*
X31215000Y-5825000D01*
X31215000Y-12145000D02*
X31255000Y-12185000D01*
X31255000Y-12145000D02*
X31215000Y-12185000D01*
X31230000Y-6550000D02*
X31270000Y-6590000D01*
X31270000Y-6550000D02*
X31230000Y-6590000D01*
X31320000Y-11265000D02*
X31360000Y-11305000D01*
X31360000Y-11265000D02*
X31320000Y-11305000D01*
X31445000Y-9365000D02*
X31485000Y-9405000D01*
X31485000Y-9365000D02*
X31445000Y-9405000D01*
X31455000Y-11530000D02*
X31495000Y-11570000D01*
X31495000Y-11530000D02*
X31455000Y-11570000D01*
X31495000Y-4560000D02*
X31535000Y-4600000D01*
X31535000Y-4560000D02*
X31495000Y-4600000D01*
X31565000Y-7415000D02*
X31605000Y-7455000D01*
X31605000Y-7415000D02*
X31565000Y-7455000D01*
X31690000Y-4165000D02*
X31730000Y-4205000D01*
X31730000Y-4165000D02*
X31690000Y-4205000D01*
X31690000Y-7025000D02*
X31730000Y-7065000D01*
X31730000Y-7025000D02*
X31690000Y-7065000D01*
X31720000Y-6425000D02*
X31760000Y-6465000D01*
X31760000Y-6425000D02*
X31720000Y-6465000D01*
X31725000Y-9845000D02*
X31765000Y-9885000D01*
X31765000Y-9845000D02*
X31725000Y-9885000D01*
X31805000Y-5320000D02*
X31845000Y-5360000D01*
X31845000Y-5320000D02*
X31805000Y-5360000D01*
X31890000Y-7555000D02*
X31930000Y-7595000D01*
X31930000Y-7555000D02*
X31890000Y-7595000D01*
X31995000Y-6565000D02*
X32035000Y-6605000D01*
X32035000Y-6565000D02*
X31995000Y-6605000D01*
X32065000Y-3460000D02*
X32105000Y-3500000D01*
X32105000Y-3460000D02*
X32065000Y-3500000D01*
X32105000Y-7410000D02*
X32145000Y-7450000D01*
X32145000Y-7410000D02*
X32105000Y-7450000D01*
X32170000Y-7050000D02*
X32210000Y-7090000D01*
X32210000Y-7050000D02*
X32170000Y-7090000D01*
X32225000Y-4325000D02*
X32265000Y-4365000D01*
X32265000Y-4325000D02*
X32225000Y-4365000D01*
X32230000Y-7240000D02*
X32270000Y-7280000D01*
X32270000Y-7240000D02*
X32230000Y-7280000D01*
X32270000Y-6595000D02*
X32310000Y-6635000D01*
X32310000Y-6595000D02*
X32270000Y-6635000D01*
X32365000Y-11355000D02*
X32405000Y-11395000D01*
X32405000Y-11355000D02*
X32365000Y-11395000D01*
X32400000Y-3840000D02*
X32440000Y-3880000D01*
X32440000Y-3840000D02*
X32400000Y-3880000D01*
X32510000Y-4175000D02*
X32550000Y-4215000D01*
X32550000Y-4175000D02*
X32510000Y-4215000D01*
X32710000Y-8115000D02*
X32750000Y-8155000D01*
X32750000Y-8115000D02*
X32710000Y-8155000D01*
X32715000Y-11210000D02*
X32755000Y-11250000D01*
X32755000Y-11210000D02*
X32715000Y-11250000D01*
X32885000Y-6510000D02*
X32925000Y-6550000D01*
X32925000Y-6510000D02*
X32885000Y-6550000D01*
X33020000Y-12180000D02*
X33060000Y-12220000D01*
X33060000Y-12180000D02*
X33020000Y-12220000D01*
X33050000Y-8330000D02*
X33090000Y-8370000D01*
X33090000Y-8330000D02*
X33050000Y-8370000D01*
X33125000Y-6925000D02*
X33165000Y-6965000D01*
X33165000Y-6925000D02*
X33125000Y-6965000D01*
X33155000Y-11270000D02*
X33195000Y-11310000D01*
X33195000Y-11270000D02*
X33155000Y-11310000D01*
X33170000Y-7290000D02*
X33210000Y-7330000D01*
X33210000Y-7290000D02*
X33170000Y-7330000D01*
X33355000Y-11510000D02*
X33395000Y-11550000D01*
X33395000Y-11510000D02*
X33355000Y-11550000D01*
X33515000Y-4120000D02*
X33555000Y-4160000D01*
X33555000Y-4120000D02*
X33515000Y-4160000D01*
X33545000Y-7360000D02*
X33585000Y-7400000D01*
X33585000Y-7360000D02*
X33545000Y-7400000D01*
D12*
X17861000Y-4455000D02*
G75*
G03*
X17861000Y-4455000I-50000J0D01*
G01*
X17861000Y-4815000D02*
G75*
G03*
X17861000Y-4815000I-50000J0D01*
G01*
X18115000Y-4455000D02*
G75*
G03*
X18115000Y-4455000I-50000J0D01*
G01*
X18115000Y-4815000D02*
G75*
G03*
X18115000Y-4815000I-50000J0D01*
G01*
X18369000Y-4455000D02*
G75*
G03*
X18369000Y-4455000I-50000J0D01*
G01*
X18369000Y-4815000D02*
G75*
G03*
X18369000Y-4815000I-50000J0D01*
G01*
X18457500Y-6532500D02*
G75*
G03*
X18457500Y-6532500I-50000J0D01*
G01*
X18457500Y-6786500D02*
G75*
G03*
X18457500Y-6786500I-50000J0D01*
G01*
X18457500Y-7040500D02*
G75*
G03*
X18457500Y-7040500I-50000J0D01*
G01*
X18457500Y-7294500D02*
G75*
G03*
X18457500Y-7294500I-50000J0D01*
G01*
X18623000Y-4455000D02*
G75*
G03*
X18623000Y-4455000I-50000J0D01*
G01*
X18623000Y-4815000D02*
G75*
G03*
X18623000Y-4815000I-50000J0D01*
G01*
D13*
X8400000Y-8060000D02*
X8400000Y-8360000D01*
X8250000Y-8210000D02*
X8550000Y-8210000D01*
X18040000Y-10970000D02*
X18040000Y-11270000D01*
X17890000Y-11120000D02*
X18190000Y-11120000D01*
X29120000Y-9160000D02*
X29120000Y-9460000D01*
X28970000Y-9310000D02*
X29270000Y-9310000D01*
D10*
X3298277Y-12893984D02*
X3298277Y-12693984D01*
X3298277Y-12693984D02*
X3345896Y-12693984D01*
X3345896Y-12693984D02*
X3374467Y-12703508D01*
X3374467Y-12703508D02*
X3393515Y-12722555D01*
X3393515Y-12722555D02*
X3403039Y-12741603D01*
X3403039Y-12741603D02*
X3412562Y-12779698D01*
X3412562Y-12779698D02*
X3412562Y-12808269D01*
X3412562Y-12808269D02*
X3403039Y-12846365D01*
X3403039Y-12846365D02*
X3393515Y-12865412D01*
X3393515Y-12865412D02*
X3374467Y-12884460D01*
X3374467Y-12884460D02*
X3345896Y-12893984D01*
X3345896Y-12893984D02*
X3298277Y-12893984D01*
X3498277Y-12893984D02*
X3498277Y-12760650D01*
X3498277Y-12798746D02*
X3507801Y-12779698D01*
X3507801Y-12779698D02*
X3517324Y-12770174D01*
X3517324Y-12770174D02*
X3536372Y-12760650D01*
X3536372Y-12760650D02*
X3555420Y-12760650D01*
X3622086Y-12893984D02*
X3622086Y-12760650D01*
X3622086Y-12693984D02*
X3612562Y-12703508D01*
X3612562Y-12703508D02*
X3622086Y-12713031D01*
X3622086Y-12713031D02*
X3631610Y-12703508D01*
X3631610Y-12703508D02*
X3622086Y-12693984D01*
X3622086Y-12693984D02*
X3622086Y-12713031D01*
X3745896Y-12893984D02*
X3726848Y-12884460D01*
X3726848Y-12884460D02*
X3717324Y-12865412D01*
X3717324Y-12865412D02*
X3717324Y-12693984D01*
X3850658Y-12893984D02*
X3831610Y-12884460D01*
X3831610Y-12884460D02*
X3822086Y-12865412D01*
X3822086Y-12865412D02*
X3822086Y-12693984D01*
X4079229Y-12893984D02*
X4079229Y-12693984D01*
X4079229Y-12693984D02*
X4145896Y-12836841D01*
X4145896Y-12836841D02*
X4212563Y-12693984D01*
X4212563Y-12693984D02*
X4212563Y-12893984D01*
X4393515Y-12893984D02*
X4393515Y-12789222D01*
X4393515Y-12789222D02*
X4383991Y-12770174D01*
X4383991Y-12770174D02*
X4364944Y-12760650D01*
X4364944Y-12760650D02*
X4326848Y-12760650D01*
X4326848Y-12760650D02*
X4307801Y-12770174D01*
X4393515Y-12884460D02*
X4374467Y-12893984D01*
X4374467Y-12893984D02*
X4326848Y-12893984D01*
X4326848Y-12893984D02*
X4307801Y-12884460D01*
X4307801Y-12884460D02*
X4298277Y-12865412D01*
X4298277Y-12865412D02*
X4298277Y-12846365D01*
X4298277Y-12846365D02*
X4307801Y-12827317D01*
X4307801Y-12827317D02*
X4326848Y-12817793D01*
X4326848Y-12817793D02*
X4374467Y-12817793D01*
X4374467Y-12817793D02*
X4393515Y-12808269D01*
X4488753Y-12760650D02*
X4488753Y-12960650D01*
X4488753Y-12770174D02*
X4507801Y-12760650D01*
X4507801Y-12760650D02*
X4545896Y-12760650D01*
X4545896Y-12760650D02*
X4564944Y-12770174D01*
X4564944Y-12770174D02*
X4574467Y-12779698D01*
X4574467Y-12779698D02*
X4583991Y-12798746D01*
X4583991Y-12798746D02*
X4583991Y-12855888D01*
X4583991Y-12855888D02*
X4574467Y-12874936D01*
X4574467Y-12874936D02*
X4564944Y-12884460D01*
X4564944Y-12884460D02*
X4545896Y-12893984D01*
X4545896Y-12893984D02*
X4507801Y-12893984D01*
X4507801Y-12893984D02*
X4488753Y-12884460D01*
X4669705Y-12874936D02*
X4679229Y-12884460D01*
X4679229Y-12884460D02*
X4669705Y-12893984D01*
X4669705Y-12893984D02*
X4660182Y-12884460D01*
X4660182Y-12884460D02*
X4669705Y-12874936D01*
X4669705Y-12874936D02*
X4669705Y-12893984D01*
X4669705Y-12770174D02*
X4679229Y-12779698D01*
X4679229Y-12779698D02*
X4669705Y-12789222D01*
X4669705Y-12789222D02*
X4660182Y-12779698D01*
X4660182Y-12779698D02*
X4669705Y-12770174D01*
X4669705Y-12770174D02*
X4669705Y-12789222D01*
D11*
X2997500Y-13202500D02*
X3037500Y-13242500D01*
X3037500Y-13202500D02*
X2997500Y-13242500D01*
D10*
X3336372Y-13113984D02*
X3355420Y-13113984D01*
X3355420Y-13113984D02*
X3374467Y-13123508D01*
X3374467Y-13123508D02*
X3383991Y-13133031D01*
X3383991Y-13133031D02*
X3393515Y-13152079D01*
X3393515Y-13152079D02*
X3403039Y-13190174D01*
X3403039Y-13190174D02*
X3403039Y-13237793D01*
X3403039Y-13237793D02*
X3393515Y-13275888D01*
X3393515Y-13275888D02*
X3383991Y-13294936D01*
X3383991Y-13294936D02*
X3374467Y-13304460D01*
X3374467Y-13304460D02*
X3355420Y-13313984D01*
X3355420Y-13313984D02*
X3336372Y-13313984D01*
X3336372Y-13313984D02*
X3317324Y-13304460D01*
X3317324Y-13304460D02*
X3307801Y-13294936D01*
X3307801Y-13294936D02*
X3298277Y-13275888D01*
X3298277Y-13275888D02*
X3288753Y-13237793D01*
X3288753Y-13237793D02*
X3288753Y-13190174D01*
X3288753Y-13190174D02*
X3298277Y-13152079D01*
X3298277Y-13152079D02*
X3307801Y-13133031D01*
X3307801Y-13133031D02*
X3317324Y-13123508D01*
X3317324Y-13123508D02*
X3336372Y-13113984D01*
X3488753Y-13294936D02*
X3498277Y-13304460D01*
X3498277Y-13304460D02*
X3488753Y-13313984D01*
X3488753Y-13313984D02*
X3479229Y-13304460D01*
X3479229Y-13304460D02*
X3488753Y-13294936D01*
X3488753Y-13294936D02*
X3488753Y-13313984D01*
X3669705Y-13180650D02*
X3669705Y-13313984D01*
X3622086Y-13104460D02*
X3574467Y-13247317D01*
X3574467Y-13247317D02*
X3698277Y-13247317D01*
X3812562Y-13113984D02*
X3831610Y-13113984D01*
X3831610Y-13113984D02*
X3850658Y-13123508D01*
X3850658Y-13123508D02*
X3860182Y-13133031D01*
X3860182Y-13133031D02*
X3869705Y-13152079D01*
X3869705Y-13152079D02*
X3879229Y-13190174D01*
X3879229Y-13190174D02*
X3879229Y-13237793D01*
X3879229Y-13237793D02*
X3869705Y-13275888D01*
X3869705Y-13275888D02*
X3860182Y-13294936D01*
X3860182Y-13294936D02*
X3850658Y-13304460D01*
X3850658Y-13304460D02*
X3831610Y-13313984D01*
X3831610Y-13313984D02*
X3812562Y-13313984D01*
X3812562Y-13313984D02*
X3793515Y-13304460D01*
X3793515Y-13304460D02*
X3783991Y-13294936D01*
X3783991Y-13294936D02*
X3774467Y-13275888D01*
X3774467Y-13275888D02*
X3764943Y-13237793D01*
X3764943Y-13237793D02*
X3764943Y-13190174D01*
X3764943Y-13190174D02*
X3774467Y-13152079D01*
X3774467Y-13152079D02*
X3783991Y-13133031D01*
X3783991Y-13133031D02*
X3793515Y-13123508D01*
X3793515Y-13123508D02*
X3812562Y-13113984D01*
X4003039Y-13113984D02*
X4022086Y-13113984D01*
X4022086Y-13113984D02*
X4041134Y-13123508D01*
X4041134Y-13123508D02*
X4050658Y-13133031D01*
X4050658Y-13133031D02*
X4060182Y-13152079D01*
X4060182Y-13152079D02*
X4069705Y-13190174D01*
X4069705Y-13190174D02*
X4069705Y-13237793D01*
X4069705Y-13237793D02*
X4060182Y-13275888D01*
X4060182Y-13275888D02*
X4050658Y-13294936D01*
X4050658Y-13294936D02*
X4041134Y-13304460D01*
X4041134Y-13304460D02*
X4022086Y-13313984D01*
X4022086Y-13313984D02*
X4003039Y-13313984D01*
X4003039Y-13313984D02*
X3983991Y-13304460D01*
X3983991Y-13304460D02*
X3974467Y-13294936D01*
X3974467Y-13294936D02*
X3964943Y-13275888D01*
X3964943Y-13275888D02*
X3955420Y-13237793D01*
X3955420Y-13237793D02*
X3955420Y-13190174D01*
X3955420Y-13190174D02*
X3964943Y-13152079D01*
X3964943Y-13152079D02*
X3974467Y-13133031D01*
X3974467Y-13133031D02*
X3983991Y-13123508D01*
X3983991Y-13123508D02*
X4003039Y-13113984D01*
X4155420Y-13313984D02*
X4155420Y-13180650D01*
X4155420Y-13199698D02*
X4164943Y-13190174D01*
X4164943Y-13190174D02*
X4183991Y-13180650D01*
X4183991Y-13180650D02*
X4212563Y-13180650D01*
X4212563Y-13180650D02*
X4231610Y-13190174D01*
X4231610Y-13190174D02*
X4241134Y-13209222D01*
X4241134Y-13209222D02*
X4241134Y-13313984D01*
X4241134Y-13209222D02*
X4250658Y-13190174D01*
X4250658Y-13190174D02*
X4269705Y-13180650D01*
X4269705Y-13180650D02*
X4298277Y-13180650D01*
X4298277Y-13180650D02*
X4317325Y-13190174D01*
X4317325Y-13190174D02*
X4326848Y-13209222D01*
X4326848Y-13209222D02*
X4326848Y-13313984D01*
X4422086Y-13313984D02*
X4422086Y-13180650D01*
X4422086Y-13199698D02*
X4431610Y-13190174D01*
X4431610Y-13190174D02*
X4450658Y-13180650D01*
X4450658Y-13180650D02*
X4479229Y-13180650D01*
X4479229Y-13180650D02*
X4498277Y-13190174D01*
X4498277Y-13190174D02*
X4507801Y-13209222D01*
X4507801Y-13209222D02*
X4507801Y-13313984D01*
X4507801Y-13209222D02*
X4517325Y-13190174D01*
X4517325Y-13190174D02*
X4536372Y-13180650D01*
X4536372Y-13180650D02*
X4564944Y-13180650D01*
X4564944Y-13180650D02*
X4583991Y-13190174D01*
X4583991Y-13190174D02*
X4593515Y-13209222D01*
X4593515Y-13209222D02*
X4593515Y-13313984D01*
X4983991Y-13104460D02*
X4812563Y-13361603D01*
X5241134Y-13113984D02*
X5260182Y-13113984D01*
X5260182Y-13113984D02*
X5279229Y-13123508D01*
X5279229Y-13123508D02*
X5288753Y-13133031D01*
X5288753Y-13133031D02*
X5298277Y-13152079D01*
X5298277Y-13152079D02*
X5307801Y-13190174D01*
X5307801Y-13190174D02*
X5307801Y-13237793D01*
X5307801Y-13237793D02*
X5298277Y-13275888D01*
X5298277Y-13275888D02*
X5288753Y-13294936D01*
X5288753Y-13294936D02*
X5279229Y-13304460D01*
X5279229Y-13304460D02*
X5260182Y-13313984D01*
X5260182Y-13313984D02*
X5241134Y-13313984D01*
X5241134Y-13313984D02*
X5222087Y-13304460D01*
X5222087Y-13304460D02*
X5212563Y-13294936D01*
X5212563Y-13294936D02*
X5203039Y-13275888D01*
X5203039Y-13275888D02*
X5193515Y-13237793D01*
X5193515Y-13237793D02*
X5193515Y-13190174D01*
X5193515Y-13190174D02*
X5203039Y-13152079D01*
X5203039Y-13152079D02*
X5212563Y-13133031D01*
X5212563Y-13133031D02*
X5222087Y-13123508D01*
X5222087Y-13123508D02*
X5241134Y-13113984D01*
X5393515Y-13294936D02*
X5403039Y-13304460D01*
X5403039Y-13304460D02*
X5393515Y-13313984D01*
X5393515Y-13313984D02*
X5383991Y-13304460D01*
X5383991Y-13304460D02*
X5393515Y-13294936D01*
X5393515Y-13294936D02*
X5393515Y-13313984D01*
X5526848Y-13113984D02*
X5545896Y-13113984D01*
X5545896Y-13113984D02*
X5564944Y-13123508D01*
X5564944Y-13123508D02*
X5574468Y-13133031D01*
X5574468Y-13133031D02*
X5583991Y-13152079D01*
X5583991Y-13152079D02*
X5593515Y-13190174D01*
X5593515Y-13190174D02*
X5593515Y-13237793D01*
X5593515Y-13237793D02*
X5583991Y-13275888D01*
X5583991Y-13275888D02*
X5574468Y-13294936D01*
X5574468Y-13294936D02*
X5564944Y-13304460D01*
X5564944Y-13304460D02*
X5545896Y-13313984D01*
X5545896Y-13313984D02*
X5526848Y-13313984D01*
X5526848Y-13313984D02*
X5507801Y-13304460D01*
X5507801Y-13304460D02*
X5498277Y-13294936D01*
X5498277Y-13294936D02*
X5488753Y-13275888D01*
X5488753Y-13275888D02*
X5479229Y-13237793D01*
X5479229Y-13237793D02*
X5479229Y-13190174D01*
X5479229Y-13190174D02*
X5488753Y-13152079D01*
X5488753Y-13152079D02*
X5498277Y-13133031D01*
X5498277Y-13133031D02*
X5507801Y-13123508D01*
X5507801Y-13123508D02*
X5526848Y-13113984D01*
X5783991Y-13313984D02*
X5669706Y-13313984D01*
X5726848Y-13313984D02*
X5726848Y-13113984D01*
X5726848Y-13113984D02*
X5707801Y-13142555D01*
X5707801Y-13142555D02*
X5688753Y-13161603D01*
X5688753Y-13161603D02*
X5669706Y-13171127D01*
X5964944Y-13113984D02*
X5869706Y-13113984D01*
X5869706Y-13113984D02*
X5860182Y-13209222D01*
X5860182Y-13209222D02*
X5869706Y-13199698D01*
X5869706Y-13199698D02*
X5888753Y-13190174D01*
X5888753Y-13190174D02*
X5936372Y-13190174D01*
X5936372Y-13190174D02*
X5955420Y-13199698D01*
X5955420Y-13199698D02*
X5964944Y-13209222D01*
X5964944Y-13209222D02*
X5974467Y-13228269D01*
X5974467Y-13228269D02*
X5974467Y-13275888D01*
X5974467Y-13275888D02*
X5964944Y-13294936D01*
X5964944Y-13294936D02*
X5955420Y-13304460D01*
X5955420Y-13304460D02*
X5936372Y-13313984D01*
X5936372Y-13313984D02*
X5888753Y-13313984D01*
X5888753Y-13313984D02*
X5869706Y-13304460D01*
X5869706Y-13304460D02*
X5860182Y-13294936D01*
X6041134Y-13113984D02*
X6174467Y-13113984D01*
X6174467Y-13113984D02*
X6088753Y-13313984D01*
X6241134Y-13113984D02*
X6241134Y-13152079D01*
X6317325Y-13113984D02*
X6317325Y-13152079D01*
X6612563Y-13390174D02*
X6603039Y-13380650D01*
X6603039Y-13380650D02*
X6583991Y-13352079D01*
X6583991Y-13352079D02*
X6574468Y-13333031D01*
X6574468Y-13333031D02*
X6564944Y-13304460D01*
X6564944Y-13304460D02*
X6555420Y-13256841D01*
X6555420Y-13256841D02*
X6555420Y-13218746D01*
X6555420Y-13218746D02*
X6564944Y-13171127D01*
X6564944Y-13171127D02*
X6574468Y-13142555D01*
X6574468Y-13142555D02*
X6583991Y-13123508D01*
X6583991Y-13123508D02*
X6603039Y-13094936D01*
X6603039Y-13094936D02*
X6612563Y-13085412D01*
X6774468Y-13113984D02*
X6736372Y-13113984D01*
X6736372Y-13113984D02*
X6717325Y-13123508D01*
X6717325Y-13123508D02*
X6707801Y-13133031D01*
X6707801Y-13133031D02*
X6688753Y-13161603D01*
X6688753Y-13161603D02*
X6679229Y-13199698D01*
X6679229Y-13199698D02*
X6679229Y-13275888D01*
X6679229Y-13275888D02*
X6688753Y-13294936D01*
X6688753Y-13294936D02*
X6698277Y-13304460D01*
X6698277Y-13304460D02*
X6717325Y-13313984D01*
X6717325Y-13313984D02*
X6755420Y-13313984D01*
X6755420Y-13313984D02*
X6774468Y-13304460D01*
X6774468Y-13304460D02*
X6783991Y-13294936D01*
X6783991Y-13294936D02*
X6793515Y-13275888D01*
X6793515Y-13275888D02*
X6793515Y-13228269D01*
X6793515Y-13228269D02*
X6783991Y-13209222D01*
X6783991Y-13209222D02*
X6774468Y-13199698D01*
X6774468Y-13199698D02*
X6755420Y-13190174D01*
X6755420Y-13190174D02*
X6717325Y-13190174D01*
X6717325Y-13190174D02*
X6698277Y-13199698D01*
X6698277Y-13199698D02*
X6688753Y-13209222D01*
X6688753Y-13209222D02*
X6679229Y-13228269D01*
X6983991Y-13313984D02*
X6869706Y-13313984D01*
X6926848Y-13313984D02*
X6926848Y-13113984D01*
X6926848Y-13113984D02*
X6907801Y-13142555D01*
X6907801Y-13142555D02*
X6888753Y-13161603D01*
X6888753Y-13161603D02*
X6869706Y-13171127D01*
X7164944Y-13113984D02*
X7069706Y-13113984D01*
X7069706Y-13113984D02*
X7060182Y-13209222D01*
X7060182Y-13209222D02*
X7069706Y-13199698D01*
X7069706Y-13199698D02*
X7088753Y-13190174D01*
X7088753Y-13190174D02*
X7136372Y-13190174D01*
X7136372Y-13190174D02*
X7155420Y-13199698D01*
X7155420Y-13199698D02*
X7164944Y-13209222D01*
X7164944Y-13209222D02*
X7174468Y-13228269D01*
X7174468Y-13228269D02*
X7174468Y-13275888D01*
X7174468Y-13275888D02*
X7164944Y-13294936D01*
X7164944Y-13294936D02*
X7155420Y-13304460D01*
X7155420Y-13304460D02*
X7136372Y-13313984D01*
X7136372Y-13313984D02*
X7088753Y-13313984D01*
X7088753Y-13313984D02*
X7069706Y-13304460D01*
X7069706Y-13304460D02*
X7060182Y-13294936D01*
X7412563Y-13313984D02*
X7412563Y-13113984D01*
X7498277Y-13313984D02*
X7498277Y-13209222D01*
X7498277Y-13209222D02*
X7488753Y-13190174D01*
X7488753Y-13190174D02*
X7469706Y-13180650D01*
X7469706Y-13180650D02*
X7441134Y-13180650D01*
X7441134Y-13180650D02*
X7422087Y-13190174D01*
X7422087Y-13190174D02*
X7412563Y-13199698D01*
X7622087Y-13313984D02*
X7603039Y-13304460D01*
X7603039Y-13304460D02*
X7593515Y-13294936D01*
X7593515Y-13294936D02*
X7583991Y-13275888D01*
X7583991Y-13275888D02*
X7583991Y-13218746D01*
X7583991Y-13218746D02*
X7593515Y-13199698D01*
X7593515Y-13199698D02*
X7603039Y-13190174D01*
X7603039Y-13190174D02*
X7622087Y-13180650D01*
X7622087Y-13180650D02*
X7650658Y-13180650D01*
X7650658Y-13180650D02*
X7669706Y-13190174D01*
X7669706Y-13190174D02*
X7679230Y-13199698D01*
X7679230Y-13199698D02*
X7688753Y-13218746D01*
X7688753Y-13218746D02*
X7688753Y-13275888D01*
X7688753Y-13275888D02*
X7679230Y-13294936D01*
X7679230Y-13294936D02*
X7669706Y-13304460D01*
X7669706Y-13304460D02*
X7650658Y-13313984D01*
X7650658Y-13313984D02*
X7622087Y-13313984D01*
X7803039Y-13313984D02*
X7783991Y-13304460D01*
X7783991Y-13304460D02*
X7774468Y-13285412D01*
X7774468Y-13285412D02*
X7774468Y-13113984D01*
X7955420Y-13304460D02*
X7936372Y-13313984D01*
X7936372Y-13313984D02*
X7898277Y-13313984D01*
X7898277Y-13313984D02*
X7879230Y-13304460D01*
X7879230Y-13304460D02*
X7869706Y-13285412D01*
X7869706Y-13285412D02*
X7869706Y-13209222D01*
X7869706Y-13209222D02*
X7879230Y-13190174D01*
X7879230Y-13190174D02*
X7898277Y-13180650D01*
X7898277Y-13180650D02*
X7936372Y-13180650D01*
X7936372Y-13180650D02*
X7955420Y-13190174D01*
X7955420Y-13190174D02*
X7964944Y-13209222D01*
X7964944Y-13209222D02*
X7964944Y-13228269D01*
X7964944Y-13228269D02*
X7869706Y-13247317D01*
X8041134Y-13304460D02*
X8060182Y-13313984D01*
X8060182Y-13313984D02*
X8098277Y-13313984D01*
X8098277Y-13313984D02*
X8117325Y-13304460D01*
X8117325Y-13304460D02*
X8126849Y-13285412D01*
X8126849Y-13285412D02*
X8126849Y-13275888D01*
X8126849Y-13275888D02*
X8117325Y-13256841D01*
X8117325Y-13256841D02*
X8098277Y-13247317D01*
X8098277Y-13247317D02*
X8069706Y-13247317D01*
X8069706Y-13247317D02*
X8050658Y-13237793D01*
X8050658Y-13237793D02*
X8041134Y-13218746D01*
X8041134Y-13218746D02*
X8041134Y-13209222D01*
X8041134Y-13209222D02*
X8050658Y-13190174D01*
X8050658Y-13190174D02*
X8069706Y-13180650D01*
X8069706Y-13180650D02*
X8098277Y-13180650D01*
X8098277Y-13180650D02*
X8117325Y-13190174D01*
X8193515Y-13390174D02*
X8203039Y-13380650D01*
X8203039Y-13380650D02*
X8222087Y-13352079D01*
X8222087Y-13352079D02*
X8231611Y-13333031D01*
X8231611Y-13333031D02*
X8241134Y-13304460D01*
X8241134Y-13304460D02*
X8250658Y-13256841D01*
X8250658Y-13256841D02*
X8250658Y-13218746D01*
X8250658Y-13218746D02*
X8241134Y-13171127D01*
X8241134Y-13171127D02*
X8231611Y-13142555D01*
X8231611Y-13142555D02*
X8222087Y-13123508D01*
X8222087Y-13123508D02*
X8203039Y-13094936D01*
X8203039Y-13094936D02*
X8193515Y-13085412D01*
D12*
X3037500Y-13486500D02*
G75*
G03*
X3037500Y-13486500I-50000J0D01*
G01*
D10*
X3403039Y-13577984D02*
X3288753Y-13577984D01*
X3345896Y-13577984D02*
X3345896Y-13377984D01*
X3345896Y-13377984D02*
X3326848Y-13406555D01*
X3326848Y-13406555D02*
X3307801Y-13425603D01*
X3307801Y-13425603D02*
X3288753Y-13435127D01*
X3488753Y-13558936D02*
X3498277Y-13568460D01*
X3498277Y-13568460D02*
X3488753Y-13577984D01*
X3488753Y-13577984D02*
X3479229Y-13568460D01*
X3479229Y-13568460D02*
X3488753Y-13558936D01*
X3488753Y-13558936D02*
X3488753Y-13577984D01*
X3622086Y-13377984D02*
X3641134Y-13377984D01*
X3641134Y-13377984D02*
X3660182Y-13387508D01*
X3660182Y-13387508D02*
X3669705Y-13397031D01*
X3669705Y-13397031D02*
X3679229Y-13416079D01*
X3679229Y-13416079D02*
X3688753Y-13454174D01*
X3688753Y-13454174D02*
X3688753Y-13501793D01*
X3688753Y-13501793D02*
X3679229Y-13539888D01*
X3679229Y-13539888D02*
X3669705Y-13558936D01*
X3669705Y-13558936D02*
X3660182Y-13568460D01*
X3660182Y-13568460D02*
X3641134Y-13577984D01*
X3641134Y-13577984D02*
X3622086Y-13577984D01*
X3622086Y-13577984D02*
X3603039Y-13568460D01*
X3603039Y-13568460D02*
X3593515Y-13558936D01*
X3593515Y-13558936D02*
X3583991Y-13539888D01*
X3583991Y-13539888D02*
X3574467Y-13501793D01*
X3574467Y-13501793D02*
X3574467Y-13454174D01*
X3574467Y-13454174D02*
X3583991Y-13416079D01*
X3583991Y-13416079D02*
X3593515Y-13397031D01*
X3593515Y-13397031D02*
X3603039Y-13387508D01*
X3603039Y-13387508D02*
X3622086Y-13377984D01*
X3812562Y-13377984D02*
X3831610Y-13377984D01*
X3831610Y-13377984D02*
X3850658Y-13387508D01*
X3850658Y-13387508D02*
X3860182Y-13397031D01*
X3860182Y-13397031D02*
X3869705Y-13416079D01*
X3869705Y-13416079D02*
X3879229Y-13454174D01*
X3879229Y-13454174D02*
X3879229Y-13501793D01*
X3879229Y-13501793D02*
X3869705Y-13539888D01*
X3869705Y-13539888D02*
X3860182Y-13558936D01*
X3860182Y-13558936D02*
X3850658Y-13568460D01*
X3850658Y-13568460D02*
X3831610Y-13577984D01*
X3831610Y-13577984D02*
X3812562Y-13577984D01*
X3812562Y-13577984D02*
X3793515Y-13568460D01*
X3793515Y-13568460D02*
X3783991Y-13558936D01*
X3783991Y-13558936D02*
X3774467Y-13539888D01*
X3774467Y-13539888D02*
X3764943Y-13501793D01*
X3764943Y-13501793D02*
X3764943Y-13454174D01*
X3764943Y-13454174D02*
X3774467Y-13416079D01*
X3774467Y-13416079D02*
X3783991Y-13397031D01*
X3783991Y-13397031D02*
X3793515Y-13387508D01*
X3793515Y-13387508D02*
X3812562Y-13377984D01*
X4003039Y-13377984D02*
X4022086Y-13377984D01*
X4022086Y-13377984D02*
X4041134Y-13387508D01*
X4041134Y-13387508D02*
X4050658Y-13397031D01*
X4050658Y-13397031D02*
X4060182Y-13416079D01*
X4060182Y-13416079D02*
X4069705Y-13454174D01*
X4069705Y-13454174D02*
X4069705Y-13501793D01*
X4069705Y-13501793D02*
X4060182Y-13539888D01*
X4060182Y-13539888D02*
X4050658Y-13558936D01*
X4050658Y-13558936D02*
X4041134Y-13568460D01*
X4041134Y-13568460D02*
X4022086Y-13577984D01*
X4022086Y-13577984D02*
X4003039Y-13577984D01*
X4003039Y-13577984D02*
X3983991Y-13568460D01*
X3983991Y-13568460D02*
X3974467Y-13558936D01*
X3974467Y-13558936D02*
X3964943Y-13539888D01*
X3964943Y-13539888D02*
X3955420Y-13501793D01*
X3955420Y-13501793D02*
X3955420Y-13454174D01*
X3955420Y-13454174D02*
X3964943Y-13416079D01*
X3964943Y-13416079D02*
X3974467Y-13397031D01*
X3974467Y-13397031D02*
X3983991Y-13387508D01*
X3983991Y-13387508D02*
X4003039Y-13377984D01*
X4155420Y-13577984D02*
X4155420Y-13444650D01*
X4155420Y-13463698D02*
X4164943Y-13454174D01*
X4164943Y-13454174D02*
X4183991Y-13444650D01*
X4183991Y-13444650D02*
X4212563Y-13444650D01*
X4212563Y-13444650D02*
X4231610Y-13454174D01*
X4231610Y-13454174D02*
X4241134Y-13473222D01*
X4241134Y-13473222D02*
X4241134Y-13577984D01*
X4241134Y-13473222D02*
X4250658Y-13454174D01*
X4250658Y-13454174D02*
X4269705Y-13444650D01*
X4269705Y-13444650D02*
X4298277Y-13444650D01*
X4298277Y-13444650D02*
X4317325Y-13454174D01*
X4317325Y-13454174D02*
X4326848Y-13473222D01*
X4326848Y-13473222D02*
X4326848Y-13577984D01*
X4422086Y-13577984D02*
X4422086Y-13444650D01*
X4422086Y-13463698D02*
X4431610Y-13454174D01*
X4431610Y-13454174D02*
X4450658Y-13444650D01*
X4450658Y-13444650D02*
X4479229Y-13444650D01*
X4479229Y-13444650D02*
X4498277Y-13454174D01*
X4498277Y-13454174D02*
X4507801Y-13473222D01*
X4507801Y-13473222D02*
X4507801Y-13577984D01*
X4507801Y-13473222D02*
X4517325Y-13454174D01*
X4517325Y-13454174D02*
X4536372Y-13444650D01*
X4536372Y-13444650D02*
X4564944Y-13444650D01*
X4564944Y-13444650D02*
X4583991Y-13454174D01*
X4583991Y-13454174D02*
X4593515Y-13473222D01*
X4593515Y-13473222D02*
X4593515Y-13577984D01*
X4983991Y-13368460D02*
X4812563Y-13625603D01*
X5241134Y-13377984D02*
X5260182Y-13377984D01*
X5260182Y-13377984D02*
X5279229Y-13387508D01*
X5279229Y-13387508D02*
X5288753Y-13397031D01*
X5288753Y-13397031D02*
X5298277Y-13416079D01*
X5298277Y-13416079D02*
X5307801Y-13454174D01*
X5307801Y-13454174D02*
X5307801Y-13501793D01*
X5307801Y-13501793D02*
X5298277Y-13539888D01*
X5298277Y-13539888D02*
X5288753Y-13558936D01*
X5288753Y-13558936D02*
X5279229Y-13568460D01*
X5279229Y-13568460D02*
X5260182Y-13577984D01*
X5260182Y-13577984D02*
X5241134Y-13577984D01*
X5241134Y-13577984D02*
X5222087Y-13568460D01*
X5222087Y-13568460D02*
X5212563Y-13558936D01*
X5212563Y-13558936D02*
X5203039Y-13539888D01*
X5203039Y-13539888D02*
X5193515Y-13501793D01*
X5193515Y-13501793D02*
X5193515Y-13454174D01*
X5193515Y-13454174D02*
X5203039Y-13416079D01*
X5203039Y-13416079D02*
X5212563Y-13397031D01*
X5212563Y-13397031D02*
X5222087Y-13387508D01*
X5222087Y-13387508D02*
X5241134Y-13377984D01*
X5393515Y-13558936D02*
X5403039Y-13568460D01*
X5403039Y-13568460D02*
X5393515Y-13577984D01*
X5393515Y-13577984D02*
X5383991Y-13568460D01*
X5383991Y-13568460D02*
X5393515Y-13558936D01*
X5393515Y-13558936D02*
X5393515Y-13577984D01*
X5526848Y-13377984D02*
X5545896Y-13377984D01*
X5545896Y-13377984D02*
X5564944Y-13387508D01*
X5564944Y-13387508D02*
X5574468Y-13397031D01*
X5574468Y-13397031D02*
X5583991Y-13416079D01*
X5583991Y-13416079D02*
X5593515Y-13454174D01*
X5593515Y-13454174D02*
X5593515Y-13501793D01*
X5593515Y-13501793D02*
X5583991Y-13539888D01*
X5583991Y-13539888D02*
X5574468Y-13558936D01*
X5574468Y-13558936D02*
X5564944Y-13568460D01*
X5564944Y-13568460D02*
X5545896Y-13577984D01*
X5545896Y-13577984D02*
X5526848Y-13577984D01*
X5526848Y-13577984D02*
X5507801Y-13568460D01*
X5507801Y-13568460D02*
X5498277Y-13558936D01*
X5498277Y-13558936D02*
X5488753Y-13539888D01*
X5488753Y-13539888D02*
X5479229Y-13501793D01*
X5479229Y-13501793D02*
X5479229Y-13454174D01*
X5479229Y-13454174D02*
X5488753Y-13416079D01*
X5488753Y-13416079D02*
X5498277Y-13397031D01*
X5498277Y-13397031D02*
X5507801Y-13387508D01*
X5507801Y-13387508D02*
X5526848Y-13377984D01*
X5660182Y-13377984D02*
X5783991Y-13377984D01*
X5783991Y-13377984D02*
X5717325Y-13454174D01*
X5717325Y-13454174D02*
X5745896Y-13454174D01*
X5745896Y-13454174D02*
X5764944Y-13463698D01*
X5764944Y-13463698D02*
X5774467Y-13473222D01*
X5774467Y-13473222D02*
X5783991Y-13492269D01*
X5783991Y-13492269D02*
X5783991Y-13539888D01*
X5783991Y-13539888D02*
X5774467Y-13558936D01*
X5774467Y-13558936D02*
X5764944Y-13568460D01*
X5764944Y-13568460D02*
X5745896Y-13577984D01*
X5745896Y-13577984D02*
X5688753Y-13577984D01*
X5688753Y-13577984D02*
X5669706Y-13568460D01*
X5669706Y-13568460D02*
X5660182Y-13558936D01*
X5879229Y-13577984D02*
X5917325Y-13577984D01*
X5917325Y-13577984D02*
X5936372Y-13568460D01*
X5936372Y-13568460D02*
X5945896Y-13558936D01*
X5945896Y-13558936D02*
X5964944Y-13530365D01*
X5964944Y-13530365D02*
X5974467Y-13492269D01*
X5974467Y-13492269D02*
X5974467Y-13416079D01*
X5974467Y-13416079D02*
X5964944Y-13397031D01*
X5964944Y-13397031D02*
X5955420Y-13387508D01*
X5955420Y-13387508D02*
X5936372Y-13377984D01*
X5936372Y-13377984D02*
X5898277Y-13377984D01*
X5898277Y-13377984D02*
X5879229Y-13387508D01*
X5879229Y-13387508D02*
X5869706Y-13397031D01*
X5869706Y-13397031D02*
X5860182Y-13416079D01*
X5860182Y-13416079D02*
X5860182Y-13463698D01*
X5860182Y-13463698D02*
X5869706Y-13482746D01*
X5869706Y-13482746D02*
X5879229Y-13492269D01*
X5879229Y-13492269D02*
X5898277Y-13501793D01*
X5898277Y-13501793D02*
X5936372Y-13501793D01*
X5936372Y-13501793D02*
X5955420Y-13492269D01*
X5955420Y-13492269D02*
X5964944Y-13482746D01*
X5964944Y-13482746D02*
X5974467Y-13463698D01*
X6145896Y-13444650D02*
X6145896Y-13577984D01*
X6098277Y-13368460D02*
X6050658Y-13511317D01*
X6050658Y-13511317D02*
X6174467Y-13511317D01*
X6241134Y-13377984D02*
X6241134Y-13416079D01*
X6317325Y-13377984D02*
X6317325Y-13416079D01*
X6612563Y-13654174D02*
X6603039Y-13644650D01*
X6603039Y-13644650D02*
X6583991Y-13616079D01*
X6583991Y-13616079D02*
X6574468Y-13597031D01*
X6574468Y-13597031D02*
X6564944Y-13568460D01*
X6564944Y-13568460D02*
X6555420Y-13520841D01*
X6555420Y-13520841D02*
X6555420Y-13482746D01*
X6555420Y-13482746D02*
X6564944Y-13435127D01*
X6564944Y-13435127D02*
X6574468Y-13406555D01*
X6574468Y-13406555D02*
X6583991Y-13387508D01*
X6583991Y-13387508D02*
X6603039Y-13358936D01*
X6603039Y-13358936D02*
X6612563Y-13349412D01*
X6793515Y-13577984D02*
X6679229Y-13577984D01*
X6736372Y-13577984D02*
X6736372Y-13377984D01*
X6736372Y-13377984D02*
X6717325Y-13406555D01*
X6717325Y-13406555D02*
X6698277Y-13425603D01*
X6698277Y-13425603D02*
X6679229Y-13435127D01*
X6869706Y-13397031D02*
X6879229Y-13387508D01*
X6879229Y-13387508D02*
X6898277Y-13377984D01*
X6898277Y-13377984D02*
X6945896Y-13377984D01*
X6945896Y-13377984D02*
X6964944Y-13387508D01*
X6964944Y-13387508D02*
X6974468Y-13397031D01*
X6974468Y-13397031D02*
X6983991Y-13416079D01*
X6983991Y-13416079D02*
X6983991Y-13435127D01*
X6983991Y-13435127D02*
X6974468Y-13463698D01*
X6974468Y-13463698D02*
X6860182Y-13577984D01*
X6860182Y-13577984D02*
X6983991Y-13577984D01*
X7222087Y-13577984D02*
X7222087Y-13377984D01*
X7307801Y-13577984D02*
X7307801Y-13473222D01*
X7307801Y-13473222D02*
X7298277Y-13454174D01*
X7298277Y-13454174D02*
X7279230Y-13444650D01*
X7279230Y-13444650D02*
X7250658Y-13444650D01*
X7250658Y-13444650D02*
X7231610Y-13454174D01*
X7231610Y-13454174D02*
X7222087Y-13463698D01*
X7431610Y-13577984D02*
X7412563Y-13568460D01*
X7412563Y-13568460D02*
X7403039Y-13558936D01*
X7403039Y-13558936D02*
X7393515Y-13539888D01*
X7393515Y-13539888D02*
X7393515Y-13482746D01*
X7393515Y-13482746D02*
X7403039Y-13463698D01*
X7403039Y-13463698D02*
X7412563Y-13454174D01*
X7412563Y-13454174D02*
X7431610Y-13444650D01*
X7431610Y-13444650D02*
X7460182Y-13444650D01*
X7460182Y-13444650D02*
X7479230Y-13454174D01*
X7479230Y-13454174D02*
X7488753Y-13463698D01*
X7488753Y-13463698D02*
X7498277Y-13482746D01*
X7498277Y-13482746D02*
X7498277Y-13539888D01*
X7498277Y-13539888D02*
X7488753Y-13558936D01*
X7488753Y-13558936D02*
X7479230Y-13568460D01*
X7479230Y-13568460D02*
X7460182Y-13577984D01*
X7460182Y-13577984D02*
X7431610Y-13577984D01*
X7612563Y-13577984D02*
X7593515Y-13568460D01*
X7593515Y-13568460D02*
X7583991Y-13549412D01*
X7583991Y-13549412D02*
X7583991Y-13377984D01*
X7764944Y-13568460D02*
X7745896Y-13577984D01*
X7745896Y-13577984D02*
X7707801Y-13577984D01*
X7707801Y-13577984D02*
X7688753Y-13568460D01*
X7688753Y-13568460D02*
X7679230Y-13549412D01*
X7679230Y-13549412D02*
X7679230Y-13473222D01*
X7679230Y-13473222D02*
X7688753Y-13454174D01*
X7688753Y-13454174D02*
X7707801Y-13444650D01*
X7707801Y-13444650D02*
X7745896Y-13444650D01*
X7745896Y-13444650D02*
X7764944Y-13454174D01*
X7764944Y-13454174D02*
X7774468Y-13473222D01*
X7774468Y-13473222D02*
X7774468Y-13492269D01*
X7774468Y-13492269D02*
X7679230Y-13511317D01*
X7850658Y-13568460D02*
X7869706Y-13577984D01*
X7869706Y-13577984D02*
X7907801Y-13577984D01*
X7907801Y-13577984D02*
X7926849Y-13568460D01*
X7926849Y-13568460D02*
X7936372Y-13549412D01*
X7936372Y-13549412D02*
X7936372Y-13539888D01*
X7936372Y-13539888D02*
X7926849Y-13520841D01*
X7926849Y-13520841D02*
X7907801Y-13511317D01*
X7907801Y-13511317D02*
X7879230Y-13511317D01*
X7879230Y-13511317D02*
X7860182Y-13501793D01*
X7860182Y-13501793D02*
X7850658Y-13482746D01*
X7850658Y-13482746D02*
X7850658Y-13473222D01*
X7850658Y-13473222D02*
X7860182Y-13454174D01*
X7860182Y-13454174D02*
X7879230Y-13444650D01*
X7879230Y-13444650D02*
X7907801Y-13444650D01*
X7907801Y-13444650D02*
X7926849Y-13454174D01*
X8003039Y-13654174D02*
X8012563Y-13644650D01*
X8012563Y-13644650D02*
X8031611Y-13616079D01*
X8031611Y-13616079D02*
X8041134Y-13597031D01*
X8041134Y-13597031D02*
X8050658Y-13568460D01*
X8050658Y-13568460D02*
X8060182Y-13520841D01*
X8060182Y-13520841D02*
X8060182Y-13482746D01*
X8060182Y-13482746D02*
X8050658Y-13435127D01*
X8050658Y-13435127D02*
X8041134Y-13406555D01*
X8041134Y-13406555D02*
X8031611Y-13387508D01*
X8031611Y-13387508D02*
X8012563Y-13358936D01*
X8012563Y-13358936D02*
X8003039Y-13349412D01*
X2937500Y-13650500D02*
X2937500Y-13850500D01*
X2837500Y-13750500D02*
X3037500Y-13750500D01*
X3279229Y-13641984D02*
X3403039Y-13641984D01*
X3403039Y-13641984D02*
X3336372Y-13718174D01*
X3336372Y-13718174D02*
X3364943Y-13718174D01*
X3364943Y-13718174D02*
X3383991Y-13727698D01*
X3383991Y-13727698D02*
X3393515Y-13737222D01*
X3393515Y-13737222D02*
X3403039Y-13756269D01*
X3403039Y-13756269D02*
X3403039Y-13803888D01*
X3403039Y-13803888D02*
X3393515Y-13822936D01*
X3393515Y-13822936D02*
X3383991Y-13832460D01*
X3383991Y-13832460D02*
X3364943Y-13841984D01*
X3364943Y-13841984D02*
X3307801Y-13841984D01*
X3307801Y-13841984D02*
X3288753Y-13832460D01*
X3288753Y-13832460D02*
X3279229Y-13822936D01*
X3488753Y-13822936D02*
X3498277Y-13832460D01*
X3498277Y-13832460D02*
X3488753Y-13841984D01*
X3488753Y-13841984D02*
X3479229Y-13832460D01*
X3479229Y-13832460D02*
X3488753Y-13822936D01*
X3488753Y-13822936D02*
X3488753Y-13841984D01*
X3622086Y-13641984D02*
X3641134Y-13641984D01*
X3641134Y-13641984D02*
X3660182Y-13651508D01*
X3660182Y-13651508D02*
X3669705Y-13661031D01*
X3669705Y-13661031D02*
X3679229Y-13680079D01*
X3679229Y-13680079D02*
X3688753Y-13718174D01*
X3688753Y-13718174D02*
X3688753Y-13765793D01*
X3688753Y-13765793D02*
X3679229Y-13803888D01*
X3679229Y-13803888D02*
X3669705Y-13822936D01*
X3669705Y-13822936D02*
X3660182Y-13832460D01*
X3660182Y-13832460D02*
X3641134Y-13841984D01*
X3641134Y-13841984D02*
X3622086Y-13841984D01*
X3622086Y-13841984D02*
X3603039Y-13832460D01*
X3603039Y-13832460D02*
X3593515Y-13822936D01*
X3593515Y-13822936D02*
X3583991Y-13803888D01*
X3583991Y-13803888D02*
X3574467Y-13765793D01*
X3574467Y-13765793D02*
X3574467Y-13718174D01*
X3574467Y-13718174D02*
X3583991Y-13680079D01*
X3583991Y-13680079D02*
X3593515Y-13661031D01*
X3593515Y-13661031D02*
X3603039Y-13651508D01*
X3603039Y-13651508D02*
X3622086Y-13641984D01*
X3812562Y-13641984D02*
X3831610Y-13641984D01*
X3831610Y-13641984D02*
X3850658Y-13651508D01*
X3850658Y-13651508D02*
X3860182Y-13661031D01*
X3860182Y-13661031D02*
X3869705Y-13680079D01*
X3869705Y-13680079D02*
X3879229Y-13718174D01*
X3879229Y-13718174D02*
X3879229Y-13765793D01*
X3879229Y-13765793D02*
X3869705Y-13803888D01*
X3869705Y-13803888D02*
X3860182Y-13822936D01*
X3860182Y-13822936D02*
X3850658Y-13832460D01*
X3850658Y-13832460D02*
X3831610Y-13841984D01*
X3831610Y-13841984D02*
X3812562Y-13841984D01*
X3812562Y-13841984D02*
X3793515Y-13832460D01*
X3793515Y-13832460D02*
X3783991Y-13822936D01*
X3783991Y-13822936D02*
X3774467Y-13803888D01*
X3774467Y-13803888D02*
X3764943Y-13765793D01*
X3764943Y-13765793D02*
X3764943Y-13718174D01*
X3764943Y-13718174D02*
X3774467Y-13680079D01*
X3774467Y-13680079D02*
X3783991Y-13661031D01*
X3783991Y-13661031D02*
X3793515Y-13651508D01*
X3793515Y-13651508D02*
X3812562Y-13641984D01*
X4003039Y-13641984D02*
X4022086Y-13641984D01*
X4022086Y-13641984D02*
X4041134Y-13651508D01*
X4041134Y-13651508D02*
X4050658Y-13661031D01*
X4050658Y-13661031D02*
X4060182Y-13680079D01*
X4060182Y-13680079D02*
X4069705Y-13718174D01*
X4069705Y-13718174D02*
X4069705Y-13765793D01*
X4069705Y-13765793D02*
X4060182Y-13803888D01*
X4060182Y-13803888D02*
X4050658Y-13822936D01*
X4050658Y-13822936D02*
X4041134Y-13832460D01*
X4041134Y-13832460D02*
X4022086Y-13841984D01*
X4022086Y-13841984D02*
X4003039Y-13841984D01*
X4003039Y-13841984D02*
X3983991Y-13832460D01*
X3983991Y-13832460D02*
X3974467Y-13822936D01*
X3974467Y-13822936D02*
X3964943Y-13803888D01*
X3964943Y-13803888D02*
X3955420Y-13765793D01*
X3955420Y-13765793D02*
X3955420Y-13718174D01*
X3955420Y-13718174D02*
X3964943Y-13680079D01*
X3964943Y-13680079D02*
X3974467Y-13661031D01*
X3974467Y-13661031D02*
X3983991Y-13651508D01*
X3983991Y-13651508D02*
X4003039Y-13641984D01*
X4155420Y-13841984D02*
X4155420Y-13708650D01*
X4155420Y-13727698D02*
X4164943Y-13718174D01*
X4164943Y-13718174D02*
X4183991Y-13708650D01*
X4183991Y-13708650D02*
X4212563Y-13708650D01*
X4212563Y-13708650D02*
X4231610Y-13718174D01*
X4231610Y-13718174D02*
X4241134Y-13737222D01*
X4241134Y-13737222D02*
X4241134Y-13841984D01*
X4241134Y-13737222D02*
X4250658Y-13718174D01*
X4250658Y-13718174D02*
X4269705Y-13708650D01*
X4269705Y-13708650D02*
X4298277Y-13708650D01*
X4298277Y-13708650D02*
X4317325Y-13718174D01*
X4317325Y-13718174D02*
X4326848Y-13737222D01*
X4326848Y-13737222D02*
X4326848Y-13841984D01*
X4422086Y-13841984D02*
X4422086Y-13708650D01*
X4422086Y-13727698D02*
X4431610Y-13718174D01*
X4431610Y-13718174D02*
X4450658Y-13708650D01*
X4450658Y-13708650D02*
X4479229Y-13708650D01*
X4479229Y-13708650D02*
X4498277Y-13718174D01*
X4498277Y-13718174D02*
X4507801Y-13737222D01*
X4507801Y-13737222D02*
X4507801Y-13841984D01*
X4507801Y-13737222D02*
X4517325Y-13718174D01*
X4517325Y-13718174D02*
X4536372Y-13708650D01*
X4536372Y-13708650D02*
X4564944Y-13708650D01*
X4564944Y-13708650D02*
X4583991Y-13718174D01*
X4583991Y-13718174D02*
X4593515Y-13737222D01*
X4593515Y-13737222D02*
X4593515Y-13841984D01*
X4983991Y-13632460D02*
X4812563Y-13889603D01*
X5241134Y-13641984D02*
X5260182Y-13641984D01*
X5260182Y-13641984D02*
X5279229Y-13651508D01*
X5279229Y-13651508D02*
X5288753Y-13661031D01*
X5288753Y-13661031D02*
X5298277Y-13680079D01*
X5298277Y-13680079D02*
X5307801Y-13718174D01*
X5307801Y-13718174D02*
X5307801Y-13765793D01*
X5307801Y-13765793D02*
X5298277Y-13803888D01*
X5298277Y-13803888D02*
X5288753Y-13822936D01*
X5288753Y-13822936D02*
X5279229Y-13832460D01*
X5279229Y-13832460D02*
X5260182Y-13841984D01*
X5260182Y-13841984D02*
X5241134Y-13841984D01*
X5241134Y-13841984D02*
X5222087Y-13832460D01*
X5222087Y-13832460D02*
X5212563Y-13822936D01*
X5212563Y-13822936D02*
X5203039Y-13803888D01*
X5203039Y-13803888D02*
X5193515Y-13765793D01*
X5193515Y-13765793D02*
X5193515Y-13718174D01*
X5193515Y-13718174D02*
X5203039Y-13680079D01*
X5203039Y-13680079D02*
X5212563Y-13661031D01*
X5212563Y-13661031D02*
X5222087Y-13651508D01*
X5222087Y-13651508D02*
X5241134Y-13641984D01*
X5393515Y-13822936D02*
X5403039Y-13832460D01*
X5403039Y-13832460D02*
X5393515Y-13841984D01*
X5393515Y-13841984D02*
X5383991Y-13832460D01*
X5383991Y-13832460D02*
X5393515Y-13822936D01*
X5393515Y-13822936D02*
X5393515Y-13841984D01*
X5593515Y-13841984D02*
X5479229Y-13841984D01*
X5536372Y-13841984D02*
X5536372Y-13641984D01*
X5536372Y-13641984D02*
X5517325Y-13670555D01*
X5517325Y-13670555D02*
X5498277Y-13689603D01*
X5498277Y-13689603D02*
X5479229Y-13699127D01*
X5783991Y-13841984D02*
X5669706Y-13841984D01*
X5726848Y-13841984D02*
X5726848Y-13641984D01*
X5726848Y-13641984D02*
X5707801Y-13670555D01*
X5707801Y-13670555D02*
X5688753Y-13689603D01*
X5688753Y-13689603D02*
X5669706Y-13699127D01*
X5898277Y-13727698D02*
X5879229Y-13718174D01*
X5879229Y-13718174D02*
X5869706Y-13708650D01*
X5869706Y-13708650D02*
X5860182Y-13689603D01*
X5860182Y-13689603D02*
X5860182Y-13680079D01*
X5860182Y-13680079D02*
X5869706Y-13661031D01*
X5869706Y-13661031D02*
X5879229Y-13651508D01*
X5879229Y-13651508D02*
X5898277Y-13641984D01*
X5898277Y-13641984D02*
X5936372Y-13641984D01*
X5936372Y-13641984D02*
X5955420Y-13651508D01*
X5955420Y-13651508D02*
X5964944Y-13661031D01*
X5964944Y-13661031D02*
X5974467Y-13680079D01*
X5974467Y-13680079D02*
X5974467Y-13689603D01*
X5974467Y-13689603D02*
X5964944Y-13708650D01*
X5964944Y-13708650D02*
X5955420Y-13718174D01*
X5955420Y-13718174D02*
X5936372Y-13727698D01*
X5936372Y-13727698D02*
X5898277Y-13727698D01*
X5898277Y-13727698D02*
X5879229Y-13737222D01*
X5879229Y-13737222D02*
X5869706Y-13746746D01*
X5869706Y-13746746D02*
X5860182Y-13765793D01*
X5860182Y-13765793D02*
X5860182Y-13803888D01*
X5860182Y-13803888D02*
X5869706Y-13822936D01*
X5869706Y-13822936D02*
X5879229Y-13832460D01*
X5879229Y-13832460D02*
X5898277Y-13841984D01*
X5898277Y-13841984D02*
X5936372Y-13841984D01*
X5936372Y-13841984D02*
X5955420Y-13832460D01*
X5955420Y-13832460D02*
X5964944Y-13822936D01*
X5964944Y-13822936D02*
X5974467Y-13803888D01*
X5974467Y-13803888D02*
X5974467Y-13765793D01*
X5974467Y-13765793D02*
X5964944Y-13746746D01*
X5964944Y-13746746D02*
X5955420Y-13737222D01*
X5955420Y-13737222D02*
X5936372Y-13727698D01*
X6164944Y-13841984D02*
X6050658Y-13841984D01*
X6107801Y-13841984D02*
X6107801Y-13641984D01*
X6107801Y-13641984D02*
X6088753Y-13670555D01*
X6088753Y-13670555D02*
X6069706Y-13689603D01*
X6069706Y-13689603D02*
X6050658Y-13699127D01*
X6241134Y-13641984D02*
X6241134Y-13680079D01*
X6317325Y-13641984D02*
X6317325Y-13680079D01*
X6612563Y-13918174D02*
X6603039Y-13908650D01*
X6603039Y-13908650D02*
X6583991Y-13880079D01*
X6583991Y-13880079D02*
X6574468Y-13861031D01*
X6574468Y-13861031D02*
X6564944Y-13832460D01*
X6564944Y-13832460D02*
X6555420Y-13784841D01*
X6555420Y-13784841D02*
X6555420Y-13746746D01*
X6555420Y-13746746D02*
X6564944Y-13699127D01*
X6564944Y-13699127D02*
X6574468Y-13670555D01*
X6574468Y-13670555D02*
X6583991Y-13651508D01*
X6583991Y-13651508D02*
X6603039Y-13622936D01*
X6603039Y-13622936D02*
X6612563Y-13613412D01*
X6669706Y-13641984D02*
X6793515Y-13641984D01*
X6793515Y-13641984D02*
X6726848Y-13718174D01*
X6726848Y-13718174D02*
X6755420Y-13718174D01*
X6755420Y-13718174D02*
X6774468Y-13727698D01*
X6774468Y-13727698D02*
X6783991Y-13737222D01*
X6783991Y-13737222D02*
X6793515Y-13756269D01*
X6793515Y-13756269D02*
X6793515Y-13803888D01*
X6793515Y-13803888D02*
X6783991Y-13822936D01*
X6783991Y-13822936D02*
X6774468Y-13832460D01*
X6774468Y-13832460D02*
X6755420Y-13841984D01*
X6755420Y-13841984D02*
X6698277Y-13841984D01*
X6698277Y-13841984D02*
X6679229Y-13832460D01*
X6679229Y-13832460D02*
X6669706Y-13822936D01*
X7031610Y-13841984D02*
X7031610Y-13641984D01*
X7117325Y-13841984D02*
X7117325Y-13737222D01*
X7117325Y-13737222D02*
X7107801Y-13718174D01*
X7107801Y-13718174D02*
X7088753Y-13708650D01*
X7088753Y-13708650D02*
X7060182Y-13708650D01*
X7060182Y-13708650D02*
X7041134Y-13718174D01*
X7041134Y-13718174D02*
X7031610Y-13727698D01*
X7241134Y-13841984D02*
X7222087Y-13832460D01*
X7222087Y-13832460D02*
X7212563Y-13822936D01*
X7212563Y-13822936D02*
X7203039Y-13803888D01*
X7203039Y-13803888D02*
X7203039Y-13746746D01*
X7203039Y-13746746D02*
X7212563Y-13727698D01*
X7212563Y-13727698D02*
X7222087Y-13718174D01*
X7222087Y-13718174D02*
X7241134Y-13708650D01*
X7241134Y-13708650D02*
X7269706Y-13708650D01*
X7269706Y-13708650D02*
X7288753Y-13718174D01*
X7288753Y-13718174D02*
X7298277Y-13727698D01*
X7298277Y-13727698D02*
X7307801Y-13746746D01*
X7307801Y-13746746D02*
X7307801Y-13803888D01*
X7307801Y-13803888D02*
X7298277Y-13822936D01*
X7298277Y-13822936D02*
X7288753Y-13832460D01*
X7288753Y-13832460D02*
X7269706Y-13841984D01*
X7269706Y-13841984D02*
X7241134Y-13841984D01*
X7422087Y-13841984D02*
X7403039Y-13832460D01*
X7403039Y-13832460D02*
X7393515Y-13813412D01*
X7393515Y-13813412D02*
X7393515Y-13641984D01*
X7574468Y-13832460D02*
X7555420Y-13841984D01*
X7555420Y-13841984D02*
X7517325Y-13841984D01*
X7517325Y-13841984D02*
X7498277Y-13832460D01*
X7498277Y-13832460D02*
X7488753Y-13813412D01*
X7488753Y-13813412D02*
X7488753Y-13737222D01*
X7488753Y-13737222D02*
X7498277Y-13718174D01*
X7498277Y-13718174D02*
X7517325Y-13708650D01*
X7517325Y-13708650D02*
X7555420Y-13708650D01*
X7555420Y-13708650D02*
X7574468Y-13718174D01*
X7574468Y-13718174D02*
X7583991Y-13737222D01*
X7583991Y-13737222D02*
X7583991Y-13756269D01*
X7583991Y-13756269D02*
X7488753Y-13775317D01*
X7660182Y-13832460D02*
X7679230Y-13841984D01*
X7679230Y-13841984D02*
X7717325Y-13841984D01*
X7717325Y-13841984D02*
X7736372Y-13832460D01*
X7736372Y-13832460D02*
X7745896Y-13813412D01*
X7745896Y-13813412D02*
X7745896Y-13803888D01*
X7745896Y-13803888D02*
X7736372Y-13784841D01*
X7736372Y-13784841D02*
X7717325Y-13775317D01*
X7717325Y-13775317D02*
X7688753Y-13775317D01*
X7688753Y-13775317D02*
X7669706Y-13765793D01*
X7669706Y-13765793D02*
X7660182Y-13746746D01*
X7660182Y-13746746D02*
X7660182Y-13737222D01*
X7660182Y-13737222D02*
X7669706Y-13718174D01*
X7669706Y-13718174D02*
X7688753Y-13708650D01*
X7688753Y-13708650D02*
X7717325Y-13708650D01*
X7717325Y-13708650D02*
X7736372Y-13718174D01*
X7812563Y-13918174D02*
X7822087Y-13908650D01*
X7822087Y-13908650D02*
X7841134Y-13880079D01*
X7841134Y-13880079D02*
X7850658Y-13861031D01*
X7850658Y-13861031D02*
X7860182Y-13832460D01*
X7860182Y-13832460D02*
X7869706Y-13784841D01*
X7869706Y-13784841D02*
X7869706Y-13746746D01*
X7869706Y-13746746D02*
X7860182Y-13699127D01*
X7860182Y-13699127D02*
X7850658Y-13670555D01*
X7850658Y-13670555D02*
X7841134Y-13651508D01*
X7841134Y-13651508D02*
X7822087Y-13622936D01*
X7822087Y-13622936D02*
X7812563Y-13613412D01*
M02*
