%TF.GenerationSoftware,KiCad,Pcbnew,7.0.7*%
%TF.CreationDate,2023-11-08T12:28:35+01:00*%
%TF.ProjectId,macrolev,6d616372-6f6c-4657-962e-6b696361645f,1.0*%
%TF.SameCoordinates,Original*%
%TF.FileFunction,Soldermask,Bot*%
%TF.FilePolarity,Negative*%
%FSLAX46Y46*%
G04 Gerber Fmt 4.6, Leading zero omitted, Abs format (unit mm)*
G04 Created by KiCad (PCBNEW 7.0.7) date 2023-11-08 12:28:35*
%MOMM*%
%LPD*%
G01*
G04 APERTURE LIST*
G04 Aperture macros list*
%AMRoundRect*
0 Rectangle with rounded corners*
0 $1 Rounding radius*
0 $2 $3 $4 $5 $6 $7 $8 $9 X,Y pos of 4 corners*
0 Add a 4 corners polygon primitive as box body*
4,1,4,$2,$3,$4,$5,$6,$7,$8,$9,$2,$3,0*
0 Add four circle primitives for the rounded corners*
1,1,$1+$1,$2,$3*
1,1,$1+$1,$4,$5*
1,1,$1+$1,$6,$7*
1,1,$1+$1,$8,$9*
0 Add four rect primitives between the rounded corners*
20,1,$1+$1,$2,$3,$4,$5,0*
20,1,$1+$1,$4,$5,$6,$7,0*
20,1,$1+$1,$6,$7,$8,$9,0*
20,1,$1+$1,$8,$9,$2,$3,0*%
%AMRotRect*
0 Rectangle, with rotation*
0 The origin of the aperture is its center*
0 $1 length*
0 $2 width*
0 $3 Rotation angle, in degrees counterclockwise*
0 Add horizontal line*
21,1,$1,$2,0,0,$3*%
G04 Aperture macros list end*
%ADD10C,1.750000*%
%ADD11C,3.048000*%
%ADD12C,3.987800*%
%ADD13RoundRect,0.150000X-0.521491X0.309359X0.309359X-0.521491X0.521491X-0.309359X-0.309359X0.521491X0*%
%ADD14R,1.700000X1.700000*%
%ADD15O,1.700000X1.700000*%
%ADD16RoundRect,0.155000X0.155000X-0.212500X0.155000X0.212500X-0.155000X0.212500X-0.155000X-0.212500X0*%
%ADD17C,3.400000*%
%ADD18C,6.000000*%
%ADD19RoundRect,0.237500X0.300000X0.237500X-0.300000X0.237500X-0.300000X-0.237500X0.300000X-0.237500X0*%
%ADD20RoundRect,0.155000X-0.212500X-0.155000X0.212500X-0.155000X0.212500X0.155000X-0.212500X0.155000X0*%
%ADD21RoundRect,0.155000X0.259862X-0.040659X-0.040659X0.259862X-0.259862X0.040659X0.040659X-0.259862X0*%
%ADD22RoundRect,0.250000X-0.475000X0.337500X-0.475000X-0.337500X0.475000X-0.337500X0.475000X0.337500X0*%
%ADD23RoundRect,0.155000X-0.259862X0.040659X0.040659X-0.259862X0.259862X-0.040659X-0.040659X0.259862X0*%
%ADD24RoundRect,0.160000X-0.197500X-0.160000X0.197500X-0.160000X0.197500X0.160000X-0.197500X0.160000X0*%
%ADD25C,3.000000*%
%ADD26RoundRect,0.155000X-0.040659X-0.259862X0.259862X0.040659X0.040659X0.259862X-0.259862X-0.040659X0*%
%ADD27RoundRect,0.160000X-0.026517X-0.252791X0.252791X0.026517X0.026517X0.252791X-0.252791X-0.026517X0*%
%ADD28R,2.000000X1.500000*%
%ADD29R,2.000000X3.800000*%
%ADD30RoundRect,0.155000X0.040659X0.259862X-0.259862X-0.040659X-0.040659X-0.259862X0.259862X0.040659X0*%
%ADD31RoundRect,0.160000X0.026517X0.252791X-0.252791X-0.026517X-0.026517X-0.252791X0.252791X0.026517X0*%
%ADD32RoundRect,0.237500X0.287500X0.237500X-0.287500X0.237500X-0.287500X-0.237500X0.287500X-0.237500X0*%
%ADD33R,1.750000X0.450000*%
%ADD34R,0.650000X1.050000*%
%ADD35RoundRect,0.250000X-0.337500X-0.475000X0.337500X-0.475000X0.337500X0.475000X-0.337500X0.475000X0*%
%ADD36RoundRect,0.155000X0.212500X0.155000X-0.212500X0.155000X-0.212500X-0.155000X0.212500X-0.155000X0*%
%ADD37RoundRect,0.237500X0.035355X0.371231X-0.371231X-0.035355X-0.035355X-0.371231X0.371231X0.035355X0*%
%ADD38RotRect,2.100000X1.800000X135.000000*%
%ADD39RoundRect,0.160000X0.160000X-0.197500X0.160000X0.197500X-0.160000X0.197500X-0.160000X-0.197500X0*%
%ADD40RoundRect,0.062500X-0.220971X-0.309359X0.309359X0.220971X0.220971X0.309359X-0.309359X-0.220971X0*%
%ADD41RoundRect,0.062500X0.220971X-0.309359X0.309359X-0.220971X-0.220971X0.309359X-0.309359X0.220971X0*%
%ADD42RotRect,5.600000X5.600000X45.000000*%
%ADD43RoundRect,0.160000X-0.160000X0.197500X-0.160000X-0.197500X0.160000X-0.197500X0.160000X0.197500X0*%
G04 APERTURE END LIST*
D10*
%TO.C,( 5*%
X153982500Y-40000000D03*
X164142500Y-40000000D03*
%TD*%
%TO.C,enter*%
X323051250Y-68575000D03*
X333211250Y-68575000D03*
%TD*%
%TO.C,a*%
X87307500Y-59050000D03*
X97467500Y-59050000D03*
%TD*%
%TO.C,e*%
X125407500Y-59050000D03*
X135567500Y-59050000D03*
%TD*%
%TO.C,q*%
X92070000Y-78100000D03*
X102230000Y-78100000D03*
%TD*%
%TO.C,m*%
X263520000Y-78100000D03*
X273680000Y-78100000D03*
%TD*%
%TO.C,; .*%
X234945000Y-97150000D03*
X245105000Y-97150000D03*
%TD*%
%TO.C,j*%
X206370000Y-78100000D03*
X216530000Y-78100000D03*
%TD*%
%TO.C,$ \u002A \u20AC*%
X296857500Y-59050000D03*
X307017500Y-59050000D03*
%TD*%
%TO.C,backspace*%
X315920000Y-40000000D03*
X326080000Y-40000000D03*
%TD*%
%TO.C,y*%
X182557500Y-59050000D03*
X192717500Y-59050000D03*
%TD*%
%TO.C,= +*%
X273045000Y-97150000D03*
X283205000Y-97150000D03*
%TD*%
%TO.C,: /*%
X253995000Y-97150000D03*
X264155000Y-97150000D03*
%TD*%
%TO.C,rshift*%
X308763750Y-97150000D03*
X318923750Y-97150000D03*
%TD*%
D11*
%TO.C,REF\u002A\u002A*%
X216212500Y-123185000D03*
D12*
X216212500Y-107945000D03*
D11*
X192400000Y-123185000D03*
D12*
X192400000Y-107945000D03*
%TD*%
D10*
%TO.C,\u00F9 \u0025*%
X282570000Y-78100000D03*
X292730000Y-78100000D03*
%TD*%
%TO.C,left*%
X287332500Y-116200000D03*
X297492500Y-116200000D03*
%TD*%
%TO.C,f*%
X149220000Y-78100000D03*
X159380000Y-78100000D03*
%TD*%
%TO.C,caps lock*%
X65876250Y-78100000D03*
X76036250Y-78100000D03*
%TD*%
%TO.C,n*%
X196845000Y-97150000D03*
X207005000Y-97150000D03*
%TD*%
%TO.C,` \u00A3*%
X301620000Y-78100000D03*
X311780000Y-78100000D03*
%TD*%
%TO.C,r*%
X144457500Y-59050000D03*
X154617500Y-59050000D03*
%TD*%
%TO.C,t*%
X163507500Y-59050000D03*
X173667500Y-59050000D03*
%TD*%
%TO.C,p*%
X258757500Y-59050000D03*
X268917500Y-59050000D03*
%TD*%
%TO.C,& 1*%
X77782500Y-40000000D03*
X87942500Y-40000000D03*
%TD*%
%TO.C,v*%
X158745000Y-97150000D03*
X168905000Y-97150000D03*
%TD*%
%TO.C,down*%
X306382500Y-116200000D03*
X316542500Y-116200000D03*
%TD*%
%TO.C,- _*%
X287332500Y-40000000D03*
X297492500Y-40000000D03*
%TD*%
%TO.C,c*%
X139695000Y-97150000D03*
X149855000Y-97150000D03*
%TD*%
D11*
%TO.C,REF\u002A\u002A*%
X301937500Y-90165000D03*
D12*
X301937500Y-105405000D03*
D11*
X325750000Y-90165000D03*
D12*
X325750000Y-105405000D03*
%TD*%
D10*
%TO.C,s*%
X111120000Y-78100000D03*
X121280000Y-78100000D03*
%TD*%
%TO.C,d*%
X130170000Y-78100000D03*
X140330000Y-78100000D03*
%TD*%
D11*
%TO.C,REF\u002A\u002A*%
X168587500Y-123185000D03*
D12*
X168587500Y-107945000D03*
D11*
X144775000Y-123185000D03*
D12*
X144775000Y-107945000D03*
%TD*%
D10*
%TO.C,right*%
X325432500Y-116200000D03*
X335592500Y-116200000D03*
%TD*%
%TO.C,ctrl*%
X65876250Y-116200000D03*
X76036250Y-116200000D03*
%TD*%
%TO.C,< >*%
X82545000Y-97150000D03*
X92705000Y-97150000D03*
%TD*%
%TO.C,h*%
X187320000Y-78100000D03*
X197480000Y-78100000D03*
%TD*%
%TO.C,u*%
X201607500Y-59050000D03*
X211767500Y-59050000D03*
%TD*%
%TO.C,i*%
X220657500Y-59050000D03*
X230817500Y-59050000D03*
%TD*%
%TO.C,esc*%
X34920000Y-40000000D03*
X45080000Y-40000000D03*
%TD*%
%TO.C,l*%
X244470000Y-78100000D03*
X254630000Y-78100000D03*
%TD*%
%TO.C,! 8*%
X211132500Y-40000000D03*
X221292500Y-40000000D03*
%TD*%
D11*
%TO.C,REF\u002A\u002A*%
X309081250Y-33015000D03*
D12*
X309081250Y-48255000D03*
D11*
X332893750Y-33015000D03*
D12*
X332893750Y-48255000D03*
%TD*%
D10*
%TO.C,\u002C ?*%
X215895000Y-97150000D03*
X226055000Y-97150000D03*
%TD*%
%TO.C,\u00E9 2*%
X96832500Y-40000000D03*
X106992500Y-40000000D03*
%TD*%
%TO.C,lspace*%
X151601250Y-116200000D03*
X161761250Y-116200000D03*
%TD*%
%TO.C,fn*%
X34920000Y-78100000D03*
X45080000Y-78100000D03*
%TD*%
D12*
%TO.C,REF\u002A\u002A*%
X319876250Y-56668750D03*
X319876250Y-80481250D03*
D11*
X335116250Y-56668750D03*
X335116250Y-80481250D03*
%TD*%
D10*
%TO.C,\u00A7 6*%
X173032500Y-40000000D03*
X183192500Y-40000000D03*
%TD*%
%TO.C,\u00E0 0*%
X249232500Y-40000000D03*
X259392500Y-40000000D03*
%TD*%
%TO.C,option*%
X94451250Y-116200000D03*
X104611250Y-116200000D03*
%TD*%
%TO.C,b*%
X177795000Y-97150000D03*
X187955000Y-97150000D03*
%TD*%
%TO.C,tab*%
X63495000Y-59050000D03*
X73655000Y-59050000D03*
%TD*%
%TO.C," 3*%
X115882500Y-40000000D03*
X126042500Y-40000000D03*
%TD*%
%TO.C,option*%
X258757500Y-116200000D03*
X268917500Y-116200000D03*
%TD*%
%TO.C,w*%
X101595000Y-97150000D03*
X111755000Y-97150000D03*
%TD*%
%TO.C,cmd*%
X118263750Y-116200000D03*
X128423750Y-116200000D03*
%TD*%
%TO.C,' 4*%
X134932500Y-40000000D03*
X145092500Y-40000000D03*
%TD*%
%TO.C,x*%
X120645000Y-97150000D03*
X130805000Y-97150000D03*
%TD*%
%TO.C,g*%
X168270000Y-78100000D03*
X178430000Y-78100000D03*
%TD*%
%TO.C,^ \u00A8*%
X277807500Y-59050000D03*
X287967500Y-59050000D03*
%TD*%
%TO.C,@ #*%
X58732500Y-40000000D03*
X68892500Y-40000000D03*
%TD*%
%TO.C,cmd*%
X237320000Y-116200000D03*
X247480000Y-116200000D03*
%TD*%
%TO.C,lshift*%
X61113750Y-97150000D03*
X71273750Y-97150000D03*
%TD*%
%TO.C,k*%
X225420000Y-78100000D03*
X235580000Y-78100000D03*
%TD*%
%TO.C,fn2*%
X34920000Y-59050000D03*
X45080000Y-59050000D03*
%TD*%
%TO.C,) \u00B0*%
X268282500Y-40000000D03*
X278442500Y-40000000D03*
%TD*%
%TO.C,rspace*%
X199226250Y-116200000D03*
X209386250Y-116200000D03*
%TD*%
%TO.C,\u00E7 9*%
X230182500Y-40000000D03*
X240342500Y-40000000D03*
%TD*%
%TO.C,\u00E8 7*%
X192082500Y-40000000D03*
X202242500Y-40000000D03*
%TD*%
%TO.C,o*%
X239707500Y-59050000D03*
X249867500Y-59050000D03*
%TD*%
%TO.C,z*%
X106357500Y-59050000D03*
X116517500Y-59050000D03*
%TD*%
D13*
%TO.C,U36*%
X152965336Y-78108839D03*
X154308839Y-76765336D03*
X154962913Y-78762913D03*
%TD*%
D14*
%TO.C,J1*%
X185730000Y-44550000D03*
D15*
X183190000Y-44550000D03*
X180650000Y-44550000D03*
X178110000Y-44550000D03*
%TD*%
D16*
%TO.C,C16*%
X308800000Y-67117500D03*
X308800000Y-65982500D03*
%TD*%
D13*
%TO.C,U62*%
X202971586Y-116208839D03*
X204315089Y-114865336D03*
X204969163Y-116862913D03*
%TD*%
D17*
%TO.C,REF\u002A\u002A*%
X291200000Y-93100000D03*
D18*
X291200000Y-93100000D03*
%TD*%
D13*
%TO.C,U42*%
X267265336Y-78108839D03*
X268608839Y-76765336D03*
X269262913Y-78762913D03*
%TD*%
%TO.C,U48*%
X124390336Y-97158839D03*
X125733839Y-95815336D03*
X126387913Y-97812913D03*
%TD*%
%TO.C,U45*%
X64859086Y-97158839D03*
X66202589Y-95815336D03*
X66856663Y-97812913D03*
%TD*%
D19*
%TO.C,C1*%
X169750000Y-55175000D03*
X168025000Y-55175000D03*
%TD*%
D13*
%TO.C,U50*%
X162490336Y-97158839D03*
X163833839Y-95815336D03*
X164487913Y-97812913D03*
%TD*%
%TO.C,U2*%
X62477836Y-40008839D03*
X63821339Y-38665336D03*
X64475413Y-40662913D03*
%TD*%
%TO.C,U58*%
X69621586Y-116208839D03*
X70965089Y-114865336D03*
X71619163Y-116862913D03*
%TD*%
%TO.C,U29*%
X300602836Y-59058839D03*
X301946339Y-57715336D03*
X302600413Y-59712913D03*
%TD*%
%TO.C,U23*%
X186302836Y-59058839D03*
X187646339Y-57715336D03*
X188300413Y-59712913D03*
%TD*%
%TO.C,U59*%
X98196586Y-116208839D03*
X99540089Y-114865336D03*
X100194163Y-116862913D03*
%TD*%
%TO.C,U22*%
X167252836Y-59058839D03*
X168596339Y-57715336D03*
X169250413Y-59712913D03*
%TD*%
D20*
%TO.C,C17*%
X78532500Y-64150000D03*
X79667500Y-64150000D03*
%TD*%
D13*
%TO.C,U18*%
X91052836Y-59058839D03*
X92396339Y-57715336D03*
X93050413Y-59712913D03*
%TD*%
D21*
%TO.C,C13*%
X163191968Y-52602145D03*
X162389402Y-51799579D03*
%TD*%
D13*
%TO.C,U21*%
X148202836Y-59058839D03*
X149546339Y-57715336D03*
X150200413Y-59712913D03*
%TD*%
D22*
%TO.C,C11*%
X177925000Y-53690832D03*
X177925000Y-55765832D03*
%TD*%
D13*
%TO.C,U28*%
X281552836Y-59058839D03*
X282896339Y-57715336D03*
X283550413Y-59712913D03*
%TD*%
%TO.C,U43*%
X286315336Y-78108839D03*
X287658839Y-76765336D03*
X288312913Y-78762913D03*
%TD*%
%TO.C,U60*%
X122009086Y-116208839D03*
X123352589Y-114865336D03*
X124006663Y-116862913D03*
%TD*%
D23*
%TO.C,C2*%
X167656255Y-51301586D03*
X168458821Y-52104152D03*
%TD*%
D13*
%TO.C,U51*%
X181540336Y-97158839D03*
X182883839Y-95815336D03*
X183537913Y-97812913D03*
%TD*%
%TO.C,U55*%
X257740336Y-97158839D03*
X259083839Y-95815336D03*
X259737913Y-97812913D03*
%TD*%
%TO.C,U30*%
X326796586Y-68583839D03*
X328140089Y-67240336D03*
X328794163Y-69237913D03*
%TD*%
%TO.C,U8*%
X176777836Y-40008839D03*
X178121339Y-38665336D03*
X178775413Y-40662913D03*
%TD*%
D24*
%TO.C,R4*%
X175802500Y-62075000D03*
X176997500Y-62075000D03*
%TD*%
D13*
%TO.C,U1*%
X38665336Y-40008839D03*
X40008839Y-38665336D03*
X40662913Y-40662913D03*
%TD*%
%TO.C,U61*%
X155346586Y-116208839D03*
X156690089Y-114865336D03*
X157344163Y-116862913D03*
%TD*%
D20*
%TO.C,C15*%
X274432500Y-64550000D03*
X275567500Y-64550000D03*
%TD*%
D25*
%TO.C,FID2*%
X51906250Y-42857500D03*
%TD*%
D13*
%TO.C,U27*%
X262502836Y-59058839D03*
X263846339Y-57715336D03*
X264500413Y-59712913D03*
%TD*%
%TO.C,U19*%
X110102836Y-59058839D03*
X111446339Y-57715336D03*
X112100413Y-59712913D03*
%TD*%
%TO.C,U5*%
X119627836Y-40008839D03*
X120971339Y-38665336D03*
X121625413Y-40662913D03*
%TD*%
%TO.C,U47*%
X105340336Y-97158839D03*
X106683839Y-95815336D03*
X107337913Y-97812913D03*
%TD*%
%TO.C,U34*%
X114865336Y-78108839D03*
X116208839Y-76765336D03*
X116862913Y-78762913D03*
%TD*%
D14*
%TO.C,J2*%
X184075000Y-72945000D03*
D15*
X184075000Y-70405000D03*
X184075000Y-67865000D03*
X184075000Y-65325000D03*
%TD*%
D13*
%TO.C,U66*%
X310127836Y-116208839D03*
X311471339Y-114865336D03*
X312125413Y-116862913D03*
%TD*%
%TO.C,U26*%
X243452836Y-59058839D03*
X244796339Y-57715336D03*
X245450413Y-59712913D03*
%TD*%
D26*
%TO.C,C3*%
X169562749Y-51709411D03*
X170365315Y-50906845D03*
%TD*%
D25*
%TO.C,FID1*%
X33850000Y-114900000D03*
%TD*%
D27*
%TO.C,R2*%
X171627501Y-50068923D03*
X172472493Y-49223931D03*
%TD*%
D13*
%TO.C,U6*%
X138677836Y-40008839D03*
X140021339Y-38665336D03*
X140675413Y-40662913D03*
%TD*%
%TO.C,U64*%
X262502836Y-116208839D03*
X263846339Y-114865336D03*
X264500413Y-116862913D03*
%TD*%
D28*
%TO.C,U68*%
X180225000Y-55850000D03*
X180225000Y-53550000D03*
D29*
X186525000Y-53550000D03*
D28*
X180225000Y-51250000D03*
%TD*%
D23*
%TO.C,C6*%
X163873234Y-47872118D03*
X164675800Y-48674684D03*
%TD*%
D30*
%TO.C,C8*%
X160550000Y-49875000D03*
X159747434Y-50677566D03*
%TD*%
D31*
%TO.C,R1*%
X173886707Y-47385454D03*
X173041715Y-48230446D03*
%TD*%
D13*
%TO.C,U56*%
X276790336Y-97158839D03*
X278133839Y-95815336D03*
X278787913Y-97812913D03*
%TD*%
%TO.C,U63*%
X241071586Y-116208839D03*
X242415089Y-114865336D03*
X243069163Y-116862913D03*
%TD*%
D32*
%TO.C,FB2*%
X190375000Y-50250000D03*
X188625000Y-50250000D03*
%TD*%
D13*
%TO.C,U20*%
X129152836Y-59058839D03*
X130496339Y-57715336D03*
X131150413Y-59712913D03*
%TD*%
%TO.C,U7*%
X157727836Y-40008839D03*
X159071339Y-38665336D03*
X159725413Y-40662913D03*
%TD*%
D33*
%TO.C,AMUX4*%
X319082500Y-67140000D03*
X319082500Y-67790000D03*
X319082500Y-68440000D03*
X319082500Y-69090000D03*
X319082500Y-69740000D03*
X319082500Y-70390000D03*
X319082500Y-71040000D03*
X319082500Y-71690000D03*
X319082500Y-72340000D03*
X319082500Y-72990000D03*
X319082500Y-73640000D03*
X319082500Y-74290000D03*
X311882500Y-74290000D03*
X311882500Y-73640000D03*
X311882500Y-72990000D03*
X311882500Y-72340000D03*
X311882500Y-71690000D03*
X311882500Y-71040000D03*
X311882500Y-70390000D03*
X311882500Y-69740000D03*
X311882500Y-69090000D03*
X311882500Y-68440000D03*
X311882500Y-67790000D03*
X311882500Y-67140000D03*
%TD*%
D14*
%TO.C,J3*%
X185730000Y-48150000D03*
D15*
X183190000Y-48150000D03*
X180650000Y-48150000D03*
X178110000Y-48150000D03*
%TD*%
D13*
%TO.C,U52*%
X200590336Y-97158839D03*
X201933839Y-95815336D03*
X202587913Y-97812913D03*
%TD*%
%TO.C,U14*%
X291077836Y-40008839D03*
X292421339Y-38665336D03*
X293075413Y-40662913D03*
%TD*%
%TO.C,U33*%
X95815336Y-78108839D03*
X97158839Y-76765336D03*
X97812913Y-78762913D03*
%TD*%
%TO.C,U44*%
X305365336Y-78108839D03*
X306708839Y-76765336D03*
X307362913Y-78762913D03*
%TD*%
D33*
%TO.C,AMUX3*%
X281725000Y-67140000D03*
X281725000Y-67790000D03*
X281725000Y-68440000D03*
X281725000Y-69090000D03*
X281725000Y-69740000D03*
X281725000Y-70390000D03*
X281725000Y-71040000D03*
X281725000Y-71690000D03*
X281725000Y-72340000D03*
X281725000Y-72990000D03*
X281725000Y-73640000D03*
X281725000Y-74290000D03*
X274525000Y-74290000D03*
X274525000Y-73640000D03*
X274525000Y-72990000D03*
X274525000Y-72340000D03*
X274525000Y-71690000D03*
X274525000Y-71040000D03*
X274525000Y-70390000D03*
X274525000Y-69740000D03*
X274525000Y-69090000D03*
X274525000Y-68440000D03*
X274525000Y-67790000D03*
X274525000Y-67140000D03*
%TD*%
D13*
%TO.C,U16*%
X38665336Y-59058839D03*
X40008839Y-57715336D03*
X40662913Y-59712913D03*
%TD*%
D34*
%TO.C,SW2*%
X174800000Y-64475000D03*
X174800000Y-68625000D03*
X176950000Y-64475000D03*
X176950000Y-68625000D03*
%TD*%
D13*
%TO.C,U12*%
X252977836Y-40008839D03*
X254321339Y-38665336D03*
X254975413Y-40662913D03*
%TD*%
D35*
%TO.C,C10*%
X188687500Y-52450000D03*
X190762500Y-52450000D03*
%TD*%
D13*
%TO.C,U38*%
X191065336Y-78108839D03*
X192408839Y-76765336D03*
X193062913Y-78762913D03*
%TD*%
D36*
%TO.C,C14*%
X204667500Y-63500000D03*
X203532500Y-63500000D03*
%TD*%
D13*
%TO.C,U54*%
X238690336Y-97158839D03*
X240033839Y-95815336D03*
X240687913Y-97812913D03*
%TD*%
%TO.C,U49*%
X143440336Y-97158839D03*
X144783839Y-95815336D03*
X145437913Y-97812913D03*
%TD*%
%TO.C,U9*%
X195827836Y-40008839D03*
X197171339Y-38665336D03*
X197825413Y-40662913D03*
%TD*%
D32*
%TO.C,D1*%
X192775000Y-47600000D03*
X191025000Y-47600000D03*
%TD*%
D13*
%TO.C,U37*%
X172015336Y-78108839D03*
X173358839Y-76765336D03*
X174012913Y-78762913D03*
%TD*%
D30*
%TO.C,C5*%
X168526283Y-39723717D03*
X167723717Y-40526283D03*
%TD*%
D37*
%TO.C,FB1*%
X160493718Y-48131282D03*
X159256282Y-49368718D03*
%TD*%
D13*
%TO.C,U3*%
X81527836Y-40008839D03*
X82871339Y-38665336D03*
X83525413Y-40662913D03*
%TD*%
%TO.C,U25*%
X224402836Y-59058839D03*
X225746339Y-57715336D03*
X226400413Y-59712913D03*
%TD*%
D21*
%TO.C,C9*%
X164307178Y-49752493D03*
X163504612Y-48949927D03*
%TD*%
D13*
%TO.C,U39*%
X210115336Y-78108839D03*
X211458839Y-76765336D03*
X212112913Y-78762913D03*
%TD*%
%TO.C,U46*%
X86290336Y-97158839D03*
X87633839Y-95815336D03*
X88287913Y-97812913D03*
%TD*%
D17*
%TO.C,REF\u002A\u002A*%
X84000000Y-82100000D03*
D18*
X84000000Y-82100000D03*
%TD*%
D13*
%TO.C,U57*%
X312509086Y-97158839D03*
X313852589Y-95815336D03*
X314506663Y-97812913D03*
%TD*%
%TO.C,U17*%
X67240336Y-59058839D03*
X68583839Y-57715336D03*
X69237913Y-59712913D03*
%TD*%
%TO.C,U10*%
X214877836Y-40008839D03*
X216221339Y-38665336D03*
X216875413Y-40662913D03*
%TD*%
%TO.C,U31*%
X38665336Y-78108839D03*
X40008839Y-76765336D03*
X40662913Y-78762913D03*
%TD*%
%TO.C,U65*%
X291077836Y-116208839D03*
X292421339Y-114865336D03*
X293075413Y-116862913D03*
%TD*%
%TO.C,U13*%
X272027836Y-40008839D03*
X273371339Y-38665336D03*
X274025413Y-40662913D03*
%TD*%
D21*
%TO.C,C7*%
X161151283Y-47026283D03*
X160348717Y-46223717D03*
%TD*%
D34*
%TO.C,SW1*%
X154475000Y-51975000D03*
X154475000Y-56125000D03*
X156625000Y-51975000D03*
X156625000Y-56125000D03*
%TD*%
D38*
%TO.C,Y1*%
X161800736Y-56938478D03*
X159750126Y-54887868D03*
X161376472Y-53261522D03*
X163427082Y-55312132D03*
%TD*%
D13*
%TO.C,U40*%
X229165336Y-78108839D03*
X230508839Y-76765336D03*
X231162913Y-78762913D03*
%TD*%
D39*
%TO.C,R5*%
X194100000Y-47597500D03*
X194100000Y-46402500D03*
%TD*%
D13*
%TO.C,U35*%
X133915336Y-78108839D03*
X135258839Y-76765336D03*
X135912913Y-78762913D03*
%TD*%
%TO.C,U15*%
X319652836Y-40008839D03*
X320996339Y-38665336D03*
X321650413Y-40662913D03*
%TD*%
%TO.C,U11*%
X233927836Y-40008839D03*
X235271339Y-38665336D03*
X235925413Y-40662913D03*
%TD*%
D33*
%TO.C,AMUX0*%
X85720000Y-67140000D03*
X85720000Y-67790000D03*
X85720000Y-68440000D03*
X85720000Y-69090000D03*
X85720000Y-69740000D03*
X85720000Y-70390000D03*
X85720000Y-71040000D03*
X85720000Y-71690000D03*
X85720000Y-72340000D03*
X85720000Y-72990000D03*
X85720000Y-73640000D03*
X85720000Y-74290000D03*
X78520000Y-74290000D03*
X78520000Y-73640000D03*
X78520000Y-72990000D03*
X78520000Y-72340000D03*
X78520000Y-71690000D03*
X78520000Y-71040000D03*
X78520000Y-70390000D03*
X78520000Y-69740000D03*
X78520000Y-69090000D03*
X78520000Y-68440000D03*
X78520000Y-67790000D03*
X78520000Y-67140000D03*
%TD*%
D13*
%TO.C,U4*%
X100577836Y-40008839D03*
X101921339Y-38665336D03*
X102575413Y-40662913D03*
%TD*%
D33*
%TO.C,AMUX2*%
X211240000Y-65000000D03*
X211240000Y-65650000D03*
X211240000Y-66300000D03*
X211240000Y-66950000D03*
X211240000Y-67600000D03*
X211240000Y-68250000D03*
X211240000Y-68900000D03*
X211240000Y-69550000D03*
X211240000Y-70200000D03*
X211240000Y-70850000D03*
X211240000Y-71500000D03*
X211240000Y-72150000D03*
X204040000Y-72150000D03*
X204040000Y-71500000D03*
X204040000Y-70850000D03*
X204040000Y-70200000D03*
X204040000Y-69550000D03*
X204040000Y-68900000D03*
X204040000Y-68250000D03*
X204040000Y-67600000D03*
X204040000Y-66950000D03*
X204040000Y-66300000D03*
X204040000Y-65650000D03*
X204040000Y-65000000D03*
%TD*%
D40*
%TO.C,U69*%
X168313864Y-50315172D03*
X167960311Y-49961619D03*
X167606757Y-49608065D03*
X167253204Y-49254512D03*
X166899651Y-48900959D03*
X166546097Y-48547405D03*
X166192544Y-48193852D03*
X165838990Y-47840298D03*
X165485437Y-47486745D03*
X165131884Y-47133192D03*
X164778330Y-46779638D03*
X164424777Y-46426085D03*
D41*
X164424777Y-45453813D03*
X164778330Y-45100260D03*
X165131884Y-44746706D03*
X165485437Y-44393153D03*
X165838990Y-44039600D03*
X166192544Y-43686046D03*
X166546097Y-43332493D03*
X166899651Y-42978939D03*
X167253204Y-42625386D03*
X167606757Y-42271833D03*
X167960311Y-41918279D03*
X168313864Y-41564726D03*
D40*
X169286136Y-41564726D03*
X169639689Y-41918279D03*
X169993243Y-42271833D03*
X170346796Y-42625386D03*
X170700349Y-42978939D03*
X171053903Y-43332493D03*
X171407456Y-43686046D03*
X171761010Y-44039600D03*
X172114563Y-44393153D03*
X172468116Y-44746706D03*
X172821670Y-45100260D03*
X173175223Y-45453813D03*
D41*
X173175223Y-46426085D03*
X172821670Y-46779638D03*
X172468116Y-47133192D03*
X172114563Y-47486745D03*
X171761010Y-47840298D03*
X171407456Y-48193852D03*
X171053903Y-48547405D03*
X170700349Y-48900959D03*
X170346796Y-49254512D03*
X169993243Y-49608065D03*
X169639689Y-49961619D03*
X169286136Y-50315172D03*
D42*
X168800000Y-45939949D03*
%TD*%
D43*
%TO.C,R3*%
X157200000Y-49152500D03*
X157200000Y-50347500D03*
%TD*%
D13*
%TO.C,U24*%
X205352836Y-59058839D03*
X206696339Y-57715336D03*
X207350413Y-59712913D03*
%TD*%
%TO.C,U41*%
X248215336Y-78108839D03*
X249558839Y-76765336D03*
X250212913Y-78762913D03*
%TD*%
D23*
%TO.C,C12*%
X164015748Y-53425925D03*
X164818314Y-54228491D03*
%TD*%
D13*
%TO.C,U67*%
X329177836Y-116208839D03*
X330521339Y-114865336D03*
X331175413Y-116862913D03*
%TD*%
D33*
%TO.C,AMUX1*%
X148585000Y-67140000D03*
X148585000Y-67790000D03*
X148585000Y-68440000D03*
X148585000Y-69090000D03*
X148585000Y-69740000D03*
X148585000Y-70390000D03*
X148585000Y-71040000D03*
X148585000Y-71690000D03*
X148585000Y-72340000D03*
X148585000Y-72990000D03*
X148585000Y-73640000D03*
X148585000Y-74290000D03*
X141385000Y-74290000D03*
X141385000Y-73640000D03*
X141385000Y-72990000D03*
X141385000Y-72340000D03*
X141385000Y-71690000D03*
X141385000Y-71040000D03*
X141385000Y-70390000D03*
X141385000Y-69740000D03*
X141385000Y-69090000D03*
X141385000Y-68440000D03*
X141385000Y-67790000D03*
X141385000Y-67140000D03*
%TD*%
D20*
%TO.C,C18*%
X140932500Y-64600000D03*
X142067500Y-64600000D03*
%TD*%
D17*
%TO.C,REF\u002A\u002A*%
X180400000Y-111200000D03*
D18*
X180400000Y-111200000D03*
%TD*%
D21*
%TO.C,C4*%
X174801283Y-45451283D03*
X173998717Y-44648717D03*
%TD*%
D13*
%TO.C,U53*%
X219640336Y-97158839D03*
X220983839Y-95815336D03*
X221637913Y-97812913D03*
%TD*%
%TO.C,U32*%
X69621586Y-78108839D03*
X70965089Y-76765336D03*
X71619163Y-78762913D03*
%TD*%
D25*
%TO.C,FID3*%
X334322500Y-97626250D03*
%TD*%
M02*
