M48
; DRILL file {KiCad 7.0.7} date 2023 November 08, Wednesday 12:28:29
; FORMAT={-:-/ absolute / metric / decimal}
; #@! TF.CreationDate,2023-11-08T12:28:29+01:00
; #@! TF.GenerationSoftware,Kicad,Pcbnew,7.0.7
; #@! TF.FileFunction,NonPlated,1,2,NPTH
FMAT,2
METRIC
; #@! TA.AperFunction,NonPlated,NPTH,ComponentDrill
T1C1.750
; #@! TA.AperFunction,NonPlated,NPTH,ComponentDrill
T2C3.048
; #@! TA.AperFunction,NonPlated,NPTH,ComponentDrill
T3C3.988
%
G90
G05
T1
X34.92Y-40.0
X34.92Y-59.05
X34.92Y-78.1
X45.08Y-40.0
X45.08Y-59.05
X45.08Y-78.1
X58.732Y-40.0
X61.114Y-97.15
X63.495Y-59.05
X65.876Y-78.1
X65.876Y-116.2
X68.892Y-40.0
X71.274Y-97.15
X73.655Y-59.05
X76.036Y-78.1
X76.036Y-116.2
X77.782Y-40.0
X82.545Y-97.15
X87.307Y-59.05
X87.942Y-40.0
X92.07Y-78.1
X92.705Y-97.15
X94.451Y-116.2
X96.832Y-40.0
X97.468Y-59.05
X101.595Y-97.15
X102.23Y-78.1
X104.611Y-116.2
X106.358Y-59.05
X106.992Y-40.0
X111.12Y-78.1
X111.755Y-97.15
X115.882Y-40.0
X116.517Y-59.05
X118.264Y-116.2
X120.645Y-97.15
X121.28Y-78.1
X125.407Y-59.05
X126.042Y-40.0
X128.424Y-116.2
X130.17Y-78.1
X130.805Y-97.15
X134.933Y-40.0
X135.567Y-59.05
X139.695Y-97.15
X140.33Y-78.1
X144.457Y-59.05
X145.093Y-40.0
X149.22Y-78.1
X149.855Y-97.15
X151.601Y-116.2
X153.982Y-40.0
X154.618Y-59.05
X158.745Y-97.15
X159.38Y-78.1
X161.761Y-116.2
X163.507Y-59.05
X164.142Y-40.0
X168.27Y-78.1
X168.905Y-97.15
X173.032Y-40.0
X173.667Y-59.05
X177.795Y-97.15
X178.43Y-78.1
X182.558Y-59.05
X183.192Y-40.0
X187.32Y-78.1
X187.955Y-97.15
X192.082Y-40.0
X192.718Y-59.05
X196.845Y-97.15
X197.48Y-78.1
X199.226Y-116.2
X201.607Y-59.05
X202.242Y-40.0
X206.37Y-78.1
X207.005Y-97.15
X209.386Y-116.2
X211.132Y-40.0
X211.767Y-59.05
X215.895Y-97.15
X216.53Y-78.1
X220.657Y-59.05
X221.292Y-40.0
X225.42Y-78.1
X226.055Y-97.15
X230.182Y-40.0
X230.817Y-59.05
X234.945Y-97.15
X235.58Y-78.1
X237.32Y-116.2
X239.707Y-59.05
X240.343Y-40.0
X244.47Y-78.1
X245.105Y-97.15
X247.48Y-116.2
X249.232Y-40.0
X249.867Y-59.05
X253.995Y-97.15
X254.63Y-78.1
X258.757Y-59.05
X258.757Y-116.2
X259.392Y-40.0
X263.52Y-78.1
X264.155Y-97.15
X268.282Y-40.0
X268.917Y-59.05
X268.917Y-116.2
X273.045Y-97.15
X273.68Y-78.1
X277.808Y-59.05
X278.442Y-40.0
X282.57Y-78.1
X283.205Y-97.15
X287.332Y-40.0
X287.332Y-116.2
X287.967Y-59.05
X292.73Y-78.1
X296.857Y-59.05
X297.493Y-40.0
X297.493Y-116.2
X301.62Y-78.1
X306.382Y-116.2
X307.017Y-59.05
X308.764Y-97.15
X311.78Y-78.1
X315.92Y-40.0
X316.542Y-116.2
X318.924Y-97.15
X323.051Y-68.575
X325.433Y-116.2
X326.08Y-40.0
X333.211Y-68.575
X335.592Y-116.2
T2
X144.775Y-123.185
X168.588Y-123.185
X192.4Y-123.185
X216.212Y-123.185
X301.938Y-90.165
X309.081Y-33.015
X325.75Y-90.165
X332.894Y-33.015
X335.116Y-56.669
X335.116Y-80.481
T3
X144.775Y-107.945
X168.588Y-107.945
X192.4Y-107.945
X216.212Y-107.945
X301.938Y-105.405
X309.081Y-48.255
X319.876Y-56.669
X319.876Y-80.481
X325.75Y-105.405
X332.894Y-48.255
T0
M30
