%TF.GenerationSoftware,KiCad,Pcbnew,8.0.6*%
%TF.CreationDate,2024-12-02T22:07:59+01:00*%
%TF.ProjectId,daughter_board,64617567-6874-4657-925f-626f6172642e,rev?*%
%TF.SameCoordinates,Original*%
%TF.FileFunction,Legend,Bot*%
%TF.FilePolarity,Positive*%
%FSLAX46Y46*%
G04 Gerber Fmt 4.6, Leading zero omitted, Abs format (unit mm)*
G04 Created by KiCad (PCBNEW 8.0.6) date 2024-12-02 22:07:59*
%MOMM*%
%LPD*%
G01*
G04 APERTURE LIST*
%ADD10C,0.000000*%
G04 APERTURE END LIST*
D10*
G36*
X166765461Y-55588201D02*
G01*
X166777585Y-55588619D01*
X166789521Y-55589316D01*
X166801273Y-55590294D01*
X166812837Y-55591551D01*
X166824216Y-55593085D01*
X166835410Y-55594899D01*
X166846418Y-55596991D01*
X166857238Y-55599362D01*
X166867874Y-55602013D01*
X166878322Y-55604944D01*
X166888585Y-55608155D01*
X166898662Y-55611642D01*
X166908552Y-55615409D01*
X166918258Y-55619455D01*
X166927777Y-55623782D01*
X166937102Y-55628098D01*
X166946224Y-55632618D01*
X166955146Y-55637338D01*
X166963867Y-55642260D01*
X166972386Y-55647383D01*
X166980704Y-55652709D01*
X166988819Y-55658235D01*
X166996733Y-55663964D01*
X167004447Y-55669893D01*
X167011958Y-55676025D01*
X167019267Y-55682359D01*
X167026374Y-55688892D01*
X167033281Y-55695626D01*
X167039986Y-55702565D01*
X167046490Y-55709705D01*
X167052791Y-55717045D01*
X167059140Y-55724571D01*
X167065286Y-55732269D01*
X167071232Y-55740137D01*
X167076976Y-55748174D01*
X167082518Y-55756385D01*
X167087859Y-55764765D01*
X167092998Y-55773313D01*
X167097936Y-55782033D01*
X167102672Y-55790925D01*
X167107206Y-55799986D01*
X167111539Y-55809217D01*
X167115671Y-55818621D01*
X167119602Y-55828193D01*
X167123330Y-55837937D01*
X167126855Y-55847852D01*
X167130183Y-55857936D01*
X167136693Y-55877967D01*
X167142336Y-55898367D01*
X167147113Y-55919141D01*
X167151018Y-55940289D01*
X167154056Y-55961804D01*
X167156228Y-55983695D01*
X167157529Y-56005958D01*
X167157963Y-56028592D01*
X167157816Y-56042389D01*
X167157374Y-56056002D01*
X167156638Y-56069426D01*
X167155607Y-56082666D01*
X167154282Y-56095719D01*
X167152663Y-56108587D01*
X167150746Y-56121269D01*
X167148538Y-56133764D01*
X167146035Y-56146073D01*
X167143235Y-56158197D01*
X167140144Y-56170134D01*
X167136755Y-56181885D01*
X167133073Y-56193452D01*
X167129098Y-56204830D01*
X167124826Y-56216022D01*
X167120261Y-56227030D01*
X167115431Y-56237837D01*
X167110371Y-56248423D01*
X167105075Y-56258796D01*
X167099549Y-56268949D01*
X167093789Y-56278887D01*
X167087797Y-56288608D01*
X167081573Y-56298110D01*
X167075116Y-56307398D01*
X167068426Y-56316465D01*
X167061504Y-56325318D01*
X167054349Y-56333954D01*
X167046962Y-56342372D01*
X167039342Y-56350573D01*
X167031490Y-56358555D01*
X167023405Y-56366325D01*
X167015088Y-56373873D01*
X167006802Y-56380949D01*
X166998314Y-56387797D01*
X166989625Y-56394407D01*
X166980735Y-56400787D01*
X166971643Y-56406933D01*
X166962348Y-56412848D01*
X166952852Y-56418530D01*
X166943156Y-56423979D01*
X166933256Y-56429195D01*
X166923156Y-56434180D01*
X166912855Y-56438930D01*
X166902351Y-56443452D01*
X166891648Y-56447736D01*
X166880740Y-56451792D01*
X166869633Y-56455614D01*
X166858323Y-56459201D01*
X166846852Y-56462542D01*
X166835255Y-56465620D01*
X166823535Y-56468433D01*
X166811690Y-56470982D01*
X166799723Y-56473272D01*
X166787629Y-56475294D01*
X166775413Y-56477054D01*
X166763073Y-56478549D01*
X166738020Y-56480750D01*
X166712471Y-56481898D01*
X166686426Y-56481991D01*
X166659886Y-56481030D01*
X166659885Y-56312356D01*
X166675729Y-56312606D01*
X166691511Y-56312356D01*
X166707232Y-56311613D01*
X166722889Y-56310374D01*
X166738486Y-56308639D01*
X166754020Y-56306405D01*
X166769491Y-56303677D01*
X166784901Y-56300452D01*
X166792785Y-56298399D01*
X166800559Y-56296203D01*
X166808225Y-56293871D01*
X166815784Y-56291396D01*
X166823232Y-56288787D01*
X166830573Y-56286034D01*
X166837805Y-56283142D01*
X166844928Y-56280112D01*
X166851943Y-56276942D01*
X166858850Y-56273632D01*
X166865647Y-56270183D01*
X166872338Y-56266594D01*
X166878918Y-56262865D01*
X166885391Y-56258998D01*
X166891755Y-56254989D01*
X166898011Y-56250842D01*
X166904135Y-56246556D01*
X166910103Y-56242128D01*
X166915916Y-56237564D01*
X166921574Y-56232859D01*
X166927078Y-56228016D01*
X166932426Y-56223031D01*
X166937621Y-56217907D01*
X166942659Y-56212644D01*
X166947543Y-56207241D01*
X166952270Y-56201699D01*
X166956845Y-56196017D01*
X166961263Y-56190196D01*
X166965528Y-56184234D01*
X166969634Y-56178133D01*
X166973588Y-56171895D01*
X166977385Y-56165514D01*
X166981230Y-56158740D01*
X166984828Y-56151810D01*
X166988175Y-56144726D01*
X166991276Y-56137485D01*
X166994128Y-56130091D01*
X166996733Y-56122539D01*
X166999089Y-56114835D01*
X167001198Y-56106975D01*
X167003058Y-56098959D01*
X167004671Y-56090790D01*
X167006035Y-56082465D01*
X167007151Y-56073984D01*
X167008019Y-56065350D01*
X167008641Y-56056558D01*
X167009011Y-56047615D01*
X167009136Y-56038515D01*
X167009065Y-56031591D01*
X167008856Y-56024717D01*
X167008507Y-56017889D01*
X167008019Y-56011105D01*
X167007390Y-56004368D01*
X167006623Y-55997681D01*
X167005717Y-55991037D01*
X167004671Y-55984439D01*
X167003485Y-55977889D01*
X167002160Y-55971387D01*
X167000694Y-55964929D01*
X166999089Y-55958520D01*
X166997346Y-55952155D01*
X166995462Y-55945838D01*
X166993438Y-55939568D01*
X166991276Y-55933342D01*
X166988981Y-55927195D01*
X166986564Y-55921157D01*
X166984020Y-55915226D01*
X166981354Y-55909406D01*
X166978563Y-55903693D01*
X166975649Y-55898088D01*
X166972610Y-55892592D01*
X166969449Y-55887206D01*
X166966161Y-55881926D01*
X166962750Y-55876758D01*
X166959216Y-55871695D01*
X166955558Y-55866741D01*
X166951775Y-55861899D01*
X166947869Y-55857161D01*
X166943837Y-55852533D01*
X166939682Y-55848014D01*
X166935412Y-55843364D01*
X166931032Y-55838837D01*
X166926544Y-55834435D01*
X166921948Y-55830154D01*
X166917242Y-55826000D01*
X166912428Y-55821969D01*
X166907507Y-55818063D01*
X166902475Y-55814280D01*
X166897337Y-55810620D01*
X166892089Y-55807086D01*
X166886732Y-55803677D01*
X166881267Y-55800389D01*
X166875694Y-55797226D01*
X166870012Y-55794189D01*
X166864223Y-55791273D01*
X166858323Y-55788482D01*
X166852572Y-55785841D01*
X166846724Y-55783366D01*
X166840789Y-55781065D01*
X166834758Y-55778932D01*
X166828634Y-55776973D01*
X166822418Y-55775182D01*
X166816108Y-55773560D01*
X166809707Y-55772111D01*
X166803212Y-55770832D01*
X166796621Y-55769723D01*
X166789939Y-55768787D01*
X166783165Y-55768019D01*
X166776297Y-55767423D01*
X166769336Y-55766995D01*
X166762283Y-55766738D01*
X166755135Y-55766652D01*
X166746028Y-55766748D01*
X166737060Y-55767026D01*
X166728230Y-55767493D01*
X166719540Y-55768142D01*
X166710991Y-55768981D01*
X166702580Y-55770001D01*
X166694309Y-55771211D01*
X166686179Y-55772608D01*
X166678186Y-55774190D01*
X166670334Y-55775957D01*
X166662622Y-55777910D01*
X166655049Y-55780050D01*
X166647617Y-55782374D01*
X166640322Y-55784886D01*
X166633167Y-55787584D01*
X166626151Y-55790469D01*
X166619237Y-55793290D01*
X166612385Y-55796298D01*
X166605594Y-55799488D01*
X166598866Y-55802871D01*
X166592199Y-55806436D01*
X166585595Y-55810188D01*
X166579054Y-55814125D01*
X166572574Y-55818249D01*
X166566154Y-55822557D01*
X166559799Y-55827054D01*
X166553504Y-55831737D01*
X166547273Y-55836603D01*
X166541103Y-55841657D01*
X166534994Y-55846899D01*
X166528946Y-55852323D01*
X166522963Y-55857936D01*
X166511058Y-55869222D01*
X166499151Y-55881253D01*
X166487246Y-55894025D01*
X166475339Y-55907546D01*
X166463432Y-55921809D01*
X166451526Y-55936815D01*
X166439621Y-55952566D01*
X166427713Y-55969063D01*
X166404274Y-56004160D01*
X166379592Y-56041986D01*
X166353671Y-56082544D01*
X166326510Y-56125827D01*
X166315503Y-56144091D01*
X166304310Y-56162166D01*
X166292930Y-56180055D01*
X166281366Y-56197761D01*
X166269615Y-56215280D01*
X166257677Y-56232610D01*
X166245554Y-56249758D01*
X166233244Y-56266718D01*
X166226982Y-56275097D01*
X166220594Y-56283367D01*
X166214083Y-56291530D01*
X166207449Y-56299584D01*
X166200689Y-56307529D01*
X166193805Y-56315367D01*
X166186798Y-56323095D01*
X166179666Y-56330714D01*
X166172412Y-56338225D01*
X166165032Y-56345627D01*
X166157528Y-56352920D01*
X166149901Y-56360107D01*
X166134274Y-56374153D01*
X166118151Y-56387763D01*
X166109872Y-56394394D01*
X166101408Y-56400881D01*
X166083921Y-56413437D01*
X166065689Y-56425436D01*
X166046713Y-56436878D01*
X166026995Y-56447760D01*
X166006531Y-56458087D01*
X165985322Y-56467854D01*
X165963371Y-56477061D01*
X165940952Y-56485122D01*
X165917357Y-56492440D01*
X165892584Y-56499014D01*
X165866632Y-56504843D01*
X165839501Y-56509926D01*
X165811193Y-56514269D01*
X165781707Y-56517865D01*
X165751041Y-56520718D01*
X165751042Y-55601952D01*
X165899871Y-55601952D01*
X165899870Y-56324266D01*
X165907993Y-56322675D01*
X165915993Y-56320884D01*
X165923868Y-56318892D01*
X165931620Y-56316698D01*
X165939247Y-56314302D01*
X165946750Y-56311708D01*
X165954129Y-56308909D01*
X165961385Y-56305909D01*
X165968517Y-56302707D01*
X165975524Y-56299305D01*
X165982408Y-56295702D01*
X165989166Y-56291896D01*
X165995802Y-56287887D01*
X166002313Y-56283678D01*
X166008701Y-56279267D01*
X166014963Y-56274656D01*
X166027738Y-56264516D01*
X166040264Y-56253945D01*
X166052542Y-56242936D01*
X166064573Y-56231496D01*
X166076355Y-56219619D01*
X166087890Y-56207311D01*
X166099176Y-56194568D01*
X166110214Y-56181389D01*
X166121035Y-56167342D01*
X166131669Y-56152987D01*
X166142118Y-56138321D01*
X166152381Y-56123345D01*
X166162458Y-56108061D01*
X166172349Y-56092463D01*
X166182054Y-56076558D01*
X166191573Y-56060343D01*
X166270948Y-55929373D01*
X166281428Y-55913065D01*
X166292032Y-55896880D01*
X166302760Y-55880818D01*
X166313612Y-55864882D01*
X166324589Y-55849070D01*
X166335688Y-55833381D01*
X166346912Y-55817815D01*
X166358260Y-55802373D01*
X166369826Y-55787212D01*
X166381702Y-55772485D01*
X166393887Y-55758191D01*
X166406381Y-55744331D01*
X166419189Y-55730905D01*
X166432303Y-55717914D01*
X166445728Y-55705358D01*
X166459464Y-55693235D01*
X166466711Y-55687358D01*
X166474066Y-55681636D01*
X166481532Y-55676071D01*
X166489105Y-55670661D01*
X166496789Y-55665405D01*
X166504578Y-55660304D01*
X166512477Y-55655361D01*
X166520483Y-55650568D01*
X166528599Y-55645935D01*
X166536823Y-55641454D01*
X166545156Y-55637128D01*
X166553597Y-55632958D01*
X166562148Y-55628943D01*
X166570805Y-55625081D01*
X166579572Y-55621377D01*
X166588448Y-55617827D01*
X166597463Y-55614221D01*
X166606649Y-55610851D01*
X166616004Y-55607710D01*
X166625530Y-55604805D01*
X166635228Y-55602130D01*
X166645095Y-55599689D01*
X166655134Y-55597479D01*
X166665342Y-55595504D01*
X166675722Y-55593760D01*
X166686272Y-55592247D01*
X166696991Y-55590969D01*
X166707882Y-55589922D01*
X166718944Y-55589106D01*
X166730177Y-55588527D01*
X166741579Y-55588178D01*
X166753151Y-55588061D01*
X166765461Y-55588201D01*
G37*
G36*
X170739016Y-50726605D02*
G01*
X170787200Y-50728650D01*
X170836002Y-50732310D01*
X170885425Y-50737580D01*
X170935469Y-50744464D01*
X170986132Y-50752961D01*
X171037416Y-50763067D01*
X171063089Y-50768306D01*
X171088515Y-50774106D01*
X171113691Y-50780461D01*
X171138619Y-50787376D01*
X171163301Y-50794849D01*
X171187734Y-50802880D01*
X171211918Y-50811468D01*
X171235855Y-50820614D01*
X171259542Y-50830320D01*
X171282983Y-50840580D01*
X171306175Y-50851403D01*
X171329119Y-50862781D01*
X171351816Y-50874719D01*
X171374264Y-50887213D01*
X171396464Y-50900269D01*
X171418417Y-50913880D01*
X171439996Y-50927570D01*
X171461080Y-50941847D01*
X171481668Y-50956713D01*
X171501761Y-50972171D01*
X171521357Y-50988216D01*
X171540455Y-51004850D01*
X171559060Y-51022075D01*
X171577166Y-51039888D01*
X171594777Y-51058289D01*
X171611893Y-51077279D01*
X171628512Y-51096860D01*
X171644635Y-51117029D01*
X171660262Y-51137788D01*
X171675394Y-51159137D01*
X171690027Y-51181071D01*
X171704167Y-51203598D01*
X171718104Y-51226294D01*
X171731141Y-51249734D01*
X171743281Y-51273918D01*
X171754520Y-51298846D01*
X171764861Y-51324521D01*
X171774302Y-51350939D01*
X171782843Y-51378098D01*
X171790487Y-51406005D01*
X171797230Y-51434653D01*
X171803075Y-51464048D01*
X171808021Y-51494186D01*
X171812067Y-51525067D01*
X171815216Y-51556692D01*
X171817461Y-51589061D01*
X171818810Y-51622178D01*
X171819261Y-51656036D01*
X171818950Y-51682204D01*
X171818021Y-51708125D01*
X171816469Y-51733798D01*
X171814297Y-51759222D01*
X171811508Y-51784400D01*
X171808098Y-51809329D01*
X171804067Y-51834010D01*
X171799416Y-51858440D01*
X171794146Y-51882627D01*
X171788254Y-51906563D01*
X171781743Y-51930252D01*
X171774611Y-51953693D01*
X171766860Y-51976885D01*
X171758489Y-51999829D01*
X171749498Y-52022525D01*
X171739885Y-52044973D01*
X171729715Y-52066631D01*
X171719050Y-52087948D01*
X171707888Y-52108923D01*
X171696229Y-52129555D01*
X171684075Y-52149852D01*
X171671425Y-52169804D01*
X171658277Y-52189413D01*
X171644635Y-52208684D01*
X171630496Y-52227613D01*
X171615863Y-52246200D01*
X171600732Y-52264448D01*
X171585105Y-52282353D01*
X171568982Y-52299919D01*
X171552361Y-52317142D01*
X171535247Y-52334025D01*
X171517635Y-52350567D01*
X171499574Y-52366225D01*
X171481110Y-52381449D01*
X171462243Y-52396239D01*
X171442973Y-52410596D01*
X171423300Y-52424521D01*
X171403224Y-52438012D01*
X171382744Y-52451068D01*
X171361864Y-52463687D01*
X171340576Y-52475877D01*
X171318887Y-52487631D01*
X171296797Y-52498949D01*
X171274300Y-52509835D01*
X171251403Y-52520286D01*
X171228102Y-52530303D01*
X171204398Y-52539882D01*
X171180292Y-52549030D01*
X171155830Y-52557680D01*
X171131054Y-52565772D01*
X171105970Y-52573307D01*
X171080574Y-52580284D01*
X171054873Y-52586704D01*
X171028858Y-52592564D01*
X171002532Y-52597864D01*
X170975900Y-52602608D01*
X170942166Y-52607472D01*
X170921703Y-52610424D01*
X170866266Y-52616003D01*
X170809585Y-52619351D01*
X170751666Y-52620469D01*
X170693685Y-52617679D01*
X170636820Y-52613273D01*
X170581072Y-52607258D01*
X170526441Y-52599633D01*
X170472924Y-52590391D01*
X170420524Y-52579542D01*
X170369240Y-52567076D01*
X170319074Y-52553000D01*
X170294485Y-52544829D01*
X170270330Y-52536193D01*
X170246612Y-52527092D01*
X170223328Y-52517524D01*
X170200475Y-52507493D01*
X170178058Y-52496995D01*
X170156075Y-52486033D01*
X170134527Y-52474604D01*
X170113412Y-52462711D01*
X170092730Y-52450351D01*
X170072484Y-52437529D01*
X170052671Y-52424241D01*
X170033292Y-52410489D01*
X170014349Y-52396270D01*
X169995837Y-52381590D01*
X169977760Y-52366443D01*
X169960149Y-52350847D01*
X169943033Y-52334817D01*
X169926415Y-52318352D01*
X169910291Y-52301455D01*
X169894665Y-52284122D01*
X169879533Y-52266354D01*
X169864899Y-52248156D01*
X169850760Y-52229518D01*
X169837117Y-52210451D01*
X169823972Y-52190950D01*
X169811321Y-52171012D01*
X169799166Y-52150641D01*
X169787508Y-52129835D01*
X169776346Y-52108597D01*
X169765680Y-52086925D01*
X169755510Y-52064816D01*
X169745899Y-52041749D01*
X169736906Y-52018184D01*
X169728535Y-51994123D01*
X169720783Y-51969568D01*
X169713652Y-51944513D01*
X169707141Y-51918964D01*
X169701252Y-51892919D01*
X169695979Y-51866379D01*
X169691328Y-51839340D01*
X169687297Y-51811809D01*
X169683888Y-51783780D01*
X169681097Y-51755253D01*
X169678926Y-51726232D01*
X169677376Y-51696715D01*
X169676445Y-51666702D01*
X169676137Y-51636191D01*
X169676817Y-51593001D01*
X169678865Y-51550740D01*
X169682274Y-51509409D01*
X169687050Y-51469007D01*
X169693188Y-51429537D01*
X169700693Y-51390998D01*
X169709559Y-51353388D01*
X169719792Y-51316708D01*
X169731387Y-51280958D01*
X169744348Y-51246139D01*
X169758673Y-51212248D01*
X169774363Y-51179289D01*
X169791415Y-51147260D01*
X169809832Y-51116161D01*
X169829614Y-51085993D01*
X169850760Y-51056755D01*
X169873256Y-51028616D01*
X169897084Y-51001752D01*
X169922244Y-50976155D01*
X169948739Y-50951831D01*
X169976566Y-50928779D01*
X170005725Y-50906995D01*
X170036222Y-50886486D01*
X170068049Y-50867245D01*
X170101210Y-50849277D01*
X170135705Y-50832583D01*
X170171531Y-50817157D01*
X170208693Y-50803003D01*
X170247186Y-50790120D01*
X170287013Y-50778508D01*
X170328173Y-50768168D01*
X170370666Y-50759098D01*
X170370666Y-51092472D01*
X170345768Y-51098302D01*
X170321678Y-51104876D01*
X170298392Y-51112193D01*
X170275912Y-51120255D01*
X170254239Y-51129059D01*
X170233372Y-51138610D01*
X170213312Y-51148904D01*
X170194057Y-51159942D01*
X170175606Y-51171723D01*
X170157967Y-51184252D01*
X170141130Y-51197519D01*
X170125101Y-51211536D01*
X170109876Y-51226294D01*
X170095458Y-51241798D01*
X170081847Y-51258046D01*
X170069042Y-51275035D01*
X170057026Y-51292213D01*
X170045789Y-51310009D01*
X170035322Y-51328427D01*
X170025633Y-51347466D01*
X170016719Y-51367122D01*
X170008580Y-51387400D01*
X170001217Y-51408299D01*
X169994627Y-51429817D01*
X169988813Y-51451956D01*
X169983775Y-51474714D01*
X169979513Y-51498091D01*
X169976024Y-51522092D01*
X169973311Y-51546710D01*
X169971373Y-51571949D01*
X169970211Y-51597807D01*
X169969822Y-51624285D01*
X169970040Y-51644950D01*
X169970691Y-51665275D01*
X169971776Y-51685260D01*
X169973296Y-51704900D01*
X169975249Y-51724203D01*
X169977636Y-51743163D01*
X169980458Y-51761781D01*
X169983713Y-51780059D01*
X169987403Y-51797997D01*
X169991527Y-51815592D01*
X169996084Y-51832846D01*
X170001077Y-51849760D01*
X170006503Y-51866334D01*
X170012363Y-51882564D01*
X170018657Y-51898455D01*
X170025385Y-51914005D01*
X170032471Y-51929213D01*
X170039834Y-51944078D01*
X170047478Y-51958607D01*
X170055399Y-51972791D01*
X170063600Y-51986636D01*
X170072080Y-52000139D01*
X170080840Y-52013301D01*
X170089879Y-52026121D01*
X170099194Y-52038602D01*
X170108792Y-52050741D01*
X170118666Y-52062538D01*
X170128820Y-52073996D01*
X170139254Y-52085110D01*
X170149966Y-52095884D01*
X170160959Y-52106318D01*
X170172230Y-52116410D01*
X170184228Y-52126161D01*
X170196413Y-52135571D01*
X170208786Y-52144641D01*
X170221342Y-52153370D01*
X170234085Y-52161756D01*
X170247015Y-52169804D01*
X170260131Y-52177508D01*
X170273433Y-52184872D01*
X170286918Y-52191895D01*
X170300595Y-52198575D01*
X170314454Y-52204917D01*
X170328499Y-52210918D01*
X170342730Y-52216576D01*
X170357149Y-52221893D01*
X170371751Y-52226870D01*
X170386541Y-52231505D01*
X170417485Y-52239812D01*
X170448801Y-52246884D01*
X170480489Y-52252714D01*
X170512549Y-52257301D01*
X170544982Y-52260649D01*
X170577785Y-52262759D01*
X170610962Y-52263626D01*
X170644510Y-52263253D01*
X170644510Y-52263252D01*
X170942166Y-52263252D01*
X170956987Y-52262122D01*
X170971684Y-52260712D01*
X170986256Y-52259022D01*
X171000706Y-52257052D01*
X171015031Y-52254805D01*
X171029232Y-52252278D01*
X171043307Y-52249473D01*
X171057260Y-52246385D01*
X171071089Y-52243023D01*
X171084794Y-52239380D01*
X171098374Y-52235457D01*
X171111830Y-52231256D01*
X171125163Y-52226776D01*
X171138371Y-52222017D01*
X171151457Y-52216978D01*
X171164416Y-52211660D01*
X171177702Y-52206079D01*
X171190771Y-52200251D01*
X171203623Y-52194172D01*
X171216259Y-52187848D01*
X171228677Y-52181275D01*
X171240877Y-52174455D01*
X171252861Y-52167385D01*
X171264629Y-52160066D01*
X171276177Y-52152500D01*
X171287510Y-52144689D01*
X171298625Y-52136626D01*
X171309525Y-52128318D01*
X171320205Y-52119758D01*
X171330671Y-52110955D01*
X171340918Y-52101900D01*
X171350947Y-52092598D01*
X171360730Y-52083062D01*
X171370233Y-52073314D01*
X171379456Y-52063343D01*
X171388402Y-52053157D01*
X171397069Y-52042755D01*
X171405456Y-52032138D01*
X171413565Y-52021301D01*
X171421393Y-52010247D01*
X171428944Y-51998975D01*
X171436215Y-51987487D01*
X171443206Y-51975784D01*
X171449919Y-51963861D01*
X171456352Y-51951723D01*
X171462506Y-51939366D01*
X171468382Y-51926795D01*
X171473979Y-51914006D01*
X171479746Y-51900516D01*
X171485142Y-51886842D01*
X171490164Y-51872985D01*
X171494816Y-51858938D01*
X171499094Y-51844705D01*
X171503000Y-51830287D01*
X171506537Y-51815684D01*
X171509697Y-51800895D01*
X171512488Y-51785919D01*
X171514907Y-51770757D01*
X171516954Y-51755409D01*
X171518627Y-51739875D01*
X171519930Y-51724156D01*
X171520860Y-51708249D01*
X171521418Y-51692159D01*
X171521604Y-51675879D01*
X171521418Y-51660097D01*
X171520859Y-51644501D01*
X171519929Y-51629091D01*
X171518627Y-51613867D01*
X171516954Y-51598830D01*
X171514907Y-51583977D01*
X171512489Y-51569313D01*
X171509697Y-51554832D01*
X171506535Y-51540540D01*
X171503000Y-51526429D01*
X171499094Y-51512509D01*
X171494815Y-51498774D01*
X171490164Y-51485223D01*
X171485141Y-51471861D01*
X171479746Y-51458683D01*
X171473979Y-51445692D01*
X171468382Y-51432420D01*
X171462506Y-51419398D01*
X171456352Y-51406624D01*
X171449920Y-51394096D01*
X171443206Y-51381820D01*
X171436214Y-51369790D01*
X171428945Y-51358006D01*
X171421393Y-51346474D01*
X171413564Y-51335187D01*
X171405456Y-51324147D01*
X171397069Y-51313359D01*
X171388402Y-51302815D01*
X171379456Y-51292523D01*
X171370234Y-51282478D01*
X171360730Y-51272678D01*
X171350948Y-51263128D01*
X171341398Y-51253348D01*
X171331599Y-51243843D01*
X171321554Y-51234621D01*
X171311261Y-51225674D01*
X171300718Y-51217008D01*
X171289929Y-51208620D01*
X171278891Y-51200514D01*
X171267604Y-51192683D01*
X171256068Y-51185134D01*
X171244288Y-51177864D01*
X171232258Y-51170871D01*
X171219979Y-51164157D01*
X171207452Y-51157726D01*
X171194678Y-51151569D01*
X171181656Y-51145696D01*
X171168385Y-51140098D01*
X171154944Y-51134301D01*
X171141411Y-51128812D01*
X171127783Y-51123632D01*
X171114063Y-51118765D01*
X171100251Y-51114208D01*
X171086343Y-51109960D01*
X171072344Y-51106023D01*
X171058252Y-51102394D01*
X171044069Y-51099077D01*
X171029791Y-51096069D01*
X171015418Y-51093372D01*
X171000954Y-51090986D01*
X170986397Y-51088908D01*
X170971747Y-51087140D01*
X170957003Y-51085683D01*
X170942166Y-51084536D01*
X170942166Y-52263252D01*
X170644510Y-52263252D01*
X170644510Y-50727346D01*
X170691453Y-50726171D01*
X170739016Y-50726605D01*
G37*
G36*
X170774301Y-53795539D02*
G01*
X170804500Y-53796423D01*
X170834328Y-53797895D01*
X170863784Y-53799957D01*
X170892868Y-53802608D01*
X170921578Y-53805850D01*
X170949918Y-53809680D01*
X170977885Y-53814097D01*
X171005480Y-53819104D01*
X171032705Y-53824700D01*
X171059556Y-53830885D01*
X171086034Y-53837661D01*
X171112140Y-53845025D01*
X171137875Y-53852978D01*
X171163238Y-53861519D01*
X171188229Y-53870652D01*
X171213282Y-53880325D01*
X171237838Y-53890495D01*
X171261900Y-53901161D01*
X171285463Y-53912324D01*
X171308531Y-53923982D01*
X171331104Y-53936135D01*
X171353180Y-53948786D01*
X171374760Y-53961931D01*
X171395845Y-53975574D01*
X171416432Y-53989714D01*
X171436526Y-54004347D01*
X171456120Y-54019479D01*
X171475219Y-54035106D01*
X171493822Y-54051228D01*
X171511930Y-54067848D01*
X171529542Y-54084962D01*
X171547138Y-54102559D01*
X171564206Y-54120620D01*
X171580747Y-54139144D01*
X171596762Y-54158137D01*
X171612250Y-54177594D01*
X171627211Y-54197516D01*
X171641643Y-54217902D01*
X171655549Y-54238750D01*
X171668928Y-54260070D01*
X171681780Y-54281851D01*
X171694107Y-54304096D01*
X171705901Y-54326808D01*
X171717174Y-54349986D01*
X171727918Y-54373627D01*
X171738133Y-54397735D01*
X171747822Y-54422307D01*
X171757435Y-54446802D01*
X171766427Y-54471668D01*
X171774797Y-54496908D01*
X171782549Y-54522517D01*
X171789680Y-54548501D01*
X171796192Y-54574856D01*
X171802083Y-54601584D01*
X171807355Y-54628683D01*
X171812006Y-54656153D01*
X171816035Y-54683998D01*
X171819446Y-54712213D01*
X171822236Y-54740801D01*
X171824407Y-54769760D01*
X171825958Y-54799091D01*
X171826887Y-54828793D01*
X171827197Y-54858871D01*
X171826887Y-54888946D01*
X171825955Y-54918648D01*
X171824408Y-54947981D01*
X171822236Y-54976939D01*
X171819447Y-55005528D01*
X171816035Y-55033743D01*
X171812004Y-55061586D01*
X171807354Y-55089058D01*
X171802083Y-55116157D01*
X171796193Y-55142882D01*
X171789679Y-55169238D01*
X171782549Y-55195220D01*
X171774797Y-55220833D01*
X171766426Y-55246071D01*
X171757434Y-55270937D01*
X171747823Y-55295433D01*
X171738133Y-55319523D01*
X171727919Y-55343180D01*
X171717173Y-55366405D01*
X171705902Y-55389193D01*
X171694105Y-55411548D01*
X171681780Y-55433469D01*
X171668929Y-55454957D01*
X171655549Y-55476010D01*
X171641643Y-55496628D01*
X171627210Y-55516815D01*
X171612249Y-55536562D01*
X171596763Y-55555881D01*
X171580747Y-55574764D01*
X171564206Y-55593213D01*
X171547137Y-55611225D01*
X171529542Y-55628807D01*
X171511930Y-55645923D01*
X171493822Y-55662542D01*
X171475219Y-55678664D01*
X171456120Y-55694291D01*
X171436525Y-55709421D01*
X171416432Y-55724056D01*
X171395844Y-55738196D01*
X171374761Y-55751839D01*
X171353181Y-55764984D01*
X171331105Y-55777636D01*
X171308531Y-55789790D01*
X171285463Y-55801449D01*
X171261901Y-55812609D01*
X171237839Y-55823274D01*
X171213282Y-55833446D01*
X171188230Y-55843120D01*
X171163238Y-55852251D01*
X171137876Y-55860791D01*
X171112141Y-55868745D01*
X171086034Y-55876110D01*
X171059555Y-55882885D01*
X171032704Y-55889070D01*
X171005481Y-55894666D01*
X170977883Y-55899673D01*
X170949918Y-55904094D01*
X170921578Y-55907923D01*
X170863783Y-55913813D01*
X170804500Y-55917349D01*
X170743730Y-55918526D01*
X170713158Y-55918231D01*
X170682957Y-55917349D01*
X170653130Y-55915875D01*
X170623675Y-55913813D01*
X170594591Y-55911162D01*
X170565879Y-55907921D01*
X170537541Y-55904093D01*
X170509574Y-55899673D01*
X170481977Y-55894666D01*
X170454754Y-55889070D01*
X170427903Y-55882885D01*
X170401424Y-55876111D01*
X170375318Y-55868746D01*
X170349584Y-55860792D01*
X170324219Y-55852251D01*
X170299228Y-55843120D01*
X170274641Y-55833447D01*
X170250487Y-55823275D01*
X170226768Y-55812608D01*
X170203482Y-55801449D01*
X170180630Y-55789790D01*
X170158214Y-55777635D01*
X170136230Y-55764984D01*
X170114682Y-55751839D01*
X170093567Y-55738196D01*
X170072887Y-55724056D01*
X170052639Y-55709421D01*
X170032827Y-55694291D01*
X170013448Y-55678664D01*
X169994503Y-55662541D01*
X169975993Y-55645920D01*
X169957916Y-55628806D01*
X169940801Y-55611225D01*
X169924182Y-55593213D01*
X169908059Y-55574762D01*
X169892432Y-55555881D01*
X169877302Y-55536563D01*
X169862666Y-55516815D01*
X169848528Y-55496630D01*
X169834885Y-55476010D01*
X169821739Y-55454956D01*
X169809090Y-55433469D01*
X169796937Y-55411548D01*
X169785276Y-55389195D01*
X169774114Y-55366405D01*
X169763448Y-55343180D01*
X169753279Y-55319523D01*
X169743605Y-55295433D01*
X169734473Y-55270937D01*
X169725931Y-55246072D01*
X169717978Y-55220833D01*
X169710613Y-55195220D01*
X169703839Y-55169238D01*
X169697653Y-55142882D01*
X169692057Y-55116156D01*
X169687049Y-55089058D01*
X169682631Y-55061586D01*
X169678803Y-55033744D01*
X169675562Y-55005528D01*
X169672911Y-54976939D01*
X169669376Y-54918648D01*
X169668198Y-54858871D01*
X169668198Y-54858870D01*
X170088885Y-54858870D01*
X170089104Y-54876542D01*
X170089754Y-54893844D01*
X170090838Y-54910775D01*
X170092358Y-54927329D01*
X170094311Y-54943515D01*
X170096699Y-54959330D01*
X170099521Y-54974769D01*
X170102776Y-54989838D01*
X170106465Y-55004536D01*
X170110589Y-55018858D01*
X170115148Y-55032811D01*
X170120139Y-55046394D01*
X170125567Y-55059599D01*
X170131425Y-55072438D01*
X170137719Y-55084903D01*
X170144447Y-55096993D01*
X170151533Y-55108760D01*
X170158896Y-55120247D01*
X170166540Y-55131458D01*
X170174462Y-55142388D01*
X170182662Y-55153039D01*
X170191144Y-55163408D01*
X170199902Y-55173502D01*
X170208940Y-55183313D01*
X170218257Y-55192849D01*
X170227853Y-55202103D01*
X170237730Y-55211081D01*
X170247883Y-55219778D01*
X170258316Y-55228196D01*
X170269029Y-55236333D01*
X170280020Y-55244195D01*
X170291292Y-55251776D01*
X170315414Y-55265170D01*
X170340158Y-55277572D01*
X170365519Y-55288983D01*
X170391502Y-55299401D01*
X170418105Y-55308826D01*
X170445328Y-55317260D01*
X170473174Y-55324700D01*
X170501635Y-55331150D01*
X170531464Y-55336732D01*
X170561416Y-55341568D01*
X170591491Y-55345662D01*
X170621691Y-55349010D01*
X170652013Y-55351615D01*
X170682463Y-55353474D01*
X170713033Y-55354591D01*
X170743729Y-55354964D01*
X170774424Y-55354591D01*
X170804997Y-55353473D01*
X170835445Y-55351615D01*
X170865768Y-55349010D01*
X170895967Y-55345662D01*
X170926043Y-55341570D01*
X170955995Y-55336732D01*
X170985822Y-55331150D01*
X171000596Y-55328050D01*
X171015155Y-55324701D01*
X171029495Y-55321106D01*
X171043618Y-55317260D01*
X171057523Y-55313169D01*
X171071213Y-55308826D01*
X171084685Y-55304239D01*
X171097940Y-55299401D01*
X171110978Y-55294316D01*
X171123798Y-55288983D01*
X171136402Y-55283402D01*
X171148789Y-55277571D01*
X171160959Y-55271495D01*
X171172912Y-55265171D01*
X171184647Y-55258596D01*
X171196167Y-55251776D01*
X171207437Y-55244195D01*
X171218429Y-55236334D01*
X171229141Y-55228196D01*
X171239575Y-55219779D01*
X171249730Y-55211081D01*
X171259605Y-55202106D01*
X171269200Y-55192849D01*
X171278518Y-55183316D01*
X171287556Y-55173502D01*
X171296315Y-55163410D01*
X171304795Y-55153037D01*
X171312996Y-55142385D01*
X171320918Y-55131458D01*
X171328562Y-55120249D01*
X171335925Y-55108760D01*
X171343010Y-55096993D01*
X171350219Y-55084903D01*
X171356963Y-55072438D01*
X171363241Y-55059599D01*
X171369055Y-55046394D01*
X171374403Y-55032811D01*
X171379287Y-55018858D01*
X171383705Y-55004536D01*
X171387658Y-54989838D01*
X171391147Y-54974770D01*
X171394170Y-54959329D01*
X171396727Y-54943517D01*
X171398822Y-54927330D01*
X171400449Y-54910773D01*
X171401611Y-54893844D01*
X171402308Y-54876543D01*
X171402541Y-54858870D01*
X171402308Y-54841198D01*
X171401612Y-54823895D01*
X171400449Y-54806966D01*
X171398820Y-54790410D01*
X171396729Y-54774223D01*
X171394171Y-54758409D01*
X171391146Y-54742970D01*
X171387658Y-54727902D01*
X171383706Y-54713203D01*
X171379287Y-54698880D01*
X171374404Y-54684927D01*
X171369056Y-54671346D01*
X171363241Y-54658137D01*
X171356964Y-54645302D01*
X171350219Y-54632836D01*
X171343010Y-54620744D01*
X171335926Y-54608513D01*
X171328561Y-54596622D01*
X171320919Y-54585074D01*
X171312996Y-54573863D01*
X171304795Y-54562996D01*
X171296316Y-54552471D01*
X171287556Y-54542284D01*
X171278519Y-54532439D01*
X171269200Y-54522938D01*
X171259604Y-54513776D01*
X171249730Y-54504953D01*
X171239574Y-54496474D01*
X171229141Y-54488335D01*
X171218428Y-54480536D01*
X171207437Y-54473078D01*
X171196167Y-54465964D01*
X171184647Y-54458662D01*
X171172912Y-54451639D01*
X171160959Y-54444896D01*
X171148789Y-54438429D01*
X171136402Y-54432244D01*
X171123798Y-54426339D01*
X171110978Y-54420712D01*
X171097941Y-54415362D01*
X171084685Y-54410292D01*
X171071213Y-54405503D01*
X171057524Y-54400991D01*
X171043617Y-54396758D01*
X171029495Y-54392805D01*
X171015155Y-54389131D01*
X171000597Y-54385734D01*
X170985822Y-54382619D01*
X170955995Y-54377038D01*
X170926043Y-54372203D01*
X170895968Y-54368108D01*
X170865768Y-54364760D01*
X170835444Y-54362155D01*
X170804998Y-54360294D01*
X170774424Y-54359178D01*
X170743730Y-54358806D01*
X170713033Y-54359178D01*
X170682461Y-54360296D01*
X170652014Y-54362155D01*
X170621691Y-54364761D01*
X170591490Y-54368108D01*
X170561416Y-54372201D01*
X170531464Y-54377038D01*
X170501635Y-54382619D01*
X170487326Y-54385734D01*
X170473173Y-54389131D01*
X170459172Y-54392806D01*
X170445328Y-54396758D01*
X170431639Y-54400990D01*
X170418104Y-54405502D01*
X170404726Y-54410292D01*
X170391502Y-54415362D01*
X170378434Y-54420712D01*
X170365519Y-54426337D01*
X170352760Y-54432244D01*
X170340158Y-54438430D01*
X170327708Y-54444895D01*
X170315414Y-54451638D01*
X170303276Y-54458661D01*
X170291292Y-54465964D01*
X170280020Y-54473078D01*
X170269030Y-54480537D01*
X170258316Y-54488335D01*
X170247884Y-54496473D01*
X170237730Y-54504953D01*
X170227853Y-54513776D01*
X170218257Y-54522938D01*
X170208940Y-54532440D01*
X170199902Y-54542284D01*
X170191142Y-54552470D01*
X170182662Y-54562996D01*
X170174461Y-54573864D01*
X170166541Y-54585071D01*
X170158896Y-54596622D01*
X170151532Y-54608513D01*
X170144447Y-54620744D01*
X170137719Y-54632836D01*
X170131426Y-54645301D01*
X170125566Y-54658137D01*
X170120140Y-54671347D01*
X170115147Y-54684928D01*
X170110589Y-54698880D01*
X170106463Y-54713203D01*
X170102777Y-54727901D01*
X170099521Y-54742970D01*
X170096699Y-54758409D01*
X170094311Y-54774222D01*
X170092358Y-54790410D01*
X170090838Y-54806966D01*
X170089753Y-54823895D01*
X170089102Y-54841198D01*
X170088885Y-54858870D01*
X169668198Y-54858870D01*
X169668492Y-54828793D01*
X169669377Y-54799091D01*
X169670849Y-54769759D01*
X169672911Y-54740800D01*
X169675562Y-54712213D01*
X169678803Y-54683996D01*
X169682632Y-54656154D01*
X169687050Y-54628683D01*
X169692057Y-54601583D01*
X169697653Y-54574854D01*
X169703840Y-54548501D01*
X169710613Y-54522517D01*
X169717977Y-54496907D01*
X169725930Y-54471668D01*
X169734473Y-54446802D01*
X169743604Y-54422307D01*
X169753279Y-54397735D01*
X169763448Y-54373627D01*
X169774114Y-54349986D01*
X169785276Y-54326808D01*
X169796934Y-54304098D01*
X169809089Y-54281851D01*
X169821739Y-54260067D01*
X169834886Y-54238752D01*
X169848529Y-54217901D01*
X169862666Y-54197515D01*
X169877301Y-54177593D01*
X169892432Y-54158137D01*
X169908059Y-54139144D01*
X169924182Y-54120620D01*
X169940802Y-54102559D01*
X169957916Y-54084962D01*
X169975993Y-54067849D01*
X169994503Y-54051228D01*
X170013448Y-54035106D01*
X170032826Y-54019480D01*
X170052639Y-54004348D01*
X170072887Y-53989713D01*
X170093568Y-53975574D01*
X170114682Y-53961931D01*
X170136230Y-53948786D01*
X170158214Y-53936135D01*
X170180631Y-53923981D01*
X170203482Y-53912322D01*
X170226769Y-53901162D01*
X170250488Y-53890495D01*
X170274641Y-53880324D01*
X170299229Y-53870652D01*
X170324219Y-53861519D01*
X170349583Y-53852979D01*
X170375318Y-53845025D01*
X170401424Y-53837662D01*
X170427904Y-53830884D01*
X170454754Y-53824702D01*
X170481978Y-53819105D01*
X170509573Y-53814097D01*
X170537540Y-53809679D01*
X170565879Y-53805848D01*
X170623674Y-53799957D01*
X170682957Y-53796425D01*
X170743731Y-53795244D01*
X170774301Y-53795539D01*
G37*
G36*
X171771635Y-49056109D02*
G01*
X170061104Y-49615700D01*
X170061104Y-49623638D01*
X171771635Y-50199107D01*
X171771635Y-50576139D01*
X169719792Y-49814140D01*
X169719792Y-49452982D01*
X171771636Y-48702888D01*
X171771635Y-49056109D01*
G37*
G36*
X169727977Y-59977591D02*
G01*
X169736658Y-59982273D01*
X169745836Y-59986769D01*
X169755510Y-59991077D01*
X169765680Y-59995203D01*
X169776347Y-59999140D01*
X169787509Y-60002892D01*
X169799165Y-60006458D01*
X169811322Y-60009837D01*
X169823971Y-60013032D01*
X169850760Y-60018861D01*
X169879533Y-60023944D01*
X169910291Y-60028285D01*
X169942228Y-60032005D01*
X169974535Y-60035232D01*
X170007216Y-60037960D01*
X170040269Y-60040193D01*
X170073693Y-60041928D01*
X170107488Y-60043169D01*
X170141655Y-60043912D01*
X170176198Y-60044161D01*
X171243792Y-60044161D01*
X171266813Y-60044484D01*
X171289244Y-60045462D01*
X171311089Y-60047089D01*
X171332344Y-60049368D01*
X171353011Y-60052299D01*
X171373086Y-60055881D01*
X171392574Y-60060112D01*
X171411472Y-60064997D01*
X171429780Y-60070531D01*
X171447500Y-60076717D01*
X171464630Y-60083554D01*
X171481174Y-60091040D01*
X171497124Y-60099181D01*
X171512489Y-60107971D01*
X171527263Y-60117411D01*
X171541447Y-60127504D01*
X171555635Y-60138108D01*
X171569415Y-60149085D01*
X171582794Y-60160432D01*
X171595770Y-60172153D01*
X171608343Y-60184246D01*
X171620512Y-60196708D01*
X171632279Y-60209547D01*
X171643643Y-60222755D01*
X171654603Y-60236335D01*
X171665161Y-60250289D01*
X171675316Y-60264612D01*
X171685066Y-60279310D01*
X171694416Y-60294377D01*
X171703360Y-60309820D01*
X171711902Y-60325632D01*
X171720042Y-60341818D01*
X171735235Y-60374994D01*
X171749065Y-60409035D01*
X171761528Y-60443951D01*
X171772628Y-60479731D01*
X171782363Y-60516379D01*
X171790736Y-60553896D01*
X171797742Y-60592282D01*
X171803387Y-60631534D01*
X171808967Y-60671161D01*
X171813803Y-60710660D01*
X171817896Y-60750041D01*
X171821244Y-60789291D01*
X171823850Y-60828423D01*
X171825710Y-60867428D01*
X171826827Y-60906308D01*
X171827197Y-60945066D01*
X171826640Y-60987730D01*
X171824967Y-61030394D01*
X171822174Y-61073060D01*
X171818268Y-61115724D01*
X171813246Y-61158386D01*
X171807106Y-61201051D01*
X171799852Y-61243714D01*
X171791479Y-61286379D01*
X171787324Y-61307090D01*
X171782798Y-61327554D01*
X171777899Y-61347772D01*
X171772627Y-61367737D01*
X171766983Y-61387458D01*
X171760969Y-61406931D01*
X171754583Y-61426153D01*
X171747822Y-61445129D01*
X171740691Y-61463856D01*
X171733188Y-61482335D01*
X171725313Y-61500568D01*
X171717066Y-61518550D01*
X171708445Y-61536285D01*
X171699454Y-61553773D01*
X171690088Y-61571013D01*
X171680353Y-61588002D01*
X171670230Y-61604684D01*
X171659704Y-61620996D01*
X171648775Y-61636931D01*
X171637442Y-61652497D01*
X171625707Y-61667688D01*
X171613567Y-61682509D01*
X171601025Y-61696960D01*
X171588080Y-61711035D01*
X171574732Y-61724741D01*
X171560983Y-61738072D01*
X171546828Y-61751032D01*
X171532270Y-61763622D01*
X171517309Y-61775839D01*
X171501946Y-61787682D01*
X171486179Y-61799154D01*
X171470010Y-61810255D01*
X171453376Y-61820874D01*
X171436213Y-61830903D01*
X171418525Y-61840345D01*
X171400310Y-61849198D01*
X171381566Y-61857462D01*
X171362295Y-61865135D01*
X171342498Y-61872219D01*
X171322174Y-61878715D01*
X171301323Y-61884622D01*
X171279942Y-61889938D01*
X171258039Y-61894669D01*
X171235606Y-61898806D01*
X171212647Y-61902358D01*
X171189159Y-61905317D01*
X171165145Y-61907691D01*
X171140605Y-61909472D01*
X171140605Y-61345911D01*
X171161067Y-61343616D01*
X171180787Y-61340701D01*
X171199763Y-61337165D01*
X171217995Y-61333012D01*
X171235482Y-61328238D01*
X171252225Y-61322842D01*
X171268225Y-61316826D01*
X171283479Y-61310190D01*
X171297990Y-61302936D01*
X171311756Y-61295062D01*
X171324778Y-61286563D01*
X171337057Y-61277450D01*
X171348592Y-61267713D01*
X171359381Y-61257359D01*
X171369427Y-61246381D01*
X171378731Y-61234784D01*
X171387379Y-61222601D01*
X171395473Y-61209858D01*
X171403006Y-61196554D01*
X171409983Y-61182697D01*
X171416402Y-61168277D01*
X171422260Y-61153301D01*
X171427563Y-61137768D01*
X171432307Y-61121675D01*
X171436493Y-61105026D01*
X171440120Y-61087818D01*
X171443190Y-61070050D01*
X171445701Y-61051727D01*
X171447655Y-61032844D01*
X171449050Y-61013405D01*
X171449887Y-60993403D01*
X171450167Y-60972848D01*
X171449980Y-60954184D01*
X171449423Y-60935889D01*
X171448492Y-60917969D01*
X171447192Y-60900417D01*
X171445515Y-60883240D01*
X171443470Y-60866436D01*
X171441050Y-60850004D01*
X171438260Y-60833943D01*
X171437175Y-60825586D01*
X171435903Y-60817385D01*
X171434446Y-60809340D01*
X171432803Y-60801449D01*
X171430974Y-60793711D01*
X171428958Y-60786132D01*
X171426757Y-60778705D01*
X171424369Y-60771433D01*
X171421796Y-60764318D01*
X171419036Y-60757357D01*
X171416091Y-60750553D01*
X171412958Y-60743901D01*
X171409642Y-60737406D01*
X171406138Y-60731065D01*
X171402448Y-60724877D01*
X171398573Y-60718847D01*
X171394992Y-60712492D01*
X171391193Y-60706322D01*
X171387178Y-60700337D01*
X171382946Y-60694538D01*
X171378496Y-60688926D01*
X171373830Y-60683500D01*
X171368946Y-60678261D01*
X171363847Y-60673206D01*
X171358528Y-60668339D01*
X171352994Y-60663658D01*
X171347242Y-60659163D01*
X171341274Y-60654852D01*
X171335089Y-60650727D01*
X171328686Y-60646791D01*
X171322065Y-60643038D01*
X171315230Y-60639472D01*
X171308624Y-60635627D01*
X171301710Y-60632032D01*
X171294487Y-60628683D01*
X171286952Y-60625583D01*
X171279108Y-60622731D01*
X171270952Y-60620125D01*
X171262490Y-60617768D01*
X171253713Y-60615661D01*
X171244628Y-60613799D01*
X171235233Y-60612189D01*
X171225529Y-60610823D01*
X171215514Y-60609707D01*
X171205191Y-60608838D01*
X171194555Y-60608218D01*
X171183609Y-60607846D01*
X171172354Y-60607724D01*
X171161595Y-60607460D01*
X171151146Y-60607660D01*
X171141008Y-60608328D01*
X171131178Y-60609459D01*
X171121660Y-60611056D01*
X171112450Y-60613119D01*
X171103552Y-60615646D01*
X171094963Y-60618638D01*
X171086685Y-60622095D01*
X171078716Y-60626015D01*
X171071057Y-60630404D01*
X171063710Y-60635256D01*
X171056672Y-60640574D01*
X171049940Y-60646355D01*
X171043524Y-60652603D01*
X171037416Y-60659315D01*
X171032037Y-60666417D01*
X171026812Y-60673825D01*
X171021743Y-60681547D01*
X171016828Y-60689578D01*
X171012070Y-60697918D01*
X171007464Y-60706570D01*
X171003016Y-60715531D01*
X170998720Y-60724800D01*
X170994582Y-60734382D01*
X170990597Y-60744273D01*
X170986769Y-60754473D01*
X170983094Y-60764986D01*
X170979573Y-60775805D01*
X170976211Y-60786937D01*
X170973001Y-60798378D01*
X170969945Y-60810128D01*
X170964180Y-60834376D01*
X170958785Y-60859489D01*
X170953763Y-60885473D01*
X170949112Y-60912324D01*
X170944833Y-60940044D01*
X170940927Y-60968631D01*
X170937391Y-60998088D01*
X170934229Y-61028409D01*
X170927780Y-61090174D01*
X170920338Y-61152435D01*
X170911905Y-61215190D01*
X170902479Y-61278442D01*
X170897270Y-61310190D01*
X170891565Y-61341943D01*
X170885363Y-61373692D01*
X170878666Y-61405442D01*
X170871473Y-61437191D01*
X170863784Y-61468942D01*
X170855599Y-61500692D01*
X170846916Y-61532441D01*
X170842808Y-61547728D01*
X170838422Y-61562828D01*
X170833756Y-61577740D01*
X170828809Y-61592468D01*
X170823586Y-61607009D01*
X170818081Y-61621367D01*
X170812298Y-61635536D01*
X170806239Y-61649519D01*
X170799895Y-61663318D01*
X170793277Y-61676929D01*
X170786377Y-61690355D01*
X170779199Y-61703593D01*
X170771743Y-61716648D01*
X170764007Y-61729514D01*
X170755993Y-61742196D01*
X170747697Y-61754692D01*
X170739078Y-61766473D01*
X170730086Y-61778008D01*
X170720722Y-61789292D01*
X170710986Y-61800332D01*
X170700880Y-61811121D01*
X170690400Y-61821664D01*
X170679547Y-61831958D01*
X170668323Y-61842004D01*
X170656726Y-61851802D01*
X170644758Y-61861352D01*
X170632418Y-61870653D01*
X170619705Y-61879707D01*
X170606623Y-61888511D01*
X170593165Y-61897070D01*
X170579336Y-61905381D01*
X170565136Y-61913442D01*
X170550996Y-61920649D01*
X170536361Y-61927395D01*
X170521231Y-61933673D01*
X170505605Y-61939488D01*
X170489481Y-61944835D01*
X170472862Y-61949720D01*
X170455747Y-61954137D01*
X170438136Y-61958089D01*
X170420027Y-61961578D01*
X170401424Y-61964600D01*
X170382323Y-61967159D01*
X170362730Y-61969252D01*
X170342637Y-61970881D01*
X170322049Y-61972043D01*
X170303197Y-61972666D01*
X170300965Y-61972740D01*
X170279385Y-61972974D01*
X170259712Y-61972772D01*
X170240381Y-61972166D01*
X170221388Y-61971160D01*
X170202738Y-61969747D01*
X170184430Y-61967934D01*
X170166462Y-61965717D01*
X170148837Y-61963096D01*
X170131550Y-61960075D01*
X170114604Y-61956648D01*
X170098002Y-61952820D01*
X170081738Y-61948588D01*
X170065818Y-61943951D01*
X170050237Y-61938914D01*
X170034997Y-61933471D01*
X170020098Y-61927628D01*
X170005541Y-61921379D01*
X169991309Y-61914278D01*
X169977388Y-61906868D01*
X169963776Y-61899148D01*
X169950475Y-61891116D01*
X169937483Y-61882778D01*
X169924802Y-61874125D01*
X169912431Y-61865166D01*
X169900369Y-61855895D01*
X169888618Y-61846313D01*
X169877177Y-61836422D01*
X169866046Y-61826222D01*
X169855225Y-61815711D01*
X169844714Y-61804890D01*
X169834513Y-61793758D01*
X169824622Y-61782317D01*
X169815041Y-61770567D01*
X169805770Y-61758535D01*
X169796810Y-61746259D01*
X169788161Y-61733731D01*
X169779818Y-61720958D01*
X169771788Y-61707936D01*
X169764068Y-61694662D01*
X169756657Y-61681145D01*
X169749557Y-61667379D01*
X169742767Y-61653365D01*
X169736286Y-61639101D01*
X169730117Y-61624591D01*
X169724256Y-61609833D01*
X169718706Y-61594825D01*
X169713466Y-61579569D01*
X169708537Y-61564069D01*
X169703917Y-61548317D01*
X169695545Y-61516257D01*
X169688289Y-61483575D01*
X169682150Y-61450276D01*
X169677127Y-61416356D01*
X169673222Y-61381814D01*
X169670431Y-61346655D01*
X169668756Y-61310875D01*
X169668198Y-61274473D01*
X169669068Y-61226971D01*
X169671670Y-61179720D01*
X169676011Y-61132715D01*
X169682089Y-61085958D01*
X169685756Y-61064130D01*
X170041260Y-61064130D01*
X170041447Y-61080934D01*
X170042004Y-61097615D01*
X170042934Y-61114173D01*
X170044239Y-61130605D01*
X170045911Y-61146913D01*
X170047958Y-61163100D01*
X170050377Y-61179160D01*
X170053166Y-61195099D01*
X170054718Y-61202975D01*
X170056391Y-61210723D01*
X170058190Y-61218352D01*
X170060111Y-61225856D01*
X170062159Y-61233234D01*
X170064328Y-61240491D01*
X170066624Y-61247622D01*
X170069042Y-61254628D01*
X170071584Y-61261514D01*
X170074250Y-61268271D01*
X170077042Y-61274907D01*
X170079955Y-61281419D01*
X170082994Y-61287807D01*
X170086157Y-61294069D01*
X170089444Y-61300208D01*
X170092855Y-61306222D01*
X170096901Y-61312100D01*
X170101102Y-61317818D01*
X170105459Y-61323385D01*
X170109970Y-61328795D01*
X170114635Y-61334051D01*
X170119459Y-61339150D01*
X170124433Y-61344098D01*
X170129567Y-61348886D01*
X170134852Y-61353522D01*
X170140293Y-61358002D01*
X170145890Y-61362329D01*
X170151640Y-61366498D01*
X170157549Y-61370513D01*
X170163609Y-61374373D01*
X170169826Y-61378079D01*
X170176199Y-61381628D01*
X170182741Y-61384993D01*
X170189468Y-61388139D01*
X170196382Y-61391070D01*
X170203483Y-61393784D01*
X170210770Y-61396279D01*
X170218242Y-61398558D01*
X170225900Y-61400618D01*
X170233745Y-61402465D01*
X170241777Y-61404092D01*
X170249992Y-61405504D01*
X170258394Y-61406697D01*
X170266983Y-61407674D01*
X170275757Y-61408435D01*
X170284719Y-61408976D01*
X170293865Y-61409302D01*
X170303197Y-61409411D01*
X170313011Y-61409302D01*
X170322607Y-61408976D01*
X170331986Y-61408433D01*
X170341150Y-61407674D01*
X170350095Y-61406697D01*
X170358822Y-61405505D01*
X170367333Y-61404092D01*
X170375627Y-61402465D01*
X170383705Y-61400620D01*
X170391564Y-61398556D01*
X170399207Y-61396277D01*
X170406633Y-61393784D01*
X170413843Y-61391070D01*
X170420832Y-61388139D01*
X170427609Y-61384993D01*
X170434167Y-61381628D01*
X170440538Y-61378094D01*
X170446755Y-61374436D01*
X170452816Y-61370653D01*
X170458725Y-61366745D01*
X170464475Y-61362716D01*
X170470070Y-61358560D01*
X170475514Y-61354282D01*
X170480800Y-61349880D01*
X170485932Y-61345352D01*
X170490907Y-61340702D01*
X170495729Y-61335927D01*
X170500396Y-61331028D01*
X170504906Y-61326006D01*
X170509262Y-61320857D01*
X170513463Y-61315587D01*
X170517512Y-61310191D01*
X170521913Y-61304192D01*
X170526192Y-61298100D01*
X170530346Y-61291912D01*
X170534375Y-61285634D01*
X170538285Y-61279264D01*
X170542067Y-61272800D01*
X170545726Y-61266241D01*
X170549260Y-61259589D01*
X170552671Y-61252844D01*
X170555957Y-61246010D01*
X170559120Y-61239078D01*
X170562159Y-61232057D01*
X170567864Y-61217732D01*
X170573072Y-61203034D01*
X170577909Y-61187158D01*
X170582499Y-61171286D01*
X170586840Y-61155409D01*
X170590932Y-61139535D01*
X170594777Y-61123661D01*
X170598373Y-61107786D01*
X170601722Y-61091910D01*
X170604822Y-61076033D01*
X170610528Y-61042302D01*
X170615737Y-61008567D01*
X170620449Y-60974833D01*
X170624666Y-60941097D01*
X170628883Y-60907858D01*
X170633596Y-60875615D01*
X170638806Y-60844359D01*
X170641595Y-60829106D01*
X170644510Y-60814097D01*
X170647548Y-60798410D01*
X170650712Y-60783090D01*
X170653998Y-60768145D01*
X170657409Y-60753575D01*
X170660944Y-60739374D01*
X170664602Y-60725544D01*
X170668386Y-60712089D01*
X170672291Y-60699004D01*
X170674818Y-60692137D01*
X170677438Y-60685424D01*
X170680151Y-60678866D01*
X170682957Y-60672462D01*
X170685856Y-60666214D01*
X170688849Y-60660123D01*
X170691933Y-60654184D01*
X170695112Y-60648402D01*
X170698384Y-60642775D01*
X170701748Y-60637302D01*
X170705204Y-60631983D01*
X170708755Y-60626823D01*
X170712397Y-60621815D01*
X170716133Y-60616962D01*
X170719964Y-60612265D01*
X170723885Y-60607723D01*
X170513541Y-60607723D01*
X170501139Y-60607909D01*
X170487744Y-60608466D01*
X170473358Y-60609396D01*
X170457979Y-60610700D01*
X170441608Y-60612373D01*
X170424244Y-60614420D01*
X170405889Y-60616839D01*
X170386542Y-60619629D01*
X170376620Y-60620760D01*
X170366697Y-60622172D01*
X170356777Y-60623863D01*
X170346856Y-60625829D01*
X170336931Y-60628077D01*
X170327010Y-60630605D01*
X170317088Y-60633410D01*
X170307167Y-60636494D01*
X170297244Y-60639861D01*
X170287322Y-60643504D01*
X170277403Y-60647425D01*
X170267479Y-60651628D01*
X170257558Y-60656108D01*
X170247635Y-60660867D01*
X170237713Y-60665903D01*
X170227791Y-60671224D01*
X170218443Y-60676866D01*
X170209250Y-60682882D01*
X170200212Y-60689268D01*
X170191329Y-60696028D01*
X170182600Y-60703159D01*
X170174028Y-60710662D01*
X170165609Y-60718538D01*
X170157346Y-60726785D01*
X170149238Y-60735406D01*
X170141283Y-60744396D01*
X170133487Y-60753759D01*
X170125844Y-60763495D01*
X170118357Y-60773603D01*
X170111023Y-60784084D01*
X170103845Y-60794935D01*
X170096823Y-60806159D01*
X170090094Y-60817866D01*
X170083801Y-60830159D01*
X170077940Y-60843041D01*
X170072514Y-60856515D01*
X170067523Y-60870575D01*
X170062965Y-60885226D01*
X170058840Y-60900466D01*
X170055152Y-60916293D01*
X170051896Y-60932711D01*
X170049074Y-60949718D01*
X170046686Y-60967314D01*
X170044733Y-60985498D01*
X170043214Y-61004273D01*
X170042128Y-61023634D01*
X170041478Y-61043586D01*
X170041260Y-61064130D01*
X169685756Y-61064130D01*
X169689902Y-61039449D01*
X169699453Y-60993188D01*
X169710738Y-60947174D01*
X169723761Y-60901411D01*
X169731031Y-60878776D01*
X169738953Y-60856513D01*
X169747526Y-60834624D01*
X169756751Y-60813105D01*
X169766626Y-60791961D01*
X169777153Y-60771186D01*
X169788330Y-60750784D01*
X169800158Y-60730755D01*
X169812638Y-60711097D01*
X169825769Y-60691810D01*
X169839551Y-60672898D01*
X169853985Y-60654356D01*
X169869069Y-60636186D01*
X169884804Y-60618389D01*
X169901192Y-60600963D01*
X169918230Y-60583909D01*
X169892432Y-60581676D01*
X169866636Y-60578949D01*
X169840838Y-60575726D01*
X169815041Y-60572005D01*
X169791230Y-60565801D01*
X169767417Y-60559105D01*
X169743604Y-60551913D01*
X169719792Y-60544222D01*
X169719793Y-59972722D01*
X169727977Y-59977591D01*
G37*
G36*
X166480671Y-53893679D02*
G01*
X166520483Y-53894423D01*
X166561040Y-53895665D01*
X166602338Y-53897399D01*
X166623114Y-53898578D01*
X166643764Y-53900127D01*
X166664288Y-53902049D01*
X166684692Y-53904345D01*
X166704968Y-53907010D01*
X166725123Y-53910050D01*
X166745151Y-53913461D01*
X166765057Y-53917244D01*
X166784777Y-53921430D01*
X166804248Y-53926051D01*
X166823472Y-53931104D01*
X166842449Y-53936592D01*
X166861175Y-53942514D01*
X166879654Y-53948870D01*
X166897886Y-53955662D01*
X166915869Y-53962885D01*
X166924729Y-53966691D01*
X166933450Y-53970668D01*
X166942031Y-53974815D01*
X166950473Y-53979133D01*
X166958774Y-53983618D01*
X166966936Y-53988279D01*
X166974959Y-53993108D01*
X166982843Y-53998108D01*
X166990586Y-54003277D01*
X166998191Y-54008619D01*
X167005656Y-54014129D01*
X167012979Y-54019812D01*
X167020165Y-54025664D01*
X167027211Y-54031688D01*
X167034118Y-54037880D01*
X167040885Y-54044244D01*
X167047497Y-54050803D01*
X167053940Y-54057577D01*
X167060210Y-54064569D01*
X167066310Y-54071777D01*
X167072240Y-54079202D01*
X167078000Y-54086845D01*
X167083589Y-54094707D01*
X167089006Y-54102781D01*
X167094255Y-54111078D01*
X167099332Y-54119589D01*
X167104238Y-54128316D01*
X167108973Y-54137261D01*
X167113540Y-54146423D01*
X167117936Y-54155802D01*
X167122159Y-54165401D01*
X167126213Y-54175213D01*
X167130058Y-54185009D01*
X167133656Y-54195057D01*
X167137003Y-54205350D01*
X167140104Y-54215894D01*
X167142956Y-54226684D01*
X167145561Y-54237721D01*
X167147918Y-54249007D01*
X167150026Y-54260542D01*
X167151887Y-54272322D01*
X167153498Y-54284354D01*
X167154864Y-54296631D01*
X167155979Y-54309159D01*
X167157467Y-54334956D01*
X167157962Y-54361744D01*
X167157839Y-54375271D01*
X167157467Y-54388564D01*
X167156848Y-54401625D01*
X167155979Y-54414454D01*
X167154862Y-54427051D01*
X167153498Y-54439414D01*
X167151886Y-54451546D01*
X167150026Y-54463443D01*
X167147918Y-54475110D01*
X167145562Y-54486542D01*
X167142956Y-54497744D01*
X167140104Y-54508712D01*
X167137003Y-54519448D01*
X167133655Y-54529950D01*
X167130059Y-54540222D01*
X167126214Y-54550260D01*
X167122159Y-54559833D01*
X167117936Y-54569204D01*
X167113540Y-54578374D01*
X167108974Y-54587344D01*
X167104238Y-54596109D01*
X167099331Y-54604675D01*
X167094255Y-54613039D01*
X167089006Y-54621201D01*
X167083588Y-54629162D01*
X167078000Y-54636921D01*
X167072240Y-54644480D01*
X167066310Y-54651835D01*
X167060210Y-54658990D01*
X167053939Y-54665943D01*
X167047497Y-54672695D01*
X167040885Y-54679245D01*
X167034118Y-54685609D01*
X167027212Y-54691801D01*
X167020165Y-54697826D01*
X167012980Y-54703677D01*
X167005657Y-54709357D01*
X166998192Y-54714869D01*
X166990586Y-54720209D01*
X166982842Y-54725380D01*
X166974959Y-54730380D01*
X166966936Y-54735210D01*
X166958775Y-54739868D01*
X166950473Y-54744356D01*
X166942031Y-54748674D01*
X166933451Y-54752820D01*
X166924729Y-54756798D01*
X166915869Y-54760604D01*
X166897889Y-54767827D01*
X166879654Y-54774618D01*
X166861175Y-54780975D01*
X166842448Y-54786895D01*
X166823472Y-54792385D01*
X166804248Y-54797437D01*
X166784777Y-54802058D01*
X166765057Y-54806243D01*
X166745151Y-54810028D01*
X166725122Y-54813438D01*
X166704969Y-54816476D01*
X166684691Y-54819143D01*
X166664287Y-54821437D01*
X166643762Y-54823359D01*
X166623112Y-54824909D01*
X166602338Y-54826089D01*
X166561041Y-54827823D01*
X166556699Y-54827956D01*
X166520483Y-54829064D01*
X166480669Y-54829807D01*
X166441605Y-54830056D01*
X166402537Y-54829807D01*
X166362725Y-54829064D01*
X166322170Y-54827823D01*
X166280870Y-54826087D01*
X166260096Y-54824909D01*
X166239447Y-54823360D01*
X166218920Y-54821437D01*
X166198518Y-54819144D01*
X166178241Y-54816476D01*
X166158086Y-54813436D01*
X166138057Y-54810026D01*
X166118151Y-54806245D01*
X166098431Y-54802058D01*
X166078961Y-54797437D01*
X166059736Y-54792385D01*
X166040760Y-54786896D01*
X166022033Y-54780975D01*
X166003553Y-54774618D01*
X165985322Y-54767827D01*
X165967340Y-54760601D01*
X165958719Y-54756797D01*
X165950223Y-54752819D01*
X165941852Y-54748673D01*
X165933604Y-54744356D01*
X165925480Y-54739868D01*
X165917483Y-54735209D01*
X165909605Y-54730380D01*
X165901854Y-54725380D01*
X165894227Y-54720211D01*
X165886723Y-54714869D01*
X165879344Y-54709360D01*
X165872088Y-54703678D01*
X165864957Y-54697825D01*
X165857952Y-54691801D01*
X165851068Y-54685608D01*
X165844308Y-54679244D01*
X165837695Y-54672693D01*
X165831254Y-54665944D01*
X165824984Y-54658991D01*
X165818884Y-54651834D01*
X165812954Y-54644479D01*
X165807193Y-54636921D01*
X165801605Y-54629163D01*
X165796186Y-54621200D01*
X165790938Y-54613040D01*
X165785862Y-54604676D01*
X165780954Y-54596109D01*
X165776219Y-54587343D01*
X165771653Y-54578374D01*
X165767258Y-54569203D01*
X165763033Y-54559833D01*
X165758979Y-54550261D01*
X165755375Y-54540221D01*
X165752003Y-54529950D01*
X165748864Y-54519449D01*
X165745957Y-54508712D01*
X165743282Y-54497744D01*
X165740842Y-54486542D01*
X165736657Y-54463443D01*
X165733400Y-54439414D01*
X165731074Y-54414454D01*
X165729679Y-54388564D01*
X165729214Y-54361744D01*
X165876057Y-54361744D01*
X165876291Y-54374954D01*
X165876987Y-54387789D01*
X165878150Y-54400253D01*
X165879778Y-54412346D01*
X165881871Y-54424065D01*
X165884429Y-54435414D01*
X165887452Y-54446390D01*
X165890941Y-54456994D01*
X165894893Y-54467226D01*
X165899313Y-54477087D01*
X165904195Y-54486575D01*
X165909543Y-54495690D01*
X165915358Y-54504433D01*
X165921636Y-54512804D01*
X165928380Y-54520805D01*
X165935589Y-54528431D01*
X165943131Y-54535750D01*
X165950874Y-54542818D01*
X165958819Y-54549640D01*
X165966967Y-54556213D01*
X165975315Y-54562537D01*
X165983864Y-54568616D01*
X165992616Y-54574444D01*
X166001569Y-54580025D01*
X166010723Y-54585358D01*
X166020079Y-54590444D01*
X166029637Y-54595278D01*
X166039396Y-54599868D01*
X166049357Y-54604211D01*
X166059519Y-54608303D01*
X166069883Y-54612147D01*
X166080448Y-54615744D01*
X166102432Y-54621883D01*
X166124725Y-54627402D01*
X166147329Y-54632300D01*
X166170241Y-54636579D01*
X166193464Y-54640238D01*
X166216997Y-54643279D01*
X166240842Y-54645696D01*
X166264994Y-54647493D01*
X166313363Y-54649231D01*
X166359252Y-54650471D01*
X166402660Y-54651213D01*
X166443588Y-54651463D01*
X166556697Y-54651462D01*
X166572543Y-54650873D01*
X166588326Y-54650098D01*
X166604044Y-54649137D01*
X166619703Y-54647990D01*
X166635298Y-54646657D01*
X166650831Y-54645137D01*
X166666304Y-54643432D01*
X166681714Y-54641540D01*
X166697526Y-54638969D01*
X166713215Y-54636208D01*
X166728780Y-54633264D01*
X166744219Y-54630130D01*
X166759538Y-54626813D01*
X166774731Y-54623311D01*
X166789801Y-54619620D01*
X166804745Y-54615744D01*
X166812124Y-54613458D01*
X166819380Y-54611062D01*
X166826511Y-54608559D01*
X166833518Y-54605947D01*
X166840402Y-54603226D01*
X166847162Y-54600396D01*
X166853797Y-54597459D01*
X166860308Y-54594413D01*
X166866694Y-54591256D01*
X166872958Y-54587994D01*
X166879098Y-54584622D01*
X166885112Y-54581141D01*
X166891003Y-54577553D01*
X166896770Y-54573855D01*
X166902413Y-54570050D01*
X166907933Y-54566134D01*
X166913568Y-54561856D01*
X166919063Y-54557454D01*
X166924420Y-54552926D01*
X166929637Y-54548274D01*
X166934714Y-54543500D01*
X166939651Y-54538601D01*
X166944450Y-54533577D01*
X166949106Y-54528431D01*
X166953627Y-54523161D01*
X166958006Y-54517765D01*
X166962246Y-54512246D01*
X166966346Y-54506602D01*
X166970308Y-54500837D01*
X166974129Y-54494944D01*
X166977811Y-54488930D01*
X166981354Y-54482791D01*
X166984718Y-54476506D01*
X166987865Y-54470046D01*
X166990796Y-54463420D01*
X166993508Y-54456623D01*
X166996004Y-54449653D01*
X166998284Y-54442514D01*
X167000345Y-54435204D01*
X167002190Y-54427725D01*
X167003817Y-54420074D01*
X167005228Y-54412252D01*
X167006422Y-54404261D01*
X167007400Y-54396099D01*
X167008159Y-54387766D01*
X167008701Y-54379262D01*
X167009026Y-54370589D01*
X167009135Y-54361744D01*
X167009026Y-54352900D01*
X167008701Y-54344227D01*
X167008159Y-54335723D01*
X167007399Y-54327390D01*
X167006423Y-54319227D01*
X167005227Y-54311234D01*
X167003817Y-54303415D01*
X167002191Y-54295763D01*
X167000343Y-54288282D01*
X166998283Y-54280972D01*
X166996004Y-54273833D01*
X166993508Y-54266866D01*
X166990796Y-54260067D01*
X166987865Y-54253438D01*
X166984718Y-54246985D01*
X166981354Y-54240696D01*
X166977811Y-54234566D01*
X166974130Y-54228574D01*
X166970309Y-54222723D01*
X166966347Y-54217007D01*
X166962246Y-54211435D01*
X166958006Y-54206002D01*
X166953627Y-54200708D01*
X166949106Y-54195552D01*
X166944449Y-54190538D01*
X166939651Y-54185661D01*
X166934714Y-54180925D01*
X166929638Y-54176328D01*
X166924420Y-54171871D01*
X166919063Y-54167555D01*
X166913568Y-54163377D01*
X166907933Y-54159337D01*
X166902413Y-54155191D01*
X166896771Y-54151184D01*
X166891004Y-54147316D01*
X166885112Y-54143586D01*
X166879099Y-54139996D01*
X166872958Y-54136550D01*
X166866695Y-54133239D01*
X166860308Y-54130069D01*
X166853798Y-54127037D01*
X166847161Y-54124147D01*
X166840402Y-54121395D01*
X166833519Y-54118783D01*
X166826511Y-54116308D01*
X166819381Y-54113976D01*
X166812124Y-54111784D01*
X166804744Y-54109729D01*
X166789801Y-54105419D01*
X166774731Y-54101418D01*
X166759540Y-54097728D01*
X166744223Y-54094349D01*
X166728780Y-54091280D01*
X166713215Y-54088521D01*
X166697527Y-54086072D01*
X166681714Y-54083931D01*
X166666304Y-54081606D01*
X166650831Y-54079590D01*
X166635297Y-54077886D01*
X166619704Y-54076488D01*
X166604044Y-54075404D01*
X166588325Y-54074629D01*
X166572542Y-54074163D01*
X166556698Y-54074009D01*
X166526561Y-54073142D01*
X166497662Y-54072522D01*
X166470006Y-54072150D01*
X166443588Y-54072024D01*
X166402660Y-54072398D01*
X166359252Y-54073514D01*
X166313363Y-54075373D01*
X166264994Y-54077978D01*
X166240842Y-54079343D01*
X166216997Y-54081453D01*
X166193462Y-54084303D01*
X166170241Y-54087901D01*
X166147328Y-54092241D01*
X166124724Y-54097328D01*
X166102431Y-54103156D01*
X166080449Y-54109729D01*
X166069883Y-54113085D01*
X166059519Y-54116704D01*
X166049357Y-54120589D01*
X166039396Y-54124736D01*
X166029637Y-54129145D01*
X166020079Y-54133818D01*
X166010723Y-54138758D01*
X166001570Y-54143958D01*
X165992617Y-54149424D01*
X165983864Y-54155150D01*
X165975315Y-54161144D01*
X165966967Y-54167399D01*
X165958820Y-54173919D01*
X165950874Y-54180700D01*
X165943131Y-54187747D01*
X165935589Y-54195056D01*
X165928380Y-54202685D01*
X165921637Y-54210682D01*
X165915358Y-54219056D01*
X165909544Y-54227799D01*
X165904195Y-54236914D01*
X165899313Y-54246402D01*
X165894893Y-54256263D01*
X165890941Y-54266494D01*
X165887452Y-54277097D01*
X165884429Y-54288075D01*
X165881871Y-54299421D01*
X165879778Y-54311142D01*
X165878150Y-54323235D01*
X165876987Y-54335700D01*
X165876290Y-54348536D01*
X165876057Y-54361744D01*
X165729214Y-54361744D01*
X165729330Y-54347986D01*
X165729679Y-54334490D01*
X165730260Y-54321258D01*
X165731074Y-54308289D01*
X165732120Y-54295585D01*
X165733399Y-54283146D01*
X165734912Y-54270968D01*
X165736655Y-54259053D01*
X165738629Y-54247402D01*
X165740842Y-54236016D01*
X165743283Y-54224892D01*
X165745958Y-54214033D01*
X165748864Y-54203436D01*
X165752003Y-54193104D01*
X165755375Y-54183033D01*
X165758980Y-54173228D01*
X165763033Y-54163654D01*
X165767258Y-54154284D01*
X165771654Y-54145114D01*
X165776218Y-54136146D01*
X165780954Y-54127378D01*
X165785862Y-54118813D01*
X165790938Y-54110449D01*
X165796187Y-54102285D01*
X165801605Y-54094326D01*
X165807193Y-54086567D01*
X165812954Y-54079010D01*
X165818885Y-54071652D01*
X165824983Y-54064499D01*
X165831254Y-54057546D01*
X165837695Y-54050794D01*
X165844308Y-54044244D01*
X165851068Y-54037880D01*
X165857951Y-54031687D01*
X165864958Y-54025664D01*
X165872088Y-54019812D01*
X165879345Y-54014129D01*
X165886723Y-54008618D01*
X165894228Y-54003277D01*
X165901854Y-53998108D01*
X165909605Y-53993108D01*
X165917483Y-53988278D01*
X165925480Y-53983621D01*
X165933604Y-53979133D01*
X165941852Y-53974814D01*
X165950224Y-53970668D01*
X165958720Y-53966690D01*
X165967338Y-53962885D01*
X165985322Y-53955662D01*
X166003553Y-53948870D01*
X166022033Y-53942514D01*
X166040761Y-53936592D01*
X166059736Y-53931104D01*
X166078960Y-53926049D01*
X166098431Y-53921430D01*
X166118151Y-53917244D01*
X166138057Y-53913461D01*
X166158086Y-53910050D01*
X166178241Y-53907013D01*
X166198519Y-53904345D01*
X166218921Y-53902051D01*
X166239447Y-53900129D01*
X166260096Y-53898577D01*
X166280870Y-53897399D01*
X166322169Y-53895664D01*
X166362725Y-53894425D01*
X166402537Y-53893679D01*
X166441604Y-53893430D01*
X166480671Y-53893679D01*
G37*
G36*
X171812005Y-56022890D02*
G01*
X171816035Y-56039198D01*
X171819447Y-56055137D01*
X171822236Y-56070702D01*
X171824408Y-56085894D01*
X171825957Y-56100714D01*
X171826888Y-56115163D01*
X171827197Y-56129239D01*
X171826701Y-56155906D01*
X171825214Y-56182322D01*
X171822733Y-56208491D01*
X171819260Y-56234411D01*
X171814797Y-56260084D01*
X171809338Y-56285510D01*
X171802889Y-56310686D01*
X171795447Y-56335615D01*
X171787076Y-56360233D01*
X171777836Y-56384481D01*
X171767728Y-56408355D01*
X171756752Y-56431858D01*
X171744908Y-56454988D01*
X171732196Y-56477745D01*
X171718616Y-56500133D01*
X171704168Y-56522144D01*
X171697112Y-56532983D01*
X171689841Y-56543662D01*
X171682354Y-56554191D01*
X171674649Y-56564562D01*
X171666727Y-56574779D01*
X171658589Y-56584839D01*
X171650231Y-56594747D01*
X171641658Y-56604498D01*
X171632868Y-56614095D01*
X171623862Y-56623537D01*
X171614637Y-56632822D01*
X171605197Y-56641952D01*
X171595537Y-56650928D01*
X171585664Y-56659750D01*
X171575570Y-56668417D01*
X171565260Y-56676928D01*
X171555276Y-56685254D01*
X171545169Y-56693360D01*
X171534937Y-56701253D01*
X171524581Y-56708925D01*
X171514100Y-56716382D01*
X171503497Y-56723624D01*
X171492768Y-56730643D01*
X171481916Y-56737451D01*
X171470940Y-56744040D01*
X171459841Y-56750411D01*
X171448616Y-56756567D01*
X171437268Y-56762505D01*
X171425796Y-56768223D01*
X171414200Y-56773727D01*
X171402479Y-56779012D01*
X171390635Y-56784085D01*
X171390635Y-56792020D01*
X171771637Y-56792020D01*
X171771636Y-57327804D01*
X169719792Y-57327803D01*
X169719793Y-56764239D01*
X170644510Y-56764239D01*
X170678927Y-56763806D01*
X170712723Y-56762504D01*
X170745900Y-56760333D01*
X170778455Y-56757294D01*
X170810391Y-56753387D01*
X170841708Y-56748612D01*
X170872403Y-56742970D01*
X170902479Y-56736459D01*
X170917238Y-56732847D01*
X170931748Y-56728956D01*
X170946012Y-56724784D01*
X170960026Y-56720334D01*
X170973792Y-56715605D01*
X170987311Y-56710600D01*
X171000581Y-56705313D01*
X171013605Y-56699748D01*
X171026380Y-56693901D01*
X171038904Y-56687779D01*
X171051184Y-56681375D01*
X171063213Y-56674694D01*
X171074995Y-56667734D01*
X171086529Y-56660493D01*
X171097816Y-56652975D01*
X171108854Y-56645178D01*
X171120109Y-56636590D01*
X171131054Y-56627689D01*
X171141689Y-56618481D01*
X171152014Y-56608962D01*
X171162029Y-56599134D01*
X171171735Y-56588994D01*
X171181128Y-56578545D01*
X171190214Y-56567787D01*
X171198989Y-56556718D01*
X171207452Y-56545339D01*
X171215607Y-56533648D01*
X171223451Y-56521649D01*
X171230986Y-56509342D01*
X171238210Y-56496720D01*
X171245124Y-56483792D01*
X171251729Y-56470553D01*
X171257978Y-56456970D01*
X171263821Y-56443019D01*
X171269263Y-56428695D01*
X171274301Y-56413997D01*
X171278936Y-56398930D01*
X171283169Y-56383489D01*
X171286998Y-56367676D01*
X171290424Y-56351491D01*
X171293447Y-56334932D01*
X171296069Y-56318003D01*
X171298284Y-56300704D01*
X171300100Y-56283029D01*
X171301510Y-56264984D01*
X171302516Y-56246567D01*
X171303121Y-56227777D01*
X171303324Y-56208615D01*
X171303198Y-56195656D01*
X171302827Y-56182571D01*
X171302207Y-56169362D01*
X171301338Y-56156029D01*
X171300223Y-56142572D01*
X171298858Y-56128992D01*
X171297246Y-56115288D01*
X171295386Y-56101460D01*
X171294331Y-56087818D01*
X171293152Y-56074670D01*
X171291850Y-56062019D01*
X171290424Y-56049864D01*
X171288874Y-56038208D01*
X171287200Y-56027046D01*
X171285401Y-56016379D01*
X171283480Y-56006211D01*
X171807354Y-56006210D01*
X171812005Y-56022890D01*
G37*
G36*
X165755545Y-59239009D02*
G01*
X165760126Y-59242567D01*
X165764786Y-59246016D01*
X165769521Y-59249358D01*
X165774334Y-59252590D01*
X165779227Y-59255713D01*
X165784194Y-59258729D01*
X165789240Y-59261635D01*
X165794365Y-59264434D01*
X165799565Y-59267122D01*
X165804844Y-59269705D01*
X165810201Y-59272177D01*
X165815634Y-59274542D01*
X165821146Y-59276796D01*
X165826735Y-59278944D01*
X165832401Y-59280982D01*
X165844370Y-59284362D01*
X165856462Y-59287556D01*
X165868678Y-59290564D01*
X165881018Y-59293384D01*
X165893483Y-59296020D01*
X165906072Y-59298471D01*
X165918784Y-59300733D01*
X165931620Y-59302811D01*
X165944549Y-59304704D01*
X165957541Y-59306409D01*
X165970594Y-59307927D01*
X165983709Y-59309261D01*
X165996889Y-59310407D01*
X166010126Y-59311367D01*
X166023428Y-59312142D01*
X166036791Y-59312734D01*
X166063456Y-59313849D01*
X166089874Y-59315213D01*
X166116042Y-59316826D01*
X166141964Y-59318687D01*
X166154800Y-59320269D01*
X166167512Y-59322036D01*
X166180101Y-59323989D01*
X166192565Y-59326129D01*
X166204905Y-59328453D01*
X166217123Y-59330964D01*
X166229216Y-59333661D01*
X166241184Y-59336545D01*
X166247098Y-59337839D01*
X166252935Y-59339243D01*
X166258693Y-59340756D01*
X166264375Y-59342376D01*
X166269981Y-59344102D01*
X166275506Y-59345939D01*
X166280955Y-59347885D01*
X166286328Y-59349938D01*
X166291621Y-59352102D01*
X166296838Y-59354374D01*
X166301979Y-59356752D01*
X166307038Y-59359241D01*
X166312023Y-59361840D01*
X166316929Y-59364543D01*
X166321759Y-59367358D01*
X166326511Y-59370279D01*
X166331424Y-59373077D01*
X166336246Y-59376015D01*
X166340974Y-59379091D01*
X166345610Y-59382309D01*
X166350153Y-59385667D01*
X166354601Y-59389163D01*
X166358958Y-59392799D01*
X166363221Y-59396572D01*
X166367391Y-59400488D01*
X166371470Y-59404543D01*
X166375454Y-59408736D01*
X166379344Y-59413069D01*
X166383143Y-59417541D01*
X166386848Y-59422153D01*
X166390462Y-59426904D01*
X166393979Y-59431796D01*
X166397391Y-59436602D01*
X166400676Y-59441595D01*
X166403839Y-59446773D01*
X166406877Y-59452135D01*
X166409793Y-59457686D01*
X166412582Y-59463423D01*
X166415250Y-59469345D01*
X166417791Y-59475452D01*
X166420210Y-59481746D01*
X166422506Y-59488225D01*
X166424675Y-59494894D01*
X166426721Y-59501745D01*
X166428643Y-59508781D01*
X166430442Y-59516008D01*
X166432116Y-59523417D01*
X166433667Y-59531015D01*
X166437635Y-59531015D01*
X166442340Y-59515172D01*
X166447526Y-59499886D01*
X166453192Y-59485157D01*
X166459339Y-59470988D01*
X166465969Y-59457374D01*
X166473075Y-59444321D01*
X166480663Y-59431827D01*
X166488734Y-59419890D01*
X166497284Y-59408511D01*
X166506313Y-59397690D01*
X166515824Y-59387425D01*
X166525816Y-59377721D01*
X166536288Y-59368575D01*
X166547242Y-59359986D01*
X166558674Y-59351955D01*
X166570588Y-59344483D01*
X166582867Y-59337274D01*
X166595395Y-59330529D01*
X166608167Y-59324252D01*
X166621191Y-59318439D01*
X166634461Y-59313089D01*
X166647979Y-59308207D01*
X166661746Y-59303787D01*
X166675761Y-59299835D01*
X166690023Y-59296346D01*
X166704535Y-59293324D01*
X166719292Y-59290765D01*
X166734300Y-59288673D01*
X166749554Y-59287044D01*
X166765057Y-59285882D01*
X166780808Y-59285183D01*
X166796807Y-59284951D01*
X166818100Y-59285403D01*
X166838820Y-59286750D01*
X166858966Y-59288997D01*
X166878540Y-59292145D01*
X166897537Y-59296192D01*
X166915963Y-59301136D01*
X166933814Y-59306981D01*
X166951092Y-59313724D01*
X166967797Y-59321367D01*
X166983928Y-59329909D01*
X166999485Y-59339351D01*
X167014468Y-59349693D01*
X167028878Y-59360931D01*
X167042714Y-59373070D01*
X167055977Y-59386108D01*
X167068666Y-59400046D01*
X167080681Y-59414534D01*
X167091920Y-59429717D01*
X167102387Y-59445600D01*
X167112074Y-59462182D01*
X167120988Y-59479459D01*
X167129128Y-59497434D01*
X167136490Y-59516107D01*
X167143080Y-59535480D01*
X167148895Y-59555548D01*
X167153932Y-59576313D01*
X167158196Y-59597778D01*
X167161684Y-59619938D01*
X167164397Y-59642798D01*
X167166336Y-59666355D01*
X167167497Y-59690610D01*
X167167886Y-59715561D01*
X167167886Y-60382310D01*
X166515027Y-60382310D01*
X165751042Y-60382310D01*
X165751042Y-60193794D01*
X166356276Y-60193794D01*
X166356276Y-59800889D01*
X166515027Y-59800889D01*
X166515027Y-60193794D01*
X167009135Y-60193796D01*
X167009135Y-59725482D01*
X167008870Y-59709150D01*
X167008081Y-59693393D01*
X167006764Y-59678207D01*
X167004919Y-59663596D01*
X167002546Y-59649558D01*
X166999647Y-59636094D01*
X166996221Y-59623202D01*
X166992270Y-59610884D01*
X166987788Y-59599142D01*
X166982782Y-59587971D01*
X166977246Y-59577377D01*
X166971184Y-59567354D01*
X166964596Y-59557905D01*
X166957479Y-59549030D01*
X166949836Y-59540727D01*
X166941667Y-59532999D01*
X166933079Y-59525790D01*
X166924179Y-59519045D01*
X166914970Y-59512766D01*
X166905451Y-59506954D01*
X166895624Y-59501605D01*
X166885484Y-59496721D01*
X166875035Y-59492303D01*
X166864277Y-59488349D01*
X166853208Y-59484862D01*
X166841828Y-59481840D01*
X166830138Y-59479281D01*
X166818139Y-59477189D01*
X166805831Y-59475560D01*
X166793210Y-59474397D01*
X166780283Y-59473699D01*
X166767043Y-59473467D01*
X166757476Y-59473576D01*
X166748129Y-59473903D01*
X166738998Y-59474444D01*
X166730083Y-59475203D01*
X166721385Y-59476181D01*
X166712906Y-59477374D01*
X166704642Y-59478783D01*
X166696596Y-59480413D01*
X166688768Y-59482259D01*
X166681155Y-59484319D01*
X166673760Y-59486598D01*
X166666583Y-59489095D01*
X166659622Y-59491806D01*
X166652879Y-59494737D01*
X166646352Y-59497885D01*
X166640041Y-59501250D01*
X166634159Y-59504550D01*
X166628415Y-59508009D01*
X166622810Y-59511619D01*
X166617346Y-59515387D01*
X166612020Y-59519308D01*
X166606835Y-59523386D01*
X166601790Y-59527618D01*
X166596882Y-59532007D01*
X166592114Y-59536547D01*
X166587486Y-59541246D01*
X166582998Y-59546099D01*
X166578650Y-59551106D01*
X166574441Y-59556268D01*
X166570372Y-59561586D01*
X166566442Y-59567059D01*
X166562652Y-59572686D01*
X166559248Y-59578207D01*
X166555984Y-59583848D01*
X166552861Y-59589615D01*
X166549876Y-59595507D01*
X166547031Y-59601522D01*
X166544326Y-59607661D01*
X166541762Y-59613925D01*
X166539334Y-59620312D01*
X166537048Y-59626823D01*
X166534901Y-59633457D01*
X166532893Y-59640217D01*
X166531025Y-59647100D01*
X166529296Y-59654108D01*
X166527707Y-59661240D01*
X166526258Y-59668494D01*
X166524947Y-59675873D01*
X166522622Y-59690848D01*
X166520607Y-59706012D01*
X166518902Y-59721359D01*
X166517506Y-59736893D01*
X166516421Y-59752613D01*
X166515646Y-59768520D01*
X166515182Y-59784611D01*
X166515027Y-59800889D01*
X166356276Y-59800889D01*
X166356276Y-59733420D01*
X166356191Y-59724847D01*
X166355935Y-59716490D01*
X166355508Y-59708351D01*
X166354912Y-59700430D01*
X166354144Y-59692725D01*
X166353206Y-59685237D01*
X166352098Y-59677966D01*
X166350819Y-59670912D01*
X166349369Y-59664077D01*
X166347749Y-59657456D01*
X166345958Y-59651052D01*
X166343997Y-59644868D01*
X166341867Y-59638899D01*
X166339563Y-59633148D01*
X166337092Y-59627614D01*
X166334448Y-59622296D01*
X166331906Y-59617149D01*
X166329239Y-59612125D01*
X166326448Y-59607227D01*
X166323533Y-59602452D01*
X166320496Y-59597802D01*
X166317332Y-59593273D01*
X166314046Y-59588870D01*
X166310635Y-59584591D01*
X166307100Y-59580436D01*
X166303442Y-59576407D01*
X166299660Y-59572500D01*
X166295752Y-59568718D01*
X166291722Y-59565058D01*
X166287567Y-59561523D01*
X166283289Y-59558113D01*
X166278887Y-59554826D01*
X166274614Y-59551657D01*
X166270235Y-59548593D01*
X166265746Y-59545640D01*
X166261151Y-59542796D01*
X166256445Y-59540060D01*
X166251632Y-59537432D01*
X166246709Y-59534913D01*
X166241678Y-59532502D01*
X166236540Y-59530200D01*
X166231292Y-59528007D01*
X166225935Y-59525921D01*
X166220470Y-59523946D01*
X166214897Y-59522075D01*
X166209215Y-59520318D01*
X166203424Y-59518665D01*
X166197528Y-59517121D01*
X166186022Y-59514210D01*
X166174333Y-59511419D01*
X166162458Y-59508751D01*
X166150397Y-59506209D01*
X166138150Y-59503792D01*
X166125716Y-59501496D01*
X166113098Y-59499326D01*
X166100293Y-59497279D01*
X166087364Y-59494923D01*
X166074371Y-59492815D01*
X166061317Y-59490955D01*
X166048203Y-59489343D01*
X166035024Y-59487977D01*
X166021786Y-59486861D01*
X166008483Y-59485995D01*
X165995120Y-59485374D01*
X165893917Y-59481404D01*
X165882630Y-59480848D01*
X165871593Y-59480164D01*
X165860802Y-59479358D01*
X165850261Y-59478428D01*
X165839966Y-59477374D01*
X165829921Y-59476194D01*
X165820124Y-59474894D01*
X165810573Y-59473466D01*
X165805922Y-59472429D01*
X165801395Y-59471298D01*
X165796992Y-59470073D01*
X165792714Y-59468755D01*
X165788559Y-59467343D01*
X165784528Y-59465841D01*
X165780621Y-59464243D01*
X165776838Y-59462553D01*
X165773180Y-59460772D01*
X165769645Y-59458895D01*
X165766235Y-59456925D01*
X165762950Y-59454863D01*
X165759785Y-59452710D01*
X165756747Y-59450460D01*
X165753833Y-59448121D01*
X165751042Y-59445687D01*
X165751041Y-59235344D01*
X165755545Y-59239009D01*
G37*
G36*
X166260654Y-58160287D02*
G01*
X166284745Y-58161309D01*
X166309147Y-58163138D01*
X166333861Y-58165772D01*
X166358881Y-58169215D01*
X166384213Y-58173462D01*
X166409854Y-58178518D01*
X166422692Y-58181136D01*
X166435404Y-58184036D01*
X166447992Y-58187215D01*
X166460456Y-58190672D01*
X166472797Y-58194406D01*
X166485015Y-58198422D01*
X166497104Y-58202717D01*
X166509074Y-58207290D01*
X166520918Y-58212142D01*
X166532637Y-58217275D01*
X166544233Y-58222685D01*
X166555706Y-58228375D01*
X166567053Y-58234343D01*
X166578278Y-58240591D01*
X166589378Y-58247117D01*
X166600354Y-58253925D01*
X166611144Y-58260768D01*
X166621687Y-58267907D01*
X166631980Y-58275341D01*
X166642026Y-58283069D01*
X166651825Y-58291092D01*
X166661374Y-58299410D01*
X166670676Y-58308020D01*
X166679731Y-58316926D01*
X166688535Y-58326129D01*
X166697093Y-58335624D01*
X166705402Y-58345415D01*
X166713463Y-58355498D01*
X166721278Y-58365877D01*
X166728842Y-58376553D01*
X166736160Y-58387520D01*
X166743230Y-58398784D01*
X166750198Y-58410130D01*
X166756716Y-58421850D01*
X166762786Y-58433943D01*
X166768406Y-58446409D01*
X166773576Y-58459244D01*
X166778297Y-58472452D01*
X166782568Y-58486032D01*
X166786389Y-58499985D01*
X166789762Y-58514311D01*
X166792683Y-58529008D01*
X166795156Y-58544077D01*
X166797179Y-58559516D01*
X166798753Y-58575329D01*
X166799878Y-58591514D01*
X166800551Y-58608073D01*
X166800776Y-58625003D01*
X166800621Y-58638085D01*
X166800154Y-58651046D01*
X166799381Y-58663883D01*
X166798295Y-58676596D01*
X166796900Y-58689184D01*
X166795195Y-58701648D01*
X166793179Y-58713987D01*
X166790854Y-58726206D01*
X166788219Y-58738297D01*
X166785274Y-58750265D01*
X166782017Y-58762110D01*
X166778452Y-58773830D01*
X166774576Y-58785426D01*
X166770390Y-58796896D01*
X166765894Y-58808244D01*
X166761088Y-58819471D01*
X166756003Y-58830299D01*
X166750670Y-58840958D01*
X166745089Y-58851445D01*
X166739258Y-58861761D01*
X166733183Y-58871908D01*
X166726858Y-58881884D01*
X166720287Y-58891690D01*
X166713463Y-58901325D01*
X166706395Y-58910789D01*
X166699076Y-58920084D01*
X166691511Y-58929207D01*
X166683697Y-58938161D01*
X166675636Y-58946944D01*
X166667328Y-58955554D01*
X166658769Y-58963997D01*
X166649963Y-58972267D01*
X166640933Y-58980096D01*
X166631701Y-58987706D01*
X166622268Y-58995103D01*
X166612632Y-59002280D01*
X166602796Y-59009242D01*
X166592756Y-59015986D01*
X166582519Y-59022513D01*
X166572076Y-59028822D01*
X166561435Y-59034915D01*
X166550589Y-59040790D01*
X166539545Y-59046450D01*
X166528297Y-59051890D01*
X166516847Y-59057116D01*
X166505197Y-59062122D01*
X166493345Y-59066911D01*
X166481292Y-59071486D01*
X166469059Y-59075810D01*
X166456673Y-59079856D01*
X166444131Y-59083625D01*
X166431434Y-59087114D01*
X166418583Y-59090322D01*
X166405575Y-59093253D01*
X166392414Y-59095903D01*
X166379096Y-59098273D01*
X166362229Y-59100707D01*
X166351998Y-59102181D01*
X166324278Y-59104971D01*
X166295939Y-59106647D01*
X166266979Y-59107205D01*
X166237989Y-59105809D01*
X166209558Y-59103607D01*
X166181682Y-59100599D01*
X166154366Y-59096787D01*
X166127608Y-59092165D01*
X166101409Y-59086741D01*
X166075766Y-59080508D01*
X166050682Y-59073469D01*
X166038389Y-59069384D01*
X166026311Y-59065067D01*
X166014452Y-59060519D01*
X166002809Y-59055736D01*
X165991383Y-59050718D01*
X165980175Y-59045472D01*
X165969183Y-59039991D01*
X165958408Y-59034278D01*
X165947851Y-59028332D01*
X165937511Y-59022156D01*
X165927387Y-59015745D01*
X165917483Y-59009101D01*
X165907791Y-59002227D01*
X165898319Y-58995119D01*
X165889064Y-58987778D01*
X165880026Y-58980206D01*
X165871220Y-58972407D01*
X165862663Y-58964393D01*
X165854353Y-58956159D01*
X165846292Y-58947711D01*
X165838478Y-58939045D01*
X165830912Y-58930161D01*
X165823596Y-58921061D01*
X165816526Y-58911745D01*
X165809706Y-58902209D01*
X165803131Y-58892458D01*
X165796806Y-58882490D01*
X165790729Y-58872305D01*
X165784900Y-58861901D01*
X165779319Y-58851284D01*
X165773986Y-58840446D01*
X165768900Y-58829391D01*
X165764097Y-58817856D01*
X165759600Y-58806075D01*
X165755414Y-58794046D01*
X165751537Y-58781766D01*
X165747972Y-58769241D01*
X165744716Y-58756468D01*
X165741771Y-58743444D01*
X165739135Y-58730174D01*
X165736810Y-58716656D01*
X165734794Y-58702888D01*
X165733089Y-58688875D01*
X165731693Y-58674611D01*
X165730609Y-58660100D01*
X165729833Y-58645339D01*
X165729369Y-58630336D01*
X165729213Y-58615079D01*
X165729554Y-58593484D01*
X165730579Y-58572354D01*
X165732283Y-58551688D01*
X165734671Y-58531488D01*
X165737741Y-58511753D01*
X165741493Y-58492483D01*
X165745925Y-58473675D01*
X165751042Y-58455337D01*
X165756840Y-58437463D01*
X165763322Y-58420052D01*
X165770482Y-58403109D01*
X165778326Y-58386627D01*
X165786853Y-58370614D01*
X165796062Y-58355065D01*
X165805953Y-58339981D01*
X165816527Y-58325361D01*
X165827773Y-58311292D01*
X165839687Y-58297859D01*
X165852269Y-58285061D01*
X165865513Y-58272898D01*
X165879429Y-58261373D01*
X165894011Y-58250482D01*
X165909257Y-58240228D01*
X165925170Y-58230606D01*
X165941751Y-58221623D01*
X165958996Y-58213274D01*
X165976911Y-58205561D01*
X165995493Y-58198486D01*
X166014738Y-58192044D01*
X166034652Y-58186238D01*
X166055233Y-58181068D01*
X166076480Y-58176534D01*
X166076479Y-58343220D01*
X166064030Y-58346134D01*
X166051984Y-58349422D01*
X166040342Y-58353079D01*
X166029102Y-58357111D01*
X166018265Y-58361514D01*
X166007832Y-58366288D01*
X165997802Y-58371437D01*
X165988176Y-58376954D01*
X165978951Y-58382846D01*
X165970129Y-58389109D01*
X165961711Y-58395743D01*
X165953696Y-58402752D01*
X165946084Y-58410129D01*
X165938875Y-58417881D01*
X165932069Y-58426005D01*
X165925668Y-58434501D01*
X165919659Y-58443091D01*
X165914039Y-58451989D01*
X165908807Y-58461197D01*
X165903962Y-58470717D01*
X165899505Y-58480545D01*
X165895436Y-58490682D01*
X165891753Y-58501133D01*
X165888459Y-58511892D01*
X165885553Y-58522960D01*
X165883033Y-58534341D01*
X165880902Y-58546029D01*
X165879158Y-58558029D01*
X165877803Y-58570337D01*
X165876832Y-58582958D01*
X165876251Y-58595886D01*
X165876057Y-58609127D01*
X165876166Y-58619459D01*
X165876491Y-58629622D01*
X165877035Y-58639614D01*
X165877795Y-58649435D01*
X165878770Y-58659086D01*
X165879964Y-58668566D01*
X165881376Y-58677873D01*
X165883003Y-58687013D01*
X165884847Y-58695983D01*
X165886909Y-58704779D01*
X165889188Y-58713405D01*
X165891684Y-58721862D01*
X165894398Y-58730150D01*
X165897329Y-58738265D01*
X165900474Y-58746210D01*
X165903838Y-58753986D01*
X165907383Y-58761588D01*
X165911063Y-58769025D01*
X165914885Y-58776286D01*
X165918845Y-58783379D01*
X165922946Y-58790301D01*
X165927187Y-58797053D01*
X165931566Y-58803634D01*
X165936084Y-58810045D01*
X165940744Y-58816285D01*
X165945541Y-58822354D01*
X165950480Y-58828252D01*
X165955556Y-58833981D01*
X165960773Y-58839537D01*
X165966129Y-58844928D01*
X165971625Y-58850144D01*
X165977260Y-58855190D01*
X165983260Y-58860065D01*
X165989355Y-58864769D01*
X165995539Y-58869305D01*
X166001817Y-58873668D01*
X166008189Y-58877862D01*
X166014653Y-58881884D01*
X166021212Y-58885737D01*
X166027863Y-58889420D01*
X166034606Y-58892931D01*
X166041443Y-58896272D01*
X166048372Y-58899442D01*
X166055395Y-58902441D01*
X166062513Y-58905270D01*
X166069722Y-58907928D01*
X166077025Y-58910417D01*
X166084416Y-58912735D01*
X166099890Y-58916890D01*
X166115548Y-58920424D01*
X166131390Y-58923341D01*
X166147420Y-58925634D01*
X166163636Y-58927310D01*
X166180038Y-58928362D01*
X166196626Y-58928798D01*
X166213400Y-58928611D01*
X166362229Y-58928611D01*
X166369641Y-58928044D01*
X166376990Y-58927339D01*
X166384274Y-58926496D01*
X166391498Y-58925511D01*
X166398662Y-58924387D01*
X166405761Y-58923123D01*
X166412800Y-58921720D01*
X166419777Y-58920178D01*
X166426692Y-58918495D01*
X166433542Y-58916672D01*
X166440335Y-58914712D01*
X166447061Y-58912612D01*
X166453728Y-58910371D01*
X166460331Y-58907991D01*
X166466874Y-58905473D01*
X166473355Y-58902816D01*
X166479998Y-58900024D01*
X166486532Y-58897109D01*
X166492957Y-58894071D01*
X166499275Y-58890908D01*
X166505484Y-58887620D01*
X166511584Y-58884212D01*
X166517576Y-58880675D01*
X166523459Y-58877017D01*
X166529235Y-58873235D01*
X166534902Y-58869327D01*
X166540458Y-58865297D01*
X166545908Y-58861143D01*
X166551248Y-58856865D01*
X166556481Y-58852460D01*
X166561604Y-58847934D01*
X166566619Y-58843284D01*
X166571511Y-58838517D01*
X166576263Y-58833640D01*
X166580875Y-58828655D01*
X166585347Y-58823564D01*
X166589680Y-58818361D01*
X166593874Y-58813052D01*
X166597929Y-58807634D01*
X166601842Y-58802107D01*
X166605618Y-58796471D01*
X166609253Y-58790728D01*
X166612750Y-58784876D01*
X166616104Y-58778915D01*
X166619322Y-58772846D01*
X166622399Y-58766665D01*
X166625337Y-58760381D01*
X166628135Y-58753987D01*
X166631019Y-58747243D01*
X166633716Y-58740406D01*
X166636228Y-58733476D01*
X166638553Y-58726452D01*
X166640694Y-58719338D01*
X166642646Y-58712128D01*
X166644413Y-58704825D01*
X166645996Y-58697432D01*
X166647390Y-58689944D01*
X166648600Y-58682363D01*
X166649623Y-58674689D01*
X166650460Y-58666922D01*
X166651111Y-58659061D01*
X166651576Y-58651109D01*
X166651855Y-58643062D01*
X166651948Y-58634924D01*
X166651855Y-58627032D01*
X166651576Y-58619234D01*
X166651110Y-58611530D01*
X166650461Y-58603918D01*
X166649624Y-58596398D01*
X166648599Y-58588974D01*
X166647391Y-58581641D01*
X166645996Y-58574400D01*
X166644414Y-58567253D01*
X166642646Y-58560199D01*
X166640694Y-58553239D01*
X166638553Y-58546371D01*
X166636229Y-58539596D01*
X166633716Y-58532914D01*
X166631020Y-58526327D01*
X166628135Y-58519830D01*
X166625337Y-58513195D01*
X166622399Y-58506683D01*
X166619323Y-58500294D01*
X166616105Y-58494034D01*
X166612750Y-58487894D01*
X166609255Y-58481877D01*
X166605618Y-58475988D01*
X166601842Y-58470219D01*
X166597929Y-58464577D01*
X166593875Y-58459058D01*
X166589680Y-58453663D01*
X166585347Y-58448392D01*
X166580876Y-58443245D01*
X166576263Y-58438220D01*
X166571511Y-58433325D01*
X166566619Y-58428547D01*
X166561847Y-58423656D01*
X166556947Y-58418905D01*
X166551923Y-58414293D01*
X166546776Y-58409820D01*
X166541506Y-58405488D01*
X166536110Y-58401293D01*
X166530591Y-58397240D01*
X166524948Y-58393327D01*
X166519180Y-58389551D01*
X166513290Y-58385915D01*
X166507274Y-58382419D01*
X166501135Y-58379063D01*
X166494873Y-58375845D01*
X166488485Y-58372769D01*
X166481974Y-58369831D01*
X166475339Y-58367033D01*
X166468619Y-58364134D01*
X166461853Y-58361389D01*
X166455038Y-58358801D01*
X166448177Y-58356366D01*
X166441269Y-58354088D01*
X166434317Y-58351964D01*
X166427320Y-58349994D01*
X166420273Y-58348181D01*
X166413179Y-58346522D01*
X166406040Y-58345018D01*
X166398854Y-58343671D01*
X166391622Y-58342476D01*
X166384345Y-58341438D01*
X166377019Y-58340554D01*
X166369648Y-58339825D01*
X166362229Y-58339252D01*
X166362229Y-58928611D01*
X166213400Y-58928611D01*
X166213400Y-58160658D01*
X166236872Y-58160070D01*
X166260654Y-58160287D01*
G37*
G36*
X165971309Y-55300987D02*
G01*
X165751042Y-55300987D01*
X165751041Y-55080724D01*
X165971308Y-55080723D01*
X165971309Y-55300987D01*
G37*
G36*
X172553481Y-53369278D02*
G01*
X169719793Y-53369278D01*
X169719791Y-53031935D01*
X172553479Y-53031935D01*
X172553481Y-53369278D01*
G37*
G36*
X172553479Y-63251811D02*
G01*
X170604824Y-63878871D01*
X170604823Y-63886810D01*
X172553480Y-64549593D01*
X172553481Y-65426686D01*
X169719793Y-65426686D01*
X169719793Y-64843279D01*
X171708136Y-64843281D01*
X171708135Y-64835344D01*
X169719792Y-64140809D01*
X169719792Y-63660590D01*
X171727980Y-62966058D01*
X171727980Y-62958123D01*
X169719792Y-62958122D01*
X169719792Y-62374715D01*
X172553480Y-62374715D01*
X172553479Y-63251811D01*
G37*
G36*
X166776964Y-57325026D02*
G01*
X165921698Y-57604820D01*
X165921698Y-57608792D01*
X166776963Y-57896525D01*
X166776964Y-58085040D01*
X165751041Y-57704040D01*
X165751043Y-57523461D01*
X166776964Y-57148415D01*
X166776964Y-57325026D01*
G37*
G36*
X170505604Y-58189893D02*
G01*
X170482087Y-58193692D01*
X170459157Y-58198142D01*
X170436818Y-58203242D01*
X170415067Y-58208994D01*
X170393905Y-58215397D01*
X170373334Y-58222450D01*
X170353349Y-58230155D01*
X170333956Y-58238512D01*
X170315151Y-58247519D01*
X170296934Y-58257177D01*
X170279307Y-58267487D01*
X170262269Y-58278446D01*
X170245822Y-58290060D01*
X170229962Y-58302323D01*
X170214691Y-58315234D01*
X170200010Y-58328799D01*
X170186553Y-58342566D01*
X170173967Y-58357077D01*
X170162245Y-58372333D01*
X170151393Y-58388331D01*
X170141410Y-58405074D01*
X170132293Y-58422563D01*
X170124047Y-58440794D01*
X170116668Y-58459768D01*
X170110156Y-58479489D01*
X170104513Y-58499954D01*
X170099738Y-58521161D01*
X170095830Y-58543113D01*
X170092793Y-58565809D01*
X170090622Y-58589251D01*
X170089319Y-58613435D01*
X170088886Y-58638363D01*
X170089118Y-58654578D01*
X170089816Y-58670485D01*
X170090978Y-58686081D01*
X170092607Y-58701366D01*
X170094700Y-58716343D01*
X170097257Y-58731010D01*
X170100280Y-58745365D01*
X170103769Y-58759411D01*
X170107722Y-58773146D01*
X170112139Y-58786571D01*
X170117023Y-58799687D01*
X170122370Y-58812492D01*
X170128185Y-58824989D01*
X170134464Y-58837172D01*
X170141207Y-58849049D01*
X170148416Y-58860612D01*
X170155982Y-58871885D01*
X170163796Y-58882876D01*
X170171858Y-58893589D01*
X170180166Y-58904022D01*
X170188725Y-58914176D01*
X170197529Y-58924050D01*
X170206584Y-58933648D01*
X170215885Y-58942966D01*
X170225435Y-58952004D01*
X170235235Y-58960761D01*
X170245279Y-58969243D01*
X170255572Y-58977443D01*
X170266114Y-58985364D01*
X170276905Y-58993006D01*
X170287943Y-59000371D01*
X170299228Y-59007457D01*
X170323351Y-59019921D01*
X170348095Y-59031518D01*
X170373457Y-59042245D01*
X170399441Y-59052106D01*
X170426043Y-59061097D01*
X170453266Y-59069219D01*
X170481109Y-59076474D01*
X170509573Y-59082862D01*
X170538285Y-59088445D01*
X170566873Y-59093279D01*
X170595335Y-59097375D01*
X170623674Y-59100722D01*
X170651890Y-59103327D01*
X170679982Y-59105186D01*
X170707950Y-59106302D01*
X170735792Y-59106675D01*
X170764565Y-59106304D01*
X170793338Y-59105186D01*
X170822112Y-59103327D01*
X170850885Y-59100722D01*
X170879658Y-59097374D01*
X170908432Y-59093279D01*
X170937205Y-59088445D01*
X170965981Y-59082862D01*
X170980769Y-59079762D01*
X170995372Y-59076414D01*
X171009791Y-59072818D01*
X171024021Y-59068973D01*
X171038068Y-59064880D01*
X171051928Y-59060539D01*
X171065600Y-59055949D01*
X171079088Y-59051113D01*
X171092389Y-59046028D01*
X171105505Y-59040695D01*
X171118435Y-59035115D01*
X171131180Y-59029284D01*
X171143736Y-59023208D01*
X171156107Y-59016882D01*
X171168292Y-59010310D01*
X171180291Y-59003488D01*
X171192539Y-58995922D01*
X171204476Y-58988109D01*
X171216103Y-58980048D01*
X171227420Y-58971738D01*
X171238427Y-58963180D01*
X171249125Y-58954375D01*
X171259511Y-58945322D01*
X171269589Y-58936018D01*
X171279355Y-58926469D01*
X171288812Y-58916672D01*
X171297958Y-58906625D01*
X171306796Y-58896333D01*
X171315323Y-58885790D01*
X171323539Y-58875000D01*
X171331446Y-58863962D01*
X171339041Y-58852674D01*
X171346731Y-58841096D01*
X171353925Y-58829172D01*
X171360622Y-58816910D01*
X171366823Y-58804308D01*
X171372527Y-58791363D01*
X171377736Y-58778075D01*
X171382450Y-58764449D01*
X171386666Y-58750480D01*
X171390387Y-58736171D01*
X171393612Y-58721521D01*
X171396340Y-58706530D01*
X171398572Y-58691197D01*
X171400309Y-58675524D01*
X171401551Y-58659508D01*
X171402293Y-58643154D01*
X171402542Y-58626457D01*
X171402197Y-58604183D01*
X171401161Y-58582505D01*
X171399437Y-58561426D01*
X171397023Y-58540943D01*
X171393918Y-58521055D01*
X171390123Y-58501766D01*
X171385639Y-58483075D01*
X171380465Y-58464978D01*
X171374601Y-58447480D01*
X171368048Y-58430577D01*
X171360803Y-58414272D01*
X171352870Y-58398563D01*
X171344246Y-58383450D01*
X171334933Y-58368938D01*
X171324930Y-58355020D01*
X171314236Y-58341699D01*
X171302853Y-58328976D01*
X171290781Y-58316847D01*
X171278018Y-58305319D01*
X171264565Y-58294385D01*
X171250422Y-58284047D01*
X171235591Y-58274308D01*
X171220069Y-58265165D01*
X171203856Y-58256619D01*
X171186953Y-58248669D01*
X171169361Y-58241318D01*
X171151080Y-58234562D01*
X171132109Y-58228404D01*
X171112447Y-58222842D01*
X171092097Y-58217876D01*
X171071054Y-58213510D01*
X171049322Y-58209738D01*
X171049323Y-57658082D01*
X171073910Y-57659850D01*
X171098064Y-57662176D01*
X171121783Y-57665058D01*
X171145069Y-57668500D01*
X171167920Y-57672500D01*
X171190336Y-57677058D01*
X171212320Y-57682174D01*
X171233870Y-57687846D01*
X171254984Y-57694081D01*
X171275665Y-57700870D01*
X171295913Y-57708218D01*
X171315726Y-57716125D01*
X171335103Y-57724589D01*
X171354048Y-57733611D01*
X171372559Y-57743193D01*
X171390635Y-57753332D01*
X171408790Y-57763952D01*
X171426540Y-57774974D01*
X171443888Y-57786400D01*
X171460832Y-57798228D01*
X171477375Y-57810460D01*
X171493512Y-57823094D01*
X171509249Y-57836133D01*
X171524581Y-57849573D01*
X171539510Y-57863418D01*
X171554036Y-57877665D01*
X171568161Y-57892314D01*
X171581879Y-57907368D01*
X171595195Y-57922825D01*
X171608110Y-57938684D01*
X171620621Y-57954949D01*
X171632730Y-57971613D01*
X171644929Y-57988139D01*
X171656727Y-58004976D01*
X171668122Y-58022123D01*
X171679114Y-58039578D01*
X171689703Y-58057344D01*
X171699888Y-58075419D01*
X171709670Y-58093807D01*
X171719049Y-58112505D01*
X171728025Y-58131510D01*
X171736599Y-58150827D01*
X171744769Y-58170455D01*
X171752535Y-58190390D01*
X171759899Y-58210636D01*
X171766860Y-58231195D01*
X171773417Y-58252061D01*
X171779572Y-58273236D01*
X171790734Y-58315159D01*
X171800408Y-58357574D01*
X171808594Y-58400487D01*
X171815292Y-58443895D01*
X171820500Y-58487797D01*
X171824221Y-58532199D01*
X171826455Y-58577094D01*
X171827197Y-58622486D01*
X171826872Y-58653526D01*
X171825896Y-58684128D01*
X171824268Y-58714296D01*
X171821988Y-58744032D01*
X171819059Y-58773331D01*
X171815477Y-58802198D01*
X171811245Y-58830632D01*
X171806361Y-58858630D01*
X171800828Y-58886193D01*
X171794642Y-58913322D01*
X171787806Y-58940018D01*
X171780318Y-58966281D01*
X171772177Y-58992108D01*
X171763387Y-59017502D01*
X171753946Y-59042463D01*
X171743854Y-59066989D01*
X171733173Y-59091063D01*
X171721963Y-59114674D01*
X171710228Y-59137822D01*
X171697965Y-59160503D01*
X171685175Y-59182716D01*
X171671858Y-59204468D01*
X171658014Y-59225752D01*
X171643645Y-59246573D01*
X171628744Y-59266930D01*
X171613319Y-59286820D01*
X171597367Y-59306244D01*
X171580887Y-59325204D01*
X171563880Y-59343701D01*
X171546347Y-59361730D01*
X171528285Y-59379296D01*
X171509699Y-59396395D01*
X171491111Y-59413013D01*
X171472057Y-59429137D01*
X171452538Y-59444762D01*
X171432556Y-59459894D01*
X171412107Y-59474527D01*
X171391193Y-59488667D01*
X171369815Y-59502311D01*
X171347971Y-59515456D01*
X171325662Y-59528108D01*
X171302888Y-59540261D01*
X171279649Y-59551920D01*
X171255946Y-59563082D01*
X171231777Y-59573748D01*
X171207143Y-59583919D01*
X171182043Y-59593591D01*
X171156479Y-59602768D01*
X171105319Y-59618581D01*
X171053045Y-59632286D01*
X170999651Y-59643882D01*
X170945143Y-59653371D01*
X170889518Y-59660750D01*
X170832779Y-59666020D01*
X170774921Y-59669183D01*
X170715947Y-59670238D01*
X170687314Y-59669943D01*
X170658959Y-59669061D01*
X170630883Y-59667587D01*
X170603086Y-59665525D01*
X170575568Y-59662875D01*
X170548331Y-59659634D01*
X170521371Y-59655805D01*
X170494690Y-59651388D01*
X170468286Y-59646378D01*
X170442166Y-59640782D01*
X170416322Y-59634597D01*
X170390758Y-59627823D01*
X170365473Y-59620457D01*
X170340468Y-59612504D01*
X170315740Y-59603964D01*
X170291292Y-59594832D01*
X170267681Y-59585173D01*
X170244473Y-59575050D01*
X170221667Y-59564462D01*
X170199267Y-59553407D01*
X170177267Y-59541891D01*
X170155672Y-59529907D01*
X170134479Y-59517458D01*
X170113690Y-59504543D01*
X170093304Y-59491165D01*
X170073321Y-59477320D01*
X170053740Y-59463009D01*
X170034564Y-59448236D01*
X170015789Y-59432998D01*
X169997418Y-59417293D01*
X169979450Y-59401123D01*
X169961885Y-59384489D01*
X169944754Y-59367404D01*
X169928089Y-59349886D01*
X169911888Y-59331932D01*
X169896152Y-59313546D01*
X169880883Y-59294726D01*
X169866079Y-59275471D01*
X169851737Y-59255783D01*
X169837860Y-59235660D01*
X169824451Y-59215103D01*
X169811507Y-59194110D01*
X169799027Y-59172688D01*
X169787013Y-59150828D01*
X169775463Y-59128534D01*
X169764378Y-59105809D01*
X169753758Y-59082645D01*
X169743604Y-59059051D01*
X169734473Y-59034602D01*
X169725930Y-59009876D01*
X169717978Y-58984869D01*
X169710613Y-58959584D01*
X169703839Y-58934019D01*
X169697653Y-58908174D01*
X169692057Y-58882054D01*
X169687050Y-58855651D01*
X169682632Y-58828971D01*
X169678802Y-58802012D01*
X169675562Y-58774772D01*
X169672911Y-58747255D01*
X169670849Y-58719460D01*
X169669377Y-58691383D01*
X169668492Y-58663029D01*
X169668198Y-58634393D01*
X169669035Y-58583868D01*
X169671546Y-58534493D01*
X169675732Y-58486264D01*
X169681593Y-58439182D01*
X169689127Y-58393247D01*
X169698336Y-58348457D01*
X169709218Y-58304817D01*
X169721776Y-58262325D01*
X169736007Y-58220978D01*
X169751914Y-58180779D01*
X169769494Y-58141727D01*
X169788749Y-58103821D01*
X169809678Y-58067065D01*
X169832281Y-58031455D01*
X169856558Y-57996992D01*
X169882511Y-57963676D01*
X169910061Y-57931739D01*
X169939127Y-57901416D01*
X169969714Y-57872706D01*
X170001820Y-57845604D01*
X170035448Y-57820118D01*
X170070591Y-57796243D01*
X170107256Y-57773982D01*
X170145442Y-57753331D01*
X170185143Y-57734293D01*
X170226366Y-57716870D01*
X170269107Y-57701057D01*
X170313366Y-57686855D01*
X170359148Y-57674265D01*
X170406447Y-57663290D01*
X170455267Y-57653927D01*
X170505604Y-57646176D01*
X170505604Y-58189893D01*
G37*
M02*
