M48
; DRILL file {KiCad 8.0.6} date 2024-12-01T12:36:49+0100
; FORMAT={-:-/ absolute / metric / decimal}
; #@! TF.CreationDate,2024-12-01T12:36:49+01:00
; #@! TF.GenerationSoftware,Kicad,Pcbnew,8.0.6
; #@! TF.FileFunction,Plated,1,2,PTH
FMAT,2
METRIC
; #@! TA.AperFunction,Plated,PTH,ViaDrill
T1C0.300
; #@! TA.AperFunction,Plated,PTH,ComponentDrill
T2C1.000
%
G90
G05
T1
X159.407Y-51.596
X159.407Y-54.136
X159.407Y-56.676
X159.407Y-59.216
X159.407Y-61.756
X159.407Y-64.296
X159.41Y-49.448
X160.846Y-52.053
X160.846Y-57.15
X160.883Y-59.68
X160.883Y-62.21
X160.92Y-54.62
X162.632Y-64.554
X165.906Y-55.848
X167.027Y-56.676
X167.027Y-64.296
X167.03Y-49.448
X169.567Y-51.596
X169.567Y-61.756
X169.567Y-64.296
X169.57Y-49.448
X172.107Y-51.596
X172.107Y-54.136
X172.107Y-59.216
X172.107Y-61.756
X172.107Y-64.296
X172.11Y-49.448
X172.343Y-57.001
X174.647Y-56.676
X174.647Y-59.216
X174.647Y-61.756
X174.647Y-64.296
X174.65Y-49.448
T2
X161.627Y-50.8
X161.627Y-53.34
X161.627Y-55.88
X161.627Y-58.42
X161.627Y-60.96
X161.627Y-63.5
X164.167Y-50.8
X164.167Y-53.34
X164.167Y-55.88
X164.167Y-58.42
X164.167Y-60.96
X164.167Y-63.5
M30
