%TF.GenerationSoftware,KiCad,Pcbnew,8.0.6*%
%TF.CreationDate,2024-12-01T12:36:53+01:00*%
%TF.ProjectId,daughter_board,64617567-6874-4657-925f-626f6172642e,rev?*%
%TF.SameCoordinates,Original*%
%TF.FileFunction,Copper,L1,Top*%
%TF.FilePolarity,Positive*%
%FSLAX46Y46*%
G04 Gerber Fmt 4.6, Leading zero omitted, Abs format (unit mm)*
G04 Created by KiCad (PCBNEW 8.0.6) date 2024-12-01 12:36:53*
%MOMM*%
%LPD*%
G01*
G04 APERTURE LIST*
G04 Aperture macros list*
%AMRoundRect*
0 Rectangle with rounded corners*
0 $1 Rounding radius*
0 $2 $3 $4 $5 $6 $7 $8 $9 X,Y pos of 4 corners*
0 Add a 4 corners polygon primitive as box body*
4,1,4,$2,$3,$4,$5,$6,$7,$8,$9,$2,$3,0*
0 Add four circle primitives for the rounded corners*
1,1,$1+$1,$2,$3*
1,1,$1+$1,$4,$5*
1,1,$1+$1,$6,$7*
1,1,$1+$1,$8,$9*
0 Add four rect primitives between the rounded corners*
20,1,$1+$1,$2,$3,$4,$5,0*
20,1,$1+$1,$4,$5,$6,$7,0*
20,1,$1+$1,$6,$7,$8,$9,0*
20,1,$1+$1,$8,$9,$2,$3,0*%
G04 Aperture macros list end*
%TA.AperFunction,SMDPad,CuDef*%
%ADD10RoundRect,0.237500X-0.371231X0.035355X0.035355X-0.371231X0.371231X-0.035355X-0.035355X0.371231X0*%
%TD*%
%TA.AperFunction,SMDPad,CuDef*%
%ADD11RoundRect,0.250000X-0.750000X0.250000X-0.750000X-0.250000X0.750000X-0.250000X0.750000X0.250000X0*%
%TD*%
%TA.AperFunction,SMDPad,CuDef*%
%ADD12R,0.650013X0.300000*%
%TD*%
%TA.AperFunction,SMDPad,CuDef*%
%ADD13R,1.150013X0.300000*%
%TD*%
%TA.AperFunction,ComponentPad*%
%ADD14R,1.700000X1.700000*%
%TD*%
%TA.AperFunction,ComponentPad*%
%ADD15O,1.700000X1.700000*%
%TD*%
%TA.AperFunction,ViaPad*%
%ADD16C,0.700000*%
%TD*%
%TA.AperFunction,Conductor*%
%ADD17C,0.299000*%
%TD*%
%TA.AperFunction,Conductor*%
%ADD18C,0.400000*%
%TD*%
G04 APERTURE END LIST*
D10*
%TO.P,FB1,1*%
%TO.N,+3.3V*%
X167147645Y-54819712D03*
%TO.P,FB1,2*%
%TO.N,+3.3VA*%
X168385081Y-56057148D03*
%TD*%
D11*
%TO.P,REF\u002A\u002A,1*%
%TO.N,GND*%
X174910107Y-51568902D03*
%TD*%
D12*
%TO.P,J1,1,1*%
%TO.N,/SELECT3*%
X171194954Y-54494921D03*
%TO.P,J1,2,2*%
%TO.N,/SELECT2*%
X171194954Y-54995049D03*
%TO.P,J1,3,3*%
%TO.N,/SELECT1*%
X171194954Y-55494921D03*
%TO.P,J1,4,4*%
%TO.N,/SELECT0*%
X171194954Y-55995049D03*
%TO.P,J1,5,5*%
%TO.N,+3.3VA*%
X171194954Y-56494921D03*
%TO.P,J1,6,6*%
%TO.N,GND*%
X171194955Y-56995049D03*
%TO.P,J1,7,7*%
%TO.N,/ADC4*%
X171194955Y-57494921D03*
%TO.P,J1,8,8*%
%TO.N,/ADC3*%
X171194954Y-57995049D03*
%TO.P,J1,9,9*%
%TO.N,/ADC2*%
X171194954Y-58494921D03*
%TO.P,J1,10,10*%
%TO.N,/ADC1*%
X171194954Y-58995049D03*
%TO.P,J1,11,11*%
%TO.N,/ADC0*%
X171194954Y-59494921D03*
%TO.P,J1,12,12*%
%TO.N,GND*%
X171194954Y-59995049D03*
D13*
%TO.P,J1,13,13*%
X174004962Y-60879986D03*
%TO.P,J1,14,14*%
X174004962Y-53609984D03*
%TD*%
D14*
%TO.P,J2,1,Pin_1*%
%TO.N,GND*%
X164167208Y-63499952D03*
D15*
%TO.P,J2,2,Pin_2*%
%TO.N,/ADC0*%
X161627208Y-63499952D03*
%TO.P,J2,3,Pin_3*%
%TO.N,/ADC1*%
X164167208Y-60959952D03*
%TO.P,J2,4,Pin_4*%
%TO.N,/ADC2*%
X161627208Y-60959952D03*
%TO.P,J2,5,Pin_5*%
%TO.N,/ADC3*%
X164167208Y-58419953D03*
%TO.P,J2,6,Pin_6*%
%TO.N,/ADC4*%
X161627208Y-58419952D03*
%TO.P,J2,7,Pin_7*%
%TO.N,GND*%
X164167208Y-55879952D03*
%TO.P,J2,8,Pin_8*%
%TO.N,+3.3V*%
X161627208Y-55879952D03*
%TO.P,J2,9,Pin_9*%
%TO.N,/SELECT0*%
X164167208Y-53339952D03*
%TO.P,J2,10,Pin_10*%
%TO.N,/SELECT1*%
X161627208Y-53339952D03*
%TO.P,J2,11,Pin_11*%
%TO.N,/SELECT2*%
X164167208Y-50799952D03*
%TO.P,J2,12,Pin_12*%
%TO.N,/SELECT3*%
X161627208Y-50799952D03*
%TD*%
D16*
%TO.N,GND*%
X172107201Y-64296282D03*
X165906013Y-55847707D03*
X167029658Y-49448103D03*
X174647201Y-56676282D03*
X160883068Y-62210104D03*
X172342824Y-57001124D03*
X169567201Y-61756282D03*
X167027201Y-56676282D03*
X167027201Y-64296282D03*
X172107201Y-51596282D03*
X172107201Y-54136282D03*
X160920275Y-54619876D03*
X159407201Y-51596282D03*
X160845861Y-52052593D03*
X172109658Y-49448103D03*
X169567201Y-64296282D03*
X159407201Y-54136282D03*
X160845861Y-57149952D03*
X169567201Y-51596282D03*
X159407201Y-61756282D03*
X174647201Y-59216282D03*
X159409658Y-49448103D03*
X160883068Y-59680028D03*
X169569658Y-49448103D03*
X172107201Y-61756282D03*
X159407201Y-59216282D03*
X159407201Y-64296282D03*
X159407201Y-56676282D03*
X162631797Y-64554145D03*
X174647201Y-64296282D03*
X172107201Y-59216282D03*
X174649658Y-49448103D03*
X174647201Y-61756282D03*
%TD*%
D17*
%TO.N,/SELECT1*%
X170402059Y-55494921D02*
X166996938Y-52089800D01*
X171194954Y-55494921D02*
X170402059Y-55494921D01*
X166996938Y-52089800D02*
X162877360Y-52089800D01*
X162877360Y-52089800D02*
X161627208Y-53339952D01*
%TO.N,/ADC2*%
X171194954Y-58494921D02*
X168244537Y-58494921D01*
X162907132Y-59680028D02*
X161627208Y-60959952D01*
X168244537Y-58494921D02*
X167059430Y-59680028D01*
X167059430Y-59680028D02*
X162907132Y-59680028D01*
%TO.N,/SELECT3*%
X162941850Y-49485310D02*
X161627208Y-50799952D01*
X170813443Y-54494921D02*
X165803832Y-49485310D01*
X171194954Y-54494921D02*
X170813443Y-54494921D01*
X165803832Y-49485310D02*
X162941850Y-49485310D01*
%TO.N,/ADC3*%
X166645190Y-58419953D02*
X164167208Y-58419953D01*
X171194954Y-57995049D02*
X167070094Y-57995049D01*
X167070094Y-57995049D02*
X166645190Y-58419953D01*
%TO.N,+3.3VA*%
X171194954Y-56494921D02*
X168822854Y-56494921D01*
X168822854Y-56494921D02*
X168385081Y-56057148D01*
%TO.N,/ADC1*%
X169269896Y-58995049D02*
X167304993Y-60959952D01*
X171194954Y-58995049D02*
X169269896Y-58995049D01*
X167304993Y-60959952D02*
X164167208Y-60959952D01*
%TO.N,/ADC0*%
X170183890Y-59494921D02*
X167468707Y-62210104D01*
X171194954Y-59494921D02*
X170183890Y-59494921D01*
X162917056Y-62210104D02*
X161627208Y-63499952D01*
X167468707Y-62210104D02*
X162917056Y-62210104D01*
%TO.N,/SELECT0*%
X171194954Y-55995049D02*
X170196495Y-55995049D01*
X170196495Y-55995049D02*
X167541398Y-53339952D01*
X167541398Y-53339952D02*
X164167208Y-53339952D01*
%TO.N,/SELECT2*%
X170607879Y-54995049D02*
X166412782Y-50799952D01*
X166412782Y-50799952D02*
X164167208Y-50799952D01*
X171194954Y-54995049D02*
X170607879Y-54995049D01*
%TO.N,/ADC4*%
X165719978Y-57149952D02*
X162897208Y-57149952D01*
X162897208Y-57149952D02*
X161627208Y-58419952D01*
X166064947Y-57494921D02*
X165719978Y-57149952D01*
X171194955Y-57494921D02*
X166064947Y-57494921D01*
D18*
%TO.N,+3.3V*%
X162887284Y-54619876D02*
X166947809Y-54619876D01*
X161627208Y-55879952D02*
X162887284Y-54619876D01*
X166947809Y-54619876D02*
X167147645Y-54819712D01*
%TD*%
%TA.AperFunction,Conductor*%
%TO.N,GND*%
G36*
X175516160Y-48187198D02*
G01*
X175602029Y-48189340D01*
X175623467Y-48191722D01*
X175793404Y-48225523D01*
X175817042Y-48232693D01*
X175975643Y-48298386D01*
X175975658Y-48298392D01*
X175997433Y-48310030D01*
X176140201Y-48405420D01*
X176159281Y-48421079D01*
X176219988Y-48481783D01*
X176280688Y-48542481D01*
X176296357Y-48561573D01*
X176391744Y-48704320D01*
X176403388Y-48726103D01*
X176469093Y-48884715D01*
X176476264Y-48908351D01*
X176510068Y-49078262D01*
X176512452Y-49099757D01*
X176514559Y-49185610D01*
X176514597Y-49188701D01*
X176514597Y-65185754D01*
X176514566Y-65188554D01*
X176512657Y-65274439D01*
X176510267Y-65296218D01*
X176476492Y-65466036D01*
X176469322Y-65489675D01*
X176403605Y-65648332D01*
X176391960Y-65670117D01*
X176296554Y-65812898D01*
X176280883Y-65831993D01*
X176159446Y-65953422D01*
X176140350Y-65969092D01*
X175997562Y-66064491D01*
X175975775Y-66076135D01*
X175817115Y-66141841D01*
X175793476Y-66149010D01*
X175623616Y-66182782D01*
X175601917Y-66185168D01*
X175519274Y-66187052D01*
X175516043Y-66187126D01*
X175513174Y-66187159D01*
X158515999Y-66187159D01*
X158513172Y-66187127D01*
X158508074Y-66187012D01*
X158427306Y-66185199D01*
X158405553Y-66182810D01*
X158281778Y-66158189D01*
X158235724Y-66149028D01*
X158212091Y-66141859D01*
X158147318Y-66115028D01*
X158053439Y-66076140D01*
X158031655Y-66064496D01*
X157914103Y-65985947D01*
X157888870Y-65969086D01*
X157869778Y-65953417D01*
X157748350Y-65831983D01*
X157732686Y-65812896D01*
X157637282Y-65670106D01*
X157625639Y-65648322D01*
X157559926Y-65489665D01*
X157552759Y-65466035D01*
X157518977Y-65296168D01*
X157516591Y-65274484D01*
X157514629Y-65188554D01*
X157514597Y-65185725D01*
X157514597Y-50799948D01*
X160571625Y-50799948D01*
X160571625Y-50799955D01*
X160591906Y-51005879D01*
X160651976Y-51203906D01*
X160690468Y-51275920D01*
X160749523Y-51386402D01*
X160880798Y-51546362D01*
X161040758Y-51677637D01*
X161223254Y-51775184D01*
X161277334Y-51791588D01*
X161336715Y-51830502D01*
X161365631Y-51895343D01*
X161366759Y-51912163D01*
X161366759Y-52227740D01*
X161346757Y-52295861D01*
X161293101Y-52342354D01*
X161277334Y-52348315D01*
X161223259Y-52364718D01*
X161223251Y-52364721D01*
X161040760Y-52462265D01*
X160880798Y-52593542D01*
X160749521Y-52753504D01*
X160651976Y-52935997D01*
X160591906Y-53134024D01*
X160571625Y-53339948D01*
X160571625Y-53339955D01*
X160591906Y-53545879D01*
X160651976Y-53743906D01*
X160697793Y-53829624D01*
X160749523Y-53926402D01*
X160880798Y-54086362D01*
X161040758Y-54217637D01*
X161223254Y-54315184D01*
X161277334Y-54331588D01*
X161336715Y-54370502D01*
X161365631Y-54435343D01*
X161366759Y-54452163D01*
X161366759Y-54767740D01*
X161346757Y-54835861D01*
X161293101Y-54882354D01*
X161277334Y-54888315D01*
X161223259Y-54904718D01*
X161223251Y-54904721D01*
X161040760Y-55002265D01*
X160880798Y-55133542D01*
X160749521Y-55293504D01*
X160651976Y-55475997D01*
X160591906Y-55674024D01*
X160571625Y-55879948D01*
X160571625Y-55879955D01*
X160591906Y-56085879D01*
X160651976Y-56283906D01*
X160722563Y-56415965D01*
X160749523Y-56466402D01*
X160880798Y-56626362D01*
X161040758Y-56757637D01*
X161223254Y-56855184D01*
X161421274Y-56915252D01*
X161421278Y-56915252D01*
X161421280Y-56915253D01*
X161627205Y-56935535D01*
X161627208Y-56935535D01*
X161627211Y-56935535D01*
X161833135Y-56915253D01*
X161833136Y-56915252D01*
X161833142Y-56915252D01*
X162031162Y-56855184D01*
X162213658Y-56757637D01*
X162373618Y-56626362D01*
X162504893Y-56466402D01*
X162602440Y-56283906D01*
X162662508Y-56085886D01*
X162682791Y-55879952D01*
X162677408Y-55825302D01*
X162671254Y-55762815D01*
X162684482Y-55693062D01*
X162733322Y-55641534D01*
X162796647Y-55624465D01*
X162976854Y-55624465D01*
X162995541Y-55629952D01*
X163734196Y-55629952D01*
X163701283Y-55686959D01*
X163667208Y-55814126D01*
X163667208Y-55945778D01*
X163701283Y-56072945D01*
X163734196Y-56129952D01*
X163043737Y-56129952D01*
X163091205Y-56296788D01*
X163091208Y-56296796D01*
X163186125Y-56487415D01*
X163269649Y-56598020D01*
X163294739Y-56664436D01*
X163279939Y-56733873D01*
X163229948Y-56784285D01*
X163169099Y-56799952D01*
X162943286Y-56799952D01*
X162851129Y-56799952D01*
X162844117Y-56801831D01*
X162772322Y-56821067D01*
X162772323Y-56821068D01*
X162762114Y-56823803D01*
X162682304Y-56869881D01*
X162682301Y-56869883D01*
X162649720Y-56902465D01*
X162617138Y-56935047D01*
X162617136Y-56935049D01*
X162362496Y-57189689D01*
X162143108Y-57409077D01*
X162080796Y-57443102D01*
X162017438Y-57440556D01*
X161833135Y-57384650D01*
X161627211Y-57364369D01*
X161627205Y-57364369D01*
X161421280Y-57384650D01*
X161223253Y-57444720D01*
X161040760Y-57542265D01*
X160880798Y-57673542D01*
X160749521Y-57833504D01*
X160651976Y-58015997D01*
X160591906Y-58214024D01*
X160571625Y-58419948D01*
X160571625Y-58419955D01*
X160591906Y-58625879D01*
X160651976Y-58823906D01*
X160740142Y-58988853D01*
X160749523Y-59006402D01*
X160880798Y-59166362D01*
X161040758Y-59297637D01*
X161223254Y-59395184D01*
X161277334Y-59411588D01*
X161336715Y-59450502D01*
X161365631Y-59515343D01*
X161366759Y-59532163D01*
X161366759Y-59847740D01*
X161346757Y-59915861D01*
X161293101Y-59962354D01*
X161277334Y-59968315D01*
X161223259Y-59984718D01*
X161223251Y-59984721D01*
X161040760Y-60082265D01*
X160880798Y-60213542D01*
X160749521Y-60373504D01*
X160651976Y-60555997D01*
X160591906Y-60754024D01*
X160571625Y-60959948D01*
X160571625Y-60959955D01*
X160591906Y-61165879D01*
X160591907Y-61165885D01*
X160591908Y-61165886D01*
X160651976Y-61363906D01*
X160749523Y-61546402D01*
X160880798Y-61706362D01*
X161040758Y-61837637D01*
X161223254Y-61935184D01*
X161277334Y-61951588D01*
X161336715Y-61990502D01*
X161365631Y-62055343D01*
X161366759Y-62072163D01*
X161366759Y-62387740D01*
X161346757Y-62455861D01*
X161293101Y-62502354D01*
X161277334Y-62508315D01*
X161223259Y-62524718D01*
X161223251Y-62524721D01*
X161040760Y-62622265D01*
X160880798Y-62753542D01*
X160749521Y-62913504D01*
X160651976Y-63095997D01*
X160591906Y-63294024D01*
X160571625Y-63499948D01*
X160571625Y-63499955D01*
X160591906Y-63705879D01*
X160591907Y-63705885D01*
X160591908Y-63705886D01*
X160651976Y-63903906D01*
X160749523Y-64086402D01*
X160880798Y-64246362D01*
X161040758Y-64377637D01*
X161223254Y-64475184D01*
X161421274Y-64535252D01*
X161421278Y-64535252D01*
X161421280Y-64535253D01*
X161627205Y-64555535D01*
X161627208Y-64555535D01*
X161627211Y-64555535D01*
X161833135Y-64535253D01*
X161833136Y-64535252D01*
X161833142Y-64535252D01*
X162031162Y-64475184D01*
X162213658Y-64377637D01*
X162373618Y-64246362D01*
X162504893Y-64086402D01*
X162602440Y-63903906D01*
X162662508Y-63705886D01*
X162682791Y-63499952D01*
X162676308Y-63434126D01*
X162671987Y-63390250D01*
X162685216Y-63320496D01*
X162734056Y-63268968D01*
X162797380Y-63251900D01*
X163148252Y-63251900D01*
X163154438Y-63249970D01*
X163156555Y-63249952D01*
X163734196Y-63249952D01*
X163701283Y-63306959D01*
X163667208Y-63434126D01*
X163667208Y-63565778D01*
X163701283Y-63692945D01*
X163734196Y-63749952D01*
X163018208Y-63749952D01*
X163018208Y-64394594D01*
X163021108Y-64419592D01*
X163066261Y-64521854D01*
X163066262Y-64521856D01*
X163145303Y-64600897D01*
X163145305Y-64600898D01*
X163247567Y-64646051D01*
X163247566Y-64646051D01*
X163272565Y-64648951D01*
X163272567Y-64648952D01*
X163917208Y-64648952D01*
X163917208Y-63932964D01*
X163974215Y-63965877D01*
X164101382Y-63999952D01*
X164233034Y-63999952D01*
X164360201Y-63965877D01*
X164417208Y-63932964D01*
X164417208Y-64648952D01*
X165061849Y-64648952D01*
X165061850Y-64648951D01*
X165086848Y-64646051D01*
X165189110Y-64600898D01*
X165189112Y-64600897D01*
X165268153Y-64521856D01*
X165268154Y-64521854D01*
X165313307Y-64419592D01*
X165316207Y-64394594D01*
X165316208Y-64394592D01*
X165316208Y-63749952D01*
X164600220Y-63749952D01*
X164633133Y-63692945D01*
X164667208Y-63565778D01*
X164667208Y-63434126D01*
X164633133Y-63306959D01*
X164600220Y-63249952D01*
X165316208Y-63249952D01*
X165316208Y-62686104D01*
X165336210Y-62617983D01*
X165389866Y-62571490D01*
X165442208Y-62560104D01*
X167514784Y-62560104D01*
X167514786Y-62560104D01*
X167603802Y-62536252D01*
X167623776Y-62524720D01*
X167683612Y-62490174D01*
X167748777Y-62425009D01*
X167759142Y-62414644D01*
X167759148Y-62414635D01*
X169099157Y-61074628D01*
X173130955Y-61074628D01*
X173133855Y-61099626D01*
X173179008Y-61201888D01*
X173179009Y-61201890D01*
X173258050Y-61280931D01*
X173258052Y-61280932D01*
X173360314Y-61326085D01*
X173360313Y-61326085D01*
X173385312Y-61328985D01*
X173385314Y-61328986D01*
X173854962Y-61328986D01*
X174154962Y-61328986D01*
X174624610Y-61328986D01*
X174624611Y-61328985D01*
X174649609Y-61326085D01*
X174751871Y-61280932D01*
X174751873Y-61280931D01*
X174830914Y-61201890D01*
X174830915Y-61201888D01*
X174876068Y-61099626D01*
X174878968Y-61074628D01*
X174878969Y-61074626D01*
X174878969Y-61029986D01*
X174154962Y-61029986D01*
X174154962Y-61328986D01*
X173854962Y-61328986D01*
X173854962Y-61029986D01*
X173130955Y-61029986D01*
X173130955Y-61074628D01*
X169099157Y-61074628D01*
X169488442Y-60685343D01*
X173130955Y-60685343D01*
X173130955Y-60729986D01*
X173854962Y-60729986D01*
X174154962Y-60729986D01*
X174878969Y-60729986D01*
X174878969Y-60685345D01*
X174878968Y-60685343D01*
X174876068Y-60660345D01*
X174830915Y-60558083D01*
X174830914Y-60558081D01*
X174751873Y-60479040D01*
X174751871Y-60479039D01*
X174649609Y-60433886D01*
X174649610Y-60433886D01*
X174624611Y-60430986D01*
X174154962Y-60430986D01*
X174154962Y-60729986D01*
X173854962Y-60729986D01*
X173854962Y-60430986D01*
X173385312Y-60430986D01*
X173360314Y-60433886D01*
X173258052Y-60479039D01*
X173258050Y-60479040D01*
X173179009Y-60558081D01*
X173179008Y-60558083D01*
X173133855Y-60660345D01*
X173130955Y-60685343D01*
X169488442Y-60685343D01*
X169984094Y-60189691D01*
X170570947Y-60189691D01*
X170573847Y-60214689D01*
X170619000Y-60316951D01*
X170619001Y-60316953D01*
X170698042Y-60395994D01*
X170698044Y-60395995D01*
X170800306Y-60441148D01*
X170800305Y-60441148D01*
X170825304Y-60444048D01*
X170825306Y-60444049D01*
X171044954Y-60444049D01*
X171344954Y-60444049D01*
X171564602Y-60444049D01*
X171564603Y-60444048D01*
X171589601Y-60441148D01*
X171691863Y-60395995D01*
X171691865Y-60395994D01*
X171770906Y-60316953D01*
X171770907Y-60316951D01*
X171816060Y-60214689D01*
X171818960Y-60189691D01*
X171818961Y-60189689D01*
X171818961Y-60145049D01*
X171344954Y-60145049D01*
X171344954Y-60444049D01*
X171044954Y-60444049D01*
X171044954Y-60145049D01*
X170570947Y-60145049D01*
X170570947Y-60189691D01*
X169984094Y-60189691D01*
X170291962Y-59881823D01*
X170354272Y-59847800D01*
X170381055Y-59844921D01*
X170518628Y-59844921D01*
X170519064Y-59845049D01*
X170840233Y-59845049D01*
X170847806Y-59845421D01*
X170850199Y-59845421D01*
X171542102Y-59845421D01*
X171549675Y-59845049D01*
X171818961Y-59845049D01*
X171818961Y-59800408D01*
X171818960Y-59800406D01*
X171816060Y-59775408D01*
X171770907Y-59673146D01*
X171770906Y-59673144D01*
X171757366Y-59659604D01*
X171723340Y-59597292D01*
X171720461Y-59570509D01*
X171720461Y-59325174D01*
X171720460Y-59325170D01*
X171714983Y-59297637D01*
X171709400Y-59269565D01*
X171709400Y-59220403D01*
X171716224Y-59186096D01*
X171720461Y-59164797D01*
X171720461Y-58825301D01*
X171709374Y-58769562D01*
X171709374Y-58720407D01*
X171720461Y-58664669D01*
X171720461Y-58325173D01*
X171709400Y-58269565D01*
X171709400Y-58220403D01*
X171710670Y-58214018D01*
X171720461Y-58164797D01*
X171720461Y-57825301D01*
X171709375Y-57769567D01*
X171709375Y-57720407D01*
X171720462Y-57664669D01*
X171720462Y-57419589D01*
X171740464Y-57351468D01*
X171757367Y-57330494D01*
X171770907Y-57316953D01*
X171770908Y-57316951D01*
X171816061Y-57214689D01*
X171818961Y-57189691D01*
X171818962Y-57189689D01*
X171818962Y-57145049D01*
X171552274Y-57145049D01*
X171539920Y-57144442D01*
X171539712Y-57144421D01*
X171539710Y-57144421D01*
X170850200Y-57144421D01*
X170849120Y-57144421D01*
X170838933Y-57144921D01*
X166262112Y-57144921D01*
X166193991Y-57124919D01*
X166173017Y-57108016D01*
X166000048Y-56935047D01*
X165934883Y-56869882D01*
X165855073Y-56823804D01*
X165855072Y-56823803D01*
X165855071Y-56823803D01*
X165844863Y-56821068D01*
X165844863Y-56821067D01*
X165790438Y-56806485D01*
X165766057Y-56799952D01*
X165766056Y-56799952D01*
X165165317Y-56799952D01*
X165097196Y-56779950D01*
X165050703Y-56726294D01*
X165040599Y-56656020D01*
X165064767Y-56598020D01*
X165148290Y-56487415D01*
X165243207Y-56296796D01*
X165243210Y-56296788D01*
X165290679Y-56129952D01*
X164600220Y-56129952D01*
X164633133Y-56072945D01*
X164667208Y-55945778D01*
X164667208Y-55814126D01*
X164633133Y-55686959D01*
X164600220Y-55629952D01*
X165290679Y-55629952D01*
X165290679Y-55629951D01*
X165243210Y-55463115D01*
X165243207Y-55463107D01*
X165148291Y-55272488D01*
X165110396Y-55222307D01*
X165085307Y-55155892D01*
X165100107Y-55086455D01*
X165150098Y-55036043D01*
X165210947Y-55020376D01*
X166340817Y-55020376D01*
X166408938Y-55040378D01*
X166429912Y-55057281D01*
X166910579Y-55537948D01*
X166910595Y-55537963D01*
X166933477Y-55556922D01*
X166933479Y-55556923D01*
X166951645Y-55565671D01*
X166988029Y-55592099D01*
X167263369Y-55879955D01*
X167766364Y-56405813D01*
X167779357Y-56414044D01*
X167778139Y-56415965D01*
X167805516Y-56432884D01*
X167998993Y-56626361D01*
X168148026Y-56775394D01*
X168148031Y-56775399D01*
X168148042Y-56775408D01*
X168170915Y-56794359D01*
X168289875Y-56851647D01*
X168420436Y-56871326D01*
X168550997Y-56851647D01*
X168598561Y-56828740D01*
X168668612Y-56817204D01*
X168685844Y-56820556D01*
X168687759Y-56821069D01*
X168776776Y-56844922D01*
X168876651Y-56844922D01*
X168876667Y-56844921D01*
X170518629Y-56844921D01*
X170519065Y-56845049D01*
X170840233Y-56845049D01*
X170847806Y-56845421D01*
X170850199Y-56845421D01*
X171542102Y-56845421D01*
X171549675Y-56845049D01*
X171818962Y-56845049D01*
X171818962Y-56800408D01*
X171818961Y-56800406D01*
X171816061Y-56775408D01*
X171770908Y-56673146D01*
X171770907Y-56673144D01*
X171757366Y-56659603D01*
X171723340Y-56597291D01*
X171720461Y-56570508D01*
X171720461Y-56325174D01*
X171720460Y-56325170D01*
X171711485Y-56280051D01*
X171709400Y-56269565D01*
X171709400Y-56220403D01*
X171720461Y-56164797D01*
X171720461Y-55825301D01*
X171709374Y-55769562D01*
X171709374Y-55720407D01*
X171720461Y-55664669D01*
X171720461Y-55325173D01*
X171709400Y-55269565D01*
X171709400Y-55220403D01*
X171720461Y-55164797D01*
X171720461Y-54825301D01*
X171709374Y-54769562D01*
X171709374Y-54720407D01*
X171720461Y-54664669D01*
X171720461Y-54325173D01*
X171708828Y-54266690D01*
X171664513Y-54200369D01*
X171598192Y-54156054D01*
X171598189Y-54156053D01*
X171539711Y-54144421D01*
X171539709Y-54144421D01*
X171010108Y-54144421D01*
X170941987Y-54124419D01*
X170921013Y-54107516D01*
X170618123Y-53804626D01*
X173130955Y-53804626D01*
X173133855Y-53829624D01*
X173179008Y-53931886D01*
X173179009Y-53931888D01*
X173258050Y-54010929D01*
X173258052Y-54010930D01*
X173360314Y-54056083D01*
X173360313Y-54056083D01*
X173385312Y-54058983D01*
X173385314Y-54058984D01*
X173854962Y-54058984D01*
X174154962Y-54058984D01*
X174624610Y-54058984D01*
X174624611Y-54058983D01*
X174649609Y-54056083D01*
X174751871Y-54010930D01*
X174751873Y-54010929D01*
X174830914Y-53931888D01*
X174830915Y-53931886D01*
X174876068Y-53829624D01*
X174878968Y-53804626D01*
X174878969Y-53804624D01*
X174878969Y-53759984D01*
X174154962Y-53759984D01*
X174154962Y-54058984D01*
X173854962Y-54058984D01*
X173854962Y-53759984D01*
X173130955Y-53759984D01*
X173130955Y-53804626D01*
X170618123Y-53804626D01*
X170228838Y-53415341D01*
X173130955Y-53415341D01*
X173130955Y-53459984D01*
X173854962Y-53459984D01*
X174154962Y-53459984D01*
X174878969Y-53459984D01*
X174878969Y-53415343D01*
X174878968Y-53415341D01*
X174876068Y-53390343D01*
X174830915Y-53288081D01*
X174830914Y-53288079D01*
X174751873Y-53209038D01*
X174751871Y-53209037D01*
X174649609Y-53163884D01*
X174649610Y-53163884D01*
X174624611Y-53160984D01*
X174154962Y-53160984D01*
X174154962Y-53459984D01*
X173854962Y-53459984D01*
X173854962Y-53160984D01*
X173385312Y-53160984D01*
X173360314Y-53163884D01*
X173258052Y-53209037D01*
X173258050Y-53209038D01*
X173179009Y-53288079D01*
X173179008Y-53288081D01*
X173133855Y-53390343D01*
X173130955Y-53415341D01*
X170228838Y-53415341D01*
X168675379Y-51861883D01*
X173611107Y-51861883D01*
X173621701Y-51950107D01*
X173677067Y-52090502D01*
X173768255Y-52210753D01*
X173888506Y-52301941D01*
X174028901Y-52357307D01*
X174117125Y-52367901D01*
X174117132Y-52367902D01*
X174660107Y-52367902D01*
X175160107Y-52367902D01*
X175703082Y-52367902D01*
X175703088Y-52367901D01*
X175791312Y-52357307D01*
X175931707Y-52301941D01*
X176051958Y-52210753D01*
X176143146Y-52090502D01*
X176198512Y-51950107D01*
X176209106Y-51861883D01*
X176209107Y-51861877D01*
X176209107Y-51818902D01*
X175160107Y-51818902D01*
X175160107Y-52367902D01*
X174660107Y-52367902D01*
X174660107Y-51818902D01*
X173611107Y-51818902D01*
X173611107Y-51861883D01*
X168675379Y-51861883D01*
X168089416Y-51275920D01*
X173611107Y-51275920D01*
X173611107Y-51318902D01*
X174660107Y-51318902D01*
X175160107Y-51318902D01*
X176209107Y-51318902D01*
X176209107Y-51275927D01*
X176209106Y-51275920D01*
X176198512Y-51187696D01*
X176143146Y-51047301D01*
X176051958Y-50927050D01*
X175931707Y-50835862D01*
X175791312Y-50780496D01*
X175703088Y-50769902D01*
X175160107Y-50769902D01*
X175160107Y-51318902D01*
X174660107Y-51318902D01*
X174660107Y-50769902D01*
X174117125Y-50769902D01*
X174028901Y-50780496D01*
X173888506Y-50835862D01*
X173768255Y-50927050D01*
X173677067Y-51047301D01*
X173621701Y-51187696D01*
X173611107Y-51275920D01*
X168089416Y-51275920D01*
X166091090Y-49277594D01*
X166091078Y-49277580D01*
X166018743Y-49205245D01*
X166018733Y-49205237D01*
X165938932Y-49159164D01*
X165938929Y-49159163D01*
X165938927Y-49159162D01*
X165849911Y-49135310D01*
X165849910Y-49135310D01*
X162987929Y-49135310D01*
X162895772Y-49135310D01*
X162841290Y-49149908D01*
X162806750Y-49159163D01*
X162726948Y-49205237D01*
X162726942Y-49205242D01*
X162143106Y-49789077D01*
X162080794Y-49823102D01*
X162017436Y-49820556D01*
X161833135Y-49764650D01*
X161627211Y-49744369D01*
X161627205Y-49744369D01*
X161421280Y-49764650D01*
X161223253Y-49824720D01*
X161040760Y-49922265D01*
X160880798Y-50053542D01*
X160749521Y-50213504D01*
X160651976Y-50395997D01*
X160591906Y-50594024D01*
X160571625Y-50799948D01*
X157514597Y-50799948D01*
X157514597Y-49188740D01*
X157514637Y-49185571D01*
X157514700Y-49183051D01*
X157516798Y-49099706D01*
X157519177Y-49078315D01*
X157552989Y-48908350D01*
X157560156Y-48884727D01*
X157625859Y-48726109D01*
X157637495Y-48704337D01*
X157732886Y-48561570D01*
X157748541Y-48542494D01*
X157869948Y-48421079D01*
X157889022Y-48405425D01*
X158031781Y-48310025D01*
X158053546Y-48298390D01*
X158212174Y-48232672D01*
X158235792Y-48225506D01*
X158405705Y-48191694D01*
X158427195Y-48189309D01*
X158513052Y-48187196D01*
X158516151Y-48187159D01*
X175513018Y-48187159D01*
X175516160Y-48187198D01*
G37*
%TD.AperFunction*%
%TD*%
M02*
