<svg width="343" height="115" viewBox="0 0 343 115" fill="none" xmlns="http://www.w3.org/2000/svg">
<rect x="0.5" y="56.5" width="53" height="53" rx="3.5" stroke="#616F87"/>
<rect x="56.5" y="56.5" width="53" height="53" rx="3.5" stroke="#616F87"/>
<rect x="112.5" y="56.5" width="53" height="53" rx="3.5" stroke="#616F87"/>
<rect x="40.5" y="0.5" width="53" height="53" rx="3.5" stroke="#616F87"/>
<path d="M62.8153 22.2727H64.0767L67.0426 29.517H67.1449L70.1108 22.2727H71.3721V31H70.3835V24.3693H70.2983L67.571 31H66.6164L63.8892 24.3693H63.8039V31H62.8153V22.2727Z" fill="#616F87"/>
<path d="M24.8023 87V78.2727H25.8591V86.0625H29.9159V87H24.8023Z" fill="#616F87"/>
<path d="M80.5673 87V78.2727H85.8343V79.2102H81.6241V82.1591H85.5616V83.0966H81.6241V86.0625H85.9025V87H80.5673Z" fill="#616F87"/>
<path d="M135.969 78.2727L138.559 85.6193H138.662L141.253 78.2727H142.361L139.156 87H138.065L134.861 78.2727H135.969Z" fill="#616F87"/>
<path d="M216.117 25.151H222.747L227.757 39.881H227.817L232.557 25.151H239.187V46.571H234.777V31.391H234.717L229.467 46.571H225.837L220.587 31.541H220.527V46.571H216.117V25.151ZM242.704 35.831C242.764 34.831 243.014 34.001 243.454 33.341C243.894 32.681 244.454 32.151 245.134 31.751C245.814 31.351 246.574 31.071 247.414 30.911C248.274 30.731 249.134 30.641 249.994 30.641C250.774 30.641 251.564 30.701 252.364 30.821C253.164 30.921 253.894 31.131 254.554 31.451C255.214 31.771 255.754 32.221 256.174 32.801C256.594 33.361 256.804 34.111 256.804 35.051V43.121C256.804 43.821 256.844 44.491 256.924 45.131C257.004 45.771 257.144 46.251 257.344 46.571H253.024C252.944 46.331 252.874 46.091 252.814 45.851C252.774 45.591 252.744 45.331 252.724 45.071C252.044 45.771 251.244 46.261 250.324 46.541C249.404 46.821 248.464 46.961 247.504 46.961C246.764 46.961 246.074 46.871 245.434 46.691C244.794 46.511 244.234 46.231 243.754 45.851C243.274 45.471 242.894 44.991 242.614 44.411C242.354 43.831 242.224 43.141 242.224 42.341C242.224 41.461 242.374 40.741 242.674 40.181C242.994 39.601 243.394 39.141 243.874 38.801C244.374 38.461 244.934 38.211 245.554 38.051C246.194 37.871 246.834 37.731 247.474 37.631C248.114 37.531 248.744 37.451 249.364 37.391C249.984 37.331 250.534 37.241 251.014 37.121C251.494 37.001 251.874 36.831 252.154 36.611C252.434 36.371 252.564 36.031 252.544 35.591C252.544 35.131 252.464 34.771 252.304 34.511C252.164 34.231 251.964 34.021 251.704 33.881C251.464 33.721 251.174 33.621 250.834 33.581C250.514 33.521 250.164 33.491 249.784 33.491C248.944 33.491 248.284 33.671 247.804 34.031C247.324 34.391 247.044 34.991 246.964 35.831H242.704ZM252.544 38.981C252.364 39.141 252.134 39.271 251.854 39.371C251.594 39.451 251.304 39.521 250.984 39.581C250.684 39.641 250.364 39.691 250.024 39.731C249.684 39.771 249.344 39.821 249.004 39.881C248.684 39.941 248.364 40.021 248.044 40.121C247.744 40.221 247.474 40.361 247.234 40.541C247.014 40.701 246.834 40.911 246.694 41.171C246.554 41.431 246.484 41.761 246.484 42.161C246.484 42.541 246.554 42.861 246.694 43.121C246.834 43.381 247.024 43.591 247.264 43.751C247.504 43.891 247.784 43.991 248.104 44.051C248.424 44.111 248.754 44.141 249.094 44.141C249.934 44.141 250.584 44.001 251.044 43.721C251.504 43.441 251.844 43.111 252.064 42.731C252.284 42.331 252.414 41.931 252.454 41.531C252.514 41.131 252.544 40.811 252.544 40.571V38.981ZM270.67 36.521C270.39 34.741 269.34 33.851 267.52 33.851C266.84 33.851 266.27 34.011 265.81 34.331C265.35 34.631 264.97 35.031 264.67 35.531C264.39 36.011 264.19 36.551 264.07 37.151C263.95 37.731 263.89 38.311 263.89 38.891C263.89 39.451 263.95 40.021 264.07 40.601C264.19 41.181 264.38 41.711 264.64 42.191C264.92 42.651 265.29 43.031 265.75 43.331C266.21 43.631 266.77 43.781 267.43 43.781C268.45 43.781 269.23 43.501 269.77 42.941C270.33 42.361 270.68 41.591 270.82 40.631H274.93C274.65 42.691 273.85 44.261 272.53 45.341C271.21 46.421 269.52 46.961 267.46 46.961C266.3 46.961 265.23 46.771 264.25 46.391C263.29 45.991 262.47 45.441 261.79 44.741C261.11 44.041 260.58 43.211 260.2 42.251C259.82 41.271 259.63 40.201 259.63 39.041C259.63 37.841 259.8 36.731 260.14 35.711C260.5 34.671 261.02 33.781 261.7 33.041C262.38 32.281 263.21 31.691 264.19 31.271C265.17 30.851 266.29 30.641 267.55 30.641C268.47 30.641 269.35 30.761 270.19 31.001C271.05 31.241 271.81 31.611 272.47 32.111C273.15 32.591 273.7 33.201 274.12 33.941C274.54 34.661 274.78 35.521 274.84 36.521H270.67ZM277.337 31.061H281.387V33.941H281.447C281.647 33.461 281.917 33.021 282.257 32.621C282.597 32.201 282.987 31.851 283.427 31.571C283.867 31.271 284.337 31.041 284.837 30.881C285.337 30.721 285.857 30.641 286.397 30.641C286.677 30.641 286.987 30.691 287.327 30.791V34.751C287.127 34.711 286.887 34.681 286.607 34.661C286.327 34.621 286.057 34.601 285.797 34.601C285.017 34.601 284.357 34.731 283.817 34.991C283.277 35.251 282.837 35.611 282.497 36.071C282.177 36.511 281.947 37.031 281.807 37.631C281.667 38.231 281.597 38.881 281.597 39.581V46.571H277.337V31.061ZM292.25 38.831C292.25 39.451 292.31 40.061 292.43 40.661C292.55 41.241 292.75 41.771 293.03 42.251C293.33 42.711 293.72 43.081 294.2 43.361C294.68 43.641 295.28 43.781 296 43.781C296.72 43.781 297.32 43.641 297.8 43.361C298.3 43.081 298.69 42.711 298.97 42.251C299.27 41.771 299.48 41.241 299.6 40.661C299.72 40.061 299.78 39.451 299.78 38.831C299.78 38.211 299.72 37.601 299.6 37.001C299.48 36.401 299.27 35.871 298.97 35.411C298.69 34.951 298.3 34.581 297.8 34.301C297.32 34.001 296.72 33.851 296 33.851C295.28 33.851 294.68 34.001 294.2 34.301C293.72 34.581 293.33 34.951 293.03 35.411C292.75 35.871 292.55 36.401 292.43 37.001C292.31 37.601 292.25 38.211 292.25 38.831ZM287.99 38.831C287.99 37.591 288.18 36.471 288.56 35.471C288.94 34.451 289.48 33.591 290.18 32.891C290.88 32.171 291.72 31.621 292.7 31.241C293.68 30.841 294.78 30.641 296 30.641C297.22 30.641 298.32 30.841 299.3 31.241C300.3 31.621 301.15 32.171 301.85 32.891C302.55 33.591 303.09 34.451 303.47 35.471C303.85 36.471 304.04 37.591 304.04 38.831C304.04 40.071 303.85 41.191 303.47 42.191C303.09 43.191 302.55 44.051 301.85 44.771C301.15 45.471 300.3 46.011 299.3 46.391C298.32 46.771 297.22 46.961 296 46.961C294.78 46.961 293.68 46.771 292.7 46.391C291.72 46.011 290.88 45.471 290.18 44.771C289.48 44.051 288.94 43.191 288.56 42.191C288.18 41.191 287.99 40.071 287.99 38.831ZM307.259 25.151H309.809V46.571H307.259V25.151ZM324.53 37.331C324.49 36.731 324.35 36.161 324.11 35.621C323.89 35.081 323.58 34.621 323.18 34.241C322.8 33.841 322.34 33.531 321.8 33.311C321.28 33.071 320.7 32.951 320.06 32.951C319.4 32.951 318.8 33.071 318.26 33.311C317.74 33.531 317.29 33.841 316.91 34.241C316.53 34.641 316.23 35.111 316.01 35.651C315.79 36.171 315.66 36.731 315.62 37.331H324.53ZM326.99 41.651C326.65 43.391 325.9 44.701 324.74 45.581C323.58 46.461 322.12 46.901 320.36 46.901C319.12 46.901 318.04 46.701 317.12 46.301C316.22 45.901 315.46 45.341 314.84 44.621C314.22 43.901 313.75 43.041 313.43 42.041C313.13 41.041 312.96 39.951 312.92 38.771C312.92 37.591 313.1 36.511 313.46 35.531C313.82 34.551 314.32 33.701 314.96 32.981C315.62 32.261 316.39 31.701 317.27 31.301C318.17 30.901 319.15 30.701 320.21 30.701C321.59 30.701 322.73 30.991 323.63 31.571C324.55 32.131 325.28 32.851 325.82 33.731C326.38 34.611 326.76 35.571 326.96 36.611C327.18 37.651 327.27 38.641 327.23 39.581H315.62C315.6 40.261 315.68 40.911 315.86 41.531C316.04 42.131 316.33 42.671 316.73 43.151C317.13 43.611 317.64 43.981 318.26 44.261C318.88 44.541 319.61 44.681 320.45 44.681C321.53 44.681 322.41 44.431 323.09 43.931C323.79 43.431 324.25 42.671 324.47 41.651H326.99ZM336.863 46.571H334.133L328.373 31.061H331.223L335.573 43.991H335.633L339.863 31.061H342.533L336.863 46.571Z" fill="#616F87"/>
<path d="M236.308 71.216C236.308 71.756 236.378 72.291 236.518 72.821C236.658 73.341 236.878 73.811 237.178 74.231C237.478 74.651 237.863 74.991 238.333 75.251C238.803 75.501 239.363 75.626 240.013 75.626C240.663 75.626 241.223 75.501 241.693 75.251C242.163 74.991 242.548 74.651 242.848 74.231C243.148 73.811 243.368 73.341 243.508 72.821C243.648 72.291 243.718 71.756 243.718 71.216C243.718 70.676 243.648 70.146 243.508 69.626C243.368 69.096 243.148 68.621 242.848 68.201C242.548 67.781 242.163 67.446 241.693 67.196C241.223 66.936 240.663 66.806 240.013 66.806C239.363 66.806 238.803 66.936 238.333 67.196C237.863 67.446 237.478 67.781 237.178 68.201C236.878 68.621 236.658 69.096 236.518 69.626C236.378 70.146 236.308 70.676 236.308 71.216ZM234.883 71.216C234.883 70.486 234.988 69.786 235.198 69.116C235.418 68.436 235.743 67.836 236.173 67.316C236.603 66.796 237.138 66.381 237.778 66.071C238.418 65.761 239.163 65.606 240.013 65.606C240.863 65.606 241.608 65.761 242.248 66.071C242.888 66.381 243.423 66.796 243.853 67.316C244.283 67.836 244.603 68.436 244.813 69.116C245.033 69.786 245.143 70.486 245.143 71.216C245.143 71.946 245.033 72.651 244.813 73.331C244.603 74.001 244.283 74.596 243.853 75.116C243.423 75.636 242.888 76.051 242.248 76.361C241.608 76.661 240.863 76.811 240.013 76.811C239.163 76.811 238.418 76.661 237.778 76.361C237.138 76.051 236.603 75.636 236.173 75.116C235.743 74.596 235.418 74.001 235.198 73.331C234.988 72.651 234.883 71.946 234.883 71.216ZM246.714 68.816H247.989V69.866H248.019C248.229 69.436 248.559 69.126 249.009 68.936C249.459 68.736 249.954 68.636 250.494 68.636C251.094 68.636 251.614 68.746 252.054 68.966C252.504 69.186 252.874 69.486 253.164 69.866C253.464 70.236 253.689 70.666 253.839 71.156C253.989 71.646 254.064 72.166 254.064 72.716C254.064 73.266 253.989 73.786 253.839 74.276C253.699 74.766 253.479 75.196 253.179 75.566C252.889 75.926 252.519 76.211 252.069 76.421C251.629 76.631 251.114 76.736 250.524 76.736C250.334 76.736 250.119 76.716 249.879 76.676C249.649 76.636 249.419 76.571 249.189 76.481C248.959 76.391 248.739 76.271 248.529 76.121C248.329 75.961 248.159 75.766 248.019 75.536H247.989V79.526H246.714V68.816ZM252.714 72.626C252.714 72.266 252.664 71.916 252.564 71.576C252.474 71.226 252.329 70.916 252.129 70.646C251.939 70.376 251.689 70.161 251.379 70.001C251.079 69.841 250.724 69.761 250.314 69.761C249.884 69.761 249.519 69.846 249.219 70.016C248.919 70.186 248.674 70.411 248.484 70.691C248.294 70.961 248.154 71.271 248.064 71.621C247.984 71.971 247.944 72.326 247.944 72.686C247.944 73.066 247.989 73.436 248.079 73.796C248.169 74.146 248.309 74.456 248.499 74.726C248.699 74.996 248.954 75.216 249.264 75.386C249.574 75.546 249.949 75.626 250.389 75.626C250.829 75.626 251.194 75.541 251.484 75.371C251.784 75.201 252.024 74.976 252.204 74.696C252.384 74.416 252.514 74.096 252.594 73.736C252.674 73.376 252.714 73.006 252.714 72.626ZM260.946 71.951C260.926 71.651 260.856 71.366 260.736 71.096C260.626 70.826 260.471 70.596 260.271 70.406C260.081 70.206 259.851 70.051 259.581 69.941C259.321 69.821 259.031 69.761 258.711 69.761C258.381 69.761 258.081 69.821 257.811 69.941C257.551 70.051 257.326 70.206 257.136 70.406C256.946 70.606 256.796 70.841 256.686 71.111C256.576 71.371 256.511 71.651 256.491 71.951H260.946ZM262.176 74.111C262.006 74.981 261.631 75.636 261.051 76.076C260.471 76.516 259.741 76.736 258.861 76.736C258.241 76.736 257.701 76.636 257.241 76.436C256.791 76.236 256.411 75.956 256.101 75.596C255.791 75.236 255.556 74.806 255.396 74.306C255.246 73.806 255.161 73.261 255.141 72.671C255.141 72.081 255.231 71.541 255.411 71.051C255.591 70.561 255.841 70.136 256.161 69.776C256.491 69.416 256.876 69.136 257.316 68.936C257.766 68.736 258.256 68.636 258.786 68.636C259.476 68.636 260.046 68.781 260.496 69.071C260.956 69.351 261.321 69.711 261.591 70.151C261.871 70.591 262.061 71.071 262.161 71.591C262.271 72.111 262.316 72.606 262.296 73.076H256.491C256.481 73.416 256.521 73.741 256.611 74.051C256.701 74.351 256.846 74.621 257.046 74.861C257.246 75.091 257.501 75.276 257.811 75.416C258.121 75.556 258.486 75.626 258.906 75.626C259.446 75.626 259.886 75.501 260.226 75.251C260.576 75.001 260.806 74.621 260.916 74.111H262.176ZM263.618 68.816H264.818V70.046H264.848C265.378 69.106 266.218 68.636 267.368 68.636C267.878 68.636 268.303 68.706 268.643 68.846C268.983 68.986 269.258 69.181 269.468 69.431C269.678 69.681 269.823 69.981 269.903 70.331C269.993 70.671 270.038 71.051 270.038 71.471V76.571H268.763V71.321C268.763 70.841 268.623 70.461 268.343 70.181C268.063 69.901 267.678 69.761 267.188 69.761C266.798 69.761 266.458 69.821 266.168 69.941C265.888 70.061 265.653 70.231 265.463 70.451C265.273 70.671 265.128 70.931 265.028 71.231C264.938 71.521 264.893 71.841 264.893 72.191V76.571H263.618V68.816ZM282.532 68.996C282.452 68.226 282.172 67.671 281.692 67.331C281.222 66.981 280.617 66.806 279.877 66.806C279.577 66.806 279.282 66.836 278.992 66.896C278.702 66.956 278.442 67.056 278.212 67.196C277.992 67.336 277.812 67.526 277.672 67.766C277.542 67.996 277.477 68.286 277.477 68.636C277.477 68.966 277.572 69.236 277.762 69.446C277.962 69.646 278.222 69.811 278.542 69.941C278.872 70.071 279.242 70.181 279.652 70.271C280.062 70.351 280.477 70.441 280.897 70.541C281.327 70.641 281.747 70.761 282.157 70.901C282.567 71.031 282.932 71.211 283.252 71.441C283.582 71.671 283.842 71.961 284.032 72.311C284.232 72.661 284.332 73.101 284.332 73.631C284.332 74.201 284.202 74.691 283.942 75.101C283.692 75.501 283.367 75.831 282.967 76.091C282.567 76.341 282.117 76.521 281.617 76.631C281.127 76.751 280.637 76.811 280.147 76.811C279.547 76.811 278.977 76.736 278.437 76.586C277.907 76.436 277.437 76.211 277.027 75.911C276.627 75.601 276.307 75.211 276.067 74.741C275.837 74.261 275.722 73.696 275.722 73.046H277.072C277.072 73.496 277.157 73.886 277.327 74.216C277.507 74.536 277.737 74.801 278.017 75.011C278.307 75.221 278.642 75.376 279.022 75.476C279.402 75.576 279.792 75.626 280.192 75.626C280.512 75.626 280.832 75.596 281.152 75.536C281.482 75.476 281.777 75.376 282.037 75.236C282.297 75.086 282.507 74.886 282.667 74.636C282.827 74.386 282.907 74.066 282.907 73.676C282.907 73.306 282.807 73.006 282.607 72.776C282.417 72.546 282.157 72.361 281.827 72.221C281.507 72.071 281.142 71.951 280.732 71.861C280.322 71.771 279.902 71.681 279.472 71.591C279.052 71.491 278.637 71.381 278.227 71.261C277.817 71.131 277.447 70.966 277.117 70.766C276.797 70.556 276.537 70.291 276.337 69.971C276.147 69.641 276.052 69.231 276.052 68.741C276.052 68.201 276.162 67.736 276.382 67.346C276.602 66.946 276.892 66.621 277.252 66.371C277.622 66.111 278.037 65.921 278.497 65.801C278.967 65.671 279.447 65.606 279.937 65.606C280.487 65.606 280.997 65.671 281.467 65.801C281.937 65.931 282.347 66.136 282.697 66.416C283.057 66.696 283.337 67.051 283.537 67.481C283.747 67.901 283.862 68.406 283.882 68.996H282.532ZM286.784 72.701C286.784 73.171 286.844 73.591 286.964 73.961C287.094 74.321 287.269 74.626 287.489 74.876C287.709 75.116 287.964 75.301 288.254 75.431C288.554 75.561 288.869 75.626 289.199 75.626C289.529 75.626 289.839 75.561 290.129 75.431C290.429 75.301 290.689 75.116 290.909 74.876C291.129 74.626 291.299 74.321 291.419 73.961C291.549 73.591 291.614 73.171 291.614 72.701C291.614 72.231 291.549 71.816 291.419 71.456C291.299 71.086 291.129 70.776 290.909 70.526C290.689 70.276 290.429 70.086 290.129 69.956C289.839 69.826 289.529 69.761 289.199 69.761C288.869 69.761 288.554 69.826 288.254 69.956C287.964 70.086 287.709 70.276 287.489 70.526C287.269 70.776 287.094 71.086 286.964 71.456C286.844 71.816 286.784 72.231 286.784 72.701ZM285.434 72.701C285.434 72.131 285.514 71.601 285.674 71.111C285.834 70.611 286.074 70.181 286.394 69.821C286.714 69.451 287.109 69.161 287.579 68.951C288.049 68.741 288.589 68.636 289.199 68.636C289.819 68.636 290.359 68.741 290.819 68.951C291.289 69.161 291.684 69.451 292.004 69.821C292.324 70.181 292.564 70.611 292.724 71.111C292.884 71.601 292.964 72.131 292.964 72.701C292.964 73.271 292.884 73.801 292.724 74.291C292.564 74.781 292.324 75.211 292.004 75.581C291.684 75.941 291.289 76.226 290.819 76.436C290.359 76.636 289.819 76.736 289.199 76.736C288.589 76.736 288.049 76.636 287.579 76.436C287.109 76.226 286.714 75.941 286.394 75.581C286.074 75.211 285.834 74.781 285.674 74.291C285.514 73.801 285.434 73.271 285.434 72.701ZM300.887 76.571H299.687V75.341H299.657C299.387 75.821 299.042 76.176 298.622 76.406C298.202 76.626 297.707 76.736 297.137 76.736C296.627 76.736 296.202 76.671 295.862 76.541C295.522 76.401 295.247 76.206 295.037 75.956C294.827 75.706 294.677 75.411 294.587 75.071C294.507 74.721 294.467 74.336 294.467 73.916V68.816H295.742V74.066C295.742 74.546 295.882 74.926 296.162 75.206C296.442 75.486 296.827 75.626 297.317 75.626C297.707 75.626 298.042 75.566 298.322 75.446C298.612 75.326 298.852 75.156 299.042 74.936C299.232 74.716 299.372 74.461 299.462 74.171C299.562 73.871 299.612 73.546 299.612 73.196V68.816H300.887V76.571ZM302.757 68.816H303.957V70.451H303.987C304.297 69.821 304.677 69.356 305.127 69.056C305.577 68.756 306.147 68.616 306.837 68.636V69.986C306.327 69.986 305.892 70.056 305.532 70.196C305.172 70.336 304.882 70.541 304.662 70.811C304.442 71.081 304.282 71.411 304.182 71.801C304.082 72.181 304.032 72.621 304.032 73.121V76.571H302.757V68.816ZM312.799 71.306C312.699 70.816 312.489 70.436 312.169 70.166C311.849 69.896 311.419 69.761 310.879 69.761C310.419 69.761 310.034 69.846 309.724 70.016C309.414 70.186 309.164 70.411 308.974 70.691C308.794 70.971 308.664 71.296 308.584 71.666C308.504 72.026 308.464 72.401 308.464 72.791C308.464 73.151 308.504 73.501 308.584 73.841C308.674 74.181 308.809 74.486 308.989 74.756C309.169 75.016 309.404 75.226 309.694 75.386C309.984 75.546 310.329 75.626 310.729 75.626C311.359 75.626 311.849 75.461 312.199 75.131C312.559 74.801 312.779 74.336 312.859 73.736H314.164C314.024 74.696 313.664 75.436 313.084 75.956C312.514 76.476 311.734 76.736 310.744 76.736C310.154 76.736 309.629 76.641 309.169 76.451C308.719 76.261 308.339 75.991 308.029 75.641C307.729 75.291 307.499 74.876 307.339 74.396C307.189 73.906 307.114 73.371 307.114 72.791C307.114 72.211 307.189 71.671 307.339 71.171C307.489 70.661 307.714 70.221 308.014 69.851C308.324 69.471 308.709 69.176 309.169 68.966C309.629 68.746 310.164 68.636 310.774 68.636C311.214 68.636 311.624 68.691 312.004 68.801C312.394 68.901 312.734 69.061 313.024 69.281C313.324 69.501 313.569 69.781 313.759 70.121C313.949 70.451 314.069 70.846 314.119 71.306H312.799ZM320.975 71.951C320.955 71.651 320.885 71.366 320.765 71.096C320.655 70.826 320.5 70.596 320.3 70.406C320.11 70.206 319.88 70.051 319.61 69.941C319.35 69.821 319.06 69.761 318.74 69.761C318.41 69.761 318.11 69.821 317.84 69.941C317.58 70.051 317.355 70.206 317.165 70.406C316.975 70.606 316.825 70.841 316.715 71.111C316.605 71.371 316.54 71.651 316.52 71.951H320.975ZM322.205 74.111C322.035 74.981 321.66 75.636 321.08 76.076C320.5 76.516 319.77 76.736 318.89 76.736C318.27 76.736 317.73 76.636 317.27 76.436C316.82 76.236 316.44 75.956 316.13 75.596C315.82 75.236 315.585 74.806 315.425 74.306C315.275 73.806 315.19 73.261 315.17 72.671C315.17 72.081 315.26 71.541 315.44 71.051C315.62 70.561 315.87 70.136 316.19 69.776C316.52 69.416 316.905 69.136 317.345 68.936C317.795 68.736 318.285 68.636 318.815 68.636C319.505 68.636 320.075 68.781 320.525 69.071C320.985 69.351 321.35 69.711 321.62 70.151C321.9 70.591 322.09 71.071 322.19 71.591C322.3 72.111 322.345 72.606 322.325 73.076H316.52C316.51 73.416 316.55 73.741 316.64 74.051C316.73 74.351 316.875 74.621 317.075 74.861C317.275 75.091 317.53 75.276 317.84 75.416C318.15 75.556 318.515 75.626 318.935 75.626C319.475 75.626 319.915 75.501 320.255 75.251C320.605 75.001 320.835 74.621 320.945 74.111H322.205ZM223.72 90.146H227.35L225.565 85.151H225.535L223.72 90.146ZM224.785 83.861H226.36L230.545 94.571H228.97L227.8 91.346H223.27L222.07 94.571H220.615L224.785 83.861ZM231.391 86.816H232.591V88.046H232.621C233.151 87.106 233.991 86.636 235.141 86.636C235.651 86.636 236.076 86.706 236.416 86.846C236.756 86.986 237.031 87.181 237.241 87.431C237.451 87.681 237.596 87.981 237.676 88.331C237.766 88.671 237.811 89.051 237.811 89.471V94.571H236.536V89.321C236.536 88.841 236.396 88.461 236.116 88.181C235.836 87.901 235.451 87.761 234.961 87.761C234.571 87.761 234.231 87.821 233.941 87.941C233.661 88.061 233.426 88.231 233.236 88.451C233.046 88.671 232.901 88.931 232.801 89.231C232.711 89.521 232.666 89.841 232.666 90.191V94.571H231.391V86.816ZM246.596 94.541C246.376 94.671 246.071 94.736 245.681 94.736C245.351 94.736 245.086 94.646 244.886 94.466C244.696 94.276 244.601 93.971 244.601 93.551C244.251 93.971 243.841 94.276 243.371 94.466C242.911 94.646 242.411 94.736 241.871 94.736C241.521 94.736 241.186 94.696 240.866 94.616C240.556 94.536 240.286 94.411 240.056 94.241C239.826 94.071 239.641 93.851 239.501 93.581C239.371 93.301 239.306 92.966 239.306 92.576C239.306 92.136 239.381 91.776 239.531 91.496C239.681 91.216 239.876 90.991 240.116 90.821C240.366 90.641 240.646 90.506 240.956 90.416C241.276 90.326 241.601 90.251 241.931 90.191C242.281 90.121 242.611 90.071 242.921 90.041C243.241 90.001 243.521 89.951 243.761 89.891C244.001 89.821 244.191 89.726 244.331 89.606C244.471 89.476 244.541 89.291 244.541 89.051C244.541 88.771 244.486 88.546 244.376 88.376C244.276 88.206 244.141 88.076 243.971 87.986C243.811 87.896 243.626 87.836 243.416 87.806C243.216 87.776 243.016 87.761 242.816 87.761C242.276 87.761 241.826 87.866 241.466 88.076C241.106 88.276 240.911 88.661 240.881 89.231H239.606C239.626 88.751 239.726 88.346 239.906 88.016C240.086 87.686 240.326 87.421 240.626 87.221C240.926 87.011 241.266 86.861 241.646 86.771C242.036 86.681 242.451 86.636 242.891 86.636C243.241 86.636 243.586 86.661 243.926 86.711C244.276 86.761 244.591 86.866 244.871 87.026C245.151 87.176 245.376 87.391 245.546 87.671C245.716 87.951 245.801 88.316 245.801 88.766V92.756C245.801 93.056 245.816 93.276 245.846 93.416C245.886 93.556 246.006 93.626 246.206 93.626C246.316 93.626 246.446 93.601 246.596 93.551V94.541ZM244.526 90.566C244.366 90.686 244.156 90.776 243.896 90.836C243.636 90.886 243.361 90.931 243.071 90.971C242.791 91.001 242.506 91.041 242.216 91.091C241.926 91.131 241.666 91.201 241.436 91.301C241.206 91.401 241.016 91.546 240.866 91.736C240.726 91.916 240.656 92.166 240.656 92.486C240.656 92.696 240.696 92.876 240.776 93.026C240.866 93.166 240.976 93.281 241.106 93.371C241.246 93.461 241.406 93.526 241.586 93.566C241.766 93.606 241.956 93.626 242.156 93.626C242.576 93.626 242.936 93.571 243.236 93.461C243.536 93.341 243.781 93.196 243.971 93.026C244.161 92.846 244.301 92.656 244.391 92.456C244.481 92.246 244.526 92.051 244.526 91.871V90.566ZM247.858 83.861H249.133V94.571H247.858V83.861ZM252.038 90.701C252.038 91.171 252.098 91.591 252.218 91.961C252.348 92.321 252.523 92.626 252.743 92.876C252.963 93.116 253.218 93.301 253.508 93.431C253.808 93.561 254.123 93.626 254.453 93.626C254.783 93.626 255.093 93.561 255.383 93.431C255.683 93.301 255.943 93.116 256.163 92.876C256.383 92.626 256.553 92.321 256.673 91.961C256.803 91.591 256.868 91.171 256.868 90.701C256.868 90.231 256.803 89.816 256.673 89.456C256.553 89.086 256.383 88.776 256.163 88.526C255.943 88.276 255.683 88.086 255.383 87.956C255.093 87.826 254.783 87.761 254.453 87.761C254.123 87.761 253.808 87.826 253.508 87.956C253.218 88.086 252.963 88.276 252.743 88.526C252.523 88.776 252.348 89.086 252.218 89.456C252.098 89.816 252.038 90.231 252.038 90.701ZM250.688 90.701C250.688 90.131 250.768 89.601 250.928 89.111C251.088 88.611 251.328 88.181 251.648 87.821C251.968 87.451 252.363 87.161 252.833 86.951C253.303 86.741 253.843 86.636 254.453 86.636C255.073 86.636 255.613 86.741 256.073 86.951C256.543 87.161 256.938 87.451 257.258 87.821C257.578 88.181 257.818 88.611 257.978 89.111C258.138 89.601 258.218 90.131 258.218 90.701C258.218 91.271 258.138 91.801 257.978 92.291C257.818 92.781 257.578 93.211 257.258 93.581C256.938 93.941 256.543 94.226 256.073 94.436C255.613 94.636 255.073 94.736 254.453 94.736C253.843 94.736 253.303 94.636 252.833 94.436C252.363 94.226 251.968 93.941 251.648 93.581C251.328 93.211 251.088 92.781 250.928 92.291C250.768 91.801 250.688 91.271 250.688 90.701ZM266.411 93.911C266.411 95.181 266.121 96.131 265.541 96.761C264.961 97.391 264.051 97.706 262.811 97.706C262.451 97.706 262.081 97.666 261.701 97.586C261.331 97.506 260.991 97.376 260.681 97.196C260.381 97.016 260.131 96.781 259.931 96.491C259.731 96.201 259.621 95.846 259.601 95.426H260.876C260.886 95.656 260.956 95.851 261.086 96.011C261.226 96.171 261.391 96.301 261.581 96.401C261.781 96.501 261.996 96.571 262.226 96.611C262.456 96.661 262.676 96.686 262.886 96.686C263.306 96.686 263.661 96.611 263.951 96.461C264.241 96.321 264.481 96.121 264.671 95.861C264.861 95.611 264.996 95.306 265.076 94.946C265.166 94.586 265.211 94.191 265.211 93.761V93.251H265.181C264.961 93.731 264.626 94.086 264.176 94.316C263.736 94.536 263.266 94.646 262.766 94.646C262.186 94.646 261.681 94.541 261.251 94.331C260.821 94.121 260.461 93.841 260.171 93.491C259.881 93.131 259.661 92.716 259.511 92.246C259.371 91.766 259.301 91.261 259.301 90.731C259.301 90.271 259.361 89.801 259.481 89.321C259.601 88.831 259.801 88.391 260.081 88.001C260.361 87.601 260.731 87.276 261.191 87.026C261.651 86.766 262.216 86.636 262.886 86.636C263.376 86.636 263.826 86.746 264.236 86.966C264.646 87.176 264.966 87.496 265.196 87.926H265.211V86.816H266.411V93.911ZM262.841 93.536C263.261 93.536 263.616 93.451 263.906 93.281C264.206 93.101 264.446 92.871 264.626 92.591C264.806 92.301 264.936 91.976 265.016 91.616C265.106 91.256 265.151 90.896 265.151 90.536C265.151 90.196 265.111 89.861 265.031 89.531C264.951 89.201 264.821 88.906 264.641 88.646C264.471 88.376 264.246 88.161 263.966 88.001C263.686 87.841 263.346 87.761 262.946 87.761C262.536 87.761 262.186 87.841 261.896 88.001C261.606 88.151 261.366 88.356 261.176 88.616C260.996 88.876 260.861 89.176 260.771 89.516C260.691 89.856 260.651 90.211 260.651 90.581C260.651 90.931 260.686 91.281 260.756 91.631C260.826 91.981 260.946 92.301 261.116 92.591C261.286 92.871 261.511 93.101 261.791 93.281C262.071 93.451 262.421 93.536 262.841 93.536ZM272.719 83.861H274.144V89.201L279.574 83.861H281.419L276.904 88.181L281.599 94.571H279.799L275.929 89.156L274.144 90.821V94.571H272.719V83.861ZM287.899 89.951C287.879 89.651 287.809 89.366 287.689 89.096C287.579 88.826 287.424 88.596 287.224 88.406C287.034 88.206 286.804 88.051 286.534 87.941C286.274 87.821 285.984 87.761 285.664 87.761C285.334 87.761 285.034 87.821 284.764 87.941C284.504 88.051 284.279 88.206 284.089 88.406C283.899 88.606 283.749 88.841 283.639 89.111C283.529 89.371 283.464 89.651 283.444 89.951H287.899ZM289.129 92.111C288.959 92.981 288.584 93.636 288.004 94.076C287.424 94.516 286.694 94.736 285.814 94.736C285.194 94.736 284.654 94.636 284.194 94.436C283.744 94.236 283.364 93.956 283.054 93.596C282.744 93.236 282.509 92.806 282.349 92.306C282.199 91.806 282.114 91.261 282.094 90.671C282.094 90.081 282.184 89.541 282.364 89.051C282.544 88.561 282.794 88.136 283.114 87.776C283.444 87.416 283.829 87.136 284.269 86.936C284.719 86.736 285.209 86.636 285.739 86.636C286.429 86.636 286.999 86.781 287.449 87.071C287.909 87.351 288.274 87.711 288.544 88.151C288.824 88.591 289.014 89.071 289.114 89.591C289.224 90.111 289.269 90.606 289.249 91.076H283.444C283.434 91.416 283.474 91.741 283.564 92.051C283.654 92.351 283.799 92.621 283.999 92.861C284.199 93.091 284.454 93.276 284.764 93.416C285.074 93.556 285.439 93.626 285.859 93.626C286.399 93.626 286.839 93.501 287.179 93.251C287.529 93.001 287.759 92.621 287.869 92.111H289.129ZM293.616 95.606C293.466 95.986 293.316 96.306 293.166 96.566C293.026 96.826 292.866 97.036 292.686 97.196C292.516 97.366 292.321 97.486 292.101 97.556C291.891 97.636 291.646 97.676 291.366 97.676C291.216 97.676 291.066 97.666 290.916 97.646C290.766 97.626 290.621 97.591 290.481 97.541V96.371C290.591 96.421 290.716 96.461 290.856 96.491C291.006 96.531 291.131 96.551 291.231 96.551C291.491 96.551 291.706 96.486 291.876 96.356C292.056 96.236 292.191 96.061 292.281 95.831L292.806 94.526L289.731 86.816H291.171L293.436 93.161H293.466L295.641 86.816H296.991L293.616 95.606ZM298.116 83.861H299.391V87.866H299.421C299.631 87.436 299.961 87.126 300.411 86.936C300.861 86.736 301.356 86.636 301.896 86.636C302.496 86.636 303.016 86.746 303.456 86.966C303.906 87.186 304.276 87.486 304.566 87.866C304.866 88.236 305.091 88.666 305.241 89.156C305.391 89.646 305.466 90.166 305.466 90.716C305.466 91.266 305.391 91.786 305.241 92.276C305.101 92.766 304.881 93.196 304.581 93.566C304.291 93.926 303.921 94.211 303.471 94.421C303.031 94.631 302.516 94.736 301.926 94.736C301.736 94.736 301.521 94.716 301.281 94.676C301.051 94.636 300.821 94.571 300.591 94.481C300.361 94.391 300.141 94.271 299.931 94.121C299.731 93.961 299.561 93.766 299.421 93.536H299.391V94.571H298.116V83.861ZM304.116 90.626C304.116 90.266 304.066 89.916 303.966 89.576C303.876 89.226 303.731 88.916 303.531 88.646C303.341 88.376 303.091 88.161 302.781 88.001C302.481 87.841 302.126 87.761 301.716 87.761C301.286 87.761 300.921 87.846 300.621 88.016C300.321 88.186 300.076 88.411 299.886 88.691C299.696 88.961 299.556 89.271 299.466 89.621C299.386 89.971 299.346 90.326 299.346 90.686C299.346 91.066 299.391 91.436 299.481 91.796C299.571 92.146 299.711 92.456 299.901 92.726C300.101 92.996 300.356 93.216 300.666 93.386C300.976 93.546 301.351 93.626 301.791 93.626C302.231 93.626 302.596 93.541 302.886 93.371C303.186 93.201 303.426 92.976 303.606 92.696C303.786 92.416 303.916 92.096 303.996 91.736C304.076 91.376 304.116 91.006 304.116 90.626ZM307.892 90.701C307.892 91.171 307.952 91.591 308.072 91.961C308.202 92.321 308.377 92.626 308.597 92.876C308.817 93.116 309.072 93.301 309.362 93.431C309.662 93.561 309.977 93.626 310.307 93.626C310.637 93.626 310.947 93.561 311.237 93.431C311.537 93.301 311.797 93.116 312.017 92.876C312.237 92.626 312.407 92.321 312.527 91.961C312.657 91.591 312.722 91.171 312.722 90.701C312.722 90.231 312.657 89.816 312.527 89.456C312.407 89.086 312.237 88.776 312.017 88.526C311.797 88.276 311.537 88.086 311.237 87.956C310.947 87.826 310.637 87.761 310.307 87.761C309.977 87.761 309.662 87.826 309.362 87.956C309.072 88.086 308.817 88.276 308.597 88.526C308.377 88.776 308.202 89.086 308.072 89.456C307.952 89.816 307.892 90.231 307.892 90.701ZM306.542 90.701C306.542 90.131 306.622 89.601 306.782 89.111C306.942 88.611 307.182 88.181 307.502 87.821C307.822 87.451 308.217 87.161 308.687 86.951C309.157 86.741 309.697 86.636 310.307 86.636C310.927 86.636 311.467 86.741 311.927 86.951C312.397 87.161 312.792 87.451 313.112 87.821C313.432 88.181 313.672 88.611 313.832 89.111C313.992 89.601 314.072 90.131 314.072 90.701C314.072 91.271 313.992 91.801 313.832 92.291C313.672 92.781 313.432 93.211 313.112 93.581C312.792 93.941 312.397 94.226 311.927 94.436C311.467 94.636 310.927 94.736 310.307 94.736C309.697 94.736 309.157 94.636 308.687 94.436C308.217 94.226 307.822 93.941 307.502 93.581C307.182 93.211 306.942 92.781 306.782 92.291C306.622 91.801 306.542 91.271 306.542 90.701ZM322.446 94.541C322.226 94.671 321.921 94.736 321.531 94.736C321.201 94.736 320.936 94.646 320.736 94.466C320.546 94.276 320.451 93.971 320.451 93.551C320.101 93.971 319.691 94.276 319.221 94.466C318.761 94.646 318.261 94.736 317.721 94.736C317.371 94.736 317.036 94.696 316.716 94.616C316.406 94.536 316.136 94.411 315.906 94.241C315.676 94.071 315.491 93.851 315.351 93.581C315.221 93.301 315.156 92.966 315.156 92.576C315.156 92.136 315.231 91.776 315.381 91.496C315.531 91.216 315.726 90.991 315.966 90.821C316.216 90.641 316.496 90.506 316.806 90.416C317.126 90.326 317.451 90.251 317.781 90.191C318.131 90.121 318.461 90.071 318.771 90.041C319.091 90.001 319.371 89.951 319.611 89.891C319.851 89.821 320.041 89.726 320.181 89.606C320.321 89.476 320.391 89.291 320.391 89.051C320.391 88.771 320.336 88.546 320.226 88.376C320.126 88.206 319.991 88.076 319.821 87.986C319.661 87.896 319.476 87.836 319.266 87.806C319.066 87.776 318.866 87.761 318.666 87.761C318.126 87.761 317.676 87.866 317.316 88.076C316.956 88.276 316.761 88.661 316.731 89.231H315.456C315.476 88.751 315.576 88.346 315.756 88.016C315.936 87.686 316.176 87.421 316.476 87.221C316.776 87.011 317.116 86.861 317.496 86.771C317.886 86.681 318.301 86.636 318.741 86.636C319.091 86.636 319.436 86.661 319.776 86.711C320.126 86.761 320.441 86.866 320.721 87.026C321.001 87.176 321.226 87.391 321.396 87.671C321.566 87.951 321.651 88.316 321.651 88.766V92.756C321.651 93.056 321.666 93.276 321.696 93.416C321.736 93.556 321.856 93.626 322.056 93.626C322.166 93.626 322.296 93.601 322.446 93.551V94.541ZM320.376 90.566C320.216 90.686 320.006 90.776 319.746 90.836C319.486 90.886 319.211 90.931 318.921 90.971C318.641 91.001 318.356 91.041 318.066 91.091C317.776 91.131 317.516 91.201 317.286 91.301C317.056 91.401 316.866 91.546 316.716 91.736C316.576 91.916 316.506 92.166 316.506 92.486C316.506 92.696 316.546 92.876 316.626 93.026C316.716 93.166 316.826 93.281 316.956 93.371C317.096 93.461 317.256 93.526 317.436 93.566C317.616 93.606 317.806 93.626 318.006 93.626C318.426 93.626 318.786 93.571 319.086 93.461C319.386 93.341 319.631 93.196 319.821 93.026C320.011 92.846 320.151 92.656 320.241 92.456C320.331 92.246 320.376 92.051 320.376 91.871V90.566ZM323.587 86.816H324.787V88.451H324.817C325.127 87.821 325.507 87.356 325.957 87.056C326.407 86.756 326.977 86.616 327.667 86.636V87.986C327.157 87.986 326.722 88.056 326.362 88.196C326.002 88.336 325.712 88.541 325.492 88.811C325.272 89.081 325.112 89.411 325.012 89.801C324.912 90.181 324.862 90.621 324.862 91.121V94.571H323.587V86.816ZM329.294 90.761C329.294 91.121 329.339 91.476 329.429 91.826C329.529 92.166 329.674 92.471 329.864 92.741C330.064 93.011 330.314 93.226 330.614 93.386C330.924 93.546 331.284 93.626 331.694 93.626C332.124 93.626 332.489 93.541 332.789 93.371C333.089 93.201 333.334 92.981 333.524 92.711C333.714 92.431 333.849 92.116 333.929 91.766C334.019 91.416 334.064 91.061 334.064 90.701C334.064 90.321 334.019 89.956 333.929 89.606C333.839 89.246 333.694 88.931 333.494 88.661C333.304 88.391 333.054 88.176 332.744 88.016C332.434 87.846 332.059 87.761 331.619 87.761C331.189 87.761 330.824 87.846 330.524 88.016C330.224 88.186 329.984 88.411 329.804 88.691C329.624 88.971 329.494 89.291 329.414 89.651C329.334 90.011 329.294 90.381 329.294 90.761ZM335.294 94.571H334.019V93.521H333.989C333.779 93.951 333.449 94.261 332.999 94.451C332.549 94.641 332.054 94.736 331.514 94.736C330.914 94.736 330.389 94.626 329.939 94.406C329.499 94.186 329.129 93.891 328.829 93.521C328.539 93.151 328.319 92.721 328.169 92.231C328.019 91.741 327.944 91.221 327.944 90.671C327.944 90.121 328.014 89.601 328.154 89.111C328.304 88.621 328.524 88.196 328.814 87.836C329.114 87.466 329.484 87.176 329.924 86.966C330.374 86.746 330.894 86.636 331.484 86.636C331.684 86.636 331.899 86.656 332.129 86.696C332.359 86.736 332.589 86.806 332.819 86.906C333.049 86.996 333.264 87.121 333.464 87.281C333.674 87.431 333.849 87.621 333.989 87.851H334.019V83.861H335.294V94.571Z" fill="#616F87"/>
</svg>
