<svg width="226" height="108" viewBox="0 0 226 108" fill="none" xmlns="http://www.w3.org/2000/svg">
<path d="M75.2045 38.358C75.2045 46.0284 73.8196 52.6572 71.0497 58.2443C68.2798 63.8314 64.4801 68.1402 59.6506 71.1705C54.821 74.2008 49.3049 75.7159 43.1023 75.7159C36.8996 75.7159 31.3835 74.2008 26.554 71.1705C21.7244 68.1402 17.9247 63.8314 15.1548 58.2443C12.3849 52.6572 11 46.0284 11 38.358C11 30.6875 12.3849 24.0587 15.1548 18.4716C17.9247 12.8845 21.7244 8.57576 26.554 5.54546C31.3835 2.51515 36.8996 1 43.1023 1C49.3049 1 54.821 2.51515 59.6506 5.54546C64.4801 8.57576 68.2798 12.8845 71.0497 18.4716C73.8196 24.0587 75.2045 30.6875 75.2045 38.358ZM66.6818 38.358C66.6818 32.0606 65.6283 26.7457 63.5213 22.4134C61.438 18.081 58.6089 14.8021 55.0341 12.5767C51.483 10.3513 47.5057 9.23864 43.1023 9.23864C38.6989 9.23864 34.7098 10.3513 31.1349 12.5767C27.5838 14.8021 24.7547 18.081 22.6477 22.4134C20.5644 26.7457 19.5227 32.0606 19.5227 38.358C19.5227 44.6553 20.5644 49.9702 22.6477 54.3026C24.7547 58.6349 27.5838 61.9138 31.1349 64.1392C34.7098 66.3646 38.6989 67.4773 43.1023 67.4773C47.5057 67.4773 51.483 66.3646 55.0341 64.1392C58.6089 61.9138 61.438 58.6349 63.5213 54.3026C65.6283 49.9702 66.6818 44.6553 66.6818 38.358Z" fill="#E2E8F0"/>
<path d="M214.205 38.358C214.205 46.0284 212.82 52.6572 210.05 58.2443C207.28 63.8314 203.48 68.1402 198.651 71.1705C193.821 74.2008 188.305 75.7159 182.102 75.7159C175.9 75.7159 170.384 74.2008 165.554 71.1705C160.724 68.1402 156.925 63.8314 154.155 58.2443C151.385 52.6572 150 46.0284 150 38.358C150 30.6875 151.385 24.0587 154.155 18.4716C156.925 12.8845 160.724 8.57576 165.554 5.54546C170.384 2.51515 175.9 1 182.102 1C188.305 1 193.821 2.51515 198.651 5.54546C203.48 8.57576 207.28 12.8845 210.05 18.4716C212.82 24.0587 214.205 30.6875 214.205 38.358ZM205.682 38.358C205.682 32.0606 204.628 26.7457 202.521 22.4134C200.438 18.081 197.609 14.8021 194.034 12.5767C190.483 10.3513 186.506 9.23864 182.102 9.23864C177.699 9.23864 173.71 10.3513 170.135 12.5767C166.584 14.8021 163.755 18.081 161.648 22.4134C159.564 26.7457 158.523 32.0606 158.523 38.358C158.523 44.6553 159.564 49.9702 161.648 54.3026C163.755 58.6349 166.584 61.9138 170.135 64.1392C173.71 66.3646 177.699 67.4773 182.102 67.4773C186.506 67.4773 190.483 66.3646 194.034 64.1392C197.609 61.9138 200.438 58.6349 202.521 54.3026C204.628 49.9702 205.682 44.6553 205.682 38.358Z" fill="#E2E8F0"/>
</svg>
