<svg width="226" height="108" viewBox="0 0 226 108" fill="none" xmlns="http://www.w3.org/2000/svg">
<path d="M201.655 1.27272H210.462V49.4261C210.462 54.3977 209.29 58.8366 206.946 62.7429C204.626 66.6255 201.347 69.6913 197.11 71.9403C192.872 74.1657 187.901 75.2784 182.195 75.2784C176.49 75.2784 171.518 74.1657 167.28 71.9403C163.043 69.6913 159.752 66.6255 157.408 62.7429C155.088 58.8366 153.928 54.3977 153.928 49.4261V1.27272H162.735V48.7159C162.735 52.267 163.516 55.4276 165.079 58.1974C166.641 60.9436 168.866 63.1098 171.755 64.696C174.667 66.2585 178.147 67.0398 182.195 67.0398C186.243 67.0398 189.723 66.2585 192.635 64.696C195.547 63.1098 197.773 60.9436 199.311 58.1974C200.874 55.4276 201.655 52.267 201.655 48.7159V1.27272Z" fill="#E2E8F0"/>
<path d="M62.5341 1.27272H71.3409V49.4261C71.3409 54.3977 70.169 58.8366 67.8253 62.7429C65.5052 66.6255 62.2263 69.6913 57.9886 71.9403C53.751 74.1657 48.7794 75.2784 43.0739 75.2784C37.3684 75.2784 32.3968 74.1657 28.1591 71.9403C23.9214 69.6913 20.6307 66.6255 18.2869 62.7429C15.9669 58.8366 14.8068 54.3977 14.8068 49.4261V1.27272H23.6136V48.7159C23.6136 52.267 24.3949 55.4276 25.9574 58.1974C27.5199 60.9436 29.7453 63.1098 32.6335 64.696C35.5455 66.2585 39.0256 67.0398 43.0739 67.0398C47.1222 67.0398 50.6023 66.2585 53.5142 64.696C56.4261 63.1098 58.6515 60.9436 60.1903 58.1974C61.7528 55.4276 62.5341 52.267 62.5341 48.7159V1.27272Z" fill="#E2E8F0"/>
</svg>
