<svg width="129" height="63" viewBox="0 0 129 63" fill="none" xmlns="http://www.w3.org/2000/svg">
<path d="M2.11688 8.58H8.74688L13.7569 23.31H13.8169L18.5569 8.58H25.1869V30H20.7769V14.82H20.7169L15.4669 30H11.8369L6.58688 14.97H6.52688V30H2.11688V8.58ZM28.7037 19.26C28.7637 18.26 29.0137 17.43 29.4537 16.77C29.8937 16.11 30.4537 15.58 31.1337 15.18C31.8137 14.78 32.5737 14.5 33.4137 14.34C34.2737 14.16 35.1337 14.07 35.9937 14.07C36.7737 14.07 37.5637 14.13 38.3637 14.25C39.1637 14.35 39.8937 14.56 40.5537 14.88C41.2137 15.2 41.7537 15.65 42.1737 16.23C42.5937 16.79 42.8037 17.54 42.8037 18.48V26.55C42.8037 27.25 42.8437 27.92 42.9237 28.56C43.0037 29.2 43.1437 29.68 43.3437 30H39.0237C38.9437 29.76 38.8737 29.52 38.8137 29.28C38.7737 29.02 38.7437 28.76 38.7237 28.5C38.0437 29.2 37.2437 29.69 36.3237 29.97C35.4037 30.25 34.4637 30.39 33.5037 30.39C32.7637 30.39 32.0737 30.3 31.4337 30.12C30.7937 29.94 30.2337 29.66 29.7537 29.28C29.2737 28.9 28.8937 28.42 28.6137 27.84C28.3537 27.26 28.2237 26.57 28.2237 25.77C28.2237 24.89 28.3737 24.17 28.6737 23.61C28.9937 23.03 29.3937 22.57 29.8737 22.23C30.3737 21.89 30.9337 21.64 31.5537 21.48C32.1937 21.3 32.8337 21.16 33.4737 21.06C34.1137 20.96 34.7437 20.88 35.3637 20.82C35.9837 20.76 36.5337 20.67 37.0137 20.55C37.4937 20.43 37.8737 20.26 38.1537 20.04C38.4337 19.8 38.5637 19.46 38.5437 19.02C38.5437 18.56 38.4637 18.2 38.3037 17.94C38.1637 17.66 37.9637 17.45 37.7037 17.31C37.4637 17.15 37.1737 17.05 36.8337 17.01C36.5137 16.95 36.1637 16.92 35.7837 16.92C34.9437 16.92 34.2837 17.1 33.8037 17.46C33.3237 17.82 33.0437 18.42 32.9637 19.26H28.7037ZM38.5437 22.41C38.3637 22.57 38.1337 22.7 37.8537 22.8C37.5937 22.88 37.3037 22.95 36.9837 23.01C36.6837 23.07 36.3637 23.12 36.0237 23.16C35.6837 23.2 35.3437 23.25 35.0037 23.31C34.6837 23.37 34.3637 23.45 34.0437 23.55C33.7437 23.65 33.4737 23.79 33.2337 23.97C33.0137 24.13 32.8337 24.34 32.6937 24.6C32.5537 24.86 32.4837 25.19 32.4837 25.59C32.4837 25.97 32.5537 26.29 32.6937 26.55C32.8337 26.81 33.0237 27.02 33.2637 27.18C33.5037 27.32 33.7837 27.42 34.1037 27.48C34.4237 27.54 34.7537 27.57 35.0937 27.57C35.9337 27.57 36.5837 27.43 37.0437 27.15C37.5037 26.87 37.8437 26.54 38.0637 26.16C38.2837 25.76 38.4137 25.36 38.4537 24.96C38.5137 24.56 38.5437 24.24 38.5437 24V22.41ZM56.6702 19.95C56.3902 18.17 55.3402 17.28 53.5202 17.28C52.8402 17.28 52.2702 17.44 51.8102 17.76C51.3502 18.06 50.9702 18.46 50.6702 18.96C50.3902 19.44 50.1902 19.98 50.0702 20.58C49.9502 21.16 49.8902 21.74 49.8902 22.32C49.8902 22.88 49.9502 23.45 50.0702 24.03C50.1902 24.61 50.3802 25.14 50.6402 25.62C50.9202 26.08 51.2902 26.46 51.7502 26.76C52.2102 27.06 52.7702 27.21 53.4302 27.21C54.4502 27.21 55.2302 26.93 55.7702 26.37C56.3302 25.79 56.6802 25.02 56.8202 24.06H60.9302C60.6502 26.12 59.8502 27.69 58.5302 28.77C57.2102 29.85 55.5202 30.39 53.4602 30.39C52.3002 30.39 51.2302 30.2 50.2502 29.82C49.2902 29.42 48.4702 28.87 47.7902 28.17C47.1102 27.47 46.5802 26.64 46.2002 25.68C45.8202 24.7 45.6302 23.63 45.6302 22.47C45.6302 21.27 45.8002 20.16 46.1402 19.14C46.5002 18.1 47.0202 17.21 47.7002 16.47C48.3802 15.71 49.2102 15.12 50.1902 14.7C51.1702 14.28 52.2902 14.07 53.5502 14.07C54.4702 14.07 55.3502 14.19 56.1902 14.43C57.0502 14.67 57.8102 15.04 58.4702 15.54C59.1502 16.02 59.7002 16.63 60.1202 17.37C60.5402 18.09 60.7802 18.95 60.8402 19.95H56.6702ZM63.3368 14.49H67.3868V17.37H67.4468C67.6468 16.89 67.9168 16.45 68.2568 16.05C68.5968 15.63 68.9868 15.28 69.4268 15C69.8668 14.7 70.3368 14.47 70.8368 14.31C71.3368 14.15 71.8568 14.07 72.3968 14.07C72.6768 14.07 72.9868 14.12 73.3268 14.22V18.18C73.1268 18.14 72.8868 18.11 72.6068 18.09C72.3268 18.05 72.0568 18.03 71.7968 18.03C71.0168 18.03 70.3568 18.16 69.8168 18.42C69.2768 18.68 68.8368 19.04 68.4968 19.5C68.1768 19.94 67.9468 20.46 67.8068 21.06C67.6668 21.66 67.5968 22.31 67.5968 23.01V30H63.3368V14.49ZM78.2496 22.26C78.2496 22.88 78.3096 23.49 78.4296 24.09C78.5496 24.67 78.7496 25.2 79.0296 25.68C79.3296 26.14 79.7196 26.51 80.1996 26.79C80.6796 27.07 81.2796 27.21 81.9996 27.21C82.7196 27.21 83.3196 27.07 83.7996 26.79C84.2996 26.51 84.6896 26.14 84.9696 25.68C85.2696 25.2 85.4796 24.67 85.5996 24.09C85.7196 23.49 85.7796 22.88 85.7796 22.26C85.7796 21.64 85.7196 21.03 85.5996 20.43C85.4796 19.83 85.2696 19.3 84.9696 18.84C84.6896 18.38 84.2996 18.01 83.7996 17.73C83.3196 17.43 82.7196 17.28 81.9996 17.28C81.2796 17.28 80.6796 17.43 80.1996 17.73C79.7196 18.01 79.3296 18.38 79.0296 18.84C78.7496 19.3 78.5496 19.83 78.4296 20.43C78.3096 21.03 78.2496 21.64 78.2496 22.26ZM73.9896 22.26C73.9896 21.02 74.1796 19.9 74.5596 18.9C74.9396 17.88 75.4796 17.02 76.1796 16.32C76.8796 15.6 77.7196 15.05 78.6996 14.67C79.6796 14.27 80.7796 14.07 81.9996 14.07C83.2196 14.07 84.3196 14.27 85.2996 14.67C86.2996 15.05 87.1496 15.6 87.8496 16.32C88.5496 17.02 89.0896 17.88 89.4696 18.9C89.8496 19.9 90.0396 21.02 90.0396 22.26C90.0396 23.5 89.8496 24.62 89.4696 25.62C89.0896 26.62 88.5496 27.48 87.8496 28.2C87.1496 28.9 86.2996 29.44 85.2996 29.82C84.3196 30.2 83.2196 30.39 81.9996 30.39C80.7796 30.39 79.6796 30.2 78.6996 29.82C77.7196 29.44 76.8796 28.9 76.1796 28.2C75.4796 27.48 74.9396 26.62 74.5596 25.62C74.1796 24.62 73.9896 23.5 73.9896 22.26ZM93.2595 8.58H95.8095V30H93.2595V8.58ZM110.53 20.76C110.49 20.16 110.35 19.59 110.11 19.05C109.89 18.51 109.58 18.05 109.18 17.67C108.8 17.27 108.34 16.96 107.8 16.74C107.28 16.5 106.7 16.38 106.06 16.38C105.4 16.38 104.8 16.5 104.26 16.74C103.74 16.96 103.29 17.27 102.91 17.67C102.53 18.07 102.23 18.54 102.01 19.08C101.79 19.6 101.66 20.16 101.62 20.76H110.53ZM112.99 25.08C112.65 26.82 111.9 28.13 110.74 29.01C109.58 29.89 108.12 30.33 106.36 30.33C105.12 30.33 104.04 30.13 103.12 29.73C102.22 29.33 101.46 28.77 100.84 28.05C100.22 27.33 99.7498 26.47 99.4298 25.47C99.1298 24.47 98.9598 23.38 98.9198 22.2C98.9198 21.02 99.0998 19.94 99.4598 18.96C99.8198 17.98 100.32 17.13 100.96 16.41C101.62 15.69 102.39 15.13 103.27 14.73C104.17 14.33 105.15 14.13 106.21 14.13C107.59 14.13 108.73 14.42 109.63 15C110.55 15.56 111.28 16.28 111.82 17.16C112.38 18.04 112.76 19 112.96 20.04C113.18 21.08 113.27 22.07 113.23 23.01H101.62C101.6 23.69 101.68 24.34 101.86 24.96C102.04 25.56 102.33 26.1 102.73 26.58C103.13 27.04 103.64 27.41 104.26 27.69C104.88 27.97 105.61 28.11 106.45 28.11C107.53 28.11 108.41 27.86 109.09 27.36C109.79 26.86 110.25 26.1 110.47 25.08H112.99ZM122.863 30H120.133L114.373 14.49H117.223L121.573 27.42H121.633L125.863 14.49H128.533L122.863 30Z" fill="white"/>
<path d="M40.2476 49.29H45.2876C46.3076 49.29 47.1026 49.54 47.6726 50.04C48.2526 50.54 48.5426 51.225 48.5426 52.095C48.5426 52.745 48.3926 53.315 48.0926 53.805C47.8026 54.295 47.3326 54.63 46.6826 54.81V54.84C46.9926 54.9 47.2426 55 47.4326 55.14C47.6326 55.28 47.7876 55.45 47.8976 55.65C48.0176 55.84 48.1026 56.055 48.1526 56.295C48.2126 56.535 48.2576 56.785 48.2876 57.045C48.3076 57.305 48.3226 57.57 48.3326 57.84C48.3426 58.11 48.3676 58.375 48.4076 58.635C48.4476 58.895 48.5026 59.145 48.5726 59.385C48.6526 59.615 48.7676 59.82 48.9176 60H47.3276C47.2276 59.89 47.1576 59.74 47.1176 59.55C47.0876 59.36 47.0676 59.15 47.0576 58.92C47.0476 58.68 47.0376 58.425 47.0276 58.155C47.0176 57.885 46.9876 57.62 46.9376 57.36C46.8976 57.1 46.8476 56.855 46.7876 56.625C46.7276 56.385 46.6326 56.18 46.5026 56.01C46.3726 55.83 46.2026 55.69 45.9926 55.59C45.7826 55.48 45.5026 55.425 45.1526 55.425H41.6726V60H40.2476V49.29ZM44.6426 54.225C44.9726 54.225 45.2876 54.2 45.5876 54.15C45.8876 54.1 46.1476 54.005 46.3676 53.865C46.5976 53.715 46.7776 53.52 46.9076 53.28C47.0476 53.03 47.1176 52.71 47.1176 52.32C47.1176 51.78 46.9676 51.34 46.6676 51C46.3676 50.66 45.8826 50.49 45.2126 50.49H41.6726V54.225H44.6426ZM55.6912 55.38C55.6712 55.08 55.6012 54.795 55.4812 54.525C55.3712 54.255 55.2162 54.025 55.0162 53.835C54.8262 53.635 54.5962 53.48 54.3262 53.37C54.0662 53.25 53.7762 53.19 53.4562 53.19C53.1262 53.19 52.8262 53.25 52.5562 53.37C52.2962 53.48 52.0712 53.635 51.8812 53.835C51.6912 54.035 51.5412 54.27 51.4312 54.54C51.3212 54.8 51.2562 55.08 51.2362 55.38H55.6912ZM56.9212 57.54C56.7512 58.41 56.3762 59.065 55.7962 59.505C55.2162 59.945 54.4862 60.165 53.6062 60.165C52.9862 60.165 52.4462 60.065 51.9862 59.865C51.5362 59.665 51.1562 59.385 50.8462 59.025C50.5362 58.665 50.3012 58.235 50.1412 57.735C49.9912 57.235 49.9062 56.69 49.8862 56.1C49.8862 55.51 49.9762 54.97 50.1562 54.48C50.3362 53.99 50.5862 53.565 50.9062 53.205C51.2362 52.845 51.6212 52.565 52.0612 52.365C52.5112 52.165 53.0012 52.065 53.5312 52.065C54.2212 52.065 54.7912 52.21 55.2412 52.5C55.7012 52.78 56.0662 53.14 56.3362 53.58C56.6162 54.02 56.8062 54.5 56.9062 55.02C57.0162 55.54 57.0612 56.035 57.0412 56.505H51.2362C51.2262 56.845 51.2662 57.17 51.3562 57.48C51.4462 57.78 51.5912 58.05 51.7912 58.29C51.9912 58.52 52.2462 58.705 52.5562 58.845C52.8662 58.985 53.2312 59.055 53.6512 59.055C54.1912 59.055 54.6312 58.93 54.9712 58.68C55.3212 58.43 55.5512 58.05 55.6612 57.54H56.9212ZM61.8578 60H60.4928L57.6128 52.245H59.0378L61.2128 58.71H61.2428L63.3578 52.245H64.6928L61.8578 60ZM69.7376 53.13C69.7076 52.59 69.7626 52.09 69.9026 51.63C70.0426 51.17 70.2576 50.775 70.5476 50.445C70.8476 50.105 71.2176 49.84 71.6576 49.65C72.0976 49.46 72.5976 49.365 73.1576 49.365C73.6176 49.365 74.0476 49.435 74.4476 49.575C74.8576 49.705 75.2126 49.9 75.5126 50.16C75.8126 50.41 76.0476 50.725 76.2176 51.105C76.3976 51.485 76.4876 51.925 76.4876 52.425C76.4876 52.895 76.4126 53.31 76.2626 53.67C76.1226 54.03 75.9326 54.355 75.6926 54.645C75.4526 54.925 75.1776 55.18 74.8676 55.41C74.5576 55.64 74.2376 55.86 73.9076 56.07C73.5776 56.27 73.2476 56.47 72.9176 56.67C72.5876 56.86 72.2826 57.065 72.0026 57.285C71.7326 57.505 71.4976 57.745 71.2976 58.005C71.1076 58.255 70.9826 58.545 70.9226 58.875H76.3826V60H69.4376C69.4876 59.37 69.5976 58.835 69.7676 58.395C69.9476 57.945 70.1726 57.555 70.4426 57.225C70.7126 56.895 71.0176 56.605 71.3576 56.355C71.6976 56.105 72.0526 55.87 72.4226 55.65C72.8726 55.37 73.2676 55.115 73.6076 54.885C73.9476 54.645 74.2276 54.405 74.4476 54.165C74.6776 53.925 74.8476 53.665 74.9576 53.385C75.0776 53.105 75.1376 52.78 75.1376 52.41C75.1376 52.12 75.0826 51.86 74.9726 51.63C74.8626 51.39 74.7126 51.185 74.5226 51.015C74.3426 50.845 74.1276 50.715 73.8776 50.625C73.6276 50.535 73.3626 50.49 73.0826 50.49C72.7126 50.49 72.3926 50.57 72.1226 50.73C71.8626 50.88 71.6476 51.08 71.4776 51.33C71.3076 51.58 71.1826 51.865 71.1026 52.185C71.0326 52.495 71.0026 52.81 71.0126 53.13H69.7376ZM78.6576 58.335H80.3226V60H78.6576V58.335ZM83.5674 54.765C83.5674 55.165 83.5774 55.615 83.5974 56.115C83.6274 56.605 83.7074 57.07 83.8374 57.51C83.9774 57.94 84.1974 58.305 84.4974 58.605C84.7974 58.905 85.2174 59.055 85.7574 59.055C86.2974 59.055 86.7174 58.905 87.0174 58.605C87.3174 58.305 87.5324 57.94 87.6624 57.51C87.8024 57.07 87.8824 56.605 87.9024 56.115C87.9324 55.615 87.9474 55.165 87.9474 54.765C87.9474 54.505 87.9424 54.22 87.9324 53.91C87.9324 53.59 87.9074 53.275 87.8574 52.965C87.8174 52.645 87.7524 52.335 87.6624 52.035C87.5824 51.735 87.4574 51.475 87.2874 51.255C87.1274 51.025 86.9224 50.84 86.6724 50.7C86.4224 50.56 86.1174 50.49 85.7574 50.49C85.3974 50.49 85.0924 50.56 84.8424 50.7C84.5924 50.84 84.3824 51.025 84.2124 51.255C84.0524 51.475 83.9274 51.735 83.8374 52.035C83.7574 52.335 83.6924 52.645 83.6424 52.965C83.6024 53.275 83.5774 53.59 83.5674 53.91C83.5674 54.22 83.5674 54.505 83.5674 54.765ZM82.2174 54.78C82.2174 54.39 82.2274 53.985 82.2474 53.565C82.2674 53.145 82.3174 52.735 82.3974 52.335C82.4774 51.935 82.5924 51.555 82.7424 51.195C82.8924 50.835 83.0974 50.52 83.3574 50.25C83.6174 49.98 83.9424 49.765 84.3324 49.605C84.7324 49.445 85.2074 49.365 85.7574 49.365C86.3074 49.365 86.7774 49.445 87.1674 49.605C87.5674 49.765 87.8974 49.98 88.1574 50.25C88.4174 50.52 88.6224 50.835 88.7724 51.195C88.9224 51.555 89.0374 51.935 89.1174 52.335C89.1974 52.735 89.2474 53.145 89.2674 53.565C89.2874 53.985 89.2974 54.39 89.2974 54.78C89.2974 55.17 89.2874 55.575 89.2674 55.995C89.2474 56.415 89.1974 56.825 89.1174 57.225C89.0374 57.625 88.9224 58.005 88.7724 58.365C88.6224 58.715 88.4174 59.025 88.1574 59.295C87.8974 59.565 87.5724 59.78 87.1824 59.94C86.7924 60.09 86.3174 60.165 85.7574 60.165C85.2074 60.165 84.7324 60.09 84.3324 59.94C83.9424 59.78 83.6174 59.565 83.3574 59.295C83.0974 59.025 82.8924 58.715 82.7424 58.365C82.5924 58.005 82.4774 57.625 82.3974 57.225C82.3174 56.825 82.2674 56.415 82.2474 55.995C82.2274 55.575 82.2174 55.17 82.2174 54.78Z" fill="white"/>
</svg>
