<svg width="343" height="116" viewBox="0 0 343 116" fill="none" xmlns="http://www.w3.org/2000/svg">
<rect x="0.5" y="57.4289" width="53" height="53" rx="3.5" stroke="white"/>
<rect x="56.5" y="57.4289" width="53" height="53" rx="3.5" stroke="white"/>
<rect x="112.5" y="57.4289" width="53" height="53" rx="3.5" stroke="white"/>
<rect x="40.5" y="1.42892" width="53" height="53" rx="3.5" stroke="white"/>
<path d="M64.1134 31.9289V31.1619L68.818 24.1392H64.0623V23.2017H70.0793V23.9687L65.3748 30.9914H70.1305V31.9289H64.1134Z" fill="white"/>
<path d="M24.2835 85.9289H25.4426L26.4142 87.2073L26.6698 87.5482L28.1187 89.4744H26.9596L26.0051 88.196L25.7664 87.8721L24.2835 85.9289ZM28.4767 84.2926C28.4767 85.213 28.3105 86.0085 27.9781 86.6789C27.6457 87.3494 27.1897 87.8664 26.6102 88.2301C26.0306 88.5937 25.3687 88.7755 24.6244 88.7755C23.8801 88.7755 23.2181 88.5937 22.6386 88.2301C22.0591 87.8664 21.6031 87.3494 21.2707 86.6789C20.9383 86.0085 20.7721 85.213 20.7721 84.2926C20.7721 83.3721 20.9383 82.5766 21.2707 81.9062C21.6031 81.2357 22.0591 80.7187 22.6386 80.3551C23.2181 79.9914 23.8801 79.8096 24.6244 79.8096C25.3687 79.8096 26.0306 79.9914 26.6102 80.3551C27.1897 80.7187 27.6457 81.2357 27.9781 81.9062C28.3105 82.5766 28.4767 83.3721 28.4767 84.2926ZM27.4539 84.2926C27.4539 83.5369 27.3275 82.8991 27.0747 82.3792C26.8247 81.8593 26.4852 81.4658 26.0562 81.1988C25.6301 80.9318 25.1528 80.7982 24.6244 80.7982C24.096 80.7982 23.6173 80.9318 23.1883 81.1988C22.7622 81.4658 22.4227 81.8593 22.1698 82.3792C21.9198 82.8991 21.7948 83.5369 21.7948 84.2926C21.7948 85.0482 21.9198 85.686 22.1698 86.2059C22.4227 86.7258 22.7622 87.1193 23.1883 87.3863C23.6173 87.6533 24.096 87.7869 24.6244 87.7869C25.1528 87.7869 25.6301 87.6533 26.0562 87.3863C26.4852 87.1193 26.8247 86.7258 27.0747 86.2059C27.3275 85.686 27.4539 85.0482 27.4539 84.2926Z" fill="white"/>
<path d="M83.9793 82.1107C83.9281 81.6789 83.7208 81.3437 83.3571 81.1051C82.9935 80.8664 82.5475 80.7471 82.019 80.7471C81.6327 80.7471 81.2946 80.8096 81.0048 80.9346C80.7179 81.0596 80.4935 81.2315 80.3315 81.4502C80.1725 81.669 80.0929 81.9176 80.0929 82.196C80.0929 82.4289 80.1483 82.6292 80.2591 82.7968C80.3727 82.9616 80.5176 83.0994 80.6938 83.2102C80.8699 83.3181 81.0546 83.4076 81.2477 83.4786C81.4409 83.5468 81.6185 83.6022 81.7804 83.6448L82.6668 83.8835C82.894 83.9431 83.1469 84.0255 83.4253 84.1306C83.7065 84.2357 83.975 84.3792 84.2307 84.561C84.4892 84.74 84.7023 84.9701 84.8699 85.2514C85.0375 85.5326 85.1213 85.8778 85.1213 86.2869C85.1213 86.7585 84.9977 87.1846 84.7506 87.5653C84.5063 87.946 84.1483 88.2485 83.6767 88.473C83.208 88.6974 82.6384 88.8096 81.9679 88.8096C81.3429 88.8096 80.8017 88.7087 80.3443 88.507C79.8898 88.3053 79.5318 88.0241 79.2705 87.6633C79.0119 87.3025 78.8656 86.8835 78.8315 86.4062H79.9225C79.9509 86.7357 80.0617 87.0085 80.2548 87.2244C80.4509 87.4374 80.698 87.5965 80.9963 87.7016C81.2975 87.8039 81.6213 87.8551 81.9679 87.8551C82.3713 87.8551 82.7335 87.7897 83.0546 87.659C83.3756 87.5255 83.6298 87.3408 83.8173 87.1051C84.0048 86.8664 84.0986 86.588 84.0986 86.2698C84.0986 85.9801 84.0176 85.7443 83.8557 85.5624C83.6938 85.3806 83.4807 85.2329 83.2165 85.1193C82.9523 85.0056 82.6668 84.9062 82.36 84.821L81.2861 84.5141C80.6043 84.3181 80.0645 84.0383 79.6668 83.6747C79.269 83.311 79.0702 82.8352 79.0702 82.2471C79.0702 81.7585 79.2023 81.3323 79.4665 80.9687C79.7335 80.6022 80.0915 80.3181 80.5404 80.1164C80.9921 79.9119 81.4963 79.8096 82.0531 79.8096C82.6156 79.8096 83.1156 79.9104 83.5531 80.1122C83.9906 80.311 84.3372 80.5837 84.5929 80.9303C84.8514 81.2769 84.9878 81.6704 85.002 82.1107H83.9793Z" fill="white"/>
<path d="M139.275 88.6562H136.582V79.9289H139.394C140.241 79.9289 140.965 80.1036 141.567 80.4531C142.17 80.7997 142.631 81.2982 142.952 81.9488C143.273 82.5965 143.434 83.3721 143.434 84.2755C143.434 85.1846 143.272 85.9673 142.948 86.6235C142.624 87.2769 142.153 87.7798 141.533 88.132C140.914 88.4815 140.161 88.6562 139.275 88.6562ZM137.639 87.7187H139.207C139.928 87.7187 140.526 87.5795 141.001 87.3011C141.475 87.0227 141.829 86.6264 142.062 86.1122C142.295 85.598 142.411 84.9857 142.411 84.2755C142.411 83.571 142.296 82.9644 142.066 82.4559C141.836 81.9445 141.492 81.5525 141.035 81.2798C140.577 81.0042 140.008 80.8664 139.326 80.8664H137.639V87.7187Z" fill="white"/>
<path d="M216.117 25.08H222.747L227.757 39.81H227.817L232.557 25.08H239.187V46.5H234.777V31.32H234.717L229.467 46.5H225.837L220.587 31.47H220.527V46.5H216.117V25.08ZM242.704 35.76C242.764 34.76 243.014 33.93 243.454 33.27C243.894 32.61 244.454 32.08 245.134 31.68C245.814 31.28 246.574 31 247.414 30.84C248.274 30.66 249.134 30.57 249.994 30.57C250.774 30.57 251.564 30.63 252.364 30.75C253.164 30.85 253.894 31.06 254.554 31.38C255.214 31.7 255.754 32.15 256.174 32.73C256.594 33.29 256.804 34.04 256.804 34.98V43.05C256.804 43.75 256.844 44.42 256.924 45.06C257.004 45.7 257.144 46.18 257.344 46.5H253.024C252.944 46.26 252.874 46.02 252.814 45.78C252.774 45.52 252.744 45.26 252.724 45C252.044 45.7 251.244 46.19 250.324 46.47C249.404 46.75 248.464 46.89 247.504 46.89C246.764 46.89 246.074 46.8 245.434 46.62C244.794 46.44 244.234 46.16 243.754 45.78C243.274 45.4 242.894 44.92 242.614 44.34C242.354 43.76 242.224 43.07 242.224 42.27C242.224 41.39 242.374 40.67 242.674 40.11C242.994 39.53 243.394 39.07 243.874 38.73C244.374 38.39 244.934 38.14 245.554 37.98C246.194 37.8 246.834 37.66 247.474 37.56C248.114 37.46 248.744 37.38 249.364 37.32C249.984 37.26 250.534 37.17 251.014 37.05C251.494 36.93 251.874 36.76 252.154 36.54C252.434 36.3 252.564 35.96 252.544 35.52C252.544 35.06 252.464 34.7 252.304 34.44C252.164 34.16 251.964 33.95 251.704 33.81C251.464 33.65 251.174 33.55 250.834 33.51C250.514 33.45 250.164 33.42 249.784 33.42C248.944 33.42 248.284 33.6 247.804 33.96C247.324 34.32 247.044 34.92 246.964 35.76H242.704ZM252.544 38.91C252.364 39.07 252.134 39.2 251.854 39.3C251.594 39.38 251.304 39.45 250.984 39.51C250.684 39.57 250.364 39.62 250.024 39.66C249.684 39.7 249.344 39.75 249.004 39.81C248.684 39.87 248.364 39.95 248.044 40.05C247.744 40.15 247.474 40.29 247.234 40.47C247.014 40.63 246.834 40.84 246.694 41.1C246.554 41.36 246.484 41.69 246.484 42.09C246.484 42.47 246.554 42.79 246.694 43.05C246.834 43.31 247.024 43.52 247.264 43.68C247.504 43.82 247.784 43.92 248.104 43.98C248.424 44.04 248.754 44.07 249.094 44.07C249.934 44.07 250.584 43.93 251.044 43.65C251.504 43.37 251.844 43.04 252.064 42.66C252.284 42.26 252.414 41.86 252.454 41.46C252.514 41.06 252.544 40.74 252.544 40.5V38.91ZM270.67 36.45C270.39 34.67 269.34 33.78 267.52 33.78C266.84 33.78 266.27 33.94 265.81 34.26C265.35 34.56 264.97 34.96 264.67 35.46C264.39 35.94 264.19 36.48 264.07 37.08C263.95 37.66 263.89 38.24 263.89 38.82C263.89 39.38 263.95 39.95 264.07 40.53C264.19 41.11 264.38 41.64 264.64 42.12C264.92 42.58 265.29 42.96 265.75 43.26C266.21 43.56 266.77 43.71 267.43 43.71C268.45 43.71 269.23 43.43 269.77 42.87C270.33 42.29 270.68 41.52 270.82 40.56H274.93C274.65 42.62 273.85 44.19 272.53 45.27C271.21 46.35 269.52 46.89 267.46 46.89C266.3 46.89 265.23 46.7 264.25 46.32C263.29 45.92 262.47 45.37 261.79 44.67C261.11 43.97 260.58 43.14 260.2 42.18C259.82 41.2 259.63 40.13 259.63 38.97C259.63 37.77 259.8 36.66 260.14 35.64C260.5 34.6 261.02 33.71 261.7 32.97C262.38 32.21 263.21 31.62 264.19 31.2C265.17 30.78 266.29 30.57 267.55 30.57C268.47 30.57 269.35 30.69 270.19 30.93C271.05 31.17 271.81 31.54 272.47 32.04C273.15 32.52 273.7 33.13 274.12 33.87C274.54 34.59 274.78 35.45 274.84 36.45H270.67ZM277.337 30.99H281.387V33.87H281.447C281.647 33.39 281.917 32.95 282.257 32.55C282.597 32.13 282.987 31.78 283.427 31.5C283.867 31.2 284.337 30.97 284.837 30.81C285.337 30.65 285.857 30.57 286.397 30.57C286.677 30.57 286.987 30.62 287.327 30.72V34.68C287.127 34.64 286.887 34.61 286.607 34.59C286.327 34.55 286.057 34.53 285.797 34.53C285.017 34.53 284.357 34.66 283.817 34.92C283.277 35.18 282.837 35.54 282.497 36C282.177 36.44 281.947 36.96 281.807 37.56C281.667 38.16 281.597 38.81 281.597 39.51V46.5H277.337V30.99ZM292.25 38.76C292.25 39.38 292.31 39.99 292.43 40.59C292.55 41.17 292.75 41.7 293.03 42.18C293.33 42.64 293.72 43.01 294.2 43.29C294.68 43.57 295.28 43.71 296 43.71C296.72 43.71 297.32 43.57 297.8 43.29C298.3 43.01 298.69 42.64 298.97 42.18C299.27 41.7 299.48 41.17 299.6 40.59C299.72 39.99 299.78 39.38 299.78 38.76C299.78 38.14 299.72 37.53 299.6 36.93C299.48 36.33 299.27 35.8 298.97 35.34C298.69 34.88 298.3 34.51 297.8 34.23C297.32 33.93 296.72 33.78 296 33.78C295.28 33.78 294.68 33.93 294.2 34.23C293.72 34.51 293.33 34.88 293.03 35.34C292.75 35.8 292.55 36.33 292.43 36.93C292.31 37.53 292.25 38.14 292.25 38.76ZM287.99 38.76C287.99 37.52 288.18 36.4 288.56 35.4C288.94 34.38 289.48 33.52 290.18 32.82C290.88 32.1 291.72 31.55 292.7 31.17C293.68 30.77 294.78 30.57 296 30.57C297.22 30.57 298.32 30.77 299.3 31.17C300.3 31.55 301.15 32.1 301.85 32.82C302.55 33.52 303.09 34.38 303.47 35.4C303.85 36.4 304.04 37.52 304.04 38.76C304.04 40 303.85 41.12 303.47 42.12C303.09 43.12 302.55 43.98 301.85 44.7C301.15 45.4 300.3 45.94 299.3 46.32C298.32 46.7 297.22 46.89 296 46.89C294.78 46.89 293.68 46.7 292.7 46.32C291.72 45.94 290.88 45.4 290.18 44.7C289.48 43.98 288.94 43.12 288.56 42.12C288.18 41.12 287.99 40 287.99 38.76ZM307.259 25.08H309.809V46.5H307.259V25.08ZM324.53 37.26C324.49 36.66 324.35 36.09 324.11 35.55C323.89 35.01 323.58 34.55 323.18 34.17C322.8 33.77 322.34 33.46 321.8 33.24C321.28 33 320.7 32.88 320.06 32.88C319.4 32.88 318.8 33 318.26 33.24C317.74 33.46 317.29 33.77 316.91 34.17C316.53 34.57 316.23 35.04 316.01 35.58C315.79 36.1 315.66 36.66 315.62 37.26H324.53ZM326.99 41.58C326.65 43.32 325.9 44.63 324.74 45.51C323.58 46.39 322.12 46.83 320.36 46.83C319.12 46.83 318.04 46.63 317.12 46.23C316.22 45.83 315.46 45.27 314.84 44.55C314.22 43.83 313.75 42.97 313.43 41.97C313.13 40.97 312.96 39.88 312.92 38.7C312.92 37.52 313.1 36.44 313.46 35.46C313.82 34.48 314.32 33.63 314.96 32.91C315.62 32.19 316.39 31.63 317.27 31.23C318.17 30.83 319.15 30.63 320.21 30.63C321.59 30.63 322.73 30.92 323.63 31.5C324.55 32.06 325.28 32.78 325.82 33.66C326.38 34.54 326.76 35.5 326.96 36.54C327.18 37.58 327.27 38.57 327.23 39.51H315.62C315.6 40.19 315.68 40.84 315.86 41.46C316.04 42.06 316.33 42.6 316.73 43.08C317.13 43.54 317.64 43.91 318.26 44.19C318.88 44.47 319.61 44.61 320.45 44.61C321.53 44.61 322.41 44.36 323.09 43.86C323.79 43.36 324.25 42.6 324.47 41.58H326.99ZM336.863 46.5H334.133L328.373 30.99H331.223L335.573 43.92H335.633L339.863 30.99H342.533L336.863 46.5Z" fill="white"/>
<path d="M254.248 65.79H259.288C260.308 65.79 261.103 66.04 261.673 66.54C262.253 67.04 262.543 67.725 262.543 68.595C262.543 69.245 262.393 69.815 262.093 70.305C261.803 70.795 261.333 71.13 260.683 71.31V71.34C260.993 71.4 261.243 71.5 261.433 71.64C261.633 71.78 261.788 71.95 261.898 72.15C262.018 72.34 262.103 72.555 262.153 72.795C262.213 73.035 262.258 73.285 262.288 73.545C262.308 73.805 262.323 74.07 262.333 74.34C262.343 74.61 262.368 74.875 262.408 75.135C262.448 75.395 262.503 75.645 262.573 75.885C262.653 76.115 262.768 76.32 262.918 76.5H261.328C261.228 76.39 261.158 76.24 261.118 76.05C261.088 75.86 261.068 75.65 261.058 75.42C261.048 75.18 261.038 74.925 261.028 74.655C261.018 74.385 260.988 74.12 260.938 73.86C260.898 73.6 260.848 73.355 260.788 73.125C260.728 72.885 260.633 72.68 260.503 72.51C260.373 72.33 260.203 72.19 259.993 72.09C259.783 71.98 259.503 71.925 259.153 71.925H255.673V76.5H254.248V65.79ZM258.643 70.725C258.973 70.725 259.288 70.7 259.588 70.65C259.888 70.6 260.148 70.505 260.368 70.365C260.598 70.215 260.778 70.02 260.908 69.78C261.048 69.53 261.118 69.21 261.118 68.82C261.118 68.28 260.968 67.84 260.668 67.5C260.368 67.16 259.883 66.99 259.213 66.99H255.673V70.725H258.643ZM269.691 71.88C269.671 71.58 269.601 71.295 269.481 71.025C269.371 70.755 269.216 70.525 269.016 70.335C268.826 70.135 268.596 69.98 268.326 69.87C268.066 69.75 267.776 69.69 267.456 69.69C267.126 69.69 266.826 69.75 266.556 69.87C266.296 69.98 266.071 70.135 265.881 70.335C265.691 70.535 265.541 70.77 265.431 71.04C265.321 71.3 265.256 71.58 265.236 71.88H269.691ZM270.921 74.04C270.751 74.91 270.376 75.565 269.796 76.005C269.216 76.445 268.486 76.665 267.606 76.665C266.986 76.665 266.446 76.565 265.986 76.365C265.536 76.165 265.156 75.885 264.846 75.525C264.536 75.165 264.301 74.735 264.141 74.235C263.991 73.735 263.906 73.19 263.886 72.6C263.886 72.01 263.976 71.47 264.156 70.98C264.336 70.49 264.586 70.065 264.906 69.705C265.236 69.345 265.621 69.065 266.061 68.865C266.511 68.665 267.001 68.565 267.531 68.565C268.221 68.565 268.791 68.71 269.241 69C269.701 69.28 270.066 69.64 270.336 70.08C270.616 70.52 270.806 71 270.906 71.52C271.016 72.04 271.061 72.535 271.041 73.005H265.236C265.226 73.345 265.266 73.67 265.356 73.98C265.446 74.28 265.591 74.55 265.791 74.79C265.991 75.02 266.246 75.205 266.556 75.345C266.866 75.485 267.231 75.555 267.651 75.555C268.191 75.555 268.631 75.43 268.971 75.18C269.321 74.93 269.551 74.55 269.661 74.04H270.921ZM275.858 76.5H274.493L271.613 68.745H273.038L275.213 75.21H275.243L277.358 68.745H278.693L275.858 76.5ZM283.738 69.63C283.708 69.09 283.763 68.59 283.903 68.13C284.043 67.67 284.258 67.275 284.548 66.945C284.848 66.605 285.218 66.34 285.658 66.15C286.098 65.96 286.598 65.865 287.158 65.865C287.618 65.865 288.048 65.935 288.448 66.075C288.858 66.205 289.213 66.4 289.513 66.66C289.813 66.91 290.048 67.225 290.218 67.605C290.398 67.985 290.488 68.425 290.488 68.925C290.488 69.395 290.413 69.81 290.263 70.17C290.123 70.53 289.933 70.855 289.693 71.145C289.453 71.425 289.178 71.68 288.868 71.91C288.558 72.14 288.238 72.36 287.908 72.57C287.578 72.77 287.248 72.97 286.918 73.17C286.588 73.36 286.283 73.565 286.003 73.785C285.733 74.005 285.498 74.245 285.298 74.505C285.108 74.755 284.983 75.045 284.923 75.375H290.383V76.5H283.438C283.488 75.87 283.598 75.335 283.768 74.895C283.948 74.445 284.173 74.055 284.443 73.725C284.713 73.395 285.018 73.105 285.358 72.855C285.698 72.605 286.053 72.37 286.423 72.15C286.873 71.87 287.268 71.615 287.608 71.385C287.948 71.145 288.228 70.905 288.448 70.665C288.678 70.425 288.848 70.165 288.958 69.885C289.078 69.605 289.138 69.28 289.138 68.91C289.138 68.62 289.083 68.36 288.973 68.13C288.863 67.89 288.713 67.685 288.523 67.515C288.343 67.345 288.128 67.215 287.878 67.125C287.628 67.035 287.363 66.99 287.083 66.99C286.713 66.99 286.393 67.07 286.123 67.23C285.863 67.38 285.648 67.58 285.478 67.83C285.308 68.08 285.183 68.365 285.103 68.685C285.033 68.995 285.003 69.31 285.013 69.63H283.738ZM292.658 74.835H294.323V76.5H292.658V74.835ZM297.567 71.265C297.567 71.665 297.577 72.115 297.597 72.615C297.627 73.105 297.707 73.57 297.837 74.01C297.977 74.44 298.197 74.805 298.497 75.105C298.797 75.405 299.217 75.555 299.757 75.555C300.297 75.555 300.717 75.405 301.017 75.105C301.317 74.805 301.532 74.44 301.662 74.01C301.802 73.57 301.882 73.105 301.902 72.615C301.932 72.115 301.947 71.665 301.947 71.265C301.947 71.005 301.942 70.72 301.932 70.41C301.932 70.09 301.907 69.775 301.857 69.465C301.817 69.145 301.752 68.835 301.662 68.535C301.582 68.235 301.457 67.975 301.287 67.755C301.127 67.525 300.922 67.34 300.672 67.2C300.422 67.06 300.117 66.99 299.757 66.99C299.397 66.99 299.092 67.06 298.842 67.2C298.592 67.34 298.382 67.525 298.212 67.755C298.052 67.975 297.927 68.235 297.837 68.535C297.757 68.835 297.692 69.145 297.642 69.465C297.602 69.775 297.577 70.09 297.567 70.41C297.567 70.72 297.567 71.005 297.567 71.265ZM296.217 71.28C296.217 70.89 296.227 70.485 296.247 70.065C296.267 69.645 296.317 69.235 296.397 68.835C296.477 68.435 296.592 68.055 296.742 67.695C296.892 67.335 297.097 67.02 297.357 66.75C297.617 66.48 297.942 66.265 298.332 66.105C298.732 65.945 299.207 65.865 299.757 65.865C300.307 65.865 300.777 65.945 301.167 66.105C301.567 66.265 301.897 66.48 302.157 66.75C302.417 67.02 302.622 67.335 302.772 67.695C302.922 68.055 303.037 68.435 303.117 68.835C303.197 69.235 303.247 69.645 303.267 70.065C303.287 70.485 303.297 70.89 303.297 71.28C303.297 71.67 303.287 72.075 303.267 72.495C303.247 72.915 303.197 73.325 303.117 73.725C303.037 74.125 302.922 74.505 302.772 74.865C302.622 75.215 302.417 75.525 302.157 75.795C301.897 76.065 301.572 76.28 301.182 76.44C300.792 76.59 300.317 76.665 299.757 76.665C299.207 76.665 298.732 76.59 298.332 76.44C297.942 76.28 297.617 76.065 297.357 75.795C297.097 75.525 296.892 75.215 296.742 74.865C296.592 74.505 296.477 74.125 296.397 73.725C296.317 73.325 296.267 72.915 296.247 72.495C296.227 72.075 296.217 71.67 296.217 71.28Z" fill="white"/>
<path d="M221.214 90.36H222.164V96.7H225.944V97.5H221.214V90.36ZM231.21 97.48C231.064 97.5667 230.86 97.61 230.6 97.61C230.38 97.61 230.204 97.55 230.07 97.43C229.944 97.3033 229.88 97.1 229.88 96.82C229.647 97.1 229.374 97.3033 229.06 97.43C228.754 97.55 228.42 97.61 228.06 97.61C227.827 97.61 227.604 97.5833 227.39 97.53C227.184 97.4767 227.004 97.3933 226.85 97.28C226.697 97.1667 226.574 97.02 226.48 96.84C226.394 96.6533 226.35 96.43 226.35 96.17C226.35 95.8767 226.4 95.6367 226.5 95.45C226.6 95.2633 226.73 95.1133 226.89 95C227.057 94.88 227.244 94.79 227.45 94.73C227.664 94.67 227.88 94.62 228.1 94.58C228.334 94.5333 228.554 94.5 228.76 94.48C228.974 94.4533 229.16 94.42 229.32 94.38C229.48 94.3333 229.607 94.27 229.7 94.19C229.794 94.1033 229.84 93.98 229.84 93.82C229.84 93.6333 229.804 93.4833 229.73 93.37C229.664 93.2567 229.574 93.17 229.46 93.11C229.354 93.05 229.23 93.01 229.09 92.99C228.957 92.97 228.824 92.96 228.69 92.96C228.33 92.96 228.03 93.03 227.79 93.17C227.55 93.3033 227.42 93.56 227.4 93.94H226.55C226.564 93.62 226.63 93.35 226.75 93.13C226.87 92.91 227.03 92.7333 227.23 92.6C227.43 92.46 227.657 92.36 227.91 92.3C228.17 92.24 228.447 92.21 228.74 92.21C228.974 92.21 229.204 92.2267 229.43 92.26C229.664 92.2933 229.874 92.3633 230.06 92.47C230.247 92.57 230.397 92.7133 230.51 92.9C230.624 93.0867 230.68 93.33 230.68 93.63V96.29C230.68 96.49 230.69 96.6367 230.71 96.73C230.737 96.8233 230.817 96.87 230.95 96.87C231.024 96.87 231.11 96.8533 231.21 96.82V97.48ZM229.83 94.83C229.724 94.91 229.584 94.97 229.41 95.01C229.237 95.0433 229.054 95.0733 228.86 95.1C228.674 95.12 228.484 95.1467 228.29 95.18C228.097 95.2067 227.924 95.2533 227.77 95.32C227.617 95.3867 227.49 95.4833 227.39 95.61C227.297 95.73 227.25 95.8967 227.25 96.11C227.25 96.25 227.277 96.37 227.33 96.47C227.39 96.5633 227.464 96.64 227.55 96.7C227.644 96.76 227.75 96.8033 227.87 96.83C227.99 96.8567 228.117 96.87 228.25 96.87C228.53 96.87 228.77 96.8333 228.97 96.76C229.17 96.68 229.334 96.5833 229.46 96.47C229.587 96.35 229.68 96.2233 229.74 96.09C229.8 95.95 229.83 95.82 229.83 95.7V94.83ZM234.031 98.19C233.931 98.4433 233.831 98.6567 233.731 98.83C233.638 99.0033 233.531 99.1433 233.411 99.25C233.298 99.3633 233.168 99.4433 233.021 99.49C232.881 99.5433 232.718 99.57 232.531 99.57C232.431 99.57 232.331 99.5633 232.231 99.55C232.131 99.5367 232.035 99.5133 231.941 99.48V98.7C232.015 98.7333 232.098 98.76 232.191 98.78C232.291 98.8067 232.375 98.82 232.441 98.82C232.615 98.82 232.758 98.7767 232.871 98.69C232.991 98.61 233.081 98.4933 233.141 98.34L233.491 97.47L231.441 92.33H232.401L233.911 96.56H233.931L235.381 92.33H236.281L234.031 98.19ZM237.621 94.92C237.621 95.2333 237.661 95.5133 237.741 95.76C237.828 96 237.945 96.2033 238.091 96.37C238.238 96.53 238.408 96.6533 238.601 96.74C238.801 96.8267 239.011 96.87 239.231 96.87C239.451 96.87 239.658 96.8267 239.851 96.74C240.051 96.6533 240.225 96.53 240.371 96.37C240.518 96.2033 240.631 96 240.711 95.76C240.798 95.5133 240.841 95.2333 240.841 94.92C240.841 94.6067 240.798 94.33 240.711 94.09C240.631 93.8433 240.518 93.6367 240.371 93.47C240.225 93.3033 240.051 93.1767 239.851 93.09C239.658 93.0033 239.451 92.96 239.231 92.96C239.011 92.96 238.801 93.0033 238.601 93.09C238.408 93.1767 238.238 93.3033 238.091 93.47C237.945 93.6367 237.828 93.8433 237.741 94.09C237.661 94.33 237.621 94.6067 237.621 94.92ZM236.721 94.92C236.721 94.54 236.775 94.1867 236.881 93.86C236.988 93.5267 237.148 93.24 237.361 93C237.575 92.7533 237.838 92.56 238.151 92.42C238.465 92.28 238.825 92.21 239.231 92.21C239.645 92.21 240.005 92.28 240.311 92.42C240.625 92.56 240.888 92.7533 241.101 93C241.315 93.24 241.475 93.5267 241.581 93.86C241.688 94.1867 241.741 94.54 241.741 94.92C241.741 95.3 241.688 95.6533 241.581 95.98C241.475 96.3067 241.315 96.5933 241.101 96.84C240.888 97.08 240.625 97.27 240.311 97.41C240.005 97.5433 239.645 97.61 239.231 97.61C238.825 97.61 238.465 97.5433 238.151 97.41C237.838 97.27 237.575 97.08 237.361 96.84C237.148 96.5933 236.988 96.3067 236.881 95.98C236.775 95.6533 236.721 95.3 236.721 94.92ZM247.024 97.5H246.224V96.68H246.204C246.024 97 245.794 97.2367 245.514 97.39C245.234 97.5367 244.904 97.61 244.524 97.61C244.184 97.61 243.9 97.5667 243.674 97.48C243.447 97.3867 243.264 97.2567 243.124 97.09C242.984 96.9233 242.884 96.7267 242.824 96.5C242.77 96.2667 242.744 96.01 242.744 95.73V92.33H243.594V95.83C243.594 96.15 243.687 96.4033 243.874 96.59C244.06 96.7767 244.317 96.87 244.644 96.87C244.904 96.87 245.127 96.83 245.314 96.75C245.507 96.67 245.667 96.5567 245.794 96.41C245.92 96.2633 246.014 96.0933 246.074 95.9C246.14 95.7 246.174 95.4833 246.174 95.25V92.33H247.024V97.5ZM249.48 92.33H250.51V93.08H249.48V96.29C249.48 96.39 249.487 96.47 249.5 96.53C249.52 96.59 249.553 96.6367 249.6 96.67C249.647 96.7033 249.71 96.7267 249.79 96.74C249.877 96.7467 249.987 96.75 250.12 96.75H250.51V97.5H249.86C249.64 97.5 249.45 97.4867 249.29 97.46C249.137 97.4267 249.01 97.37 248.91 97.29C248.817 97.21 248.747 97.0967 248.7 96.95C248.653 96.8033 248.63 96.61 248.63 96.37V93.08H247.75V92.33H248.63V90.78H249.48V92.33ZM254.398 90.36H255.698L257.948 96.36L260.208 90.36H261.508V97.5H260.608V91.56H260.588L258.358 97.5H257.548L255.318 91.56H255.298V97.5H254.398V90.36ZM267.529 97.48C267.382 97.5667 267.179 97.61 266.919 97.61C266.699 97.61 266.522 97.55 266.389 97.43C266.262 97.3033 266.199 97.1 266.199 96.82C265.965 97.1 265.692 97.3033 265.379 97.43C265.072 97.55 264.739 97.61 264.379 97.61C264.145 97.61 263.922 97.5833 263.709 97.53C263.502 97.4767 263.322 97.3933 263.169 97.28C263.015 97.1667 262.892 97.02 262.799 96.84C262.712 96.6533 262.669 96.43 262.669 96.17C262.669 95.8767 262.719 95.6367 262.819 95.45C262.919 95.2633 263.049 95.1133 263.209 95C263.375 94.88 263.562 94.79 263.769 94.73C263.982 94.67 264.199 94.62 264.419 94.58C264.652 94.5333 264.872 94.5 265.079 94.48C265.292 94.4533 265.479 94.42 265.639 94.38C265.799 94.3333 265.925 94.27 266.019 94.19C266.112 94.1033 266.159 93.98 266.159 93.82C266.159 93.6333 266.122 93.4833 266.049 93.37C265.982 93.2567 265.892 93.17 265.779 93.11C265.672 93.05 265.549 93.01 265.409 92.99C265.275 92.97 265.142 92.96 265.009 92.96C264.649 92.96 264.349 93.03 264.109 93.17C263.869 93.3033 263.739 93.56 263.719 93.94H262.869C262.882 93.62 262.949 93.35 263.069 93.13C263.189 92.91 263.349 92.7333 263.549 92.6C263.749 92.46 263.975 92.36 264.229 92.3C264.489 92.24 264.765 92.21 265.059 92.21C265.292 92.21 265.522 92.2267 265.749 92.26C265.982 92.2933 266.192 92.3633 266.379 92.47C266.565 92.57 266.715 92.7133 266.829 92.9C266.942 93.0867 266.999 93.33 266.999 93.63V96.29C266.999 96.49 267.009 96.6367 267.029 96.73C267.055 96.8233 267.135 96.87 267.269 96.87C267.342 96.87 267.429 96.8533 267.529 96.82V97.48ZM266.149 94.83C266.042 94.91 265.902 94.97 265.729 95.01C265.555 95.0433 265.372 95.0733 265.179 95.1C264.992 95.12 264.802 95.1467 264.609 95.18C264.415 95.2067 264.242 95.2533 264.089 95.32C263.935 95.3867 263.809 95.4833 263.709 95.61C263.615 95.73 263.569 95.8967 263.569 96.11C263.569 96.25 263.595 96.37 263.649 96.47C263.709 96.5633 263.782 96.64 263.869 96.7C263.962 96.76 264.069 96.8033 264.189 96.83C264.309 96.8567 264.435 96.87 264.569 96.87C264.849 96.87 265.089 96.8333 265.289 96.76C265.489 96.68 265.652 96.5833 265.779 96.47C265.905 96.35 265.999 96.2233 266.059 96.09C266.119 95.95 266.149 95.82 266.149 95.7V94.83ZM271.83 93.99C271.763 93.6633 271.623 93.41 271.41 93.23C271.196 93.05 270.91 92.96 270.55 92.96C270.243 92.96 269.986 93.0167 269.78 93.13C269.573 93.2433 269.406 93.3933 269.28 93.58C269.16 93.7667 269.073 93.9833 269.02 94.23C268.966 94.47 268.94 94.72 268.94 94.98C268.94 95.22 268.966 95.4533 269.02 95.68C269.08 95.9067 269.17 96.11 269.29 96.29C269.41 96.4633 269.566 96.6033 269.76 96.71C269.953 96.8167 270.183 96.87 270.45 96.87C270.87 96.87 271.196 96.76 271.43 96.54C271.67 96.32 271.816 96.01 271.87 95.61H272.74C272.646 96.25 272.406 96.7433 272.02 97.09C271.64 97.4367 271.12 97.61 270.46 97.61C270.066 97.61 269.716 97.5467 269.41 97.42C269.11 97.2933 268.856 97.1133 268.65 96.88C268.45 96.6467 268.296 96.37 268.19 96.05C268.09 95.7233 268.04 95.3667 268.04 94.98C268.04 94.5933 268.09 94.2333 268.19 93.9C268.29 93.56 268.44 93.2667 268.64 93.02C268.846 92.7667 269.103 92.57 269.41 92.43C269.716 92.2833 270.073 92.21 270.48 92.21C270.773 92.21 271.046 92.2467 271.3 92.32C271.56 92.3867 271.786 92.4933 271.98 92.64C272.18 92.7867 272.343 92.9733 272.47 93.2C272.596 93.42 272.676 93.6833 272.71 93.99H271.83ZM276.654 90.36H277.604V97.5H276.654V90.36ZM283.332 92.45C283.279 91.9367 283.092 91.5667 282.772 91.34C282.459 91.1067 282.055 90.99 281.562 90.99C281.362 90.99 281.165 91.01 280.972 91.05C280.779 91.09 280.605 91.1567 280.452 91.25C280.305 91.3433 280.185 91.47 280.092 91.63C280.005 91.7833 279.962 91.9767 279.962 92.21C279.962 92.43 280.025 92.61 280.152 92.75C280.285 92.8833 280.459 92.9933 280.672 93.08C280.892 93.1667 281.139 93.24 281.412 93.3C281.685 93.3533 281.962 93.4133 282.242 93.48C282.529 93.5467 282.809 93.6267 283.082 93.72C283.355 93.8067 283.599 93.9267 283.812 94.08C284.032 94.2333 284.205 94.4267 284.332 94.66C284.465 94.8933 284.532 95.1867 284.532 95.54C284.532 95.92 284.445 96.2467 284.272 96.52C284.105 96.7867 283.889 97.0067 283.622 97.18C283.355 97.3467 283.055 97.4667 282.722 97.54C282.395 97.62 282.069 97.66 281.742 97.66C281.342 97.66 280.962 97.61 280.602 97.51C280.249 97.41 279.935 97.26 279.662 97.06C279.395 96.8533 279.182 96.5933 279.022 96.28C278.869 95.96 278.792 95.5833 278.792 95.15H279.692C279.692 95.45 279.749 95.71 279.862 95.93C279.982 96.1433 280.135 96.32 280.322 96.46C280.515 96.6 280.739 96.7033 280.992 96.77C281.245 96.8367 281.505 96.87 281.772 96.87C281.985 96.87 282.199 96.85 282.412 96.81C282.632 96.77 282.829 96.7033 283.002 96.61C283.175 96.51 283.315 96.3767 283.422 96.21C283.529 96.0433 283.582 95.83 283.582 95.57C283.582 95.3233 283.515 95.1233 283.382 94.97C283.255 94.8167 283.082 94.6933 282.862 94.6C282.649 94.5 282.405 94.42 282.132 94.36C281.859 94.3 281.579 94.24 281.292 94.18C281.012 94.1133 280.735 94.04 280.462 93.96C280.189 93.8733 279.942 93.7633 279.722 93.63C279.509 93.49 279.335 93.3133 279.202 93.1C279.075 92.88 279.012 92.6067 279.012 92.28C279.012 91.92 279.085 91.61 279.232 91.35C279.379 91.0833 279.572 90.8667 279.812 90.7C280.059 90.5267 280.335 90.4 280.642 90.32C280.955 90.2333 281.275 90.19 281.602 90.19C281.969 90.19 282.309 90.2333 282.622 90.32C282.935 90.4067 283.209 90.5433 283.442 90.73C283.682 90.9167 283.869 91.1533 284.002 91.44C284.142 91.72 284.219 92.0567 284.232 92.45H283.332ZM286.236 93.93C286.236 94.29 286.283 94.6467 286.376 95C286.47 95.3467 286.616 95.66 286.816 95.94C287.016 96.22 287.273 96.4467 287.586 96.62C287.9 96.7867 288.273 96.87 288.706 96.87C289.14 96.87 289.513 96.7867 289.826 96.62C290.14 96.4467 290.396 96.22 290.596 95.94C290.796 95.66 290.943 95.3467 291.036 95C291.13 94.6467 291.176 94.29 291.176 93.93C291.176 93.57 291.13 93.2167 291.036 92.87C290.943 92.5167 290.796 92.2 290.596 91.92C290.396 91.64 290.14 91.4167 289.826 91.25C289.513 91.0767 289.14 90.99 288.706 90.99C288.273 90.99 287.9 91.0767 287.586 91.25C287.273 91.4167 287.016 91.64 286.816 91.92C286.616 92.2 286.47 92.5167 286.376 92.87C286.283 93.2167 286.236 93.57 286.236 93.93ZM285.286 93.93C285.286 93.4433 285.356 92.9767 285.496 92.53C285.643 92.0767 285.86 91.6767 286.146 91.33C286.433 90.9833 286.79 90.7067 287.216 90.5C287.643 90.2933 288.14 90.19 288.706 90.19C289.273 90.19 289.77 90.2933 290.196 90.5C290.623 90.7067 290.98 90.9833 291.266 91.33C291.553 91.6767 291.766 92.0767 291.906 92.53C292.053 92.9767 292.126 93.4433 292.126 93.93C292.126 94.4167 292.053 94.8867 291.906 95.34C291.766 95.7867 291.553 96.1833 291.266 96.53C290.98 96.8767 290.623 97.1533 290.196 97.36C289.77 97.56 289.273 97.66 288.706 97.66C288.14 97.66 287.643 97.56 287.216 97.36C286.79 97.1533 286.433 96.8767 286.146 96.53C285.86 96.1833 285.643 95.7867 285.496 95.34C285.356 94.8867 285.286 94.4167 285.286 93.93ZM300.507 97.48C300.36 97.5667 300.157 97.61 299.897 97.61C299.677 97.61 299.5 97.55 299.367 97.43C299.24 97.3033 299.177 97.1 299.177 96.82C298.944 97.1 298.67 97.3033 298.357 97.43C298.05 97.55 297.717 97.61 297.357 97.61C297.124 97.61 296.9 97.5833 296.687 97.53C296.48 97.4767 296.3 97.3933 296.147 97.28C295.994 97.1667 295.87 97.02 295.777 96.84C295.69 96.6533 295.647 96.43 295.647 96.17C295.647 95.8767 295.697 95.6367 295.797 95.45C295.897 95.2633 296.027 95.1133 296.187 95C296.354 94.88 296.54 94.79 296.747 94.73C296.96 94.67 297.177 94.62 297.397 94.58C297.63 94.5333 297.85 94.5 298.057 94.48C298.27 94.4533 298.457 94.42 298.617 94.38C298.777 94.3333 298.904 94.27 298.997 94.19C299.09 94.1033 299.137 93.98 299.137 93.82C299.137 93.6333 299.1 93.4833 299.027 93.37C298.96 93.2567 298.87 93.17 298.757 93.11C298.65 93.05 298.527 93.01 298.387 92.99C298.254 92.97 298.12 92.96 297.987 92.96C297.627 92.96 297.327 93.03 297.087 93.17C296.847 93.3033 296.717 93.56 296.697 93.94H295.847C295.86 93.62 295.927 93.35 296.047 93.13C296.167 92.91 296.327 92.7333 296.527 92.6C296.727 92.46 296.954 92.36 297.207 92.3C297.467 92.24 297.744 92.21 298.037 92.21C298.27 92.21 298.5 92.2267 298.727 92.26C298.96 92.2933 299.17 92.3633 299.357 92.47C299.544 92.57 299.694 92.7133 299.807 92.9C299.92 93.0867 299.977 93.33 299.977 93.63V96.29C299.977 96.49 299.987 96.6367 300.007 96.73C300.034 96.8233 300.114 96.87 300.247 96.87C300.32 96.87 300.407 96.8533 300.507 96.82V97.48ZM299.127 94.83C299.02 94.91 298.88 94.97 298.707 95.01C298.534 95.0433 298.35 95.0733 298.157 95.1C297.97 95.12 297.78 95.1467 297.587 95.18C297.394 95.2067 297.22 95.2533 297.067 95.32C296.914 95.3867 296.787 95.4833 296.687 95.61C296.594 95.73 296.547 95.8967 296.547 96.11C296.547 96.25 296.574 96.37 296.627 96.47C296.687 96.5633 296.76 96.64 296.847 96.7C296.94 96.76 297.047 96.8033 297.167 96.83C297.287 96.8567 297.414 96.87 297.547 96.87C297.827 96.87 298.067 96.8333 298.267 96.76C298.467 96.68 298.63 96.5833 298.757 96.47C298.884 96.35 298.977 96.2233 299.037 96.09C299.097 95.95 299.127 95.82 299.127 95.7V94.83ZM300.878 96.85L303.998 93.08H301.078V92.33H305.098V92.91L301.938 96.75H305.238V97.5H300.878V96.85ZM309.693 94.42C309.68 94.22 309.633 94.03 309.553 93.85C309.48 93.67 309.376 93.5167 309.243 93.39C309.116 93.2567 308.963 93.1533 308.783 93.08C308.61 93 308.416 92.96 308.203 92.96C307.983 92.96 307.783 93 307.603 93.08C307.43 93.1533 307.28 93.2567 307.153 93.39C307.026 93.5233 306.926 93.68 306.853 93.86C306.78 94.0333 306.736 94.22 306.723 94.42H309.693ZM310.513 95.86C310.4 96.44 310.15 96.8767 309.763 97.17C309.376 97.4633 308.89 97.61 308.303 97.61C307.89 97.61 307.53 97.5433 307.223 97.41C306.923 97.2767 306.67 97.09 306.463 96.85C306.256 96.61 306.1 96.3233 305.993 95.99C305.893 95.6567 305.836 95.2933 305.823 94.9C305.823 94.5067 305.883 94.1467 306.003 93.82C306.123 93.4933 306.29 93.21 306.503 92.97C306.723 92.73 306.98 92.5433 307.273 92.41C307.573 92.2767 307.9 92.21 308.253 92.21C308.713 92.21 309.093 92.3067 309.393 92.5C309.7 92.6867 309.943 92.9267 310.123 93.22C310.31 93.5133 310.436 93.8333 310.503 94.18C310.576 94.5267 310.606 94.8567 310.593 95.17H306.723C306.716 95.3967 306.743 95.6133 306.803 95.82C306.863 96.02 306.96 96.2 307.093 96.36C307.226 96.5133 307.396 96.6367 307.603 96.73C307.81 96.8233 308.053 96.87 308.333 96.87C308.693 96.87 308.986 96.7867 309.213 96.62C309.446 96.4533 309.6 96.2 309.673 95.86H310.513ZM311.444 92.33H312.244V93.42H312.264C312.471 93 312.724 92.69 313.024 92.49C313.324 92.29 313.704 92.1967 314.164 92.21V93.11C313.824 93.11 313.534 93.1567 313.294 93.25C313.054 93.3433 312.861 93.48 312.714 93.66C312.567 93.84 312.461 94.06 312.394 94.32C312.327 94.5733 312.294 94.8667 312.294 95.2V97.5H311.444V92.33ZM315.984 92.33H317.014V93.08H315.984V96.29C315.984 96.39 315.991 96.47 316.004 96.53C316.024 96.59 316.057 96.6367 316.104 96.67C316.151 96.7033 316.214 96.7267 316.294 96.74C316.381 96.7467 316.491 96.75 316.624 96.75H317.014V97.5H316.364C316.144 97.5 315.954 97.4867 315.794 97.46C315.641 97.4267 315.514 97.37 315.414 97.29C315.321 97.21 315.251 97.0967 315.204 96.95C315.157 96.8033 315.134 96.61 315.134 96.37V93.08H314.254V92.33H315.134V90.78H315.984V92.33ZM319.988 98.19C319.888 98.4433 319.788 98.6567 319.688 98.83C319.595 99.0033 319.488 99.1433 319.368 99.25C319.255 99.3633 319.125 99.4433 318.978 99.49C318.838 99.5433 318.675 99.57 318.488 99.57C318.388 99.57 318.288 99.5633 318.188 99.55C318.088 99.5367 317.992 99.5133 317.898 99.48V98.7C317.972 98.7333 318.055 98.76 318.148 98.78C318.248 98.8067 318.332 98.82 318.398 98.82C318.572 98.82 318.715 98.7767 318.828 98.69C318.948 98.61 319.038 98.4933 319.098 98.34L319.448 97.47L317.398 92.33H318.358L319.868 96.56H319.888L321.338 92.33H322.238L319.988 98.19ZM327.142 99.47C326.902 99.0967 326.685 98.7233 326.492 98.35C326.298 97.9833 326.132 97.61 325.992 97.23C325.858 96.85 325.755 96.46 325.682 96.06C325.608 95.66 325.572 95.24 325.572 94.8C325.572 94.0133 325.702 93.22 325.962 92.42C326.228 91.62 326.622 90.8767 327.142 90.19H327.792C327.312 90.95 326.972 91.7033 326.772 92.45C326.572 93.1967 326.472 93.98 326.472 94.8C326.472 95.64 326.572 96.4367 326.772 97.19C326.978 97.9433 327.318 98.7033 327.792 99.47H327.142ZM328.679 93.08H327.809V92.33H328.679V91.56C328.679 91.14 328.799 90.8233 329.039 90.61C329.286 90.39 329.643 90.28 330.109 90.28C330.189 90.28 330.279 90.2867 330.379 90.3C330.486 90.3133 330.579 90.3333 330.659 90.36V91.1C330.586 91.0733 330.506 91.0567 330.419 91.05C330.333 91.0367 330.253 91.03 330.179 91.03C329.973 91.03 329.813 91.07 329.699 91.15C329.586 91.23 329.529 91.3833 329.529 91.61V92.33H330.529V93.08H329.529V97.5H328.679V93.08ZM331.258 92.33H332.058V93.42H332.078C332.285 93 332.538 92.69 332.838 92.49C333.138 92.29 333.518 92.1967 333.978 92.21V93.11C333.638 93.11 333.348 93.1567 333.108 93.25C332.868 93.3433 332.675 93.48 332.528 93.66C332.382 93.84 332.275 94.06 332.208 94.32C332.142 94.5733 332.108 94.8667 332.108 95.2V97.5H331.258V92.33ZM333.889 99.47C334.362 98.7167 334.699 97.9667 334.899 97.22C335.099 96.4667 335.199 95.6833 335.199 94.87C335.199 94.03 335.095 93.2333 334.889 92.48C334.689 91.72 334.355 90.9567 333.889 90.19H334.529C334.769 90.5633 334.985 90.9367 335.179 91.31C335.372 91.6767 335.535 92.0533 335.669 92.44C335.809 92.82 335.915 93.21 335.989 93.61C336.062 94.01 336.099 94.43 336.099 94.87C336.099 95.6567 335.965 96.45 335.699 97.25C335.439 98.0433 335.049 98.7833 334.529 99.47H333.889Z" fill="white"/>
</svg>
