<svg width="183" height="157" viewBox="0 0 183 157" fill="none" xmlns="http://www.w3.org/2000/svg">
<g clip-path="url(#clip0_204_769)">
<path d="M80.2035 0.677422H75.6206V5.26029H80.2035V0.677422Z" fill="white"/>
<path d="M98.0011 0.677422H93.4182V5.26029H98.0011V0.677422Z" fill="white"/>
<path d="M102.45 0.677422H97.8676V5.26029H102.45V0.677422Z" fill="white"/>
<path d="M115.799 0.677422H111.216V5.26029H115.799V0.677422Z" fill="white"/>
<path d="M120.248 0.677422H115.665V5.26029H120.248V0.677422Z" fill="white"/>
<path d="M71.3048 5.12681H66.7219V9.70968H71.3048V5.12681Z" fill="white"/>
<path d="M106.9 5.12681H102.317V9.70968H106.9V5.12681Z" fill="white"/>
<path d="M111.349 5.12681H106.766V9.70968H111.349V5.12681Z" fill="white"/>
<path d="M120.248 5.12681H115.665V9.70968H120.248V5.12681Z" fill="white"/>
<path d="M66.8553 9.57619H62.2725V14.1591H66.8553V9.57619Z" fill="white"/>
<path d="M71.3048 9.57619H66.7219V14.1591H71.3048V9.57619Z" fill="white"/>
<path d="M93.5516 9.57619H88.9688V14.1591H93.5516V9.57619Z" fill="white"/>
<path d="M102.45 9.57619H97.8676V14.1591H102.45V9.57619Z" fill="white"/>
<path d="M66.8553 14.0256H62.2725V18.6085H66.8553V14.0256Z" fill="white"/>
<path d="M71.3048 14.0256H66.7219V18.6085H71.3048V14.0256Z" fill="white"/>
<path d="M80.2035 14.0256H75.6206V18.6085H80.2035V14.0256Z" fill="white"/>
<path d="M84.6529 14.0256H80.0701V18.6085H84.6529V14.0256Z" fill="white"/>
<path d="M102.45 14.0256H97.8676V18.6085H102.45V14.0256Z" fill="white"/>
<path d="M106.9 14.0256H102.317V18.6085H106.9V14.0256Z" fill="white"/>
<path d="M115.799 14.0256H111.216V18.6085H115.799V14.0256Z" fill="white"/>
<path d="M66.8553 18.475H62.2725V23.0578H66.8553V18.475Z" fill="white"/>
<path d="M71.3048 18.475H66.7219V23.0578H71.3048V18.475Z" fill="white"/>
<path d="M75.7541 18.475H71.1713V23.0578H75.7541V18.475Z" fill="white"/>
<path d="M84.6529 18.475H80.0701V23.0578H84.6529V18.475Z" fill="white"/>
<path d="M89.1023 18.475H84.5194V23.0578H89.1023V18.475Z" fill="white"/>
<path d="M93.5516 18.475H88.9688V23.0578H93.5516V18.475Z" fill="white"/>
<path d="M98.0011 18.475H93.4182V23.0578H98.0011V18.475Z" fill="white"/>
<path d="M106.9 18.475H102.317V23.0578H106.9V18.475Z" fill="white"/>
<path d="M111.349 18.475H106.766V23.0578H111.349V18.475Z" fill="white"/>
<path d="M115.799 18.475H111.216V23.0578H115.799V18.475Z" fill="white"/>
<path d="M120.248 18.475H115.665V23.0578H120.248V18.475Z" fill="white"/>
<path d="M66.8553 22.9244H62.2725V27.5072H66.8553V22.9244Z" fill="white"/>
<path d="M75.7541 22.9244H71.1713V27.5072H75.7541V22.9244Z" fill="white"/>
<path d="M84.6529 22.9244H80.0701V27.5072H84.6529V22.9244Z" fill="white"/>
<path d="M89.1023 22.9244H84.5194V27.5072H89.1023V22.9244Z" fill="white"/>
<path d="M93.5516 22.9244H88.9688V27.5072H93.5516V22.9244Z" fill="white"/>
<path d="M98.0011 22.9244H93.4182V27.5072H98.0011V22.9244Z" fill="white"/>
<path d="M102.45 22.9244H97.8676V27.5072H102.45V22.9244Z" fill="white"/>
<path d="M106.9 22.9244H102.317V27.5072H106.9V22.9244Z" fill="white"/>
<path d="M120.248 22.9244H115.665V27.5072H120.248V22.9244Z" fill="white"/>
<path d="M66.8553 27.3737H62.2725V31.9566H66.8553V27.3737Z" fill="white"/>
<path d="M75.7541 27.3737H71.1713V31.9566H75.7541V27.3737Z" fill="white"/>
<path d="M84.6529 27.3737H80.0701V31.9566H84.6529V27.3737Z" fill="white"/>
<path d="M93.5516 27.3737H88.9688V31.9566H93.5516V27.3737Z" fill="white"/>
<path d="M102.45 27.3737H97.8676V31.9566H102.45V27.3737Z" fill="white"/>
<path d="M111.349 27.3737H106.766V31.9566H111.349V27.3737Z" fill="white"/>
<path d="M120.248 27.3737H115.665V31.9566H120.248V27.3737Z" fill="white"/>
<path d="M66.8553 31.8231H62.2725V36.406H66.8553V31.8231Z" fill="white"/>
<path d="M71.3048 31.8231H66.7219V36.406H71.3048V31.8231Z" fill="white"/>
<path d="M80.2035 31.8231H75.6206V36.406H80.2035V31.8231Z" fill="white"/>
<path d="M89.1023 31.8231H84.5194V36.406H89.1023V31.8231Z" fill="white"/>
<path d="M98.0011 31.8231H93.4182V36.406H98.0011V31.8231Z" fill="white"/>
<path d="M120.248 31.8231H115.665V36.406H120.248V31.8231Z" fill="white"/>
<path d="M31.2602 36.2725H26.6774V40.8554H31.2602V36.2725Z" fill="white"/>
<path d="M40.159 36.2725H35.5762V40.8554H40.159V36.2725Z" fill="white"/>
<path d="M44.6084 36.2725H40.0255V40.8554H44.6084V36.2725Z" fill="white"/>
<path d="M49.0578 36.2725H44.475V40.8554H49.0578V36.2725Z" fill="white"/>
<path d="M53.5072 36.2725H48.9243V40.8554H53.5072V36.2725Z" fill="white"/>
<path d="M57.9565 36.2725H53.3737V40.8554H57.9565V36.2725Z" fill="white"/>
<path d="M80.2035 36.2725H75.6206V40.8554H80.2035V36.2725Z" fill="white"/>
<path d="M84.6529 36.2725H80.0701V40.8554H84.6529V36.2725Z" fill="white"/>
<path d="M93.5516 36.2725H88.9688V40.8554H93.5516V36.2725Z" fill="white"/>
<path d="M98.0011 36.2725H93.4182V40.8554H98.0011V36.2725Z" fill="white"/>
<path d="M106.9 36.2725H102.317V40.8554H106.9V36.2725Z" fill="white"/>
<path d="M111.349 36.2725H106.766V40.8554H111.349V36.2725Z" fill="white"/>
<path d="M129.147 36.2725H124.564V40.8554H129.147V36.2725Z" fill="white"/>
<path d="M133.596 36.2725H129.013V40.8554H133.596V36.2725Z" fill="white"/>
<path d="M138.046 36.2725H133.463V40.8554H138.046V36.2725Z" fill="white"/>
<path d="M142.495 36.2725H137.912V40.8554H142.495V36.2725Z" fill="white"/>
<path d="M146.944 36.2725H142.361V40.8554H146.944V36.2725Z" fill="white"/>
<path d="M31.2602 40.7219H26.6774V45.3048H31.2602V40.7219Z" fill="white"/>
<path d="M35.7096 40.7219H31.1267V45.3048H35.7096V40.7219Z" fill="white"/>
<path d="M49.0578 40.7219H44.475V45.3048H49.0578V40.7219Z" fill="white"/>
<path d="M62.406 40.7219H57.8231V45.3048H62.406V40.7219Z" fill="white"/>
<path d="M66.8553 40.7219H62.2725V45.3048H66.8553V40.7219Z" fill="white"/>
<path d="M75.7541 40.7219H71.1713V45.3048H75.7541V40.7219Z" fill="white"/>
<path d="M98.0011 40.7219H93.4182V45.3048H98.0011V40.7219Z" fill="white"/>
<path d="M102.45 40.7219H97.8676V45.3048H102.45V40.7219Z" fill="white"/>
<path d="M106.9 40.7219H102.317V45.3048H106.9V40.7219Z" fill="white"/>
<path d="M111.349 40.7219H106.766V45.3048H111.349V40.7219Z" fill="white"/>
<path d="M115.799 40.7219H111.216V45.3048H115.799V40.7219Z" fill="white"/>
<path d="M120.248 40.7219H115.665V45.3048H120.248V40.7219Z" fill="white"/>
<path d="M129.147 40.7219H124.564V45.3048H129.147V40.7219Z" fill="white"/>
<path d="M133.596 40.7219H129.013V45.3048H133.596V40.7219Z" fill="white"/>
<path d="M138.046 40.7219H133.463V45.3048H138.046V40.7219Z" fill="white"/>
<path d="M155.843 40.7219H151.26V45.3048H155.843V40.7219Z" fill="white"/>
<path d="M40.159 45.1713H35.5762V49.7542H40.159V45.1713Z" fill="white"/>
<path d="M44.6084 45.1713H40.0255V49.7542H44.6084V45.1713Z" fill="white"/>
<path d="M53.5072 45.1713H48.9243V49.7542H53.5072V45.1713Z" fill="white"/>
<path d="M57.9565 45.1713H53.3737V49.7542H57.9565V45.1713Z" fill="white"/>
<path d="M62.406 45.1713H57.8231V49.7542H62.406V45.1713Z" fill="white"/>
<path d="M75.7541 45.1713H71.1713V49.7542H75.7541V45.1713Z" fill="white"/>
<path d="M80.2035 45.1713H75.6206V49.7542H80.2035V45.1713Z" fill="white"/>
<path d="M84.6529 45.1713H80.0701V49.7542H84.6529V45.1713Z" fill="white"/>
<path d="M106.9 45.1713H102.317V49.7542H106.9V45.1713Z" fill="white"/>
<path d="M138.046 45.1713H133.463V49.7542H138.046V45.1713Z" fill="white"/>
<path d="M31.2602 49.6207H26.6774V54.2036H31.2602V49.6207Z" fill="white"/>
<path d="M40.159 49.6207H35.5762V54.2036H40.159V49.6207Z" fill="white"/>
<path d="M44.6084 49.6207H40.0255V54.2036H44.6084V49.6207Z" fill="white"/>
<path d="M49.0578 49.6207H44.475V54.2036H49.0578V49.6207Z" fill="white"/>
<path d="M62.406 49.6207H57.8231V54.2036H62.406V49.6207Z" fill="white"/>
<path d="M66.8553 49.6207H62.2725V54.2036H66.8553V49.6207Z" fill="white"/>
<path d="M71.3048 49.6207H66.7219V54.2036H71.3048V49.6207Z" fill="white"/>
<path d="M75.7541 49.6207H71.1713V54.2036H75.7541V49.6207Z" fill="white"/>
<path d="M80.2035 49.6207H75.6206V54.2036H80.2035V49.6207Z" fill="white"/>
<path d="M84.6529 49.6207H80.0701V54.2036H84.6529V49.6207Z" fill="white"/>
<path d="M93.5516 49.6207H88.9688V54.2036H93.5516V49.6207Z" fill="white"/>
<path d="M102.45 49.6207H97.8676V54.2036H102.45V49.6207Z" fill="white"/>
<path d="M142.495 49.6207H137.912V54.2036H142.495V49.6207Z" fill="white"/>
<path d="M151.394 49.6207H146.811V54.2036H151.394V49.6207Z" fill="white"/>
<path d="M40.159 54.0701H35.5762V58.6529H40.159V54.0701Z" fill="white"/>
<path d="M44.6084 54.0701H40.0255V58.6529H44.6084V54.0701Z" fill="white"/>
<path d="M57.9565 54.0701H53.3737V58.6529H57.9565V54.0701Z" fill="white"/>
<path d="M62.406 54.0701H57.8231V58.6529H62.406V54.0701Z" fill="white"/>
<path d="M71.3048 54.0701H66.7219V58.6529H71.3048V54.0701Z" fill="white"/>
<path d="M75.7541 54.0701H71.1713V58.6529H75.7541V54.0701Z" fill="white"/>
<path d="M84.6529 54.0701H80.0701V58.6529H84.6529V54.0701Z" fill="white"/>
<path d="M106.9 54.0701H102.317V58.6529H106.9V54.0701Z" fill="white"/>
<path d="M115.799 54.0701H111.216V58.6529H115.799V54.0701Z" fill="white"/>
<path d="M142.495 54.0701H137.912V58.6529H142.495V54.0701Z" fill="white"/>
<path d="M146.944 54.0701H142.361V58.6529H146.944V54.0701Z" fill="white"/>
<path d="M31.2602 58.5195H26.6774V63.1023H31.2602V58.5195Z" fill="white"/>
<path d="M35.7096 58.5195H31.1267V63.1023H35.7096V58.5195Z" fill="white"/>
<path d="M53.5072 58.5195H48.9243V63.1023H53.5072V58.5195Z" fill="white"/>
<path d="M75.7541 58.5195H71.1713V63.1023H75.7541V58.5195Z" fill="white"/>
<path d="M80.2035 58.5195H75.6206V63.1023H80.2035V58.5195Z" fill="white"/>
<path d="M84.6529 58.5195H80.0701V63.1023H84.6529V58.5195Z" fill="white"/>
<path d="M89.1023 58.5195H84.5194V63.1023H89.1023V58.5195Z" fill="white"/>
<path d="M93.5516 58.5195H88.9688V63.1023H93.5516V58.5195Z" fill="white"/>
<path d="M98.0011 58.5195H93.4182V63.1023H98.0011V58.5195Z" fill="white"/>
<path d="M106.9 58.5195H102.317V63.1023H106.9V58.5195Z" fill="white"/>
<path d="M111.349 58.5195H106.766V63.1023H111.349V58.5195Z" fill="white"/>
<path d="M115.799 58.5195H111.216V63.1023H115.799V58.5195Z" fill="white"/>
<path d="M120.248 58.5195H115.665V63.1023H120.248V58.5195Z" fill="white"/>
<path d="M124.697 58.5195H120.115V63.1023H124.697V58.5195Z" fill="white"/>
<path d="M129.147 58.5195H124.564V63.1023H129.147V58.5195Z" fill="white"/>
<path d="M133.596 58.5195H129.013V63.1023H133.596V58.5195Z" fill="white"/>
<path d="M138.046 58.5195H133.463V63.1023H138.046V58.5195Z" fill="white"/>
<path d="M155.843 58.5195H151.26V63.1023H155.843V58.5195Z" fill="white"/>
<path d="M35.7096 62.9689H31.1267V67.5517H35.7096V62.9689Z" fill="white"/>
<path d="M40.159 62.9689H35.5762V67.5517H40.159V62.9689Z" fill="white"/>
<path d="M44.6084 62.9689H40.0255V67.5517H44.6084V62.9689Z" fill="white"/>
<path d="M49.0578 62.9689H44.475V67.5517H49.0578V62.9689Z" fill="white"/>
<path d="M53.5072 62.9689H48.9243V67.5517H53.5072V62.9689Z" fill="white"/>
<path d="M57.9565 62.9689H53.3737V67.5517H57.9565V62.9689Z" fill="white"/>
<path d="M62.406 62.9689H57.8231V67.5517H62.406V62.9689Z" fill="white"/>
<path d="M75.7541 62.9689H71.1713V67.5517H75.7541V62.9689Z" fill="white"/>
<path d="M89.1023 62.9689H84.5194V67.5517H89.1023V62.9689Z" fill="white"/>
<path d="M93.5516 62.9689H88.9688V67.5517H93.5516V62.9689Z" fill="white"/>
<path d="M98.0011 62.9689H93.4182V67.5517H98.0011V62.9689Z" fill="white"/>
<path d="M120.248 62.9689H115.665V67.5517H120.248V62.9689Z" fill="white"/>
<path d="M124.697 62.9689H120.115V67.5517H124.697V62.9689Z" fill="white"/>
<path d="M138.046 62.9689H133.463V67.5517H138.046V62.9689Z" fill="white"/>
<path d="M142.495 62.9689H137.912V67.5517H142.495V62.9689Z" fill="white"/>
<path d="M146.944 62.9689H142.361V67.5517H146.944V62.9689Z" fill="white"/>
<path d="M31.2602 67.4182H26.6774V72.0011H31.2602V67.4182Z" fill="white"/>
<path d="M35.7096 67.4182H31.1267V72.0011H35.7096V67.4182Z" fill="white"/>
<path d="M40.159 67.4182H35.5762V72.0011H40.159V67.4182Z" fill="white"/>
<path d="M44.6084 67.4182H40.0255V72.0011H44.6084V67.4182Z" fill="white"/>
<path d="M62.406 67.4182H57.8231V72.0011H62.406V67.4182Z" fill="white"/>
<path d="M75.7541 67.4182H71.1713V72.0011H75.7541V67.4182Z" fill="white"/>
<path d="M80.2035 67.4182H75.6206V72.0011H80.2035V67.4182Z" fill="white"/>
<path d="M89.1023 67.4182H84.5194V72.0011H89.1023V67.4182Z" fill="white"/>
<path d="M102.45 67.4182H97.8676V72.0011H102.45V67.4182Z" fill="white"/>
<path d="M115.799 67.4182H111.216V72.0011H115.799V67.4182Z" fill="white"/>
<path d="M120.248 67.4182H115.665V72.0011H120.248V67.4182Z" fill="white"/>
<path d="M124.697 67.4182H120.115V72.0011H124.697V67.4182Z" fill="white"/>
<path d="M129.147 67.4182H124.564V72.0011H129.147V67.4182Z" fill="white"/>
<path d="M133.596 67.4182H129.013V72.0011H133.596V67.4182Z" fill="white"/>
<path d="M138.046 67.4182H133.463V72.0011H138.046V67.4182Z" fill="white"/>
<path d="M151.394 67.4182H146.811V72.0011H151.394V67.4182Z" fill="white"/>
<path d="M40.159 71.8676H35.5762V76.4505H40.159V71.8676Z" fill="white"/>
<path d="M44.6084 71.8676H40.0255V76.4505H44.6084V71.8676Z" fill="white"/>
<path d="M49.0578 71.8676H44.475V76.4505H49.0578V71.8676Z" fill="white"/>
<path d="M53.5072 71.8676H48.9243V76.4505H53.5072V71.8676Z" fill="white"/>
<path d="M57.9565 71.8676H53.3737V76.4505H57.9565V71.8676Z" fill="white"/>
<path d="M62.406 71.8676H57.8231V76.4505H62.406V71.8676Z" fill="white"/>
<path d="M75.7541 71.8676H71.1713V76.4505H75.7541V71.8676Z" fill="white"/>
<path d="M80.2035 71.8676H75.6206V76.4505H80.2035V71.8676Z" fill="white"/>
<path d="M93.5516 71.8676H88.9688V76.4505H93.5516V71.8676Z" fill="white"/>
<path d="M98.0011 71.8676H93.4182V76.4505H98.0011V71.8676Z" fill="white"/>
<path d="M102.45 71.8676H97.8676V76.4505H102.45V71.8676Z" fill="white"/>
<path d="M106.9 71.8676H102.317V76.4505H106.9V71.8676Z" fill="white"/>
<path d="M115.799 71.8676H111.216V76.4505H115.799V71.8676Z" fill="white"/>
<path d="M124.697 71.8676H120.115V76.4505H124.697V71.8676Z" fill="white"/>
<path d="M133.596 71.8676H129.013V76.4505H133.596V71.8676Z" fill="white"/>
<path d="M142.495 71.8676H137.912V76.4505H142.495V71.8676Z" fill="white"/>
<path d="M146.944 71.8676H142.361V76.4505H146.944V71.8676Z" fill="white"/>
<path d="M31.2602 76.317H26.6774V80.8999H31.2602V76.317Z" fill="white"/>
<path d="M53.5072 76.317H48.9243V80.8999H53.5072V76.317Z" fill="white"/>
<path d="M66.8553 76.317H62.2725V80.8999H66.8553V76.317Z" fill="white"/>
<path d="M71.3048 76.317H66.7219V80.8999H71.3048V76.317Z" fill="white"/>
<path d="M84.6529 76.317H80.0701V80.8999H84.6529V76.317Z" fill="white"/>
<path d="M102.45 76.317H97.8676V80.8999H102.45V76.317Z" fill="white"/>
<path d="M111.349 76.317H106.766V80.8999H111.349V76.317Z" fill="white"/>
<path d="M115.799 76.317H111.216V80.8999H115.799V76.317Z" fill="white"/>
<path d="M124.697 76.317H120.115V80.8999H124.697V76.317Z" fill="white"/>
<path d="M129.147 76.317H124.564V80.8999H129.147V76.317Z" fill="white"/>
<path d="M133.596 76.317H129.013V80.8999H133.596V76.317Z" fill="white"/>
<path d="M138.046 76.317H133.463V80.8999H138.046V76.317Z" fill="white"/>
<path d="M146.944 76.317H142.361V80.8999H146.944V76.317Z" fill="white"/>
<path d="M155.843 76.317H151.26V80.8999H155.843V76.317Z" fill="white"/>
<path d="M31.2602 80.7664H26.6774V85.3493H31.2602V80.7664Z" fill="white"/>
<path d="M40.159 80.7664H35.5762V85.3493H40.159V80.7664Z" fill="white"/>
<path d="M57.9565 80.7664H53.3737V85.3493H57.9565V80.7664Z" fill="white"/>
<path d="M62.406 80.7664H57.8231V85.3493H62.406V80.7664Z" fill="white"/>
<path d="M66.8553 80.7664H62.2725V85.3493H66.8553V80.7664Z" fill="white"/>
<path d="M71.3048 80.7664H66.7219V85.3493H71.3048V80.7664Z" fill="white"/>
<path d="M84.6529 80.7664H80.0701V85.3493H84.6529V80.7664Z" fill="white"/>
<path d="M98.0011 80.7664H93.4182V85.3493H98.0011V80.7664Z" fill="white"/>
<path d="M102.45 80.7664H97.8676V85.3493H102.45V80.7664Z" fill="white"/>
<path d="M111.349 80.7664H106.766V85.3493H111.349V80.7664Z" fill="white"/>
<path d="M120.248 80.7664H115.665V85.3493H120.248V80.7664Z" fill="white"/>
<path d="M129.147 80.7664H124.564V85.3493H129.147V80.7664Z" fill="white"/>
<path d="M133.596 80.7664H129.013V85.3493H133.596V80.7664Z" fill="white"/>
<path d="M138.046 80.7664H133.463V85.3493H138.046V80.7664Z" fill="white"/>
<path d="M146.944 80.7664H142.361V85.3493H146.944V80.7664Z" fill="white"/>
<path d="M31.2602 85.2158H26.6774V89.7987H31.2602V85.2158Z" fill="white"/>
<path d="M40.159 85.2158H35.5762V89.7987H40.159V85.2158Z" fill="white"/>
<path d="M53.5072 85.2158H48.9243V89.7987H53.5072V85.2158Z" fill="white"/>
<path d="M66.8553 85.2158H62.2725V89.7987H66.8553V85.2158Z" fill="white"/>
<path d="M71.3048 85.2158H66.7219V89.7987H71.3048V85.2158Z" fill="white"/>
<path d="M75.7541 85.2158H71.1713V89.7987H75.7541V85.2158Z" fill="white"/>
<path d="M93.5516 85.2158H88.9688V89.7987H93.5516V85.2158Z" fill="white"/>
<path d="M98.0011 85.2158H93.4182V89.7987H98.0011V85.2158Z" fill="white"/>
<path d="M102.45 85.2158H97.8676V89.7987H102.45V85.2158Z" fill="white"/>
<path d="M120.248 85.2158H115.665V89.7987H120.248V85.2158Z" fill="white"/>
<path d="M124.697 85.2158H120.115V89.7987H124.697V85.2158Z" fill="white"/>
<path d="M129.147 85.2158H124.564V89.7987H129.147V85.2158Z" fill="white"/>
<path d="M151.394 85.2158H146.811V89.7987H151.394V85.2158Z" fill="white"/>
<path d="M31.2602 89.6652H26.6774V94.248H31.2602V89.6652Z" fill="white"/>
<path d="M40.159 89.6652H35.5762V94.248H40.159V89.6652Z" fill="white"/>
<path d="M44.6084 89.6652H40.0255V94.248H44.6084V89.6652Z" fill="white"/>
<path d="M49.0578 89.6652H44.475V94.248H49.0578V89.6652Z" fill="white"/>
<path d="M57.9565 89.6652H53.3737V94.248H57.9565V89.6652Z" fill="white"/>
<path d="M66.8553 89.6652H62.2725V94.248H66.8553V89.6652Z" fill="white"/>
<path d="M80.2035 89.6652H75.6206V94.248H80.2035V89.6652Z" fill="white"/>
<path d="M98.0011 89.6652H93.4182V94.248H98.0011V89.6652Z" fill="white"/>
<path d="M106.9 89.6652H102.317V94.248H106.9V89.6652Z" fill="white"/>
<path d="M115.799 89.6652H111.216V94.248H115.799V89.6652Z" fill="white"/>
<path d="M120.248 89.6652H115.665V94.248H120.248V89.6652Z" fill="white"/>
<path d="M124.697 89.6652H120.115V94.248H124.697V89.6652Z" fill="white"/>
<path d="M129.147 89.6652H124.564V94.248H129.147V89.6652Z" fill="white"/>
<path d="M133.596 89.6652H129.013V94.248H133.596V89.6652Z" fill="white"/>
<path d="M138.046 89.6652H133.463V94.248H138.046V89.6652Z" fill="white"/>
<path d="M146.944 89.6652H142.361V94.248H146.944V89.6652Z" fill="white"/>
<path d="M151.394 89.6652H146.811V94.248H151.394V89.6652Z" fill="white"/>
<path d="M155.843 89.6652H151.26V94.248H155.843V89.6652Z" fill="white"/>
<path d="M66.8553 94.1146H62.2725V98.6974H66.8553V94.1146Z" fill="white"/>
<path d="M89.1023 94.1146H84.5194V98.6974H89.1023V94.1146Z" fill="white"/>
<path d="M93.5516 94.1146H88.9688V98.6974H93.5516V94.1146Z" fill="white"/>
<path d="M102.45 94.1146H97.8676V98.6974H102.45V94.1146Z" fill="white"/>
<path d="M111.349 94.1146H106.766V98.6974H111.349V94.1146Z" fill="white"/>
<path d="M120.248 94.1146H115.665V98.6974H120.248V94.1146Z" fill="white"/>
<path d="M138.046 94.1146H133.463V98.6974H138.046V94.1146Z" fill="white"/>
<path d="M142.495 94.1146H137.912V98.6974H142.495V94.1146Z" fill="white"/>
<path d="M146.944 94.1146H142.361V98.6974H146.944V94.1146Z" fill="white"/>
<path d="M151.394 94.1146H146.811V98.6974H151.394V94.1146Z" fill="white"/>
<path d="M155.843 94.1146H151.26V98.6974H155.843V94.1146Z" fill="white"/>
<path d="M75.7541 98.564H71.1713V103.147H75.7541V98.564Z" fill="white"/>
<path d="M80.2035 98.564H75.6206V103.147H80.2035V98.564Z" fill="white"/>
<path d="M89.1023 98.564H84.5194V103.147H89.1023V98.564Z" fill="white"/>
<path d="M93.5516 98.564H88.9688V103.147H93.5516V98.564Z" fill="white"/>
<path d="M98.0011 98.564H93.4182V103.147H98.0011V98.564Z" fill="white"/>
<path d="M106.9 98.564H102.317V103.147H106.9V98.564Z" fill="white"/>
<path d="M111.349 98.564H106.766V103.147H111.349V98.564Z" fill="white"/>
<path d="M115.799 98.564H111.216V103.147H115.799V98.564Z" fill="white"/>
<path d="M120.248 98.564H115.665V103.147H120.248V98.564Z" fill="white"/>
<path d="M129.147 98.564H124.564V103.147H129.147V98.564Z" fill="white"/>
<path d="M138.046 98.564H133.463V103.147H138.046V98.564Z" fill="white"/>
<path d="M142.495 98.564H137.912V103.147H142.495V98.564Z" fill="white"/>
<path d="M146.944 98.564H142.361V103.147H146.944V98.564Z" fill="white"/>
<path d="M66.8553 103.013H62.2725V107.596H66.8553V103.013Z" fill="white"/>
<path d="M71.3048 103.013H66.7219V107.596H71.3048V103.013Z" fill="white"/>
<path d="M84.6529 103.013H80.0701V107.596H84.6529V103.013Z" fill="white"/>
<path d="M89.1023 103.013H84.5194V107.596H89.1023V103.013Z" fill="white"/>
<path d="M98.0011 103.013H93.4182V107.596H98.0011V103.013Z" fill="white"/>
<path d="M102.45 103.013H97.8676V107.596H102.45V103.013Z" fill="white"/>
<path d="M115.799 103.013H111.216V107.596H115.799V103.013Z" fill="white"/>
<path d="M120.248 103.013H115.665V107.596H120.248V103.013Z" fill="white"/>
<path d="M138.046 103.013H133.463V107.596H138.046V103.013Z" fill="white"/>
<path d="M66.8553 107.463H62.2725V112.046H66.8553V107.463Z" fill="white"/>
<path d="M84.6529 107.463H80.0701V112.046H84.6529V107.463Z" fill="white"/>
<path d="M93.5516 107.463H88.9688V112.046H93.5516V107.463Z" fill="white"/>
<path d="M106.9 107.463H102.317V112.046H106.9V107.463Z" fill="white"/>
<path d="M120.248 107.463H115.665V112.046H120.248V107.463Z" fill="white"/>
<path d="M124.697 107.463H120.115V112.046H124.697V107.463Z" fill="white"/>
<path d="M129.147 107.463H124.564V112.046H129.147V107.463Z" fill="white"/>
<path d="M133.596 107.463H129.013V112.046H133.596V107.463Z" fill="white"/>
<path d="M138.046 107.463H133.463V112.046H138.046V107.463Z" fill="white"/>
<path d="M146.944 107.463H142.361V112.046H146.944V107.463Z" fill="white"/>
<path d="M151.394 107.463H146.811V112.046H151.394V107.463Z" fill="white"/>
<path d="M66.8553 111.912H62.2725V116.495H66.8553V111.912Z" fill="white"/>
<path d="M80.2035 111.912H75.6206V116.495H80.2035V111.912Z" fill="white"/>
<path d="M84.6529 111.912H80.0701V116.495H84.6529V111.912Z" fill="white"/>
<path d="M102.45 111.912H97.8676V116.495H102.45V111.912Z" fill="white"/>
<path d="M115.799 111.912H111.216V116.495H115.799V111.912Z" fill="white"/>
<path d="M120.248 111.912H115.665V116.495H120.248V111.912Z" fill="white"/>
<path d="M142.495 111.912H137.912V116.495H142.495V111.912Z" fill="white"/>
<path d="M146.944 111.912H142.361V116.495H146.944V111.912Z" fill="white"/>
<path d="M151.394 111.912H146.811V116.495H151.394V111.912Z" fill="white"/>
<path d="M155.843 111.912H151.26V116.495H155.843V111.912Z" fill="white"/>
<path d="M66.8553 116.362H62.2725V120.944H66.8553V116.362Z" fill="white"/>
<path d="M71.3048 116.362H66.7219V120.944H71.3048V116.362Z" fill="white"/>
<path d="M75.7541 116.362H71.1713V120.944H75.7541V116.362Z" fill="white"/>
<path d="M84.6529 116.362H80.0701V120.944H84.6529V116.362Z" fill="white"/>
<path d="M89.1023 116.362H84.5194V120.944H89.1023V116.362Z" fill="white"/>
<path d="M98.0011 116.362H93.4182V120.944H98.0011V116.362Z" fill="white"/>
<path d="M102.45 116.362H97.8676V120.944H102.45V116.362Z" fill="white"/>
<path d="M106.9 116.362H102.317V120.944H106.9V116.362Z" fill="white"/>
<path d="M111.349 116.362H106.766V120.944H111.349V116.362Z" fill="white"/>
<path d="M115.799 116.362H111.216V120.944H115.799V116.362Z" fill="white"/>
<path d="M120.248 116.362H115.665V120.944H120.248V116.362Z" fill="white"/>
<path d="M124.697 116.362H120.115V120.944H124.697V116.362Z" fill="white"/>
<path d="M129.147 116.362H124.564V120.944H129.147V116.362Z" fill="white"/>
<path d="M133.596 116.362H129.013V120.944H133.596V116.362Z" fill="white"/>
<path d="M138.046 116.362H133.463V120.944H138.046V116.362Z" fill="white"/>
<path d="M142.495 116.362H137.912V120.944H142.495V116.362Z" fill="white"/>
<path d="M146.944 116.362H142.361V120.944H146.944V116.362Z" fill="white"/>
<path d="M151.394 116.362H146.811V120.944H151.394V116.362Z" fill="white"/>
<path d="M71.3048 120.811H66.7219V125.394H71.3048V120.811Z" fill="white"/>
<path d="M75.7541 120.811H71.1713V125.394H75.7541V120.811Z" fill="white"/>
<path d="M84.6529 120.811H80.0701V125.394H84.6529V120.811Z" fill="white"/>
<path d="M89.1023 120.811H84.5194V125.394H89.1023V120.811Z" fill="white"/>
<path d="M102.45 120.811H97.8676V125.394H102.45V120.811Z" fill="white"/>
<path d="M111.349 120.811H106.766V125.394H111.349V120.811Z" fill="white"/>
<path d="M120.248 120.811H115.665V125.394H120.248V120.811Z" fill="white"/>
<path d="M124.697 120.811H120.115V125.394H124.697V120.811Z" fill="white"/>
<path d="M133.596 120.811H129.013V125.394H133.596V120.811Z" fill="white"/>
<path d="M142.495 120.811H137.912V125.394H142.495V120.811Z" fill="white"/>
<path d="M151.394 120.811H146.811V125.394H151.394V120.811Z" fill="white"/>
<path d="M66.8553 125.26H62.2725V129.843H66.8553V125.26Z" fill="white"/>
<path d="M71.3048 125.26H66.7219V129.843H71.3048V125.26Z" fill="white"/>
<path d="M75.7541 125.26H71.1713V129.843H75.7541V125.26Z" fill="white"/>
<path d="M80.2035 125.26H75.6206V129.843H80.2035V125.26Z" fill="white"/>
<path d="M84.6529 125.26H80.0701V129.843H84.6529V125.26Z" fill="white"/>
<path d="M106.9 125.26H102.317V129.843H106.9V125.26Z" fill="white"/>
<path d="M115.799 125.26H111.216V129.843H115.799V125.26Z" fill="white"/>
<path d="M129.147 125.26H124.564V129.843H129.147V125.26Z" fill="white"/>
<path d="M133.596 125.26H129.013V129.843H133.596V125.26Z" fill="white"/>
<path d="M138.046 125.26H133.463V129.843H138.046V125.26Z" fill="white"/>
<path d="M146.944 125.26H142.361V129.843H146.944V125.26Z" fill="white"/>
<path d="M26.6774 0.677422V31.8231H57.8231V0.677422H26.6774ZM53.3737 27.3737H31.1268V5.12681H53.3737V27.3737Z" fill="white"/>
<path d="M124.564 0.677422V31.8231H155.71V0.677422H124.564ZM151.26 27.3737H129.013V5.12681H151.26V27.3737Z" fill="white"/>
<path d="M26.6774 98.564V129.71H57.8231V98.564H26.6774ZM53.3737 125.26H31.1268V103.013H53.3737V125.26Z" fill="white"/>
<path d="M48.9243 9.57619H35.5762V22.9244H48.9243V9.57619Z" fill="white"/>
<path d="M146.811 9.57619H133.463V22.9244H146.811V9.57619Z" fill="white"/>
<path d="M48.9243 107.463H35.5762V120.811H48.9243V107.463Z" fill="white"/>
</g>
<path d="M7.74375 152.34C7.74375 153.61 7.45375 154.56 6.87375 155.19C6.29375 155.82 5.38375 156.135 4.14375 156.135C3.78375 156.135 3.41375 156.095 3.03375 156.015C2.66375 155.935 2.32375 155.805 2.01375 155.625C1.71375 155.445 1.46375 155.21 1.26375 154.92C1.06375 154.63 0.95375 154.275 0.93375 153.855H2.20875C2.21875 154.085 2.28875 154.28 2.41875 154.44C2.55875 154.6 2.72375 154.73 2.91375 154.83C3.11375 154.93 3.32875 155 3.55875 155.04C3.78875 155.09 4.00875 155.115 4.21875 155.115C4.63875 155.115 4.99375 155.04 5.28375 154.89C5.57375 154.75 5.81375 154.55 6.00375 154.29C6.19375 154.04 6.32875 153.735 6.40875 153.375C6.49875 153.015 6.54375 152.62 6.54375 152.19V151.68H6.51375C6.29375 152.16 5.95875 152.515 5.50875 152.745C5.06875 152.965 4.59875 153.075 4.09875 153.075C3.51875 153.075 3.01375 152.97 2.58375 152.76C2.15375 152.55 1.79375 152.27 1.50375 151.92C1.21375 151.56 0.99375 151.145 0.84375 150.675C0.70375 150.195 0.63375 149.69 0.63375 149.16C0.63375 148.7 0.69375 148.23 0.81375 147.75C0.93375 147.26 1.13375 146.82 1.41375 146.43C1.69375 146.03 2.06375 145.705 2.52375 145.455C2.98375 145.195 3.54875 145.065 4.21875 145.065C4.70875 145.065 5.15875 145.175 5.56875 145.395C5.97875 145.605 6.29875 145.925 6.52875 146.355H6.54375V145.245H7.74375V152.34ZM4.17375 151.965C4.59375 151.965 4.94875 151.88 5.23875 151.71C5.53875 151.53 5.77875 151.3 5.95875 151.02C6.13875 150.73 6.26875 150.405 6.34875 150.045C6.43875 149.685 6.48375 149.325 6.48375 148.965C6.48375 148.625 6.44375 148.29 6.36375 147.96C6.28375 147.63 6.15375 147.335 5.97375 147.075C5.80375 146.805 5.57875 146.59 5.29875 146.43C5.01875 146.27 4.67875 146.19 4.27875 146.19C3.86875 146.19 3.51875 146.27 3.22875 146.43C2.93875 146.58 2.69875 146.785 2.50875 147.045C2.32875 147.305 2.19375 147.605 2.10375 147.945C2.02375 148.285 1.98375 148.64 1.98375 149.01C1.98375 149.36 2.01875 149.71 2.08875 150.06C2.15875 150.41 2.27875 150.73 2.44875 151.02C2.61875 151.3 2.84375 151.53 3.12375 151.71C3.40375 151.88 3.75375 151.965 4.17375 151.965ZM11.017 143.85H9.74203V142.29H11.017V143.85ZM9.74203 145.245H11.017V153H9.74203V145.245ZM14.7622 145.245H16.3072V146.37H14.7622V151.185C14.7622 151.335 14.7722 151.455 14.7922 151.545C14.8222 151.635 14.8722 151.705 14.9422 151.755C15.0122 151.805 15.1072 151.84 15.2272 151.86C15.3572 151.87 15.5222 151.875 15.7222 151.875H16.3072V153H15.3322C15.0022 153 14.7172 152.98 14.4772 152.94C14.2472 152.89 14.0572 152.805 13.9072 152.685C13.7672 152.565 13.6622 152.395 13.5922 152.175C13.5222 151.955 13.4872 151.665 13.4872 151.305V146.37H12.1672V145.245H13.4872V142.92H14.7622V145.245ZM17.7237 142.29H18.9987V146.385H19.0287C19.1287 146.145 19.2687 145.945 19.4487 145.785C19.6287 145.615 19.8287 145.48 20.0487 145.38C20.2787 145.27 20.5137 145.19 20.7537 145.14C21.0037 145.09 21.2437 145.065 21.4737 145.065C21.9837 145.065 22.4087 145.135 22.7487 145.275C23.0887 145.415 23.3637 145.61 23.5737 145.86C23.7837 146.11 23.9287 146.41 24.0087 146.76C24.0987 147.1 24.1437 147.48 24.1437 147.9V153H22.8687V147.75C22.8687 147.27 22.7287 146.89 22.4487 146.61C22.1687 146.33 21.7837 146.19 21.2937 146.19C20.9037 146.19 20.5637 146.25 20.2737 146.37C19.9937 146.49 19.7587 146.66 19.5687 146.88C19.3787 147.1 19.2337 147.36 19.1337 147.66C19.0437 147.95 18.9987 148.27 18.9987 148.62V153H17.7237V142.29ZM32.4786 153H31.2786V151.77H31.2486C30.9786 152.25 30.6336 152.605 30.2136 152.835C29.7936 153.055 29.2986 153.165 28.7286 153.165C28.2186 153.165 27.7936 153.1 27.4536 152.97C27.1136 152.83 26.8386 152.635 26.6286 152.385C26.4186 152.135 26.2686 151.84 26.1786 151.5C26.0986 151.15 26.0586 150.765 26.0586 150.345V145.245H27.3336V150.495C27.3336 150.975 27.4736 151.355 27.7536 151.635C28.0336 151.915 28.4186 152.055 28.9086 152.055C29.2986 152.055 29.6336 151.995 29.9136 151.875C30.2036 151.755 30.4436 151.585 30.6336 151.365C30.8236 151.145 30.9636 150.89 31.0536 150.6C31.1536 150.3 31.2036 149.975 31.2036 149.625V145.245H32.4786V153ZM34.4386 142.29H35.7136V146.295H35.7436C35.9536 145.865 36.2836 145.555 36.7336 145.365C37.1836 145.165 37.6786 145.065 38.2186 145.065C38.8186 145.065 39.3386 145.175 39.7786 145.395C40.2286 145.615 40.5986 145.915 40.8886 146.295C41.1886 146.665 41.4136 147.095 41.5636 147.585C41.7136 148.075 41.7886 148.595 41.7886 149.145C41.7886 149.695 41.7136 150.215 41.5636 150.705C41.4236 151.195 41.2036 151.625 40.9036 151.995C40.6136 152.355 40.2436 152.64 39.7936 152.85C39.3536 153.06 38.8386 153.165 38.2486 153.165C38.0586 153.165 37.8436 153.145 37.6036 153.105C37.3736 153.065 37.1436 153 36.9136 152.91C36.6836 152.82 36.4636 152.7 36.2536 152.55C36.0536 152.39 35.8836 152.195 35.7436 151.965H35.7136V153H34.4386V142.29ZM40.4386 149.055C40.4386 148.695 40.3886 148.345 40.2886 148.005C40.1986 147.655 40.0536 147.345 39.8536 147.075C39.6636 146.805 39.4136 146.59 39.1036 146.43C38.8036 146.27 38.4486 146.19 38.0386 146.19C37.6086 146.19 37.2436 146.275 36.9436 146.445C36.6436 146.615 36.3986 146.84 36.2086 147.12C36.0186 147.39 35.8786 147.7 35.7886 148.05C35.7086 148.4 35.6686 148.755 35.6686 149.115C35.6686 149.495 35.7136 149.865 35.8036 150.225C35.8936 150.575 36.0336 150.885 36.2236 151.155C36.4236 151.425 36.6786 151.645 36.9886 151.815C37.2986 151.975 37.6736 152.055 38.1136 152.055C38.5536 152.055 38.9186 151.97 39.2086 151.8C39.5086 151.63 39.7486 151.405 39.9286 151.125C40.1086 150.845 40.2386 150.525 40.3186 150.165C40.3986 149.805 40.4386 149.435 40.4386 149.055ZM43.5702 151.335H45.2352V153H43.5702V151.335ZM52.725 147.735C52.625 147.245 52.415 146.865 52.095 146.595C51.775 146.325 51.345 146.19 50.805 146.19C50.345 146.19 49.96 146.275 49.65 146.445C49.34 146.615 49.09 146.84 48.9 147.12C48.72 147.4 48.59 147.725 48.51 148.095C48.43 148.455 48.39 148.83 48.39 149.22C48.39 149.58 48.43 149.93 48.51 150.27C48.6 150.61 48.735 150.915 48.915 151.185C49.095 151.445 49.33 151.655 49.62 151.815C49.91 151.975 50.255 152.055 50.655 152.055C51.285 152.055 51.775 151.89 52.125 151.56C52.485 151.23 52.705 150.765 52.785 150.165H54.09C53.95 151.125 53.59 151.865 53.01 152.385C52.44 152.905 51.66 153.165 50.67 153.165C50.08 153.165 49.555 153.07 49.095 152.88C48.645 152.69 48.265 152.42 47.955 152.07C47.655 151.72 47.425 151.305 47.265 150.825C47.115 150.335 47.04 149.8 47.04 149.22C47.04 148.64 47.115 148.1 47.265 147.6C47.415 147.09 47.64 146.65 47.94 146.28C48.25 145.9 48.635 145.605 49.095 145.395C49.555 145.175 50.09 145.065 50.7 145.065C51.14 145.065 51.55 145.12 51.93 145.23C52.32 145.33 52.66 145.49 52.95 145.71C53.25 145.93 53.495 146.21 53.685 146.55C53.875 146.88 53.995 147.275 54.045 147.735H52.725ZM56.4466 149.13C56.4466 149.6 56.5066 150.02 56.6266 150.39C56.7566 150.75 56.9316 151.055 57.1516 151.305C57.3716 151.545 57.6266 151.73 57.9166 151.86C58.2166 151.99 58.5316 152.055 58.8616 152.055C59.1916 152.055 59.5016 151.99 59.7916 151.86C60.0916 151.73 60.3516 151.545 60.5716 151.305C60.7916 151.055 60.9616 150.75 61.0816 150.39C61.2116 150.02 61.2766 149.6 61.2766 149.13C61.2766 148.66 61.2116 148.245 61.0816 147.885C60.9616 147.515 60.7916 147.205 60.5716 146.955C60.3516 146.705 60.0916 146.515 59.7916 146.385C59.5016 146.255 59.1916 146.19 58.8616 146.19C58.5316 146.19 58.2166 146.255 57.9166 146.385C57.6266 146.515 57.3716 146.705 57.1516 146.955C56.9316 147.205 56.7566 147.515 56.6266 147.885C56.5066 148.245 56.4466 148.66 56.4466 149.13ZM55.0966 149.13C55.0966 148.56 55.1766 148.03 55.3366 147.54C55.4966 147.04 55.7366 146.61 56.0566 146.25C56.3766 145.88 56.7716 145.59 57.2416 145.38C57.7116 145.17 58.2516 145.065 58.8616 145.065C59.4816 145.065 60.0216 145.17 60.4816 145.38C60.9516 145.59 61.3466 145.88 61.6666 146.25C61.9866 146.61 62.2266 147.04 62.3866 147.54C62.5466 148.03 62.6266 148.56 62.6266 149.13C62.6266 149.7 62.5466 150.23 62.3866 150.72C62.2266 151.21 61.9866 151.64 61.6666 152.01C61.3466 152.37 60.9516 152.655 60.4816 152.865C60.0216 153.065 59.4816 153.165 58.8616 153.165C58.2516 153.165 57.7116 153.065 57.2416 152.865C56.7716 152.655 56.3766 152.37 56.0566 152.01C55.7366 151.64 55.4966 151.21 55.3366 150.72C55.1766 150.23 55.0966 149.7 55.0966 149.13ZM64.1299 145.245H65.3299V146.385H65.3599C65.9399 145.505 66.7749 145.065 67.8649 145.065C68.3449 145.065 68.7799 145.165 69.1699 145.365C69.5599 145.565 69.8349 145.905 69.9949 146.385C70.2549 145.965 70.5949 145.64 71.0149 145.41C71.4449 145.18 71.9149 145.065 72.4249 145.065C72.8149 145.065 73.1649 145.11 73.4749 145.2C73.7949 145.28 74.0649 145.41 74.2849 145.59C74.5149 145.77 74.6899 146.005 74.8099 146.295C74.9399 146.575 75.0049 146.915 75.0049 147.315V153H73.7299V147.915C73.7299 147.675 73.7099 147.45 73.6699 147.24C73.6299 147.03 73.5549 146.85 73.4449 146.7C73.3349 146.54 73.1799 146.415 72.9799 146.325C72.7899 146.235 72.5399 146.19 72.2299 146.19C71.5999 146.19 71.1049 146.37 70.7449 146.73C70.3849 147.09 70.2049 147.57 70.2049 148.17V153H68.9299V147.915C68.9299 147.665 68.9049 147.435 68.8549 147.225C68.8149 147.015 68.7399 146.835 68.6299 146.685C68.5199 146.525 68.3699 146.405 68.1799 146.325C67.9999 146.235 67.7649 146.19 67.4749 146.19C67.1049 146.19 66.7849 146.265 66.5149 146.415C66.2549 146.565 66.0399 146.745 65.8699 146.955C65.7099 147.165 65.5899 147.385 65.5099 147.615C65.4399 147.835 65.4049 148.02 65.4049 148.17V153H64.1299V145.245ZM80.128 142.035H81.223L76.783 153.24H75.703L80.128 142.035ZM81.9131 142.29H83.1881V146.385H83.2181C83.3181 146.145 83.4581 145.945 83.6381 145.785C83.8181 145.615 84.0181 145.48 84.2381 145.38C84.4681 145.27 84.7031 145.19 84.9431 145.14C85.1931 145.09 85.4331 145.065 85.6631 145.065C86.1731 145.065 86.5981 145.135 86.9381 145.275C87.2781 145.415 87.5531 145.61 87.7631 145.86C87.9731 146.11 88.1181 146.41 88.1981 146.76C88.2881 147.1 88.3331 147.48 88.3331 147.9V153H87.0581V147.75C87.0581 147.27 86.9181 146.89 86.6381 146.61C86.3581 146.33 85.9731 146.19 85.4831 146.19C85.0931 146.19 84.7531 146.25 84.4631 146.37C84.1831 146.49 83.9481 146.66 83.7581 146.88C83.5681 147.1 83.4231 147.36 83.3231 147.66C83.2331 147.95 83.1881 148.27 83.1881 148.62V153H81.9131V142.29ZM95.6331 148.38C95.6131 148.08 95.5431 147.795 95.4231 147.525C95.3131 147.255 95.1581 147.025 94.9581 146.835C94.7681 146.635 94.5381 146.48 94.2681 146.37C94.0081 146.25 93.7181 146.19 93.3981 146.19C93.0681 146.19 92.7681 146.25 92.4981 146.37C92.2381 146.48 92.0131 146.635 91.8231 146.835C91.6331 147.035 91.4831 147.27 91.3731 147.54C91.2631 147.8 91.1981 148.08 91.1781 148.38H95.6331ZM96.8631 150.54C96.6931 151.41 96.3181 152.065 95.7381 152.505C95.1581 152.945 94.4281 153.165 93.5481 153.165C92.9281 153.165 92.3881 153.065 91.9281 152.865C91.4781 152.665 91.0981 152.385 90.7881 152.025C90.4781 151.665 90.2431 151.235 90.0831 150.735C89.9331 150.235 89.8481 149.69 89.8281 149.1C89.8281 148.51 89.9181 147.97 90.0981 147.48C90.2781 146.99 90.5281 146.565 90.8481 146.205C91.1781 145.845 91.5631 145.565 92.0031 145.365C92.4531 145.165 92.9431 145.065 93.4731 145.065C94.1631 145.065 94.7331 145.21 95.1831 145.5C95.6431 145.78 96.0081 146.14 96.2781 146.58C96.5581 147.02 96.7481 147.5 96.8481 148.02C96.9581 148.54 97.0031 149.035 96.9831 149.505H91.1781C91.1681 149.845 91.2081 150.17 91.2981 150.48C91.3881 150.78 91.5331 151.05 91.7331 151.29C91.9331 151.52 92.1881 151.705 92.4981 151.845C92.8081 151.985 93.1731 152.055 93.5931 152.055C94.1331 152.055 94.5731 151.93 94.9131 151.68C95.2631 151.43 95.4931 151.05 95.6031 150.54H96.8631ZM99.6547 143.85H98.3797V142.29H99.6547V143.85ZM98.3797 145.245H99.6547V153H98.3797V145.245ZM102.41 150.555C102.42 150.835 102.485 151.075 102.605 151.275C102.725 151.465 102.88 151.62 103.07 151.74C103.27 151.85 103.49 151.93 103.73 151.98C103.98 152.03 104.235 152.055 104.495 152.055C104.695 152.055 104.905 152.04 105.125 152.01C105.345 151.98 105.545 151.925 105.725 151.845C105.915 151.765 106.07 151.65 106.19 151.5C106.31 151.34 106.37 151.14 106.37 150.9C106.37 150.57 106.245 150.32 105.995 150.15C105.745 149.98 105.43 149.845 105.05 149.745C104.68 149.635 104.275 149.54 103.835 149.46C103.395 149.37 102.985 149.25 102.605 149.1C102.235 148.94 101.925 148.72 101.675 148.44C101.425 148.16 101.3 147.77 101.3 147.27C101.3 146.88 101.385 146.545 101.555 146.265C101.735 145.985 101.96 145.76 102.23 145.59C102.51 145.41 102.82 145.28 103.16 145.2C103.51 145.11 103.855 145.065 104.195 145.065C104.635 145.065 105.04 145.105 105.41 145.185C105.78 145.255 106.105 145.385 106.385 145.575C106.675 145.755 106.905 146.005 107.075 146.325C107.245 146.635 107.345 147.025 107.375 147.495H106.1C106.08 147.245 106.015 147.04 105.905 146.88C105.795 146.71 105.655 146.575 105.485 146.475C105.315 146.375 105.125 146.305 104.915 146.265C104.715 146.215 104.51 146.19 104.3 146.19C104.11 146.19 103.915 146.205 103.715 146.235C103.525 146.265 103.35 146.32 103.19 146.4C103.03 146.47 102.9 146.57 102.8 146.7C102.7 146.82 102.65 146.98 102.65 147.18C102.65 147.4 102.725 147.585 102.875 147.735C103.035 147.875 103.235 147.995 103.475 148.095C103.715 148.185 103.985 148.265 104.285 148.335C104.585 148.395 104.885 148.46 105.185 148.53C105.505 148.6 105.815 148.685 106.115 148.785C106.425 148.885 106.695 149.02 106.925 149.19C107.165 149.35 107.355 149.555 107.495 149.805C107.645 150.055 107.72 150.365 107.72 150.735C107.72 151.205 107.62 151.595 107.42 151.905C107.23 152.215 106.975 152.465 106.655 152.655C106.345 152.845 105.99 152.975 105.59 153.045C105.2 153.125 104.81 153.165 104.42 153.165C103.99 153.165 103.58 153.12 103.19 153.03C102.8 152.94 102.455 152.795 102.155 152.595C101.855 152.385 101.615 152.115 101.435 151.785C101.255 151.445 101.155 151.035 101.135 150.555H102.41ZM110.06 149.13C110.06 149.6 110.12 150.02 110.24 150.39C110.37 150.75 110.545 151.055 110.765 151.305C110.985 151.545 111.24 151.73 111.53 151.86C111.83 151.99 112.145 152.055 112.475 152.055C112.805 152.055 113.115 151.99 113.405 151.86C113.705 151.73 113.965 151.545 114.185 151.305C114.405 151.055 114.575 150.75 114.695 150.39C114.825 150.02 114.89 149.6 114.89 149.13C114.89 148.66 114.825 148.245 114.695 147.885C114.575 147.515 114.405 147.205 114.185 146.955C113.965 146.705 113.705 146.515 113.405 146.385C113.115 146.255 112.805 146.19 112.475 146.19C112.145 146.19 111.83 146.255 111.53 146.385C111.24 146.515 110.985 146.705 110.765 146.955C110.545 147.205 110.37 147.515 110.24 147.885C110.12 148.245 110.06 148.66 110.06 149.13ZM108.71 149.13C108.71 148.56 108.79 148.03 108.95 147.54C109.11 147.04 109.35 146.61 109.67 146.25C109.99 145.88 110.385 145.59 110.855 145.38C111.325 145.17 111.865 145.065 112.475 145.065C113.095 145.065 113.635 145.17 114.095 145.38C114.565 145.59 114.96 145.88 115.28 146.25C115.6 146.61 115.84 147.04 116 147.54C116.16 148.03 116.24 148.56 116.24 149.13C116.24 149.7 116.16 150.23 116 150.72C115.84 151.21 115.6 151.64 115.28 152.01C114.96 152.37 114.565 152.655 114.095 152.865C113.635 153.065 113.095 153.165 112.475 153.165C111.865 153.165 111.325 153.065 110.855 152.865C110.385 152.655 109.99 152.37 109.67 152.01C109.35 151.64 109.11 151.21 108.95 150.72C108.79 150.23 108.71 149.7 108.71 149.13ZM120.953 142.035H122.048L117.608 153.24H116.528L120.953 142.035ZM122.738 145.245H123.938V146.385H123.968C124.548 145.505 125.383 145.065 126.473 145.065C126.953 145.065 127.388 145.165 127.778 145.365C128.168 145.565 128.443 145.905 128.603 146.385C128.863 145.965 129.203 145.64 129.623 145.41C130.053 145.18 130.523 145.065 131.033 145.065C131.423 145.065 131.773 145.11 132.083 145.2C132.403 145.28 132.673 145.41 132.893 145.59C133.123 145.77 133.298 146.005 133.418 146.295C133.548 146.575 133.613 146.915 133.613 147.315V153H132.338V147.915C132.338 147.675 132.318 147.45 132.278 147.24C132.238 147.03 132.163 146.85 132.053 146.7C131.943 146.54 131.788 146.415 131.588 146.325C131.398 146.235 131.148 146.19 130.838 146.19C130.208 146.19 129.713 146.37 129.353 146.73C128.993 147.09 128.813 147.57 128.813 148.17V153H127.538V147.915C127.538 147.665 127.513 147.435 127.463 147.225C127.423 147.015 127.348 146.835 127.238 146.685C127.128 146.525 126.978 146.405 126.788 146.325C126.608 146.235 126.373 146.19 126.083 146.19C125.713 146.19 125.393 146.265 125.123 146.415C124.863 146.565 124.648 146.745 124.478 146.955C124.318 147.165 124.198 147.385 124.118 147.615C124.048 147.835 124.013 148.02 124.013 148.17V153H122.738V145.245ZM142.396 152.97C142.176 153.1 141.871 153.165 141.481 153.165C141.151 153.165 140.886 153.075 140.686 152.895C140.496 152.705 140.401 152.4 140.401 151.98C140.051 152.4 139.641 152.705 139.171 152.895C138.711 153.075 138.211 153.165 137.671 153.165C137.321 153.165 136.986 153.125 136.666 153.045C136.356 152.965 136.086 152.84 135.856 152.67C135.626 152.5 135.441 152.28 135.301 152.01C135.171 151.73 135.106 151.395 135.106 151.005C135.106 150.565 135.181 150.205 135.331 149.925C135.481 149.645 135.676 149.42 135.916 149.25C136.166 149.07 136.446 148.935 136.756 148.845C137.076 148.755 137.401 148.68 137.731 148.62C138.081 148.55 138.411 148.5 138.721 148.47C139.041 148.43 139.321 148.38 139.561 148.32C139.801 148.25 139.991 148.155 140.131 148.035C140.271 147.905 140.341 147.72 140.341 147.48C140.341 147.2 140.286 146.975 140.176 146.805C140.076 146.635 139.941 146.505 139.771 146.415C139.611 146.325 139.426 146.265 139.216 146.235C139.016 146.205 138.816 146.19 138.616 146.19C138.076 146.19 137.626 146.295 137.266 146.505C136.906 146.705 136.711 147.09 136.681 147.66H135.406C135.426 147.18 135.526 146.775 135.706 146.445C135.886 146.115 136.126 145.85 136.426 145.65C136.726 145.44 137.066 145.29 137.446 145.2C137.836 145.11 138.251 145.065 138.691 145.065C139.041 145.065 139.386 145.09 139.726 145.14C140.076 145.19 140.391 145.295 140.671 145.455C140.951 145.605 141.176 145.82 141.346 146.1C141.516 146.38 141.601 146.745 141.601 147.195V151.185C141.601 151.485 141.616 151.705 141.646 151.845C141.686 151.985 141.806 152.055 142.006 152.055C142.116 152.055 142.246 152.03 142.396 151.98V152.97ZM140.326 148.995C140.166 149.115 139.956 149.205 139.696 149.265C139.436 149.315 139.161 149.36 138.871 149.4C138.591 149.43 138.306 149.47 138.016 149.52C137.726 149.56 137.466 149.63 137.236 149.73C137.006 149.83 136.816 149.975 136.666 150.165C136.526 150.345 136.456 150.595 136.456 150.915C136.456 151.125 136.496 151.305 136.576 151.455C136.666 151.595 136.776 151.71 136.906 151.8C137.046 151.89 137.206 151.955 137.386 151.995C137.566 152.035 137.756 152.055 137.956 152.055C138.376 152.055 138.736 152 139.036 151.89C139.336 151.77 139.581 151.625 139.771 151.455C139.961 151.275 140.101 151.085 140.191 150.885C140.281 150.675 140.326 150.48 140.326 150.3V148.995ZM148.848 147.735C148.748 147.245 148.538 146.865 148.218 146.595C147.898 146.325 147.468 146.19 146.928 146.19C146.468 146.19 146.083 146.275 145.773 146.445C145.463 146.615 145.213 146.84 145.023 147.12C144.843 147.4 144.713 147.725 144.633 148.095C144.553 148.455 144.513 148.83 144.513 149.22C144.513 149.58 144.553 149.93 144.633 150.27C144.723 150.61 144.858 150.915 145.038 151.185C145.218 151.445 145.453 151.655 145.743 151.815C146.033 151.975 146.378 152.055 146.778 152.055C147.408 152.055 147.898 151.89 148.248 151.56C148.608 151.23 148.828 150.765 148.908 150.165H150.213C150.073 151.125 149.713 151.865 149.133 152.385C148.563 152.905 147.783 153.165 146.793 153.165C146.203 153.165 145.678 153.07 145.218 152.88C144.768 152.69 144.388 152.42 144.078 152.07C143.778 151.72 143.548 151.305 143.388 150.825C143.238 150.335 143.163 149.8 143.163 149.22C143.163 148.64 143.238 148.1 143.388 147.6C143.538 147.09 143.763 146.65 144.063 146.28C144.373 145.9 144.758 145.605 145.218 145.395C145.678 145.175 146.213 145.065 146.823 145.065C147.263 145.065 147.673 145.12 148.053 145.23C148.443 145.33 148.783 145.49 149.073 145.71C149.373 145.93 149.618 146.21 149.808 146.55C149.998 146.88 150.118 147.275 150.168 147.735H148.848ZM151.595 145.245H152.795V146.88H152.825C153.135 146.25 153.515 145.785 153.965 145.485C154.415 145.185 154.985 145.045 155.675 145.065V146.415C155.165 146.415 154.73 146.485 154.37 146.625C154.01 146.765 153.72 146.97 153.5 147.24C153.28 147.51 153.12 147.84 153.02 148.23C152.92 148.61 152.87 149.05 152.87 149.55V153H151.595V145.245ZM157.301 149.13C157.301 149.6 157.361 150.02 157.481 150.39C157.611 150.75 157.786 151.055 158.006 151.305C158.226 151.545 158.481 151.73 158.771 151.86C159.071 151.99 159.386 152.055 159.716 152.055C160.046 152.055 160.356 151.99 160.646 151.86C160.946 151.73 161.206 151.545 161.426 151.305C161.646 151.055 161.816 150.75 161.936 150.39C162.066 150.02 162.131 149.6 162.131 149.13C162.131 148.66 162.066 148.245 161.936 147.885C161.816 147.515 161.646 147.205 161.426 146.955C161.206 146.705 160.946 146.515 160.646 146.385C160.356 146.255 160.046 146.19 159.716 146.19C159.386 146.19 159.071 146.255 158.771 146.385C158.481 146.515 158.226 146.705 158.006 146.955C157.786 147.205 157.611 147.515 157.481 147.885C157.361 148.245 157.301 148.66 157.301 149.13ZM155.951 149.13C155.951 148.56 156.031 148.03 156.191 147.54C156.351 147.04 156.591 146.61 156.911 146.25C157.231 145.88 157.626 145.59 158.096 145.38C158.566 145.17 159.106 145.065 159.716 145.065C160.336 145.065 160.876 145.17 161.336 145.38C161.806 145.59 162.201 145.88 162.521 146.25C162.841 146.61 163.081 147.04 163.241 147.54C163.401 148.03 163.481 148.56 163.481 149.13C163.481 149.7 163.401 150.23 163.241 150.72C163.081 151.21 162.841 151.64 162.521 152.01C162.201 152.37 161.806 152.655 161.336 152.865C160.876 153.065 160.336 153.165 159.716 153.165C159.106 153.165 158.566 153.065 158.096 152.865C157.626 152.655 157.231 152.37 156.911 152.01C156.591 151.64 156.351 151.21 156.191 150.72C156.031 150.23 155.951 149.7 155.951 149.13ZM165.059 142.29H166.334V153H165.059V142.29ZM173.695 148.38C173.675 148.08 173.605 147.795 173.485 147.525C173.375 147.255 173.22 147.025 173.02 146.835C172.83 146.635 172.6 146.48 172.33 146.37C172.07 146.25 171.78 146.19 171.46 146.19C171.13 146.19 170.83 146.25 170.56 146.37C170.3 146.48 170.075 146.635 169.885 146.835C169.695 147.035 169.545 147.27 169.435 147.54C169.325 147.8 169.26 148.08 169.24 148.38H173.695ZM174.925 150.54C174.755 151.41 174.38 152.065 173.8 152.505C173.22 152.945 172.49 153.165 171.61 153.165C170.99 153.165 170.45 153.065 169.99 152.865C169.54 152.665 169.16 152.385 168.85 152.025C168.54 151.665 168.305 151.235 168.145 150.735C167.995 150.235 167.91 149.69 167.89 149.1C167.89 148.51 167.98 147.97 168.16 147.48C168.34 146.99 168.59 146.565 168.91 146.205C169.24 145.845 169.625 145.565 170.065 145.365C170.515 145.165 171.005 145.065 171.535 145.065C172.225 145.065 172.795 145.21 173.245 145.5C173.705 145.78 174.07 146.14 174.34 146.58C174.62 147.02 174.81 147.5 174.91 148.02C175.02 148.54 175.065 149.035 175.045 149.505H169.24C169.23 149.845 169.27 150.17 169.36 150.48C169.45 150.78 169.595 151.05 169.795 151.29C169.995 151.52 170.25 151.705 170.56 151.845C170.87 151.985 171.235 152.055 171.655 152.055C172.195 152.055 172.635 151.93 172.975 151.68C173.325 151.43 173.555 151.05 173.665 150.54H174.925ZM179.861 153H178.496L175.616 145.245H177.041L179.216 151.71H179.246L181.361 145.245H182.696L179.861 153Z" fill="white"/>
<defs>
<clipPath id="clip0_204_769">
<rect width="130" height="130" fill="white" transform="translate(26.5)"/>
</clipPath>
</defs>
</svg>
