<svg width="170" height="120" viewBox="0 0 170 120" fill="none" xmlns="http://www.w3.org/2000/svg">
<path d="M64.8153 27.2727H66.0767L69.0426 34.517H69.1449L72.1108 27.2727H73.3721V36H72.3835V29.3693H72.2983L69.571 36H68.6164L65.8892 29.3693H65.8039V36H64.8153V27.2727Z" fill="black"/>
<path d="M26.8023 92V83.2727H27.8591V91.0625H31.9159V92H26.8023Z" fill="black"/>
<path d="M82.5673 92V83.2727H87.8343V84.2102H83.6241V87.1591H87.5616V88.0966H83.6241V91.0625H87.9025V92H82.5673Z" fill="black"/>
<path d="M137.969 83.2727L140.559 90.6193H140.662L143.253 83.2727H144.361L141.156 92H140.065L136.861 83.2727H137.969Z" fill="black"/>
</svg>
