%TF.GenerationSoftware,KiCad,Pcbnew,7.0.7*%
%TF.CreationDate,2023-11-08T12:28:34+01:00*%
%TF.ProjectId,macrolev,6d616372-6f6c-4657-962e-6b696361645f,1.0*%
%TF.SameCoordinates,Original*%
%TF.FileFunction,Legend,Top*%
%TF.FilePolarity,Positive*%
%FSLAX46Y46*%
G04 Gerber Fmt 4.6, Leading zero omitted, Abs format (unit mm)*
G04 Created by KiCad (PCBNEW 7.0.7) date 2023-11-08 12:28:34*
%MOMM*%
%LPD*%
G01*
G04 APERTURE LIST*
%ADD10C,0.150000*%
%ADD11C,0.120000*%
G04 APERTURE END LIST*
D10*
X158395833Y-37202771D02*
X158348214Y-37155152D01*
X158348214Y-37155152D02*
X158252976Y-37012295D01*
X158252976Y-37012295D02*
X158205357Y-36917057D01*
X158205357Y-36917057D02*
X158157738Y-36774200D01*
X158157738Y-36774200D02*
X158110119Y-36536104D01*
X158110119Y-36536104D02*
X158110119Y-36345628D01*
X158110119Y-36345628D02*
X158157738Y-36107533D01*
X158157738Y-36107533D02*
X158205357Y-35964676D01*
X158205357Y-35964676D02*
X158252976Y-35869438D01*
X158252976Y-35869438D02*
X158348214Y-35726580D01*
X158348214Y-35726580D02*
X158395833Y-35678961D01*
X160014881Y-35821819D02*
X159538691Y-35821819D01*
X159538691Y-35821819D02*
X159491072Y-36298009D01*
X159491072Y-36298009D02*
X159538691Y-36250390D01*
X159538691Y-36250390D02*
X159633929Y-36202771D01*
X159633929Y-36202771D02*
X159872024Y-36202771D01*
X159872024Y-36202771D02*
X159967262Y-36250390D01*
X159967262Y-36250390D02*
X160014881Y-36298009D01*
X160014881Y-36298009D02*
X160062500Y-36393247D01*
X160062500Y-36393247D02*
X160062500Y-36631342D01*
X160062500Y-36631342D02*
X160014881Y-36726580D01*
X160014881Y-36726580D02*
X159967262Y-36774200D01*
X159967262Y-36774200D02*
X159872024Y-36821819D01*
X159872024Y-36821819D02*
X159633929Y-36821819D01*
X159633929Y-36821819D02*
X159538691Y-36774200D01*
X159538691Y-36774200D02*
X159491072Y-36726580D01*
X326845535Y-65349200D02*
X326750297Y-65396819D01*
X326750297Y-65396819D02*
X326559821Y-65396819D01*
X326559821Y-65396819D02*
X326464583Y-65349200D01*
X326464583Y-65349200D02*
X326416964Y-65253961D01*
X326416964Y-65253961D02*
X326416964Y-64873009D01*
X326416964Y-64873009D02*
X326464583Y-64777771D01*
X326464583Y-64777771D02*
X326559821Y-64730152D01*
X326559821Y-64730152D02*
X326750297Y-64730152D01*
X326750297Y-64730152D02*
X326845535Y-64777771D01*
X326845535Y-64777771D02*
X326893154Y-64873009D01*
X326893154Y-64873009D02*
X326893154Y-64968247D01*
X326893154Y-64968247D02*
X326416964Y-65063485D01*
X327321726Y-64730152D02*
X327321726Y-65396819D01*
X327321726Y-64825390D02*
X327369345Y-64777771D01*
X327369345Y-64777771D02*
X327464583Y-64730152D01*
X327464583Y-64730152D02*
X327607440Y-64730152D01*
X327607440Y-64730152D02*
X327702678Y-64777771D01*
X327702678Y-64777771D02*
X327750297Y-64873009D01*
X327750297Y-64873009D02*
X327750297Y-65396819D01*
X328083631Y-64730152D02*
X328464583Y-64730152D01*
X328226488Y-64396819D02*
X328226488Y-65253961D01*
X328226488Y-65253961D02*
X328274107Y-65349200D01*
X328274107Y-65349200D02*
X328369345Y-65396819D01*
X328369345Y-65396819D02*
X328464583Y-65396819D01*
X329178869Y-65349200D02*
X329083631Y-65396819D01*
X329083631Y-65396819D02*
X328893155Y-65396819D01*
X328893155Y-65396819D02*
X328797917Y-65349200D01*
X328797917Y-65349200D02*
X328750298Y-65253961D01*
X328750298Y-65253961D02*
X328750298Y-64873009D01*
X328750298Y-64873009D02*
X328797917Y-64777771D01*
X328797917Y-64777771D02*
X328893155Y-64730152D01*
X328893155Y-64730152D02*
X329083631Y-64730152D01*
X329083631Y-64730152D02*
X329178869Y-64777771D01*
X329178869Y-64777771D02*
X329226488Y-64873009D01*
X329226488Y-64873009D02*
X329226488Y-64968247D01*
X329226488Y-64968247D02*
X328750298Y-65063485D01*
X329655060Y-65396819D02*
X329655060Y-64730152D01*
X329655060Y-64920628D02*
X329702679Y-64825390D01*
X329702679Y-64825390D02*
X329750298Y-64777771D01*
X329750298Y-64777771D02*
X329845536Y-64730152D01*
X329845536Y-64730152D02*
X329940774Y-64730152D01*
X92601785Y-55871819D02*
X92601785Y-55348009D01*
X92601785Y-55348009D02*
X92554166Y-55252771D01*
X92554166Y-55252771D02*
X92458928Y-55205152D01*
X92458928Y-55205152D02*
X92268452Y-55205152D01*
X92268452Y-55205152D02*
X92173214Y-55252771D01*
X92601785Y-55824200D02*
X92506547Y-55871819D01*
X92506547Y-55871819D02*
X92268452Y-55871819D01*
X92268452Y-55871819D02*
X92173214Y-55824200D01*
X92173214Y-55824200D02*
X92125595Y-55728961D01*
X92125595Y-55728961D02*
X92125595Y-55633723D01*
X92125595Y-55633723D02*
X92173214Y-55538485D01*
X92173214Y-55538485D02*
X92268452Y-55490866D01*
X92268452Y-55490866D02*
X92506547Y-55490866D01*
X92506547Y-55490866D02*
X92601785Y-55443247D01*
X130677976Y-55824200D02*
X130582738Y-55871819D01*
X130582738Y-55871819D02*
X130392262Y-55871819D01*
X130392262Y-55871819D02*
X130297024Y-55824200D01*
X130297024Y-55824200D02*
X130249405Y-55728961D01*
X130249405Y-55728961D02*
X130249405Y-55348009D01*
X130249405Y-55348009D02*
X130297024Y-55252771D01*
X130297024Y-55252771D02*
X130392262Y-55205152D01*
X130392262Y-55205152D02*
X130582738Y-55205152D01*
X130582738Y-55205152D02*
X130677976Y-55252771D01*
X130677976Y-55252771D02*
X130725595Y-55348009D01*
X130725595Y-55348009D02*
X130725595Y-55443247D01*
X130725595Y-55443247D02*
X130249405Y-55538485D01*
X97364285Y-74255152D02*
X97364285Y-75255152D01*
X97364285Y-74874200D02*
X97269047Y-74921819D01*
X97269047Y-74921819D02*
X97078571Y-74921819D01*
X97078571Y-74921819D02*
X96983333Y-74874200D01*
X96983333Y-74874200D02*
X96935714Y-74826580D01*
X96935714Y-74826580D02*
X96888095Y-74731342D01*
X96888095Y-74731342D02*
X96888095Y-74445628D01*
X96888095Y-74445628D02*
X96935714Y-74350390D01*
X96935714Y-74350390D02*
X96983333Y-74302771D01*
X96983333Y-74302771D02*
X97078571Y-74255152D01*
X97078571Y-74255152D02*
X97269047Y-74255152D01*
X97269047Y-74255152D02*
X97364285Y-74302771D01*
X268171429Y-74921819D02*
X268171429Y-74255152D01*
X268171429Y-74350390D02*
X268219048Y-74302771D01*
X268219048Y-74302771D02*
X268314286Y-74255152D01*
X268314286Y-74255152D02*
X268457143Y-74255152D01*
X268457143Y-74255152D02*
X268552381Y-74302771D01*
X268552381Y-74302771D02*
X268600000Y-74398009D01*
X268600000Y-74398009D02*
X268600000Y-74921819D01*
X268600000Y-74398009D02*
X268647619Y-74302771D01*
X268647619Y-74302771D02*
X268742857Y-74255152D01*
X268742857Y-74255152D02*
X268885714Y-74255152D01*
X268885714Y-74255152D02*
X268980953Y-74302771D01*
X268980953Y-74302771D02*
X269028572Y-74398009D01*
X269028572Y-74398009D02*
X269028572Y-74921819D01*
X239453572Y-93924200D02*
X239453572Y-93971819D01*
X239453572Y-93971819D02*
X239405953Y-94067057D01*
X239405953Y-94067057D02*
X239358334Y-94114676D01*
X239405953Y-93352771D02*
X239453572Y-93400390D01*
X239453572Y-93400390D02*
X239405953Y-93448009D01*
X239405953Y-93448009D02*
X239358334Y-93400390D01*
X239358334Y-93400390D02*
X239405953Y-93352771D01*
X239405953Y-93352771D02*
X239405953Y-93448009D01*
X240644048Y-93876580D02*
X240691667Y-93924200D01*
X240691667Y-93924200D02*
X240644048Y-93971819D01*
X240644048Y-93971819D02*
X240596429Y-93924200D01*
X240596429Y-93924200D02*
X240644048Y-93876580D01*
X240644048Y-93876580D02*
X240644048Y-93971819D01*
X211450000Y-74255152D02*
X211450000Y-75112295D01*
X211450000Y-75112295D02*
X211402381Y-75207533D01*
X211402381Y-75207533D02*
X211307143Y-75255152D01*
X211307143Y-75255152D02*
X211259524Y-75255152D01*
X211450000Y-73921819D02*
X211402381Y-73969438D01*
X211402381Y-73969438D02*
X211450000Y-74017057D01*
X211450000Y-74017057D02*
X211497619Y-73969438D01*
X211497619Y-73969438D02*
X211450000Y-73921819D01*
X211450000Y-73921819D02*
X211450000Y-74017057D01*
X300008928Y-55824200D02*
X300151785Y-55871819D01*
X300151785Y-55871819D02*
X300389880Y-55871819D01*
X300389880Y-55871819D02*
X300485118Y-55824200D01*
X300485118Y-55824200D02*
X300532737Y-55776580D01*
X300532737Y-55776580D02*
X300580356Y-55681342D01*
X300580356Y-55681342D02*
X300580356Y-55586104D01*
X300580356Y-55586104D02*
X300532737Y-55490866D01*
X300532737Y-55490866D02*
X300485118Y-55443247D01*
X300485118Y-55443247D02*
X300389880Y-55395628D01*
X300389880Y-55395628D02*
X300199404Y-55348009D01*
X300199404Y-55348009D02*
X300104166Y-55300390D01*
X300104166Y-55300390D02*
X300056547Y-55252771D01*
X300056547Y-55252771D02*
X300008928Y-55157533D01*
X300008928Y-55157533D02*
X300008928Y-55062295D01*
X300008928Y-55062295D02*
X300056547Y-54967057D01*
X300056547Y-54967057D02*
X300104166Y-54919438D01*
X300104166Y-54919438D02*
X300199404Y-54871819D01*
X300199404Y-54871819D02*
X300437499Y-54871819D01*
X300437499Y-54871819D02*
X300580356Y-54919438D01*
X300294642Y-54728961D02*
X300294642Y-56014676D01*
X301913690Y-54871819D02*
X301913690Y-55109914D01*
X301675595Y-55014676D02*
X301913690Y-55109914D01*
X301913690Y-55109914D02*
X302151785Y-55014676D01*
X301770833Y-55300390D02*
X301913690Y-55109914D01*
X301913690Y-55109914D02*
X302056547Y-55300390D01*
X303151786Y-55490866D02*
X303580357Y-55490866D01*
X303151786Y-55252771D02*
X303723214Y-55252771D01*
X303866071Y-55776580D02*
X303818452Y-55824200D01*
X303818452Y-55824200D02*
X303675595Y-55871819D01*
X303675595Y-55871819D02*
X303580357Y-55871819D01*
X303580357Y-55871819D02*
X303437500Y-55824200D01*
X303437500Y-55824200D02*
X303342262Y-55728961D01*
X303342262Y-55728961D02*
X303294643Y-55633723D01*
X303294643Y-55633723D02*
X303247024Y-55443247D01*
X303247024Y-55443247D02*
X303247024Y-55300390D01*
X303247024Y-55300390D02*
X303294643Y-55109914D01*
X303294643Y-55109914D02*
X303342262Y-55014676D01*
X303342262Y-55014676D02*
X303437500Y-54919438D01*
X303437500Y-54919438D02*
X303580357Y-54871819D01*
X303580357Y-54871819D02*
X303675595Y-54871819D01*
X303675595Y-54871819D02*
X303818452Y-54919438D01*
X303818452Y-54919438D02*
X303866071Y-54967057D01*
X317333333Y-36821819D02*
X317333333Y-35821819D01*
X317333333Y-36202771D02*
X317428571Y-36155152D01*
X317428571Y-36155152D02*
X317619047Y-36155152D01*
X317619047Y-36155152D02*
X317714285Y-36202771D01*
X317714285Y-36202771D02*
X317761904Y-36250390D01*
X317761904Y-36250390D02*
X317809523Y-36345628D01*
X317809523Y-36345628D02*
X317809523Y-36631342D01*
X317809523Y-36631342D02*
X317761904Y-36726580D01*
X317761904Y-36726580D02*
X317714285Y-36774200D01*
X317714285Y-36774200D02*
X317619047Y-36821819D01*
X317619047Y-36821819D02*
X317428571Y-36821819D01*
X317428571Y-36821819D02*
X317333333Y-36774200D01*
X318666666Y-36821819D02*
X318666666Y-36298009D01*
X318666666Y-36298009D02*
X318619047Y-36202771D01*
X318619047Y-36202771D02*
X318523809Y-36155152D01*
X318523809Y-36155152D02*
X318333333Y-36155152D01*
X318333333Y-36155152D02*
X318238095Y-36202771D01*
X318666666Y-36774200D02*
X318571428Y-36821819D01*
X318571428Y-36821819D02*
X318333333Y-36821819D01*
X318333333Y-36821819D02*
X318238095Y-36774200D01*
X318238095Y-36774200D02*
X318190476Y-36678961D01*
X318190476Y-36678961D02*
X318190476Y-36583723D01*
X318190476Y-36583723D02*
X318238095Y-36488485D01*
X318238095Y-36488485D02*
X318333333Y-36440866D01*
X318333333Y-36440866D02*
X318571428Y-36440866D01*
X318571428Y-36440866D02*
X318666666Y-36393247D01*
X319571428Y-36774200D02*
X319476190Y-36821819D01*
X319476190Y-36821819D02*
X319285714Y-36821819D01*
X319285714Y-36821819D02*
X319190476Y-36774200D01*
X319190476Y-36774200D02*
X319142857Y-36726580D01*
X319142857Y-36726580D02*
X319095238Y-36631342D01*
X319095238Y-36631342D02*
X319095238Y-36345628D01*
X319095238Y-36345628D02*
X319142857Y-36250390D01*
X319142857Y-36250390D02*
X319190476Y-36202771D01*
X319190476Y-36202771D02*
X319285714Y-36155152D01*
X319285714Y-36155152D02*
X319476190Y-36155152D01*
X319476190Y-36155152D02*
X319571428Y-36202771D01*
X320000000Y-36821819D02*
X320000000Y-35821819D01*
X320095238Y-36440866D02*
X320380952Y-36821819D01*
X320380952Y-36155152D02*
X320000000Y-36536104D01*
X320761905Y-36774200D02*
X320857143Y-36821819D01*
X320857143Y-36821819D02*
X321047619Y-36821819D01*
X321047619Y-36821819D02*
X321142857Y-36774200D01*
X321142857Y-36774200D02*
X321190476Y-36678961D01*
X321190476Y-36678961D02*
X321190476Y-36631342D01*
X321190476Y-36631342D02*
X321142857Y-36536104D01*
X321142857Y-36536104D02*
X321047619Y-36488485D01*
X321047619Y-36488485D02*
X320904762Y-36488485D01*
X320904762Y-36488485D02*
X320809524Y-36440866D01*
X320809524Y-36440866D02*
X320761905Y-36345628D01*
X320761905Y-36345628D02*
X320761905Y-36298009D01*
X320761905Y-36298009D02*
X320809524Y-36202771D01*
X320809524Y-36202771D02*
X320904762Y-36155152D01*
X320904762Y-36155152D02*
X321047619Y-36155152D01*
X321047619Y-36155152D02*
X321142857Y-36202771D01*
X321619048Y-36155152D02*
X321619048Y-37155152D01*
X321619048Y-36202771D02*
X321714286Y-36155152D01*
X321714286Y-36155152D02*
X321904762Y-36155152D01*
X321904762Y-36155152D02*
X322000000Y-36202771D01*
X322000000Y-36202771D02*
X322047619Y-36250390D01*
X322047619Y-36250390D02*
X322095238Y-36345628D01*
X322095238Y-36345628D02*
X322095238Y-36631342D01*
X322095238Y-36631342D02*
X322047619Y-36726580D01*
X322047619Y-36726580D02*
X322000000Y-36774200D01*
X322000000Y-36774200D02*
X321904762Y-36821819D01*
X321904762Y-36821819D02*
X321714286Y-36821819D01*
X321714286Y-36821819D02*
X321619048Y-36774200D01*
X322952381Y-36821819D02*
X322952381Y-36298009D01*
X322952381Y-36298009D02*
X322904762Y-36202771D01*
X322904762Y-36202771D02*
X322809524Y-36155152D01*
X322809524Y-36155152D02*
X322619048Y-36155152D01*
X322619048Y-36155152D02*
X322523810Y-36202771D01*
X322952381Y-36774200D02*
X322857143Y-36821819D01*
X322857143Y-36821819D02*
X322619048Y-36821819D01*
X322619048Y-36821819D02*
X322523810Y-36774200D01*
X322523810Y-36774200D02*
X322476191Y-36678961D01*
X322476191Y-36678961D02*
X322476191Y-36583723D01*
X322476191Y-36583723D02*
X322523810Y-36488485D01*
X322523810Y-36488485D02*
X322619048Y-36440866D01*
X322619048Y-36440866D02*
X322857143Y-36440866D01*
X322857143Y-36440866D02*
X322952381Y-36393247D01*
X323857143Y-36774200D02*
X323761905Y-36821819D01*
X323761905Y-36821819D02*
X323571429Y-36821819D01*
X323571429Y-36821819D02*
X323476191Y-36774200D01*
X323476191Y-36774200D02*
X323428572Y-36726580D01*
X323428572Y-36726580D02*
X323380953Y-36631342D01*
X323380953Y-36631342D02*
X323380953Y-36345628D01*
X323380953Y-36345628D02*
X323428572Y-36250390D01*
X323428572Y-36250390D02*
X323476191Y-36202771D01*
X323476191Y-36202771D02*
X323571429Y-36155152D01*
X323571429Y-36155152D02*
X323761905Y-36155152D01*
X323761905Y-36155152D02*
X323857143Y-36202771D01*
X324666667Y-36774200D02*
X324571429Y-36821819D01*
X324571429Y-36821819D02*
X324380953Y-36821819D01*
X324380953Y-36821819D02*
X324285715Y-36774200D01*
X324285715Y-36774200D02*
X324238096Y-36678961D01*
X324238096Y-36678961D02*
X324238096Y-36298009D01*
X324238096Y-36298009D02*
X324285715Y-36202771D01*
X324285715Y-36202771D02*
X324380953Y-36155152D01*
X324380953Y-36155152D02*
X324571429Y-36155152D01*
X324571429Y-36155152D02*
X324666667Y-36202771D01*
X324666667Y-36202771D02*
X324714286Y-36298009D01*
X324714286Y-36298009D02*
X324714286Y-36393247D01*
X324714286Y-36393247D02*
X324238096Y-36488485D01*
X187399405Y-55205152D02*
X187637500Y-55871819D01*
X187875595Y-55205152D02*
X187637500Y-55871819D01*
X187637500Y-55871819D02*
X187542262Y-56109914D01*
X187542262Y-56109914D02*
X187494643Y-56157533D01*
X187494643Y-56157533D02*
X187399405Y-56205152D01*
X276744048Y-93448009D02*
X277505953Y-93448009D01*
X277505953Y-93733723D02*
X276744048Y-93733723D01*
X278744048Y-93590866D02*
X279505953Y-93590866D01*
X279125000Y-93971819D02*
X279125000Y-93209914D01*
X258170238Y-93876580D02*
X258217857Y-93924200D01*
X258217857Y-93924200D02*
X258170238Y-93971819D01*
X258170238Y-93971819D02*
X258122619Y-93924200D01*
X258122619Y-93924200D02*
X258170238Y-93876580D01*
X258170238Y-93876580D02*
X258170238Y-93971819D01*
X258170238Y-93352771D02*
X258217857Y-93400390D01*
X258217857Y-93400390D02*
X258170238Y-93448009D01*
X258170238Y-93448009D02*
X258122619Y-93400390D01*
X258122619Y-93400390D02*
X258170238Y-93352771D01*
X258170238Y-93352771D02*
X258170238Y-93448009D01*
X260122618Y-92924200D02*
X259265476Y-94209914D01*
X312105654Y-93971819D02*
X312105654Y-93305152D01*
X312105654Y-93495628D02*
X312153273Y-93400390D01*
X312153273Y-93400390D02*
X312200892Y-93352771D01*
X312200892Y-93352771D02*
X312296130Y-93305152D01*
X312296130Y-93305152D02*
X312391368Y-93305152D01*
X312677083Y-93924200D02*
X312772321Y-93971819D01*
X312772321Y-93971819D02*
X312962797Y-93971819D01*
X312962797Y-93971819D02*
X313058035Y-93924200D01*
X313058035Y-93924200D02*
X313105654Y-93828961D01*
X313105654Y-93828961D02*
X313105654Y-93781342D01*
X313105654Y-93781342D02*
X313058035Y-93686104D01*
X313058035Y-93686104D02*
X312962797Y-93638485D01*
X312962797Y-93638485D02*
X312819940Y-93638485D01*
X312819940Y-93638485D02*
X312724702Y-93590866D01*
X312724702Y-93590866D02*
X312677083Y-93495628D01*
X312677083Y-93495628D02*
X312677083Y-93448009D01*
X312677083Y-93448009D02*
X312724702Y-93352771D01*
X312724702Y-93352771D02*
X312819940Y-93305152D01*
X312819940Y-93305152D02*
X312962797Y-93305152D01*
X312962797Y-93305152D02*
X313058035Y-93352771D01*
X313534226Y-93971819D02*
X313534226Y-92971819D01*
X313962797Y-93971819D02*
X313962797Y-93448009D01*
X313962797Y-93448009D02*
X313915178Y-93352771D01*
X313915178Y-93352771D02*
X313819940Y-93305152D01*
X313819940Y-93305152D02*
X313677083Y-93305152D01*
X313677083Y-93305152D02*
X313581845Y-93352771D01*
X313581845Y-93352771D02*
X313534226Y-93400390D01*
X314438988Y-93971819D02*
X314438988Y-93305152D01*
X314438988Y-92971819D02*
X314391369Y-93019438D01*
X314391369Y-93019438D02*
X314438988Y-93067057D01*
X314438988Y-93067057D02*
X314486607Y-93019438D01*
X314486607Y-93019438D02*
X314438988Y-92971819D01*
X314438988Y-92971819D02*
X314438988Y-93067057D01*
X314772321Y-93305152D02*
X315153273Y-93305152D01*
X314915178Y-93971819D02*
X314915178Y-93114676D01*
X314915178Y-93114676D02*
X314962797Y-93019438D01*
X314962797Y-93019438D02*
X315058035Y-92971819D01*
X315058035Y-92971819D02*
X315153273Y-92971819D01*
X315343750Y-93305152D02*
X315724702Y-93305152D01*
X315486607Y-92971819D02*
X315486607Y-93828961D01*
X315486607Y-93828961D02*
X315534226Y-93924200D01*
X315534226Y-93924200D02*
X315629464Y-93971819D01*
X315629464Y-93971819D02*
X315724702Y-93971819D01*
X286911904Y-74255152D02*
X286911904Y-74921819D01*
X286483333Y-74255152D02*
X286483333Y-74778961D01*
X286483333Y-74778961D02*
X286530952Y-74874200D01*
X286530952Y-74874200D02*
X286626190Y-74921819D01*
X286626190Y-74921819D02*
X286769047Y-74921819D01*
X286769047Y-74921819D02*
X286864285Y-74874200D01*
X286864285Y-74874200D02*
X286911904Y-74826580D01*
X286626190Y-73874200D02*
X286769047Y-74017057D01*
X288102381Y-74921819D02*
X288864285Y-73921819D01*
X288245238Y-73921819D02*
X288340476Y-73969438D01*
X288340476Y-73969438D02*
X288388095Y-74064676D01*
X288388095Y-74064676D02*
X288340476Y-74159914D01*
X288340476Y-74159914D02*
X288245238Y-74207533D01*
X288245238Y-74207533D02*
X288150000Y-74159914D01*
X288150000Y-74159914D02*
X288102381Y-74064676D01*
X288102381Y-74064676D02*
X288150000Y-73969438D01*
X288150000Y-73969438D02*
X288245238Y-73921819D01*
X288816666Y-74874200D02*
X288864285Y-74778961D01*
X288864285Y-74778961D02*
X288816666Y-74683723D01*
X288816666Y-74683723D02*
X288721428Y-74636104D01*
X288721428Y-74636104D02*
X288626190Y-74683723D01*
X288626190Y-74683723D02*
X288578571Y-74778961D01*
X288578571Y-74778961D02*
X288626190Y-74874200D01*
X288626190Y-74874200D02*
X288721428Y-74921819D01*
X288721428Y-74921819D02*
X288816666Y-74874200D01*
X291531547Y-113021819D02*
X291436309Y-112974200D01*
X291436309Y-112974200D02*
X291388690Y-112878961D01*
X291388690Y-112878961D02*
X291388690Y-112021819D01*
X292293452Y-112974200D02*
X292198214Y-113021819D01*
X292198214Y-113021819D02*
X292007738Y-113021819D01*
X292007738Y-113021819D02*
X291912500Y-112974200D01*
X291912500Y-112974200D02*
X291864881Y-112878961D01*
X291864881Y-112878961D02*
X291864881Y-112498009D01*
X291864881Y-112498009D02*
X291912500Y-112402771D01*
X291912500Y-112402771D02*
X292007738Y-112355152D01*
X292007738Y-112355152D02*
X292198214Y-112355152D01*
X292198214Y-112355152D02*
X292293452Y-112402771D01*
X292293452Y-112402771D02*
X292341071Y-112498009D01*
X292341071Y-112498009D02*
X292341071Y-112593247D01*
X292341071Y-112593247D02*
X291864881Y-112688485D01*
X292626786Y-112355152D02*
X293007738Y-112355152D01*
X292769643Y-113021819D02*
X292769643Y-112164676D01*
X292769643Y-112164676D02*
X292817262Y-112069438D01*
X292817262Y-112069438D02*
X292912500Y-112021819D01*
X292912500Y-112021819D02*
X293007738Y-112021819D01*
X293198215Y-112355152D02*
X293579167Y-112355152D01*
X293341072Y-112021819D02*
X293341072Y-112878961D01*
X293341072Y-112878961D02*
X293388691Y-112974200D01*
X293388691Y-112974200D02*
X293483929Y-113021819D01*
X293483929Y-113021819D02*
X293579167Y-113021819D01*
X154109524Y-74255152D02*
X154490476Y-74255152D01*
X154252381Y-74921819D02*
X154252381Y-74064676D01*
X154252381Y-74064676D02*
X154300000Y-73969438D01*
X154300000Y-73969438D02*
X154395238Y-73921819D01*
X154395238Y-73921819D02*
X154490476Y-73921819D01*
X67956249Y-74874200D02*
X67861011Y-74921819D01*
X67861011Y-74921819D02*
X67670535Y-74921819D01*
X67670535Y-74921819D02*
X67575297Y-74874200D01*
X67575297Y-74874200D02*
X67527678Y-74826580D01*
X67527678Y-74826580D02*
X67480059Y-74731342D01*
X67480059Y-74731342D02*
X67480059Y-74445628D01*
X67480059Y-74445628D02*
X67527678Y-74350390D01*
X67527678Y-74350390D02*
X67575297Y-74302771D01*
X67575297Y-74302771D02*
X67670535Y-74255152D01*
X67670535Y-74255152D02*
X67861011Y-74255152D01*
X67861011Y-74255152D02*
X67956249Y-74302771D01*
X68813392Y-74921819D02*
X68813392Y-74398009D01*
X68813392Y-74398009D02*
X68765773Y-74302771D01*
X68765773Y-74302771D02*
X68670535Y-74255152D01*
X68670535Y-74255152D02*
X68480059Y-74255152D01*
X68480059Y-74255152D02*
X68384821Y-74302771D01*
X68813392Y-74874200D02*
X68718154Y-74921819D01*
X68718154Y-74921819D02*
X68480059Y-74921819D01*
X68480059Y-74921819D02*
X68384821Y-74874200D01*
X68384821Y-74874200D02*
X68337202Y-74778961D01*
X68337202Y-74778961D02*
X68337202Y-74683723D01*
X68337202Y-74683723D02*
X68384821Y-74588485D01*
X68384821Y-74588485D02*
X68480059Y-74540866D01*
X68480059Y-74540866D02*
X68718154Y-74540866D01*
X68718154Y-74540866D02*
X68813392Y-74493247D01*
X69289583Y-74255152D02*
X69289583Y-75255152D01*
X69289583Y-74302771D02*
X69384821Y-74255152D01*
X69384821Y-74255152D02*
X69575297Y-74255152D01*
X69575297Y-74255152D02*
X69670535Y-74302771D01*
X69670535Y-74302771D02*
X69718154Y-74350390D01*
X69718154Y-74350390D02*
X69765773Y-74445628D01*
X69765773Y-74445628D02*
X69765773Y-74731342D01*
X69765773Y-74731342D02*
X69718154Y-74826580D01*
X69718154Y-74826580D02*
X69670535Y-74874200D01*
X69670535Y-74874200D02*
X69575297Y-74921819D01*
X69575297Y-74921819D02*
X69384821Y-74921819D01*
X69384821Y-74921819D02*
X69289583Y-74874200D01*
X70146726Y-74874200D02*
X70241964Y-74921819D01*
X70241964Y-74921819D02*
X70432440Y-74921819D01*
X70432440Y-74921819D02*
X70527678Y-74874200D01*
X70527678Y-74874200D02*
X70575297Y-74778961D01*
X70575297Y-74778961D02*
X70575297Y-74731342D01*
X70575297Y-74731342D02*
X70527678Y-74636104D01*
X70527678Y-74636104D02*
X70432440Y-74588485D01*
X70432440Y-74588485D02*
X70289583Y-74588485D01*
X70289583Y-74588485D02*
X70194345Y-74540866D01*
X70194345Y-74540866D02*
X70146726Y-74445628D01*
X70146726Y-74445628D02*
X70146726Y-74398009D01*
X70146726Y-74398009D02*
X70194345Y-74302771D01*
X70194345Y-74302771D02*
X70289583Y-74255152D01*
X70289583Y-74255152D02*
X70432440Y-74255152D01*
X70432440Y-74255152D02*
X70527678Y-74302771D01*
X71908631Y-74921819D02*
X71813393Y-74874200D01*
X71813393Y-74874200D02*
X71765774Y-74778961D01*
X71765774Y-74778961D02*
X71765774Y-73921819D01*
X72432441Y-74921819D02*
X72337203Y-74874200D01*
X72337203Y-74874200D02*
X72289584Y-74826580D01*
X72289584Y-74826580D02*
X72241965Y-74731342D01*
X72241965Y-74731342D02*
X72241965Y-74445628D01*
X72241965Y-74445628D02*
X72289584Y-74350390D01*
X72289584Y-74350390D02*
X72337203Y-74302771D01*
X72337203Y-74302771D02*
X72432441Y-74255152D01*
X72432441Y-74255152D02*
X72575298Y-74255152D01*
X72575298Y-74255152D02*
X72670536Y-74302771D01*
X72670536Y-74302771D02*
X72718155Y-74350390D01*
X72718155Y-74350390D02*
X72765774Y-74445628D01*
X72765774Y-74445628D02*
X72765774Y-74731342D01*
X72765774Y-74731342D02*
X72718155Y-74826580D01*
X72718155Y-74826580D02*
X72670536Y-74874200D01*
X72670536Y-74874200D02*
X72575298Y-74921819D01*
X72575298Y-74921819D02*
X72432441Y-74921819D01*
X73622917Y-74874200D02*
X73527679Y-74921819D01*
X73527679Y-74921819D02*
X73337203Y-74921819D01*
X73337203Y-74921819D02*
X73241965Y-74874200D01*
X73241965Y-74874200D02*
X73194346Y-74826580D01*
X73194346Y-74826580D02*
X73146727Y-74731342D01*
X73146727Y-74731342D02*
X73146727Y-74445628D01*
X73146727Y-74445628D02*
X73194346Y-74350390D01*
X73194346Y-74350390D02*
X73241965Y-74302771D01*
X73241965Y-74302771D02*
X73337203Y-74255152D01*
X73337203Y-74255152D02*
X73527679Y-74255152D01*
X73527679Y-74255152D02*
X73622917Y-74302771D01*
X74051489Y-74921819D02*
X74051489Y-73921819D01*
X74146727Y-74540866D02*
X74432441Y-74921819D01*
X74432441Y-74255152D02*
X74051489Y-74636104D01*
X201710714Y-93305152D02*
X201710714Y-93971819D01*
X201710714Y-93400390D02*
X201758333Y-93352771D01*
X201758333Y-93352771D02*
X201853571Y-93305152D01*
X201853571Y-93305152D02*
X201996428Y-93305152D01*
X201996428Y-93305152D02*
X202091666Y-93352771D01*
X202091666Y-93352771D02*
X202139285Y-93448009D01*
X202139285Y-93448009D02*
X202139285Y-93971819D01*
X305771429Y-73874200D02*
X305914286Y-74017057D01*
X307009524Y-74255152D02*
X307390476Y-74255152D01*
X307009524Y-74921819D02*
X307533333Y-74921819D01*
X307152381Y-74921819D02*
X307152381Y-74064676D01*
X307152381Y-74064676D02*
X307200000Y-73969438D01*
X307200000Y-73969438D02*
X307295238Y-73921819D01*
X307295238Y-73921819D02*
X307438095Y-73921819D01*
X307438095Y-73921819D02*
X307533333Y-73969438D01*
X149466071Y-55871819D02*
X149466071Y-55205152D01*
X149466071Y-55395628D02*
X149513690Y-55300390D01*
X149513690Y-55300390D02*
X149561309Y-55252771D01*
X149561309Y-55252771D02*
X149656547Y-55205152D01*
X149656547Y-55205152D02*
X149751785Y-55205152D01*
X168397024Y-55205152D02*
X168777976Y-55205152D01*
X168539881Y-54871819D02*
X168539881Y-55728961D01*
X168539881Y-55728961D02*
X168587500Y-55824200D01*
X168587500Y-55824200D02*
X168682738Y-55871819D01*
X168682738Y-55871819D02*
X168777976Y-55871819D01*
X263623214Y-55205152D02*
X263623214Y-56205152D01*
X263623214Y-55252771D02*
X263718452Y-55205152D01*
X263718452Y-55205152D02*
X263908928Y-55205152D01*
X263908928Y-55205152D02*
X264004166Y-55252771D01*
X264004166Y-55252771D02*
X264051785Y-55300390D01*
X264051785Y-55300390D02*
X264099404Y-55395628D01*
X264099404Y-55395628D02*
X264099404Y-55681342D01*
X264099404Y-55681342D02*
X264051785Y-55776580D01*
X264051785Y-55776580D02*
X264004166Y-55824200D01*
X264004166Y-55824200D02*
X263908928Y-55871819D01*
X263908928Y-55871819D02*
X263718452Y-55871819D01*
X263718452Y-55871819D02*
X263623214Y-55824200D01*
X82433929Y-36821819D02*
X82386310Y-36821819D01*
X82386310Y-36821819D02*
X82291071Y-36774200D01*
X82291071Y-36774200D02*
X82148214Y-36631342D01*
X82148214Y-36631342D02*
X81910119Y-36345628D01*
X81910119Y-36345628D02*
X81814881Y-36202771D01*
X81814881Y-36202771D02*
X81767262Y-36059914D01*
X81767262Y-36059914D02*
X81767262Y-35964676D01*
X81767262Y-35964676D02*
X81814881Y-35869438D01*
X81814881Y-35869438D02*
X81910119Y-35821819D01*
X81910119Y-35821819D02*
X81957738Y-35821819D01*
X81957738Y-35821819D02*
X82052976Y-35869438D01*
X82052976Y-35869438D02*
X82100595Y-35964676D01*
X82100595Y-35964676D02*
X82100595Y-36012295D01*
X82100595Y-36012295D02*
X82052976Y-36107533D01*
X82052976Y-36107533D02*
X82005357Y-36155152D01*
X82005357Y-36155152D02*
X81719643Y-36345628D01*
X81719643Y-36345628D02*
X81672024Y-36393247D01*
X81672024Y-36393247D02*
X81624405Y-36488485D01*
X81624405Y-36488485D02*
X81624405Y-36631342D01*
X81624405Y-36631342D02*
X81672024Y-36726580D01*
X81672024Y-36726580D02*
X81719643Y-36774200D01*
X81719643Y-36774200D02*
X81814881Y-36821819D01*
X81814881Y-36821819D02*
X81957738Y-36821819D01*
X81957738Y-36821819D02*
X82052976Y-36774200D01*
X82052976Y-36774200D02*
X82100595Y-36726580D01*
X82100595Y-36726580D02*
X82243452Y-36536104D01*
X82243452Y-36536104D02*
X82291071Y-36393247D01*
X82291071Y-36393247D02*
X82291071Y-36298009D01*
X84148214Y-36821819D02*
X83576786Y-36821819D01*
X83862500Y-36821819D02*
X83862500Y-35821819D01*
X83862500Y-35821819D02*
X83767262Y-35964676D01*
X83767262Y-35964676D02*
X83672024Y-36059914D01*
X83672024Y-36059914D02*
X83576786Y-36107533D01*
X163586905Y-93305152D02*
X163825000Y-93971819D01*
X163825000Y-93971819D02*
X164063095Y-93305152D01*
X310248214Y-113021819D02*
X310248214Y-112021819D01*
X310248214Y-112974200D02*
X310152976Y-113021819D01*
X310152976Y-113021819D02*
X309962500Y-113021819D01*
X309962500Y-113021819D02*
X309867262Y-112974200D01*
X309867262Y-112974200D02*
X309819643Y-112926580D01*
X309819643Y-112926580D02*
X309772024Y-112831342D01*
X309772024Y-112831342D02*
X309772024Y-112545628D01*
X309772024Y-112545628D02*
X309819643Y-112450390D01*
X309819643Y-112450390D02*
X309867262Y-112402771D01*
X309867262Y-112402771D02*
X309962500Y-112355152D01*
X309962500Y-112355152D02*
X310152976Y-112355152D01*
X310152976Y-112355152D02*
X310248214Y-112402771D01*
X310867262Y-113021819D02*
X310772024Y-112974200D01*
X310772024Y-112974200D02*
X310724405Y-112926580D01*
X310724405Y-112926580D02*
X310676786Y-112831342D01*
X310676786Y-112831342D02*
X310676786Y-112545628D01*
X310676786Y-112545628D02*
X310724405Y-112450390D01*
X310724405Y-112450390D02*
X310772024Y-112402771D01*
X310772024Y-112402771D02*
X310867262Y-112355152D01*
X310867262Y-112355152D02*
X311010119Y-112355152D01*
X311010119Y-112355152D02*
X311105357Y-112402771D01*
X311105357Y-112402771D02*
X311152976Y-112450390D01*
X311152976Y-112450390D02*
X311200595Y-112545628D01*
X311200595Y-112545628D02*
X311200595Y-112831342D01*
X311200595Y-112831342D02*
X311152976Y-112926580D01*
X311152976Y-112926580D02*
X311105357Y-112974200D01*
X311105357Y-112974200D02*
X311010119Y-113021819D01*
X311010119Y-113021819D02*
X310867262Y-113021819D01*
X311533929Y-112355152D02*
X311724405Y-113021819D01*
X311724405Y-113021819D02*
X311914881Y-112545628D01*
X311914881Y-112545628D02*
X312105357Y-113021819D01*
X312105357Y-113021819D02*
X312295833Y-112355152D01*
X312676786Y-112355152D02*
X312676786Y-113021819D01*
X312676786Y-112450390D02*
X312724405Y-112402771D01*
X312724405Y-112402771D02*
X312819643Y-112355152D01*
X312819643Y-112355152D02*
X312962500Y-112355152D01*
X312962500Y-112355152D02*
X313057738Y-112402771D01*
X313057738Y-112402771D02*
X313105357Y-112498009D01*
X313105357Y-112498009D02*
X313105357Y-113021819D01*
X291269643Y-36440866D02*
X292031548Y-36440866D01*
X293031548Y-36917057D02*
X293793452Y-36917057D01*
X145013095Y-93924200D02*
X144917857Y-93971819D01*
X144917857Y-93971819D02*
X144727381Y-93971819D01*
X144727381Y-93971819D02*
X144632143Y-93924200D01*
X144632143Y-93924200D02*
X144584524Y-93876580D01*
X144584524Y-93876580D02*
X144536905Y-93781342D01*
X144536905Y-93781342D02*
X144536905Y-93495628D01*
X144536905Y-93495628D02*
X144584524Y-93400390D01*
X144584524Y-93400390D02*
X144632143Y-93352771D01*
X144632143Y-93352771D02*
X144727381Y-93305152D01*
X144727381Y-93305152D02*
X144917857Y-93305152D01*
X144917857Y-93305152D02*
X145013095Y-93352771D01*
X115985714Y-74874200D02*
X116080952Y-74921819D01*
X116080952Y-74921819D02*
X116271428Y-74921819D01*
X116271428Y-74921819D02*
X116366666Y-74874200D01*
X116366666Y-74874200D02*
X116414285Y-74778961D01*
X116414285Y-74778961D02*
X116414285Y-74731342D01*
X116414285Y-74731342D02*
X116366666Y-74636104D01*
X116366666Y-74636104D02*
X116271428Y-74588485D01*
X116271428Y-74588485D02*
X116128571Y-74588485D01*
X116128571Y-74588485D02*
X116033333Y-74540866D01*
X116033333Y-74540866D02*
X115985714Y-74445628D01*
X115985714Y-74445628D02*
X115985714Y-74398009D01*
X115985714Y-74398009D02*
X116033333Y-74302771D01*
X116033333Y-74302771D02*
X116128571Y-74255152D01*
X116128571Y-74255152D02*
X116271428Y-74255152D01*
X116271428Y-74255152D02*
X116366666Y-74302771D01*
X135464285Y-74921819D02*
X135464285Y-73921819D01*
X135464285Y-74874200D02*
X135369047Y-74921819D01*
X135369047Y-74921819D02*
X135178571Y-74921819D01*
X135178571Y-74921819D02*
X135083333Y-74874200D01*
X135083333Y-74874200D02*
X135035714Y-74826580D01*
X135035714Y-74826580D02*
X134988095Y-74731342D01*
X134988095Y-74731342D02*
X134988095Y-74445628D01*
X134988095Y-74445628D02*
X135035714Y-74350390D01*
X135035714Y-74350390D02*
X135083333Y-74302771D01*
X135083333Y-74302771D02*
X135178571Y-74255152D01*
X135178571Y-74255152D02*
X135369047Y-74255152D01*
X135369047Y-74255152D02*
X135464285Y-74302771D01*
X329012500Y-113021819D02*
X329012500Y-112355152D01*
X329012500Y-112545628D02*
X329060119Y-112450390D01*
X329060119Y-112450390D02*
X329107738Y-112402771D01*
X329107738Y-112402771D02*
X329202976Y-112355152D01*
X329202976Y-112355152D02*
X329298214Y-112355152D01*
X329631548Y-113021819D02*
X329631548Y-112355152D01*
X329631548Y-112021819D02*
X329583929Y-112069438D01*
X329583929Y-112069438D02*
X329631548Y-112117057D01*
X329631548Y-112117057D02*
X329679167Y-112069438D01*
X329679167Y-112069438D02*
X329631548Y-112021819D01*
X329631548Y-112021819D02*
X329631548Y-112117057D01*
X330536309Y-112355152D02*
X330536309Y-113164676D01*
X330536309Y-113164676D02*
X330488690Y-113259914D01*
X330488690Y-113259914D02*
X330441071Y-113307533D01*
X330441071Y-113307533D02*
X330345833Y-113355152D01*
X330345833Y-113355152D02*
X330202976Y-113355152D01*
X330202976Y-113355152D02*
X330107738Y-113307533D01*
X330536309Y-112974200D02*
X330441071Y-113021819D01*
X330441071Y-113021819D02*
X330250595Y-113021819D01*
X330250595Y-113021819D02*
X330155357Y-112974200D01*
X330155357Y-112974200D02*
X330107738Y-112926580D01*
X330107738Y-112926580D02*
X330060119Y-112831342D01*
X330060119Y-112831342D02*
X330060119Y-112545628D01*
X330060119Y-112545628D02*
X330107738Y-112450390D01*
X330107738Y-112450390D02*
X330155357Y-112402771D01*
X330155357Y-112402771D02*
X330250595Y-112355152D01*
X330250595Y-112355152D02*
X330441071Y-112355152D01*
X330441071Y-112355152D02*
X330536309Y-112402771D01*
X331012500Y-113021819D02*
X331012500Y-112021819D01*
X331441071Y-113021819D02*
X331441071Y-112498009D01*
X331441071Y-112498009D02*
X331393452Y-112402771D01*
X331393452Y-112402771D02*
X331298214Y-112355152D01*
X331298214Y-112355152D02*
X331155357Y-112355152D01*
X331155357Y-112355152D02*
X331060119Y-112402771D01*
X331060119Y-112402771D02*
X331012500Y-112450390D01*
X331774405Y-112355152D02*
X332155357Y-112355152D01*
X331917262Y-112021819D02*
X331917262Y-112878961D01*
X331917262Y-112878961D02*
X331964881Y-112974200D01*
X331964881Y-112974200D02*
X332060119Y-113021819D01*
X332060119Y-113021819D02*
X332155357Y-113021819D01*
X70337201Y-112974200D02*
X70241963Y-113021819D01*
X70241963Y-113021819D02*
X70051487Y-113021819D01*
X70051487Y-113021819D02*
X69956249Y-112974200D01*
X69956249Y-112974200D02*
X69908630Y-112926580D01*
X69908630Y-112926580D02*
X69861011Y-112831342D01*
X69861011Y-112831342D02*
X69861011Y-112545628D01*
X69861011Y-112545628D02*
X69908630Y-112450390D01*
X69908630Y-112450390D02*
X69956249Y-112402771D01*
X69956249Y-112402771D02*
X70051487Y-112355152D01*
X70051487Y-112355152D02*
X70241963Y-112355152D01*
X70241963Y-112355152D02*
X70337201Y-112402771D01*
X70622916Y-112355152D02*
X71003868Y-112355152D01*
X70765773Y-112021819D02*
X70765773Y-112878961D01*
X70765773Y-112878961D02*
X70813392Y-112974200D01*
X70813392Y-112974200D02*
X70908630Y-113021819D01*
X70908630Y-113021819D02*
X71003868Y-113021819D01*
X71337202Y-113021819D02*
X71337202Y-112355152D01*
X71337202Y-112545628D02*
X71384821Y-112450390D01*
X71384821Y-112450390D02*
X71432440Y-112402771D01*
X71432440Y-112402771D02*
X71527678Y-112355152D01*
X71527678Y-112355152D02*
X71622916Y-112355152D01*
X72099107Y-113021819D02*
X72003869Y-112974200D01*
X72003869Y-112974200D02*
X71956250Y-112878961D01*
X71956250Y-112878961D02*
X71956250Y-112021819D01*
X87005953Y-93305152D02*
X86244048Y-93590866D01*
X86244048Y-93590866D02*
X87005953Y-93876580D01*
X88244048Y-93305152D02*
X89005953Y-93590866D01*
X89005953Y-93590866D02*
X88244048Y-93876580D01*
X192185714Y-74921819D02*
X192185714Y-73921819D01*
X192614285Y-74921819D02*
X192614285Y-74398009D01*
X192614285Y-74398009D02*
X192566666Y-74302771D01*
X192566666Y-74302771D02*
X192471428Y-74255152D01*
X192471428Y-74255152D02*
X192328571Y-74255152D01*
X192328571Y-74255152D02*
X192233333Y-74302771D01*
X192233333Y-74302771D02*
X192185714Y-74350390D01*
X206901785Y-55205152D02*
X206901785Y-55871819D01*
X206473214Y-55205152D02*
X206473214Y-55728961D01*
X206473214Y-55728961D02*
X206520833Y-55824200D01*
X206520833Y-55824200D02*
X206616071Y-55871819D01*
X206616071Y-55871819D02*
X206758928Y-55871819D01*
X206758928Y-55871819D02*
X206854166Y-55824200D01*
X206854166Y-55824200D02*
X206901785Y-55776580D01*
X225737500Y-55871819D02*
X225737500Y-55205152D01*
X225737500Y-54871819D02*
X225689881Y-54919438D01*
X225689881Y-54919438D02*
X225737500Y-54967057D01*
X225737500Y-54967057D02*
X225785119Y-54919438D01*
X225785119Y-54919438D02*
X225737500Y-54871819D01*
X225737500Y-54871819D02*
X225737500Y-54967057D01*
X39357142Y-36774200D02*
X39261904Y-36821819D01*
X39261904Y-36821819D02*
X39071428Y-36821819D01*
X39071428Y-36821819D02*
X38976190Y-36774200D01*
X38976190Y-36774200D02*
X38928571Y-36678961D01*
X38928571Y-36678961D02*
X38928571Y-36298009D01*
X38928571Y-36298009D02*
X38976190Y-36202771D01*
X38976190Y-36202771D02*
X39071428Y-36155152D01*
X39071428Y-36155152D02*
X39261904Y-36155152D01*
X39261904Y-36155152D02*
X39357142Y-36202771D01*
X39357142Y-36202771D02*
X39404761Y-36298009D01*
X39404761Y-36298009D02*
X39404761Y-36393247D01*
X39404761Y-36393247D02*
X38928571Y-36488485D01*
X39785714Y-36774200D02*
X39880952Y-36821819D01*
X39880952Y-36821819D02*
X40071428Y-36821819D01*
X40071428Y-36821819D02*
X40166666Y-36774200D01*
X40166666Y-36774200D02*
X40214285Y-36678961D01*
X40214285Y-36678961D02*
X40214285Y-36631342D01*
X40214285Y-36631342D02*
X40166666Y-36536104D01*
X40166666Y-36536104D02*
X40071428Y-36488485D01*
X40071428Y-36488485D02*
X39928571Y-36488485D01*
X39928571Y-36488485D02*
X39833333Y-36440866D01*
X39833333Y-36440866D02*
X39785714Y-36345628D01*
X39785714Y-36345628D02*
X39785714Y-36298009D01*
X39785714Y-36298009D02*
X39833333Y-36202771D01*
X39833333Y-36202771D02*
X39928571Y-36155152D01*
X39928571Y-36155152D02*
X40071428Y-36155152D01*
X40071428Y-36155152D02*
X40166666Y-36202771D01*
X41071428Y-36774200D02*
X40976190Y-36821819D01*
X40976190Y-36821819D02*
X40785714Y-36821819D01*
X40785714Y-36821819D02*
X40690476Y-36774200D01*
X40690476Y-36774200D02*
X40642857Y-36726580D01*
X40642857Y-36726580D02*
X40595238Y-36631342D01*
X40595238Y-36631342D02*
X40595238Y-36345628D01*
X40595238Y-36345628D02*
X40642857Y-36250390D01*
X40642857Y-36250390D02*
X40690476Y-36202771D01*
X40690476Y-36202771D02*
X40785714Y-36155152D01*
X40785714Y-36155152D02*
X40976190Y-36155152D01*
X40976190Y-36155152D02*
X41071428Y-36202771D01*
X249669047Y-74921819D02*
X249573809Y-74874200D01*
X249573809Y-74874200D02*
X249526190Y-74778961D01*
X249526190Y-74778961D02*
X249526190Y-73921819D01*
X215355357Y-36726580D02*
X215402976Y-36774200D01*
X215402976Y-36774200D02*
X215355357Y-36821819D01*
X215355357Y-36821819D02*
X215307738Y-36774200D01*
X215307738Y-36774200D02*
X215355357Y-36726580D01*
X215355357Y-36726580D02*
X215355357Y-36821819D01*
X215355357Y-36440866D02*
X215307738Y-35869438D01*
X215307738Y-35869438D02*
X215355357Y-35821819D01*
X215355357Y-35821819D02*
X215402976Y-35869438D01*
X215402976Y-35869438D02*
X215355357Y-36440866D01*
X215355357Y-36440866D02*
X215355357Y-35821819D01*
X216736309Y-36250390D02*
X216641071Y-36202771D01*
X216641071Y-36202771D02*
X216593452Y-36155152D01*
X216593452Y-36155152D02*
X216545833Y-36059914D01*
X216545833Y-36059914D02*
X216545833Y-36012295D01*
X216545833Y-36012295D02*
X216593452Y-35917057D01*
X216593452Y-35917057D02*
X216641071Y-35869438D01*
X216641071Y-35869438D02*
X216736309Y-35821819D01*
X216736309Y-35821819D02*
X216926785Y-35821819D01*
X216926785Y-35821819D02*
X217022023Y-35869438D01*
X217022023Y-35869438D02*
X217069642Y-35917057D01*
X217069642Y-35917057D02*
X217117261Y-36012295D01*
X217117261Y-36012295D02*
X217117261Y-36059914D01*
X217117261Y-36059914D02*
X217069642Y-36155152D01*
X217069642Y-36155152D02*
X217022023Y-36202771D01*
X217022023Y-36202771D02*
X216926785Y-36250390D01*
X216926785Y-36250390D02*
X216736309Y-36250390D01*
X216736309Y-36250390D02*
X216641071Y-36298009D01*
X216641071Y-36298009D02*
X216593452Y-36345628D01*
X216593452Y-36345628D02*
X216545833Y-36440866D01*
X216545833Y-36440866D02*
X216545833Y-36631342D01*
X216545833Y-36631342D02*
X216593452Y-36726580D01*
X216593452Y-36726580D02*
X216641071Y-36774200D01*
X216641071Y-36774200D02*
X216736309Y-36821819D01*
X216736309Y-36821819D02*
X216926785Y-36821819D01*
X216926785Y-36821819D02*
X217022023Y-36774200D01*
X217022023Y-36774200D02*
X217069642Y-36726580D01*
X217069642Y-36726580D02*
X217117261Y-36631342D01*
X217117261Y-36631342D02*
X217117261Y-36440866D01*
X217117261Y-36440866D02*
X217069642Y-36345628D01*
X217069642Y-36345628D02*
X217022023Y-36298009D01*
X217022023Y-36298009D02*
X216926785Y-36250390D01*
X220213095Y-93924200D02*
X220213095Y-93971819D01*
X220213095Y-93971819D02*
X220165476Y-94067057D01*
X220165476Y-94067057D02*
X220117857Y-94114676D01*
X221546428Y-93876580D02*
X221594047Y-93924200D01*
X221594047Y-93924200D02*
X221546428Y-93971819D01*
X221546428Y-93971819D02*
X221498809Y-93924200D01*
X221498809Y-93924200D02*
X221546428Y-93876580D01*
X221546428Y-93876580D02*
X221546428Y-93971819D01*
X221355952Y-93019438D02*
X221451190Y-92971819D01*
X221451190Y-92971819D02*
X221689285Y-92971819D01*
X221689285Y-92971819D02*
X221784523Y-93019438D01*
X221784523Y-93019438D02*
X221832142Y-93114676D01*
X221832142Y-93114676D02*
X221832142Y-93209914D01*
X221832142Y-93209914D02*
X221784523Y-93305152D01*
X221784523Y-93305152D02*
X221736904Y-93352771D01*
X221736904Y-93352771D02*
X221641666Y-93400390D01*
X221641666Y-93400390D02*
X221594047Y-93448009D01*
X221594047Y-93448009D02*
X221546428Y-93543247D01*
X221546428Y-93543247D02*
X221546428Y-93590866D01*
X101245833Y-36774200D02*
X101150595Y-36821819D01*
X101150595Y-36821819D02*
X100960119Y-36821819D01*
X100960119Y-36821819D02*
X100864881Y-36774200D01*
X100864881Y-36774200D02*
X100817262Y-36678961D01*
X100817262Y-36678961D02*
X100817262Y-36298009D01*
X100817262Y-36298009D02*
X100864881Y-36202771D01*
X100864881Y-36202771D02*
X100960119Y-36155152D01*
X100960119Y-36155152D02*
X101150595Y-36155152D01*
X101150595Y-36155152D02*
X101245833Y-36202771D01*
X101245833Y-36202771D02*
X101293452Y-36298009D01*
X101293452Y-36298009D02*
X101293452Y-36393247D01*
X101293452Y-36393247D02*
X100817262Y-36488485D01*
X101150595Y-35774200D02*
X101007738Y-35917057D01*
X102436310Y-35917057D02*
X102483929Y-35869438D01*
X102483929Y-35869438D02*
X102579167Y-35821819D01*
X102579167Y-35821819D02*
X102817262Y-35821819D01*
X102817262Y-35821819D02*
X102912500Y-35869438D01*
X102912500Y-35869438D02*
X102960119Y-35917057D01*
X102960119Y-35917057D02*
X103007738Y-36012295D01*
X103007738Y-36012295D02*
X103007738Y-36107533D01*
X103007738Y-36107533D02*
X102960119Y-36250390D01*
X102960119Y-36250390D02*
X102388691Y-36821819D01*
X102388691Y-36821819D02*
X103007738Y-36821819D01*
X154633630Y-113021819D02*
X154538392Y-112974200D01*
X154538392Y-112974200D02*
X154490773Y-112878961D01*
X154490773Y-112878961D02*
X154490773Y-112021819D01*
X154966964Y-112974200D02*
X155062202Y-113021819D01*
X155062202Y-113021819D02*
X155252678Y-113021819D01*
X155252678Y-113021819D02*
X155347916Y-112974200D01*
X155347916Y-112974200D02*
X155395535Y-112878961D01*
X155395535Y-112878961D02*
X155395535Y-112831342D01*
X155395535Y-112831342D02*
X155347916Y-112736104D01*
X155347916Y-112736104D02*
X155252678Y-112688485D01*
X155252678Y-112688485D02*
X155109821Y-112688485D01*
X155109821Y-112688485D02*
X155014583Y-112640866D01*
X155014583Y-112640866D02*
X154966964Y-112545628D01*
X154966964Y-112545628D02*
X154966964Y-112498009D01*
X154966964Y-112498009D02*
X155014583Y-112402771D01*
X155014583Y-112402771D02*
X155109821Y-112355152D01*
X155109821Y-112355152D02*
X155252678Y-112355152D01*
X155252678Y-112355152D02*
X155347916Y-112402771D01*
X155824107Y-112355152D02*
X155824107Y-113355152D01*
X155824107Y-112402771D02*
X155919345Y-112355152D01*
X155919345Y-112355152D02*
X156109821Y-112355152D01*
X156109821Y-112355152D02*
X156205059Y-112402771D01*
X156205059Y-112402771D02*
X156252678Y-112450390D01*
X156252678Y-112450390D02*
X156300297Y-112545628D01*
X156300297Y-112545628D02*
X156300297Y-112831342D01*
X156300297Y-112831342D02*
X156252678Y-112926580D01*
X156252678Y-112926580D02*
X156205059Y-112974200D01*
X156205059Y-112974200D02*
X156109821Y-113021819D01*
X156109821Y-113021819D02*
X155919345Y-113021819D01*
X155919345Y-113021819D02*
X155824107Y-112974200D01*
X157157440Y-113021819D02*
X157157440Y-112498009D01*
X157157440Y-112498009D02*
X157109821Y-112402771D01*
X157109821Y-112402771D02*
X157014583Y-112355152D01*
X157014583Y-112355152D02*
X156824107Y-112355152D01*
X156824107Y-112355152D02*
X156728869Y-112402771D01*
X157157440Y-112974200D02*
X157062202Y-113021819D01*
X157062202Y-113021819D02*
X156824107Y-113021819D01*
X156824107Y-113021819D02*
X156728869Y-112974200D01*
X156728869Y-112974200D02*
X156681250Y-112878961D01*
X156681250Y-112878961D02*
X156681250Y-112783723D01*
X156681250Y-112783723D02*
X156728869Y-112688485D01*
X156728869Y-112688485D02*
X156824107Y-112640866D01*
X156824107Y-112640866D02*
X157062202Y-112640866D01*
X157062202Y-112640866D02*
X157157440Y-112593247D01*
X158062202Y-112974200D02*
X157966964Y-113021819D01*
X157966964Y-113021819D02*
X157776488Y-113021819D01*
X157776488Y-113021819D02*
X157681250Y-112974200D01*
X157681250Y-112974200D02*
X157633631Y-112926580D01*
X157633631Y-112926580D02*
X157586012Y-112831342D01*
X157586012Y-112831342D02*
X157586012Y-112545628D01*
X157586012Y-112545628D02*
X157633631Y-112450390D01*
X157633631Y-112450390D02*
X157681250Y-112402771D01*
X157681250Y-112402771D02*
X157776488Y-112355152D01*
X157776488Y-112355152D02*
X157966964Y-112355152D01*
X157966964Y-112355152D02*
X158062202Y-112402771D01*
X158871726Y-112974200D02*
X158776488Y-113021819D01*
X158776488Y-113021819D02*
X158586012Y-113021819D01*
X158586012Y-113021819D02*
X158490774Y-112974200D01*
X158490774Y-112974200D02*
X158443155Y-112878961D01*
X158443155Y-112878961D02*
X158443155Y-112498009D01*
X158443155Y-112498009D02*
X158490774Y-112402771D01*
X158490774Y-112402771D02*
X158586012Y-112355152D01*
X158586012Y-112355152D02*
X158776488Y-112355152D01*
X158776488Y-112355152D02*
X158871726Y-112402771D01*
X158871726Y-112402771D02*
X158919345Y-112498009D01*
X158919345Y-112498009D02*
X158919345Y-112593247D01*
X158919345Y-112593247D02*
X158443155Y-112688485D01*
X39357143Y-74255152D02*
X39738095Y-74255152D01*
X39500000Y-74921819D02*
X39500000Y-74064676D01*
X39500000Y-74064676D02*
X39547619Y-73969438D01*
X39547619Y-73969438D02*
X39642857Y-73921819D01*
X39642857Y-73921819D02*
X39738095Y-73921819D01*
X40071429Y-74255152D02*
X40071429Y-74921819D01*
X40071429Y-74350390D02*
X40119048Y-74302771D01*
X40119048Y-74302771D02*
X40214286Y-74255152D01*
X40214286Y-74255152D02*
X40357143Y-74255152D01*
X40357143Y-74255152D02*
X40452381Y-74302771D01*
X40452381Y-74302771D02*
X40500000Y-74398009D01*
X40500000Y-74398009D02*
X40500000Y-74921819D01*
X177064881Y-36917057D02*
X177160119Y-36964676D01*
X177160119Y-36964676D02*
X177302976Y-36964676D01*
X177302976Y-36964676D02*
X177398214Y-36917057D01*
X177398214Y-36917057D02*
X177445833Y-36821819D01*
X177445833Y-36821819D02*
X177398214Y-36726580D01*
X177398214Y-36726580D02*
X177112500Y-36440866D01*
X177112500Y-36440866D02*
X177064881Y-36345628D01*
X177064881Y-36345628D02*
X177064881Y-36298009D01*
X177064881Y-36298009D02*
X177112500Y-36202771D01*
X177112500Y-36202771D02*
X177207738Y-36155152D01*
X177445833Y-35869438D02*
X177350595Y-35821819D01*
X177350595Y-35821819D02*
X177207738Y-35821819D01*
X177207738Y-35821819D02*
X177112500Y-35869438D01*
X177112500Y-35869438D02*
X177064881Y-35964676D01*
X177064881Y-35964676D02*
X177112500Y-36059914D01*
X177112500Y-36059914D02*
X177398214Y-36345628D01*
X177398214Y-36345628D02*
X177445833Y-36440866D01*
X177445833Y-36440866D02*
X177445833Y-36488485D01*
X177445833Y-36488485D02*
X177398214Y-36583723D01*
X177398214Y-36583723D02*
X177302976Y-36631342D01*
X179112500Y-35821819D02*
X178922024Y-35821819D01*
X178922024Y-35821819D02*
X178826786Y-35869438D01*
X178826786Y-35869438D02*
X178779167Y-35917057D01*
X178779167Y-35917057D02*
X178683929Y-36059914D01*
X178683929Y-36059914D02*
X178636310Y-36250390D01*
X178636310Y-36250390D02*
X178636310Y-36631342D01*
X178636310Y-36631342D02*
X178683929Y-36726580D01*
X178683929Y-36726580D02*
X178731548Y-36774200D01*
X178731548Y-36774200D02*
X178826786Y-36821819D01*
X178826786Y-36821819D02*
X179017262Y-36821819D01*
X179017262Y-36821819D02*
X179112500Y-36774200D01*
X179112500Y-36774200D02*
X179160119Y-36726580D01*
X179160119Y-36726580D02*
X179207738Y-36631342D01*
X179207738Y-36631342D02*
X179207738Y-36393247D01*
X179207738Y-36393247D02*
X179160119Y-36298009D01*
X179160119Y-36298009D02*
X179112500Y-36250390D01*
X179112500Y-36250390D02*
X179017262Y-36202771D01*
X179017262Y-36202771D02*
X178826786Y-36202771D01*
X178826786Y-36202771D02*
X178731548Y-36250390D01*
X178731548Y-36250390D02*
X178683929Y-36298009D01*
X178683929Y-36298009D02*
X178636310Y-36393247D01*
X253669642Y-36821819D02*
X253669642Y-36298009D01*
X253669642Y-36298009D02*
X253622023Y-36202771D01*
X253622023Y-36202771D02*
X253526785Y-36155152D01*
X253526785Y-36155152D02*
X253336309Y-36155152D01*
X253336309Y-36155152D02*
X253241071Y-36202771D01*
X253669642Y-36774200D02*
X253574404Y-36821819D01*
X253574404Y-36821819D02*
X253336309Y-36821819D01*
X253336309Y-36821819D02*
X253241071Y-36774200D01*
X253241071Y-36774200D02*
X253193452Y-36678961D01*
X253193452Y-36678961D02*
X253193452Y-36583723D01*
X253193452Y-36583723D02*
X253241071Y-36488485D01*
X253241071Y-36488485D02*
X253336309Y-36440866D01*
X253336309Y-36440866D02*
X253574404Y-36440866D01*
X253574404Y-36440866D02*
X253669642Y-36393247D01*
X253336309Y-35774200D02*
X253479166Y-35917057D01*
X255098214Y-35821819D02*
X255193452Y-35821819D01*
X255193452Y-35821819D02*
X255288690Y-35869438D01*
X255288690Y-35869438D02*
X255336309Y-35917057D01*
X255336309Y-35917057D02*
X255383928Y-36012295D01*
X255383928Y-36012295D02*
X255431547Y-36202771D01*
X255431547Y-36202771D02*
X255431547Y-36440866D01*
X255431547Y-36440866D02*
X255383928Y-36631342D01*
X255383928Y-36631342D02*
X255336309Y-36726580D01*
X255336309Y-36726580D02*
X255288690Y-36774200D01*
X255288690Y-36774200D02*
X255193452Y-36821819D01*
X255193452Y-36821819D02*
X255098214Y-36821819D01*
X255098214Y-36821819D02*
X255002976Y-36774200D01*
X255002976Y-36774200D02*
X254955357Y-36726580D01*
X254955357Y-36726580D02*
X254907738Y-36631342D01*
X254907738Y-36631342D02*
X254860119Y-36440866D01*
X254860119Y-36440866D02*
X254860119Y-36202771D01*
X254860119Y-36202771D02*
X254907738Y-36012295D01*
X254907738Y-36012295D02*
X254955357Y-35917057D01*
X254955357Y-35917057D02*
X255002976Y-35869438D01*
X255002976Y-35869438D02*
X255098214Y-35821819D01*
X97578869Y-113021819D02*
X97483631Y-112974200D01*
X97483631Y-112974200D02*
X97436012Y-112926580D01*
X97436012Y-112926580D02*
X97388393Y-112831342D01*
X97388393Y-112831342D02*
X97388393Y-112545628D01*
X97388393Y-112545628D02*
X97436012Y-112450390D01*
X97436012Y-112450390D02*
X97483631Y-112402771D01*
X97483631Y-112402771D02*
X97578869Y-112355152D01*
X97578869Y-112355152D02*
X97721726Y-112355152D01*
X97721726Y-112355152D02*
X97816964Y-112402771D01*
X97816964Y-112402771D02*
X97864583Y-112450390D01*
X97864583Y-112450390D02*
X97912202Y-112545628D01*
X97912202Y-112545628D02*
X97912202Y-112831342D01*
X97912202Y-112831342D02*
X97864583Y-112926580D01*
X97864583Y-112926580D02*
X97816964Y-112974200D01*
X97816964Y-112974200D02*
X97721726Y-113021819D01*
X97721726Y-113021819D02*
X97578869Y-113021819D01*
X98340774Y-112355152D02*
X98340774Y-113355152D01*
X98340774Y-112402771D02*
X98436012Y-112355152D01*
X98436012Y-112355152D02*
X98626488Y-112355152D01*
X98626488Y-112355152D02*
X98721726Y-112402771D01*
X98721726Y-112402771D02*
X98769345Y-112450390D01*
X98769345Y-112450390D02*
X98816964Y-112545628D01*
X98816964Y-112545628D02*
X98816964Y-112831342D01*
X98816964Y-112831342D02*
X98769345Y-112926580D01*
X98769345Y-112926580D02*
X98721726Y-112974200D01*
X98721726Y-112974200D02*
X98626488Y-113021819D01*
X98626488Y-113021819D02*
X98436012Y-113021819D01*
X98436012Y-113021819D02*
X98340774Y-112974200D01*
X99102679Y-112355152D02*
X99483631Y-112355152D01*
X99245536Y-112021819D02*
X99245536Y-112878961D01*
X99245536Y-112878961D02*
X99293155Y-112974200D01*
X99293155Y-112974200D02*
X99388393Y-113021819D01*
X99388393Y-113021819D02*
X99483631Y-113021819D01*
X99816965Y-113021819D02*
X99816965Y-112355152D01*
X99816965Y-112021819D02*
X99769346Y-112069438D01*
X99769346Y-112069438D02*
X99816965Y-112117057D01*
X99816965Y-112117057D02*
X99864584Y-112069438D01*
X99864584Y-112069438D02*
X99816965Y-112021819D01*
X99816965Y-112021819D02*
X99816965Y-112117057D01*
X100436012Y-113021819D02*
X100340774Y-112974200D01*
X100340774Y-112974200D02*
X100293155Y-112926580D01*
X100293155Y-112926580D02*
X100245536Y-112831342D01*
X100245536Y-112831342D02*
X100245536Y-112545628D01*
X100245536Y-112545628D02*
X100293155Y-112450390D01*
X100293155Y-112450390D02*
X100340774Y-112402771D01*
X100340774Y-112402771D02*
X100436012Y-112355152D01*
X100436012Y-112355152D02*
X100578869Y-112355152D01*
X100578869Y-112355152D02*
X100674107Y-112402771D01*
X100674107Y-112402771D02*
X100721726Y-112450390D01*
X100721726Y-112450390D02*
X100769345Y-112545628D01*
X100769345Y-112545628D02*
X100769345Y-112831342D01*
X100769345Y-112831342D02*
X100721726Y-112926580D01*
X100721726Y-112926580D02*
X100674107Y-112974200D01*
X100674107Y-112974200D02*
X100578869Y-113021819D01*
X100578869Y-113021819D02*
X100436012Y-113021819D01*
X101197917Y-112355152D02*
X101197917Y-113021819D01*
X101197917Y-112450390D02*
X101245536Y-112402771D01*
X101245536Y-112402771D02*
X101340774Y-112355152D01*
X101340774Y-112355152D02*
X101483631Y-112355152D01*
X101483631Y-112355152D02*
X101578869Y-112402771D01*
X101578869Y-112402771D02*
X101626488Y-112498009D01*
X101626488Y-112498009D02*
X101626488Y-113021819D01*
X182660714Y-93971819D02*
X182660714Y-92971819D01*
X182660714Y-93352771D02*
X182755952Y-93305152D01*
X182755952Y-93305152D02*
X182946428Y-93305152D01*
X182946428Y-93305152D02*
X183041666Y-93352771D01*
X183041666Y-93352771D02*
X183089285Y-93400390D01*
X183089285Y-93400390D02*
X183136904Y-93495628D01*
X183136904Y-93495628D02*
X183136904Y-93781342D01*
X183136904Y-93781342D02*
X183089285Y-93876580D01*
X183089285Y-93876580D02*
X183041666Y-93924200D01*
X183041666Y-93924200D02*
X182946428Y-93971819D01*
X182946428Y-93971819D02*
X182755952Y-93971819D01*
X182755952Y-93971819D02*
X182660714Y-93924200D01*
X67479762Y-55205152D02*
X67860714Y-55205152D01*
X67622619Y-54871819D02*
X67622619Y-55728961D01*
X67622619Y-55728961D02*
X67670238Y-55824200D01*
X67670238Y-55824200D02*
X67765476Y-55871819D01*
X67765476Y-55871819D02*
X67860714Y-55871819D01*
X68622619Y-55871819D02*
X68622619Y-55348009D01*
X68622619Y-55348009D02*
X68575000Y-55252771D01*
X68575000Y-55252771D02*
X68479762Y-55205152D01*
X68479762Y-55205152D02*
X68289286Y-55205152D01*
X68289286Y-55205152D02*
X68194048Y-55252771D01*
X68622619Y-55824200D02*
X68527381Y-55871819D01*
X68527381Y-55871819D02*
X68289286Y-55871819D01*
X68289286Y-55871819D02*
X68194048Y-55824200D01*
X68194048Y-55824200D02*
X68146429Y-55728961D01*
X68146429Y-55728961D02*
X68146429Y-55633723D01*
X68146429Y-55633723D02*
X68194048Y-55538485D01*
X68194048Y-55538485D02*
X68289286Y-55490866D01*
X68289286Y-55490866D02*
X68527381Y-55490866D01*
X68527381Y-55490866D02*
X68622619Y-55443247D01*
X69098810Y-55871819D02*
X69098810Y-54871819D01*
X69098810Y-55252771D02*
X69194048Y-55205152D01*
X69194048Y-55205152D02*
X69384524Y-55205152D01*
X69384524Y-55205152D02*
X69479762Y-55252771D01*
X69479762Y-55252771D02*
X69527381Y-55300390D01*
X69527381Y-55300390D02*
X69575000Y-55395628D01*
X69575000Y-55395628D02*
X69575000Y-55681342D01*
X69575000Y-55681342D02*
X69527381Y-55776580D01*
X69527381Y-55776580D02*
X69479762Y-55824200D01*
X69479762Y-55824200D02*
X69384524Y-55871819D01*
X69384524Y-55871819D02*
X69194048Y-55871819D01*
X69194048Y-55871819D02*
X69098810Y-55824200D01*
X119914881Y-35821819D02*
X119914881Y-36012295D01*
X120295833Y-35821819D02*
X120295833Y-36012295D01*
X121391072Y-35821819D02*
X122010119Y-35821819D01*
X122010119Y-35821819D02*
X121676786Y-36202771D01*
X121676786Y-36202771D02*
X121819643Y-36202771D01*
X121819643Y-36202771D02*
X121914881Y-36250390D01*
X121914881Y-36250390D02*
X121962500Y-36298009D01*
X121962500Y-36298009D02*
X122010119Y-36393247D01*
X122010119Y-36393247D02*
X122010119Y-36631342D01*
X122010119Y-36631342D02*
X121962500Y-36726580D01*
X121962500Y-36726580D02*
X121914881Y-36774200D01*
X121914881Y-36774200D02*
X121819643Y-36821819D01*
X121819643Y-36821819D02*
X121533929Y-36821819D01*
X121533929Y-36821819D02*
X121438691Y-36774200D01*
X121438691Y-36774200D02*
X121391072Y-36726580D01*
X261885119Y-113021819D02*
X261789881Y-112974200D01*
X261789881Y-112974200D02*
X261742262Y-112926580D01*
X261742262Y-112926580D02*
X261694643Y-112831342D01*
X261694643Y-112831342D02*
X261694643Y-112545628D01*
X261694643Y-112545628D02*
X261742262Y-112450390D01*
X261742262Y-112450390D02*
X261789881Y-112402771D01*
X261789881Y-112402771D02*
X261885119Y-112355152D01*
X261885119Y-112355152D02*
X262027976Y-112355152D01*
X262027976Y-112355152D02*
X262123214Y-112402771D01*
X262123214Y-112402771D02*
X262170833Y-112450390D01*
X262170833Y-112450390D02*
X262218452Y-112545628D01*
X262218452Y-112545628D02*
X262218452Y-112831342D01*
X262218452Y-112831342D02*
X262170833Y-112926580D01*
X262170833Y-112926580D02*
X262123214Y-112974200D01*
X262123214Y-112974200D02*
X262027976Y-113021819D01*
X262027976Y-113021819D02*
X261885119Y-113021819D01*
X262647024Y-112355152D02*
X262647024Y-113355152D01*
X262647024Y-112402771D02*
X262742262Y-112355152D01*
X262742262Y-112355152D02*
X262932738Y-112355152D01*
X262932738Y-112355152D02*
X263027976Y-112402771D01*
X263027976Y-112402771D02*
X263075595Y-112450390D01*
X263075595Y-112450390D02*
X263123214Y-112545628D01*
X263123214Y-112545628D02*
X263123214Y-112831342D01*
X263123214Y-112831342D02*
X263075595Y-112926580D01*
X263075595Y-112926580D02*
X263027976Y-112974200D01*
X263027976Y-112974200D02*
X262932738Y-113021819D01*
X262932738Y-113021819D02*
X262742262Y-113021819D01*
X262742262Y-113021819D02*
X262647024Y-112974200D01*
X263408929Y-112355152D02*
X263789881Y-112355152D01*
X263551786Y-112021819D02*
X263551786Y-112878961D01*
X263551786Y-112878961D02*
X263599405Y-112974200D01*
X263599405Y-112974200D02*
X263694643Y-113021819D01*
X263694643Y-113021819D02*
X263789881Y-113021819D01*
X264123215Y-113021819D02*
X264123215Y-112355152D01*
X264123215Y-112021819D02*
X264075596Y-112069438D01*
X264075596Y-112069438D02*
X264123215Y-112117057D01*
X264123215Y-112117057D02*
X264170834Y-112069438D01*
X264170834Y-112069438D02*
X264123215Y-112021819D01*
X264123215Y-112021819D02*
X264123215Y-112117057D01*
X264742262Y-113021819D02*
X264647024Y-112974200D01*
X264647024Y-112974200D02*
X264599405Y-112926580D01*
X264599405Y-112926580D02*
X264551786Y-112831342D01*
X264551786Y-112831342D02*
X264551786Y-112545628D01*
X264551786Y-112545628D02*
X264599405Y-112450390D01*
X264599405Y-112450390D02*
X264647024Y-112402771D01*
X264647024Y-112402771D02*
X264742262Y-112355152D01*
X264742262Y-112355152D02*
X264885119Y-112355152D01*
X264885119Y-112355152D02*
X264980357Y-112402771D01*
X264980357Y-112402771D02*
X265027976Y-112450390D01*
X265027976Y-112450390D02*
X265075595Y-112545628D01*
X265075595Y-112545628D02*
X265075595Y-112831342D01*
X265075595Y-112831342D02*
X265027976Y-112926580D01*
X265027976Y-112926580D02*
X264980357Y-112974200D01*
X264980357Y-112974200D02*
X264885119Y-113021819D01*
X264885119Y-113021819D02*
X264742262Y-113021819D01*
X265504167Y-112355152D02*
X265504167Y-113021819D01*
X265504167Y-112450390D02*
X265551786Y-112402771D01*
X265551786Y-112402771D02*
X265647024Y-112355152D01*
X265647024Y-112355152D02*
X265789881Y-112355152D01*
X265789881Y-112355152D02*
X265885119Y-112402771D01*
X265885119Y-112402771D02*
X265932738Y-112498009D01*
X265932738Y-112498009D02*
X265932738Y-113021819D01*
X106294048Y-93305152D02*
X106484524Y-93971819D01*
X106484524Y-93971819D02*
X106675000Y-93495628D01*
X106675000Y-93495628D02*
X106865476Y-93971819D01*
X106865476Y-93971819D02*
X107055952Y-93305152D01*
X122462797Y-112974200D02*
X122367559Y-113021819D01*
X122367559Y-113021819D02*
X122177083Y-113021819D01*
X122177083Y-113021819D02*
X122081845Y-112974200D01*
X122081845Y-112974200D02*
X122034226Y-112926580D01*
X122034226Y-112926580D02*
X121986607Y-112831342D01*
X121986607Y-112831342D02*
X121986607Y-112545628D01*
X121986607Y-112545628D02*
X122034226Y-112450390D01*
X122034226Y-112450390D02*
X122081845Y-112402771D01*
X122081845Y-112402771D02*
X122177083Y-112355152D01*
X122177083Y-112355152D02*
X122367559Y-112355152D01*
X122367559Y-112355152D02*
X122462797Y-112402771D01*
X122891369Y-113021819D02*
X122891369Y-112355152D01*
X122891369Y-112450390D02*
X122938988Y-112402771D01*
X122938988Y-112402771D02*
X123034226Y-112355152D01*
X123034226Y-112355152D02*
X123177083Y-112355152D01*
X123177083Y-112355152D02*
X123272321Y-112402771D01*
X123272321Y-112402771D02*
X123319940Y-112498009D01*
X123319940Y-112498009D02*
X123319940Y-113021819D01*
X123319940Y-112498009D02*
X123367559Y-112402771D01*
X123367559Y-112402771D02*
X123462797Y-112355152D01*
X123462797Y-112355152D02*
X123605654Y-112355152D01*
X123605654Y-112355152D02*
X123700893Y-112402771D01*
X123700893Y-112402771D02*
X123748512Y-112498009D01*
X123748512Y-112498009D02*
X123748512Y-113021819D01*
X124653273Y-113021819D02*
X124653273Y-112021819D01*
X124653273Y-112974200D02*
X124558035Y-113021819D01*
X124558035Y-113021819D02*
X124367559Y-113021819D01*
X124367559Y-113021819D02*
X124272321Y-112974200D01*
X124272321Y-112974200D02*
X124224702Y-112926580D01*
X124224702Y-112926580D02*
X124177083Y-112831342D01*
X124177083Y-112831342D02*
X124177083Y-112545628D01*
X124177083Y-112545628D02*
X124224702Y-112450390D01*
X124224702Y-112450390D02*
X124272321Y-112402771D01*
X124272321Y-112402771D02*
X124367559Y-112355152D01*
X124367559Y-112355152D02*
X124558035Y-112355152D01*
X124558035Y-112355152D02*
X124653273Y-112402771D01*
X139202976Y-35821819D02*
X139107738Y-36012295D01*
X140822023Y-36155152D02*
X140822023Y-36821819D01*
X140583928Y-35774200D02*
X140345833Y-36488485D01*
X140345833Y-36488485D02*
X140964880Y-36488485D01*
X125463095Y-93971819D02*
X125986904Y-93305152D01*
X125463095Y-93305152D02*
X125986904Y-93971819D01*
X173564285Y-74255152D02*
X173564285Y-75064676D01*
X173564285Y-75064676D02*
X173516666Y-75159914D01*
X173516666Y-75159914D02*
X173469047Y-75207533D01*
X173469047Y-75207533D02*
X173373809Y-75255152D01*
X173373809Y-75255152D02*
X173230952Y-75255152D01*
X173230952Y-75255152D02*
X173135714Y-75207533D01*
X173564285Y-74874200D02*
X173469047Y-74921819D01*
X173469047Y-74921819D02*
X173278571Y-74921819D01*
X173278571Y-74921819D02*
X173183333Y-74874200D01*
X173183333Y-74874200D02*
X173135714Y-74826580D01*
X173135714Y-74826580D02*
X173088095Y-74731342D01*
X173088095Y-74731342D02*
X173088095Y-74445628D01*
X173088095Y-74445628D02*
X173135714Y-74350390D01*
X173135714Y-74350390D02*
X173183333Y-74302771D01*
X173183333Y-74302771D02*
X173278571Y-74255152D01*
X173278571Y-74255152D02*
X173469047Y-74255152D01*
X173469047Y-74255152D02*
X173564285Y-74302771D01*
X282030357Y-54967057D02*
X282220833Y-54824200D01*
X282220833Y-54824200D02*
X282411309Y-54967057D01*
X283363691Y-54871819D02*
X283411310Y-54919438D01*
X283411310Y-54919438D02*
X283363691Y-54967057D01*
X283363691Y-54967057D02*
X283316072Y-54919438D01*
X283316072Y-54919438D02*
X283363691Y-54871819D01*
X283363691Y-54871819D02*
X283363691Y-54967057D01*
X283744643Y-54871819D02*
X283792262Y-54919438D01*
X283792262Y-54919438D02*
X283744643Y-54967057D01*
X283744643Y-54967057D02*
X283697024Y-54919438D01*
X283697024Y-54919438D02*
X283744643Y-54871819D01*
X283744643Y-54871819D02*
X283744643Y-54967057D01*
X63145833Y-36345628D02*
X63098214Y-36298009D01*
X63098214Y-36298009D02*
X63002976Y-36250390D01*
X63002976Y-36250390D02*
X62907738Y-36250390D01*
X62907738Y-36250390D02*
X62812500Y-36298009D01*
X62812500Y-36298009D02*
X62764881Y-36345628D01*
X62764881Y-36345628D02*
X62717262Y-36440866D01*
X62717262Y-36440866D02*
X62717262Y-36536104D01*
X62717262Y-36536104D02*
X62764881Y-36631342D01*
X62764881Y-36631342D02*
X62812500Y-36678961D01*
X62812500Y-36678961D02*
X62907738Y-36726580D01*
X62907738Y-36726580D02*
X63002976Y-36726580D01*
X63002976Y-36726580D02*
X63098214Y-36678961D01*
X63098214Y-36678961D02*
X63145833Y-36631342D01*
X63145833Y-36250390D02*
X63145833Y-36631342D01*
X63145833Y-36631342D02*
X63193452Y-36678961D01*
X63193452Y-36678961D02*
X63241071Y-36678961D01*
X63241071Y-36678961D02*
X63336310Y-36631342D01*
X63336310Y-36631342D02*
X63383929Y-36536104D01*
X63383929Y-36536104D02*
X63383929Y-36298009D01*
X63383929Y-36298009D02*
X63288691Y-36155152D01*
X63288691Y-36155152D02*
X63145833Y-36059914D01*
X63145833Y-36059914D02*
X62955357Y-36012295D01*
X62955357Y-36012295D02*
X62764881Y-36059914D01*
X62764881Y-36059914D02*
X62622024Y-36155152D01*
X62622024Y-36155152D02*
X62526786Y-36298009D01*
X62526786Y-36298009D02*
X62479167Y-36488485D01*
X62479167Y-36488485D02*
X62526786Y-36678961D01*
X62526786Y-36678961D02*
X62622024Y-36821819D01*
X62622024Y-36821819D02*
X62764881Y-36917057D01*
X62764881Y-36917057D02*
X62955357Y-36964676D01*
X62955357Y-36964676D02*
X63145833Y-36917057D01*
X63145833Y-36917057D02*
X63288691Y-36821819D01*
X64526786Y-36155152D02*
X65241071Y-36155152D01*
X64812500Y-35726580D02*
X64526786Y-37012295D01*
X65145833Y-36583723D02*
X64431548Y-36583723D01*
X64860119Y-37012295D02*
X65145833Y-35726580D01*
X241519047Y-112974200D02*
X241423809Y-113021819D01*
X241423809Y-113021819D02*
X241233333Y-113021819D01*
X241233333Y-113021819D02*
X241138095Y-112974200D01*
X241138095Y-112974200D02*
X241090476Y-112926580D01*
X241090476Y-112926580D02*
X241042857Y-112831342D01*
X241042857Y-112831342D02*
X241042857Y-112545628D01*
X241042857Y-112545628D02*
X241090476Y-112450390D01*
X241090476Y-112450390D02*
X241138095Y-112402771D01*
X241138095Y-112402771D02*
X241233333Y-112355152D01*
X241233333Y-112355152D02*
X241423809Y-112355152D01*
X241423809Y-112355152D02*
X241519047Y-112402771D01*
X241947619Y-113021819D02*
X241947619Y-112355152D01*
X241947619Y-112450390D02*
X241995238Y-112402771D01*
X241995238Y-112402771D02*
X242090476Y-112355152D01*
X242090476Y-112355152D02*
X242233333Y-112355152D01*
X242233333Y-112355152D02*
X242328571Y-112402771D01*
X242328571Y-112402771D02*
X242376190Y-112498009D01*
X242376190Y-112498009D02*
X242376190Y-113021819D01*
X242376190Y-112498009D02*
X242423809Y-112402771D01*
X242423809Y-112402771D02*
X242519047Y-112355152D01*
X242519047Y-112355152D02*
X242661904Y-112355152D01*
X242661904Y-112355152D02*
X242757143Y-112402771D01*
X242757143Y-112402771D02*
X242804762Y-112498009D01*
X242804762Y-112498009D02*
X242804762Y-113021819D01*
X243709523Y-113021819D02*
X243709523Y-112021819D01*
X243709523Y-112974200D02*
X243614285Y-113021819D01*
X243614285Y-113021819D02*
X243423809Y-113021819D01*
X243423809Y-113021819D02*
X243328571Y-112974200D01*
X243328571Y-112974200D02*
X243280952Y-112926580D01*
X243280952Y-112926580D02*
X243233333Y-112831342D01*
X243233333Y-112831342D02*
X243233333Y-112545628D01*
X243233333Y-112545628D02*
X243280952Y-112450390D01*
X243280952Y-112450390D02*
X243328571Y-112402771D01*
X243328571Y-112402771D02*
X243423809Y-112355152D01*
X243423809Y-112355152D02*
X243614285Y-112355152D01*
X243614285Y-112355152D02*
X243709523Y-112402771D01*
X64646130Y-93971819D02*
X64550892Y-93924200D01*
X64550892Y-93924200D02*
X64503273Y-93828961D01*
X64503273Y-93828961D02*
X64503273Y-92971819D01*
X64979464Y-93924200D02*
X65074702Y-93971819D01*
X65074702Y-93971819D02*
X65265178Y-93971819D01*
X65265178Y-93971819D02*
X65360416Y-93924200D01*
X65360416Y-93924200D02*
X65408035Y-93828961D01*
X65408035Y-93828961D02*
X65408035Y-93781342D01*
X65408035Y-93781342D02*
X65360416Y-93686104D01*
X65360416Y-93686104D02*
X65265178Y-93638485D01*
X65265178Y-93638485D02*
X65122321Y-93638485D01*
X65122321Y-93638485D02*
X65027083Y-93590866D01*
X65027083Y-93590866D02*
X64979464Y-93495628D01*
X64979464Y-93495628D02*
X64979464Y-93448009D01*
X64979464Y-93448009D02*
X65027083Y-93352771D01*
X65027083Y-93352771D02*
X65122321Y-93305152D01*
X65122321Y-93305152D02*
X65265178Y-93305152D01*
X65265178Y-93305152D02*
X65360416Y-93352771D01*
X65836607Y-93971819D02*
X65836607Y-92971819D01*
X66265178Y-93971819D02*
X66265178Y-93448009D01*
X66265178Y-93448009D02*
X66217559Y-93352771D01*
X66217559Y-93352771D02*
X66122321Y-93305152D01*
X66122321Y-93305152D02*
X65979464Y-93305152D01*
X65979464Y-93305152D02*
X65884226Y-93352771D01*
X65884226Y-93352771D02*
X65836607Y-93400390D01*
X66741369Y-93971819D02*
X66741369Y-93305152D01*
X66741369Y-92971819D02*
X66693750Y-93019438D01*
X66693750Y-93019438D02*
X66741369Y-93067057D01*
X66741369Y-93067057D02*
X66788988Y-93019438D01*
X66788988Y-93019438D02*
X66741369Y-92971819D01*
X66741369Y-92971819D02*
X66741369Y-93067057D01*
X67074702Y-93305152D02*
X67455654Y-93305152D01*
X67217559Y-93971819D02*
X67217559Y-93114676D01*
X67217559Y-93114676D02*
X67265178Y-93019438D01*
X67265178Y-93019438D02*
X67360416Y-92971819D01*
X67360416Y-92971819D02*
X67455654Y-92971819D01*
X67646131Y-93305152D02*
X68027083Y-93305152D01*
X67788988Y-92971819D02*
X67788988Y-93828961D01*
X67788988Y-93828961D02*
X67836607Y-93924200D01*
X67836607Y-93924200D02*
X67931845Y-93971819D01*
X67931845Y-93971819D02*
X68027083Y-93971819D01*
X230333333Y-74921819D02*
X230333333Y-73921819D01*
X230428571Y-74540866D02*
X230714285Y-74921819D01*
X230714285Y-74255152D02*
X230333333Y-74636104D01*
X38880952Y-55205152D02*
X39261904Y-55205152D01*
X39023809Y-55871819D02*
X39023809Y-55014676D01*
X39023809Y-55014676D02*
X39071428Y-54919438D01*
X39071428Y-54919438D02*
X39166666Y-54871819D01*
X39166666Y-54871819D02*
X39261904Y-54871819D01*
X39595238Y-55205152D02*
X39595238Y-55871819D01*
X39595238Y-55300390D02*
X39642857Y-55252771D01*
X39642857Y-55252771D02*
X39738095Y-55205152D01*
X39738095Y-55205152D02*
X39880952Y-55205152D01*
X39880952Y-55205152D02*
X39976190Y-55252771D01*
X39976190Y-55252771D02*
X40023809Y-55348009D01*
X40023809Y-55348009D02*
X40023809Y-55871819D01*
X40452381Y-54967057D02*
X40500000Y-54919438D01*
X40500000Y-54919438D02*
X40595238Y-54871819D01*
X40595238Y-54871819D02*
X40833333Y-54871819D01*
X40833333Y-54871819D02*
X40928571Y-54919438D01*
X40928571Y-54919438D02*
X40976190Y-54967057D01*
X40976190Y-54967057D02*
X41023809Y-55062295D01*
X41023809Y-55062295D02*
X41023809Y-55157533D01*
X41023809Y-55157533D02*
X40976190Y-55300390D01*
X40976190Y-55300390D02*
X40404762Y-55871819D01*
X40404762Y-55871819D02*
X41023809Y-55871819D01*
X272410119Y-37202771D02*
X272457738Y-37155152D01*
X272457738Y-37155152D02*
X272552976Y-37012295D01*
X272552976Y-37012295D02*
X272600595Y-36917057D01*
X272600595Y-36917057D02*
X272648214Y-36774200D01*
X272648214Y-36774200D02*
X272695833Y-36536104D01*
X272695833Y-36536104D02*
X272695833Y-36345628D01*
X272695833Y-36345628D02*
X272648214Y-36107533D01*
X272648214Y-36107533D02*
X272600595Y-35964676D01*
X272600595Y-35964676D02*
X272552976Y-35869438D01*
X272552976Y-35869438D02*
X272457738Y-35726580D01*
X272457738Y-35726580D02*
X272410119Y-35678961D01*
X274076786Y-35821819D02*
X273981548Y-35869438D01*
X273981548Y-35869438D02*
X273933929Y-35964676D01*
X273933929Y-35964676D02*
X273981548Y-36059914D01*
X273981548Y-36059914D02*
X274076786Y-36107533D01*
X274076786Y-36107533D02*
X274172024Y-36059914D01*
X274172024Y-36059914D02*
X274219643Y-35964676D01*
X274219643Y-35964676D02*
X274172024Y-35869438D01*
X274172024Y-35869438D02*
X274076786Y-35821819D01*
X202068154Y-113021819D02*
X202068154Y-112355152D01*
X202068154Y-112545628D02*
X202115773Y-112450390D01*
X202115773Y-112450390D02*
X202163392Y-112402771D01*
X202163392Y-112402771D02*
X202258630Y-112355152D01*
X202258630Y-112355152D02*
X202353868Y-112355152D01*
X202639583Y-112974200D02*
X202734821Y-113021819D01*
X202734821Y-113021819D02*
X202925297Y-113021819D01*
X202925297Y-113021819D02*
X203020535Y-112974200D01*
X203020535Y-112974200D02*
X203068154Y-112878961D01*
X203068154Y-112878961D02*
X203068154Y-112831342D01*
X203068154Y-112831342D02*
X203020535Y-112736104D01*
X203020535Y-112736104D02*
X202925297Y-112688485D01*
X202925297Y-112688485D02*
X202782440Y-112688485D01*
X202782440Y-112688485D02*
X202687202Y-112640866D01*
X202687202Y-112640866D02*
X202639583Y-112545628D01*
X202639583Y-112545628D02*
X202639583Y-112498009D01*
X202639583Y-112498009D02*
X202687202Y-112402771D01*
X202687202Y-112402771D02*
X202782440Y-112355152D01*
X202782440Y-112355152D02*
X202925297Y-112355152D01*
X202925297Y-112355152D02*
X203020535Y-112402771D01*
X203496726Y-112355152D02*
X203496726Y-113355152D01*
X203496726Y-112402771D02*
X203591964Y-112355152D01*
X203591964Y-112355152D02*
X203782440Y-112355152D01*
X203782440Y-112355152D02*
X203877678Y-112402771D01*
X203877678Y-112402771D02*
X203925297Y-112450390D01*
X203925297Y-112450390D02*
X203972916Y-112545628D01*
X203972916Y-112545628D02*
X203972916Y-112831342D01*
X203972916Y-112831342D02*
X203925297Y-112926580D01*
X203925297Y-112926580D02*
X203877678Y-112974200D01*
X203877678Y-112974200D02*
X203782440Y-113021819D01*
X203782440Y-113021819D02*
X203591964Y-113021819D01*
X203591964Y-113021819D02*
X203496726Y-112974200D01*
X204830059Y-113021819D02*
X204830059Y-112498009D01*
X204830059Y-112498009D02*
X204782440Y-112402771D01*
X204782440Y-112402771D02*
X204687202Y-112355152D01*
X204687202Y-112355152D02*
X204496726Y-112355152D01*
X204496726Y-112355152D02*
X204401488Y-112402771D01*
X204830059Y-112974200D02*
X204734821Y-113021819D01*
X204734821Y-113021819D02*
X204496726Y-113021819D01*
X204496726Y-113021819D02*
X204401488Y-112974200D01*
X204401488Y-112974200D02*
X204353869Y-112878961D01*
X204353869Y-112878961D02*
X204353869Y-112783723D01*
X204353869Y-112783723D02*
X204401488Y-112688485D01*
X204401488Y-112688485D02*
X204496726Y-112640866D01*
X204496726Y-112640866D02*
X204734821Y-112640866D01*
X204734821Y-112640866D02*
X204830059Y-112593247D01*
X205734821Y-112974200D02*
X205639583Y-113021819D01*
X205639583Y-113021819D02*
X205449107Y-113021819D01*
X205449107Y-113021819D02*
X205353869Y-112974200D01*
X205353869Y-112974200D02*
X205306250Y-112926580D01*
X205306250Y-112926580D02*
X205258631Y-112831342D01*
X205258631Y-112831342D02*
X205258631Y-112545628D01*
X205258631Y-112545628D02*
X205306250Y-112450390D01*
X205306250Y-112450390D02*
X205353869Y-112402771D01*
X205353869Y-112402771D02*
X205449107Y-112355152D01*
X205449107Y-112355152D02*
X205639583Y-112355152D01*
X205639583Y-112355152D02*
X205734821Y-112402771D01*
X206544345Y-112974200D02*
X206449107Y-113021819D01*
X206449107Y-113021819D02*
X206258631Y-113021819D01*
X206258631Y-113021819D02*
X206163393Y-112974200D01*
X206163393Y-112974200D02*
X206115774Y-112878961D01*
X206115774Y-112878961D02*
X206115774Y-112498009D01*
X206115774Y-112498009D02*
X206163393Y-112402771D01*
X206163393Y-112402771D02*
X206258631Y-112355152D01*
X206258631Y-112355152D02*
X206449107Y-112355152D01*
X206449107Y-112355152D02*
X206544345Y-112402771D01*
X206544345Y-112402771D02*
X206591964Y-112498009D01*
X206591964Y-112498009D02*
X206591964Y-112593247D01*
X206591964Y-112593247D02*
X206115774Y-112688485D01*
X234643452Y-36774200D02*
X234548214Y-36821819D01*
X234548214Y-36821819D02*
X234357738Y-36821819D01*
X234357738Y-36821819D02*
X234262500Y-36774200D01*
X234262500Y-36774200D02*
X234214881Y-36726580D01*
X234214881Y-36726580D02*
X234167262Y-36631342D01*
X234167262Y-36631342D02*
X234167262Y-36345628D01*
X234167262Y-36345628D02*
X234214881Y-36250390D01*
X234214881Y-36250390D02*
X234262500Y-36202771D01*
X234262500Y-36202771D02*
X234357738Y-36155152D01*
X234357738Y-36155152D02*
X234548214Y-36155152D01*
X234548214Y-36155152D02*
X234643452Y-36202771D01*
X234452976Y-36869438D02*
X234548214Y-36917057D01*
X234548214Y-36917057D02*
X234595833Y-37012295D01*
X234595833Y-37012295D02*
X234548214Y-37107533D01*
X234548214Y-37107533D02*
X234452976Y-37155152D01*
X234452976Y-37155152D02*
X234310119Y-37155152D01*
X235881548Y-36821819D02*
X236072024Y-36821819D01*
X236072024Y-36821819D02*
X236167262Y-36774200D01*
X236167262Y-36774200D02*
X236214881Y-36726580D01*
X236214881Y-36726580D02*
X236310119Y-36583723D01*
X236310119Y-36583723D02*
X236357738Y-36393247D01*
X236357738Y-36393247D02*
X236357738Y-36012295D01*
X236357738Y-36012295D02*
X236310119Y-35917057D01*
X236310119Y-35917057D02*
X236262500Y-35869438D01*
X236262500Y-35869438D02*
X236167262Y-35821819D01*
X236167262Y-35821819D02*
X235976786Y-35821819D01*
X235976786Y-35821819D02*
X235881548Y-35869438D01*
X235881548Y-35869438D02*
X235833929Y-35917057D01*
X235833929Y-35917057D02*
X235786310Y-36012295D01*
X235786310Y-36012295D02*
X235786310Y-36250390D01*
X235786310Y-36250390D02*
X235833929Y-36345628D01*
X235833929Y-36345628D02*
X235881548Y-36393247D01*
X235881548Y-36393247D02*
X235976786Y-36440866D01*
X235976786Y-36440866D02*
X236167262Y-36440866D01*
X236167262Y-36440866D02*
X236262500Y-36393247D01*
X236262500Y-36393247D02*
X236310119Y-36345628D01*
X236310119Y-36345628D02*
X236357738Y-36250390D01*
X196495833Y-36774200D02*
X196400595Y-36821819D01*
X196400595Y-36821819D02*
X196210119Y-36821819D01*
X196210119Y-36821819D02*
X196114881Y-36774200D01*
X196114881Y-36774200D02*
X196067262Y-36678961D01*
X196067262Y-36678961D02*
X196067262Y-36298009D01*
X196067262Y-36298009D02*
X196114881Y-36202771D01*
X196114881Y-36202771D02*
X196210119Y-36155152D01*
X196210119Y-36155152D02*
X196400595Y-36155152D01*
X196400595Y-36155152D02*
X196495833Y-36202771D01*
X196495833Y-36202771D02*
X196543452Y-36298009D01*
X196543452Y-36298009D02*
X196543452Y-36393247D01*
X196543452Y-36393247D02*
X196067262Y-36488485D01*
X196210119Y-35774200D02*
X196352976Y-35917057D01*
X197638691Y-35821819D02*
X198305357Y-35821819D01*
X198305357Y-35821819D02*
X197876786Y-36821819D01*
X244716071Y-55871819D02*
X244620833Y-55824200D01*
X244620833Y-55824200D02*
X244573214Y-55776580D01*
X244573214Y-55776580D02*
X244525595Y-55681342D01*
X244525595Y-55681342D02*
X244525595Y-55395628D01*
X244525595Y-55395628D02*
X244573214Y-55300390D01*
X244573214Y-55300390D02*
X244620833Y-55252771D01*
X244620833Y-55252771D02*
X244716071Y-55205152D01*
X244716071Y-55205152D02*
X244858928Y-55205152D01*
X244858928Y-55205152D02*
X244954166Y-55252771D01*
X244954166Y-55252771D02*
X245001785Y-55300390D01*
X245001785Y-55300390D02*
X245049404Y-55395628D01*
X245049404Y-55395628D02*
X245049404Y-55681342D01*
X245049404Y-55681342D02*
X245001785Y-55776580D01*
X245001785Y-55776580D02*
X244954166Y-55824200D01*
X244954166Y-55824200D02*
X244858928Y-55871819D01*
X244858928Y-55871819D02*
X244716071Y-55871819D01*
X111175595Y-55205152D02*
X111699404Y-55205152D01*
X111699404Y-55205152D02*
X111175595Y-55871819D01*
X111175595Y-55871819D02*
X111699404Y-55871819D01*
D11*
%TO.C,( 5*%
X149537500Y-30475000D02*
X149537500Y-49525000D01*
X149537500Y-49525000D02*
X168587500Y-49525000D01*
X168587500Y-30475000D02*
X149537500Y-30475000D01*
X168587500Y-49525000D02*
X168587500Y-30475000D01*
%TO.C,a*%
X82862500Y-49525000D02*
X82862500Y-68575000D01*
X82862500Y-68575000D02*
X101912500Y-68575000D01*
X101912500Y-49525000D02*
X82862500Y-49525000D01*
X101912500Y-68575000D02*
X101912500Y-49525000D01*
%TO.C,e*%
X120962500Y-49525000D02*
X120962500Y-68575000D01*
X120962500Y-68575000D02*
X140012500Y-68575000D01*
X140012500Y-49525000D02*
X120962500Y-49525000D01*
X140012500Y-68575000D02*
X140012500Y-49525000D01*
%TO.C,q*%
X87625000Y-68575000D02*
X87625000Y-87625000D01*
X87625000Y-87625000D02*
X106675000Y-87625000D01*
X106675000Y-68575000D02*
X87625000Y-68575000D01*
X106675000Y-87625000D02*
X106675000Y-68575000D01*
%TO.C,m*%
X259075000Y-68575000D02*
X259075000Y-87625000D01*
X259075000Y-87625000D02*
X278125000Y-87625000D01*
X278125000Y-68575000D02*
X259075000Y-68575000D01*
X278125000Y-87625000D02*
X278125000Y-68575000D01*
%TO.C,; .*%
X230500000Y-87625000D02*
X230500000Y-106675000D01*
X230500000Y-106675000D02*
X249550000Y-106675000D01*
X249550000Y-87625000D02*
X230500000Y-87625000D01*
X249550000Y-106675000D02*
X249550000Y-87625000D01*
%TO.C,j*%
X201925000Y-68575000D02*
X201925000Y-87625000D01*
X201925000Y-87625000D02*
X220975000Y-87625000D01*
X220975000Y-68575000D02*
X201925000Y-68575000D01*
X220975000Y-87625000D02*
X220975000Y-68575000D01*
%TO.C,$ \u002A \u20AC*%
X292412500Y-49525000D02*
X292412500Y-68575000D01*
X292412500Y-68575000D02*
X311462500Y-68575000D01*
X311462500Y-49525000D02*
X292412500Y-49525000D01*
X311462500Y-68575000D02*
X311462500Y-49525000D01*
%TO.C,y*%
X178112500Y-49525000D02*
X178112500Y-68575000D01*
X178112500Y-68575000D02*
X197162500Y-68575000D01*
X197162500Y-49525000D02*
X178112500Y-49525000D01*
X197162500Y-68575000D02*
X197162500Y-49525000D01*
%TO.C,= +*%
X268600000Y-87625000D02*
X268600000Y-106675000D01*
X268600000Y-106675000D02*
X287650000Y-106675000D01*
X287650000Y-87625000D02*
X268600000Y-87625000D01*
X287650000Y-106675000D02*
X287650000Y-87625000D01*
%TO.C,: /*%
X249550000Y-87625000D02*
X249550000Y-106675000D01*
X249550000Y-106675000D02*
X268600000Y-106675000D01*
X268600000Y-87625000D02*
X249550000Y-87625000D01*
X268600000Y-106675000D02*
X268600000Y-87625000D01*
%TO.C,REF\u002A\u002A*%
X230500000Y-125725000D02*
X230500000Y-106675000D01*
X230500000Y-125725000D02*
X178112500Y-125725000D01*
X230500000Y-106675000D02*
X178112500Y-106675000D01*
X178112500Y-125725000D02*
X178112500Y-106675000D01*
%TO.C,\u00F9 \u0025*%
X278125000Y-68575000D02*
X278125000Y-87625000D01*
X278125000Y-87625000D02*
X297175000Y-87625000D01*
X297175000Y-68575000D02*
X278125000Y-68575000D01*
X297175000Y-87625000D02*
X297175000Y-68575000D01*
%TO.C,left*%
X282887500Y-106675000D02*
X282887500Y-125725000D01*
X282887500Y-125725000D02*
X301937500Y-125725000D01*
X301937500Y-106675000D02*
X282887500Y-106675000D01*
X301937500Y-125725000D02*
X301937500Y-106675000D01*
%TO.C,f*%
X144775000Y-68575000D02*
X144775000Y-87625000D01*
X144775000Y-87625000D02*
X163825000Y-87625000D01*
X163825000Y-68575000D02*
X144775000Y-68575000D01*
X163825000Y-87625000D02*
X163825000Y-68575000D01*
%TO.C,caps lock*%
X54287500Y-68575000D02*
X54287500Y-87625000D01*
X54287500Y-87625000D02*
X87625000Y-87625000D01*
X87625000Y-68575000D02*
X54287500Y-68575000D01*
X87625000Y-87625000D02*
X87625000Y-68575000D01*
%TO.C,n*%
X192400000Y-87625000D02*
X192400000Y-106675000D01*
X192400000Y-106675000D02*
X211450000Y-106675000D01*
X211450000Y-87625000D02*
X192400000Y-87625000D01*
X211450000Y-106675000D02*
X211450000Y-87625000D01*
%TO.C,` \u00A3*%
X297175000Y-68575000D02*
X297175000Y-87625000D01*
X297175000Y-87625000D02*
X316225000Y-87625000D01*
X316225000Y-68575000D02*
X297175000Y-68575000D01*
X316225000Y-87625000D02*
X316225000Y-68575000D01*
%TO.C,r*%
X140012500Y-49525000D02*
X140012500Y-68575000D01*
X140012500Y-68575000D02*
X159062500Y-68575000D01*
X159062500Y-49525000D02*
X140012500Y-49525000D01*
X159062500Y-68575000D02*
X159062500Y-49525000D01*
%TO.C,t*%
X159062500Y-49525000D02*
X159062500Y-68575000D01*
X159062500Y-68575000D02*
X178112500Y-68575000D01*
X178112500Y-49525000D02*
X159062500Y-49525000D01*
X178112500Y-68575000D02*
X178112500Y-49525000D01*
%TO.C,p*%
X254312500Y-49525000D02*
X254312500Y-68575000D01*
X254312500Y-68575000D02*
X273362500Y-68575000D01*
X273362500Y-49525000D02*
X254312500Y-49525000D01*
X273362500Y-68575000D02*
X273362500Y-49525000D01*
%TO.C,& 1*%
X73337500Y-30475000D02*
X73337500Y-49525000D01*
X73337500Y-49525000D02*
X92387500Y-49525000D01*
X92387500Y-30475000D02*
X73337500Y-30475000D01*
X92387500Y-49525000D02*
X92387500Y-30475000D01*
%TO.C,v*%
X154300000Y-87625000D02*
X154300000Y-106675000D01*
X154300000Y-106675000D02*
X173350000Y-106675000D01*
X173350000Y-87625000D02*
X154300000Y-87625000D01*
X173350000Y-106675000D02*
X173350000Y-87625000D01*
%TO.C,down*%
X301937500Y-106675000D02*
X301937500Y-125725000D01*
X301937500Y-125725000D02*
X320987500Y-125725000D01*
X320987500Y-106675000D02*
X301937500Y-106675000D01*
X320987500Y-125725000D02*
X320987500Y-106675000D01*
%TO.C,- _*%
X282887500Y-30475000D02*
X282887500Y-49525000D01*
X282887500Y-49525000D02*
X301937500Y-49525000D01*
X301937500Y-30475000D02*
X282887500Y-30475000D01*
X301937500Y-49525000D02*
X301937500Y-30475000D01*
%TO.C,c*%
X135250000Y-87625000D02*
X135250000Y-106675000D01*
X135250000Y-106675000D02*
X154300000Y-106675000D01*
X154300000Y-87625000D02*
X135250000Y-87625000D01*
X154300000Y-106675000D02*
X154300000Y-87625000D01*
%TO.C,REF\u002A\u002A*%
X287650000Y-87625000D02*
X287650000Y-106675000D01*
X287650000Y-87625000D02*
X340037500Y-87625000D01*
X287650000Y-106675000D02*
X340037500Y-106675000D01*
X340037500Y-87625000D02*
X340037500Y-106675000D01*
%TO.C,s*%
X106675000Y-68575000D02*
X106675000Y-87625000D01*
X106675000Y-87625000D02*
X125725000Y-87625000D01*
X125725000Y-68575000D02*
X106675000Y-68575000D01*
X125725000Y-87625000D02*
X125725000Y-68575000D01*
%TO.C,d*%
X125725000Y-68575000D02*
X125725000Y-87625000D01*
X125725000Y-87625000D02*
X144775000Y-87625000D01*
X144775000Y-68575000D02*
X125725000Y-68575000D01*
X144775000Y-87625000D02*
X144775000Y-68575000D01*
%TO.C,REF\u002A\u002A*%
X178112500Y-125725000D02*
X178112500Y-106675000D01*
X178112500Y-125725000D02*
X135250000Y-125725000D01*
X178112500Y-106675000D02*
X135250000Y-106675000D01*
X135250000Y-125725000D02*
X135250000Y-106675000D01*
%TO.C,right*%
X320987500Y-106675000D02*
X320987500Y-125725000D01*
X320987500Y-125725000D02*
X340037500Y-125725000D01*
X340037500Y-106675000D02*
X320987500Y-106675000D01*
X340037500Y-125725000D02*
X340037500Y-106675000D01*
%TO.C,ctrl*%
X54287500Y-106675000D02*
X54287500Y-125725000D01*
X54287500Y-125725000D02*
X87625000Y-125725000D01*
X87625000Y-106675000D02*
X54287500Y-106675000D01*
X87625000Y-125725000D02*
X87625000Y-106675000D01*
%TO.C,< >*%
X78100000Y-87625000D02*
X78100000Y-106675000D01*
X78100000Y-106675000D02*
X97150000Y-106675000D01*
X97150000Y-87625000D02*
X78100000Y-87625000D01*
X97150000Y-106675000D02*
X97150000Y-87625000D01*
%TO.C,h*%
X182875000Y-68575000D02*
X182875000Y-87625000D01*
X182875000Y-87625000D02*
X201925000Y-87625000D01*
X201925000Y-68575000D02*
X182875000Y-68575000D01*
X201925000Y-87625000D02*
X201925000Y-68575000D01*
%TO.C,u*%
X197162500Y-49525000D02*
X197162500Y-68575000D01*
X197162500Y-68575000D02*
X216212500Y-68575000D01*
X216212500Y-49525000D02*
X197162500Y-49525000D01*
X216212500Y-68575000D02*
X216212500Y-49525000D01*
%TO.C,i*%
X216212500Y-49525000D02*
X216212500Y-68575000D01*
X216212500Y-68575000D02*
X235262500Y-68575000D01*
X235262500Y-49525000D02*
X216212500Y-49525000D01*
X235262500Y-68575000D02*
X235262500Y-49525000D01*
%TO.C,esc*%
X30475000Y-30475000D02*
X30475000Y-49525000D01*
X30475000Y-49525000D02*
X49525000Y-49525000D01*
X49525000Y-30475000D02*
X30475000Y-30475000D01*
X49525000Y-49525000D02*
X49525000Y-30475000D01*
%TO.C,l*%
X240025000Y-68575000D02*
X240025000Y-87625000D01*
X240025000Y-87625000D02*
X259075000Y-87625000D01*
X259075000Y-68575000D02*
X240025000Y-68575000D01*
X259075000Y-87625000D02*
X259075000Y-68575000D01*
%TO.C,! 8*%
X206687500Y-30475000D02*
X206687500Y-49525000D01*
X206687500Y-49525000D02*
X225737500Y-49525000D01*
X225737500Y-30475000D02*
X206687500Y-30475000D01*
X225737500Y-49525000D02*
X225737500Y-30475000D01*
%TO.C,REF\u002A\u002A*%
X301937500Y-30475000D02*
X301937500Y-49525000D01*
X301937500Y-30475000D02*
X340037500Y-30475000D01*
X301937500Y-49525000D02*
X340037500Y-49525000D01*
X340037500Y-30475000D02*
X340037500Y-49525000D01*
%TO.C,\u002C ?*%
X211450000Y-87625000D02*
X211450000Y-106675000D01*
X211450000Y-106675000D02*
X230500000Y-106675000D01*
X230500000Y-87625000D02*
X211450000Y-87625000D01*
X230500000Y-106675000D02*
X230500000Y-87625000D01*
%TO.C,\u00E9 2*%
X92387500Y-30475000D02*
X92387500Y-49525000D01*
X92387500Y-49525000D02*
X111437500Y-49525000D01*
X111437500Y-30475000D02*
X92387500Y-30475000D01*
X111437500Y-49525000D02*
X111437500Y-30475000D01*
%TO.C,fn*%
X30475000Y-68575000D02*
X30475000Y-87625000D01*
X30475000Y-87625000D02*
X49525000Y-87625000D01*
X49525000Y-68575000D02*
X30475000Y-68575000D01*
X49525000Y-87625000D02*
X49525000Y-68575000D01*
%TO.C,REF\u002A\u002A*%
X311462500Y-49525000D02*
X311462500Y-68575000D01*
X311462500Y-68575000D02*
X316225000Y-68575000D01*
X316225000Y-68575000D02*
X316225000Y-87625000D01*
X316225000Y-87625000D02*
X340037500Y-87625000D01*
X340037500Y-49525000D02*
X311462500Y-49525000D01*
X340037500Y-87625000D02*
X340037500Y-49525000D01*
%TO.C,\u00A7 6*%
X168587500Y-30475000D02*
X168587500Y-49525000D01*
X168587500Y-49525000D02*
X187637500Y-49525000D01*
X187637500Y-30475000D02*
X168587500Y-30475000D01*
X187637500Y-49525000D02*
X187637500Y-30475000D01*
%TO.C,\u00E0 0*%
X244787500Y-30475000D02*
X244787500Y-49525000D01*
X244787500Y-49525000D02*
X263837500Y-49525000D01*
X263837500Y-30475000D02*
X244787500Y-30475000D01*
X263837500Y-49525000D02*
X263837500Y-30475000D01*
%TO.C,option*%
X87625000Y-106675000D02*
X87625000Y-125725000D01*
X87625000Y-125725000D02*
X111437500Y-125725000D01*
X111437500Y-106675000D02*
X87625000Y-106675000D01*
X111437500Y-125725000D02*
X111437500Y-106675000D01*
%TO.C,b*%
X173350000Y-87625000D02*
X173350000Y-106675000D01*
X173350000Y-106675000D02*
X192400000Y-106675000D01*
X192400000Y-87625000D02*
X173350000Y-87625000D01*
X192400000Y-106675000D02*
X192400000Y-87625000D01*
%TO.C,tab*%
X54287500Y-49525000D02*
X54287500Y-68575000D01*
X54287500Y-68575000D02*
X82862500Y-68575000D01*
X82862500Y-49525000D02*
X54287500Y-49525000D01*
X82862500Y-68575000D02*
X82862500Y-49525000D01*
%TO.C," 3*%
X111437500Y-30475000D02*
X111437500Y-49525000D01*
X111437500Y-49525000D02*
X130487500Y-49525000D01*
X130487500Y-30475000D02*
X111437500Y-30475000D01*
X130487500Y-49525000D02*
X130487500Y-30475000D01*
%TO.C,option*%
X254312500Y-106675000D02*
X254312500Y-125725000D01*
X254312500Y-125725000D02*
X273362500Y-125725000D01*
X273362500Y-106675000D02*
X254312500Y-106675000D01*
X273362500Y-125725000D02*
X273362500Y-106675000D01*
%TO.C,w*%
X97150000Y-87625000D02*
X97150000Y-106675000D01*
X97150000Y-106675000D02*
X116200000Y-106675000D01*
X116200000Y-87625000D02*
X97150000Y-87625000D01*
X116200000Y-106675000D02*
X116200000Y-87625000D01*
%TO.C,cmd*%
X111437500Y-106675000D02*
X111437500Y-125725000D01*
X111437500Y-125725000D02*
X135250000Y-125725000D01*
X135250000Y-106675000D02*
X111437500Y-106675000D01*
X135250000Y-125725000D02*
X135250000Y-106675000D01*
%TO.C,' 4*%
X130487500Y-30475000D02*
X130487500Y-49525000D01*
X130487500Y-49525000D02*
X149537500Y-49525000D01*
X149537500Y-30475000D02*
X130487500Y-30475000D01*
X149537500Y-49525000D02*
X149537500Y-30475000D01*
%TO.C,x*%
X116200000Y-87625000D02*
X116200000Y-106675000D01*
X116200000Y-106675000D02*
X135250000Y-106675000D01*
X135250000Y-87625000D02*
X116200000Y-87625000D01*
X135250000Y-106675000D02*
X135250000Y-87625000D01*
%TO.C,g*%
X163825000Y-68575000D02*
X163825000Y-87625000D01*
X163825000Y-87625000D02*
X182875000Y-87625000D01*
X182875000Y-68575000D02*
X163825000Y-68575000D01*
X182875000Y-87625000D02*
X182875000Y-68575000D01*
%TO.C,^ \u00A8*%
X273362500Y-49525000D02*
X273362500Y-68575000D01*
X273362500Y-68575000D02*
X292412500Y-68575000D01*
X292412500Y-49525000D02*
X273362500Y-49525000D01*
X292412500Y-68575000D02*
X292412500Y-49525000D01*
%TO.C,@ #*%
X54287500Y-30475000D02*
X54287500Y-49525000D01*
X54287500Y-49525000D02*
X73337500Y-49525000D01*
X73337500Y-30475000D02*
X54287500Y-30475000D01*
X73337500Y-49525000D02*
X73337500Y-30475000D01*
%TO.C,cmd*%
X230493750Y-106675000D02*
X230493750Y-125725000D01*
X230493750Y-125725000D02*
X254306250Y-125725000D01*
X254306250Y-106675000D02*
X230493750Y-106675000D01*
X254306250Y-125725000D02*
X254306250Y-106675000D01*
%TO.C,lshift*%
X54287500Y-87625000D02*
X54287500Y-106675000D01*
X54287500Y-106675000D02*
X78100000Y-106675000D01*
X78100000Y-87625000D02*
X54287500Y-87625000D01*
X78100000Y-106675000D02*
X78100000Y-87625000D01*
%TO.C,k*%
X220975000Y-68575000D02*
X220975000Y-87625000D01*
X220975000Y-87625000D02*
X240025000Y-87625000D01*
X240025000Y-68575000D02*
X220975000Y-68575000D01*
X240025000Y-87625000D02*
X240025000Y-68575000D01*
%TO.C,fn2*%
X30475000Y-49525000D02*
X30475000Y-68575000D01*
X30475000Y-68575000D02*
X49525000Y-68575000D01*
X49525000Y-49525000D02*
X30475000Y-49525000D01*
X49525000Y-68575000D02*
X49525000Y-49525000D01*
%TO.C,) \u00B0*%
X263837500Y-30475000D02*
X263837500Y-49525000D01*
X263837500Y-49525000D02*
X282887500Y-49525000D01*
X282887500Y-30475000D02*
X263837500Y-30475000D01*
X282887500Y-49525000D02*
X282887500Y-30475000D01*
%TO.C,\u00E7 9*%
X225737500Y-30475000D02*
X225737500Y-49525000D01*
X225737500Y-49525000D02*
X244787500Y-49525000D01*
X244787500Y-30475000D02*
X225737500Y-30475000D01*
X244787500Y-49525000D02*
X244787500Y-30475000D01*
%TO.C,\u00E8 7*%
X187637500Y-30475000D02*
X187637500Y-49525000D01*
X187637500Y-49525000D02*
X206687500Y-49525000D01*
X206687500Y-30475000D02*
X187637500Y-30475000D01*
X206687500Y-49525000D02*
X206687500Y-30475000D01*
%TO.C,o*%
X235262500Y-49525000D02*
X235262500Y-68575000D01*
X235262500Y-68575000D02*
X254312500Y-68575000D01*
X254312500Y-49525000D02*
X235262500Y-49525000D01*
X254312500Y-68575000D02*
X254312500Y-49525000D01*
%TO.C,z*%
X101912500Y-49525000D02*
X101912500Y-68575000D01*
X101912500Y-68575000D02*
X120962500Y-68575000D01*
X120962500Y-49525000D02*
X101912500Y-49525000D01*
X120962500Y-68575000D02*
X120962500Y-49525000D01*
%TD*%
M02*
