%TF.GenerationSoftware,KiCad,Pcbnew,7.0.7*%
%TF.CreationDate,2023-11-08T12:28:28+01:00*%
%TF.ProjectId,macrolev,6d616372-6f6c-4657-962e-6b696361645f,1.0*%
%TF.SameCoordinates,Original*%
%TF.FileFunction,Drillmap*%
%TF.FilePolarity,Positive*%
%FSLAX45Y45*%
G04 Gerber Fmt 4.5, Leading zero omitted, Abs format (unit mm)*
G04 Created by KiCad (PCBNEW 7.0.7) date 2023-11-08 12:28:28*
%MOMM*%
%LPD*%
G01*
G04 APERTURE LIST*
%ADD10C,0.200000*%
%ADD11C,0.175000*%
%ADD12C,0.304800*%
%ADD13C,0.398780*%
G04 APERTURE END LIST*
D10*
X3047500Y-3047500D02*
X34003750Y-3047500D01*
X34003750Y-12572500D01*
X3047500Y-12572500D01*
X3047500Y-3047500D01*
D11*
X3404500Y-3912500D02*
X3579500Y-4087500D01*
X3579500Y-3912500D02*
X3404500Y-4087500D01*
X3404500Y-5817500D02*
X3579500Y-5992500D01*
X3579500Y-5817500D02*
X3404500Y-5992500D01*
X3404500Y-7722500D02*
X3579500Y-7897500D01*
X3579500Y-7722500D02*
X3404500Y-7897500D01*
X4420500Y-3912500D02*
X4595500Y-4087500D01*
X4595500Y-3912500D02*
X4420500Y-4087500D01*
X4420500Y-5817500D02*
X4595500Y-5992500D01*
X4595500Y-5817500D02*
X4420500Y-5992500D01*
X4420500Y-7722500D02*
X4595500Y-7897500D01*
X4595500Y-7722500D02*
X4420500Y-7897500D01*
X5785750Y-3912500D02*
X5960750Y-4087500D01*
X5960750Y-3912500D02*
X5785750Y-4087500D01*
X6023875Y-9627500D02*
X6198875Y-9802500D01*
X6198875Y-9627500D02*
X6023875Y-9802500D01*
X6262000Y-5817500D02*
X6437000Y-5992500D01*
X6437000Y-5817500D02*
X6262000Y-5992500D01*
X6500125Y-7722500D02*
X6675125Y-7897500D01*
X6675125Y-7722500D02*
X6500125Y-7897500D01*
X6500125Y-11532500D02*
X6675125Y-11707500D01*
X6675125Y-11532500D02*
X6500125Y-11707500D01*
X6801750Y-3912500D02*
X6976750Y-4087500D01*
X6976750Y-3912500D02*
X6801750Y-4087500D01*
X7039875Y-9627500D02*
X7214875Y-9802500D01*
X7214875Y-9627500D02*
X7039875Y-9802500D01*
X7278000Y-5817500D02*
X7453000Y-5992500D01*
X7453000Y-5817500D02*
X7278000Y-5992500D01*
X7516125Y-7722500D02*
X7691125Y-7897500D01*
X7691125Y-7722500D02*
X7516125Y-7897500D01*
X7516125Y-11532500D02*
X7691125Y-11707500D01*
X7691125Y-11532500D02*
X7516125Y-11707500D01*
X7690750Y-3912500D02*
X7865750Y-4087500D01*
X7865750Y-3912500D02*
X7690750Y-4087500D01*
X8167000Y-9627500D02*
X8342000Y-9802500D01*
X8342000Y-9627500D02*
X8167000Y-9802500D01*
X8643250Y-5817500D02*
X8818250Y-5992500D01*
X8818250Y-5817500D02*
X8643250Y-5992500D01*
X8706750Y-3912500D02*
X8881750Y-4087500D01*
X8881750Y-3912500D02*
X8706750Y-4087500D01*
X9119500Y-7722500D02*
X9294500Y-7897500D01*
X9294500Y-7722500D02*
X9119500Y-7897500D01*
X9183000Y-9627500D02*
X9358000Y-9802500D01*
X9358000Y-9627500D02*
X9183000Y-9802500D01*
X9357625Y-11532500D02*
X9532625Y-11707500D01*
X9532625Y-11532500D02*
X9357625Y-11707500D01*
X9595750Y-3912500D02*
X9770750Y-4087500D01*
X9770750Y-3912500D02*
X9595750Y-4087500D01*
X9659250Y-5817500D02*
X9834250Y-5992500D01*
X9834250Y-5817500D02*
X9659250Y-5992500D01*
X10072000Y-9627500D02*
X10247000Y-9802500D01*
X10247000Y-9627500D02*
X10072000Y-9802500D01*
X10135500Y-7722500D02*
X10310500Y-7897500D01*
X10310500Y-7722500D02*
X10135500Y-7897500D01*
X10373625Y-11532500D02*
X10548625Y-11707500D01*
X10548625Y-11532500D02*
X10373625Y-11707500D01*
X10548250Y-5817500D02*
X10723250Y-5992500D01*
X10723250Y-5817500D02*
X10548250Y-5992500D01*
X10611750Y-3912500D02*
X10786750Y-4087500D01*
X10786750Y-3912500D02*
X10611750Y-4087500D01*
X11024500Y-7722500D02*
X11199500Y-7897500D01*
X11199500Y-7722500D02*
X11024500Y-7897500D01*
X11088000Y-9627500D02*
X11263000Y-9802500D01*
X11263000Y-9627500D02*
X11088000Y-9802500D01*
X11500750Y-3912500D02*
X11675750Y-4087500D01*
X11675750Y-3912500D02*
X11500750Y-4087500D01*
X11564250Y-5817500D02*
X11739250Y-5992500D01*
X11739250Y-5817500D02*
X11564250Y-5992500D01*
X11738875Y-11532500D02*
X11913875Y-11707500D01*
X11913875Y-11532500D02*
X11738875Y-11707500D01*
X11977000Y-9627500D02*
X12152000Y-9802500D01*
X12152000Y-9627500D02*
X11977000Y-9802500D01*
X12040500Y-7722500D02*
X12215500Y-7897500D01*
X12215500Y-7722500D02*
X12040500Y-7897500D01*
X12453250Y-5817500D02*
X12628250Y-5992500D01*
X12628250Y-5817500D02*
X12453250Y-5992500D01*
X12516750Y-3912500D02*
X12691750Y-4087500D01*
X12691750Y-3912500D02*
X12516750Y-4087500D01*
X12754875Y-11532500D02*
X12929875Y-11707500D01*
X12929875Y-11532500D02*
X12754875Y-11707500D01*
X12929500Y-7722500D02*
X13104500Y-7897500D01*
X13104500Y-7722500D02*
X12929500Y-7897500D01*
X12993000Y-9627500D02*
X13168000Y-9802500D01*
X13168000Y-9627500D02*
X12993000Y-9802500D01*
X13405750Y-3912500D02*
X13580750Y-4087500D01*
X13580750Y-3912500D02*
X13405750Y-4087500D01*
X13469250Y-5817500D02*
X13644250Y-5992500D01*
X13644250Y-5817500D02*
X13469250Y-5992500D01*
X13882000Y-9627500D02*
X14057000Y-9802500D01*
X14057000Y-9627500D02*
X13882000Y-9802500D01*
X13945500Y-7722500D02*
X14120500Y-7897500D01*
X14120500Y-7722500D02*
X13945500Y-7897500D01*
X14358250Y-5817500D02*
X14533250Y-5992500D01*
X14533250Y-5817500D02*
X14358250Y-5992500D01*
X14421750Y-3912500D02*
X14596750Y-4087500D01*
X14596750Y-3912500D02*
X14421750Y-4087500D01*
X14834500Y-7722500D02*
X15009500Y-7897500D01*
X15009500Y-7722500D02*
X14834500Y-7897500D01*
X14898000Y-9627500D02*
X15073000Y-9802500D01*
X15073000Y-9627500D02*
X14898000Y-9802500D01*
X15072625Y-11532500D02*
X15247625Y-11707500D01*
X15247625Y-11532500D02*
X15072625Y-11707500D01*
X15310750Y-3912500D02*
X15485750Y-4087500D01*
X15485750Y-3912500D02*
X15310750Y-4087500D01*
X15374250Y-5817500D02*
X15549250Y-5992500D01*
X15549250Y-5817500D02*
X15374250Y-5992500D01*
X15787000Y-9627500D02*
X15962000Y-9802500D01*
X15962000Y-9627500D02*
X15787000Y-9802500D01*
X15850500Y-7722500D02*
X16025500Y-7897500D01*
X16025500Y-7722500D02*
X15850500Y-7897500D01*
X16088625Y-11532500D02*
X16263625Y-11707500D01*
X16263625Y-11532500D02*
X16088625Y-11707500D01*
X16263250Y-5817500D02*
X16438250Y-5992500D01*
X16438250Y-5817500D02*
X16263250Y-5992500D01*
X16326750Y-3912500D02*
X16501750Y-4087500D01*
X16501750Y-3912500D02*
X16326750Y-4087500D01*
X16739500Y-7722500D02*
X16914500Y-7897500D01*
X16914500Y-7722500D02*
X16739500Y-7897500D01*
X16803000Y-9627500D02*
X16978000Y-9802500D01*
X16978000Y-9627500D02*
X16803000Y-9802500D01*
X17215750Y-3912500D02*
X17390750Y-4087500D01*
X17390750Y-3912500D02*
X17215750Y-4087500D01*
X17279250Y-5817500D02*
X17454250Y-5992500D01*
X17454250Y-5817500D02*
X17279250Y-5992500D01*
X17692000Y-9627500D02*
X17867000Y-9802500D01*
X17867000Y-9627500D02*
X17692000Y-9802500D01*
X17755500Y-7722500D02*
X17930500Y-7897500D01*
X17930500Y-7722500D02*
X17755500Y-7897500D01*
X18168250Y-5817500D02*
X18343250Y-5992500D01*
X18343250Y-5817500D02*
X18168250Y-5992500D01*
X18231750Y-3912500D02*
X18406750Y-4087500D01*
X18406750Y-3912500D02*
X18231750Y-4087500D01*
X18644500Y-7722500D02*
X18819500Y-7897500D01*
X18819500Y-7722500D02*
X18644500Y-7897500D01*
X18708000Y-9627500D02*
X18883000Y-9802500D01*
X18883000Y-9627500D02*
X18708000Y-9802500D01*
X19120750Y-3912500D02*
X19295750Y-4087500D01*
X19295750Y-3912500D02*
X19120750Y-4087500D01*
X19184250Y-5817500D02*
X19359250Y-5992500D01*
X19359250Y-5817500D02*
X19184250Y-5992500D01*
X19597000Y-9627500D02*
X19772000Y-9802500D01*
X19772000Y-9627500D02*
X19597000Y-9802500D01*
X19660500Y-7722500D02*
X19835500Y-7897500D01*
X19835500Y-7722500D02*
X19660500Y-7897500D01*
X19835125Y-11532500D02*
X20010125Y-11707500D01*
X20010125Y-11532500D02*
X19835125Y-11707500D01*
X20073250Y-5817500D02*
X20248250Y-5992500D01*
X20248250Y-5817500D02*
X20073250Y-5992500D01*
X20136750Y-3912500D02*
X20311750Y-4087500D01*
X20311750Y-3912500D02*
X20136750Y-4087500D01*
X20549500Y-7722500D02*
X20724500Y-7897500D01*
X20724500Y-7722500D02*
X20549500Y-7897500D01*
X20613000Y-9627500D02*
X20788000Y-9802500D01*
X20788000Y-9627500D02*
X20613000Y-9802500D01*
X20851125Y-11532500D02*
X21026125Y-11707500D01*
X21026125Y-11532500D02*
X20851125Y-11707500D01*
X21025750Y-3912500D02*
X21200750Y-4087500D01*
X21200750Y-3912500D02*
X21025750Y-4087500D01*
X21089250Y-5817500D02*
X21264250Y-5992500D01*
X21264250Y-5817500D02*
X21089250Y-5992500D01*
X21502000Y-9627500D02*
X21677000Y-9802500D01*
X21677000Y-9627500D02*
X21502000Y-9802500D01*
X21565500Y-7722500D02*
X21740500Y-7897500D01*
X21740500Y-7722500D02*
X21565500Y-7897500D01*
X21978250Y-5817500D02*
X22153250Y-5992500D01*
X22153250Y-5817500D02*
X21978250Y-5992500D01*
X22041750Y-3912500D02*
X22216750Y-4087500D01*
X22216750Y-3912500D02*
X22041750Y-4087500D01*
X22454500Y-7722500D02*
X22629500Y-7897500D01*
X22629500Y-7722500D02*
X22454500Y-7897500D01*
X22518000Y-9627500D02*
X22693000Y-9802500D01*
X22693000Y-9627500D02*
X22518000Y-9802500D01*
X22930750Y-3912500D02*
X23105750Y-4087500D01*
X23105750Y-3912500D02*
X22930750Y-4087500D01*
X22994250Y-5817500D02*
X23169250Y-5992500D01*
X23169250Y-5817500D02*
X22994250Y-5992500D01*
X23407000Y-9627500D02*
X23582000Y-9802500D01*
X23582000Y-9627500D02*
X23407000Y-9802500D01*
X23470500Y-7722500D02*
X23645500Y-7897500D01*
X23645500Y-7722500D02*
X23470500Y-7897500D01*
X23644500Y-11532500D02*
X23819500Y-11707500D01*
X23819500Y-11532500D02*
X23644500Y-11707500D01*
X23883250Y-5817500D02*
X24058250Y-5992500D01*
X24058250Y-5817500D02*
X23883250Y-5992500D01*
X23946750Y-3912500D02*
X24121750Y-4087500D01*
X24121750Y-3912500D02*
X23946750Y-4087500D01*
X24359500Y-7722500D02*
X24534500Y-7897500D01*
X24534500Y-7722500D02*
X24359500Y-7897500D01*
X24423000Y-9627500D02*
X24598000Y-9802500D01*
X24598000Y-9627500D02*
X24423000Y-9802500D01*
X24660500Y-11532500D02*
X24835500Y-11707500D01*
X24835500Y-11532500D02*
X24660500Y-11707500D01*
X24835750Y-3912500D02*
X25010750Y-4087500D01*
X25010750Y-3912500D02*
X24835750Y-4087500D01*
X24899250Y-5817500D02*
X25074250Y-5992500D01*
X25074250Y-5817500D02*
X24899250Y-5992500D01*
X25312000Y-9627500D02*
X25487000Y-9802500D01*
X25487000Y-9627500D02*
X25312000Y-9802500D01*
X25375500Y-7722500D02*
X25550500Y-7897500D01*
X25550500Y-7722500D02*
X25375500Y-7897500D01*
X25788250Y-5817500D02*
X25963250Y-5992500D01*
X25963250Y-5817500D02*
X25788250Y-5992500D01*
X25788250Y-11532500D02*
X25963250Y-11707500D01*
X25963250Y-11532500D02*
X25788250Y-11707500D01*
X25851750Y-3912500D02*
X26026750Y-4087500D01*
X26026750Y-3912500D02*
X25851750Y-4087500D01*
X26264500Y-7722500D02*
X26439500Y-7897500D01*
X26439500Y-7722500D02*
X26264500Y-7897500D01*
X26328000Y-9627500D02*
X26503000Y-9802500D01*
X26503000Y-9627500D02*
X26328000Y-9802500D01*
X26740750Y-3912500D02*
X26915750Y-4087500D01*
X26915750Y-3912500D02*
X26740750Y-4087500D01*
X26804250Y-5817500D02*
X26979250Y-5992500D01*
X26979250Y-5817500D02*
X26804250Y-5992500D01*
X26804250Y-11532500D02*
X26979250Y-11707500D01*
X26979250Y-11532500D02*
X26804250Y-11707500D01*
X27217000Y-9627500D02*
X27392000Y-9802500D01*
X27392000Y-9627500D02*
X27217000Y-9802500D01*
X27280500Y-7722500D02*
X27455500Y-7897500D01*
X27455500Y-7722500D02*
X27280500Y-7897500D01*
X27693250Y-5817500D02*
X27868250Y-5992500D01*
X27868250Y-5817500D02*
X27693250Y-5992500D01*
X27756750Y-3912500D02*
X27931750Y-4087500D01*
X27931750Y-3912500D02*
X27756750Y-4087500D01*
X28169500Y-7722500D02*
X28344500Y-7897500D01*
X28344500Y-7722500D02*
X28169500Y-7897500D01*
X28233000Y-9627500D02*
X28408000Y-9802500D01*
X28408000Y-9627500D02*
X28233000Y-9802500D01*
X28645750Y-3912500D02*
X28820750Y-4087500D01*
X28820750Y-3912500D02*
X28645750Y-4087500D01*
X28645750Y-11532500D02*
X28820750Y-11707500D01*
X28820750Y-11532500D02*
X28645750Y-11707500D01*
X28709250Y-5817500D02*
X28884250Y-5992500D01*
X28884250Y-5817500D02*
X28709250Y-5992500D01*
X29185500Y-7722500D02*
X29360500Y-7897500D01*
X29360500Y-7722500D02*
X29185500Y-7897500D01*
X29598250Y-5817500D02*
X29773250Y-5992500D01*
X29773250Y-5817500D02*
X29598250Y-5992500D01*
X29661750Y-3912500D02*
X29836750Y-4087500D01*
X29836750Y-3912500D02*
X29661750Y-4087500D01*
X29661750Y-11532500D02*
X29836750Y-11707500D01*
X29836750Y-11532500D02*
X29661750Y-11707500D01*
X30074500Y-7722500D02*
X30249500Y-7897500D01*
X30249500Y-7722500D02*
X30074500Y-7897500D01*
X30550750Y-11532500D02*
X30725750Y-11707500D01*
X30725750Y-11532500D02*
X30550750Y-11707500D01*
X30614250Y-5817500D02*
X30789250Y-5992500D01*
X30789250Y-5817500D02*
X30614250Y-5992500D01*
X30788875Y-9627500D02*
X30963875Y-9802500D01*
X30963875Y-9627500D02*
X30788875Y-9802500D01*
X31090500Y-7722500D02*
X31265500Y-7897500D01*
X31265500Y-7722500D02*
X31090500Y-7897500D01*
X31504500Y-3912500D02*
X31679500Y-4087500D01*
X31679500Y-3912500D02*
X31504500Y-4087500D01*
X31566750Y-11532500D02*
X31741750Y-11707500D01*
X31741750Y-11532500D02*
X31566750Y-11707500D01*
X31804875Y-9627500D02*
X31979875Y-9802500D01*
X31979875Y-9627500D02*
X31804875Y-9802500D01*
X32217625Y-6770000D02*
X32392625Y-6945000D01*
X32392625Y-6770000D02*
X32217625Y-6945000D01*
X32455750Y-11532500D02*
X32630750Y-11707500D01*
X32630750Y-11532500D02*
X32455750Y-11707500D01*
X32520500Y-3912500D02*
X32695500Y-4087500D01*
X32695500Y-3912500D02*
X32520500Y-4087500D01*
X33233625Y-6770000D02*
X33408625Y-6945000D01*
X33408625Y-6770000D02*
X33233625Y-6945000D01*
X33471750Y-11532500D02*
X33646750Y-11707500D01*
X33646750Y-11532500D02*
X33471750Y-11707500D01*
D12*
X14629900Y-12318500D02*
G75*
G03*
X14629900Y-12318500I-152400J0D01*
G01*
X17011150Y-12318500D02*
G75*
G03*
X17011150Y-12318500I-152400J0D01*
G01*
X19392400Y-12318500D02*
G75*
G03*
X19392400Y-12318500I-152400J0D01*
G01*
X21773650Y-12318500D02*
G75*
G03*
X21773650Y-12318500I-152400J0D01*
G01*
X30346150Y-9016500D02*
G75*
G03*
X30346150Y-9016500I-152400J0D01*
G01*
X31060525Y-3301500D02*
G75*
G03*
X31060525Y-3301500I-152400J0D01*
G01*
X32727400Y-9016500D02*
G75*
G03*
X32727400Y-9016500I-152400J0D01*
G01*
X33441775Y-3301500D02*
G75*
G03*
X33441775Y-3301500I-152400J0D01*
G01*
X33664025Y-5666875D02*
G75*
G03*
X33664025Y-5666875I-152400J0D01*
G01*
X33664025Y-8048125D02*
G75*
G03*
X33664025Y-8048125I-152400J0D01*
G01*
D13*
X14477500Y-10595110D02*
X14477500Y-10993890D01*
X14278110Y-10794500D02*
X14676890Y-10794500D01*
X16858750Y-10595110D02*
X16858750Y-10993890D01*
X16659360Y-10794500D02*
X17058140Y-10794500D01*
X19240000Y-10595110D02*
X19240000Y-10993890D01*
X19040610Y-10794500D02*
X19439390Y-10794500D01*
X21621250Y-10595110D02*
X21621250Y-10993890D01*
X21421860Y-10794500D02*
X21820640Y-10794500D01*
X30193750Y-10341110D02*
X30193750Y-10739890D01*
X29994360Y-10540500D02*
X30393140Y-10540500D01*
X30908125Y-4626110D02*
X30908125Y-5024890D01*
X30708735Y-4825500D02*
X31107515Y-4825500D01*
X31987625Y-5467485D02*
X31987625Y-5866265D01*
X31788235Y-5666875D02*
X32187015Y-5666875D01*
X31987625Y-7848735D02*
X31987625Y-8247515D01*
X31788235Y-8048125D02*
X32187015Y-8048125D01*
X32575000Y-10341110D02*
X32575000Y-10739890D01*
X32375610Y-10540500D02*
X32774390Y-10540500D01*
X33289375Y-4626110D02*
X33289375Y-5024890D01*
X33089985Y-4825500D02*
X33488765Y-4825500D01*
D10*
X3298277Y-12893984D02*
X3298277Y-12693984D01*
X3298277Y-12693984D02*
X3345896Y-12693984D01*
X3345896Y-12693984D02*
X3374467Y-12703508D01*
X3374467Y-12703508D02*
X3393515Y-12722555D01*
X3393515Y-12722555D02*
X3403039Y-12741603D01*
X3403039Y-12741603D02*
X3412562Y-12779698D01*
X3412562Y-12779698D02*
X3412562Y-12808269D01*
X3412562Y-12808269D02*
X3403039Y-12846365D01*
X3403039Y-12846365D02*
X3393515Y-12865412D01*
X3393515Y-12865412D02*
X3374467Y-12884460D01*
X3374467Y-12884460D02*
X3345896Y-12893984D01*
X3345896Y-12893984D02*
X3298277Y-12893984D01*
X3498277Y-12893984D02*
X3498277Y-12760650D01*
X3498277Y-12798746D02*
X3507801Y-12779698D01*
X3507801Y-12779698D02*
X3517324Y-12770174D01*
X3517324Y-12770174D02*
X3536372Y-12760650D01*
X3536372Y-12760650D02*
X3555420Y-12760650D01*
X3622086Y-12893984D02*
X3622086Y-12760650D01*
X3622086Y-12693984D02*
X3612562Y-12703508D01*
X3612562Y-12703508D02*
X3622086Y-12713031D01*
X3622086Y-12713031D02*
X3631610Y-12703508D01*
X3631610Y-12703508D02*
X3622086Y-12693984D01*
X3622086Y-12693984D02*
X3622086Y-12713031D01*
X3745896Y-12893984D02*
X3726848Y-12884460D01*
X3726848Y-12884460D02*
X3717324Y-12865412D01*
X3717324Y-12865412D02*
X3717324Y-12693984D01*
X3850658Y-12893984D02*
X3831610Y-12884460D01*
X3831610Y-12884460D02*
X3822086Y-12865412D01*
X3822086Y-12865412D02*
X3822086Y-12693984D01*
X4079229Y-12893984D02*
X4079229Y-12693984D01*
X4079229Y-12693984D02*
X4145896Y-12836841D01*
X4145896Y-12836841D02*
X4212563Y-12693984D01*
X4212563Y-12693984D02*
X4212563Y-12893984D01*
X4393515Y-12893984D02*
X4393515Y-12789222D01*
X4393515Y-12789222D02*
X4383991Y-12770174D01*
X4383991Y-12770174D02*
X4364944Y-12760650D01*
X4364944Y-12760650D02*
X4326848Y-12760650D01*
X4326848Y-12760650D02*
X4307801Y-12770174D01*
X4393515Y-12884460D02*
X4374467Y-12893984D01*
X4374467Y-12893984D02*
X4326848Y-12893984D01*
X4326848Y-12893984D02*
X4307801Y-12884460D01*
X4307801Y-12884460D02*
X4298277Y-12865412D01*
X4298277Y-12865412D02*
X4298277Y-12846365D01*
X4298277Y-12846365D02*
X4307801Y-12827317D01*
X4307801Y-12827317D02*
X4326848Y-12817793D01*
X4326848Y-12817793D02*
X4374467Y-12817793D01*
X4374467Y-12817793D02*
X4393515Y-12808269D01*
X4488753Y-12760650D02*
X4488753Y-12960650D01*
X4488753Y-12770174D02*
X4507801Y-12760650D01*
X4507801Y-12760650D02*
X4545896Y-12760650D01*
X4545896Y-12760650D02*
X4564944Y-12770174D01*
X4564944Y-12770174D02*
X4574467Y-12779698D01*
X4574467Y-12779698D02*
X4583991Y-12798746D01*
X4583991Y-12798746D02*
X4583991Y-12855888D01*
X4583991Y-12855888D02*
X4574467Y-12874936D01*
X4574467Y-12874936D02*
X4564944Y-12884460D01*
X4564944Y-12884460D02*
X4545896Y-12893984D01*
X4545896Y-12893984D02*
X4507801Y-12893984D01*
X4507801Y-12893984D02*
X4488753Y-12884460D01*
X4669705Y-12874936D02*
X4679229Y-12884460D01*
X4679229Y-12884460D02*
X4669705Y-12893984D01*
X4669705Y-12893984D02*
X4660182Y-12884460D01*
X4660182Y-12884460D02*
X4669705Y-12874936D01*
X4669705Y-12874936D02*
X4669705Y-12893984D01*
X4669705Y-12770174D02*
X4679229Y-12779698D01*
X4679229Y-12779698D02*
X4669705Y-12789222D01*
X4669705Y-12789222D02*
X4660182Y-12779698D01*
X4660182Y-12779698D02*
X4669705Y-12770174D01*
X4669705Y-12770174D02*
X4669705Y-12789222D01*
D11*
X2862500Y-13135000D02*
X3037500Y-13310000D01*
X3037500Y-13135000D02*
X2862500Y-13310000D01*
D10*
X3403039Y-13313984D02*
X3288753Y-13313984D01*
X3345896Y-13313984D02*
X3345896Y-13113984D01*
X3345896Y-13113984D02*
X3326848Y-13142555D01*
X3326848Y-13142555D02*
X3307801Y-13161603D01*
X3307801Y-13161603D02*
X3288753Y-13171127D01*
X3488753Y-13294936D02*
X3498277Y-13304460D01*
X3498277Y-13304460D02*
X3488753Y-13313984D01*
X3488753Y-13313984D02*
X3479229Y-13304460D01*
X3479229Y-13304460D02*
X3488753Y-13294936D01*
X3488753Y-13294936D02*
X3488753Y-13313984D01*
X3564943Y-13113984D02*
X3698277Y-13113984D01*
X3698277Y-13113984D02*
X3612562Y-13313984D01*
X3869705Y-13113984D02*
X3774467Y-13113984D01*
X3774467Y-13113984D02*
X3764943Y-13209222D01*
X3764943Y-13209222D02*
X3774467Y-13199698D01*
X3774467Y-13199698D02*
X3793515Y-13190174D01*
X3793515Y-13190174D02*
X3841134Y-13190174D01*
X3841134Y-13190174D02*
X3860182Y-13199698D01*
X3860182Y-13199698D02*
X3869705Y-13209222D01*
X3869705Y-13209222D02*
X3879229Y-13228269D01*
X3879229Y-13228269D02*
X3879229Y-13275888D01*
X3879229Y-13275888D02*
X3869705Y-13294936D01*
X3869705Y-13294936D02*
X3860182Y-13304460D01*
X3860182Y-13304460D02*
X3841134Y-13313984D01*
X3841134Y-13313984D02*
X3793515Y-13313984D01*
X3793515Y-13313984D02*
X3774467Y-13304460D01*
X3774467Y-13304460D02*
X3764943Y-13294936D01*
X4003039Y-13113984D02*
X4022086Y-13113984D01*
X4022086Y-13113984D02*
X4041134Y-13123508D01*
X4041134Y-13123508D02*
X4050658Y-13133031D01*
X4050658Y-13133031D02*
X4060182Y-13152079D01*
X4060182Y-13152079D02*
X4069705Y-13190174D01*
X4069705Y-13190174D02*
X4069705Y-13237793D01*
X4069705Y-13237793D02*
X4060182Y-13275888D01*
X4060182Y-13275888D02*
X4050658Y-13294936D01*
X4050658Y-13294936D02*
X4041134Y-13304460D01*
X4041134Y-13304460D02*
X4022086Y-13313984D01*
X4022086Y-13313984D02*
X4003039Y-13313984D01*
X4003039Y-13313984D02*
X3983991Y-13304460D01*
X3983991Y-13304460D02*
X3974467Y-13294936D01*
X3974467Y-13294936D02*
X3964943Y-13275888D01*
X3964943Y-13275888D02*
X3955420Y-13237793D01*
X3955420Y-13237793D02*
X3955420Y-13190174D01*
X3955420Y-13190174D02*
X3964943Y-13152079D01*
X3964943Y-13152079D02*
X3974467Y-13133031D01*
X3974467Y-13133031D02*
X3983991Y-13123508D01*
X3983991Y-13123508D02*
X4003039Y-13113984D01*
X4155420Y-13313984D02*
X4155420Y-13180650D01*
X4155420Y-13199698D02*
X4164943Y-13190174D01*
X4164943Y-13190174D02*
X4183991Y-13180650D01*
X4183991Y-13180650D02*
X4212563Y-13180650D01*
X4212563Y-13180650D02*
X4231610Y-13190174D01*
X4231610Y-13190174D02*
X4241134Y-13209222D01*
X4241134Y-13209222D02*
X4241134Y-13313984D01*
X4241134Y-13209222D02*
X4250658Y-13190174D01*
X4250658Y-13190174D02*
X4269705Y-13180650D01*
X4269705Y-13180650D02*
X4298277Y-13180650D01*
X4298277Y-13180650D02*
X4317325Y-13190174D01*
X4317325Y-13190174D02*
X4326848Y-13209222D01*
X4326848Y-13209222D02*
X4326848Y-13313984D01*
X4422086Y-13313984D02*
X4422086Y-13180650D01*
X4422086Y-13199698D02*
X4431610Y-13190174D01*
X4431610Y-13190174D02*
X4450658Y-13180650D01*
X4450658Y-13180650D02*
X4479229Y-13180650D01*
X4479229Y-13180650D02*
X4498277Y-13190174D01*
X4498277Y-13190174D02*
X4507801Y-13209222D01*
X4507801Y-13209222D02*
X4507801Y-13313984D01*
X4507801Y-13209222D02*
X4517325Y-13190174D01*
X4517325Y-13190174D02*
X4536372Y-13180650D01*
X4536372Y-13180650D02*
X4564944Y-13180650D01*
X4564944Y-13180650D02*
X4583991Y-13190174D01*
X4583991Y-13190174D02*
X4593515Y-13209222D01*
X4593515Y-13209222D02*
X4593515Y-13313984D01*
X4983991Y-13104460D02*
X4812563Y-13361603D01*
X5241134Y-13113984D02*
X5260182Y-13113984D01*
X5260182Y-13113984D02*
X5279229Y-13123508D01*
X5279229Y-13123508D02*
X5288753Y-13133031D01*
X5288753Y-13133031D02*
X5298277Y-13152079D01*
X5298277Y-13152079D02*
X5307801Y-13190174D01*
X5307801Y-13190174D02*
X5307801Y-13237793D01*
X5307801Y-13237793D02*
X5298277Y-13275888D01*
X5298277Y-13275888D02*
X5288753Y-13294936D01*
X5288753Y-13294936D02*
X5279229Y-13304460D01*
X5279229Y-13304460D02*
X5260182Y-13313984D01*
X5260182Y-13313984D02*
X5241134Y-13313984D01*
X5241134Y-13313984D02*
X5222087Y-13304460D01*
X5222087Y-13304460D02*
X5212563Y-13294936D01*
X5212563Y-13294936D02*
X5203039Y-13275888D01*
X5203039Y-13275888D02*
X5193515Y-13237793D01*
X5193515Y-13237793D02*
X5193515Y-13190174D01*
X5193515Y-13190174D02*
X5203039Y-13152079D01*
X5203039Y-13152079D02*
X5212563Y-13133031D01*
X5212563Y-13133031D02*
X5222087Y-13123508D01*
X5222087Y-13123508D02*
X5241134Y-13113984D01*
X5393515Y-13294936D02*
X5403039Y-13304460D01*
X5403039Y-13304460D02*
X5393515Y-13313984D01*
X5393515Y-13313984D02*
X5383991Y-13304460D01*
X5383991Y-13304460D02*
X5393515Y-13294936D01*
X5393515Y-13294936D02*
X5393515Y-13313984D01*
X5526848Y-13113984D02*
X5545896Y-13113984D01*
X5545896Y-13113984D02*
X5564944Y-13123508D01*
X5564944Y-13123508D02*
X5574468Y-13133031D01*
X5574468Y-13133031D02*
X5583991Y-13152079D01*
X5583991Y-13152079D02*
X5593515Y-13190174D01*
X5593515Y-13190174D02*
X5593515Y-13237793D01*
X5593515Y-13237793D02*
X5583991Y-13275888D01*
X5583991Y-13275888D02*
X5574468Y-13294936D01*
X5574468Y-13294936D02*
X5564944Y-13304460D01*
X5564944Y-13304460D02*
X5545896Y-13313984D01*
X5545896Y-13313984D02*
X5526848Y-13313984D01*
X5526848Y-13313984D02*
X5507801Y-13304460D01*
X5507801Y-13304460D02*
X5498277Y-13294936D01*
X5498277Y-13294936D02*
X5488753Y-13275888D01*
X5488753Y-13275888D02*
X5479229Y-13237793D01*
X5479229Y-13237793D02*
X5479229Y-13190174D01*
X5479229Y-13190174D02*
X5488753Y-13152079D01*
X5488753Y-13152079D02*
X5498277Y-13133031D01*
X5498277Y-13133031D02*
X5507801Y-13123508D01*
X5507801Y-13123508D02*
X5526848Y-13113984D01*
X5764944Y-13113984D02*
X5726848Y-13113984D01*
X5726848Y-13113984D02*
X5707801Y-13123508D01*
X5707801Y-13123508D02*
X5698277Y-13133031D01*
X5698277Y-13133031D02*
X5679229Y-13161603D01*
X5679229Y-13161603D02*
X5669706Y-13199698D01*
X5669706Y-13199698D02*
X5669706Y-13275888D01*
X5669706Y-13275888D02*
X5679229Y-13294936D01*
X5679229Y-13294936D02*
X5688753Y-13304460D01*
X5688753Y-13304460D02*
X5707801Y-13313984D01*
X5707801Y-13313984D02*
X5745896Y-13313984D01*
X5745896Y-13313984D02*
X5764944Y-13304460D01*
X5764944Y-13304460D02*
X5774467Y-13294936D01*
X5774467Y-13294936D02*
X5783991Y-13275888D01*
X5783991Y-13275888D02*
X5783991Y-13228269D01*
X5783991Y-13228269D02*
X5774467Y-13209222D01*
X5774467Y-13209222D02*
X5764944Y-13199698D01*
X5764944Y-13199698D02*
X5745896Y-13190174D01*
X5745896Y-13190174D02*
X5707801Y-13190174D01*
X5707801Y-13190174D02*
X5688753Y-13199698D01*
X5688753Y-13199698D02*
X5679229Y-13209222D01*
X5679229Y-13209222D02*
X5669706Y-13228269D01*
X5898277Y-13199698D02*
X5879229Y-13190174D01*
X5879229Y-13190174D02*
X5869706Y-13180650D01*
X5869706Y-13180650D02*
X5860182Y-13161603D01*
X5860182Y-13161603D02*
X5860182Y-13152079D01*
X5860182Y-13152079D02*
X5869706Y-13133031D01*
X5869706Y-13133031D02*
X5879229Y-13123508D01*
X5879229Y-13123508D02*
X5898277Y-13113984D01*
X5898277Y-13113984D02*
X5936372Y-13113984D01*
X5936372Y-13113984D02*
X5955420Y-13123508D01*
X5955420Y-13123508D02*
X5964944Y-13133031D01*
X5964944Y-13133031D02*
X5974467Y-13152079D01*
X5974467Y-13152079D02*
X5974467Y-13161603D01*
X5974467Y-13161603D02*
X5964944Y-13180650D01*
X5964944Y-13180650D02*
X5955420Y-13190174D01*
X5955420Y-13190174D02*
X5936372Y-13199698D01*
X5936372Y-13199698D02*
X5898277Y-13199698D01*
X5898277Y-13199698D02*
X5879229Y-13209222D01*
X5879229Y-13209222D02*
X5869706Y-13218746D01*
X5869706Y-13218746D02*
X5860182Y-13237793D01*
X5860182Y-13237793D02*
X5860182Y-13275888D01*
X5860182Y-13275888D02*
X5869706Y-13294936D01*
X5869706Y-13294936D02*
X5879229Y-13304460D01*
X5879229Y-13304460D02*
X5898277Y-13313984D01*
X5898277Y-13313984D02*
X5936372Y-13313984D01*
X5936372Y-13313984D02*
X5955420Y-13304460D01*
X5955420Y-13304460D02*
X5964944Y-13294936D01*
X5964944Y-13294936D02*
X5974467Y-13275888D01*
X5974467Y-13275888D02*
X5974467Y-13237793D01*
X5974467Y-13237793D02*
X5964944Y-13218746D01*
X5964944Y-13218746D02*
X5955420Y-13209222D01*
X5955420Y-13209222D02*
X5936372Y-13199698D01*
X6069706Y-13313984D02*
X6107801Y-13313984D01*
X6107801Y-13313984D02*
X6126848Y-13304460D01*
X6126848Y-13304460D02*
X6136372Y-13294936D01*
X6136372Y-13294936D02*
X6155420Y-13266365D01*
X6155420Y-13266365D02*
X6164944Y-13228269D01*
X6164944Y-13228269D02*
X6164944Y-13152079D01*
X6164944Y-13152079D02*
X6155420Y-13133031D01*
X6155420Y-13133031D02*
X6145896Y-13123508D01*
X6145896Y-13123508D02*
X6126848Y-13113984D01*
X6126848Y-13113984D02*
X6088753Y-13113984D01*
X6088753Y-13113984D02*
X6069706Y-13123508D01*
X6069706Y-13123508D02*
X6060182Y-13133031D01*
X6060182Y-13133031D02*
X6050658Y-13152079D01*
X6050658Y-13152079D02*
X6050658Y-13199698D01*
X6050658Y-13199698D02*
X6060182Y-13218746D01*
X6060182Y-13218746D02*
X6069706Y-13228269D01*
X6069706Y-13228269D02*
X6088753Y-13237793D01*
X6088753Y-13237793D02*
X6126848Y-13237793D01*
X6126848Y-13237793D02*
X6145896Y-13228269D01*
X6145896Y-13228269D02*
X6155420Y-13218746D01*
X6155420Y-13218746D02*
X6164944Y-13199698D01*
X6241134Y-13113984D02*
X6241134Y-13152079D01*
X6317325Y-13113984D02*
X6317325Y-13152079D01*
X6612563Y-13390174D02*
X6603039Y-13380650D01*
X6603039Y-13380650D02*
X6583991Y-13352079D01*
X6583991Y-13352079D02*
X6574468Y-13333031D01*
X6574468Y-13333031D02*
X6564944Y-13304460D01*
X6564944Y-13304460D02*
X6555420Y-13256841D01*
X6555420Y-13256841D02*
X6555420Y-13218746D01*
X6555420Y-13218746D02*
X6564944Y-13171127D01*
X6564944Y-13171127D02*
X6574468Y-13142555D01*
X6574468Y-13142555D02*
X6583991Y-13123508D01*
X6583991Y-13123508D02*
X6603039Y-13094936D01*
X6603039Y-13094936D02*
X6612563Y-13085412D01*
X6793515Y-13313984D02*
X6679229Y-13313984D01*
X6736372Y-13313984D02*
X6736372Y-13113984D01*
X6736372Y-13113984D02*
X6717325Y-13142555D01*
X6717325Y-13142555D02*
X6698277Y-13161603D01*
X6698277Y-13161603D02*
X6679229Y-13171127D01*
X6860182Y-13113984D02*
X6983991Y-13113984D01*
X6983991Y-13113984D02*
X6917325Y-13190174D01*
X6917325Y-13190174D02*
X6945896Y-13190174D01*
X6945896Y-13190174D02*
X6964944Y-13199698D01*
X6964944Y-13199698D02*
X6974468Y-13209222D01*
X6974468Y-13209222D02*
X6983991Y-13228269D01*
X6983991Y-13228269D02*
X6983991Y-13275888D01*
X6983991Y-13275888D02*
X6974468Y-13294936D01*
X6974468Y-13294936D02*
X6964944Y-13304460D01*
X6964944Y-13304460D02*
X6945896Y-13313984D01*
X6945896Y-13313984D02*
X6888753Y-13313984D01*
X6888753Y-13313984D02*
X6869706Y-13304460D01*
X6869706Y-13304460D02*
X6860182Y-13294936D01*
X7155420Y-13180650D02*
X7155420Y-13313984D01*
X7107801Y-13104460D02*
X7060182Y-13247317D01*
X7060182Y-13247317D02*
X7183991Y-13247317D01*
X7412563Y-13313984D02*
X7412563Y-13113984D01*
X7498277Y-13313984D02*
X7498277Y-13209222D01*
X7498277Y-13209222D02*
X7488753Y-13190174D01*
X7488753Y-13190174D02*
X7469706Y-13180650D01*
X7469706Y-13180650D02*
X7441134Y-13180650D01*
X7441134Y-13180650D02*
X7422087Y-13190174D01*
X7422087Y-13190174D02*
X7412563Y-13199698D01*
X7622087Y-13313984D02*
X7603039Y-13304460D01*
X7603039Y-13304460D02*
X7593515Y-13294936D01*
X7593515Y-13294936D02*
X7583991Y-13275888D01*
X7583991Y-13275888D02*
X7583991Y-13218746D01*
X7583991Y-13218746D02*
X7593515Y-13199698D01*
X7593515Y-13199698D02*
X7603039Y-13190174D01*
X7603039Y-13190174D02*
X7622087Y-13180650D01*
X7622087Y-13180650D02*
X7650658Y-13180650D01*
X7650658Y-13180650D02*
X7669706Y-13190174D01*
X7669706Y-13190174D02*
X7679230Y-13199698D01*
X7679230Y-13199698D02*
X7688753Y-13218746D01*
X7688753Y-13218746D02*
X7688753Y-13275888D01*
X7688753Y-13275888D02*
X7679230Y-13294936D01*
X7679230Y-13294936D02*
X7669706Y-13304460D01*
X7669706Y-13304460D02*
X7650658Y-13313984D01*
X7650658Y-13313984D02*
X7622087Y-13313984D01*
X7803039Y-13313984D02*
X7783991Y-13304460D01*
X7783991Y-13304460D02*
X7774468Y-13285412D01*
X7774468Y-13285412D02*
X7774468Y-13113984D01*
X7955420Y-13304460D02*
X7936372Y-13313984D01*
X7936372Y-13313984D02*
X7898277Y-13313984D01*
X7898277Y-13313984D02*
X7879230Y-13304460D01*
X7879230Y-13304460D02*
X7869706Y-13285412D01*
X7869706Y-13285412D02*
X7869706Y-13209222D01*
X7869706Y-13209222D02*
X7879230Y-13190174D01*
X7879230Y-13190174D02*
X7898277Y-13180650D01*
X7898277Y-13180650D02*
X7936372Y-13180650D01*
X7936372Y-13180650D02*
X7955420Y-13190174D01*
X7955420Y-13190174D02*
X7964944Y-13209222D01*
X7964944Y-13209222D02*
X7964944Y-13228269D01*
X7964944Y-13228269D02*
X7869706Y-13247317D01*
X8041134Y-13304460D02*
X8060182Y-13313984D01*
X8060182Y-13313984D02*
X8098277Y-13313984D01*
X8098277Y-13313984D02*
X8117325Y-13304460D01*
X8117325Y-13304460D02*
X8126849Y-13285412D01*
X8126849Y-13285412D02*
X8126849Y-13275888D01*
X8126849Y-13275888D02*
X8117325Y-13256841D01*
X8117325Y-13256841D02*
X8098277Y-13247317D01*
X8098277Y-13247317D02*
X8069706Y-13247317D01*
X8069706Y-13247317D02*
X8050658Y-13237793D01*
X8050658Y-13237793D02*
X8041134Y-13218746D01*
X8041134Y-13218746D02*
X8041134Y-13209222D01*
X8041134Y-13209222D02*
X8050658Y-13190174D01*
X8050658Y-13190174D02*
X8069706Y-13180650D01*
X8069706Y-13180650D02*
X8098277Y-13180650D01*
X8098277Y-13180650D02*
X8117325Y-13190174D01*
X8193515Y-13390174D02*
X8203039Y-13380650D01*
X8203039Y-13380650D02*
X8222087Y-13352079D01*
X8222087Y-13352079D02*
X8231611Y-13333031D01*
X8231611Y-13333031D02*
X8241134Y-13304460D01*
X8241134Y-13304460D02*
X8250658Y-13256841D01*
X8250658Y-13256841D02*
X8250658Y-13218746D01*
X8250658Y-13218746D02*
X8241134Y-13171127D01*
X8241134Y-13171127D02*
X8231611Y-13142555D01*
X8231611Y-13142555D02*
X8222087Y-13123508D01*
X8222087Y-13123508D02*
X8203039Y-13094936D01*
X8203039Y-13094936D02*
X8193515Y-13085412D01*
X8555420Y-13390174D02*
X8545896Y-13380650D01*
X8545896Y-13380650D02*
X8526849Y-13352079D01*
X8526849Y-13352079D02*
X8517325Y-13333031D01*
X8517325Y-13333031D02*
X8507801Y-13304460D01*
X8507801Y-13304460D02*
X8498277Y-13256841D01*
X8498277Y-13256841D02*
X8498277Y-13218746D01*
X8498277Y-13218746D02*
X8507801Y-13171127D01*
X8507801Y-13171127D02*
X8517325Y-13142555D01*
X8517325Y-13142555D02*
X8526849Y-13123508D01*
X8526849Y-13123508D02*
X8545896Y-13094936D01*
X8545896Y-13094936D02*
X8555420Y-13085412D01*
X8631611Y-13180650D02*
X8631611Y-13313984D01*
X8631611Y-13199698D02*
X8641134Y-13190174D01*
X8641134Y-13190174D02*
X8660182Y-13180650D01*
X8660182Y-13180650D02*
X8688754Y-13180650D01*
X8688754Y-13180650D02*
X8707801Y-13190174D01*
X8707801Y-13190174D02*
X8717325Y-13209222D01*
X8717325Y-13209222D02*
X8717325Y-13313984D01*
X8841134Y-13313984D02*
X8822087Y-13304460D01*
X8822087Y-13304460D02*
X8812563Y-13294936D01*
X8812563Y-13294936D02*
X8803039Y-13275888D01*
X8803039Y-13275888D02*
X8803039Y-13218746D01*
X8803039Y-13218746D02*
X8812563Y-13199698D01*
X8812563Y-13199698D02*
X8822087Y-13190174D01*
X8822087Y-13190174D02*
X8841134Y-13180650D01*
X8841134Y-13180650D02*
X8869706Y-13180650D01*
X8869706Y-13180650D02*
X8888754Y-13190174D01*
X8888754Y-13190174D02*
X8898277Y-13199698D01*
X8898277Y-13199698D02*
X8907801Y-13218746D01*
X8907801Y-13218746D02*
X8907801Y-13275888D01*
X8907801Y-13275888D02*
X8898277Y-13294936D01*
X8898277Y-13294936D02*
X8888754Y-13304460D01*
X8888754Y-13304460D02*
X8869706Y-13313984D01*
X8869706Y-13313984D02*
X8841134Y-13313984D01*
X8964944Y-13180650D02*
X9041134Y-13180650D01*
X8993515Y-13113984D02*
X8993515Y-13285412D01*
X8993515Y-13285412D02*
X9003039Y-13304460D01*
X9003039Y-13304460D02*
X9022087Y-13313984D01*
X9022087Y-13313984D02*
X9041134Y-13313984D01*
X9260182Y-13180650D02*
X9260182Y-13380650D01*
X9260182Y-13190174D02*
X9279230Y-13180650D01*
X9279230Y-13180650D02*
X9317325Y-13180650D01*
X9317325Y-13180650D02*
X9336373Y-13190174D01*
X9336373Y-13190174D02*
X9345896Y-13199698D01*
X9345896Y-13199698D02*
X9355420Y-13218746D01*
X9355420Y-13218746D02*
X9355420Y-13275888D01*
X9355420Y-13275888D02*
X9345896Y-13294936D01*
X9345896Y-13294936D02*
X9336373Y-13304460D01*
X9336373Y-13304460D02*
X9317325Y-13313984D01*
X9317325Y-13313984D02*
X9279230Y-13313984D01*
X9279230Y-13313984D02*
X9260182Y-13304460D01*
X9469706Y-13313984D02*
X9450658Y-13304460D01*
X9450658Y-13304460D02*
X9441135Y-13285412D01*
X9441135Y-13285412D02*
X9441135Y-13113984D01*
X9631611Y-13313984D02*
X9631611Y-13209222D01*
X9631611Y-13209222D02*
X9622087Y-13190174D01*
X9622087Y-13190174D02*
X9603039Y-13180650D01*
X9603039Y-13180650D02*
X9564944Y-13180650D01*
X9564944Y-13180650D02*
X9545896Y-13190174D01*
X9631611Y-13304460D02*
X9612563Y-13313984D01*
X9612563Y-13313984D02*
X9564944Y-13313984D01*
X9564944Y-13313984D02*
X9545896Y-13304460D01*
X9545896Y-13304460D02*
X9536373Y-13285412D01*
X9536373Y-13285412D02*
X9536373Y-13266365D01*
X9536373Y-13266365D02*
X9545896Y-13247317D01*
X9545896Y-13247317D02*
X9564944Y-13237793D01*
X9564944Y-13237793D02*
X9612563Y-13237793D01*
X9612563Y-13237793D02*
X9631611Y-13228269D01*
X9698277Y-13180650D02*
X9774468Y-13180650D01*
X9726849Y-13113984D02*
X9726849Y-13285412D01*
X9726849Y-13285412D02*
X9736373Y-13304460D01*
X9736373Y-13304460D02*
X9755420Y-13313984D01*
X9755420Y-13313984D02*
X9774468Y-13313984D01*
X9917325Y-13304460D02*
X9898277Y-13313984D01*
X9898277Y-13313984D02*
X9860182Y-13313984D01*
X9860182Y-13313984D02*
X9841135Y-13304460D01*
X9841135Y-13304460D02*
X9831611Y-13285412D01*
X9831611Y-13285412D02*
X9831611Y-13209222D01*
X9831611Y-13209222D02*
X9841135Y-13190174D01*
X9841135Y-13190174D02*
X9860182Y-13180650D01*
X9860182Y-13180650D02*
X9898277Y-13180650D01*
X9898277Y-13180650D02*
X9917325Y-13190174D01*
X9917325Y-13190174D02*
X9926849Y-13209222D01*
X9926849Y-13209222D02*
X9926849Y-13228269D01*
X9926849Y-13228269D02*
X9831611Y-13247317D01*
X10098277Y-13313984D02*
X10098277Y-13113984D01*
X10098277Y-13304460D02*
X10079230Y-13313984D01*
X10079230Y-13313984D02*
X10041135Y-13313984D01*
X10041135Y-13313984D02*
X10022087Y-13304460D01*
X10022087Y-13304460D02*
X10012563Y-13294936D01*
X10012563Y-13294936D02*
X10003039Y-13275888D01*
X10003039Y-13275888D02*
X10003039Y-13218746D01*
X10003039Y-13218746D02*
X10012563Y-13199698D01*
X10012563Y-13199698D02*
X10022087Y-13190174D01*
X10022087Y-13190174D02*
X10041135Y-13180650D01*
X10041135Y-13180650D02*
X10079230Y-13180650D01*
X10079230Y-13180650D02*
X10098277Y-13190174D01*
X10174468Y-13390174D02*
X10183992Y-13380650D01*
X10183992Y-13380650D02*
X10203039Y-13352079D01*
X10203039Y-13352079D02*
X10212563Y-13333031D01*
X10212563Y-13333031D02*
X10222087Y-13304460D01*
X10222087Y-13304460D02*
X10231611Y-13256841D01*
X10231611Y-13256841D02*
X10231611Y-13218746D01*
X10231611Y-13218746D02*
X10222087Y-13171127D01*
X10222087Y-13171127D02*
X10212563Y-13142555D01*
X10212563Y-13142555D02*
X10203039Y-13123508D01*
X10203039Y-13123508D02*
X10183992Y-13094936D01*
X10183992Y-13094936D02*
X10174468Y-13085412D01*
X3037500Y-13517500D02*
G75*
G03*
X3037500Y-13517500I-100000J0D01*
G01*
X3279229Y-13408984D02*
X3403039Y-13408984D01*
X3403039Y-13408984D02*
X3336372Y-13485174D01*
X3336372Y-13485174D02*
X3364943Y-13485174D01*
X3364943Y-13485174D02*
X3383991Y-13494698D01*
X3383991Y-13494698D02*
X3393515Y-13504222D01*
X3393515Y-13504222D02*
X3403039Y-13523269D01*
X3403039Y-13523269D02*
X3403039Y-13570888D01*
X3403039Y-13570888D02*
X3393515Y-13589936D01*
X3393515Y-13589936D02*
X3383991Y-13599460D01*
X3383991Y-13599460D02*
X3364943Y-13608984D01*
X3364943Y-13608984D02*
X3307801Y-13608984D01*
X3307801Y-13608984D02*
X3288753Y-13599460D01*
X3288753Y-13599460D02*
X3279229Y-13589936D01*
X3488753Y-13589936D02*
X3498277Y-13599460D01*
X3498277Y-13599460D02*
X3488753Y-13608984D01*
X3488753Y-13608984D02*
X3479229Y-13599460D01*
X3479229Y-13599460D02*
X3488753Y-13589936D01*
X3488753Y-13589936D02*
X3488753Y-13608984D01*
X3622086Y-13408984D02*
X3641134Y-13408984D01*
X3641134Y-13408984D02*
X3660182Y-13418508D01*
X3660182Y-13418508D02*
X3669705Y-13428031D01*
X3669705Y-13428031D02*
X3679229Y-13447079D01*
X3679229Y-13447079D02*
X3688753Y-13485174D01*
X3688753Y-13485174D02*
X3688753Y-13532793D01*
X3688753Y-13532793D02*
X3679229Y-13570888D01*
X3679229Y-13570888D02*
X3669705Y-13589936D01*
X3669705Y-13589936D02*
X3660182Y-13599460D01*
X3660182Y-13599460D02*
X3641134Y-13608984D01*
X3641134Y-13608984D02*
X3622086Y-13608984D01*
X3622086Y-13608984D02*
X3603039Y-13599460D01*
X3603039Y-13599460D02*
X3593515Y-13589936D01*
X3593515Y-13589936D02*
X3583991Y-13570888D01*
X3583991Y-13570888D02*
X3574467Y-13532793D01*
X3574467Y-13532793D02*
X3574467Y-13485174D01*
X3574467Y-13485174D02*
X3583991Y-13447079D01*
X3583991Y-13447079D02*
X3593515Y-13428031D01*
X3593515Y-13428031D02*
X3603039Y-13418508D01*
X3603039Y-13418508D02*
X3622086Y-13408984D01*
X3860182Y-13475650D02*
X3860182Y-13608984D01*
X3812562Y-13399460D02*
X3764943Y-13542317D01*
X3764943Y-13542317D02*
X3888753Y-13542317D01*
X3993515Y-13494698D02*
X3974467Y-13485174D01*
X3974467Y-13485174D02*
X3964943Y-13475650D01*
X3964943Y-13475650D02*
X3955420Y-13456603D01*
X3955420Y-13456603D02*
X3955420Y-13447079D01*
X3955420Y-13447079D02*
X3964943Y-13428031D01*
X3964943Y-13428031D02*
X3974467Y-13418508D01*
X3974467Y-13418508D02*
X3993515Y-13408984D01*
X3993515Y-13408984D02*
X4031610Y-13408984D01*
X4031610Y-13408984D02*
X4050658Y-13418508D01*
X4050658Y-13418508D02*
X4060182Y-13428031D01*
X4060182Y-13428031D02*
X4069705Y-13447079D01*
X4069705Y-13447079D02*
X4069705Y-13456603D01*
X4069705Y-13456603D02*
X4060182Y-13475650D01*
X4060182Y-13475650D02*
X4050658Y-13485174D01*
X4050658Y-13485174D02*
X4031610Y-13494698D01*
X4031610Y-13494698D02*
X3993515Y-13494698D01*
X3993515Y-13494698D02*
X3974467Y-13504222D01*
X3974467Y-13504222D02*
X3964943Y-13513746D01*
X3964943Y-13513746D02*
X3955420Y-13532793D01*
X3955420Y-13532793D02*
X3955420Y-13570888D01*
X3955420Y-13570888D02*
X3964943Y-13589936D01*
X3964943Y-13589936D02*
X3974467Y-13599460D01*
X3974467Y-13599460D02*
X3993515Y-13608984D01*
X3993515Y-13608984D02*
X4031610Y-13608984D01*
X4031610Y-13608984D02*
X4050658Y-13599460D01*
X4050658Y-13599460D02*
X4060182Y-13589936D01*
X4060182Y-13589936D02*
X4069705Y-13570888D01*
X4069705Y-13570888D02*
X4069705Y-13532793D01*
X4069705Y-13532793D02*
X4060182Y-13513746D01*
X4060182Y-13513746D02*
X4050658Y-13504222D01*
X4050658Y-13504222D02*
X4031610Y-13494698D01*
X4155420Y-13608984D02*
X4155420Y-13475650D01*
X4155420Y-13494698D02*
X4164943Y-13485174D01*
X4164943Y-13485174D02*
X4183991Y-13475650D01*
X4183991Y-13475650D02*
X4212563Y-13475650D01*
X4212563Y-13475650D02*
X4231610Y-13485174D01*
X4231610Y-13485174D02*
X4241134Y-13504222D01*
X4241134Y-13504222D02*
X4241134Y-13608984D01*
X4241134Y-13504222D02*
X4250658Y-13485174D01*
X4250658Y-13485174D02*
X4269705Y-13475650D01*
X4269705Y-13475650D02*
X4298277Y-13475650D01*
X4298277Y-13475650D02*
X4317325Y-13485174D01*
X4317325Y-13485174D02*
X4326848Y-13504222D01*
X4326848Y-13504222D02*
X4326848Y-13608984D01*
X4422086Y-13608984D02*
X4422086Y-13475650D01*
X4422086Y-13494698D02*
X4431610Y-13485174D01*
X4431610Y-13485174D02*
X4450658Y-13475650D01*
X4450658Y-13475650D02*
X4479229Y-13475650D01*
X4479229Y-13475650D02*
X4498277Y-13485174D01*
X4498277Y-13485174D02*
X4507801Y-13504222D01*
X4507801Y-13504222D02*
X4507801Y-13608984D01*
X4507801Y-13504222D02*
X4517325Y-13485174D01*
X4517325Y-13485174D02*
X4536372Y-13475650D01*
X4536372Y-13475650D02*
X4564944Y-13475650D01*
X4564944Y-13475650D02*
X4583991Y-13485174D01*
X4583991Y-13485174D02*
X4593515Y-13504222D01*
X4593515Y-13504222D02*
X4593515Y-13608984D01*
X4983991Y-13399460D02*
X4812563Y-13656603D01*
X5241134Y-13408984D02*
X5260182Y-13408984D01*
X5260182Y-13408984D02*
X5279229Y-13418508D01*
X5279229Y-13418508D02*
X5288753Y-13428031D01*
X5288753Y-13428031D02*
X5298277Y-13447079D01*
X5298277Y-13447079D02*
X5307801Y-13485174D01*
X5307801Y-13485174D02*
X5307801Y-13532793D01*
X5307801Y-13532793D02*
X5298277Y-13570888D01*
X5298277Y-13570888D02*
X5288753Y-13589936D01*
X5288753Y-13589936D02*
X5279229Y-13599460D01*
X5279229Y-13599460D02*
X5260182Y-13608984D01*
X5260182Y-13608984D02*
X5241134Y-13608984D01*
X5241134Y-13608984D02*
X5222087Y-13599460D01*
X5222087Y-13599460D02*
X5212563Y-13589936D01*
X5212563Y-13589936D02*
X5203039Y-13570888D01*
X5203039Y-13570888D02*
X5193515Y-13532793D01*
X5193515Y-13532793D02*
X5193515Y-13485174D01*
X5193515Y-13485174D02*
X5203039Y-13447079D01*
X5203039Y-13447079D02*
X5212563Y-13428031D01*
X5212563Y-13428031D02*
X5222087Y-13418508D01*
X5222087Y-13418508D02*
X5241134Y-13408984D01*
X5393515Y-13589936D02*
X5403039Y-13599460D01*
X5403039Y-13599460D02*
X5393515Y-13608984D01*
X5393515Y-13608984D02*
X5383991Y-13599460D01*
X5383991Y-13599460D02*
X5393515Y-13589936D01*
X5393515Y-13589936D02*
X5393515Y-13608984D01*
X5593515Y-13608984D02*
X5479229Y-13608984D01*
X5536372Y-13608984D02*
X5536372Y-13408984D01*
X5536372Y-13408984D02*
X5517325Y-13437555D01*
X5517325Y-13437555D02*
X5498277Y-13456603D01*
X5498277Y-13456603D02*
X5479229Y-13466127D01*
X5669706Y-13428031D02*
X5679229Y-13418508D01*
X5679229Y-13418508D02*
X5698277Y-13408984D01*
X5698277Y-13408984D02*
X5745896Y-13408984D01*
X5745896Y-13408984D02*
X5764944Y-13418508D01*
X5764944Y-13418508D02*
X5774467Y-13428031D01*
X5774467Y-13428031D02*
X5783991Y-13447079D01*
X5783991Y-13447079D02*
X5783991Y-13466127D01*
X5783991Y-13466127D02*
X5774467Y-13494698D01*
X5774467Y-13494698D02*
X5660182Y-13608984D01*
X5660182Y-13608984D02*
X5783991Y-13608984D01*
X5907801Y-13408984D02*
X5926848Y-13408984D01*
X5926848Y-13408984D02*
X5945896Y-13418508D01*
X5945896Y-13418508D02*
X5955420Y-13428031D01*
X5955420Y-13428031D02*
X5964944Y-13447079D01*
X5964944Y-13447079D02*
X5974467Y-13485174D01*
X5974467Y-13485174D02*
X5974467Y-13532793D01*
X5974467Y-13532793D02*
X5964944Y-13570888D01*
X5964944Y-13570888D02*
X5955420Y-13589936D01*
X5955420Y-13589936D02*
X5945896Y-13599460D01*
X5945896Y-13599460D02*
X5926848Y-13608984D01*
X5926848Y-13608984D02*
X5907801Y-13608984D01*
X5907801Y-13608984D02*
X5888753Y-13599460D01*
X5888753Y-13599460D02*
X5879229Y-13589936D01*
X5879229Y-13589936D02*
X5869706Y-13570888D01*
X5869706Y-13570888D02*
X5860182Y-13532793D01*
X5860182Y-13532793D02*
X5860182Y-13485174D01*
X5860182Y-13485174D02*
X5869706Y-13447079D01*
X5869706Y-13447079D02*
X5879229Y-13428031D01*
X5879229Y-13428031D02*
X5888753Y-13418508D01*
X5888753Y-13418508D02*
X5907801Y-13408984D01*
X6098277Y-13408984D02*
X6117325Y-13408984D01*
X6117325Y-13408984D02*
X6136372Y-13418508D01*
X6136372Y-13418508D02*
X6145896Y-13428031D01*
X6145896Y-13428031D02*
X6155420Y-13447079D01*
X6155420Y-13447079D02*
X6164944Y-13485174D01*
X6164944Y-13485174D02*
X6164944Y-13532793D01*
X6164944Y-13532793D02*
X6155420Y-13570888D01*
X6155420Y-13570888D02*
X6145896Y-13589936D01*
X6145896Y-13589936D02*
X6136372Y-13599460D01*
X6136372Y-13599460D02*
X6117325Y-13608984D01*
X6117325Y-13608984D02*
X6098277Y-13608984D01*
X6098277Y-13608984D02*
X6079229Y-13599460D01*
X6079229Y-13599460D02*
X6069706Y-13589936D01*
X6069706Y-13589936D02*
X6060182Y-13570888D01*
X6060182Y-13570888D02*
X6050658Y-13532793D01*
X6050658Y-13532793D02*
X6050658Y-13485174D01*
X6050658Y-13485174D02*
X6060182Y-13447079D01*
X6060182Y-13447079D02*
X6069706Y-13428031D01*
X6069706Y-13428031D02*
X6079229Y-13418508D01*
X6079229Y-13418508D02*
X6098277Y-13408984D01*
X6241134Y-13408984D02*
X6241134Y-13447079D01*
X6317325Y-13408984D02*
X6317325Y-13447079D01*
X6612563Y-13685174D02*
X6603039Y-13675650D01*
X6603039Y-13675650D02*
X6583991Y-13647079D01*
X6583991Y-13647079D02*
X6574468Y-13628031D01*
X6574468Y-13628031D02*
X6564944Y-13599460D01*
X6564944Y-13599460D02*
X6555420Y-13551841D01*
X6555420Y-13551841D02*
X6555420Y-13513746D01*
X6555420Y-13513746D02*
X6564944Y-13466127D01*
X6564944Y-13466127D02*
X6574468Y-13437555D01*
X6574468Y-13437555D02*
X6583991Y-13418508D01*
X6583991Y-13418508D02*
X6603039Y-13389936D01*
X6603039Y-13389936D02*
X6612563Y-13380412D01*
X6793515Y-13608984D02*
X6679229Y-13608984D01*
X6736372Y-13608984D02*
X6736372Y-13408984D01*
X6736372Y-13408984D02*
X6717325Y-13437555D01*
X6717325Y-13437555D02*
X6698277Y-13456603D01*
X6698277Y-13456603D02*
X6679229Y-13466127D01*
X6917325Y-13408984D02*
X6936372Y-13408984D01*
X6936372Y-13408984D02*
X6955420Y-13418508D01*
X6955420Y-13418508D02*
X6964944Y-13428031D01*
X6964944Y-13428031D02*
X6974468Y-13447079D01*
X6974468Y-13447079D02*
X6983991Y-13485174D01*
X6983991Y-13485174D02*
X6983991Y-13532793D01*
X6983991Y-13532793D02*
X6974468Y-13570888D01*
X6974468Y-13570888D02*
X6964944Y-13589936D01*
X6964944Y-13589936D02*
X6955420Y-13599460D01*
X6955420Y-13599460D02*
X6936372Y-13608984D01*
X6936372Y-13608984D02*
X6917325Y-13608984D01*
X6917325Y-13608984D02*
X6898277Y-13599460D01*
X6898277Y-13599460D02*
X6888753Y-13589936D01*
X6888753Y-13589936D02*
X6879229Y-13570888D01*
X6879229Y-13570888D02*
X6869706Y-13532793D01*
X6869706Y-13532793D02*
X6869706Y-13485174D01*
X6869706Y-13485174D02*
X6879229Y-13447079D01*
X6879229Y-13447079D02*
X6888753Y-13428031D01*
X6888753Y-13428031D02*
X6898277Y-13418508D01*
X6898277Y-13418508D02*
X6917325Y-13408984D01*
X7222087Y-13608984D02*
X7222087Y-13408984D01*
X7307801Y-13608984D02*
X7307801Y-13504222D01*
X7307801Y-13504222D02*
X7298277Y-13485174D01*
X7298277Y-13485174D02*
X7279230Y-13475650D01*
X7279230Y-13475650D02*
X7250658Y-13475650D01*
X7250658Y-13475650D02*
X7231610Y-13485174D01*
X7231610Y-13485174D02*
X7222087Y-13494698D01*
X7431610Y-13608984D02*
X7412563Y-13599460D01*
X7412563Y-13599460D02*
X7403039Y-13589936D01*
X7403039Y-13589936D02*
X7393515Y-13570888D01*
X7393515Y-13570888D02*
X7393515Y-13513746D01*
X7393515Y-13513746D02*
X7403039Y-13494698D01*
X7403039Y-13494698D02*
X7412563Y-13485174D01*
X7412563Y-13485174D02*
X7431610Y-13475650D01*
X7431610Y-13475650D02*
X7460182Y-13475650D01*
X7460182Y-13475650D02*
X7479230Y-13485174D01*
X7479230Y-13485174D02*
X7488753Y-13494698D01*
X7488753Y-13494698D02*
X7498277Y-13513746D01*
X7498277Y-13513746D02*
X7498277Y-13570888D01*
X7498277Y-13570888D02*
X7488753Y-13589936D01*
X7488753Y-13589936D02*
X7479230Y-13599460D01*
X7479230Y-13599460D02*
X7460182Y-13608984D01*
X7460182Y-13608984D02*
X7431610Y-13608984D01*
X7612563Y-13608984D02*
X7593515Y-13599460D01*
X7593515Y-13599460D02*
X7583991Y-13580412D01*
X7583991Y-13580412D02*
X7583991Y-13408984D01*
X7764944Y-13599460D02*
X7745896Y-13608984D01*
X7745896Y-13608984D02*
X7707801Y-13608984D01*
X7707801Y-13608984D02*
X7688753Y-13599460D01*
X7688753Y-13599460D02*
X7679230Y-13580412D01*
X7679230Y-13580412D02*
X7679230Y-13504222D01*
X7679230Y-13504222D02*
X7688753Y-13485174D01*
X7688753Y-13485174D02*
X7707801Y-13475650D01*
X7707801Y-13475650D02*
X7745896Y-13475650D01*
X7745896Y-13475650D02*
X7764944Y-13485174D01*
X7764944Y-13485174D02*
X7774468Y-13504222D01*
X7774468Y-13504222D02*
X7774468Y-13523269D01*
X7774468Y-13523269D02*
X7679230Y-13542317D01*
X7850658Y-13599460D02*
X7869706Y-13608984D01*
X7869706Y-13608984D02*
X7907801Y-13608984D01*
X7907801Y-13608984D02*
X7926849Y-13599460D01*
X7926849Y-13599460D02*
X7936372Y-13580412D01*
X7936372Y-13580412D02*
X7936372Y-13570888D01*
X7936372Y-13570888D02*
X7926849Y-13551841D01*
X7926849Y-13551841D02*
X7907801Y-13542317D01*
X7907801Y-13542317D02*
X7879230Y-13542317D01*
X7879230Y-13542317D02*
X7860182Y-13532793D01*
X7860182Y-13532793D02*
X7850658Y-13513746D01*
X7850658Y-13513746D02*
X7850658Y-13504222D01*
X7850658Y-13504222D02*
X7860182Y-13485174D01*
X7860182Y-13485174D02*
X7879230Y-13475650D01*
X7879230Y-13475650D02*
X7907801Y-13475650D01*
X7907801Y-13475650D02*
X7926849Y-13485174D01*
X8003039Y-13685174D02*
X8012563Y-13675650D01*
X8012563Y-13675650D02*
X8031611Y-13647079D01*
X8031611Y-13647079D02*
X8041134Y-13628031D01*
X8041134Y-13628031D02*
X8050658Y-13599460D01*
X8050658Y-13599460D02*
X8060182Y-13551841D01*
X8060182Y-13551841D02*
X8060182Y-13513746D01*
X8060182Y-13513746D02*
X8050658Y-13466127D01*
X8050658Y-13466127D02*
X8041134Y-13437555D01*
X8041134Y-13437555D02*
X8031611Y-13418508D01*
X8031611Y-13418508D02*
X8012563Y-13389936D01*
X8012563Y-13389936D02*
X8003039Y-13380412D01*
X8364944Y-13685174D02*
X8355420Y-13675650D01*
X8355420Y-13675650D02*
X8336372Y-13647079D01*
X8336372Y-13647079D02*
X8326849Y-13628031D01*
X8326849Y-13628031D02*
X8317325Y-13599460D01*
X8317325Y-13599460D02*
X8307801Y-13551841D01*
X8307801Y-13551841D02*
X8307801Y-13513746D01*
X8307801Y-13513746D02*
X8317325Y-13466127D01*
X8317325Y-13466127D02*
X8326849Y-13437555D01*
X8326849Y-13437555D02*
X8336372Y-13418508D01*
X8336372Y-13418508D02*
X8355420Y-13389936D01*
X8355420Y-13389936D02*
X8364944Y-13380412D01*
X8441134Y-13475650D02*
X8441134Y-13608984D01*
X8441134Y-13494698D02*
X8450658Y-13485174D01*
X8450658Y-13485174D02*
X8469706Y-13475650D01*
X8469706Y-13475650D02*
X8498277Y-13475650D01*
X8498277Y-13475650D02*
X8517325Y-13485174D01*
X8517325Y-13485174D02*
X8526849Y-13504222D01*
X8526849Y-13504222D02*
X8526849Y-13608984D01*
X8650658Y-13608984D02*
X8631611Y-13599460D01*
X8631611Y-13599460D02*
X8622087Y-13589936D01*
X8622087Y-13589936D02*
X8612563Y-13570888D01*
X8612563Y-13570888D02*
X8612563Y-13513746D01*
X8612563Y-13513746D02*
X8622087Y-13494698D01*
X8622087Y-13494698D02*
X8631611Y-13485174D01*
X8631611Y-13485174D02*
X8650658Y-13475650D01*
X8650658Y-13475650D02*
X8679230Y-13475650D01*
X8679230Y-13475650D02*
X8698277Y-13485174D01*
X8698277Y-13485174D02*
X8707801Y-13494698D01*
X8707801Y-13494698D02*
X8717325Y-13513746D01*
X8717325Y-13513746D02*
X8717325Y-13570888D01*
X8717325Y-13570888D02*
X8707801Y-13589936D01*
X8707801Y-13589936D02*
X8698277Y-13599460D01*
X8698277Y-13599460D02*
X8679230Y-13608984D01*
X8679230Y-13608984D02*
X8650658Y-13608984D01*
X8774468Y-13475650D02*
X8850658Y-13475650D01*
X8803039Y-13408984D02*
X8803039Y-13580412D01*
X8803039Y-13580412D02*
X8812563Y-13599460D01*
X8812563Y-13599460D02*
X8831611Y-13608984D01*
X8831611Y-13608984D02*
X8850658Y-13608984D01*
X9069706Y-13475650D02*
X9069706Y-13675650D01*
X9069706Y-13485174D02*
X9088754Y-13475650D01*
X9088754Y-13475650D02*
X9126849Y-13475650D01*
X9126849Y-13475650D02*
X9145896Y-13485174D01*
X9145896Y-13485174D02*
X9155420Y-13494698D01*
X9155420Y-13494698D02*
X9164944Y-13513746D01*
X9164944Y-13513746D02*
X9164944Y-13570888D01*
X9164944Y-13570888D02*
X9155420Y-13589936D01*
X9155420Y-13589936D02*
X9145896Y-13599460D01*
X9145896Y-13599460D02*
X9126849Y-13608984D01*
X9126849Y-13608984D02*
X9088754Y-13608984D01*
X9088754Y-13608984D02*
X9069706Y-13599460D01*
X9279230Y-13608984D02*
X9260182Y-13599460D01*
X9260182Y-13599460D02*
X9250658Y-13580412D01*
X9250658Y-13580412D02*
X9250658Y-13408984D01*
X9441135Y-13608984D02*
X9441135Y-13504222D01*
X9441135Y-13504222D02*
X9431611Y-13485174D01*
X9431611Y-13485174D02*
X9412563Y-13475650D01*
X9412563Y-13475650D02*
X9374468Y-13475650D01*
X9374468Y-13475650D02*
X9355420Y-13485174D01*
X9441135Y-13599460D02*
X9422087Y-13608984D01*
X9422087Y-13608984D02*
X9374468Y-13608984D01*
X9374468Y-13608984D02*
X9355420Y-13599460D01*
X9355420Y-13599460D02*
X9345896Y-13580412D01*
X9345896Y-13580412D02*
X9345896Y-13561365D01*
X9345896Y-13561365D02*
X9355420Y-13542317D01*
X9355420Y-13542317D02*
X9374468Y-13532793D01*
X9374468Y-13532793D02*
X9422087Y-13532793D01*
X9422087Y-13532793D02*
X9441135Y-13523269D01*
X9507801Y-13475650D02*
X9583992Y-13475650D01*
X9536373Y-13408984D02*
X9536373Y-13580412D01*
X9536373Y-13580412D02*
X9545896Y-13599460D01*
X9545896Y-13599460D02*
X9564944Y-13608984D01*
X9564944Y-13608984D02*
X9583992Y-13608984D01*
X9726849Y-13599460D02*
X9707801Y-13608984D01*
X9707801Y-13608984D02*
X9669706Y-13608984D01*
X9669706Y-13608984D02*
X9650658Y-13599460D01*
X9650658Y-13599460D02*
X9641135Y-13580412D01*
X9641135Y-13580412D02*
X9641135Y-13504222D01*
X9641135Y-13504222D02*
X9650658Y-13485174D01*
X9650658Y-13485174D02*
X9669706Y-13475650D01*
X9669706Y-13475650D02*
X9707801Y-13475650D01*
X9707801Y-13475650D02*
X9726849Y-13485174D01*
X9726849Y-13485174D02*
X9736373Y-13504222D01*
X9736373Y-13504222D02*
X9736373Y-13523269D01*
X9736373Y-13523269D02*
X9641135Y-13542317D01*
X9907801Y-13608984D02*
X9907801Y-13408984D01*
X9907801Y-13599460D02*
X9888754Y-13608984D01*
X9888754Y-13608984D02*
X9850658Y-13608984D01*
X9850658Y-13608984D02*
X9831611Y-13599460D01*
X9831611Y-13599460D02*
X9822087Y-13589936D01*
X9822087Y-13589936D02*
X9812563Y-13570888D01*
X9812563Y-13570888D02*
X9812563Y-13513746D01*
X9812563Y-13513746D02*
X9822087Y-13494698D01*
X9822087Y-13494698D02*
X9831611Y-13485174D01*
X9831611Y-13485174D02*
X9850658Y-13475650D01*
X9850658Y-13475650D02*
X9888754Y-13475650D01*
X9888754Y-13475650D02*
X9907801Y-13485174D01*
X9983992Y-13685174D02*
X9993516Y-13675650D01*
X9993516Y-13675650D02*
X10012563Y-13647079D01*
X10012563Y-13647079D02*
X10022087Y-13628031D01*
X10022087Y-13628031D02*
X10031611Y-13599460D01*
X10031611Y-13599460D02*
X10041135Y-13551841D01*
X10041135Y-13551841D02*
X10041135Y-13513746D01*
X10041135Y-13513746D02*
X10031611Y-13466127D01*
X10031611Y-13466127D02*
X10022087Y-13437555D01*
X10022087Y-13437555D02*
X10012563Y-13418508D01*
X10012563Y-13418508D02*
X9993516Y-13389936D01*
X9993516Y-13389936D02*
X9983992Y-13380412D01*
X2937500Y-13737500D02*
X2937500Y-13937500D01*
X2837500Y-13837500D02*
X3037500Y-13837500D01*
X3279229Y-13728984D02*
X3403039Y-13728984D01*
X3403039Y-13728984D02*
X3336372Y-13805174D01*
X3336372Y-13805174D02*
X3364943Y-13805174D01*
X3364943Y-13805174D02*
X3383991Y-13814698D01*
X3383991Y-13814698D02*
X3393515Y-13824222D01*
X3393515Y-13824222D02*
X3403039Y-13843269D01*
X3403039Y-13843269D02*
X3403039Y-13890888D01*
X3403039Y-13890888D02*
X3393515Y-13909936D01*
X3393515Y-13909936D02*
X3383991Y-13919460D01*
X3383991Y-13919460D02*
X3364943Y-13928984D01*
X3364943Y-13928984D02*
X3307801Y-13928984D01*
X3307801Y-13928984D02*
X3288753Y-13919460D01*
X3288753Y-13919460D02*
X3279229Y-13909936D01*
X3488753Y-13909936D02*
X3498277Y-13919460D01*
X3498277Y-13919460D02*
X3488753Y-13928984D01*
X3488753Y-13928984D02*
X3479229Y-13919460D01*
X3479229Y-13919460D02*
X3488753Y-13909936D01*
X3488753Y-13909936D02*
X3488753Y-13928984D01*
X3593515Y-13928984D02*
X3631610Y-13928984D01*
X3631610Y-13928984D02*
X3650658Y-13919460D01*
X3650658Y-13919460D02*
X3660182Y-13909936D01*
X3660182Y-13909936D02*
X3679229Y-13881365D01*
X3679229Y-13881365D02*
X3688753Y-13843269D01*
X3688753Y-13843269D02*
X3688753Y-13767079D01*
X3688753Y-13767079D02*
X3679229Y-13748031D01*
X3679229Y-13748031D02*
X3669705Y-13738508D01*
X3669705Y-13738508D02*
X3650658Y-13728984D01*
X3650658Y-13728984D02*
X3612562Y-13728984D01*
X3612562Y-13728984D02*
X3593515Y-13738508D01*
X3593515Y-13738508D02*
X3583991Y-13748031D01*
X3583991Y-13748031D02*
X3574467Y-13767079D01*
X3574467Y-13767079D02*
X3574467Y-13814698D01*
X3574467Y-13814698D02*
X3583991Y-13833746D01*
X3583991Y-13833746D02*
X3593515Y-13843269D01*
X3593515Y-13843269D02*
X3612562Y-13852793D01*
X3612562Y-13852793D02*
X3650658Y-13852793D01*
X3650658Y-13852793D02*
X3669705Y-13843269D01*
X3669705Y-13843269D02*
X3679229Y-13833746D01*
X3679229Y-13833746D02*
X3688753Y-13814698D01*
X3803039Y-13814698D02*
X3783991Y-13805174D01*
X3783991Y-13805174D02*
X3774467Y-13795650D01*
X3774467Y-13795650D02*
X3764943Y-13776603D01*
X3764943Y-13776603D02*
X3764943Y-13767079D01*
X3764943Y-13767079D02*
X3774467Y-13748031D01*
X3774467Y-13748031D02*
X3783991Y-13738508D01*
X3783991Y-13738508D02*
X3803039Y-13728984D01*
X3803039Y-13728984D02*
X3841134Y-13728984D01*
X3841134Y-13728984D02*
X3860182Y-13738508D01*
X3860182Y-13738508D02*
X3869705Y-13748031D01*
X3869705Y-13748031D02*
X3879229Y-13767079D01*
X3879229Y-13767079D02*
X3879229Y-13776603D01*
X3879229Y-13776603D02*
X3869705Y-13795650D01*
X3869705Y-13795650D02*
X3860182Y-13805174D01*
X3860182Y-13805174D02*
X3841134Y-13814698D01*
X3841134Y-13814698D02*
X3803039Y-13814698D01*
X3803039Y-13814698D02*
X3783991Y-13824222D01*
X3783991Y-13824222D02*
X3774467Y-13833746D01*
X3774467Y-13833746D02*
X3764943Y-13852793D01*
X3764943Y-13852793D02*
X3764943Y-13890888D01*
X3764943Y-13890888D02*
X3774467Y-13909936D01*
X3774467Y-13909936D02*
X3783991Y-13919460D01*
X3783991Y-13919460D02*
X3803039Y-13928984D01*
X3803039Y-13928984D02*
X3841134Y-13928984D01*
X3841134Y-13928984D02*
X3860182Y-13919460D01*
X3860182Y-13919460D02*
X3869705Y-13909936D01*
X3869705Y-13909936D02*
X3879229Y-13890888D01*
X3879229Y-13890888D02*
X3879229Y-13852793D01*
X3879229Y-13852793D02*
X3869705Y-13833746D01*
X3869705Y-13833746D02*
X3860182Y-13824222D01*
X3860182Y-13824222D02*
X3841134Y-13814698D01*
X3993515Y-13814698D02*
X3974467Y-13805174D01*
X3974467Y-13805174D02*
X3964943Y-13795650D01*
X3964943Y-13795650D02*
X3955420Y-13776603D01*
X3955420Y-13776603D02*
X3955420Y-13767079D01*
X3955420Y-13767079D02*
X3964943Y-13748031D01*
X3964943Y-13748031D02*
X3974467Y-13738508D01*
X3974467Y-13738508D02*
X3993515Y-13728984D01*
X3993515Y-13728984D02*
X4031610Y-13728984D01*
X4031610Y-13728984D02*
X4050658Y-13738508D01*
X4050658Y-13738508D02*
X4060182Y-13748031D01*
X4060182Y-13748031D02*
X4069705Y-13767079D01*
X4069705Y-13767079D02*
X4069705Y-13776603D01*
X4069705Y-13776603D02*
X4060182Y-13795650D01*
X4060182Y-13795650D02*
X4050658Y-13805174D01*
X4050658Y-13805174D02*
X4031610Y-13814698D01*
X4031610Y-13814698D02*
X3993515Y-13814698D01*
X3993515Y-13814698D02*
X3974467Y-13824222D01*
X3974467Y-13824222D02*
X3964943Y-13833746D01*
X3964943Y-13833746D02*
X3955420Y-13852793D01*
X3955420Y-13852793D02*
X3955420Y-13890888D01*
X3955420Y-13890888D02*
X3964943Y-13909936D01*
X3964943Y-13909936D02*
X3974467Y-13919460D01*
X3974467Y-13919460D02*
X3993515Y-13928984D01*
X3993515Y-13928984D02*
X4031610Y-13928984D01*
X4031610Y-13928984D02*
X4050658Y-13919460D01*
X4050658Y-13919460D02*
X4060182Y-13909936D01*
X4060182Y-13909936D02*
X4069705Y-13890888D01*
X4069705Y-13890888D02*
X4069705Y-13852793D01*
X4069705Y-13852793D02*
X4060182Y-13833746D01*
X4060182Y-13833746D02*
X4050658Y-13824222D01*
X4050658Y-13824222D02*
X4031610Y-13814698D01*
X4155420Y-13928984D02*
X4155420Y-13795650D01*
X4155420Y-13814698D02*
X4164943Y-13805174D01*
X4164943Y-13805174D02*
X4183991Y-13795650D01*
X4183991Y-13795650D02*
X4212563Y-13795650D01*
X4212563Y-13795650D02*
X4231610Y-13805174D01*
X4231610Y-13805174D02*
X4241134Y-13824222D01*
X4241134Y-13824222D02*
X4241134Y-13928984D01*
X4241134Y-13824222D02*
X4250658Y-13805174D01*
X4250658Y-13805174D02*
X4269705Y-13795650D01*
X4269705Y-13795650D02*
X4298277Y-13795650D01*
X4298277Y-13795650D02*
X4317325Y-13805174D01*
X4317325Y-13805174D02*
X4326848Y-13824222D01*
X4326848Y-13824222D02*
X4326848Y-13928984D01*
X4422086Y-13928984D02*
X4422086Y-13795650D01*
X4422086Y-13814698D02*
X4431610Y-13805174D01*
X4431610Y-13805174D02*
X4450658Y-13795650D01*
X4450658Y-13795650D02*
X4479229Y-13795650D01*
X4479229Y-13795650D02*
X4498277Y-13805174D01*
X4498277Y-13805174D02*
X4507801Y-13824222D01*
X4507801Y-13824222D02*
X4507801Y-13928984D01*
X4507801Y-13824222D02*
X4517325Y-13805174D01*
X4517325Y-13805174D02*
X4536372Y-13795650D01*
X4536372Y-13795650D02*
X4564944Y-13795650D01*
X4564944Y-13795650D02*
X4583991Y-13805174D01*
X4583991Y-13805174D02*
X4593515Y-13824222D01*
X4593515Y-13824222D02*
X4593515Y-13928984D01*
X4983991Y-13719460D02*
X4812563Y-13976603D01*
X5241134Y-13728984D02*
X5260182Y-13728984D01*
X5260182Y-13728984D02*
X5279229Y-13738508D01*
X5279229Y-13738508D02*
X5288753Y-13748031D01*
X5288753Y-13748031D02*
X5298277Y-13767079D01*
X5298277Y-13767079D02*
X5307801Y-13805174D01*
X5307801Y-13805174D02*
X5307801Y-13852793D01*
X5307801Y-13852793D02*
X5298277Y-13890888D01*
X5298277Y-13890888D02*
X5288753Y-13909936D01*
X5288753Y-13909936D02*
X5279229Y-13919460D01*
X5279229Y-13919460D02*
X5260182Y-13928984D01*
X5260182Y-13928984D02*
X5241134Y-13928984D01*
X5241134Y-13928984D02*
X5222087Y-13919460D01*
X5222087Y-13919460D02*
X5212563Y-13909936D01*
X5212563Y-13909936D02*
X5203039Y-13890888D01*
X5203039Y-13890888D02*
X5193515Y-13852793D01*
X5193515Y-13852793D02*
X5193515Y-13805174D01*
X5193515Y-13805174D02*
X5203039Y-13767079D01*
X5203039Y-13767079D02*
X5212563Y-13748031D01*
X5212563Y-13748031D02*
X5222087Y-13738508D01*
X5222087Y-13738508D02*
X5241134Y-13728984D01*
X5393515Y-13909936D02*
X5403039Y-13919460D01*
X5403039Y-13919460D02*
X5393515Y-13928984D01*
X5393515Y-13928984D02*
X5383991Y-13919460D01*
X5383991Y-13919460D02*
X5393515Y-13909936D01*
X5393515Y-13909936D02*
X5393515Y-13928984D01*
X5593515Y-13928984D02*
X5479229Y-13928984D01*
X5536372Y-13928984D02*
X5536372Y-13728984D01*
X5536372Y-13728984D02*
X5517325Y-13757555D01*
X5517325Y-13757555D02*
X5498277Y-13776603D01*
X5498277Y-13776603D02*
X5479229Y-13786127D01*
X5774467Y-13728984D02*
X5679229Y-13728984D01*
X5679229Y-13728984D02*
X5669706Y-13824222D01*
X5669706Y-13824222D02*
X5679229Y-13814698D01*
X5679229Y-13814698D02*
X5698277Y-13805174D01*
X5698277Y-13805174D02*
X5745896Y-13805174D01*
X5745896Y-13805174D02*
X5764944Y-13814698D01*
X5764944Y-13814698D02*
X5774467Y-13824222D01*
X5774467Y-13824222D02*
X5783991Y-13843269D01*
X5783991Y-13843269D02*
X5783991Y-13890888D01*
X5783991Y-13890888D02*
X5774467Y-13909936D01*
X5774467Y-13909936D02*
X5764944Y-13919460D01*
X5764944Y-13919460D02*
X5745896Y-13928984D01*
X5745896Y-13928984D02*
X5698277Y-13928984D01*
X5698277Y-13928984D02*
X5679229Y-13919460D01*
X5679229Y-13919460D02*
X5669706Y-13909936D01*
X5850658Y-13728984D02*
X5983991Y-13728984D01*
X5983991Y-13728984D02*
X5898277Y-13928984D01*
X6098277Y-13728984D02*
X6117325Y-13728984D01*
X6117325Y-13728984D02*
X6136372Y-13738508D01*
X6136372Y-13738508D02*
X6145896Y-13748031D01*
X6145896Y-13748031D02*
X6155420Y-13767079D01*
X6155420Y-13767079D02*
X6164944Y-13805174D01*
X6164944Y-13805174D02*
X6164944Y-13852793D01*
X6164944Y-13852793D02*
X6155420Y-13890888D01*
X6155420Y-13890888D02*
X6145896Y-13909936D01*
X6145896Y-13909936D02*
X6136372Y-13919460D01*
X6136372Y-13919460D02*
X6117325Y-13928984D01*
X6117325Y-13928984D02*
X6098277Y-13928984D01*
X6098277Y-13928984D02*
X6079229Y-13919460D01*
X6079229Y-13919460D02*
X6069706Y-13909936D01*
X6069706Y-13909936D02*
X6060182Y-13890888D01*
X6060182Y-13890888D02*
X6050658Y-13852793D01*
X6050658Y-13852793D02*
X6050658Y-13805174D01*
X6050658Y-13805174D02*
X6060182Y-13767079D01*
X6060182Y-13767079D02*
X6069706Y-13748031D01*
X6069706Y-13748031D02*
X6079229Y-13738508D01*
X6079229Y-13738508D02*
X6098277Y-13728984D01*
X6241134Y-13728984D02*
X6241134Y-13767079D01*
X6317325Y-13728984D02*
X6317325Y-13767079D01*
X6612563Y-14005174D02*
X6603039Y-13995650D01*
X6603039Y-13995650D02*
X6583991Y-13967079D01*
X6583991Y-13967079D02*
X6574468Y-13948031D01*
X6574468Y-13948031D02*
X6564944Y-13919460D01*
X6564944Y-13919460D02*
X6555420Y-13871841D01*
X6555420Y-13871841D02*
X6555420Y-13833746D01*
X6555420Y-13833746D02*
X6564944Y-13786127D01*
X6564944Y-13786127D02*
X6574468Y-13757555D01*
X6574468Y-13757555D02*
X6583991Y-13738508D01*
X6583991Y-13738508D02*
X6603039Y-13709936D01*
X6603039Y-13709936D02*
X6612563Y-13700412D01*
X6793515Y-13928984D02*
X6679229Y-13928984D01*
X6736372Y-13928984D02*
X6736372Y-13728984D01*
X6736372Y-13728984D02*
X6717325Y-13757555D01*
X6717325Y-13757555D02*
X6698277Y-13776603D01*
X6698277Y-13776603D02*
X6679229Y-13786127D01*
X6917325Y-13728984D02*
X6936372Y-13728984D01*
X6936372Y-13728984D02*
X6955420Y-13738508D01*
X6955420Y-13738508D02*
X6964944Y-13748031D01*
X6964944Y-13748031D02*
X6974468Y-13767079D01*
X6974468Y-13767079D02*
X6983991Y-13805174D01*
X6983991Y-13805174D02*
X6983991Y-13852793D01*
X6983991Y-13852793D02*
X6974468Y-13890888D01*
X6974468Y-13890888D02*
X6964944Y-13909936D01*
X6964944Y-13909936D02*
X6955420Y-13919460D01*
X6955420Y-13919460D02*
X6936372Y-13928984D01*
X6936372Y-13928984D02*
X6917325Y-13928984D01*
X6917325Y-13928984D02*
X6898277Y-13919460D01*
X6898277Y-13919460D02*
X6888753Y-13909936D01*
X6888753Y-13909936D02*
X6879229Y-13890888D01*
X6879229Y-13890888D02*
X6869706Y-13852793D01*
X6869706Y-13852793D02*
X6869706Y-13805174D01*
X6869706Y-13805174D02*
X6879229Y-13767079D01*
X6879229Y-13767079D02*
X6888753Y-13748031D01*
X6888753Y-13748031D02*
X6898277Y-13738508D01*
X6898277Y-13738508D02*
X6917325Y-13728984D01*
X7222087Y-13928984D02*
X7222087Y-13728984D01*
X7307801Y-13928984D02*
X7307801Y-13824222D01*
X7307801Y-13824222D02*
X7298277Y-13805174D01*
X7298277Y-13805174D02*
X7279230Y-13795650D01*
X7279230Y-13795650D02*
X7250658Y-13795650D01*
X7250658Y-13795650D02*
X7231610Y-13805174D01*
X7231610Y-13805174D02*
X7222087Y-13814698D01*
X7431610Y-13928984D02*
X7412563Y-13919460D01*
X7412563Y-13919460D02*
X7403039Y-13909936D01*
X7403039Y-13909936D02*
X7393515Y-13890888D01*
X7393515Y-13890888D02*
X7393515Y-13833746D01*
X7393515Y-13833746D02*
X7403039Y-13814698D01*
X7403039Y-13814698D02*
X7412563Y-13805174D01*
X7412563Y-13805174D02*
X7431610Y-13795650D01*
X7431610Y-13795650D02*
X7460182Y-13795650D01*
X7460182Y-13795650D02*
X7479230Y-13805174D01*
X7479230Y-13805174D02*
X7488753Y-13814698D01*
X7488753Y-13814698D02*
X7498277Y-13833746D01*
X7498277Y-13833746D02*
X7498277Y-13890888D01*
X7498277Y-13890888D02*
X7488753Y-13909936D01*
X7488753Y-13909936D02*
X7479230Y-13919460D01*
X7479230Y-13919460D02*
X7460182Y-13928984D01*
X7460182Y-13928984D02*
X7431610Y-13928984D01*
X7612563Y-13928984D02*
X7593515Y-13919460D01*
X7593515Y-13919460D02*
X7583991Y-13900412D01*
X7583991Y-13900412D02*
X7583991Y-13728984D01*
X7764944Y-13919460D02*
X7745896Y-13928984D01*
X7745896Y-13928984D02*
X7707801Y-13928984D01*
X7707801Y-13928984D02*
X7688753Y-13919460D01*
X7688753Y-13919460D02*
X7679230Y-13900412D01*
X7679230Y-13900412D02*
X7679230Y-13824222D01*
X7679230Y-13824222D02*
X7688753Y-13805174D01*
X7688753Y-13805174D02*
X7707801Y-13795650D01*
X7707801Y-13795650D02*
X7745896Y-13795650D01*
X7745896Y-13795650D02*
X7764944Y-13805174D01*
X7764944Y-13805174D02*
X7774468Y-13824222D01*
X7774468Y-13824222D02*
X7774468Y-13843269D01*
X7774468Y-13843269D02*
X7679230Y-13862317D01*
X7850658Y-13919460D02*
X7869706Y-13928984D01*
X7869706Y-13928984D02*
X7907801Y-13928984D01*
X7907801Y-13928984D02*
X7926849Y-13919460D01*
X7926849Y-13919460D02*
X7936372Y-13900412D01*
X7936372Y-13900412D02*
X7936372Y-13890888D01*
X7936372Y-13890888D02*
X7926849Y-13871841D01*
X7926849Y-13871841D02*
X7907801Y-13862317D01*
X7907801Y-13862317D02*
X7879230Y-13862317D01*
X7879230Y-13862317D02*
X7860182Y-13852793D01*
X7860182Y-13852793D02*
X7850658Y-13833746D01*
X7850658Y-13833746D02*
X7850658Y-13824222D01*
X7850658Y-13824222D02*
X7860182Y-13805174D01*
X7860182Y-13805174D02*
X7879230Y-13795650D01*
X7879230Y-13795650D02*
X7907801Y-13795650D01*
X7907801Y-13795650D02*
X7926849Y-13805174D01*
X8003039Y-14005174D02*
X8012563Y-13995650D01*
X8012563Y-13995650D02*
X8031611Y-13967079D01*
X8031611Y-13967079D02*
X8041134Y-13948031D01*
X8041134Y-13948031D02*
X8050658Y-13919460D01*
X8050658Y-13919460D02*
X8060182Y-13871841D01*
X8060182Y-13871841D02*
X8060182Y-13833746D01*
X8060182Y-13833746D02*
X8050658Y-13786127D01*
X8050658Y-13786127D02*
X8041134Y-13757555D01*
X8041134Y-13757555D02*
X8031611Y-13738508D01*
X8031611Y-13738508D02*
X8012563Y-13709936D01*
X8012563Y-13709936D02*
X8003039Y-13700412D01*
X8364944Y-14005174D02*
X8355420Y-13995650D01*
X8355420Y-13995650D02*
X8336372Y-13967079D01*
X8336372Y-13967079D02*
X8326849Y-13948031D01*
X8326849Y-13948031D02*
X8317325Y-13919460D01*
X8317325Y-13919460D02*
X8307801Y-13871841D01*
X8307801Y-13871841D02*
X8307801Y-13833746D01*
X8307801Y-13833746D02*
X8317325Y-13786127D01*
X8317325Y-13786127D02*
X8326849Y-13757555D01*
X8326849Y-13757555D02*
X8336372Y-13738508D01*
X8336372Y-13738508D02*
X8355420Y-13709936D01*
X8355420Y-13709936D02*
X8364944Y-13700412D01*
X8441134Y-13795650D02*
X8441134Y-13928984D01*
X8441134Y-13814698D02*
X8450658Y-13805174D01*
X8450658Y-13805174D02*
X8469706Y-13795650D01*
X8469706Y-13795650D02*
X8498277Y-13795650D01*
X8498277Y-13795650D02*
X8517325Y-13805174D01*
X8517325Y-13805174D02*
X8526849Y-13824222D01*
X8526849Y-13824222D02*
X8526849Y-13928984D01*
X8650658Y-13928984D02*
X8631611Y-13919460D01*
X8631611Y-13919460D02*
X8622087Y-13909936D01*
X8622087Y-13909936D02*
X8612563Y-13890888D01*
X8612563Y-13890888D02*
X8612563Y-13833746D01*
X8612563Y-13833746D02*
X8622087Y-13814698D01*
X8622087Y-13814698D02*
X8631611Y-13805174D01*
X8631611Y-13805174D02*
X8650658Y-13795650D01*
X8650658Y-13795650D02*
X8679230Y-13795650D01*
X8679230Y-13795650D02*
X8698277Y-13805174D01*
X8698277Y-13805174D02*
X8707801Y-13814698D01*
X8707801Y-13814698D02*
X8717325Y-13833746D01*
X8717325Y-13833746D02*
X8717325Y-13890888D01*
X8717325Y-13890888D02*
X8707801Y-13909936D01*
X8707801Y-13909936D02*
X8698277Y-13919460D01*
X8698277Y-13919460D02*
X8679230Y-13928984D01*
X8679230Y-13928984D02*
X8650658Y-13928984D01*
X8774468Y-13795650D02*
X8850658Y-13795650D01*
X8803039Y-13728984D02*
X8803039Y-13900412D01*
X8803039Y-13900412D02*
X8812563Y-13919460D01*
X8812563Y-13919460D02*
X8831611Y-13928984D01*
X8831611Y-13928984D02*
X8850658Y-13928984D01*
X9069706Y-13795650D02*
X9069706Y-13995650D01*
X9069706Y-13805174D02*
X9088754Y-13795650D01*
X9088754Y-13795650D02*
X9126849Y-13795650D01*
X9126849Y-13795650D02*
X9145896Y-13805174D01*
X9145896Y-13805174D02*
X9155420Y-13814698D01*
X9155420Y-13814698D02*
X9164944Y-13833746D01*
X9164944Y-13833746D02*
X9164944Y-13890888D01*
X9164944Y-13890888D02*
X9155420Y-13909936D01*
X9155420Y-13909936D02*
X9145896Y-13919460D01*
X9145896Y-13919460D02*
X9126849Y-13928984D01*
X9126849Y-13928984D02*
X9088754Y-13928984D01*
X9088754Y-13928984D02*
X9069706Y-13919460D01*
X9279230Y-13928984D02*
X9260182Y-13919460D01*
X9260182Y-13919460D02*
X9250658Y-13900412D01*
X9250658Y-13900412D02*
X9250658Y-13728984D01*
X9441135Y-13928984D02*
X9441135Y-13824222D01*
X9441135Y-13824222D02*
X9431611Y-13805174D01*
X9431611Y-13805174D02*
X9412563Y-13795650D01*
X9412563Y-13795650D02*
X9374468Y-13795650D01*
X9374468Y-13795650D02*
X9355420Y-13805174D01*
X9441135Y-13919460D02*
X9422087Y-13928984D01*
X9422087Y-13928984D02*
X9374468Y-13928984D01*
X9374468Y-13928984D02*
X9355420Y-13919460D01*
X9355420Y-13919460D02*
X9345896Y-13900412D01*
X9345896Y-13900412D02*
X9345896Y-13881365D01*
X9345896Y-13881365D02*
X9355420Y-13862317D01*
X9355420Y-13862317D02*
X9374468Y-13852793D01*
X9374468Y-13852793D02*
X9422087Y-13852793D01*
X9422087Y-13852793D02*
X9441135Y-13843269D01*
X9507801Y-13795650D02*
X9583992Y-13795650D01*
X9536373Y-13728984D02*
X9536373Y-13900412D01*
X9536373Y-13900412D02*
X9545896Y-13919460D01*
X9545896Y-13919460D02*
X9564944Y-13928984D01*
X9564944Y-13928984D02*
X9583992Y-13928984D01*
X9726849Y-13919460D02*
X9707801Y-13928984D01*
X9707801Y-13928984D02*
X9669706Y-13928984D01*
X9669706Y-13928984D02*
X9650658Y-13919460D01*
X9650658Y-13919460D02*
X9641135Y-13900412D01*
X9641135Y-13900412D02*
X9641135Y-13824222D01*
X9641135Y-13824222D02*
X9650658Y-13805174D01*
X9650658Y-13805174D02*
X9669706Y-13795650D01*
X9669706Y-13795650D02*
X9707801Y-13795650D01*
X9707801Y-13795650D02*
X9726849Y-13805174D01*
X9726849Y-13805174D02*
X9736373Y-13824222D01*
X9736373Y-13824222D02*
X9736373Y-13843269D01*
X9736373Y-13843269D02*
X9641135Y-13862317D01*
X9907801Y-13928984D02*
X9907801Y-13728984D01*
X9907801Y-13919460D02*
X9888754Y-13928984D01*
X9888754Y-13928984D02*
X9850658Y-13928984D01*
X9850658Y-13928984D02*
X9831611Y-13919460D01*
X9831611Y-13919460D02*
X9822087Y-13909936D01*
X9822087Y-13909936D02*
X9812563Y-13890888D01*
X9812563Y-13890888D02*
X9812563Y-13833746D01*
X9812563Y-13833746D02*
X9822087Y-13814698D01*
X9822087Y-13814698D02*
X9831611Y-13805174D01*
X9831611Y-13805174D02*
X9850658Y-13795650D01*
X9850658Y-13795650D02*
X9888754Y-13795650D01*
X9888754Y-13795650D02*
X9907801Y-13805174D01*
X9983992Y-14005174D02*
X9993516Y-13995650D01*
X9993516Y-13995650D02*
X10012563Y-13967079D01*
X10012563Y-13967079D02*
X10022087Y-13948031D01*
X10022087Y-13948031D02*
X10031611Y-13919460D01*
X10031611Y-13919460D02*
X10041135Y-13871841D01*
X10041135Y-13871841D02*
X10041135Y-13833746D01*
X10041135Y-13833746D02*
X10031611Y-13786127D01*
X10031611Y-13786127D02*
X10022087Y-13757555D01*
X10022087Y-13757555D02*
X10012563Y-13738508D01*
X10012563Y-13738508D02*
X9993516Y-13709936D01*
X9993516Y-13709936D02*
X9983992Y-13700412D01*
M02*
