M48
; DRILL file {KiCad 7.0.7} date 2023 November 08, Wednesday 12:28:29
; FORMAT={-:-/ absolute / metric / decimal}
; #@! TF.CreationDate,2023-11-08T12:28:29+01:00
; #@! TF.GenerationSoftware,Kicad,Pcbnew,7.0.7
; #@! TF.FileFunction,Plated,1,2,PTH
FMAT,2
METRIC
; #@! TA.AperFunction,Plated,PTH,ViaDrill
T1C0.400
; #@! TA.AperFunction,Plated,PTH,ComponentDrill
T2C1.000
; #@! TA.AperFunction,Plated,PTH,ComponentDrill
T3C3.000
%
G90
G05
T1
X36.1Y-80.5
X36.2Y-60.85
X36.25Y-37.9
X40.4Y-73.4
X41.45Y-62.29
X41.6Y-55.85
X41.67Y-43.26
X43.4Y-38.75
X43.62Y-79.84
X43.85Y-75.65
X52.55Y-68.6
X60.55Y-40.05
X62.45Y-94.3
X62.55Y-105.35
X63.45Y-100.85
X63.55Y-35.9
X65.52Y-43.06
X66.8Y-91.95
X67.0Y-55.45
X67.15Y-110.3
X67.2Y-38.85
X67.2Y-100.55
X70.38Y-62.3
X70.65Y-70.8
X71.0Y-121.25
X71.05Y-74.7
X71.4Y-111.9
X71.8Y-68.7
X72.35Y-56.95
X72.47Y-81.55
X73.0Y-71.3
X74.05Y-67.95
X74.3Y-51.25
X74.65Y-72.05
X74.9Y-65.7
X74.93Y-114.18
X76.65Y-74.0
X76.8Y-48.55
X77.25Y-65.75
X79.75Y-40.1
X80.25Y-71.25
X80.35Y-51.3
X80.75Y-59.7
X81.7Y-43.05
X81.9Y-59.7
X82.75Y-35.8
X82.9Y-73.9
X83.0Y-58.1
X83.25Y-99.7
X83.8Y-45.1
X83.9Y-70.7
X84.2Y-63.9
X85.35Y-63.9
X85.4Y-66.0
X86.15Y-39.15
X86.6Y-93.65
X87.7Y-56.5
X87.9Y-75.15
X87.95Y-67.45
X88.1Y-46.15
X88.3Y-72.65
X89.95Y-39.2
X90.25Y-101.35
X90.3Y-67.95
X90.6Y-37.45
X90.7Y-47.55
X90.7Y-72.2
X90.95Y-62.25
X91.08Y-95.88
X92.15Y-36.0
X92.3Y-114.7
X92.45Y-68.6
X92.45Y-108.1
X92.5Y-50.95
X92.9Y-55.55
X93.3Y-36.1
X93.3Y-71.45
X94.541Y-36.442
X95.0Y-69.35
X95.35Y-33.2
X95.55Y-89.6
X95.7Y-35.05
X96.0Y-117.75
X96.05Y-42.2
X97.05Y-87.05
X97.3Y-113.6
X98.3Y-75.05
X98.55Y-100.7
X98.775Y-38.206
X100.15Y-81.5
X100.4Y-121.3
X101.22Y-43.4
X101.4Y-111.65
X102.92Y-115.08
X103.0Y-99.0
X103.05Y-54.1
X103.25Y-33.9
X104.3Y-33.85
X104.3Y-93.55
X105.0Y-34.7
X105.05Y-79.15
X106.25Y-55.25
X106.25Y-76.4
X106.75Y-61.85
X106.9Y-42.3
X108.55Y-71.9
X109.2Y-93.35
X109.5Y-101.85
X109.95Y-98.95
X110.95Y-55.45
X111.35Y-103.8
X111.55Y-70.05
X112.15Y-73.55
X112.45Y-62.35
X113.05Y-79.4
X114.7Y-73.85
X115.25Y-56.6
X116.25Y-113.9
X116.8Y-95.55
X117.45Y-42.3
X118.85Y-60.95
X119.7Y-79.75
X119.7Y-117.7
X120.1Y-112.0
X120.8Y-75.05
X121.4Y-57.75
X122.6Y-43.3
X123.8Y-71.15
X123.9Y-121.5
X124.1Y-93.2
X124.15Y-101.15
X124.4Y-80.7
X124.45Y-62.75
X124.45Y-112.05
X126.55Y-42.1
X126.6Y-57.3
X126.9Y-114.75
X127.25Y-83.5
X127.4Y-93.4
X129.15Y-98.75
X130.1Y-70.85
X132.05Y-72.1
X132.95Y-63.7
X133.05Y-62.6
X134.05Y-56.85
X134.3Y-68.7
X134.95Y-72.3
X136.0Y-42.25
X136.1Y-83.2
X136.25Y-62.45
X136.77Y-74.44
X136.8Y-67.65
X138.35Y-53.55
X138.7Y-62.5
X138.75Y-65.8
X139.4Y-73.75
X140.25Y-99.7
X140.5Y-43.35
X140.65Y-116.8
X140.925Y-63.75
X141.35Y-50.8
X142.1Y-62.95
X142.75Y-94.0
X143.4Y-38.85
X145.15Y-73.25
X145.5Y-60.55
X145.6Y-46.35
X145.85Y-93.75
X146.6Y-102.55
X146.7Y-70.95
X146.775Y-38.875
X147.1Y-33.9
X147.1Y-37.65
X147.75Y-47.95
X148.25Y-98.55
X148.59Y-75.85
X148.65Y-43.05
X148.7Y-114.95
X149.05Y-36.625
X149.2Y-35.3
X149.25Y-50.55
X149.35Y-65.15
X149.65Y-37.5
X149.65Y-107.5
X150.4Y-35.05
X150.4Y-62.2
X150.85Y-40.9
X151.2Y-67.35
X151.4Y-54.65
X151.45Y-34.85
X151.85Y-72.9
X152.35Y-43.55
X152.45Y-48.05
X153.05Y-34.8
X153.1Y-42.229
X153.1Y-91.4
X153.3Y-117.8
X153.4Y-68.05
X153.7Y-33.95
X154.45Y-53.45
X154.55Y-72.35
X154.55Y-113.5
X154.75Y-86.8
X155.3Y-37.85
X155.65Y-49.482
X155.8Y-40.55
X155.9Y-33.0
X156.2Y-44.35
X156.65Y-53.45
X156.85Y-121.55
X156.95Y-81.8
X157.2Y-71.75
X157.3Y-33.7
X157.45Y-61.55
X157.85Y-43.1
X158.25Y-53.3
X158.3Y-46.2
X158.6Y-68.5
X158.75Y-50.575
X159.05Y-113.7
X159.6Y-70.8
X159.9Y-32.75
X160.1Y-117.6
X160.3Y-58.8
X160.5Y-33.7
X160.95Y-62.1
X161.15Y-43.35
X161.2Y-45.35
X161.525Y-44.375
X161.836Y-51.246
X161.95Y-93.45
X162.6Y-48.15
X162.65Y-100.55
X162.825Y-49.625
X163.25Y-64.4
X163.35Y-41.85
X163.45Y-45.9
X164.2Y-37.55
X164.45Y-32.3
X165.1Y-57.2
X165.85Y-93.25
X165.9Y-51.7
X166.1Y-45.96
X166.1Y-63.05
X166.2Y-55.05
X166.25Y-65.75
X166.7Y-50.45
X166.9Y-33.275
X167.05Y-32.15
X167.35Y-98.55
X167.43Y-47.39
X167.49Y-44.56
X168.0Y-37.6
X168.2Y-32.425
X168.65Y-64.1
X168.75Y-48.69
X168.75Y-53.6
X168.789Y-51.065
X168.8Y-43.22
X168.8Y-45.94
X169.325Y-40.25
X170.05Y-34.3
X170.1Y-76.6
X170.16Y-47.22
X170.25Y-44.49
X170.375Y-33.275
X170.5Y-62.3
X170.8Y-53.25
X170.8Y-56.4
X170.819Y-52.032
X171.15Y-34.55
X171.2Y-32.3
X171.35Y-35.6
X171.45Y-45.79
X171.88Y-50.971
X172.1Y-36.35
X172.5Y-41.8
X172.9Y-50.3
X172.9Y-52.75
X173.399Y-36.249
X173.853Y-45.677
X173.95Y-35.35
X174.5Y-74.9
X174.6Y-61.05
X174.676Y-47.55
X174.95Y-37.6
X175.0Y-41.2
X175.05Y-38.7
X175.293Y-44.657
X175.301Y-36.664
X175.5Y-51.71
X175.9Y-66.55
X176.15Y-47.25
X176.5Y-55.25
X176.5Y-56.3
X176.65Y-49.15
X177.15Y-34.15
X178.1Y-57.7
X178.3Y-50.85
X178.65Y-94.7
X178.75Y-99.25
X179.3Y-81.1
X179.35Y-45.6
X179.35Y-102.45
X181.25Y-42.8
X181.4Y-39.75
X181.85Y-72.9
X182.05Y-46.35
X182.05Y-55.3
X182.05Y-56.4
X182.1Y-100.45
X182.9Y-93.4
X184.35Y-57.85
X184.8Y-108.45
X185.1Y-42.7
X186.1Y-69.6
X186.4Y-98.8
X187.45Y-104.0
X188.05Y-44.65
X188.05Y-48.2
X188.1Y-39.5
X188.7Y-106.65
X188.8Y-75.55
X189.05Y-92.1
X189.6Y-62.05
X190.75Y-54.2
X191.1Y-42.8
X192.0Y-56.55
X192.6Y-51.65
X192.75Y-45.35
X192.95Y-94.55
X193.55Y-74.75
X193.95Y-81.2
X194.05Y-41.05
X194.5Y-49.0
X195.0Y-67.8
X196.95Y-44.3
X197.15Y-65.95
X197.6Y-69.35
X197.65Y-93.95
X198.15Y-99.15
X199.0Y-70.7
X199.05Y-112.55
X199.65Y-65.7
X199.9Y-54.2
X200.3Y-37.475
X200.35Y-49.05
X200.75Y-117.7
X201.15Y-36.8
X201.4Y-74.65
X201.65Y-64.5
X201.825Y-62.125
X202.1Y-71.45
X202.15Y-61.0
X202.3Y-37.0
X202.3Y-52.1
X202.5Y-93.2
X202.55Y-63.85
X202.95Y-42.25
X203.266Y-36.125
X203.775Y-55.725
X204.15Y-35.6
X204.75Y-112.35
X204.9Y-121.75
X205.02Y-35.03
X205.5Y-95.25
X205.9Y-68.9
X206.2Y-66.2
X206.5Y-55.7
X206.85Y-62.2
X206.9Y-34.9
X207.35Y-66.55
X207.65Y-67.65
X207.75Y-34.25
X207.8Y-105.85
X207.8Y-117.6
X207.9Y-51.3
X208.05Y-101.65
X208.3Y-75.15
X208.35Y-39.25
X209.95Y-33.35
X210.7Y-37.475
X211.2Y-73.55
X211.85Y-56.35
X211.85Y-61.75
X212.65Y-41.8
X212.8Y-87.3
X213.2Y-72.25
X213.35Y-52.75
X214.45Y-74.45
X214.5Y-61.7
X215.15Y-80.2
X215.5Y-65.35
X216.75Y-54.2
X216.75Y-61.05
X217.49Y-43.3
X217.55Y-93.15
X218.0Y-70.1
X218.25Y-67.2
X219.7Y-38.75
X220.65Y-76.95
X220.7Y-46.75
X221.6Y-69.8
X222.25Y-63.3
X222.65Y-93.5
X222.7Y-102.45
X224.4Y-55.5
X224.45Y-98.6
X224.6Y-80.7
X225.05Y-88.6
X225.2Y-105.85
X227.5Y-75.65
X228.6Y-81.75
X228.75Y-49.6
X228.75Y-97.95
X229.0Y-55.85
X229.15Y-60.5
X229.2Y-64.65
X231.7Y-41.75
X232.1Y-102.0
X232.4Y-74.6
X234.2Y-79.95
X235.55Y-94.2
X235.95Y-43.35
X237.95Y-112.45
X239.05Y-117.8
X239.35Y-86.0
X239.4Y-42.05
X240.45Y-61.2
X241.05Y-49.6
X241.7Y-93.45
X242.15Y-112.5
X242.7Y-121.4
X243.55Y-98.95
X244.05Y-49.05
X244.4Y-39.45
X245.95Y-114.65
X246.35Y-79.6
X246.4Y-85.7
X246.45Y-55.7
X246.5Y-73.4
X247.15Y-89.8
X247.4Y-62.2
X250.2Y-86.7
X251.0Y-73.2
X251.25Y-48.25
X253.2Y-75.8
X253.35Y-81.05
X254.4Y-49.1
X254.95Y-108.55
X255.8Y-97.95
X255.95Y-43.15
X255.95Y-93.15
X256.75Y-113.35
X257.2Y-56.9
X258.15Y-33.45
X258.35Y-38.5
X259.0Y-69.3
X259.2Y-37.475
X259.8Y-93.2
X260.05Y-78.7
X260.1Y-35.35
X260.15Y-111.1
X260.4Y-100.5
X260.6Y-38.65
X260.6Y-117.9
X260.65Y-59.0
X261.25Y-33.55
X261.4Y-35.7
X261.6Y-62.2
X262.1Y-41.7
X262.2Y-55.65
X262.5Y-36.4
X263.2Y-94.7
X263.65Y-38.4
X263.7Y-33.7
X263.7Y-34.8
X264.0Y-66.0
X264.55Y-112.5
X264.55Y-121.85
X264.725Y-63.525
X264.75Y-33.45
X265.05Y-76.15
X265.9Y-71.5
X266.2Y-33.4
X266.2Y-61.9
X266.3Y-38.85
X266.75Y-37.475
X267.15Y-114.95
X268.05Y-69.3
X268.35Y-72.05
X269.2Y-61.55
X269.25Y-64.65
X269.65Y-87.85
X269.9Y-74.3
X269.95Y-41.05
X270.05Y-81.3
X271.85Y-33.45
X272.0Y-52.7
X272.6Y-73.95
X272.6Y-95.0
X273.05Y-52.95
X273.2Y-65.6
X273.45Y-85.85
X273.6Y-63.65
X275.2Y-32.45
X275.2Y-43.18
X275.25Y-63.35
X276.425Y-37.475
X276.65Y-39.0
X276.75Y-32.75
X277.15Y-46.3
X277.4Y-33.65
X278.05Y-53.15
X278.325Y-34.5
X278.35Y-46.35
X278.45Y-74.3
X278.7Y-93.3
X279.65Y-70.05
X280.0Y-35.625
X280.75Y-62.0
X281.3Y-38.75
X281.35Y-35.1
X281.4Y-96.4
X281.75Y-75.7
X282.0Y-37.475
X282.0Y-52.25
X282.5Y-35.3
X282.75Y-105.15
X283.0Y-65.95
X283.65Y-74.25
X284.55Y-62.45
X285.45Y-33.2
X285.95Y-113.75
X286.0Y-81.8
X286.05Y-57.95
X286.2Y-74.5
X286.45Y-68.65
X286.6Y-46.9
X286.7Y-63.75
X287.25Y-98.85
X288.2Y-72.5
X288.4Y-69.5
X289.2Y-40.15
X289.3Y-62.7
X290.85Y-79.1
X291.0Y-71.95
X292.85Y-122.05
X293.35Y-112.45
X293.4Y-52.05
X294.1Y-43.45
X294.9Y-102.5
X295.55Y-38.6
X295.75Y-115.8
X297.0Y-47.45
X297.8Y-103.6
X298.55Y-57.7
X298.95Y-37.475
X300.65Y-81.8
X302.3Y-62.75
X302.45Y-45.95
X303.1Y-55.6
X303.1Y-75.75
X303.65Y-40.85
X304.35Y-99.2
X305.45Y-36.15
X305.95Y-62.15
X306.75Y-67.7
X307.2Y-100.75
X307.5Y-74.85
X307.6Y-92.5
X307.9Y-38.95
X308.65Y-85.4
X309.15Y-112.35
X309.9Y-72.15
X309.9Y-89.4
X309.9Y-94.45
X309.95Y-68.35
X311.6Y-84.25
X311.7Y-37.475
X312.35Y-58.05
X312.35Y-121.65
X312.5Y-65.7
X313.4Y-112.85
X314.65Y-93.85
X314.75Y-115.5
X315.15Y-45.8
X315.85Y-74.35
X317.1Y-41.85
X317.1Y-70.45
X317.4Y-64.45
X317.45Y-98.65
X318.25Y-53.4
X319.1Y-75.75
X320.15Y-65.85
X320.85Y-34.8
X321.25Y-74.3
X321.9Y-70.7
X322.45Y-43.45
X322.5Y-72.6
X322.9Y-66.15
X323.85Y-113.75
X324.2Y-38.6
X325.3Y-41.95
X327.3Y-81.35
X327.35Y-112.3
X329.05Y-65.3
X330.4Y-122.0
X330.7Y-83.5
X331.45Y-69.45
X331.75Y-112.9
X331.9Y-73.1
X333.75Y-115.3
X335.35Y-41.4
X335.65Y-73.8
T2
X178.11Y-44.55
X178.11Y-48.15
X180.65Y-44.55
X180.65Y-48.15
X183.19Y-44.55
X183.19Y-48.15
X184.075Y-65.325
X184.075Y-67.865
X184.075Y-70.405
X184.075Y-72.945
X185.73Y-44.55
X185.73Y-48.15
T3
X84.0Y-82.1
X180.4Y-111.2
X291.2Y-93.1
T0
M30
