<svg xmlns="http://www.w3.org/2000/svg">
  <defs>
    <symbol
      id="check"
      width="15"
      height="15"
      viewBox="0 0 15 15"
      xmlns="http://www.w3.org/2000/svg"
    >
      <path
        fill-rule="evenodd"
        clip-rule="evenodd"
        d="M11.4669 3.72684C11.7558 3.91574 11.8369 4.30308 11.648 4.59198L7.39799 11.092C7.29783 11.2452 7.13556 11.3467 6.95402 11.3699C6.77247 11.3931 6.58989 11.3355 6.45446 11.2124L3.70446 8.71241C3.44905 8.48022 3.43023 8.08494 3.66242 7.82953C3.89461 7.57412 4.28989 7.55529 4.5453 7.78749L6.75292 9.79441L10.6018 3.90792C10.7907 3.61902 11.178 3.53795 11.4669 3.72684Z"
      />
    </symbol>

    <symbol
      id="chevron-down"
      width="15"
      height="15"
      viewBox="0 0 15 15"
      xmlns="http://www.w3.org/2000/svg"
    >
      <path
        fill-rule="evenodd"
        clip-rule="evenodd"
        d="M3.13523 6.15803C3.3241 5.95657 3.64052 5.94637 3.84197 6.13523L7.5 9.56464L11.158 6.13523C11.3595 5.94637 11.6759 5.95657 11.8648 6.15803C12.0536 6.35949 12.0434 6.67591 11.842 6.86477L7.84197 10.6148C7.64964 10.7951 7.35036 10.7951 7.15803 10.6148L3.15803 6.86477C2.95657 6.67591 2.94637 6.35949 3.13523 6.15803Z"
      />
    </symbol>

    <symbol
      id="cross-2"
      width="15"
      height="15"
      viewBox="0 0 15 15"
      xmlns="http://www.w3.org/2000/svg"
    >
      <path
        fill-rule="evenodd"
        clip-rule="evenodd"
        d="M11.7816 4.03157C12.0062 3.80702 12.0062 3.44295 11.7816 3.2184C11.5571 2.99385 11.193 2.99385 10.9685 3.2184L7.50005 6.68682L4.03164 3.2184C3.80708 2.99385 3.44301 2.99385 3.21846 3.2184C2.99391 3.44295 2.99391 3.80702 3.21846 4.03157L6.68688 7.49999L3.21846 10.9684C2.99391 11.193 2.99391 11.557 3.21846 11.7816C3.44301 12.0061 3.80708 12.0061 4.03164 11.7816L7.50005 8.31316L10.9685 11.7816C11.193 12.0061 11.5571 12.0061 11.7816 11.7816C12.0062 11.557 12.0062 11.193 11.7816 10.9684L8.31322 7.49999L11.7816 4.03157Z"
      />
    </symbol>

    <symbol
      id="eye-closed"
      width="15"
      height="15"
      viewBox="0 0 15 15"
      xmlns="http://www.w3.org/2000/svg"
    >
      <path
        fill-rule="evenodd"
        clip-rule="evenodd"
        d="M14.765 6.07601C14.9992 6.22236 15.0704 6.53084 14.924 6.76501C14.4849 7.46749 13.9632 8.10651 13.3702 8.66312L14.5712 9.86414C14.7665 10.0594 14.7665 10.376 14.5712 10.5712C14.376 10.7665 14.0594 10.7665 13.8641 10.5712L12.6011 9.30824C11.805 9.90291 10.9089 10.3622 9.93377 10.6511L10.383 12.3278C10.4545 12.5945 10.2962 12.8687 10.0294 12.9401C9.76269 13.0116 9.48852 12.8533 9.41706 12.5866L8.95918 10.8776C8.48744 10.9581 8.00036 11 7.50001 11C6.99964 11 6.51256 10.9581 6.04081 10.8776L5.58297 12.5865C5.51151 12.8533 5.23735 13.0116 4.97061 12.9401C4.70388 12.8687 4.54558 12.5945 4.61704 12.3278L5.06623 10.6511C4.09109 10.3621 3.19499 9.9029 2.39886 9.30823L1.13585 10.5712C0.940585 10.7665 0.624002 10.7665 0.42874 10.5712C0.233478 10.376 0.233478 10.0594 0.42874 9.86413L1.62978 8.6631C1.03677 8.1065 0.515056 7.46748 0.0760073 6.76501C-0.0703483 6.53084 0.000837516 6.22236 0.235005 6.07601C0.469173 5.92965 0.777649 6.00084 0.924004 6.23501C1.40349 7.00218 1.98895 7.68063 2.66229 8.24277C2.67311 8.25103 2.68366 8.25979 2.69393 8.26904C4.00894 9.35535 5.65535 9.99999 7.50001 9.99999C10.3079 9.99999 12.6564 8.50637 14.076 6.23501C14.2224 6.00084 14.5308 5.92965 14.765 6.07601Z"
      />
    </symbol>

    <symbol
      id="eye-open"
      width="15"
      height="15"
      viewBox="0 0 15 15"
      xmlns="http://www.w3.org/2000/svg"
    >
      <path
        fill-rule="evenodd"
        clip-rule="evenodd"
        d="M7.5 11C4.80285 11 2.52952 9.62184 1.09622 7.50001C2.52952 5.37816 4.80285 4 7.5 4C10.1971 4 12.4705 5.37816 13.9038 7.50001C12.4705 9.62183 10.1971 11 7.5 11ZM7.5 3C4.30786 3 1.65639 4.70638 0.0760002 7.23501C-0.0253338 7.39715 -0.0253334 7.60288 0.0760014 7.76501C1.65639 10.2936 4.30786 12 7.5 12C10.6921 12 13.3436 10.2936 14.924 7.76501C15.0253 7.60288 15.0253 7.39715 14.924 7.23501C13.3436 4.70638 10.6921 3 7.5 3ZM7.5 9.5C8.60457 9.5 9.5 8.60457 9.5 7.5C9.5 6.39543 8.60457 5.5 7.5 5.5C6.39543 5.5 5.5 6.39543 5.5 7.5C5.5 8.60457 6.39543 9.5 7.5 9.5Z"
      />
    </symbol>

    <symbol
      id="github-logo"
      width="15"
      height="15"
      viewBox="0 0 15 15"
      xmlns="http://www.w3.org/2000/svg"
    >
      <path
        fill-rule="evenodd"
        clip-rule="evenodd"
        d="M7.49933 0.25C3.49635 0.25 0.25 3.49593 0.25 7.50024C0.25 10.703 2.32715 13.4206 5.2081 14.3797C5.57084 14.446 5.70302 14.2222 5.70302 14.0299C5.70302 13.8576 5.69679 13.4019 5.69323 12.797C3.67661 13.235 3.25112 11.825 3.25112 11.825C2.92132 10.9874 2.44599 10.7644 2.44599 10.7644C1.78773 10.3149 2.49584 10.3238 2.49584 10.3238C3.22353 10.375 3.60629 11.0711 3.60629 11.0711C4.25298 12.1788 5.30335 11.8588 5.71638 11.6732C5.78225 11.205 5.96962 10.8854 6.17658 10.7043C4.56675 10.5209 2.87415 9.89918 2.87415 7.12104C2.87415 6.32925 3.15677 5.68257 3.62053 5.17563C3.54576 4.99226 3.29697 4.25521 3.69174 3.25691C3.69174 3.25691 4.30015 3.06196 5.68522 3.99973C6.26337 3.83906 6.8838 3.75895 7.50022 3.75583C8.1162 3.75895 8.73619 3.83906 9.31523 3.99973C10.6994 3.06196 11.3069 3.25691 11.3069 3.25691C11.7026 4.25521 11.4538 4.99226 11.3795 5.17563C11.8441 5.68257 12.1245 6.32925 12.1245 7.12104C12.1245 9.9063 10.4292 10.5192 8.81452 10.6985C9.07444 10.9224 9.30633 11.3648 9.30633 12.0413C9.30633 13.0102 9.29742 13.7922 9.29742 14.0299C9.29742 14.2239 9.42828 14.4496 9.79591 14.3788C12.6746 13.4179 14.75 10.7025 14.75 7.50024C14.75 3.49593 11.5036 0.25 7.49933 0.25Z"
      />
    </symbol>

    <symbol
      id="magnifying-glass"
      width="15"
      height="15"
      viewBox="0 0 15 15"
      xmlns="http://www.w3.org/2000/svg"
    >
      <path
        fill-rule="evenodd"
        clip-rule="evenodd"
        d="M10 6.5C10 8.433 8.433 10 6.5 10C4.567 10 3 8.433 3 6.5C3 4.567 4.567 3 6.5 3C8.433 3 10 4.567 10 6.5ZM9.30884 10.0159C8.53901 10.6318 7.56251 11 6.5 11C4.01472 11 2 8.98528 2 6.5C2 4.01472 4.01472 2 6.5 2C8.98528 2 11 4.01472 11 6.5C11 7.56251 10.6318 8.53901 10.0159 9.30884L12.8536 12.1464C13.0488 12.3417 13.0488 12.6583 12.8536 12.8536C12.6583 13.0488 12.3417 13.0488 12.1464 12.8536L9.30884 10.0159Z"
      />
    </symbol>
  </defs>
</svg>
