<svg xmlns="http://www.w3.org/2000/svg">
  <defs>
    <symbol
      id="blushes"
      width="170"
      height="120"
      viewBox="0 0 170 120"
      xmlns="http://www.w3.org/2000/svg"
    >
      <rect x="6" y="115.607" width="15" height="5" transform="rotate(-45 6 115.607)" />
      <rect x="20.1421" y="115.607" width="15" height="5" transform="rotate(-45 20.1421 115.607)" />
      <rect x="34.2843" y="115.607" width="15" height="5" transform="rotate(-45 34.2843 115.607)" />
      <rect x="121" y="115.607" width="15" height="5" transform="rotate(-45 121 115.607)" />
      <rect x="135.142" y="115.607" width="15" height="5" transform="rotate(-45 135.142 115.607)" />
      <rect x="149.284" y="115.607" width="15" height="5" transform="rotate(-45 149.284 115.607)" />
    </symbol>

    <symbol
      id="bumped_legends"
      width="170"
      height="120"
      viewBox="0 0 170 120"
      xmlns="http://www.w3.org/2000/svg"
    >
      <path
        d="M29.4754 84H30.5322V89.7784C30.5322 90.375 30.3916 90.9077 30.1103 91.3764C29.8319 91.8423 29.4384 92.2102 28.9299 92.4801C28.4214 92.7472 27.8248 92.8807 27.1402 92.8807C26.4555 92.8807 25.8589 92.7472 25.3504 92.4801C24.8419 92.2102 24.447 91.8423 24.1657 91.3764C23.8873 90.9077 23.7481 90.375 23.7481 89.7784V84H24.8049V89.6932C24.8049 90.1193 24.8987 90.4986 25.0862 90.831C25.2737 91.1605 25.5407 91.4204 25.8873 91.6108C26.2367 91.7983 26.6544 91.892 27.1402 91.892C27.6259 91.892 28.0436 91.7983 28.393 91.6108C28.7424 91.4204 29.0095 91.1605 29.1941 90.831C29.3816 90.4986 29.4754 90.1193 29.4754 89.6932V84Z"
      />
      <path
        d="M81.5043 92.7273L79.51 86.1818H80.5668L81.9816 91.1932H82.0498L83.4475 86.1818H84.5214L85.902 91.1761H85.9702L87.385 86.1818H88.4418L86.4475 92.7273H85.4589L84.027 87.6989H83.9248L82.493 92.7273H81.5043Z"
      />
      <path
        d="M144.174 84H145.231V89.7784C145.231 90.375 145.09 90.9077 144.809 91.3764C144.531 91.8423 144.137 92.2102 143.629 92.4801C143.12 92.7472 142.524 92.8807 141.839 92.8807C141.154 92.8807 140.558 92.7472 140.049 92.4801C139.541 92.2102 139.146 91.8423 138.865 91.3764C138.586 90.9077 138.447 90.375 138.447 89.7784V84H139.504V89.6932C139.504 90.1193 139.597 90.4986 139.785 90.831C139.972 91.1605 140.24 91.4204 140.586 91.6108C140.936 91.7983 141.353 91.892 141.839 91.892C142.325 91.892 142.742 91.7983 143.092 91.6108C143.441 91.4204 143.708 91.1605 143.893 90.831C144.08 90.4986 144.174 90.1193 144.174 89.6932V84Z"
      />
    </symbol>

    <symbol
      id="keys"
      width="170"
      height="120"
      viewBox="0 0 170 120"
      xmlns="http://www.w3.org/2000/svg"
    >
      <rect x="2.5" y="61.5" width="53" height="53" rx="3.5" />
      <rect x="58.5" y="61.5" width="53" height="53" rx="3.5" />
      <rect x="114.5" y="61.5" width="53" height="53" rx="3.5" />
      <rect x="42.5" y="5.5" width="53" height="53" rx="3.5" />
    </symbol>

    <symbol
      id="legends"
      width="170"
      height="120"
      viewBox="0 0 170 120"
      xmlns="http://www.w3.org/2000/svg"
    >
      <path
        d="M64.6074 31.6364V30.8693L69.312 23.8466H64.5563V22.9091H70.5733V23.6761L65.8688 30.6989H70.6245V31.6364H64.6074Z"
      />
      <path
        d="M26.2835 90H27.4426L28.4141 91.2784L28.6698 91.6193L30.1187 93.5454H28.9596L28.0051 92.267L27.7664 91.9432L26.2835 90ZM30.4766 88.3636C30.4766 89.2841 30.3105 90.0795 29.9781 90.75C29.6457 91.4204 29.1897 91.9375 28.6102 92.3011C28.0306 92.6648 27.3687 92.8466 26.6244 92.8466C25.8801 92.8466 25.2181 92.6648 24.6386 92.3011C24.059 91.9375 23.6031 91.4204 23.2707 90.75C22.9383 90.0795 22.7721 89.2841 22.7721 88.3636C22.7721 87.4432 22.9383 86.6477 23.2707 85.9773C23.6031 85.3068 24.059 84.7898 24.6386 84.4261C25.2181 84.0625 25.8801 83.8807 26.6244 83.8807C27.3687 83.8807 28.0306 84.0625 28.6102 84.4261C29.1897 84.7898 29.6457 85.3068 29.9781 85.9773C30.3105 86.6477 30.4766 87.4432 30.4766 88.3636ZM29.4539 88.3636C29.4539 87.6079 29.3275 86.9702 29.0747 86.4503C28.8247 85.9304 28.4852 85.5369 28.0562 85.2699C27.6301 85.0028 27.1528 84.8693 26.6244 84.8693C26.096 84.8693 25.6173 85.0028 25.1883 85.2699C24.7622 85.5369 24.4227 85.9304 24.1698 86.4503C23.9198 86.9702 23.7948 87.6079 23.7948 88.3636C23.7948 89.1193 23.9198 89.7571 24.1698 90.277C24.4227 90.7969 24.7622 91.1903 25.1883 91.4574C25.6173 91.7244 26.096 91.8579 26.6244 91.8579C27.1528 91.8579 27.6301 91.7244 28.0562 91.4574C28.4852 91.1903 28.8247 90.7969 29.0747 90.277C29.3275 89.7571 29.4539 89.1193 29.4539 88.3636Z"
      />
      <path
        d="M85.9793 86.1818C85.9281 85.75 85.7208 85.4148 85.3571 85.1761C84.9935 84.9375 84.5475 84.8182 84.019 84.8182C83.6327 84.8182 83.2946 84.8807 83.0048 85.0057C82.7179 85.1307 82.4935 85.3025 82.3315 85.5213C82.1725 85.74 82.0929 85.9886 82.0929 86.267C82.0929 86.5 82.1483 86.7003 82.2591 86.8679C82.3727 87.0327 82.5176 87.1704 82.6938 87.2812C82.8699 87.3892 83.0546 87.4787 83.2477 87.5497C83.4409 87.6179 83.6185 87.6733 83.7804 87.7159L84.6668 87.9545C84.894 88.0142 85.1469 88.0966 85.4253 88.2017C85.7065 88.3068 85.975 88.4503 86.2307 88.6321C86.4892 88.8111 86.7023 89.0412 86.8699 89.3224C87.0375 89.6037 87.1213 89.9489 87.1213 90.3579C87.1213 90.8295 86.9977 91.2557 86.7506 91.6364C86.5063 92.017 86.1483 92.3196 85.6767 92.544C85.208 92.7685 84.6384 92.8807 83.9679 92.8807C83.3429 92.8807 82.8017 92.7798 82.3443 92.5781C81.8898 92.3764 81.5318 92.0952 81.2705 91.7344C81.0119 91.3736 80.8656 90.9545 80.8315 90.4773H81.9225C81.9509 90.8068 82.0617 91.0795 82.2548 91.2954C82.4509 91.5085 82.698 91.6676 82.9963 91.7727C83.2975 91.875 83.6213 91.9261 83.9679 91.9261C84.3713 91.9261 84.7335 91.8608 85.0546 91.7301C85.3756 91.5966 85.6298 91.4119 85.8173 91.1761C86.0048 90.9375 86.0986 90.6591 86.0986 90.3409C86.0986 90.0511 86.0176 89.8153 85.8557 89.6335C85.6938 89.4517 85.4807 89.304 85.2165 89.1903C84.9523 89.0767 84.6668 88.9773 84.36 88.892L83.2861 88.5852C82.6043 88.3892 82.0645 88.1094 81.6668 87.7457C81.269 87.3821 81.0702 86.9062 81.0702 86.3182C81.0702 85.8295 81.2023 85.4034 81.4665 85.0398C81.7335 84.6733 82.0915 84.3892 82.5404 84.1875C82.9921 83.9829 83.4963 83.8807 84.0531 83.8807C84.6156 83.8807 85.1156 83.9815 85.5531 84.1832C85.9906 84.3821 86.3372 84.6548 86.5929 85.0014C86.8514 85.348 86.9878 85.7415 87.002 86.1818H85.9793Z"
      />
      <path
        d="M141.275 92.7273H138.582V84H141.394C142.241 84 142.965 84.1747 143.567 84.5241C144.17 84.8707 144.631 85.3693 144.952 86.0199C145.273 86.6676 145.434 87.4432 145.434 88.3466C145.434 89.2557 145.272 90.0383 144.948 90.6946C144.624 91.348 144.153 91.8508 143.533 92.2031C142.914 92.5525 142.161 92.7273 141.275 92.7273ZM139.638 91.7898H141.207C141.928 91.7898 142.526 91.6506 143.001 91.3722C143.475 91.0937 143.829 90.6974 144.062 90.1832C144.295 89.669 144.411 89.0568 144.411 88.3466C144.411 87.642 144.296 87.0355 144.066 86.527C143.836 86.0156 143.492 85.6236 143.035 85.3508C142.577 85.0753 142.008 84.9375 141.326 84.9375H139.638V91.7898Z"
      />
    </symbol>
  </defs>
</svg>
