<svg xmlns="http://www.w3.org/2000/svg">
  <defs>
    <symbol
      id="blushes"
      width="170"
      height="120"
      viewBox="0 0 170 120"
      xmlns="http://www.w3.org/2000/svg"
    >
      <rect x="6" y="115.607" width="15" height="5" transform="rotate(-45 6 115.607)" />
      <rect x="20.1421" y="115.607" width="15" height="5" transform="rotate(-45 20.1421 115.607)" />
      <rect x="34.2843" y="115.607" width="15" height="5" transform="rotate(-45 34.2843 115.607)" />
      <rect x="121" y="115.607" width="15" height="5" transform="rotate(-45 121 115.607)" />
      <rect x="135.142" y="115.607" width="15" height="5" transform="rotate(-45 135.142 115.607)" />
      <rect x="149.284" y="115.607" width="15" height="5" transform="rotate(-45 149.284 115.607)" />
    </symbol>

    <symbol
      id="bumped_legends"
      width="170"
      height="120"
      viewBox="0 0 170 120"
      xmlns="http://www.w3.org/2000/svg"
    >
      <path
        d="M29.4754 84H30.5322V89.7784C30.5322 90.375 30.3916 90.9077 30.1103 91.3764C29.8319 91.8423 29.4384 92.2102 28.9299 92.4801C28.4214 92.7472 27.8248 92.8807 27.1402 92.8807C26.4555 92.8807 25.8589 92.7472 25.3504 92.4801C24.8419 92.2102 24.447 91.8423 24.1657 91.3764C23.8873 90.9077 23.7481 90.375 23.7481 89.7784V84H24.8049V89.6932C24.8049 90.1193 24.8987 90.4986 25.0862 90.831C25.2737 91.1605 25.5407 91.4204 25.8873 91.6108C26.2367 91.7983 26.6544 91.892 27.1402 91.892C27.6259 91.892 28.0436 91.7983 28.393 91.6108C28.7424 91.4204 29.0095 91.1605 29.1941 90.831C29.3816 90.4986 29.4754 90.1193 29.4754 89.6932V84Z"
      />
      <path
        d="M81.5043 92.7273L79.51 86.1818H80.5668L81.9816 91.1932H82.0498L83.4475 86.1818H84.5214L85.902 91.1761H85.9702L87.385 86.1818H88.4418L86.4475 92.7273H85.4589L84.027 87.6989H83.9248L82.493 92.7273H81.5043Z"
      />
      <path
        d="M144.174 84H145.231V89.7784C145.231 90.375 145.09 90.9077 144.809 91.3764C144.531 91.8423 144.137 92.2102 143.629 92.4801C143.12 92.7472 142.524 92.8807 141.839 92.8807C141.154 92.8807 140.558 92.7472 140.049 92.4801C139.541 92.2102 139.146 91.8423 138.865 91.3764C138.586 90.9077 138.447 90.375 138.447 89.7784V84H139.504V89.6932C139.504 90.1193 139.597 90.4986 139.785 90.831C139.972 91.1605 140.24 91.4204 140.586 91.6108C140.936 91.7983 141.353 91.892 141.839 91.892C142.325 91.892 142.742 91.7983 143.092 91.6108C143.441 91.4204 143.708 91.1605 143.893 90.831C144.08 90.4986 144.174 90.1193 144.174 89.6932V84Z"
      />
    </symbol>

    <symbol
      id="keys"
      width="170"
      height="120"
      viewBox="0 0 170 120"
      xmlns="http://www.w3.org/2000/svg"
    >
      <rect x="2.5" y="61.5" width="53" height="53" rx="3.5" />
      <rect x="58.5" y="61.5" width="53" height="53" rx="3.5" />
      <rect x="114.5" y="61.5" width="53" height="53" rx="3.5" />
      <rect x="42.5" y="5.5" width="53" height="53" rx="3.5" />
    </symbol>

    <symbol
      id="legends"
      width="170"
      height="120"
      viewBox="0 0 170 120"
      xmlns="http://www.w3.org/2000/svg"
    >
      <path
        d="M64.8153 27.2727H66.0767L69.0426 34.517H69.1449L72.1108 27.2727H73.3721V36H72.3835V29.3693H72.2983L69.571 36H68.6164L65.8892 29.3693H65.8039V36H64.8153V27.2727Z"
      />
      <path d="M26.8023 92V83.2727H27.8591V91.0625H31.9159V92H26.8023Z" />
      <path
        d="M82.5673 92V83.2727H87.8343V84.2102H83.6241V87.1591H87.5616V88.0966H83.6241V91.0625H87.9025V92H82.5673Z"
      />
      <path
        d="M137.969 83.2727L140.559 90.6193H140.662L143.253 83.2727H144.361L141.156 92H140.065L136.861 83.2727H137.969Z"
      />
    </symbol>
  </defs>
</svg>
